<svg width="144" height="81" viewBox="0 0 144 81" fill="none" xmlns="http://www.w3.org/2000/svg">
<path d="M41.3254 31.1026C41.3254 32.8649 41.5159 34.2938 41.8493 35.3417C42.2303 36.3895 42.7066 37.5327 43.3735 38.771C43.6116 39.1521 43.7069 39.5331 43.7069 39.8665C43.7069 40.3428 43.4211 40.8191 42.8019 41.2954L39.8012 43.2959C39.3725 43.5817 38.9438 43.7246 38.5628 43.7246C38.0865 43.7246 37.6102 43.4864 37.1339 43.0578C36.4671 42.3433 35.8955 41.5812 35.4192 40.8191C34.9429 40.0094 34.4666 39.1045 33.9427 38.009C30.2275 42.3909 25.5597 44.5819 19.9394 44.5819C15.9384 44.5819 12.7472 43.4388 10.4133 41.1526C8.07943 38.8663 6.88867 35.818 6.88867 32.0075C6.88867 27.959 8.31758 24.6725 11.223 22.1957C14.1285 19.7189 17.9865 18.4805 22.8924 18.4805C24.5119 18.4805 26.1789 18.6234 27.9413 18.8616C29.7036 19.0997 31.5135 19.4808 33.4187 19.9095V16.4324C33.4187 12.8125 32.6567 10.2881 31.1801 8.8116C29.6559 7.33506 27.0839 6.62061 23.4164 6.62061C21.7493 6.62061 20.0346 6.81113 18.2723 7.2398C16.51 7.66847 14.7953 8.19241 13.1282 8.85923C12.3662 9.19264 11.7946 9.38316 11.4612 9.47842C11.1278 9.57368 10.8896 9.62132 10.6991 9.62132C10.0323 9.62132 9.69886 9.14501 9.69886 8.14478V5.81089C9.69886 5.04881 9.79412 4.47725 10.0323 4.14383C10.2704 3.81042 10.6991 3.47701 11.3659 3.1436C13.033 2.28625 15.0334 1.5718 17.3673 1.00024C19.7012 0.381042 22.178 0.0952605 24.7977 0.0952605C30.4657 0.0952605 34.6095 1.38128 37.2768 3.95331C39.8965 6.52535 41.2301 10.431 41.2301 15.6704V31.1026H41.3254ZM21.9875 38.3424C23.5593 38.3424 25.1787 38.0566 26.8934 37.485C28.6081 36.9135 30.1322 35.8656 31.4183 34.4367C32.1803 33.5317 32.7519 32.5315 33.0377 31.3884C33.3235 30.2452 33.514 28.8639 33.514 27.2445V25.244C32.1327 24.9106 30.6562 24.6249 29.132 24.4343C27.6078 24.2438 26.1313 24.1486 24.6548 24.1486C21.4635 24.1486 19.1297 24.7677 17.5579 26.0538C15.9861 27.3398 15.224 29.1497 15.224 31.5312C15.224 33.7699 15.7955 35.4369 16.9863 36.5801C18.1294 37.7708 19.7965 38.3424 21.9875 38.3424ZM60.2346 43.4864C59.3772 43.4864 58.8057 43.3436 58.4246 43.0101C58.0436 42.7244 57.7102 42.0575 57.4244 41.1526L46.2313 4.33435C45.9455 3.38175 45.8026 2.76256 45.8026 2.42914C45.8026 1.66706 46.1836 1.23839 46.9457 1.23839H51.6135C52.5185 1.23839 53.1377 1.38128 53.4711 1.71469C53.8521 2.00047 54.1379 2.6673 54.4237 3.57227L62.4256 35.1035L69.8559 3.57227C70.094 2.61967 70.3798 2.00047 70.7609 1.71469C71.1419 1.42891 71.8087 1.23839 72.6661 1.23839H76.4765C77.3815 1.23839 78.0007 1.38128 78.3817 1.71469C78.7627 2.00047 79.0962 2.6673 79.2867 3.57227L86.8123 35.4846L95.0523 3.57227C95.3381 2.61967 95.6715 2.00047 96.0049 1.71469C96.386 1.42891 97.0051 1.23839 97.8625 1.23839L102.292 1.23839C103.054 1.23839 103.483 1.61943 103.483 2.42914C103.483 2.6673 103.435 2.90545 103.388 3.19123C103.34 3.47701 103.245 3.85805 103.054 4.38199L91.5753 41.2002C91.2895 42.1528 90.9561 42.772 90.5751 43.0578C90.194 43.3436 89.5748 43.5341 88.7651 43.5341H84.6689C83.7639 43.5341 83.1447 43.3912 82.7637 43.0578C82.3827 42.7244 82.0492 42.1052 81.8587 41.1526L74.476 10.431L67.141 41.1049C66.9028 42.0575 66.617 42.6767 66.236 43.0101C65.8549 43.3436 65.1881 43.4864 64.3308 43.4864H60.2346ZM121.439 44.7725C118.963 44.7725 116.486 44.4867 114.104 43.9151C111.723 43.3436 109.865 42.7244 108.627 42.0099C107.865 41.5812 107.341 41.1049 107.15 40.6763C106.96 40.2476 106.865 39.7713 106.865 39.3426V36.9135C106.865 35.9132 107.246 35.4369 107.96 35.4369C108.246 35.4369 108.532 35.4846 108.817 35.5798C109.103 35.6751 109.532 35.8656 110.008 36.0561C111.628 36.7706 113.39 37.3421 115.248 37.7232C117.153 38.1042 119.01 38.2947 120.916 38.2947C123.916 38.2947 126.25 37.7708 127.87 36.7229C129.489 35.6751 130.346 34.1509 130.346 32.1981C130.346 30.8644 129.918 29.7689 129.06 28.8639C128.203 27.959 126.584 27.1493 124.25 26.3872L117.343 24.2438C113.866 23.1483 111.294 21.5289 109.722 19.3855C108.151 17.2898 107.341 14.9559 107.341 12.4791C107.341 10.4787 107.77 8.71634 108.627 7.19217C109.484 5.668 110.627 4.33435 112.056 3.28649C113.485 2.19099 115.105 1.38128 117.01 0.809715C118.915 0.238151 120.916 0 123.011 0C124.059 0 125.155 0.0476303 126.203 0.190521C127.298 0.333412 128.298 0.523933 129.298 0.714454C130.251 0.952605 131.156 1.19076 132.013 1.47654C132.871 1.76232 133.538 2.0481 134.014 2.33388C134.681 2.71493 135.157 3.09597 135.443 3.52464C135.729 3.90568 135.871 4.42962 135.871 5.09644V7.33506C135.871 8.3353 135.49 8.85923 134.776 8.85923C134.395 8.85923 133.776 8.66871 132.966 8.28767C130.251 7.04928 127.203 6.43009 123.821 6.43009C121.106 6.43009 118.963 6.85876 117.486 7.76373C116.01 8.66871 115.248 10.05 115.248 12.0028C115.248 13.3365 115.724 14.4796 116.676 15.3846C117.629 16.2896 119.391 17.1945 121.916 18.0042L128.679 20.1476C132.109 21.2431 134.585 22.7673 136.062 24.7201C137.538 26.673 138.253 28.9116 138.253 31.3884C138.253 33.4365 137.824 35.294 137.015 36.9135C136.157 38.5329 135.014 39.9618 133.538 41.1049C132.061 42.2957 130.299 43.153 128.251 43.7722C126.107 44.439 123.869 44.7725 121.439 44.7725Z" fill="#252F3E"/>
<path fill-rule="evenodd" clip-rule="evenodd" d="M129.474 62.3135C113.804 73.8877 91.0367 80.032 71.4607 80.032C44.0256 80.032 19.3055 69.8867 0.634443 53.0256C-0.842095 51.692 0.491553 49.882 2.25387 50.9299C22.4491 62.6469 47.3597 69.7439 73.1277 69.7439C90.5128 69.7439 109.613 66.124 127.188 58.6936C129.808 57.5029 132.046 60.4083 129.474 62.3135Z" fill="#FF9900"/>
<path fill-rule="evenodd" clip-rule="evenodd" d="M136 54.8831C133.999 52.311 122.758 53.6447 117.662 54.2639C116.138 54.4544 115.9 53.1208 117.281 52.1205C126.235 45.8333 140.953 47.6433 142.668 49.739C144.383 51.8824 142.192 66.6001 133.809 73.6494C132.523 74.7449 131.284 74.1733 131.856 72.7444C133.761 68.029 138 57.4075 136 54.8831Z" fill="#FF9900"/>
</svg>
