<svg width="73" height="73" viewBox="0 0 73 73" fill="none" xmlns="http://www.w3.org/2000/svg">
<path d="M24.3368 2.19323H45.938L23.5137 68.6731C23.399 69.0126 23.2322 69.3322 23.0191 69.6204C22.8065 69.9087 22.55 70.1615 22.2589 70.3705C21.9678 70.5795 21.6466 70.7419 21.3053 70.8514C20.964 70.9609 20.6081 71.0175 20.2504 71.0175H3.43919C2.89348 71.0175 2.35507 70.8879 1.86959 70.6379C1.38359 70.3885 0.964067 70.0269 0.645843 69.5829C0.327411 69.139 0.119094 68.6257 0.0380778 68.0854C-0.0431401 67.5452 0.00613817 66.9931 0.180437 66.4757L21.0726 4.53577C21.1867 4.1963 21.3537 3.8769 21.5672 3.58853C21.7798 3.30016 22.0372 3.04739 22.3274 2.83841C22.6185 2.62943 22.9397 2.467 23.281 2.35749C23.6223 2.24798 23.9782 2.19141 24.3359 2.19141V2.19232L24.3368 2.19323Z" fill="url(#paint0_linear_1099_55048)"/>
<path d="M64.1575 71.0182H44.761C44.5448 71.0182 44.3285 70.9981 44.115 70.957C43.9023 70.9169 43.6934 70.8566 43.4917 70.7773C43.29 70.6979 43.0965 70.5993 42.9131 70.4843C42.7299 70.3686 42.5579 70.236 42.3993 70.0883L20.3884 49.532C20.1556 49.3146 19.9935 49.0322 19.923 48.7216C19.8526 48.4109 19.8774 48.0863 19.9941 47.7899C20.1108 47.4935 20.314 47.2391 20.5773 47.0598C20.841 46.881 21.1522 46.7852 21.4707 46.7852H55.7245L64.1557 71.0191L64.1575 71.0182Z" fill="#0078D4"/>
<path d="M46.0158 2.19145L30.8947 46.7874L55.6013 46.7819L64.0763 71.0158H44.7528C44.553 71.014 44.3531 70.9958 44.156 70.9602C43.9589 70.9246 43.7654 70.8726 43.5775 70.8032C43.2005 70.6659 42.8499 70.4649 42.5408 70.2091L27.6825 56.3419L23.523 68.6085C23.4154 68.9151 23.2675 69.2062 23.0832 69.4736C22.7137 70.0115 22.2084 70.4419 21.6185 70.7211C21.3249 70.86 21.014 70.9591 20.6941 71.0158H3.44947C2.89828 71.0177 2.35439 70.8863 1.86435 70.6326C1.37423 70.3791 0.952342 70.0113 0.634349 69.5604C0.316355 69.1095 0.111604 68.5886 0.0374046 68.0418C-0.0365266 67.4948 0.0219975 66.938 0.208053 66.4184L21.0664 4.58053C21.175 4.23467 21.3384 3.90889 21.5501 3.61504C21.7609 3.3212 22.0182 3.06203 22.3103 2.84849C22.6023 2.63495 22.9271 2.46887 23.2712 2.35754C23.6152 2.2462 23.9757 2.18962 24.338 2.19145H46.0167H46.0158Z" fill="url(#paint1_linear_1099_55048)"/>
<path d="M72.8191 66.474C72.9935 66.9917 73.0426 67.5434 72.9623 68.0837C72.8812 68.6239 72.6733 69.1371 72.3555 69.5813C72.0372 70.0249 71.6178 70.3865 71.1321 70.6359C70.6463 70.8854 70.1082 71.0156 69.5621 71.0158H45.487C46.0327 71.0158 46.5711 70.8853 47.0575 70.6362C47.543 70.387 47.9627 70.0248 48.2812 69.5813C48.5997 69.1377 48.8078 68.624 48.889 68.0837C48.9702 67.5435 48.9209 66.9914 48.7466 66.474L27.8535 4.53212C27.6236 3.84979 27.1853 3.25678 26.6006 2.83659C26.3104 2.62761 25.9892 2.46609 25.6488 2.35658C25.3084 2.24707 24.9525 2.19141 24.5957 2.19141H48.67C49.0277 2.19141 49.3827 2.24707 49.724 2.35658C50.0644 2.46609 50.3856 2.62852 50.6767 2.83659C50.9669 3.04556 51.2233 3.29834 51.4359 3.5858C51.6486 3.87326 51.8147 4.19265 51.9296 4.53212L72.8227 66.474H72.8191Z" fill="url(#paint2_linear_1099_55048)"/>
<defs>
<linearGradient id="paint0_linear_1099_55048" x1="32.2204" y1="7.29443" x2="9.77152" y2="73.6101" gradientUnits="userSpaceOnUse">
<stop stop-color="#114A8B"/>
<stop offset="1" stop-color="#0669BC"/>
</linearGradient>
<linearGradient id="paint1_linear_1099_55048" x1="39.22" y1="38.192" x2="34.0275" y2="39.9532" gradientUnits="userSpaceOnUse">
<stop stop-opacity="0.3"/>
<stop offset="0.1" stop-opacity="0.2"/>
<stop offset="0.3" stop-opacity="0.1"/>
<stop offset="0.6" stop-opacity="0.1"/>
<stop offset="1" stop-opacity="0"/>
</linearGradient>
<linearGradient id="paint2_linear_1099_55048" x1="36.3541" y1="5.35799" x2="60.9932" y2="70.9985" gradientUnits="userSpaceOnUse">
<stop stop-color="#3CCBF4"/>
<stop offset="1" stop-color="#2892DF"/>
</linearGradient>
</defs>
</svg>
