<svg width="80" height="58" viewBox="0 0 80 58" fill="none" xmlns="http://www.w3.org/2000/svg">
<path d="M79.211 21.8693C78.994 21.697 76.9686 20.1676 72.697 20.1676C71.5691 20.1725 70.4436 20.2692 69.3314 20.4569C68.5047 14.7903 63.8198 12.0276 63.6097 11.9037L62.4627 11.2422L61.7083 12.3308C60.7636 13.7931 60.0739 15.4051 59.6691 17.0983C58.9043 20.3329 59.3693 23.3711 61.0125 25.9685C59.0283 27.0742 55.8454 27.3464 55.2013 27.3705H2.50374C1.12729 27.3724 0.0103738 28.4847 0.00287241 29.861C-0.058594 34.4776 0.723563 39.0667 2.31083 43.4022C4.12616 48.1629 6.82687 51.6696 10.3405 53.8157C14.2779 56.227 20.6747 57.6049 27.9259 57.6049C31.2016 57.6152 34.4712 57.3187 37.6917 56.7196C42.1686 55.8976 46.4765 54.3328 50.4372 52.0898C53.7008 50.1999 56.6379 47.7957 59.1352 44.9696C63.3102 40.2434 65.7974 34.9798 67.6471 30.3019H68.3843C72.9554 30.3019 75.7664 28.4727 77.3165 26.9399C78.3467 25.9622 79.1509 24.7713 79.6727 23.4504L80 22.4928L79.211 21.8693Z" fill="#2496ED"/>
<path d="M7.38854 25.8276H14.4502C14.7908 25.8276 15.0668 25.5515 15.0668 25.211V18.9208C15.0687 18.5802 14.7942 18.3027 14.4537 18.3008C14.4526 18.3008 14.4514 18.3008 14.4502 18.3008H7.38854C7.04796 18.3008 6.77197 18.5769 6.77197 18.9173V18.9208V25.2109C6.77197 25.5515 7.04796 25.8276 7.38854 25.8276Z" fill="#2496ED"/>
<path d="M17.1197 25.8276H24.1814C24.5219 25.8276 24.7979 25.5515 24.7979 25.211V18.9208C24.7998 18.5802 24.5253 18.3027 24.1847 18.3008C24.1836 18.3008 24.1824 18.3008 24.1812 18.3008H17.1196C16.7771 18.3008 16.4995 18.5783 16.4995 18.9208V25.2109C16.5015 25.552 16.7785 25.8276 17.1197 25.8276Z" fill="#2496ED"/>
<path d="M26.999 25.8276H34.0607C34.4013 25.8276 34.6773 25.5515 34.6773 25.211V18.9208C34.6792 18.5802 34.4046 18.3027 34.0641 18.3008C34.0629 18.3008 34.0617 18.3008 34.0606 18.3008H26.9989C26.6583 18.3008 26.3823 18.5769 26.3823 18.9173V18.9208V25.2109C26.3824 25.5515 26.6585 25.8276 26.999 25.8276Z" fill="#2496ED"/>
<path d="M36.7616 25.8276H43.8233C44.1644 25.8276 44.4414 25.5521 44.4433 25.211V18.9208C44.4433 18.5783 44.1658 18.3008 43.8233 18.3008H36.7616C36.421 18.3008 36.145 18.5769 36.145 18.9173V18.9208V25.2109C36.145 25.5515 36.4211 25.8276 36.7616 25.8276Z" fill="#2496ED"/>
<path d="M17.1195 16.7806H24.1812C24.5223 16.7787 24.7978 16.5016 24.7978 16.1605V9.87047C24.7978 9.52989 24.5217 9.25391 24.1812 9.25391H17.1195C16.7785 9.25391 16.5014 9.52933 16.4995 9.87047V16.1605C16.5014 16.5022 16.7778 16.7787 17.1195 16.7806Z" fill="#2496ED"/>
<path d="M26.9989 16.7806H34.0606C34.4016 16.7787 34.6772 16.5016 34.6772 16.1605V9.87047C34.6772 9.52989 34.4011 9.25391 34.0606 9.25391H26.9989C26.6583 9.25391 26.3823 9.53 26.3823 9.87047V16.1605C26.3823 16.5016 26.6579 16.7787 26.9989 16.7806Z" fill="#2496ED"/>
<path d="M36.7616 16.7806H43.8233C44.165 16.7787 44.4414 16.5022 44.4433 16.1605V9.87047C44.4414 9.52933 44.1644 9.25391 43.8233 9.25391H36.7616C36.421 9.25391 36.145 9.53 36.145 9.87047V16.1605C36.145 16.5016 36.4206 16.7787 36.7616 16.7806Z" fill="#2496ED"/>
<path d="M36.7616 7.726H43.8233C44.1644 7.726 44.4414 7.45046 44.4433 7.10943V0.815786C44.4414 0.474642 44.1644 0.199219 43.8233 0.199219H36.7616C36.421 0.199219 36.145 0.475202 36.145 0.815786V7.10932C36.145 7.4499 36.4211 7.726 36.7616 7.726Z" fill="#2496ED"/>
<path d="M46.6097 25.8276H53.6714C54.0126 25.8276 54.2896 25.5521 54.2915 25.211V18.9208C54.2915 18.5783 54.0139 18.3008 53.6714 18.3008H46.6097C46.2693 18.3008 45.9932 18.5769 45.9932 18.9173V18.9208V25.2109C45.9932 25.5515 46.2693 25.8276 46.6097 25.8276Z" fill="#2496ED"/>
</svg>
