<svg width="95" height="95" viewBox="0 0 95 95" fill="none" xmlns="http://www.w3.org/2000/svg">
<path d="M25.9762 13.4781C25.9675 14.0633 25.7859 14.6328 25.4544 15.1152C25.1229 15.5975 24.6562 15.9711 24.1131 16.1889C23.5699 16.4068 22.9744 16.4593 22.4015 16.3398C21.8286 16.2202 21.3038 15.934 20.893 15.5171C20.4823 15.1002 20.2039 14.5712 20.0929 13.9966C19.9819 13.422 20.0433 12.8273 20.2692 12.2875C20.4952 11.7476 20.8757 11.2865 21.3629 10.9622C21.85 10.638 22.4222 10.4649 23.0075 10.4648C23.8 10.4731 24.5571 10.7946 25.1133 11.3592C25.6696 11.9238 25.9798 12.6856 25.9762 13.4781Z" fill="#FF9595"/>
<path d="M17.07 13.4781C17.0612 14.0633 16.8797 14.6328 16.5482 15.1152C16.2167 15.5975 15.75 15.9711 15.2068 16.1889C14.6636 16.4068 14.0682 16.4593 13.4952 16.3398C12.9223 16.2202 12.3975 15.934 11.9868 15.5171C11.576 15.1002 11.2977 14.5712 11.1867 13.9966C11.0757 13.422 11.137 12.8273 11.363 12.2875C11.5889 11.7476 11.9694 11.2865 12.4566 10.9622C12.9438 10.638 13.516 10.4649 14.1012 10.4648C14.8938 10.4731 15.6508 10.7946 16.2071 11.3592C16.7633 11.9238 17.0736 12.6856 17.07 13.4781Z" fill="#FF9595"/>
<path d="M34.8825 13.4781C34.8737 14.0633 34.6922 14.6328 34.3607 15.1152C34.0291 15.5975 33.5625 15.9711 33.0193 16.1889C32.4761 16.4068 31.8807 16.4593 31.3077 16.3398C30.7348 16.2202 30.21 15.934 29.7993 15.5171C29.3885 15.1002 29.1102 14.5712 28.9992 13.9966C28.8882 13.422 28.9495 12.8273 29.1755 12.2875C29.4014 11.7476 29.7819 11.2865 30.2691 10.9622C30.7563 10.638 31.3285 10.4649 31.9137 10.4648C32.7063 10.4731 33.4633 10.7946 34.0196 11.3592C34.5758 11.9238 34.8861 12.6856 34.8825 13.4781Z" fill="#FF9595"/>
<path d="M86.8359 5.19531H8.16406C7.37742 5.19766 6.62367 5.51119 6.06743 6.06743C5.51119 6.62367 5.19766 7.37742 5.19531 8.16406V86.8359C5.19766 87.6226 5.51119 88.3763 6.06743 88.9326C6.62367 89.4888 7.37742 89.8023 8.16406 89.8047H86.8359C87.6226 89.8023 88.3763 89.4888 88.9326 88.9326C89.4888 88.3763 89.8023 87.6226 89.8047 86.8359V8.16406C89.8023 7.37742 89.4888 6.62367 88.9326 6.06743C88.3763 5.51119 87.6226 5.19766 86.8359 5.19531ZM86.8359 86.8359H8.16406V21.7758H86.8359V86.8359ZM86.8359 18.807H8.16406V8.16406H86.8359V18.807Z" fill="#FF9595"/>
<path d="M83.4369 14.7098C83.7114 14.9899 83.864 15.3672 83.8612 15.7594C83.8584 16.1515 83.7005 16.5266 83.4221 16.8028C83.2872 16.9413 83.1255 17.0509 82.9468 17.1249C82.7682 17.1989 82.5764 17.2358 82.383 17.2333C82.1863 17.2345 81.9915 17.1956 81.8103 17.119C81.6291 17.0425 81.4654 16.9298 81.3291 16.7879L80.1565 15.6004L78.9838 16.7879C78.8476 16.9298 78.6839 17.0425 78.5027 17.119C78.3215 17.1956 78.1266 17.2345 77.9299 17.2333C77.7366 17.2358 77.5447 17.1989 77.3661 17.1249C77.1875 17.0509 77.0258 16.9413 76.8908 16.8028C76.6124 16.5266 76.4545 16.1515 76.4518 15.7594C76.449 15.3672 76.6015 14.9899 76.876 14.7098L78.0783 13.4778L76.876 12.2606C76.5999 11.9784 76.4465 11.5985 76.4493 11.2036C76.452 10.8088 76.6108 10.4311 76.8908 10.1528C77.1709 9.87829 77.5482 9.72577 77.9404 9.72855C78.3325 9.73133 78.7077 9.88919 78.9838 10.1676L80.1565 11.37L81.3291 10.1676C81.6053 9.88919 81.9804 9.73133 82.3726 9.72855C82.7647 9.72577 83.142 9.87829 83.4221 10.1528C83.7022 10.4311 83.8609 10.8088 83.8637 11.2036C83.8665 11.5985 83.7131 11.9784 83.4369 12.2606L82.2346 13.4778L83.4369 14.7098Z" fill="#FF9595"/>
<path d="M73.4766 13.4785C73.4766 13.8722 73.3202 14.2498 73.0418 14.5281C72.7634 14.8065 72.3859 14.9629 71.9922 14.9629H66.0547C65.661 14.9629 65.2834 14.8065 65.0051 14.5281C64.7267 14.2498 64.5703 13.8722 64.5703 13.4785C64.5703 13.0848 64.7267 12.7073 65.0051 12.4289C65.2834 12.1505 65.661 11.9941 66.0547 11.9941H71.9922C72.3859 11.9941 72.7634 12.1505 73.0418 12.4289C73.3202 12.7073 73.4766 13.0848 73.4766 13.4785Z" fill="#FF9595"/>
<path d="M29.9096 63.6652L35.2979 60.5629H61.5268C62.3089 60.5588 63.075 60.3409 63.7421 59.9327C64.4093 59.5246 64.9521 58.9417 65.3119 58.2473L73.7283 42.3496C74.1198 41.6003 74.2966 40.7572 74.2389 39.9137C74.1813 39.0702 73.8916 38.2591 73.4018 37.5699L72.333 36.0559C71.938 35.5013 71.4174 35.0481 70.8137 34.7334C70.21 34.4186 69.5404 34.2512 68.8596 34.2449H68.8447L33.858 34.334L33.6354 32.048C33.5348 30.9195 33.0192 29.8683 32.1885 29.0978C31.3577 28.3273 30.2707 27.8923 29.1377 27.877H20.751C20.3573 27.877 19.9797 28.0333 19.7014 28.3117C19.423 28.5901 19.2666 28.9676 19.2666 29.3613C19.2666 29.755 19.423 30.1326 19.7014 30.4109C19.9797 30.6893 20.3573 30.8457 20.751 30.8457H29.1377C29.5365 30.8632 29.9147 31.0275 30.1996 31.307C30.4846 31.5865 30.6562 31.9614 30.6814 32.3598L33.3236 58.2769L28.3213 61.1715C27.7031 61.6067 27.1993 62.185 26.853 62.857C26.5066 63.529 26.328 64.2748 26.3322 65.0309V65.4465C26.3211 66.6069 26.747 67.7291 27.5253 68.5899C28.3036 69.4507 29.3773 69.9871 30.533 70.0926C29.7749 71.2312 29.3719 72.5692 29.3752 73.9371C29.3428 74.8161 29.4879 75.6926 29.8018 76.5142C30.1158 77.3358 30.5922 78.0857 31.2026 78.719C31.813 79.3523 32.5448 79.8561 33.3543 80.2002C34.1638 80.5443 35.0343 80.7216 35.9139 80.7216C36.7934 80.7216 37.664 80.5443 38.4735 80.2002C39.2829 79.8561 40.0147 79.3523 40.6251 78.719C41.2355 78.0857 41.7119 77.3358 42.0259 76.5142C42.3399 75.6926 42.485 74.8161 42.4525 73.9371C42.4517 72.5813 42.0544 71.2552 41.3096 70.1223H54.7729C54.0213 71.2521 53.6233 72.5802 53.6299 73.9371C53.5974 74.8161 53.7425 75.6926 54.0565 76.5142C54.3705 77.3358 54.8469 78.0857 55.4573 78.719C56.0677 79.3523 56.7995 79.8561 57.609 80.2002C58.4184 80.5443 59.289 80.7216 60.1686 80.7216C61.0481 80.7216 61.9187 80.5443 62.7282 80.2002C63.5376 79.8561 64.2694 79.3523 64.8798 78.719C65.4902 78.0857 65.9666 77.3358 66.2806 76.5142C66.5946 75.6926 66.7397 74.8161 66.7072 73.9371C66.7063 72.5813 66.3091 71.2552 65.5643 70.1223H68.251C68.6447 70.1223 69.0222 69.9659 69.3006 69.6875C69.579 69.4091 69.7354 69.0316 69.7354 68.6379C69.7354 68.2442 69.579 67.8667 69.3006 67.5883C69.0222 67.3099 68.6447 67.1535 68.251 67.1535H30.8596C30.4273 67.1316 30.0212 66.94 29.7294 66.6204C29.4376 66.3008 29.2836 65.8789 29.301 65.4465V65.0309C29.2985 64.7729 29.3515 64.5174 29.4566 64.2818C29.5616 64.0461 29.7161 63.8359 29.9096 63.6652ZM62.6994 56.852C62.5887 57.0697 62.4214 57.2535 62.215 57.3841C62.0087 57.5147 61.7709 57.5873 61.5268 57.5941H36.233L34.7041 42.5426L70.2697 42.5277L62.6994 56.852ZM68.8447 37.2137H68.8596C69.0677 37.2158 69.2722 37.2682 69.4557 37.3664C69.6392 37.4646 69.7963 37.6057 69.9135 37.7777L70.9971 39.2918C71.0416 39.366 71.0861 39.4551 71.1307 39.5441L34.3924 39.5738L34.1697 37.3027L68.8447 37.2137ZM60.1611 70.1223C60.9287 70.0683 61.6948 70.2467 62.3595 70.6343C63.0243 71.0219 63.5569 71.6007 63.888 72.2952C64.2192 72.9898 64.3335 73.768 64.2161 74.5285C64.0987 75.289 63.7551 75.9965 63.2299 76.5589C62.7047 77.1213 62.0223 77.5125 61.2716 77.6815C60.521 77.8506 59.7368 77.7897 59.0212 77.5068C58.3056 77.2239 57.6918 76.7321 57.2597 76.0954C56.8276 75.4587 56.5972 74.7066 56.5986 73.9371C56.5682 72.9596 56.9257 72.0098 57.5932 71.295C58.2607 70.5803 59.1838 70.1587 60.1611 70.1223ZM35.9064 70.1223C36.674 70.0683 37.4401 70.2467 38.1048 70.6343C38.7696 71.0219 39.3022 71.6007 39.6334 72.2952C39.9645 72.9898 40.0788 73.768 39.9614 74.5285C39.844 75.289 39.5004 75.9965 38.9752 76.5589C38.45 77.1213 37.7676 77.5125 37.017 77.6815C36.2663 77.8506 35.4821 77.7897 34.7665 77.5068C34.0509 77.2239 33.4371 76.7321 33.005 76.0954C32.5729 75.4587 32.3426 74.7066 32.3439 73.9371C32.3135 72.9596 32.671 72.0098 33.3385 71.295C34.006 70.5803 34.9292 70.1587 35.9064 70.1223Z" fill="#FF9595"/>
</svg>
