<svg width="83" height="83" viewBox="0 0 83 83" fill="none" xmlns="http://www.w3.org/2000/svg">
<g clip-path="url(#clip0_1099_55055)">
<path d="M52.666 26.693H55.1988L62.4144 19.4774L62.7692 16.4158C49.3435 4.56614 28.8484 5.84295 16.9987 19.2687C13.704 22.9982 11.3139 27.434 10.0127 32.2351C10.8164 31.9046 11.707 31.8524 12.5455 32.0821L26.9731 29.7024C26.9731 29.7024 27.7072 28.4882 28.0864 28.5647C34.5053 21.5161 45.3078 20.6951 52.7182 26.693H52.666Z" fill="#EA4335"/>
<path d="M72.6912 32.2364C71.0317 26.1306 67.6292 20.6406 62.8942 16.4414L52.7702 26.5655C57.0459 30.0585 59.4813 35.3223 59.3769 40.8436V42.6422C64.3554 42.6422 68.3876 46.6779 68.3876 51.653C68.3876 56.6315 64.3519 60.6638 59.3769 60.6638H41.3519L39.5532 62.4868V73.2963L41.3519 75.0949H59.3769C69.7097 75.1749 78.877 68.4778 81.9455 58.6111C85.0071 48.741 81.2497 38.0255 72.6912 32.2364Z" fill="#4285F4"/>
<path d="M23.3027 74.9961H41.3277V60.5684H23.3027C22.0189 60.5684 20.7491 60.2936 19.5801 59.7578L17.0474 60.5406L9.78309 67.7562L9.1499 70.2889C13.2239 73.3644 18.1955 75.017 23.3027 74.9961Z" fill="#34A853"/>
<path d="M23.3031 28.1876C13.2903 28.2468 4.42218 34.6587 1.2284 44.1461C-1.96538 53.6335 1.21796 64.1054 9.15371 70.2077L19.6083 59.7531C15.0716 57.704 13.0572 52.3671 15.1064 47.8304C17.1556 43.2937 22.4924 41.2793 27.0291 43.3285C29.0261 44.2331 30.6265 45.8334 31.531 47.8304L41.9856 37.3758C37.5359 31.5623 30.623 28.1633 23.3031 28.1876Z" fill="#FBBC05"/>
</g>
<defs>
<clipPath id="clip0_1099_55055">
<rect width="83" height="66.7945" fill="white" transform="translate(0 8.30078)"/>
</clipPath>
</defs>
</svg>
