<svg width="98" height="38" viewBox="0 0 98 38" fill="none" xmlns="http://www.w3.org/2000/svg">
<path d="M55.9927 3.16976L56.2078 3.3134C58.7367 4.98341 60.5499 7.27371 61.7427 10.0412C62.029 10.4706 61.8382 10.7092 61.2656 10.8523L60.2964 11.1002C58.1054 11.6647 56.3667 12.1394 54.2046 12.7038L52.9714 13.0251C52.5273 13.135 52.4047 13.0888 51.9324 12.551L51.8658 12.4746C51.1922 11.7112 50.6876 11.2013 49.7952 10.7462L49.6232 10.6615C46.6172 9.1823 43.7066 9.61173 40.9869 11.3772C37.7423 13.4766 36.0723 16.5781 36.12 20.4429C36.1677 24.2601 38.792 27.4093 42.5614 27.9341C45.806 28.3636 48.5258 27.2184 50.6729 24.785C51.1024 24.2601 51.4841 23.6875 51.9612 23.0195H42.7523C41.7503 23.0195 41.5117 22.3992 41.8457 21.5881L42.0112 21.1987C42.6244 19.772 43.5755 17.7211 44.1933 16.5486L44.328 16.2963C44.4929 16.0103 44.8279 15.6238 45.472 15.6238L60.8274 15.6237C61.517 13.4388 62.6359 11.3743 64.1285 9.42087C67.6116 4.84027 71.8105 2.45453 77.4886 1.45253C82.3554 0.593664 86.9361 1.07081 91.0872 3.88597C94.8567 6.46256 97.1947 9.94573 97.815 14.5263C98.6261 20.9678 96.7653 26.2164 92.3278 30.7016C89.1786 33.8985 85.3138 35.9025 80.8763 36.8091C79.588 37.0476 78.2997 37.0954 77.0591 37.2385C72.7171 37.1431 68.7568 35.9025 65.4168 33.0396C63.0676 31.009 61.4494 28.5132 60.6453 25.6077C60.0874 26.7347 59.4202 27.814 58.6413 28.8407C55.2058 33.3736 50.7206 36.1888 45.0426 36.9522C40.3666 37.5725 36.0245 36.6659 32.2074 33.803C28.6765 31.131 26.6725 27.6001 26.1476 23.2104C25.5273 18.0095 27.0542 13.3335 30.2034 9.23001C33.5911 4.79255 38.0763 1.97739 43.5635 0.975381C47.9656 0.179254 52.1838 0.670112 55.9927 3.16976ZM78.691 10.0072L78.5383 10.0412C74.1008 11.0432 71.2379 13.8583 70.1882 18.3435C69.3294 22.0652 71.1425 25.8347 74.578 27.3616C77.2023 28.5067 79.8266 28.3636 82.3554 27.0753C86.1249 25.119 88.1766 22.0652 88.4152 17.9618C88.3675 17.3415 88.3675 16.8644 88.2721 16.3872C87.4229 11.7165 83.1683 9.05174 78.691 10.0072ZM22.2827 18.7252C22.4736 18.7252 22.569 18.8684 22.569 19.0592L22.4736 20.2044C22.4736 20.3952 22.2827 20.5384 22.1396 20.5384L11.7378 20.4907C11.5469 20.4907 11.4992 20.3475 11.5947 20.2044L12.2627 19.0115C12.3581 18.8684 12.5489 18.7252 12.7398 18.7252H22.2827ZM23.3325 14.3355C23.5233 14.3355 23.6187 14.4786 23.571 14.6218L23.1893 15.7669C23.1416 15.9578 22.9507 16.0532 22.7599 16.0532L0.190859 16.1009C0 16.1009 -0.0477146 16.0055 0.0477146 15.8623L1.04972 14.574C1.14515 14.4309 1.38372 14.3355 1.57458 14.3355H23.3325ZM25.8136 9.94573C26.0045 9.94573 26.0522 10.0889 25.9568 10.232L25.1456 11.4726C25.0502 11.6157 24.8116 11.7589 24.6685 11.7589L7.39577 11.7112C7.20491 11.7112 7.15719 11.6157 7.25262 11.4726L8.25463 10.1843C8.35006 10.0412 8.58863 9.94573 8.77949 9.94573H25.8136Z" fill="#00ACD7"/>
</svg>
