<svg width="84" height="81" viewBox="0 0 84 81" fill="none" xmlns="http://www.w3.org/2000/svg">
<path d="M74.3892 19.5621C73.9375 18.1167 72.8535 16.9423 71.4983 16.2195L43.9445 3.02983C43.2218 2.66847 42.4087 2.57812 41.686 2.57812C40.9632 2.57812 40.1502 2.57813 39.4275 2.75881L11.8736 16.0389C10.5185 16.6712 9.52473 17.8457 9.16337 19.3815L2.38783 49.1035C2.11681 50.6393 2.47817 52.1751 3.38157 53.4398L22.4434 77.0187C23.5275 78.1028 25.0633 78.8255 26.5991 78.9159H56.9535C58.5796 79.0966 60.1154 78.3738 61.1092 77.0187L80.171 53.4398C81.0744 52.1751 81.4358 50.6393 81.2551 49.1035L74.3892 19.5621Z" fill="#121212" stroke="#121212" stroke-width="3.95" stroke-miterlimit="10"/>
<path d="M74.3892 19.5621C73.9375 18.1167 72.8535 16.9423 71.4983 16.2195L43.9445 3.02983C43.2218 2.66847 42.4087 2.57812 41.686 2.57812C40.9632 2.57812 40.1502 2.57813 39.4275 2.75881L11.8736 16.0389C10.5185 16.6712 9.52473 17.8457 9.16337 19.3815L2.38783 49.1035C2.11681 50.6393 2.47817 52.1751 3.38157 53.4398L22.4434 77.0187C23.5275 78.1028 25.0633 78.8255 26.5991 78.9159H56.9535C58.5796 79.0966 60.1154 78.3738 61.1092 77.0187L80.171 53.4398C81.0744 52.1751 81.4358 50.6393 81.2551 49.1035L74.3892 19.5621Z" fill="#326DE6"/>
<path d="M70.1432 47.9284C70.0529 47.9284 69.9625 47.9284 69.9625 47.838C69.9625 47.7477 69.7818 47.7477 69.6012 47.7477C69.2398 47.6574 68.8784 47.6574 68.5171 47.6574C68.3364 47.6574 68.1557 47.6574 67.975 47.567H67.8847C66.8909 47.4767 65.8068 47.296 64.8131 47.025C64.5421 46.9346 64.2711 46.6636 64.1807 46.3926L63.458 46.2119C63.8194 43.592 63.6387 40.8818 63.0966 38.2619C62.4643 35.6421 61.3802 33.1125 59.9347 30.854L60.4768 30.312V30.2216C60.4768 29.9506 60.5671 29.5893 60.7478 29.4086C61.5608 28.6859 62.3739 28.1438 63.2773 27.6018C63.458 27.5114 63.6387 27.4211 63.8194 27.3307C64.1807 27.1501 64.4517 26.9694 64.8131 26.7887C64.9034 26.6984 64.9938 26.6984 65.0841 26.608C65.1745 26.5177 65.0841 26.5177 65.0841 26.4273C65.8972 25.795 66.0779 24.7109 65.4455 23.8978C65.1745 23.5364 64.6324 23.2654 64.1807 23.2654C63.729 23.2654 63.2773 23.4461 62.916 23.7171L62.8256 23.8075C62.7353 23.8978 62.6449 23.9881 62.5546 23.9881C62.2836 24.2592 62.0126 24.5302 61.8319 24.8012C61.7415 24.9819 61.5608 25.0722 61.4705 25.1626C60.8381 25.8853 60.0251 26.608 59.212 27.1501C59.0313 27.2404 58.8506 27.3307 58.6699 27.3307C58.5796 27.3307 58.3989 27.3307 58.3086 27.2404H58.2182L57.4955 27.6921C56.7728 26.9694 55.9597 26.2467 55.237 25.5239C51.8944 22.9041 47.7387 21.2779 43.4927 20.8262L43.4024 20.1035V20.1938C43.1314 20.0132 43.041 19.7421 42.9507 19.4711C42.9507 18.4774 42.9507 17.4836 43.1314 16.3995V16.3092C43.1314 16.1285 43.2217 15.9478 43.2217 15.7672C43.3121 15.4058 43.3121 15.0444 43.4024 14.6831V14.141C43.4927 13.2376 42.77 12.3342 41.8666 12.2439C41.3246 12.1535 40.7825 12.4246 40.3308 12.8763C39.9695 13.2376 39.7888 13.6893 39.7888 14.141V14.5927C39.7888 14.9541 39.8791 15.3155 39.9695 15.6768C40.0598 15.8575 40.0598 16.0382 40.0598 16.2189V16.3092C40.2405 17.3029 40.2405 18.2967 40.2405 19.3808C40.1501 19.6518 40.0598 19.9228 39.7888 20.1035V20.2842L39.6984 21.0069C38.7047 21.0972 37.7109 21.2779 36.6269 21.4586C32.3808 22.362 28.4962 24.6205 25.515 27.7824L24.9729 27.4211H24.8826C24.7922 27.4211 24.7019 27.5114 24.5212 27.5114C24.3405 27.5114 24.1599 27.4211 23.9792 27.3307C23.1661 26.6984 22.353 25.9756 21.7207 25.2529C21.6303 25.0722 21.4496 24.9819 21.3593 24.8915C21.0883 24.6205 20.9076 24.3495 20.6366 24.0785C20.5462 23.9881 20.4559 23.9881 20.3656 23.8978C20.2752 23.8075 20.2752 23.8075 20.2752 23.8075C19.9139 23.5364 19.4622 23.3558 19.0104 23.3558C18.4684 23.3558 18.0167 23.5364 17.7457 23.9881C17.2036 24.8012 17.3843 25.8853 18.107 26.5177C18.1974 26.5177 18.1974 26.608 18.1974 26.608C18.1974 26.608 18.3781 26.7887 18.4684 26.7887C18.7394 26.9694 19.1008 27.1501 19.4622 27.3307C19.6428 27.4211 19.8235 27.5114 20.0042 27.6018C20.9076 28.1438 21.811 28.6859 22.5337 29.4086C22.7144 29.5893 22.8951 29.9506 22.8048 30.2216V30.1313L23.3468 30.6733C23.2565 30.854 23.1661 30.9444 23.0758 31.125C20.2752 35.5517 19.1008 40.7915 19.9139 45.9409L19.1911 46.1216C19.1911 46.2119 19.1008 46.2119 19.1008 46.2119C19.0104 46.4829 18.7394 46.6636 18.4684 46.8443C17.4747 47.1153 16.4809 47.296 15.3968 47.3863C15.2161 47.3863 15.0355 47.3863 14.8548 47.4767C14.4934 47.4767 14.1321 47.567 13.7707 47.567C13.6804 47.567 13.59 47.6574 13.4093 47.6574C13.319 47.6574 13.319 47.6574 13.2287 47.7477C12.2349 47.9284 11.6025 48.8318 11.7832 49.8255C11.9639 50.6386 12.777 51.1806 13.59 51.0903C13.7707 51.0903 13.861 51.0903 14.0417 51C14.1321 51 14.1321 51 14.1321 50.9096C14.1321 50.8193 14.4031 50.9096 14.4934 50.9096C14.8548 50.8193 15.2161 50.6386 15.4872 50.5483C15.6678 50.4579 15.8485 50.3676 16.0292 50.3676H16.1196C17.1133 50.0062 18.0167 49.7352 19.1008 49.5545H19.1911C19.4622 49.5545 19.7332 49.6449 19.9139 49.8255C20.0042 49.8255 20.0042 49.9159 20.0042 49.9159L20.8173 49.8255C22.1724 53.9812 24.7019 57.6852 28.2252 60.3954C29.0382 61.0278 29.761 61.5698 30.6644 62.0215L30.2127 62.6539C30.2127 62.7442 30.303 62.7442 30.303 62.7442C30.4837 63.0153 30.4837 63.3766 30.3934 63.6476C30.032 64.551 29.49 65.4545 28.9479 66.2675V66.3579C28.8576 66.5385 28.7672 66.6289 28.5865 66.8096C28.4059 66.9902 28.2252 67.3516 27.9542 67.713C27.8638 67.8033 27.8638 67.8936 27.7735 67.984C27.7735 67.984 27.7735 68.0743 27.6831 68.0743C27.2314 68.9777 27.5928 70.0618 28.4059 70.5135C28.5865 70.6039 28.8576 70.6942 29.0382 70.6942C29.761 70.6942 30.3934 70.2425 30.7547 69.6101C30.7547 69.6101 30.7547 69.5198 30.8451 69.5198C30.8451 69.4294 30.9354 69.3391 31.0257 69.2488C31.1161 68.8874 31.2968 68.6164 31.3871 68.255L31.5678 67.713C31.8388 66.7192 32.2905 65.8158 32.7422 64.9124C32.9229 64.6414 33.1939 64.4607 33.4649 64.3704C33.5553 64.3704 33.5553 64.3704 33.5553 64.28L33.9166 63.5573C36.4462 64.551 39.066 65.0027 41.7763 65.0027C43.4024 65.0027 45.0285 64.8221 46.6547 64.3704C47.6484 64.1897 48.6421 63.8283 49.5456 63.5573L49.9069 64.1897C49.9973 64.1897 49.9973 64.1897 49.9973 64.28C50.2683 64.3704 50.5393 64.551 50.72 64.8221C51.1717 65.7255 51.6234 66.6289 51.8944 67.6226V67.713L52.0751 68.255C52.1654 68.6164 52.2558 68.9777 52.4365 69.2488C52.5268 69.3391 52.5268 69.4294 52.6171 69.5198C52.6171 69.5198 52.6171 69.6101 52.7075 69.6101C53.0688 70.2425 53.7012 70.6942 54.4239 70.6942C54.695 70.6942 54.8756 70.6039 55.1467 70.5135C55.508 70.3328 55.8694 69.9715 55.9597 69.5198C56.0501 69.0681 56.0501 68.6164 55.8694 68.1647C55.8694 68.0743 55.779 68.0743 55.779 68.0743C55.779 67.984 55.6887 67.8936 55.5984 67.8033C55.4177 67.4419 55.237 67.1709 54.966 66.8999C54.8756 66.7192 54.7853 66.6289 54.6046 66.4482V66.2675C53.9722 65.4545 53.5205 64.551 53.1592 63.6476C53.0688 63.3766 53.0688 63.0153 53.2495 62.7442C53.2495 62.6539 53.3399 62.6539 53.3399 62.6539L53.0688 61.9312C57.6762 59.1306 61.1995 54.7943 62.8256 49.6449L63.5483 49.7352C63.6387 49.7352 63.6387 49.6449 63.6387 49.6449C63.8194 49.4642 64.0904 49.3738 64.3614 49.3738H64.4517C65.4455 49.5545 66.4392 49.8255 67.3426 50.1869H67.433C67.6137 50.2772 67.7943 50.3676 67.975 50.3676C68.3364 50.5483 68.6074 50.7289 68.9688 50.8193C69.0591 50.8193 69.1494 50.9096 69.3301 50.9096C69.4205 50.9096 69.4205 50.9096 69.5108 51C69.6915 51.0903 69.7818 51.0903 69.9625 51.0903C70.7756 51.0903 71.4983 50.5483 71.7693 49.8255C71.679 48.8318 70.9563 48.1091 70.1432 47.9284ZM44.0348 45.1278L41.5956 46.3023L39.1564 45.1278L38.524 42.508L40.2405 40.3398H42.9507L44.6672 42.508L44.0348 45.1278ZM58.7603 39.2557C59.212 41.1528 59.3023 43.05 59.1217 44.9472L50.5393 42.508C49.7262 42.3273 49.2745 41.5142 49.4552 40.7011C49.5456 40.4301 49.6359 40.2494 49.8166 40.0688L56.5921 33.9256C57.5859 35.5517 58.3086 37.3585 58.7603 39.2557ZM53.8819 30.583L46.474 35.8228C45.8416 36.1841 44.9382 36.0938 44.4865 35.4614C44.3058 35.2807 44.2155 35.1 44.2155 34.829L43.6734 25.7046C47.6484 26.1563 51.1717 27.8728 53.8819 30.583ZM37.5303 25.9756L39.3371 25.6143L38.8854 34.6483C38.8854 35.4614 38.1626 36.0938 37.3496 36.0938C37.0786 36.0938 36.8979 36.0034 36.6269 35.9131L29.1286 30.583C31.4774 28.3245 34.3683 26.6984 37.5303 25.9756ZM26.5087 33.9256L33.1939 39.8881C33.8263 40.4301 33.9166 41.3335 33.3746 41.9659C33.1939 42.2369 33.0132 42.3273 32.6519 42.4176L23.8888 44.9472C23.6178 41.1528 24.5212 37.2682 26.5087 33.9256ZM24.9729 49.1932L33.9166 47.6574C34.6394 47.6574 35.3621 48.1091 35.4524 48.8318C35.5428 49.1028 35.5428 49.4642 35.3621 49.7352L31.9291 58.0465C28.7672 55.9687 26.2377 52.8068 24.9729 49.1932ZM45.4802 60.3954C44.2155 60.6664 42.9507 60.8471 41.5956 60.8471C39.6984 60.8471 37.7109 60.4857 35.9041 59.9437L40.3308 51.9034C40.7825 51.3613 41.5052 51.1806 42.1376 51.542C42.4086 51.7227 42.5893 51.9034 42.8604 52.1744L47.1967 60.034C46.6547 60.1244 46.1126 60.2147 45.4802 60.3954ZM56.5018 52.5358C55.1467 54.7039 53.2495 56.6011 51.0813 57.9562L47.5581 49.4642C47.3774 48.7415 47.7387 48.0187 48.3711 47.7477C48.6421 47.6574 48.9132 47.567 49.1842 47.567L58.2182 49.1028C57.7665 50.3676 57.2245 51.542 56.5018 52.5358Z" fill="#121212"/>
</svg>
