<svg width="86" height="95" viewBox="0 0 86 95" fill="none" xmlns="http://www.w3.org/2000/svg">
<path d="M54.2976 43.9414L35.4469 50.0968L19.0471 57.3349L14.4591 58.5462C13.2906 59.6576 12.0654 60.7833 10.7402 61.9232C9.28692 63.1769 7.93334 64.317 6.89304 65.1432C5.73901 66.0552 4.02918 67.765 3.1601 68.8477C1.86342 70.4719 0.837576 72.196 0.395844 73.5212C-0.387881 75.915 -0.00298604 78.3372 1.5073 80.5743C3.44506 83.4239 7.30646 86.3305 11.8088 88.311C14.1029 89.3228 17.9642 90.6193 20.8708 91.3459C25.7009 92.5713 35.0479 93.8965 40.1915 94.0961C41.2314 94.1388 42.6279 94.1388 42.6848 94.0961C42.7989 94.0246 43.5968 92.5002 44.5231 90.6053C47.6863 84.1506 49.966 78.095 51.2055 72.9229C51.9464 69.7884 52.5305 65.6135 52.915 60.6695C53.015 59.2874 53.0576 54.6566 52.9721 53.0892C52.8438 50.5245 52.6158 48.4444 52.2598 46.4068C52.2028 46.1076 52.1884 45.8368 52.217 45.8226C52.2738 45.7799 52.4448 45.7229 54.7673 45.0531L54.2973 43.9419V43.9415H54.2976V43.9414ZM49.9946 46.4635C50.1656 46.4635 50.6214 50.8377 50.7353 53.6021C50.7639 54.1862 50.7495 54.5709 50.7211 54.5709C50.6072 54.5709 48.3131 53.2174 46.6748 52.1916C45.2499 51.2939 42.5428 49.4985 42.1154 49.1566C41.9726 49.0569 41.9868 49.0427 43.1553 48.6436C45.1357 47.9738 49.8379 46.4635 49.9946 46.4635ZM40.3911 49.6268C40.5195 49.6268 40.8469 49.8118 41.6307 50.2964C44.5658 52.1344 48.5555 54.3572 50.2652 55.0982C50.7923 55.3262 50.8492 55.2406 49.6383 56.0671C47.0451 57.8339 43.8105 59.5721 39.8494 61.3247C39.1514 61.6381 38.5673 61.8803 38.5531 61.8803C38.5247 61.8803 38.6099 61.5243 38.7238 61.0967C39.6785 57.5486 40.22 53.9581 40.2486 51.0799C40.2628 49.655 40.2628 49.655 40.3911 49.6125C40.3625 49.6268 40.3767 49.6268 40.3911 49.6268ZM38.4107 50.3818C38.4959 50.4672 38.4391 53.659 38.325 54.5281C38.0686 56.6084 37.6696 58.5461 37.0144 60.7263C36.8576 61.2531 36.7149 61.6951 36.6867 61.7235C36.6294 61.7947 34.6774 59.8854 34.0363 59.1445C32.9248 57.8621 32.0559 56.5797 31.4147 55.326C31.0869 54.6848 30.5741 53.4311 30.6167 53.3882C30.8447 53.2315 38.3536 50.3249 38.4107 50.3818ZM29.0921 54.0436C29.1063 54.0436 29.1204 54.0436 29.1349 54.0578C29.1633 54.0863 29.2632 54.3144 29.3487 54.5708C29.8045 55.8104 30.8302 57.6342 31.7139 58.8026C32.6828 60.085 33.951 61.4527 35.0051 62.3504C35.3472 62.6354 35.6605 62.906 35.7031 62.9488C35.7888 63.0344 35.8173 63.02 33.4947 63.9035C30.802 64.9294 27.8667 65.9552 24.504 67.038C23.7007 67.297 22.8982 67.5582 22.0964 67.8217C21.9679 67.8646 22.0108 67.7932 22.3812 67.2092C24.0482 64.6016 26.5843 59.4865 28.0093 55.8674C28.2515 55.2404 28.4937 54.6136 28.5365 54.4711C28.5936 54.2715 28.6647 54.2003 28.8498 54.1005C28.9495 54.0723 29.0494 54.0436 29.0921 54.0436ZM26.2427 55.2262C26.2853 55.2549 25.5586 56.7793 24.8462 58.1756C23.464 60.8685 21.9537 63.5189 19.9305 66.739C19.5886 67.2946 19.2609 67.8077 19.2181 67.8646C19.1469 67.9644 19.1183 67.9358 18.8904 67.4942C18.4059 66.5395 18.0068 65.3141 17.7932 64.1884C17.5794 63.077 17.6222 61.1393 17.8645 59.9425C18.0496 59.0592 18.0355 59.0734 18.4629 58.8596C20.2867 57.9335 26.1856 55.1693 26.2427 55.2262ZM50.821 56.2238V56.8221C50.821 59.9995 50.479 64.3595 49.9801 67.537C49.8947 68.0926 49.8232 68.5484 49.8092 68.5629C49.8092 68.5629 49.396 68.449 48.9116 68.3063C46.7744 67.6366 44.4519 66.6534 42.3573 65.4995C40.975 64.7443 38.9661 63.5046 39.0232 63.4475C39.0372 63.4334 39.6358 63.1199 40.3339 62.7494C43.1269 61.2962 45.8053 59.7288 48.1279 58.1758C48.9971 57.5915 50.3077 56.6513 50.593 56.3947L50.821 56.2238ZM15.4849 60.441C15.5419 60.441 15.5276 60.555 15.4421 61.068C15.3851 61.4385 15.3139 62.1225 15.2856 62.5924C15.1714 64.6728 15.5136 66.2117 16.5394 68.3204C16.8244 68.9046 17.0525 69.3891 17.038 69.4032C16.9382 69.4888 7.506 72.2531 4.54213 73.0652C3.6588 73.3073 2.88953 73.5211 2.83224 73.5351C2.73269 73.5638 2.71837 73.5496 2.76108 73.3072C3.08875 71.2128 4.68465 68.4771 6.9073 66.1687C8.3892 64.63 9.57188 63.7324 11.5951 62.5781C13.0484 61.7519 15.2854 60.5124 15.4564 60.4553C15.4565 60.441 15.4707 60.441 15.4849 60.441ZM37.7124 64.4163C37.7266 64.4021 38.0686 64.5875 38.4817 64.8296C41.5309 66.5965 45.7769 68.2351 49.3958 69.0756L49.7237 69.147L49.2676 69.4032C47.3727 70.4577 41.1462 73.0508 34.7773 75.4304C33.851 75.7722 32.9392 76.1143 32.768 76.1855C32.597 76.2566 32.4402 76.2995 32.4402 76.2853C32.4402 76.2708 32.6969 75.7722 33.0243 75.1596C34.8054 71.8255 36.6008 67.7648 37.5127 64.9435C37.627 64.6728 37.698 64.4307 37.7124 64.4163ZM35.4469 65.1574C35.4614 65.1719 35.3473 65.4708 35.2047 65.8128C33.9652 68.8191 32.3406 72.0965 30.2605 75.7725C29.7334 76.7129 29.2916 77.4682 29.2771 77.4682C29.2632 77.4682 28.8356 77.2115 28.3227 76.8981C25.3018 75.0458 22.6233 72.7661 20.8708 70.5575L20.6143 70.2441L21.9107 69.8878C26.5558 68.6199 30.5024 67.252 34.4209 65.5708C34.9767 65.3427 35.4328 65.1574 35.4469 65.1574ZM49.5244 70.073C49.5385 70.4008 48.8119 73.336 48.2133 75.4588C47.7147 77.2398 47.287 78.6363 46.5036 81.1011C46.1617 82.1842 45.8626 83.0816 45.8482 83.0816C45.834 83.0816 45.7485 83.0674 45.663 83.0391C41.4313 82.2695 37.6412 81.2009 34.0791 79.7762C33.0816 79.3771 31.6568 78.7359 31.5714 78.6647C31.543 78.6359 32.3979 78.2372 33.4807 77.767C39.9637 74.9316 46.6889 71.7114 48.9971 70.3295C49.2677 70.1585 49.4815 70.073 49.5244 70.073ZM17.0238 71.1845C17.0524 71.2129 15.2428 73.8204 12.7065 77.3682C11.8231 78.6079 10.7973 80.0611 10.4126 80.6025C10.0279 81.144 9.44376 81.999 9.11602 82.5119L8.51732 83.4381L7.87611 82.8967C7.12091 82.2696 5.81023 80.9303 5.22605 80.1894C4.00059 78.665 3.17436 77.0549 2.84662 75.5874C2.68985 74.9034 2.68985 74.5613 2.83217 74.5187C3.04584 74.4618 6.8502 73.5641 10.4125 72.7375C12.393 72.2817 14.6869 71.7403 15.5133 71.5408C16.3398 71.341 17.0096 71.1845 17.0238 71.1845ZM18.8475 71.8827L19.3033 72.3956C21.3553 74.6896 23.4498 76.3854 25.986 77.8669C26.4421 78.1236 26.7839 78.3514 26.7553 78.3659C26.6558 78.437 17.9498 81.5286 13.9176 82.9251C11.6522 83.7229 9.78555 84.3641 9.77149 84.3641C9.7573 84.3641 9.62898 84.2787 9.48627 84.1789L9.22996 83.9936L9.64311 83.3953C10.9824 81.4575 12.6639 79.3346 16.3257 74.9176L18.8475 71.8827ZM30.2179 80.0183C30.2319 80.0042 30.8589 80.232 31.6282 80.5173C33.4807 81.2154 34.9481 81.657 36.9145 82.1557C39.3368 82.7685 42.8418 83.3669 44.9079 83.5378C45.2214 83.5662 45.3924 83.5949 45.3354 83.6376C45.2354 83.6947 43.1412 84.3928 41.6023 84.8773C39.1514 85.6465 31.6711 87.855 25.5729 89.6077C24.4472 89.9353 23.4783 90.2061 23.4213 90.2202C23.279 90.2489 22.8086 90.1204 22.8086 90.0635C22.8086 90.0351 23.1505 89.5935 23.5638 89.109C25.6154 86.6582 27.6531 83.9226 29.3487 81.3294C29.8188 80.6167 30.2179 80.0326 30.2179 80.0183ZM27.71 80.0898C27.7242 80.104 26.7126 81.7282 24.946 84.5208C24.1907 85.7034 23.35 87.0428 23.0507 87.513C22.7658 87.9689 22.3384 88.6815 22.0962 89.0803L21.683 89.8071L21.4693 89.7501C20.9562 89.6075 17.3514 88.3393 16.3967 87.9547C15.2141 87.4844 13.9887 86.9146 13.0768 86.4302C11.9371 85.8174 10.5123 84.9055 10.6262 84.8771C10.6546 84.8629 12.6067 84.3355 14.9576 83.6945C21.1984 81.9988 24.6607 81.0157 26.9264 80.3034C27.3397 80.1751 27.6958 80.0753 27.71 80.0898ZM45.4492 84.2501H45.4634C45.5204 84.3927 43.2124 90.8044 42.3714 92.8276C42.1864 93.2835 42.1154 93.3977 42.0154 93.3832C41.7732 93.3692 38.4249 92.8989 36.3872 92.5997C32.8395 92.0583 26.8836 91.018 25.3876 90.6762L25.0457 90.605L27.1684 90.1202C31.7281 89.0944 33.9223 88.5388 36.1449 87.8549C38.952 87 41.7305 85.9313 44.5373 84.6206C44.979 84.421 45.3495 84.2643 45.4492 84.2501Z" fill="url(#paint0_linear_1099_55127)"/>
<path d="M34.8628 0.000729783C34.5493 -0.0417811 29.4909 1.78198 26.2282 3.10691C21.8253 4.90242 18.4059 6.61232 16.2971 8.09383C15.5135 8.64976 14.5302 9.63276 14.3737 10.0174C14.3167 10.1599 14.2881 10.3309 14.2881 10.5018L16.1975 12.3114L20.7426 13.7647L31.5572 15.7026L43.9246 17.8256L44.0529 16.757C44.0103 16.757 43.9816 16.7428 43.9393 16.7428L42.3145 16.4862L41.987 15.9021C40.3057 12.9384 38.4534 9.26225 37.3706 6.78302C36.53 4.85945 35.732 2.63693 35.2902 1.04103C35.048 0.0721502 35.0196 0.0151847 34.8631 0.000992457V0.000663613H34.8628V0.000729783ZM34.6345 0.72762H34.6492C34.6631 0.741681 34.7202 1.1409 34.7773 1.61082C35.0193 3.60588 35.4613 5.52911 36.1594 7.60945C36.6865 9.17684 36.6865 9.09142 36.0739 8.90607C34.6206 8.50724 28.1091 7.38159 23.3929 6.72619C22.6377 6.62638 21.9965 6.52671 21.9965 6.51252C21.9395 6.45555 25.4018 4.64585 26.9264 3.93361C28.8784 3.03576 34.2357 0.798778 34.6345 0.72762ZM20.8991 7.11082L21.4551 7.29585C24.4755 8.32189 32.0697 9.77527 36.259 10.1172C36.729 10.16 37.1282 10.2028 37.1422 10.2028C37.1564 10.217 36.7577 10.4307 36.2446 10.6729C34.2215 11.6845 31.9987 12.9242 30.4598 13.8789C30.004 14.1637 29.5906 14.3918 29.5338 14.3918C29.4768 14.3918 29.1777 14.3348 28.8642 14.292L28.2943 14.2064L26.8696 12.81C24.3618 10.3736 22.3955 8.49292 21.6403 7.78035L20.8991 7.11082ZM20.3294 7.55242L22.3384 10.0602C23.4354 11.4423 24.5468 12.7958 24.7893 13.0949C25.0312 13.3944 25.2309 13.6367 25.2167 13.6509C25.1596 13.6936 22.3102 13.1378 20.7996 12.796C19.2466 12.4397 18.6054 12.2687 17.6508 11.9696L16.8671 11.713V11.5134C16.8812 10.5587 18.0925 9.134 20.1442 7.68081L20.3294 7.55242ZM37.3989 10.9721C37.456 10.9721 37.527 11.1003 37.698 11.485C38.1824 12.5535 39.693 15.4318 40.0631 15.9874C40.1775 16.1729 40.3766 16.1871 38.3678 15.8593C33.5378 15.0755 31.9845 14.8193 31.9845 14.7908C31.9845 14.7766 32.127 14.6768 32.3122 14.577C33.8084 13.7507 35.3186 12.6962 36.6581 11.5706C36.9858 11.2998 37.285 11.0434 37.3419 11.0005C37.356 10.9721 37.3847 10.9579 37.3989 10.9721Z" fill="url(#paint1_linear_1099_55127)"/>
<path d="M14.4733 9.81641C14.4733 9.81641 14.16 10.3153 14.4591 11.0563C14.6446 11.512 15.1859 12.0676 15.7985 12.6377C15.7985 12.6377 22.139 18.8214 22.9084 19.7049C26.4134 23.7514 27.938 27.7409 28.0806 33.2409C28.166 36.7745 27.4962 39.8806 25.8293 43.4855C22.8656 49.9543 16.6104 57.0928 6.96436 65.0149L8.37516 64.5447C9.28701 63.8606 10.5267 63.1342 13.4332 61.5383C20.1441 57.862 27.6958 54.4851 36.9573 51.0086C50.2934 45.993 72.222 40.1226 84.7033 38.2135L86.0001 38.0139L85.8005 37.7005C84.6608 35.9336 83.8769 34.8366 82.9364 33.6682C80.2009 30.2771 76.8813 27.5273 72.8203 25.2475C67.2349 22.1272 60.0108 19.6908 50.8636 17.8812C49.1395 17.5391 45.3494 16.8837 42.2718 16.4135C35.746 15.4022 31.5285 14.7038 26.8836 13.9059C25.2167 13.6208 22.723 13.1935 21.0702 12.8374C20.2153 12.652 18.5769 12.2673 17.2946 11.8257C16.2687 11.4265 14.7867 11.0275 14.4733 9.81641ZM18.1496 13.3786C18.1636 13.3646 18.3916 13.4498 18.691 13.5496C19.2324 13.7346 19.9305 13.9484 20.7571 14.1766C21.3825 14.3486 22.0094 14.5148 22.6379 14.6752C23.4927 14.8888 24.205 15.0883 24.2192 15.0883C24.3192 15.1882 25.7583 19.79 26.2427 21.5569C26.4277 22.2268 26.5705 22.7965 26.5562 22.7965C26.5416 22.811 26.3851 22.5686 26.1999 22.2409C24.5328 19.3057 21.8968 16.3279 18.8476 13.934C18.4489 13.6493 18.1496 13.3928 18.1496 13.3786ZM25.1597 15.3164C25.231 15.3164 25.5445 15.3592 25.929 15.4446C28.3513 15.986 32.6971 16.8124 35.4754 17.2827C35.9457 17.3538 36.3162 17.4395 36.3162 17.4678C36.3162 17.4965 36.1451 17.596 35.9313 17.7102C35.4613 17.9523 33.5661 19.0778 32.9394 19.5053C31.3576 20.5597 29.933 21.6995 28.907 22.7254C28.4938 23.1387 28.1375 23.4806 28.1375 23.4806C28.1375 23.4806 28.0522 23.2385 27.9807 22.9391C27.4681 20.9585 26.3992 18.0233 25.4304 15.9574C25.2736 15.6298 25.1453 15.3305 25.1453 15.3021C25.1453 15.3306 25.1453 15.3164 25.1597 15.3164ZM37.4987 17.6674C37.5842 17.6958 37.7267 18.1803 38.0116 19.2488C38.5389 21.315 38.7811 23.6232 38.6957 25.7747C38.667 26.3731 38.6386 26.9287 38.61 27.0001L38.5673 27.1424L37.8265 26.9003C36.3019 26.4159 33.8228 25.6891 31.6998 25.0908C30.4885 24.763 29.5056 24.4638 29.5056 24.4353C29.5056 24.3497 31.2725 22.583 32.0276 21.9134C33.4664 20.6451 37.3704 17.6245 37.4987 17.6674ZM38.4819 17.8097C38.5247 17.7672 44.3807 18.7786 47.0452 19.2916C49.0259 19.6762 51.9039 20.2747 52.0748 20.3461C52.1603 20.3745 51.861 20.5454 50.9063 20.9728C47.1449 22.6686 44.352 24.1929 41.5739 26.0454C40.8472 26.5298 40.2345 26.9287 40.2203 26.9287C40.2061 26.9287 40.1918 26.5156 40.1918 26.0169C40.1918 23.3098 39.6503 20.574 38.6528 18.2658C38.5531 18.0378 38.4676 17.8242 38.4819 17.8097ZM53.6278 20.802C53.6707 20.8447 53.4853 21.999 53.3143 22.6827C52.8015 24.8058 51.4194 27.9549 49.724 30.9184C49.4246 31.4456 49.1539 31.873 49.1252 31.8872C49.097 31.9014 48.7123 31.6876 48.2705 31.4312C46.6177 30.4623 44.737 29.5504 42.6851 28.6954C42.1154 28.4533 41.6166 28.2537 41.6023 28.2255C41.5024 28.1398 46.0905 25.1049 48.5127 23.6516C50.4363 22.4833 53.5708 20.7449 53.6278 20.802ZM54.7106 20.9729C54.839 20.9729 57.4322 21.6854 58.7856 22.0844C62.1341 23.0818 65.981 24.4923 68.4888 25.6322L69.5287 26.1025L68.8023 26.2734C62.6757 27.6838 57.4322 29.3084 52.3739 31.3601C51.9607 31.5311 51.5902 31.6736 51.562 31.6736C51.5334 31.6736 51.6759 31.3459 51.8611 30.9468C53.3857 27.7125 54.3688 24.3356 54.6108 21.4573C54.6253 21.1865 54.6678 20.9729 54.7106 20.9729ZM28.8928 26.9003C28.9354 26.8575 30.916 27.3278 31.9847 27.6268C33.6089 28.0829 37.0569 29.2368 37.0569 29.3225C37.0569 29.3366 36.6724 29.6644 36.2166 30.0635C34.35 31.6165 32.5546 33.2549 30.403 35.3352C29.7617 35.9481 29.2205 36.4467 29.1921 36.4467C29.1634 36.4467 29.1494 36.3611 29.1634 36.2471C29.4911 33.8533 29.4201 30.7758 28.9641 27.6554C28.9212 27.2563 28.8785 26.9145 28.8928 26.9003ZM70.5123 26.9432C70.5404 26.9715 69.6002 28.4533 69.0018 29.2939C68.1471 30.5192 66.8929 32.1438 64.0574 35.7059C62.5617 37.5865 60.8801 39.7096 60.3246 40.422C59.7544 41.1344 59.2845 41.7327 59.27 41.7327C59.2558 41.7327 59.0709 41.4764 58.8712 41.163C57.2753 38.7691 55.366 36.6746 53.1005 34.7939C52.6731 34.4376 52.2031 34.0529 52.0463 33.9389C51.8895 33.8249 51.7612 33.7109 51.7612 33.6967C51.7612 33.6541 54.1832 32.6137 56.0216 31.873C59.2418 30.562 63.6298 28.9948 66.9214 27.9831C68.6455 27.4417 70.4836 26.9145 70.5123 26.9432ZM71.6093 27.2279C71.6661 27.2138 72.0082 27.3848 72.4214 27.6268C75.8839 29.6073 79.2748 32.1579 81.9537 34.7796C82.7087 35.5206 84.5753 37.4584 84.5466 37.4726C84.5466 37.4726 83.8912 37.5296 83.122 37.5865C77.1234 38.0426 69.4437 39.3105 62.0629 41.0915C61.5643 41.2053 61.1227 41.3051 61.094 41.3051C61.0658 41.3051 61.6213 40.7495 62.3196 40.0799C66.651 35.9052 68.6317 33.2693 70.9682 28.5672C71.2958 27.8692 71.5809 27.2708 71.6093 27.2279C71.5951 27.2279 71.5951 27.2279 71.6093 27.2279ZM39.8782 30.4768C40.0778 30.5193 41.93 31.3887 43.3263 32.0867C44.6087 32.7277 46.5323 33.7538 46.632 33.8391C46.6462 33.8533 45.9621 34.2096 45.1218 34.6228C42.4429 35.9622 40.149 37.2301 37.7552 38.6835C37.0713 39.0968 36.5014 39.4389 36.4872 39.4389C36.4302 39.4389 36.4444 39.3816 36.8291 38.6835C38.1115 36.347 39.1373 33.5543 39.7216 30.8327C39.7784 30.6191 39.8355 30.4768 39.8782 30.4768ZM38.0258 30.8186C38.0686 30.8614 37.5842 32.6138 37.2851 33.5685C36.7007 35.3781 35.7177 37.6435 34.7632 39.3533C34.5349 39.7521 34.1931 40.3363 34.0078 40.664L33.6517 41.2339L32.8538 40.4647C31.9278 39.567 31.1724 39.0113 30.2037 38.5125C29.8188 38.3132 29.5197 38.142 29.5197 38.1137C29.5197 37.9997 31.9561 35.7913 33.8227 34.1954C35.1619 33.0413 37.9832 30.7758 38.0258 30.8186ZM49.3535 35.4779L50.0518 35.9337C51.6472 36.974 53.5279 38.3559 54.9673 39.567C55.7793 40.2365 57.3465 41.6473 57.6602 41.9893L57.8309 42.1747L56.6771 42.5023C50.1513 44.3116 45.1074 45.9217 39.2227 48.0876C38.5673 48.3297 38.0116 48.5292 37.9688 48.5292C37.8836 48.5292 37.8121 48.6004 39.2798 47.2467C43.0415 43.7847 46.3754 39.9659 48.8547 36.2471L49.3535 35.4779ZM46.3755 36.2187C46.4039 36.2471 44.452 38.997 43.2835 40.5501C41.8872 42.4025 39.4079 45.5085 37.6981 47.5316C36.9859 48.3725 36.3733 49.0706 36.3447 49.0849C36.3019 49.0991 36.2877 48.8854 36.2877 48.5577C36.2877 46.8335 35.8461 44.9954 35.0765 43.4282C34.7488 42.7728 34.6918 42.6161 34.7632 42.5449C35.0339 42.3026 39.1801 39.9374 41.8017 38.5269C43.5685 37.5865 46.3324 36.1902 46.3755 36.2187ZM28.3655 40.6357C28.4083 40.6357 28.736 40.8066 29.1065 41.0062C30.0184 41.5048 30.8306 42.0605 31.5572 42.659C31.5856 42.6874 31.2153 42.9868 30.7308 43.3428C29.3772 44.3116 27.3255 45.8648 26.1288 46.8195C24.8746 47.8169 24.8322 47.8454 24.9745 47.6317C25.915 46.1926 26.385 45.3804 26.8839 44.3404C27.3255 43.4143 27.7671 42.3171 28.0806 41.3624C28.1945 40.9492 28.3371 40.6357 28.3655 40.6357ZM33.1673 44.3972C33.2384 44.3831 33.3241 44.5112 33.7086 45.0812C34.5208 46.2921 35.1477 47.9167 35.3047 49.2275L35.3329 49.5126L33.3812 50.2678C29.8901 51.6212 26.6701 52.9607 24.4899 53.9579C23.8774 54.243 22.8087 54.7558 22.1106 55.098C21.4124 55.454 20.8425 55.7247 20.8425 55.7105C20.8425 55.6963 21.2841 55.3686 21.8255 54.9695C26.086 51.8778 29.7762 48.4865 32.5403 45.0955C32.8396 44.7392 33.1104 44.4114 33.1387 44.3973L33.1673 44.3972ZM30.9589 44.9387C31.0159 44.9957 29.3916 46.8337 28.2802 47.9592C25.5303 50.7663 22.8088 52.9607 19.4319 55.098C19.0045 55.3686 18.6198 55.6107 18.577 55.6394C18.4772 55.6963 18.6054 55.5538 20.0873 53.9437C21.0278 52.932 21.7401 52.0771 22.5522 51.0229C23.0937 50.3249 23.1935 50.2251 23.9772 49.6691C26.0718 48.1588 30.9018 44.8816 30.9589 44.9387Z" fill="url(#paint2_radial_1099_55127)"/>
<defs>
<linearGradient id="paint0_linear_1099_55127" x1="14.1821" y1="84.8168" x2="20.9984" y2="80.7891" gradientUnits="userSpaceOnUse">
<stop stop-color="#909CA9"/>
<stop offset="1" stop-color="#EDEDEE"/>
</linearGradient>
<linearGradient id="paint1_linear_1099_55127" x1="14.3381" y1="8.8853" x2="19.8227" y2="8.8853" gradientUnits="userSpaceOnUse">
<stop stop-color="#939FAB"/>
<stop offset="1" stop-color="#DCDEE1"/>
</linearGradient>
<radialGradient id="paint2_radial_1099_55127" cx="0" cy="0" r="1" gradientUnits="userSpaceOnUse" gradientTransform="translate(42.0137 34.038) rotate(-171.457) scale(7.07121 14.1459)">
<stop stop-color="#EE352C"/>
<stop offset="1" stop-color="#A91D22"/>
</radialGradient>
</defs>
</svg>
