<svg width="69" height="47" viewBox="0 0 69 47" fill="none" xmlns="http://www.w3.org/2000/svg">
<path d="M18.4651 12.5701H32.8204V13.7055H19.781V22.2516H32.0428V23.3871H19.781V32.7699H32.9699V33.9054H18.4651V12.5701ZM34.1064 12.5701H35.6316L42.3906 21.9528L49.299 12.5701L58.6957 0.651779L43.2579 22.9389L51.2131 33.9054H49.628L42.3906 23.925L35.1232 33.9054H33.5681L41.5831 22.9389L34.1064 12.5701ZM51.7813 13.7055V12.5701H68.1403V13.7055H60.6038V33.9054H59.2879V13.7055H51.7813Z" fill="black"/>
<path d="M0.506165 12.5701H2.15104L24.8329 46.3482L15.4596 33.9054L1.88188 14.1836L1.82206 33.9054H0.506165V12.5701Z" fill="black"/>
</svg>
