<svg width="77" height="87" viewBox="0 0 77 87" fill="none" xmlns="http://www.w3.org/2000/svg">
<path d="M1.16821 64.7742C1.56073 65.4711 2.1277 65.9937 2.82552 66.3857L36.4079 85.7232C37.8035 86.5507 39.5045 86.5507 40.8565 85.7232L74.4389 66.3857C75.8345 65.6017 76.6632 64.1209 76.6632 62.5095V23.8344C76.6632 22.2229 75.8345 20.7421 74.4389 19.9582L40.8565 0.62063C39.4609 -0.206877 37.7599 -0.206877 36.4079 0.62063L2.82552 19.9582C1.38627 20.7421 0.557617 22.2229 0.557617 23.8344V62.553C0.557617 63.337 0.732072 64.0774 1.16821 64.7742Z" fill="#009639"/>
<path d="M28.8606 57.9378C28.8606 60.3332 26.9416 62.2495 24.5428 62.2495C22.1441 62.2495 20.2251 60.3332 20.2251 57.9378V28.3653C20.2251 26.057 22.2749 24.1842 25.1098 24.1842C27.1596 24.1842 29.5584 25.0117 30.9976 26.7974L32.306 28.3653L50.362 49.924V28.4524C50.362 26.057 52.281 24.1406 54.6798 24.1406C57.0785 24.1406 58.9975 26.057 58.9975 28.4524V58.0249C58.9975 60.3332 56.9477 62.206 54.1128 62.206C52.063 62.206 49.6642 61.3785 48.225 59.5928L28.8606 36.5097V57.9378Z" fill="#121212"/>
</svg>
