<svg width="81" height="90" viewBox="0 0 81 90" fill="none" xmlns="http://www.w3.org/2000/svg">
<path d="M36.579 1.90721C38.7692 0.653553 41.622 0.647891 43.8103 1.90721C54.8195 8.12801 65.8323 14.3391 76.8396 20.5636C78.91 21.7298 80.2948 24.0339 80.2737 26.4195V63.8462C80.2892 66.3306 78.7675 68.6897 76.5832 69.8295C65.6102 76.016 54.6427 82.2101 43.6716 88.3966C41.436 89.6748 38.526 89.5763 36.3604 88.1934C33.0706 86.2863 29.7753 84.3887 26.4852 82.4835C25.8129 82.0827 25.0551 81.7637 24.5804 81.1118C25 80.5462 25.7503 80.4757 26.36 80.2288C27.7332 79.7921 28.9944 79.0912 30.256 78.411C30.575 78.1927 30.9644 78.2764 31.2702 78.4718C34.0833 80.0847 36.8716 81.7445 39.6941 83.342C40.2963 83.6896 40.906 83.2281 41.4206 82.9412C52.1886 76.8554 62.9698 70.7925 73.7358 64.7048C74.1347 64.5129 74.3553 64.0894 74.3229 63.6525C74.3304 51.3062 74.3247 38.9577 74.3266 26.6114C74.3723 26.1156 74.0853 25.6598 73.637 25.4568C62.702 19.2987 51.7727 13.131 40.8396 6.97125C40.6502 6.84102 40.4258 6.77115 40.1959 6.77081C39.966 6.77048 39.7414 6.83969 39.5516 6.96936C28.6185 13.131 17.691 19.3043 6.75793 25.4622C6.3112 25.6654 6.01139 26.1137 6.06456 26.6114C6.06645 38.9577 6.06456 51.3062 6.06456 63.6543C6.0456 63.8675 6.09243 64.0814 6.19874 64.2672C6.30504 64.453 6.46573 64.6018 6.65915 64.6934C9.5767 66.3479 12.498 67.9907 15.4175 69.6395C17.0622 70.5248 19.0816 71.0508 20.8936 70.3725C22.4927 69.799 23.6136 68.1672 23.5831 66.4693C23.5982 54.1951 23.5755 41.919 23.5944 29.6466C23.5545 29.1017 24.0713 28.6516 24.6011 28.7028C26.003 28.6934 27.4067 28.684 28.8085 28.7066C29.3937 28.6934 29.7963 29.2801 29.724 29.8291C29.7183 42.181 29.7391 54.5333 29.7146 66.8852C29.7183 70.1771 28.3659 73.7591 25.3209 75.3699C21.5697 77.3131 16.9332 76.901 13.2273 75.0376C10.019 73.4364 6.95738 71.5466 3.80608 69.8311C1.61619 68.6976 0.102043 66.329 0.117458 63.8466V26.4195C0.0944928 23.9845 1.53439 21.6386 3.66924 20.4894C14.6404 14.2979 25.6097 8.10159 36.579 1.90721Z" fill="#8CC84B"/>
<path d="M46.15 27.8329C50.935 27.5249 56.0576 27.6505 60.3634 30.0077C63.6972 31.8141 65.5454 35.6053 65.6043 39.309C65.5112 39.8086 64.9889 40.0842 64.512 40.0499C63.1237 40.048 61.7351 40.0688 60.3468 40.0405C59.7578 40.0631 59.4156 39.5201 59.3416 38.9995C58.9427 37.2274 57.9763 35.4722 56.3083 34.6175C53.7478 33.3355 50.779 33.4 47.987 33.4267C45.9487 33.535 43.7569 33.7115 42.0301 34.9101C40.7044 35.818 40.3017 37.6508 40.7749 39.1269C41.221 40.1868 42.4444 40.5287 43.4455 40.8439C49.212 42.3521 55.3227 42.2021 60.9791 44.1868C63.3209 44.996 65.6118 46.5689 66.4134 49.0209C67.462 52.3072 67.0023 56.2352 64.6643 58.8734C62.7682 61.0444 60.0067 62.226 57.2524 62.8678C53.5883 63.6848 49.7858 63.7056 46.0648 63.3428C42.5659 62.9439 38.9247 62.0247 36.2236 59.6407C33.9139 57.6351 32.7857 54.5103 32.8977 51.4942C32.9245 50.9849 33.4316 50.6297 33.9195 50.6716C35.3176 50.6603 36.7157 50.6565 38.1137 50.6735C38.6721 50.6335 39.0861 51.1161 39.1148 51.6424C39.3727 53.3309 40.0073 55.103 41.4796 56.104C44.321 57.9371 47.8863 57.8116 51.1398 57.8629C53.8353 57.7434 56.8611 57.7072 59.0607 55.9256C60.2212 54.9095 60.5651 53.2094 60.2514 51.7469C59.9117 50.5121 58.62 49.9367 57.5107 49.5604C51.8181 47.7597 45.6391 48.4131 40.0016 46.3767C37.7129 45.5679 35.4997 44.0387 34.6204 41.6874C33.3935 38.3596 33.9557 34.2434 36.5388 31.6943C39.0575 29.1586 42.6933 28.1821 46.15 27.8326V27.8329Z" fill="#8CC84B"/>
</svg>
