<svg width="97" height="100" viewBox="0 0 97 100" fill="none" xmlns="http://www.w3.org/2000/svg">
<path d="M96.4716 59.9022C95.8902 58.1365 94.3673 56.9067 92.3978 56.6116C91.4691 56.4726 90.4055 56.5319 89.1469 56.792C86.9532 57.2459 85.3257 57.4187 84.138 57.4521C88.6212 49.8619 92.2667 41.2063 94.3654 33.0585C97.759 19.8837 95.9455 13.8818 93.8264 11.167C88.2183 3.98123 80.0361 0.120977 70.1652 0.00285975C64.8994 -0.0617057 60.2768 0.980837 57.8653 1.73056C55.62 1.33329 53.2059 1.11149 50.6728 1.07047C45.9244 0.99451 41.729 2.0325 38.1442 4.16582C36.1595 3.49281 32.9742 2.54408 29.2958 1.93869C20.6444 0.514446 13.6716 1.62421 8.57139 5.23722C2.3955 9.61172 -0.467472 17.2122 0.0620198 27.8276C0.230185 31.1979 2.1103 41.4524 5.0706 51.1775C6.77195 56.7673 8.58616 61.4092 10.4629 64.9755C13.1243 70.0325 15.9722 73.0105 19.1692 74.08C20.961 74.6786 24.2168 75.0978 27.6411 72.238C28.0751 72.7651 28.6542 73.2889 29.4227 73.7754C30.3987 74.3926 31.5922 74.8969 32.7841 75.1958C37.0795 76.2726 41.1029 76.0033 44.5356 74.494C44.5568 75.1062 44.573 75.6911 44.5867 76.1962C44.6094 77.0154 44.6321 77.8187 44.6621 78.57C44.8654 83.6494 45.2101 87.5989 46.2312 90.3623C46.2873 90.5142 46.3626 90.7459 46.4422 90.9916C46.9516 92.5556 47.8034 95.1739 49.9706 97.2244C52.2147 99.3487 54.9292 100 57.4153 100C58.6622 100 59.8518 99.8359 60.8953 99.6118C64.6146 98.8124 68.8388 97.5947 71.8945 93.2316C74.7836 89.107 76.188 82.8947 76.4422 73.1062C76.4751 72.8293 76.5054 72.565 76.5346 72.3132L76.5952 71.7959L77.2758 71.8559L77.4512 71.8677C81.2394 72.0409 85.8715 71.2353 88.7163 69.9102C90.9642 68.8642 98.1676 65.0507 96.4716 59.9022Z" fill="black"/>
<path d="M89.9941 60.9043C78.7301 63.2343 77.9555 59.4101 77.9555 59.4101C89.8483 41.7142 94.8201 19.2519 90.53 13.7543C78.8251 -1.242 58.5639 5.85034 58.2257 6.03416L58.117 6.05391C55.8914 5.59056 53.4011 5.31482 50.6018 5.26887C45.5053 5.18531 41.6391 6.60879 38.7053 8.83973C38.7053 8.83973 2.56116 -6.09163 4.24243 27.6184C4.59997 34.7898 14.4929 81.8812 26.2925 67.6574C30.6053 62.4561 34.7727 58.0584 34.7727 58.0584C36.8422 59.4371 39.32 60.1405 41.9174 59.8879L42.1193 59.7163C42.0565 60.3619 42.0852 60.9935 42.2 61.7413C39.1602 65.147 40.0536 65.7448 33.977 66.9993C27.828 68.2701 31.4401 70.5321 33.7986 71.1239C36.6578 71.8405 43.2722 72.8561 47.7415 66.5822L47.5635 67.2982C48.7543 68.2549 49.5905 73.5204 49.4504 78.2941C49.3103 83.0674 49.2167 86.3446 50.1549 88.9045C51.0938 91.4643 52.0289 97.2239 60.0175 95.5076C66.6922 94.0731 70.1514 90.356 70.6328 84.1555C70.974 79.7475 71.747 80.3993 71.7955 76.4581L72.4155 74.5925C73.1302 68.6172 72.5292 66.6893 76.6413 67.586L77.6412 67.6742C80.6674 67.812 84.6291 67.1857 86.9542 66.1022C91.9605 63.7725 94.93 59.8822 89.9933 60.9043H89.9941Z" fill="#336791"/>
<path d="M40.8211 30.8264C39.806 30.6847 38.8868 30.8158 38.4217 31.169C38.1604 31.3676 38.0793 31.5978 38.0574 31.7561C37.999 32.1758 38.2922 32.6399 38.4725 32.8792C38.9823 33.5567 39.7269 34.0224 40.4639 34.1249C40.5707 34.1401 40.6772 34.1469 40.7828 34.1469C42.0119 34.1469 43.1296 33.1872 43.228 32.4789C43.3511 31.5917 42.0668 31.0004 40.8211 30.8268V30.8264ZM74.448 30.8545C74.3511 30.1591 73.1171 29.9609 71.946 30.1242C70.7764 30.2875 69.6425 30.8169 69.7371 31.5138C69.8129 32.0558 70.7889 32.981 71.9441 32.981C72.0418 32.981 72.1403 32.9745 72.2395 32.9605C73.0107 32.8534 73.5765 32.3623 73.8454 32.0793C74.2545 31.6479 74.4916 31.1671 74.448 30.8545Z" fill="white"/>
<path d="M93.7427 60.6393C93.3132 59.337 91.9307 58.9181 89.634 59.3936C82.8146 60.8049 80.3724 59.8273 79.5706 59.2352C84.8712 51.1379 89.2318 41.3497 91.5842 32.2175C92.6985 27.8916 93.3139 23.8741 93.3643 20.5995C93.42 17.0055 92.8094 14.3643 91.5505 12.751C86.4744 6.24692 79.0244 2.7581 70.0064 2.66239C63.8066 2.59251 58.5685 4.18348 57.5531 4.63088C55.4146 4.09764 53.0834 3.77026 50.5454 3.72848C45.8913 3.6529 41.8682 4.77027 38.5375 7.04791C37.0907 6.50784 33.3517 5.22071 28.779 4.482C20.8737 3.20588 14.5918 4.17284 10.1089 7.35745C4.7598 11.1577 2.29034 17.9508 2.76871 27.5475C2.92967 30.7762 4.76434 40.7086 7.65951 50.2207C11.4705 62.7403 15.6133 69.8278 19.9719 71.2858C20.4821 71.4563 21.0703 71.5756 21.7191 71.5756C23.3091 71.5756 25.2585 70.857 27.2867 68.4119C29.7606 65.436 32.3196 62.5323 34.9606 59.7046C36.6741 60.6268 38.5565 61.1418 40.4816 61.1934C40.4854 61.2439 40.4904 61.2944 40.4949 61.3446C40.1635 61.7409 39.839 62.1429 39.5215 62.5504C38.1876 64.2485 37.9099 64.6021 33.616 65.4886C32.3946 65.7415 29.1506 66.4118 29.1028 68.6922C29.0513 71.1836 32.9377 72.23 33.3805 72.3409C34.9235 72.7283 36.4101 72.9193 37.8277 72.9193C41.2755 72.9193 44.3097 71.7829 46.7344 69.5843C46.6598 78.4662 47.0291 87.2183 48.0926 89.8849C48.9638 92.068 51.0916 97.403 57.8129 97.4026C58.7992 97.4026 59.8847 97.2875 61.0789 97.0308C68.0937 95.523 71.14 92.4139 72.3183 85.5597C72.9489 81.8966 74.031 73.1495 74.54 68.4574C75.6142 68.7936 76.997 68.9474 78.4919 68.947C81.6098 68.947 85.2075 68.2827 87.4637 67.2326C89.9983 66.0522 94.5721 63.1558 93.7427 60.6393ZM77.0375 28.9338C77.0144 30.3189 76.8243 31.5764 76.6228 32.889C76.4057 34.3007 76.1815 35.7603 76.1251 37.532C76.0694 39.2563 76.2842 41.0489 76.4917 42.7827C76.9114 46.2845 77.342 49.8895 75.6751 53.4467C75.3982 52.9547 75.1516 52.4462 74.9366 51.9241C74.7294 51.4205 74.2794 50.6115 73.6564 49.4918C71.2328 45.1333 65.5572 34.9266 68.4626 30.7617C69.328 29.5221 71.5244 28.2475 77.0375 28.9338ZM70.3548 5.4672C78.4351 5.64608 84.8269 8.67725 89.3522 14.476C92.8231 18.9238 89.0011 39.1621 77.9367 56.6218C77.8254 56.4799 77.7135 56.3385 77.6011 56.1976L77.4609 56.0221C80.3201 51.2872 79.7611 46.6023 79.2634 42.4489C79.0589 40.7443 78.8657 39.1344 78.915 37.622C78.9657 36.0193 79.1771 34.6444 79.3816 33.3151C79.6327 31.677 79.8884 29.982 79.8179 27.9839C79.8706 27.7742 79.8918 27.5266 79.8641 27.2327C79.6842 25.3166 77.5026 19.582 73.0561 14.3917C70.6237 11.5527 67.0767 8.37569 62.2337 6.23287C64.3168 5.7999 67.1654 5.39617 70.3548 5.4672ZM25.1404 66.6223C22.9057 69.3165 21.3627 68.8 20.8552 68.6306C17.5487 67.5247 13.7119 60.5166 10.3293 49.4037C7.40234 39.788 5.6919 30.1187 5.55631 27.4074C5.12908 18.8323 7.20198 12.8562 11.7178 9.64459C19.0671 4.41857 31.15 7.54659 36.0052 9.13301C35.9355 9.20213 35.8628 9.26669 35.7939 9.33696C27.8265 17.4054 28.0155 31.1905 28.0351 32.0333C28.0344 32.3584 28.0617 32.8187 28.0988 33.4518C28.2359 35.7705 28.4912 40.0858 27.8094 44.9726C27.1761 49.5139 28.5722 53.9587 31.639 57.1676C31.9537 57.4963 32.2845 57.8091 32.6301 58.1049C31.2651 59.5709 28.2984 62.8129 25.1404 66.6223ZM33.6543 55.231C31.1826 52.6446 30.0599 49.0471 30.5739 45.36C31.2935 40.1978 31.028 35.7018 30.8852 33.2863C30.8652 32.9482 30.8474 32.652 30.8371 32.4184C32.001 31.3835 37.3948 28.4856 41.2414 29.3694C42.9965 29.7724 44.0661 30.971 44.5108 33.0325C46.8121 43.706 44.8153 48.1546 43.2109 51.7296C42.8803 52.466 42.5678 53.1622 42.3012 53.8823L42.0944 54.4391C41.5709 55.8466 41.0839 57.1554 40.782 58.3981C38.1542 58.3905 35.598 57.2648 33.6543 55.2306V55.231ZM34.0577 69.6253C33.2903 69.4331 32.6002 69.0993 32.1953 68.8224C32.5336 68.6629 33.1354 68.4457 34.1792 68.2299C39.2306 67.1874 40.0109 66.4513 41.7145 64.2823C42.105 63.7848 42.5477 63.2212 43.1609 62.5345L43.1617 62.5337C44.0748 61.5083 44.4926 61.6822 45.2501 61.9975C45.8641 62.2519 46.4621 63.0237 46.7045 63.8729C46.8193 64.274 46.9481 65.0351 46.5265 65.6276C42.9678 70.6242 37.7819 70.56 34.0577 69.6253ZM60.4941 94.2939C54.3144 95.6217 52.1263 92.4599 50.6844 88.8454C49.7538 86.5119 49.2963 75.9892 49.6209 64.3685C49.6251 64.214 49.6031 64.0647 49.5607 63.9242C49.5227 63.6467 49.465 63.3723 49.388 63.103C48.9054 61.4122 47.7294 59.9978 46.3186 59.4114C45.758 59.1786 44.7293 58.7513 43.4931 59.0685C43.7567 57.9792 44.2139 56.749 44.7096 55.4171L44.9176 54.8569C45.1516 54.2253 45.4455 53.5709 45.7561 52.8781C47.4351 49.1379 49.7345 44.0148 47.2389 32.4412C46.3042 28.1062 43.1825 25.9892 38.4504 26.481C35.6136 26.7754 33.018 27.9231 31.7234 28.5813C31.445 28.7226 31.1905 28.8593 30.9527 28.9923C31.314 24.6246 32.679 16.462 37.7853 11.2975C41.0005 8.0464 45.2823 6.44062 50.4992 6.52721C60.7785 6.69584 67.3703 11.9857 71.0904 16.394C74.2961 20.1923 76.0319 24.0188 76.7247 26.0826C71.5149 25.5513 67.9717 26.5824 66.1757 29.1575C62.2681 34.7587 68.3134 45.6301 71.2188 50.8549C71.7517 51.8124 72.2115 52.64 72.3561 52.9917C73.3023 55.291 74.5271 56.8261 75.4214 57.9465C75.6956 58.2899 75.9615 58.6229 76.1637 58.9139C74.5859 59.37 71.7517 60.424 72.01 65.6921C71.8017 68.3355 70.3204 80.7116 69.5678 85.0842C68.5743 90.861 66.4545 93.0125 60.4941 94.2943V94.2939ZM86.2885 64.694C84.675 65.4449 81.9749 66.0081 79.41 66.1293C76.5769 66.2622 75.1347 65.811 74.7953 65.5334C74.6362 62.2504 75.8547 61.9074 77.1443 61.5444C77.3469 61.4874 77.5446 61.4316 77.7355 61.3647C77.8541 61.4616 77.984 61.5576 78.1264 61.6518C80.4035 63.1589 84.4648 63.3214 90.1987 62.1346L90.2616 62.122C89.4882 62.8471 88.1648 63.8201 86.2885 64.694Z" fill="white"/>
</svg>
