<svg width="84" height="83" viewBox="0 0 84 83" fill="none" xmlns="http://www.w3.org/2000/svg">
<path d="M41.4163 0C20.2356 0 21.5581 9.18521 21.5581 9.18521L21.5816 18.7014H41.794V21.5584H13.5536C13.5536 21.5584 0 20.0212 0 41.3924C0 62.7643 11.8299 62.0063 11.8299 62.0063H18.8899V52.089C18.8899 52.089 18.5093 40.2591 30.5309 40.2591H50.578C50.578 40.2591 61.8411 40.4411 61.8411 29.3737V11.0745C61.8411 11.0745 63.5517 0 41.4163 0ZM30.2712 6.39943C30.7488 6.399 31.2219 6.49276 31.6632 6.67534C32.1046 6.85793 32.5056 7.12575 32.8433 7.46349C33.1811 7.80122 33.4489 8.20224 33.6315 8.6436C33.8141 9.08496 33.9078 9.55799 33.9074 10.0356C33.9078 10.5133 33.8141 10.9863 33.6315 11.4276C33.4489 11.869 33.1811 12.27 32.8433 12.6078C32.5056 12.9455 32.1046 13.2133 31.6632 13.3959C31.2219 13.5785 30.7488 13.6722 30.2712 13.6718C29.7936 13.6722 29.3205 13.5785 28.8792 13.3959C28.4378 13.2133 28.0368 12.9455 27.6991 12.6078C27.3613 12.27 27.0935 11.869 26.9109 11.4276C26.7283 10.9863 26.6346 10.5133 26.635 10.0356C26.6346 9.55799 26.7283 9.08496 26.9109 8.6436C27.0935 8.20224 27.3613 7.80122 27.6991 7.46349C28.0368 7.12575 28.4378 6.85793 28.8792 6.67534C29.3205 6.49276 29.7936 6.399 30.2712 6.39943Z" fill="url(#paint0_linear_1099_55013)"/>
<path d="M42.0177 83.0019C63.1985 83.0019 61.876 73.8167 61.876 73.8167L61.8524 64.3009H41.6397V61.4439H69.8802C69.8802 61.4439 83.4337 62.981 83.4337 41.6091C83.4337 20.2376 71.6038 20.9955 71.6038 20.9955H64.5438V30.9126C64.5438 30.9126 64.9244 42.7424 52.9028 42.7424H32.8557C32.8557 42.7424 21.5927 42.5605 21.5927 53.6282V71.9277C21.5927 71.9277 19.8824 83.0019 42.0174 83.0019H42.0177ZM53.1628 76.6032C52.6852 76.6036 52.2122 76.5098 51.7708 76.3272C51.3295 76.1447 50.9284 75.8768 50.5907 75.5391C50.253 75.2014 49.9851 74.8003 49.8025 74.359C49.62 73.9176 49.5262 73.4446 49.5266 72.967C49.5262 72.4893 49.6199 72.0162 49.8025 71.5748C49.985 71.1334 50.2528 70.7324 50.5906 70.3946C50.9283 70.0568 51.3294 69.789 51.7707 69.6064C52.2121 69.4238 52.6852 69.33 53.1628 69.3304C53.6405 69.33 54.1135 69.4238 54.5548 69.6063C54.9962 69.7889 55.3972 70.0568 55.735 70.3945C56.0727 70.7322 56.3405 71.1333 56.5231 71.5746C56.7057 72.016 56.7994 72.489 56.799 72.9666C56.7994 73.4443 56.7057 73.9173 56.5231 74.3587C56.3405 74.8 56.0727 75.201 55.735 75.5388C55.3972 75.8765 54.9962 76.1443 54.5548 76.3269C54.1135 76.5095 53.6405 76.6033 53.1628 76.6028V76.6032Z" fill="url(#paint1_linear_1099_55013)"/>
<defs>
<linearGradient id="paint0_linear_1099_55013" x1="8.01796" y1="7.46534" x2="49.3652" y2="48.4001" gradientUnits="userSpaceOnUse">
<stop stop-color="#387EB8"/>
<stop offset="1" stop-color="#366994"/>
</linearGradient>
<linearGradient id="paint1_linear_1099_55013" x1="33.3968" y1="33.7532" x2="77.7991" y2="75.728" gradientUnits="userSpaceOnUse">
<stop stop-color="#FFE052"/>
<stop offset="1" stop-color="#FFC331"/>
</linearGradient>
</defs>
</svg>
