<svg width="87" height="86" viewBox="0 0 87 86" fill="none" xmlns="http://www.w3.org/2000/svg">
<path d="M43.6171 50.4983C47.7976 50.4983 51.1865 47.1093 51.1865 42.9288C51.1865 38.7483 47.7976 35.3594 43.6171 35.3594C39.4366 35.3594 36.0476 38.7483 36.0476 42.9288C36.0476 47.1093 39.4366 50.4983 43.6171 50.4983Z" fill="#61DAFB"/>
<path d="M43.6169 58.4372C66.0488 58.4372 84.2335 51.494 84.2335 42.9291C84.2335 34.3641 66.0488 27.4209 43.6169 27.4209C21.1849 27.4209 3.00024 34.3641 3.00024 42.9291C3.00024 51.494 21.1849 58.4372 43.6169 58.4372Z" stroke="#61DAFB" stroke-width="4.29291"/>
<path d="M30.1864 50.6832C41.4024 70.1098 56.5077 82.3866 63.9252 78.1042C71.3426 73.8217 68.2633 54.6017 57.0473 35.175C45.8314 15.7484 30.726 3.47162 23.3085 7.75408C15.8911 12.0365 18.9704 31.2566 30.1864 50.6832Z" stroke="#61DAFB" stroke-width="4.29291"/>
<path d="M30.1865 35.1747C18.9705 54.6013 15.8912 73.8213 23.3086 78.1038C30.7261 82.3863 45.8314 70.1095 57.0474 50.6828C68.2634 31.2562 71.3427 12.0362 63.9252 7.75373C56.5078 3.47127 41.4024 15.748 30.1865 35.1747Z" stroke="#61DAFB" stroke-width="4.29291"/>
</svg>
