<svg width="83" height="83" viewBox="0 0 83 83" fill="none" xmlns="http://www.w3.org/2000/svg">
<g clip-path="url(#clip0_1099_55016)">
<path fill-rule="evenodd" clip-rule="evenodd" d="M14.1774 72.6108C15.6974 73.8376 17.928 73.6094 19.1523 72.0868C20.3843 70.5695 20.1534 68.3389 18.6335 67.1068C17.1162 65.8774 14.8881 66.1134 13.6535 67.6308C12.4863 69.0703 12.6368 71.1479 13.9518 72.4136L13.2618 71.8067C5.11487 64.2304 0 53.4274 0 41.4468C0 18.5959 18.592 0.00390625 41.4481 0.00390625C53.0681 0.00390625 63.5728 4.8205 71.1077 12.5473C72.8195 10.2181 74.3032 7.61397 75.517 4.72713C80.7979 20.5957 83.9026 33.9328 82.7666 44.4374C81.2311 65.8981 63.2927 82.9028 41.4481 82.9028C31.3014 82.9028 22.0054 79.23 14.7948 73.158L14.1774 72.6108ZM75.3381 59.6887C85.739 45.8484 79.942 23.467 75.1176 9.16244C70.8197 18.1187 60.2347 24.9688 51.0943 27.1371C42.5271 29.181 34.9456 27.5054 27.0165 30.5557C8.93806 37.5069 9.22338 59.0662 19.1834 63.9113C19.1886 63.9113 19.7799 64.2329 19.7722 64.2226C19.7722 64.2174 34.4113 61.3124 42.5038 58.3244C54.3313 53.9565 67.3156 43.1898 71.5875 30.6828C69.3128 43.6904 58.1467 56.2053 46.9287 61.953C40.9579 65.0189 36.3151 65.701 26.49 69.1014C25.2865 69.5112 24.3423 69.9158 24.3423 69.9158C26.8323 69.5009 29.3146 69.366 29.3146 69.366C43.3027 68.7046 65.1265 73.2981 75.3407 59.6913L75.3381 59.6887Z" fill="#70AD51"/>
</g>
<defs>
<clipPath id="clip0_1099_55016">
<rect width="83" height="83" fill="white" transform="translate(0 0.00390625)"/>
</clipPath>
</defs>
</svg>
