<svg width="95" height="95" viewBox="0 0 95 95" fill="none" xmlns="http://www.w3.org/2000/svg">
<path d="M86.9593 21.367C87.8701 21.3681 88.7631 21.1145 89.5375 20.635C90.3118 20.1555 90.9368 19.469 91.3418 18.6532C91.7467 17.8374 91.9157 16.9246 91.8294 16.0178C91.7432 15.1111 91.4053 14.2465 90.8538 13.5216C90.3022 12.7968 89.5591 12.2405 88.7082 11.9155C87.8574 11.5905 86.9326 11.5099 86.0383 11.6826C85.144 11.8553 84.3157 12.2745 83.647 12.8929C82.9783 13.5113 82.4958 14.3043 82.2538 15.1824H53.1029V12.1758C53.1027 11.8314 52.9658 11.5011 52.7223 11.2576C52.4788 11.0141 52.1485 10.8771 51.8041 10.877H43.1947C42.8503 10.8771 42.5201 11.0141 42.2765 11.2576C42.033 11.5011 41.8961 11.8314 41.8959 12.1758V15.4058H12.8021C12.5419 14.2526 11.8723 13.233 10.9177 12.5358C9.96297 11.8386 8.78789 11.5112 7.61024 11.6143C6.43259 11.7173 5.33224 12.2439 4.51318 13.0963C3.69412 13.9487 3.21189 15.0692 3.15588 16.25C3.09988 17.4308 3.47389 18.5919 4.20861 19.518C4.94332 20.4442 5.98889 21.0725 7.15149 21.2865C8.3141 21.5006 9.51489 21.2859 10.5313 20.6822C11.5477 20.0785 12.3107 19.1268 12.6789 18.0034H32.056C19.3646 22.8277 10.0724 33.4135 7.92523 46.3632H4.45254C4.10813 46.3634 3.77788 46.5003 3.53434 46.7438C3.29081 46.9873 3.1539 47.3176 3.15371 47.662V56.2714C3.15371 56.6158 3.29055 56.9462 3.53413 57.1898C3.7777 57.4334 4.10806 57.5702 4.45254 57.5702H13.0619C13.4064 57.5702 13.7367 57.4334 13.9803 57.1898C14.2239 56.9462 14.3607 56.6158 14.3607 56.2714V47.662C14.3605 47.3176 14.2236 46.9873 13.9801 46.7438C13.7366 46.5003 13.4063 46.3634 13.0619 46.3632H10.5533C13.1888 31.6916 25.7793 20.3606 41.8959 18.1689V20.7852C41.8959 21.1296 42.0327 21.46 42.2763 21.7036C42.5199 21.9471 42.8503 22.084 43.1947 22.084H45.0687L25.3956 51.508C25.2689 51.6977 25.1944 51.9174 25.1796 52.145C25.1647 52.3726 25.2101 52.6001 25.311 52.8046L34.3048 71.032C32.6172 72.5108 31.2665 74.3344 30.3439 76.3798C29.4213 78.4251 28.9482 80.6446 28.9566 82.8884C28.9732 83.2214 29.1171 83.5353 29.3585 83.7652C29.6 83.995 29.9206 84.1233 30.2539 84.1234H64.7449C65.0783 84.1235 65.399 83.9953 65.6405 83.7654C65.882 83.5355 66.0258 83.2215 66.0422 82.8884C66.0506 80.6446 65.5776 78.4251 64.6549 76.3798C63.7323 74.3344 62.3816 72.5108 60.694 71.032L69.6908 52.8009C69.7917 52.5964 69.837 52.3689 69.8222 52.1413C69.8073 51.9137 69.7328 51.694 69.6062 51.5043L49.9301 22.084H51.8041C52.1486 22.084 52.4789 21.9471 52.7225 21.7036C52.9661 21.46 53.1029 21.1296 53.1029 20.7852V18.1689C69.2195 20.3606 81.81 31.6938 84.4455 46.3632H81.9369C81.5925 46.3634 81.2622 46.5003 81.0187 46.7438C80.7752 46.9873 80.6383 47.3176 80.6381 47.662V56.2714C80.6381 56.6158 80.7749 56.9462 81.0185 57.1898C81.2621 57.4334 81.5924 57.5702 81.9369 57.5702H90.5463C90.8907 57.5702 91.2211 57.4334 91.4647 57.1898C91.7083 56.9462 91.8451 56.6158 91.8451 56.2714V47.662C91.8449 47.3176 91.708 46.9873 91.4645 46.7438C91.2209 46.5003 90.8907 46.3634 90.5463 46.3632H87.0736C84.893 33.2094 75.3411 22.4937 62.3432 17.78H82.2553C82.54 18.8096 83.154 19.7177 84.0034 20.3654C84.8529 21.0132 85.8911 21.365 86.9593 21.367ZM11.7631 54.9725H5.75136V48.9608H11.7631V54.9725ZM89.2475 54.9725H83.2357V48.9608H89.2475V54.9725ZM86.9593 14.1923C87.412 14.1923 87.8545 14.3265 88.2309 14.5781C88.6073 14.8296 88.9007 15.187 89.074 15.6053C89.2472 16.0235 89.2925 16.4838 89.2042 16.9278C89.1159 17.3718 88.8979 17.7796 88.5778 18.0997C88.2577 18.4198 87.8498 18.6378 87.4058 18.7261C86.9618 18.8145 86.5016 18.7691 86.0834 18.5959C85.6651 18.4226 85.3076 18.1293 85.0561 17.7529C84.8046 17.3765 84.6704 16.9339 84.6704 16.4812C84.671 15.8743 84.9123 15.2925 85.3414 14.8634C85.7706 14.4342 86.3524 14.1929 86.9593 14.1923ZM8.03953 18.7694C7.58679 18.7694 7.14423 18.6351 6.7678 18.3836C6.39138 18.132 6.098 17.7745 5.92478 17.3562C5.75156 16.9379 5.70628 16.4777 5.79466 16.0337C5.88303 15.5896 6.10111 15.1818 6.42129 14.8617C6.74147 14.5416 7.14939 14.3237 7.59344 14.2355C8.03749 14.1472 8.49774 14.1927 8.91597 14.366C9.3342 14.5394 9.69163 14.8329 9.94304 15.2094C10.1945 15.5859 10.3286 16.0285 10.3284 16.4812C10.3278 17.088 10.0865 17.6698 9.65733 18.0988C9.22819 18.5278 8.64633 18.769 8.03953 18.7694ZM47.4994 47.711C48.3411 47.711 49.1638 47.9606 49.8637 48.4281C50.5635 48.8957 51.109 49.5603 51.4311 50.3379C51.7532 51.1155 51.8375 51.9712 51.6734 52.7967C51.5092 53.6222 51.104 54.3805 50.5089 54.9757C49.9138 55.5709 49.1556 55.9762 48.3301 56.1405C47.5046 56.3048 46.649 56.2206 45.8713 55.8987C45.0937 55.5767 44.429 55.0313 43.9613 54.3316C43.4936 53.6318 43.2438 52.8091 43.2437 51.9674C43.2447 50.839 43.6933 49.757 44.4912 48.959C45.2891 48.161 46.371 47.7122 47.4994 47.711ZM63.3941 81.5258H31.6114C31.78 79.8102 32.2871 78.145 33.1033 76.6266C33.9195 75.1082 35.0286 73.7667 36.3666 72.6797H58.6322C59.9756 73.7622 61.0889 75.1026 61.9067 76.6217C62.7245 78.1409 63.2302 79.8083 63.3941 81.5258ZM58.2663 70.082H36.7325L27.9717 52.3244L46.2006 25.0646V45.241C44.5268 45.564 43.0335 46.4993 42.0122 47.8642C40.9909 49.2291 40.5149 50.9256 40.6772 52.6225C40.8394 54.3195 41.6283 55.895 42.8898 57.0416C44.1512 58.1882 45.7947 58.8235 47.4994 58.8235C49.2041 58.8235 50.8476 58.1882 52.109 57.0416C53.3705 55.895 54.1594 54.3195 54.3216 52.6225C54.4839 50.9256 54.0079 49.2291 52.9866 47.8642C51.9653 46.4993 50.472 45.564 48.7982 45.241V25.0646L67.0271 52.3244L58.2663 70.082ZM50.5053 19.4863H44.4935V13.4746H50.5053V19.4863Z" fill="#CDFFD2"/>
</svg>
