<svg width="1777" height="1230" viewBox="0 0 1777 1230" fill="none" xmlns="http://www.w3.org/2000/svg">
<path d="M1409.06 629.978C1409.06 956.352 1138 1220.93 775.792 1220.93C413.582 1220.93 148.161 956.352 148.161 629.978C148.161 303.604 413.582 39.0252 775.792 39.0252C1138 39.0252 1409.06 303.604 1409.06 629.978Z" fill="#FEFEFE"/>
<path d="M218.061 517.825C218.061 517.825 197.783 710.818 355.779 869.359C513.774 1027.9 756.433 1079.35 952.218 1125.78C1148 1172.21 1314.04 1096.87 1358.63 947.077C1403.22 797.285 1258.63 725.952 1201.53 536.708C1144.43 347.464 1159.78 291.198 1001.73 153.458C843.678 15.7172 563.393 34.7491 395.177 194.494C226.962 354.239 218.061 517.825 218.061 517.825Z" fill="#FFC700"/>
<path opacity="0.7" d="M216.396 511.515C216.396 511.515 196.259 701.648 353.05 857.83C509.84 1014.01 750.661 1064.69 944.962 1110.42C1139.26 1156.15 1304.05 1081.91 1348.31 934.334C1392.57 786.759 1249.08 716.492 1192.42 530.056C1135.76 343.62 1151.01 288.188 994.16 152.499C837.313 16.8095 559.147 35.5767 392.193 192.965C225.24 350.353 216.396 511.515 216.396 511.515Z" fill="white"/>
<path d="M424.404 211.489L806.797 706.568L1263.05 351.517" stroke="#263238" stroke-width="2.36067" stroke-linecap="round" stroke-linejoin="round"/>
<path d="M210.219 749.841L775.383 720.215L362.532 566.726" stroke="#263238" stroke-width="2.36067" stroke-linecap="round" stroke-linejoin="round"/>
<path d="M855.236 148.777L781.566 718.52L1264.8 798.668" stroke="#263238" stroke-width="2.36067" stroke-linecap="round" stroke-linejoin="round"/>
<path d="M339.976 1120.58L743.605 707.109L1168.69 1004.83" stroke="#263238" stroke-width="2.36067" stroke-linecap="round" stroke-linejoin="round"/>
<path d="M127.693 661.358C111.099 661.5 94.9194 666.471 81.2011 675.641C67.4828 684.811 56.8415 697.768 50.623 712.875C44.4044 727.981 42.8878 744.558 46.2651 760.51C49.6423 776.461 57.7617 791.07 69.5964 802.49C81.431 813.909 96.4496 821.626 112.753 824.665C129.056 827.704 145.911 825.928 161.188 819.561C176.464 813.195 189.475 802.524 198.576 788.898C207.677 775.273 212.458 759.304 212.315 743.012C212.097 721.174 203.065 700.313 187.202 685.005C171.338 669.698 149.937 661.194 127.693 661.358Z" fill="#263238"/>
<path fill-rule="evenodd" clip-rule="evenodd" d="M179.77 741.167C178.811 729.32 173.341 718.264 164.45 710.2C155.56 702.136 143.901 697.656 131.796 697.653C119.692 697.651 108.03 702.125 99.1335 710.185C90.2372 718.245 84.7596 729.299 83.7918 741.145C83.7977 741.821 83.8036 742.496 83.8098 743.205C83.8764 751.729 86.3289 760.071 90.8991 767.318L82.4539 792.476L108.996 783.943C116.321 787.791 124.537 789.711 132.843 789.518C141.149 789.325 149.263 787.024 156.396 782.84C163.528 778.657 169.437 772.732 173.547 765.642C177.657 758.552 179.828 750.539 179.85 742.382C179.812 741.977 179.808 741.572 179.77 741.167ZM131.985 782.092C124.091 782.167 116.349 779.967 109.715 775.766L94.2495 780.761L99.176 766.099C94.1065 759.462 91.3362 751.404 91.2713 743.107C91.2593 741.833 91.317 740.559 91.4441 739.29C92.2275 729.325 96.8136 720.017 104.285 713.227C111.757 706.438 121.563 702.667 131.743 702.669C141.924 702.672 151.727 706.447 159.194 713.24C166.661 720.033 171.24 729.343 172.017 739.309C172.025 740.322 172.034 741.335 172.043 742.381C172.09 752.84 167.916 762.893 160.436 770.34C152.955 777.787 142.776 782.024 132.123 782.124L131.985 782.092Z" fill="white"/>
<path fill-rule="evenodd" clip-rule="evenodd" d="M153.904 752.024C152.696 751.46 146.997 748.707 145.791 748.38C144.584 748.052 143.929 747.822 143.148 748.976C142.367 750.131 140.12 752.716 139.474 753.498C138.827 754.28 138.106 754.354 136.897 753.79C133.415 752.482 130.197 750.577 127.391 748.166C124.796 745.896 122.57 743.251 120.788 740.322C120.091 739.18 120.773 738.533 121.284 737.954C121.794 737.376 122.441 736.628 123.02 735.948L123.462 735.404C123.733 734.958 123.97 734.493 124.172 734.013C124.341 733.707 124.428 733.363 124.425 733.015C124.422 732.667 124.329 732.325 124.154 732.021C123.84 731.45 121.452 725.798 120.435 723.511C119.417 721.224 118.458 721.638 117.77 721.643C117.083 721.649 116.292 721.656 115.501 721.663C114.908 721.677 114.324 721.813 113.787 722.062C113.251 722.311 112.773 722.667 112.384 723.108C111.063 724.345 110.021 725.841 109.324 727.499C108.628 729.156 108.294 730.939 108.342 732.731C108.372 734.058 108.592 735.375 108.995 736.642C109.938 739.498 111.381 742.171 113.26 744.539C113.851 745.277 121.521 757.197 133.528 761.686C145.534 766.175 145.521 764.656 147.685 764.434C149.325 764.112 150.877 763.452 152.238 762.497C153.599 761.543 154.738 760.316 155.581 758.897C156.315 757.18 156.537 755.293 156.221 753.456C155.838 752.953 154.941 752.589 153.904 752.024Z" fill="white"/>
<path d="M369.273 70.4438C347.14 71.059 326.136 79.8895 310.77 95.0401C295.404 110.191 286.901 130.454 287.086 151.48C287.27 172.507 296.128 192.621 311.757 207.506C327.386 222.391 348.542 230.861 370.683 231.097C381.937 231.217 393.105 229.203 403.532 225.174C413.96 221.144 423.437 215.181 431.41 207.631C439.382 200.082 445.69 191.099 449.963 181.208C454.236 171.318 456.389 160.718 456.295 150.031C456.201 139.343 453.863 128.782 449.417 118.966C444.971 109.15 438.507 100.277 430.403 92.8652C422.299 85.4536 412.718 79.653 402.222 75.8031C391.725 71.9531 380.524 70.1311 369.273 70.4438Z" fill="#263238"/>
<path d="M427.234 124.093C426.606 121.826 425.351 119.76 423.6 118.108C421.849 116.457 419.665 115.279 417.273 114.698C408.485 112.535 373.444 112.835 373.444 112.835C373.444 112.835 338.403 113.136 329.688 115.449C327.31 116.084 325.151 117.302 323.425 118.981C321.7 120.66 320.47 122.74 319.858 125.013C316.912 142.094 317.065 159.527 320.311 176.556C320.968 178.814 322.237 180.87 323.99 182.518C325.744 184.166 327.921 185.349 330.306 185.95C339.06 188.113 374.101 187.813 374.101 187.813C374.101 187.813 409.142 187.513 417.892 185.2C420.263 184.559 422.415 183.339 424.134 181.66C425.853 179.982 427.078 177.904 427.687 175.636C430.68 158.558 430.527 141.117 427.234 124.093Z" fill="white"/>
<path d="M362.476 166.254L362.198 134.591L391.624 150.171L362.476 166.254Z" fill="#263238"/>
<path d="M340.669 1054.43C323.237 1054.58 306.236 1059.28 291.817 1067.93C277.397 1076.58 266.206 1088.79 259.66 1103.03C253.113 1117.26 251.504 1132.88 255.036 1147.9C258.569 1162.92 267.084 1176.68 279.505 1187.42C291.927 1198.17 307.696 1205.42 324.819 1208.27C341.942 1211.12 359.65 1209.43 375.704 1203.42C391.758 1197.41 405.436 1187.34 415.009 1174.5C424.582 1161.66 429.619 1146.61 429.485 1131.27C429.305 1110.69 419.846 1091.03 403.19 1076.62C386.534 1062.21 364.044 1054.23 340.669 1054.43Z" fill="#263238"/>
<path d="M326.94 1181.91L349.744 1181.71L349.303 1131.45L365.195 1131.31L366.755 1114.47L349.156 1114.62L349.071 1104.92C349.036 1100.94 349.903 1099.39 354.283 1099.35L366.621 1099.24L366.468 1081.76L350.686 1081.9C333.721 1082.04 326.122 1088.7 326.232 1101.29L326.35 1114.69L314.48 1114.8L314.628 1131.77L326.499 1131.67L326.94 1181.91Z" fill="white"/>
<path d="M1225.04 942.997C1206.76 943.152 1188.94 948.245 1173.82 957.629C1158.7 967.014 1146.97 980.269 1140.1 995.718C1133.24 1011.17 1131.55 1028.12 1135.25 1044.42C1138.95 1060.73 1147.87 1075.65 1160.9 1087.32C1173.92 1098.98 1190.45 1106.85 1208.4 1109.94C1226.35 1113.03 1244.91 1111.19 1261.73 1104.67C1278.56 1098.14 1292.9 1087.21 1302.93 1073.27C1312.96 1059.33 1318.23 1043 1318.08 1026.34C1317.86 1004.03 1307.95 982.723 1290.5 967.098C1273.06 951.474 1249.52 942.807 1225.04 942.997Z" fill="#263238"/>
<path d="M1225.41 986.978C1239.79 986.851 1241.49 986.836 1247.17 987.061C1250.58 987.073 1253.97 987.614 1257.18 988.663C1259.5 989.442 1261.62 990.67 1263.38 992.265C1265.18 993.832 1266.57 995.755 1267.43 997.886C1268.66 1000.79 1269.32 1003.86 1269.37 1006.98C1269.67 1012.15 1269.77 1013.87 1269.87 1026.77C1269.98 1039.67 1270 1041.43 1269.7 1046.61C1269.71 1049.72 1269.1 1052.81 1267.92 1055.73C1267.1 1057.87 1265.75 1059.81 1263.96 1061.39C1262.24 1063.04 1260.15 1064.32 1257.82 1065.14C1254.63 1066.24 1251.26 1066.84 1247.85 1066.91C1242.17 1067.21 1240.47 1067.26 1226.09 1067.38C1211.71 1067.51 1210.01 1067.53 1204.33 1067.3C1200.92 1067.28 1197.54 1066.74 1194.32 1065.7C1191.99 1064.92 1189.87 1063.68 1188.13 1062.06C1186.31 1060.51 1184.92 1058.6 1184.07 1056.48C1182.84 1053.58 1182.18 1050.5 1182.13 1047.39C1181.83 1042.21 1181.74 1040.66 1181.63 1027.56C1181.52 1014.45 1181.5 1012.93 1181.8 1007.75C1181.79 1004.64 1182.4 1001.55 1183.58 998.63C1184.41 996.484 1185.76 994.537 1187.54 992.937C1189.27 991.312 1191.36 990.046 1193.68 989.226C1196.87 988.125 1200.24 987.524 1203.65 987.447C1209.33 987.156 1211.03 987.106 1225.41 986.978ZM1225.34 978.148C1210.73 978.278 1208.87 978.294 1203.16 978.621C1198.77 978.715 1194.43 979.477 1190.31 980.873C1186.75 982.163 1183.51 984.119 1180.82 986.614C1178.13 989.11 1176.05 992.09 1174.69 995.363C1173.17 999.188 1172.36 1003.22 1172.3 1007.29C1172.08 1012.53 1172.01 1014.19 1172.13 1027.5C1172.24 1040.82 1172.25 1042.51 1172.64 1047.75C1172.77 1051.81 1173.65 1055.83 1175.24 1059.62C1176.62 1062.91 1178.75 1065.88 1181.49 1068.36C1184.22 1070.84 1187.5 1072.76 1191.1 1074.01C1195.29 1075.4 1199.72 1076.13 1204.18 1076.17C1209.89 1076.36 1211.75 1076.38 1226.36 1076.25C1240.96 1076.12 1242.82 1076.1 1248.53 1075.77C1252.99 1075.65 1257.4 1074.85 1261.57 1073.38C1265.13 1072.09 1268.36 1070.14 1271.05 1067.64C1273.74 1065.15 1275.83 1062.17 1277.19 1058.89C1278.71 1055.07 1279.52 1051.04 1279.58 1046.97C1279.8 1041.73 1279.86 1040.07 1279.75 1026.72C1279.64 1013.37 1279.62 1011.75 1279.24 1006.51C1279.11 1002.44 1278.23 998.428 1276.64 994.631C1275.23 991.382 1273.09 988.44 1270.36 985.992C1267.63 983.545 1264.37 981.647 1260.78 980.421C1256.59 979.032 1252.16 978.301 1247.7 978.26C1241.99 978.069 1240.13 978.051 1225.52 978.181" fill="white"/>
<path d="M1225.54 1001.98C1220.06 1002.02 1214.72 1003.55 1210.19 1006.35C1205.66 1009.16 1202.14 1013.13 1200.08 1017.76C1198.02 1022.39 1197.51 1027.46 1198.62 1032.35C1199.73 1037.23 1202.4 1041.71 1206.3 1045.2C1210.21 1048.7 1215.16 1051.05 1220.54 1051.98C1225.91 1052.9 1231.47 1052.35 1236.51 1050.39C1241.56 1048.44 1245.85 1045.16 1248.85 1040.98C1251.85 1036.8 1253.43 1031.91 1253.38 1026.92C1253.32 1020.24 1250.36 1013.86 1245.13 1009.18C1239.91 1004.51 1232.86 1001.92 1225.54 1001.98ZM1225.89 1043.38C1222.34 1043.41 1218.87 1042.48 1215.9 1040.71C1212.94 1038.94 1210.61 1036.41 1209.23 1033.43C1207.85 1030.45 1207.47 1027.17 1208.13 1023.99C1208.8 1020.81 1210.48 1017.89 1212.97 1015.58C1215.46 1013.27 1218.64 1011.68 1222.12 1011.02C1225.59 1010.36 1229.2 1010.65 1232.49 1011.86C1235.77 1013.07 1238.59 1015.14 1240.59 1017.81C1242.58 1020.48 1243.66 1023.63 1243.69 1026.87C1243.72 1031.2 1241.87 1035.38 1238.53 1038.47C1235.19 1041.57 1230.65 1043.33 1225.89 1043.38Z" fill="white"/>
<path d="M1260.73 1000.67C1260.74 1001.84 1260.38 1002.99 1259.68 1003.97C1258.98 1004.95 1257.98 1005.72 1256.8 1006.18C1255.63 1006.64 1254.32 1006.78 1253.06 1006.56C1251.8 1006.35 1250.64 1005.8 1249.73 1004.99C1248.81 1004.17 1248.18 1003.13 1247.92 1001.98C1247.66 1000.84 1247.77 999.651 1248.25 998.567C1248.73 997.482 1249.55 996.552 1250.61 995.893C1251.67 995.234 1252.92 994.876 1254.2 994.864C1255.91 994.849 1257.56 995.451 1258.78 996.539C1260 997.627 1260.7 999.113 1260.73 1000.67Z" fill="white"/>
<path d="M1306.61 364.177C1282.58 364.383 1259.45 355.129 1242.31 338.45C1225.17 321.771 1215.42 299.034 1215.22 275.241C1215.01 251.448 1224.35 228.547 1241.2 211.577C1258.04 194.607 1281.01 184.958 1305.04 184.752C1329.07 184.546 1352.2 193.801 1369.34 210.479C1386.48 227.158 1396.23 249.895 1396.44 273.688C1396.65 297.482 1387.3 320.382 1370.46 337.352C1353.61 354.322 1330.65 363.971 1306.61 364.177Z" fill="#263238" stroke="#263238" stroke-width="2.36067" stroke-linecap="round" stroke-linejoin="round"/>
<path d="M1257.7 303.981C1267.94 309.649 1279.81 312.602 1291.91 312.491C1333.22 312.137 1356.33 281.192 1354.74 253.635C1359.03 250.81 1362.73 247.348 1365.67 243.405C1361.62 245.024 1357.32 246.099 1352.92 246.594C1357.54 244.104 1360.98 240.223 1362.6 235.672C1358.26 238.022 1353.49 239.703 1348.51 240.642C1345.13 237.522 1340.67 235.474 1335.83 234.814C1330.98 234.154 1326.02 234.92 1321.72 236.993C1317.41 239.066 1314 242.33 1312.01 246.279C1310.02 250.229 1309.57 254.643 1310.72 258.837C1301.86 258.529 1293.18 256.582 1285.25 253.124C1277.31 249.666 1270.29 244.774 1264.65 238.766C1261.84 243.105 1261.02 248.219 1262.34 253.068C1263.66 257.918 1267.03 262.138 1271.77 264.869C1268.24 264.805 1264.77 264.003 1261.67 262.531C1261.66 267.085 1263.46 271.494 1266.75 275.004C1270.03 278.515 1274.61 280.908 1279.68 281.776C1276.42 282.591 1272.99 282.728 1269.66 282.177C1271.11 286.064 1273.91 289.451 1277.66 291.863C1281.41 294.275 1285.92 295.591 1290.57 295.625C1281.29 302.116 1269.48 305.12 1257.7 303.981Z" fill="white"/>
<path d="M331.902 457.889C316.204 458.036 300.894 462.631 287.909 471.095C274.924 479.559 264.846 491.511 258.951 505.439C253.055 519.367 251.606 534.646 254.787 549.344C257.968 564.042 265.637 577.499 276.823 588.013C288.008 598.526 302.209 605.625 317.629 608.411C333.049 611.196 348.996 609.544 363.453 603.663C377.91 597.781 390.227 587.935 398.848 575.369C407.469 562.803 412.006 548.082 411.885 533.067C411.701 512.939 403.176 493.719 388.181 479.625C373.186 465.531 352.946 457.714 331.902 457.889Z" fill="#808080"/>
<path d="M309.208 514.129L291.744 514.291L292.179 568.226L309.644 568.063L309.208 514.129Z" fill="white"/>
<path d="M300.337 507.159C302.401 507.155 304.419 506.565 306.135 505.463C307.851 504.362 309.187 502.798 309.973 500.97C310.76 499.143 310.962 497.135 310.554 495.2C310.145 493.265 309.145 491.49 307.68 490.102C306.214 488.714 304.35 487.774 302.323 487.402C300.296 487.029 298.198 487.242 296.295 488.012C294.393 488.781 292.771 490.074 291.635 491.725C290.5 493.377 289.902 495.313 289.918 497.288C289.923 498.591 290.196 499.881 290.723 501.083C291.249 502.284 292.018 503.375 292.985 504.291C293.953 505.208 295.1 505.933 296.361 506.425C297.623 506.917 298.974 507.166 300.337 507.159Z" fill="white"/>
<path d="M337.342 539.516C337.281 531.913 340.869 527.388 347.871 527.322C354.874 527.257 357.38 531.568 357.443 539.329L357.671 567.616L375.053 567.454L374.778 533.415C374.661 518.996 366.037 512.063 354.01 512.175C350.614 512.164 347.271 512.997 344.309 514.592C341.346 516.187 338.867 518.491 337.113 521.276L337.055 514.067L320.291 514.223L320.726 568.157L337.49 568.001L337.342 539.516Z" fill="white"/>
<path d="M1321.26 869.424C1311.82 869.509 1302.46 867.875 1293.72 864.614C1284.97 861.354 1277 856.532 1270.28 850.423C1263.55 844.314 1258.19 837.037 1254.51 829.009C1250.84 820.981 1248.9 812.359 1248.83 803.634C1248.68 786.014 1256.12 769.047 1269.49 756.466C1282.87 743.885 1301.09 736.72 1320.16 736.549C1339.22 736.377 1357.56 743.212 1371.14 755.55C1384.73 767.887 1392.44 784.718 1392.59 802.338C1392.66 811.063 1390.87 819.719 1387.33 827.812C1383.78 835.905 1378.55 843.277 1371.93 849.506C1365.3 855.736 1357.42 860.701 1348.73 864.118C1340.04 867.536 1330.7 869.339 1321.26 869.424Z" fill="#808080"/>
<path d="M1310.36 828.262C1312.43 827.884 1314.37 827.07 1316.05 825.886C1317.49 824.869 1318.7 823.606 1319.62 822.166C1321.11 819.939 1321.88 817.358 1321.82 814.738C1321.86 812.328 1321.16 809.958 1319.78 807.913C1318.38 805.988 1316.32 804.556 1313.93 803.846C1315.38 803.205 1316.68 802.301 1317.75 801.187C1319.37 799.208 1320.18 796.764 1320.03 794.29C1320.07 791.749 1319.23 789.265 1317.63 787.202C1316.03 785.487 1314.01 784.154 1311.73 783.313C1309.45 782.472 1306.99 782.149 1304.55 782.37L1280.18 782.589L1280.57 829.095L1303.17 828.892C1305.59 828.917 1307.99 828.706 1310.36 828.262ZM1290.27 790.571L1301.24 790.472C1303.25 790.399 1305.27 790.627 1307.21 791.149C1308.1 791.493 1308.85 792.093 1309.34 792.86C1309.83 793.628 1310.04 794.522 1309.94 795.41C1310.03 796.203 1309.9 797.005 1309.54 797.733C1309.19 798.461 1308.63 799.088 1307.92 799.548C1306.3 800.381 1304.47 800.789 1302.62 800.725L1290.36 800.835L1290.27 790.571ZM1290.53 820.999L1290.42 808.575L1302.82 808.464C1304.54 808.381 1306.25 808.626 1307.86 809.183C1308.9 809.597 1309.77 810.299 1310.36 811.192C1310.95 812.086 1311.22 813.126 1311.14 814.17C1311.28 815.335 1311.04 816.514 1310.46 817.556C1309.87 818.597 1308.96 819.453 1307.84 820.013C1306.23 820.643 1304.49 820.942 1302.75 820.889L1290.53 820.999Z" fill="white"/>
<path d="M1330.21 825.659C1333.94 828.413 1338.59 829.865 1343.37 829.759C1345.96 829.89 1348.56 829.497 1350.98 828.61C1353.4 827.722 1355.58 826.36 1357.38 824.617C1359.26 822.947 1360.51 820.754 1360.92 818.373L1350.96 818.462C1350.49 819.367 1349.82 820.175 1349.01 820.839C1347.47 821.961 1345.55 822.544 1343.59 822.482C1341.7 822.546 1339.83 822.114 1338.19 821.235C1336.92 820.444 1335.88 819.362 1335.19 818.094C1334.5 816.826 1334.18 815.414 1334.25 813.995L1361.38 813.751C1361.46 811.465 1361.35 809.178 1361.04 806.91C1360.6 804.359 1359.57 801.93 1358 799.795C1356.39 797.589 1354.15 795.847 1351.52 794.771C1348.74 793.692 1345.75 793.165 1342.74 793.222C1340.28 793.155 1337.83 793.556 1335.54 794.399C1333.26 795.243 1331.18 796.511 1329.44 798.125C1327.7 799.998 1326.38 802.169 1325.55 804.514C1324.72 806.858 1324.39 809.331 1324.6 811.789C1324.31 814.347 1324.66 816.931 1325.64 819.338C1326.61 821.745 1328.18 823.909 1330.21 825.659ZM1336.99 802.675C1337.76 801.989 1338.67 801.457 1339.67 801.111C1340.67 800.764 1341.74 800.612 1342.8 800.663C1344.91 800.592 1346.97 801.235 1348.6 802.471C1349.42 803.162 1350.07 803.999 1350.52 804.932C1350.97 805.864 1351.22 806.873 1351.23 807.895L1334.45 808.046C1334.65 806.051 1335.54 804.167 1336.99 802.675Z" fill="white"/>
<path d="M1352.98 784.592L1331.06 784.789L1331.1 789.506L1353.02 789.309L1352.98 784.592Z" fill="white"/>
<path d="M856.813 149.778C834.536 149.977 813.106 142.316 797.236 128.481C781.366 114.647 772.357 95.7718 772.19 76.0087C772.023 56.2455 780.712 37.213 796.346 23.0982C811.98 8.98332 833.278 0.942325 855.554 0.744098C877.831 0.54587 899.261 8.20665 915.131 22.0412C931.001 35.8757 940.01 54.7506 940.177 74.5138C940.344 94.277 931.655 113.309 916.021 127.424C900.387 141.539 879.089 149.58 856.813 149.778Z" fill="#808080"/>
<path fill-rule="evenodd" clip-rule="evenodd" d="M905.117 95.1307C904.126 94.6517 903.061 94.3124 901.958 94.1242C896.766 92.5545 892.217 89.5898 888.908 85.6184C886.945 83.4849 885.365 81.0805 884.228 78.4945C883.972 78.0254 883.836 77.509 883.832 76.9844C883.827 76.4599 883.954 75.9411 884.202 75.4676C885.365 74.2186 886.906 73.3115 888.632 72.8609C890.812 72.2622 892.844 71.281 894.614 69.9722C894.987 69.6888 895.285 69.3325 895.487 68.9299C895.51 68.8158 895.509 68.6988 895.484 68.5851C895.69 68.1168 895.686 67.5936 895.472 67.1291C894.993 66.3347 894.253 65.6979 893.356 65.3086C892.815 65.0193 892.21 64.8444 891.584 64.7969C890.959 64.7494 890.329 64.8305 889.742 65.0341C888.711 65.4122 887.645 65.7038 886.557 65.9054C885.357 66.1698 884.108 66.1809 882.904 65.9378C882.904 65.9378 882.9 65.5164 882.897 65.2098C882.88 63.1791 882.863 61.1101 882.844 58.9644C883.046 55.6413 882.933 52.3091 882.508 49.0047C881.138 43.3583 877.424 38.4198 872.144 35.2255C868.386 32.9216 864.03 31.5596 859.51 31.2759C857.998 31.2893 856.528 31.3024 855.017 31.3158C849.612 31.1528 844.28 32.5145 839.748 35.2153C835.216 37.9162 831.705 41.8247 829.692 46.4081C828.287 50.3136 827.862 54.4559 828.451 58.5277C828.729 61.1752 828.822 63.8365 828.728 66.4955C827.341 66.7274 825.92 66.74 824.529 66.5328C823.521 66.5417 822.424 66.015 821.204 65.7193C820.641 65.6326 820.064 65.6516 819.509 65.7752C818.954 65.8987 818.433 66.1241 817.976 66.4377C817.486 66.6775 817.069 67.0256 816.765 67.4501C816.46 67.8746 816.277 68.3619 816.232 68.8672L816.234 69.0971C816.374 69.7369 816.767 70.3066 817.34 70.6966L818.48 71.4529C820.628 72.5532 822.903 73.4326 825.265 74.0749C825.95 74.2726 826.578 74.6064 827.105 75.0522C827.632 75.498 828.043 76.0449 828.31 76.6535C828.497 78.3145 828.083 79.9866 827.133 81.4155C824.809 85.6514 821.378 89.3013 817.143 92.0417C814.843 93.4838 812.297 94.5682 809.61 95.2507C808.557 95.4197 807.606 95.932 806.934 96.6922L806.936 96.9604C806.827 97.2872 806.81 97.6337 806.886 97.9679C806.962 98.3021 807.129 98.6132 807.373 98.8724C807.684 99.2102 808.074 99.4814 808.513 99.667C810.709 100.675 813.047 101.402 815.461 101.828C816.897 102.014 818.307 102.335 819.67 102.787L820.141 103.855C820.57 105.001 820.749 106.302 821.223 107.678C821.3 107.87 821.429 108.041 821.6 108.173C821.77 108.306 821.975 108.396 822.195 108.435C822.722 108.629 823.311 108.623 823.833 108.421C827.416 107.59 831.146 107.44 834.792 107.979C838.55 109.213 842.099 110.923 845.335 113.058C847.831 114.616 850.738 115.543 853.757 115.742C856.08 115.857 858.408 115.836 860.729 115.68C862.677 115.487 864.553 114.894 866.216 113.946C869.937 111.958 873.193 109.63 876.834 108.104C878.208 107.798 879.617 107.644 881.031 107.645C884.046 107.515 887.067 107.616 890.063 107.948C890.11 107.965 890.16 107.974 890.21 107.974C890.261 107.973 890.311 107.963 890.357 107.945C890.761 107.897 891.133 107.717 891.403 107.438C891.544 107.267 891.643 107.07 891.692 106.86C891.688 106.439 891.689 106.554 891.692 106.86C891.71 106.784 891.709 106.706 891.69 106.63C892.001 105.262 892.588 103.957 893.422 102.783C893.671 102.581 893.963 102.428 894.281 102.332C894.598 102.237 894.933 102.203 895.265 102.23C897.713 101.856 900.104 101.217 902.389 100.328C903.519 99.9799 904.519 99.3465 905.271 98.5014C905.432 98.2912 905.545 98.0532 905.601 97.8021C905.658 97.551 905.657 97.2921 905.6 97.0414C905.543 96.7906 905.43 96.5533 905.269 96.344C905.107 96.1347 904.9 95.9579 904.66 95.8245L905.117 95.1307Z" fill="white"/>
<path d="M983.724 232.57L542.899 236.347C520.812 236.536 503.045 252.452 503.215 271.896L510.447 1096.18C510.618 1115.63 528.661 1131.24 550.748 1131.05L991.573 1127.27C1013.66 1127.08 1031.43 1111.17 1031.26 1091.72L1024.03 267.434C1023.85 247.99 1005.81 232.381 983.724 232.57Z" fill="#263238"/>
<mask id="mask0_5_905" style="mask-type:luminance" maskUnits="userSpaceOnUse" x="503" y="232" width="529" height="900">
<path d="M983.724 232.57L542.899 236.347C520.812 236.536 503.045 252.452 503.215 271.896L510.447 1096.18C510.618 1115.63 528.661 1131.24 550.748 1131.05L991.573 1127.27C1013.66 1127.08 1031.43 1111.17 1031.26 1091.72L1024.03 267.434C1023.85 247.99 1005.81 232.381 983.724 232.57Z" fill="white"/>
</mask>
<g mask="url(#mask0_5_905)">
<path opacity="0.2" d="M547.774 236.305C535.874 236.407 524.499 240.666 516.149 248.146C507.8 255.625 503.161 265.712 503.253 276.187L510.409 1091.87C510.453 1097.65 511.94 1103.35 514.766 1108.56C517.591 1113.78 521.686 1118.38 526.76 1122.04L822.846 233.949L547.774 236.305Z" fill="white"/>
<path d="M788.602 1103.11C788.575 1100.03 787.509 1097.02 785.539 1094.47C783.57 1091.93 780.784 1089.95 777.536 1088.8C774.288 1087.65 770.724 1087.37 767.293 1088.01C763.862 1088.64 760.719 1090.15 758.263 1092.36C755.806 1094.56 754.146 1097.36 753.493 1100.39C752.839 1103.42 753.221 1106.55 754.591 1109.39C755.96 1112.22 758.256 1114.64 761.187 1116.32C764.118 1118.01 767.553 1118.89 771.056 1118.86C773.381 1118.84 775.679 1118.41 777.819 1117.61C779.959 1116.81 781.9 1115.64 783.529 1114.18C785.159 1112.72 786.446 1110.99 787.316 1109.09C788.186 1107.19 788.623 1105.16 788.602 1103.11Z" stroke="white" stroke-width="2.36067" stroke-linecap="round" stroke-linejoin="round"/>
</g>
<path d="M983.724 232.57L542.899 236.347C520.812 236.536 503.045 252.452 503.215 271.896L510.447 1096.18C510.618 1115.63 528.661 1131.24 550.748 1131.05L991.573 1127.27C1013.66 1127.08 1031.43 1111.17 1031.26 1091.72L1024.03 267.434C1023.85 247.99 1005.81 232.381 983.724 232.57Z" stroke="#263238" stroke-width="2.36067" stroke-linecap="round" stroke-linejoin="round"/>
<path d="M1001.06 293.189L526.575 297.254L533.426 1078.09L1007.91 1074.03L1001.06 293.189Z" fill="#FFC700" stroke="#263238" stroke-width="2.36067" stroke-linecap="round" stroke-linejoin="round"/>
<path d="M761.831 918.084C881.987 917.055 978.64 830.472 977.712 724.696C976.784 618.92 878.626 534.006 758.47 535.036C638.314 536.065 541.66 622.648 542.588 728.424C543.516 834.2 641.674 919.114 761.831 918.084Z" fill="#263238"/>
<path d="M987.393 387.026L543.813 390.826L544.594 479.739L988.173 475.938L987.393 387.026Z" fill="white"/>
<path d="M992.514 970.812L548.935 974.613L549.715 1063.53L993.295 1059.72L992.514 970.812Z" fill="white"/>
<path d="M992.243 939.898L548.664 943.698L548.698 947.554L992.277 943.753L992.243 939.898Z" fill="white"/>
<path d="M992.396 957.283L548.816 961.083L548.85 964.938L992.43 961.138L992.396 957.283Z" fill="white"/>
<path d="M984.988 301.425L945.658 301.762L945.824 320.747L985.155 320.41L984.988 301.425Z" stroke="#263238" stroke-width="1.93827" stroke-linecap="round" stroke-linejoin="round"/>
<path d="M976.34 301.499L945.658 301.762L945.824 320.747L976.507 320.484L976.34 301.499Z" fill="#263238" stroke="#263238" stroke-width="1.71166" stroke-linecap="round" stroke-linejoin="round"/>
<path d="M990.489 306.688L984.953 306.736L985.027 315.101L990.563 315.054L990.489 306.688Z" fill="#263238" stroke="#263238" stroke-width="1.71166" stroke-linecap="round" stroke-linejoin="round"/>
<path d="M544.6 311.091L537.384 311.152L537.48 322.039L544.696 321.977L544.6 311.091Z" fill="#263238" stroke="#263238" stroke-width="2.08467" stroke-linecap="round" stroke-linejoin="round"/>
<path d="M555.915 307.162L548.699 307.224L548.828 321.942L556.044 321.88L555.915 307.162Z" fill="#263238" stroke="#263238" stroke-width="2.08467" stroke-linecap="round" stroke-linejoin="round"/>
<path d="M567.196 302.555L559.98 302.617L560.148 321.845L567.365 321.783L567.196 302.555Z" fill="#263238" stroke="#263238" stroke-width="2.08467" stroke-linecap="round" stroke-linejoin="round"/>
<path d="M990.178 330.915L534.562 334.819L534.827 364.982L990.442 361.078L990.178 330.915Z" fill="#263238"/>
<mask id="mask1_5_905" style="mask-type:luminance" maskUnits="userSpaceOnUse" x="550" y="394" width="740" height="518">
<path d="M1285.27 394.101L730.667 398.852L731.937 543.677C697.608 547.851 664.971 559.444 636.943 577.422C608.914 595.4 586.368 619.201 571.318 646.7C556.269 674.199 549.185 704.538 550.7 735.006C552.214 765.473 562.28 795.121 579.999 821.3C597.717 847.478 622.535 869.371 652.235 885.023C681.935 900.674 715.592 909.597 750.199 910.993C784.805 912.388 819.282 906.214 850.549 893.022C881.816 879.829 908.899 860.03 929.378 835.392L1289.12 832.31L1285.27 394.101Z" fill="white"/>
</mask>
<g mask="url(#mask1_5_905)">
<path d="M533.211 909.107C533.211 909.107 589.71 730.639 600.339 692.502C610.967 654.365 627.331 629.467 661.486 623.137C695.641 616.806 758.748 610.664 758.748 610.664C758.748 610.664 813.599 605.344 853.392 607.428C893.186 609.512 929.734 627.919 949.044 640.557C968.354 653.194 1024.32 696.677 1024.32 696.677L1016.57 595.288L1066.68 598.472C1066.68 598.472 1104.27 739.47 1109.29 765.421C1114.31 791.373 1114.44 802.841 1109.65 805.889C1104.86 808.937 1113.13 810.709 1069.12 798.38C1025.11 786.051 973.501 769.01 945.316 762.001C917.131 754.992 913.678 753.809 913.678 753.809C913.678 753.809 845.621 845.615 823.963 872.983C809.102 892.411 795.912 912.787 784.502 933.942" fill="white"/>
<mask id="mask2_5_905" style="mask-type:luminance" maskUnits="userSpaceOnUse" x="533" y="595" width="581" height="339">
<path d="M533.211 909.107C533.211 909.107 589.71 730.639 600.339 692.502C610.967 654.365 627.331 629.467 661.486 623.137C695.641 616.806 758.748 610.664 758.748 610.664C758.748 610.664 813.599 605.344 853.392 607.428C893.186 609.512 929.734 627.919 949.044 640.557C968.354 653.194 1024.32 696.677 1024.32 696.677L1016.57 595.288L1066.68 598.472C1066.68 598.472 1104.27 739.47 1109.29 765.421C1114.31 791.373 1114.44 802.841 1109.65 805.889C1104.86 808.937 1113.13 810.709 1069.12 798.38C1025.11 786.051 973.501 769.01 945.316 762.001C917.131 754.992 913.678 753.809 913.678 753.809C913.678 753.809 845.621 845.615 823.963 872.983C809.102 892.411 795.912 912.787 784.502 933.942" fill="white"/>
</mask>
<g mask="url(#mask2_5_905)">
<path opacity="0.2" d="M1109.56 805.696C1114.36 802.648 1114.26 791.107 1109.21 765.228C1106.32 749.758 1091.64 693.361 1080.35 650.344C1085.12 701.225 1087.24 750.964 1078.56 760.326C1059.46 780.567 1031.05 754.428 1031.05 754.428L1025.34 715.34C1025.34 715.34 928.776 653.825 892.657 643.562C856.538 633.299 818.18 631.518 781.007 642.409C743.834 653.3 712.776 664.138 690.146 684.41C667.517 704.681 589.822 865.969 589.822 865.969L581.289 913.738L784.416 933.628C795.825 912.473 809.016 892.096 823.876 872.669C845.672 845.299 913.592 753.495 913.592 753.495C913.592 753.495 917.045 754.678 945.23 761.686C973.415 768.695 1025.02 785.761 1069.03 798.065C1113.05 810.37 1104.8 808.768 1109.56 805.696Z" fill="black"/>
</g>
<path d="M533.211 909.107C533.211 909.107 589.71 730.639 600.339 692.502C610.967 654.365 627.331 629.467 661.486 623.137C695.641 616.806 758.748 610.664 758.748 610.664C758.748 610.664 813.599 605.344 853.392 607.428C893.186 609.512 929.734 627.919 949.044 640.557C968.354 653.194 1024.32 696.677 1024.32 696.677L1016.57 595.288L1066.68 598.472C1066.68 598.472 1104.27 739.47 1109.29 765.421C1114.31 791.373 1114.44 802.841 1109.65 805.889C1104.86 808.937 1113.13 810.709 1069.12 798.38C1025.11 786.051 973.501 769.01 945.316 762.001C917.131 754.992 913.678 753.809 913.678 753.809C913.678 753.809 845.621 845.615 823.963 872.983C809.102 892.411 795.912 912.787 784.502 933.942" stroke="#263238" stroke-width="2.36067" stroke-linecap="round" stroke-linejoin="round"/>
<path d="M932.93 725.443L913.593 753.64L971.297 725.115" stroke="#263238" stroke-width="2.36067" stroke-linecap="round" stroke-linejoin="round"/>
<path d="M1024.24 696.509C1024.24 696.509 1027.43 746.603 1030.91 754.43C1034.4 762.256 1049.55 765.739 1049.55 765.739" fill="white"/>
<path d="M1024.24 696.509C1024.24 696.509 1027.43 746.603 1030.91 754.43C1034.4 762.256 1049.55 765.739 1049.55 765.739" stroke="#263238" stroke-width="2.36067" stroke-linecap="round" stroke-linejoin="round"/>
<path d="M721.939 697.571C721.939 697.571 714.585 713.274 718.33 713.242C722.076 713.21 746.324 704.782 757.561 704.686C768.798 704.589 781.096 721.773 781.096 721.773C781.096 721.773 813.656 700.083 823.979 702.468C829.036 703.912 833.686 706.285 837.619 709.432C838.275 709.926 839.076 710.246 839.93 710.356C840.784 710.465 841.656 710.359 842.446 710.051C843.236 709.742 843.911 709.243 844.393 708.611C844.874 707.98 845.143 707.241 845.168 706.481C845.322 702.042 845.434 695.979 845.367 688.269C845.208 670.157 827.009 620.894 794.24 618.702C761.47 616.509 756.032 637.143 742.285 661.97C728.538 686.797 721.939 697.571 721.939 697.571Z" fill="#263238"/>
<path d="M791.43 590.403C791.43 590.403 759.899 594.359 745.6 606.606C731.302 618.853 736.263 638.088 728.87 655.659C721.477 673.229 708.763 708.983 715.56 708.319C722.358 707.655 746.282 690.548 753.177 694.709C760.072 698.869 776.008 716.337 778.772 717.428C781.536 718.52 816.32 695.986 821.091 693.521C825.862 691.055 849.424 717.526 850.049 710.246C850.674 702.966 851.675 660.111 846.627 634.184C841.58 608.257 807.217 590.874 791.43 590.403Z" fill="white" stroke="#263238" stroke-width="2.36067" stroke-linecap="round" stroke-linejoin="round"/>
<path d="M802.096 556.486C802.096 556.486 790.721 587.985 781.15 599.027C771.579 610.069 767.49 611.826 764.352 637.217C761.215 662.608 776.728 719.847 781.593 718.592C786.457 717.338 833.137 650.522 848.824 639.5C864.51 628.478 880.88 616.892 880.88 616.892C880.88 616.892 842.368 606.941 829.213 592.577C819.267 581.095 810.208 569.038 802.096 556.486Z" fill="white"/>
<mask id="mask3_5_905" style="mask-type:luminance" maskUnits="userSpaceOnUse" x="763" y="556" width="118" height="163">
<path d="M802.096 556.486C802.096 556.486 790.721 587.985 781.15 599.027C771.579 610.069 767.49 611.826 764.352 637.217C761.215 662.608 776.728 719.847 781.593 718.592C786.457 717.338 833.137 650.522 848.824 639.5C864.51 628.478 880.88 616.892 880.88 616.892C880.88 616.892 842.368 606.941 829.213 592.577C819.267 581.095 810.208 569.038 802.096 556.486Z" fill="white"/>
</mask>
<g mask="url(#mask3_5_905)">
<path opacity="0.2" d="M855.586 634.762C868.863 625.409 880.853 616.917 880.853 616.917C880.853 616.917 842.341 606.965 829.187 592.602C819.253 581.142 810.203 569.109 802.097 556.582C798.195 567.246 793.625 577.711 788.407 587.932C794.345 602.212 810.744 625.447 855.586 634.762Z" fill="black"/>
<path d="M829.186 592.505C819.253 581.045 810.203 569.012 802.097 556.485C802.097 556.485 798.278 567.066 793.224 578.094C797.589 588.944 806.297 605.068 821.722 614.489C834.191 621.669 847.996 626.869 862.512 629.853L880.853 616.893C880.853 616.893 842.341 606.868 829.186 592.505Z" fill="#263238"/>
</g>
<path d="M802.096 556.486C802.096 556.486 790.721 587.985 781.15 599.027C771.579 610.069 767.49 611.826 764.352 637.217C761.215 662.608 776.728 719.847 781.593 718.592C786.457 717.338 833.137 650.522 848.824 639.5C864.51 628.478 880.88 616.892 880.88 616.892C880.88 616.892 842.368 606.941 829.213 592.577C819.267 581.095 810.208 569.038 802.096 556.486Z" stroke="#263238" stroke-width="2.36067" stroke-linecap="round" stroke-linejoin="round"/>
<path d="M947.508 474.929C947.508 474.929 945.825 515.414 947.291 528.665C948.756 541.917 954.468 564.976 942.291 586.686C930.113 608.396 919.963 622.523 908.344 626.235C896.725 629.948 858.928 623.046 828.566 603.374C798.204 583.701 792.363 542.699 787.426 529.453C782.489 516.207 787.601 470.867 818.349 456.103C843.248 444.561 872.232 441.932 899.24 448.766C915.78 453.45 947.508 474.929 947.508 474.929Z" fill="white"/>
<mask id="mask4_5_905" style="mask-type:luminance" maskUnits="userSpaceOnUse" x="785" y="445" width="165" height="183">
<path d="M947.508 474.929C947.508 474.929 945.825 515.414 947.291 528.665C948.756 541.917 954.468 564.976 942.291 586.686C930.113 608.396 919.963 622.523 908.344 626.235C896.725 629.948 858.928 623.046 828.566 603.374C798.204 583.701 792.363 542.699 787.426 529.453C782.489 516.207 787.601 470.867 818.349 456.103C843.248 444.561 872.232 441.932 899.24 448.766C915.78 453.45 947.508 474.929 947.508 474.929Z" fill="white"/>
</mask>
<g mask="url(#mask4_5_905)">
<path opacity="0.2" d="M818.459 456.103C814.075 458.24 810.109 460.984 806.714 464.23L822.693 474.035C822.693 474.035 842.945 455.893 888.861 480.863C912.553 493.755 932.898 495.69 947.074 494.526C947.31 483.758 947.673 474.928 947.673 474.928C947.673 474.928 915.945 453.376 899.432 448.668C872.384 441.845 843.366 444.509 818.459 456.103Z" fill="black"/>
</g>
<path d="M947.508 474.929C947.508 474.929 945.825 515.414 947.291 528.665C948.756 541.917 954.468 564.976 942.291 586.686C930.113 608.396 919.963 622.523 908.344 626.235C896.725 629.948 858.928 623.046 828.566 603.374C798.204 583.701 792.363 542.699 787.426 529.453C782.489 516.207 787.601 470.867 818.349 456.103C843.248 444.561 872.232 441.932 899.24 448.766C915.78 453.45 947.508 474.929 947.508 474.929Z" stroke="#263238" stroke-width="2.36067" stroke-linecap="round" stroke-linejoin="round"/>
<path d="M883.205 530.063C883.243 534.355 881.373 537.862 879.032 537.883C876.691 537.903 874.76 534.427 874.722 530.136C874.685 525.844 876.554 522.312 878.895 522.292C881.236 522.272 883.167 525.747 883.205 530.063Z" fill="#263238"/>
<path d="M933.341 533.683C933.379 537.999 931.51 541.507 929.168 541.527C926.827 541.547 924.896 538.072 924.858 533.756C924.821 529.44 926.691 525.956 929.032 525.936C931.373 525.916 933.304 529.391 933.341 533.683Z" fill="#263238"/>
<path d="M919.799 522.281C919.799 522.281 906.872 533.861 910.33 538.657C913.787 543.453 921.798 546.1 919.381 553.129C916.964 560.157 898.892 563.003 892.637 553.358" stroke="#263238" stroke-width="2.36067" stroke-linecap="round" stroke-linejoin="round"/>
<path d="M853.584 560.288C858.748 565.709 865.166 570.096 872.413 573.157C879.659 576.218 887.566 577.883 895.607 578.041C895.607 578.041 867.602 594.576 855.248 592.936C842.894 591.296 853.584 560.288 853.584 560.288Z" fill="#263238" stroke="#263238" stroke-width="2.36067" stroke-linecap="round" stroke-linejoin="round"/>
<path d="M859.702 507.228C859.702 507.228 871.528 492.578 895.459 501.418" stroke="#263238" stroke-width="2.36067" stroke-linecap="round" stroke-linejoin="round"/>
<path d="M924.46 507.134C924.46 507.134 939.526 503.95 945.119 516.657" stroke="#263238" stroke-width="2.36067" stroke-linecap="round" stroke-linejoin="round"/>
<path d="M792.417 545.705C792.417 545.705 798.38 522.109 813.399 513.517C828.418 504.926 842.839 506.621 833.815 495.229C824.79 483.837 819.842 472.385 839.074 466.789C858.307 461.192 896.037 469.938 918.053 477C940.068 484.062 982.616 486.146 993.367 458.823C999.995 441.986 980.047 428.796 965.499 422.059C949.375 414.631 931.329 411.027 913.23 413.995C902.228 415.763 891.768 419.659 880.759 420.723C862.127 422.556 845.617 415.084 827.06 419.195C811.484 422.608 797.582 430.387 787.452 441.358C770.401 460.127 765.878 493.992 792.417 545.705Z" fill="#263238"/>
<mask id="mask5_5_905" style="mask-type:luminance" maskUnits="userSpaceOnUse" x="773" y="412" width="222" height="134">
<path d="M792.417 545.705C792.417 545.705 798.38 522.109 813.399 513.517C828.418 504.926 842.839 506.621 833.815 495.229C824.79 483.837 819.842 472.385 839.074 466.789C858.307 461.192 896.037 469.938 918.053 477C940.068 484.062 982.616 486.146 993.367 458.823C999.995 441.986 980.047 428.796 965.499 422.059C949.375 414.631 931.329 411.027 913.23 413.995C902.228 415.763 891.768 419.659 880.759 420.723C862.127 422.556 845.617 415.084 827.06 419.195C811.484 422.608 797.582 430.387 787.452 441.358C770.401 460.127 765.878 493.992 792.417 545.705Z" fill="white"/>
</mask>
<g mask="url(#mask5_5_905)">
<path d="M950.1 412.54C950.1 412.54 985.89 429.207 961.183 457.62C936.477 486.033 912.813 466.837 853.535 457.306C794.257 447.775 759.586 473.799 759.586 473.799" stroke="#808080" stroke-width="2.36067" stroke-linecap="round" stroke-linejoin="round"/>
<path d="M764.842 504.598C764.842 504.598 776.074 485.103 813.096 479.087C850.118 473.072 852.311 478.121 852.311 478.121" stroke="#808080" stroke-width="2.36067" stroke-linecap="round" stroke-linejoin="round"/>
</g>
<path d="M792.417 545.705C792.417 545.705 798.38 522.109 813.399 513.517C828.418 504.926 842.839 506.621 833.815 495.229C824.79 483.837 819.842 472.385 839.074 466.789C858.307 461.192 896.037 469.938 918.053 477C940.068 484.062 982.616 486.146 993.367 458.823C999.995 441.986 980.047 428.796 965.499 422.059C949.375 414.631 931.329 411.027 913.23 413.995C902.228 415.763 891.768 419.659 880.759 420.723C862.127 422.556 845.617 415.084 827.06 419.195C811.484 422.608 797.582 430.387 787.452 441.358C770.401 460.127 765.878 493.992 792.417 545.705Z" stroke="#263238" stroke-width="2.36067" stroke-linecap="round" stroke-linejoin="round"/>
<path d="M807.847 536.989C807.847 536.989 789.74 501.281 774.232 520.085C758.725 538.889 787.328 562.262 808.605 557.497" fill="white"/>
<path d="M807.847 536.989C807.847 536.989 789.74 501.281 774.232 520.085C758.725 538.889 787.328 562.262 808.605 557.497" stroke="#263238" stroke-width="2.36067" stroke-linecap="round" stroke-linejoin="round"/>
<path d="M1001.52 531.232C1001.52 531.232 989.86 530.119 987.814 538.624C985.768 547.128 983.874 560.481 988.006 560.446C992.137 560.41 999.64 558.552 1002.35 553.048C1005.05 547.545 1007.66 530.646 1007.66 530.646L1001.52 531.232Z" fill="white" stroke="#263238" stroke-width="2.36067" stroke-linecap="round" stroke-linejoin="round"/>
<path d="M1020 528.042C1020 528.042 1003.46 525.759 1001.52 531.232C999.586 536.704 996.942 555.519 998.985 556.011C1001.03 556.503 1013.35 551.669 1013.35 551.669L1020 528.042Z" fill="white" stroke="#263238" stroke-width="2.36067" stroke-linecap="round" stroke-linejoin="round"/>
<path d="M1041.97 529.067C1041.97 529.067 1022.59 518.369 1017.93 523.841C1013.27 529.312 1013.35 551.669 1013.35 551.669C1015.06 551.986 1016.83 551.923 1018.51 551.485C1020.18 551.047 1021.71 550.249 1022.94 549.162C1026.35 545.52 1030.42 540.659 1030.42 540.659C1030.42 540.659 1044.21 543.548 1046.22 542.949C1048.22 542.35 1053.08 542.89 1051.67 536.864C1050.27 530.838 1041.97 529.067 1041.97 529.067Z" fill="white" stroke="#263238" stroke-width="2.36067" stroke-linecap="round" stroke-linejoin="round"/>
<path d="M1068.14 539.73C1059.44 534.537 1052.32 527.547 1047.39 519.369C1040.42 506.747 1036.98 507.334 1033.56 512.844C1030.14 518.353 1034.32 523.7 1037.11 528.502C1039.91 533.303 1051.66 544.696 1051.66 544.696L1068.14 539.73Z" fill="white" stroke="#263238" stroke-width="2.36067" stroke-linecap="round" stroke-linejoin="round"/>
<path d="M945.494 625.262C945.494 625.262 936.207 700.1 937.784 704.136C939.362 708.172 956.204 712.732 960.009 710.008C963.814 707.283 961.481 701.92 959.909 698.563C958.337 695.206 972.33 632.452 972.33 632.452L945.494 625.262Z" fill="#92E3A9" stroke="#263238" stroke-width="2.36067" stroke-linecap="round" stroke-linejoin="round"/>
<path d="M695.218 653.304L746.781 791.297C746.781 791.297 861.941 730.998 888.772 699.827C915.602 668.656 930.941 633.631 940.497 630.276C950.053 626.921 983.947 634.754 988.947 639.56C993.948 644.367 992.838 649.687 986.877 654.733C980.916 659.78 977.507 660.512 977.507 660.512C977.507 660.512 977.3 671.401 974.617 673.316C971.935 675.23 972.547 672.776 971.879 675.206C971.433 677.803 970.376 680.29 968.776 682.508C966.814 684.949 966.054 686.217 964.159 686.888C960.226 688.4 956.129 689.557 951.932 690.339C944.544 692.082 937.025 693.362 929.433 694.169C924.675 694.937 894.108 749.2 865.25 781.625C836.391 814.05 744.99 888.621 730.533 889.133C716.077 889.645 630.051 766.86 611.579 736.684" fill="white"/>
<mask id="mask6_5_905" style="mask-type:luminance" maskUnits="userSpaceOnUse" x="611" y="629" width="382" height="261">
<path d="M695.218 653.304L746.781 791.297C746.781 791.297 861.941 730.998 888.772 699.827C915.602 668.656 930.941 633.631 940.497 630.276C950.053 626.921 983.947 634.754 988.947 639.56C993.948 644.367 992.838 649.687 986.877 654.733C980.916 659.78 977.507 660.512 977.507 660.512C977.507 660.512 977.3 671.401 974.617 673.316C971.935 675.23 972.547 672.776 971.879 675.206C971.433 677.803 970.376 680.29 968.776 682.508C966.814 684.949 966.054 686.217 964.159 686.888C960.226 688.4 956.129 689.557 951.932 690.339C944.544 692.082 937.025 693.362 929.433 694.169C924.675 694.937 894.108 749.2 865.25 781.625C836.391 814.05 744.99 888.621 730.533 889.133C716.077 889.645 630.051 766.86 611.579 736.684" fill="white"/>
</mask>
<g mask="url(#mask6_5_905)">
<path opacity="0.2" d="M968.775 682.459C970.376 680.241 971.433 677.754 971.879 675.158C972.463 672.728 971.879 675.158 974.617 673.267C977.355 671.377 977.507 660.464 977.507 660.464C977.507 660.464 980.916 659.731 986.876 654.685C992.837 649.639 993.973 644.173 988.947 639.512C983.92 634.851 949.971 626.994 940.496 630.228C938.025 631.097 935.022 634.154 931.757 638.741C936.861 645.972 942.877 650.358 937.479 663.11C929.387 682.578 910.319 706.99 893.974 727.741C877.629 748.492 740.914 863.632 724.367 861.348C710.854 859.476 671.295 818.156 657.226 803.17C687.452 845.079 721.996 889.327 730.67 889.035C745.072 888.523 836.583 813.975 865.386 781.527C894.189 749.078 924.673 694.791 929.433 694.12C937.025 693.314 944.543 692.034 951.931 690.29C956.129 689.508 960.226 688.352 964.158 686.839C966.191 686.167 966.814 684.949 968.775 682.459Z" fill="black"/>
</g>
<path d="M695.218 653.304L746.781 791.297C746.781 791.297 861.941 730.998 888.772 699.827C915.602 668.656 930.941 633.631 940.497 630.276C950.053 626.921 983.947 634.754 988.947 639.56C993.948 644.367 992.838 649.687 986.877 654.733C980.916 659.78 977.507 660.512 977.507 660.512C977.507 660.512 977.3 671.401 974.617 673.316C971.935 675.23 972.547 672.776 971.879 675.206C971.433 677.803 970.376 680.29 968.776 682.508C966.814 684.949 966.054 686.217 964.159 686.888C960.226 688.4 956.129 689.557 951.932 690.339C944.544 692.082 937.025 693.362 929.433 694.169C924.675 694.937 894.108 749.2 865.25 781.625C836.391 814.05 744.99 888.621 730.533 889.133C716.077 889.645 630.051 766.86 611.579 736.684" stroke="#263238" stroke-width="2.36067" stroke-linecap="round" stroke-linejoin="round"/>
<path d="M746.78 791.297C746.78 791.297 733.591 791.895 722.681 823.026" stroke="#263238" stroke-width="2.36067" stroke-linecap="round" stroke-linejoin="round"/>
<path d="M951.93 690.29C956.127 689.508 960.224 688.352 964.157 686.839C966.189 686.167 966.895 684.948 968.774 682.459C970.374 680.241 971.431 677.754 971.877 675.158C972.462 672.728 974.245 671.888 976.9 669.974C979.555 668.06 977.422 660.464 977.422 660.464C977.422 660.464 980.831 659.732 986.792 654.686C992.752 649.639 993.889 644.174 988.862 639.513C983.836 634.851 949.887 626.995 940.413 630.228C930.938 633.462 916.843 665.76 892.18 695.87L915.517 712.401C922.695 701.671 927.81 694.401 929.515 694.119C937.079 693.31 944.569 692.03 951.93 690.29Z" fill="white"/>
<mask id="mask7_5_905" style="mask-type:luminance" maskUnits="userSpaceOnUse" x="892" y="629" width="101" height="84">
<path d="M951.93 690.29C956.127 689.508 960.224 688.352 964.157 686.839C966.189 686.167 966.895 684.948 968.774 682.459C970.374 680.241 971.431 677.754 971.877 675.158C972.462 672.728 974.245 671.888 976.9 669.974C979.555 668.06 977.422 660.464 977.422 660.464C977.422 660.464 980.831 659.732 986.792 654.686C992.752 649.639 993.889 644.174 988.862 639.513C983.836 634.851 949.887 626.995 940.413 630.228C930.938 633.462 916.843 665.76 892.18 695.87L915.517 712.401C922.695 701.671 927.81 694.401 929.515 694.119C937.079 693.31 944.569 692.03 951.93 690.29Z" fill="white"/>
</mask>
<g mask="url(#mask7_5_905)">
<path opacity="0.2" d="M968.775 682.459C970.376 680.241 971.433 677.754 971.879 675.158C972.463 672.728 971.879 675.158 974.617 673.267C977.355 671.377 977.507 660.464 977.507 660.464C977.507 660.464 980.916 659.731 986.876 654.685C992.837 649.639 993.973 644.173 988.947 639.512C983.92 634.851 949.971 626.994 940.496 630.228C938.025 631.097 935.022 634.154 931.757 638.741C936.861 645.972 942.877 650.358 937.479 663.11C929.387 682.578 910.319 706.99 893.974 727.741C877.629 748.492 740.914 863.632 724.367 861.348C710.854 859.476 671.295 818.156 657.226 803.17C687.452 845.079 721.996 889.327 730.67 889.035C745.072 888.523 836.583 813.975 865.386 781.527C894.189 749.078 924.674 694.791 929.433 694.12C937.025 693.314 944.543 692.034 951.931 690.29C956.129 689.508 960.226 688.352 964.158 686.839C966.191 686.167 966.814 684.949 968.775 682.459Z" fill="black"/>
</g>
<path d="M951.93 690.29C956.127 689.508 960.224 688.352 964.157 686.839C966.189 686.167 966.895 684.948 968.774 682.459C970.374 680.241 971.431 677.754 971.877 675.158C972.462 672.728 974.245 671.888 976.9 669.974C979.555 668.06 977.422 660.464 977.422 660.464C977.422 660.464 980.831 659.732 986.792 654.686C992.752 649.639 993.889 644.174 988.862 639.513C983.836 634.851 949.887 626.995 940.413 630.228C930.938 633.462 916.843 665.76 892.18 695.87L915.517 712.401C922.695 701.671 927.81 694.401 929.515 694.119C937.079 693.31 944.569 692.03 951.93 690.29Z" stroke="#263238" stroke-width="2.36067" stroke-linecap="round" stroke-linejoin="round"/>
<path d="M920.965 576.612C913.39 576.677 907.278 586.428 907.381 598.164C907.484 609.899 913.711 619.545 921.341 619.48L1089.75 662.727L1088.57 528.667L920.965 576.612Z" fill="#FFC700" stroke="#263238" stroke-width="2.36067" stroke-linecap="round" stroke-linejoin="round"/>
<path d="M1015.33 557.956L949.929 575.127" stroke="#263238" stroke-width="2.36067" stroke-linecap="round" stroke-linejoin="round"/>
<path d="M1037.21 552.216L1023.53 555.825" stroke="#263238" stroke-width="2.36067" stroke-linecap="round" stroke-linejoin="round"/>
<path d="M942.423 570.463L920.964 576.612C913.39 576.677 907.278 586.428 907.381 598.164C907.484 609.899 913.711 619.545 921.341 619.48L940.803 624.478C936.165 616.021 933.891 606.707 934.173 597.311C934.455 587.915 937.283 578.71 942.423 570.463Z" fill="#263238" stroke="#263238" stroke-width="2.36067" stroke-linecap="round" stroke-linejoin="round"/>
<path d="M1104.41 686.51C1136.24 686.238 1161.68 645.71 1161.24 595.989C1160.81 546.268 1134.66 506.182 1102.83 506.455C1071.01 506.727 1045.57 547.255 1046.01 596.976C1046.44 646.697 1072.59 686.783 1104.41 686.51Z" fill="#D6D6D6" stroke="#263238" stroke-width="2.36067" stroke-linecap="round" stroke-linejoin="round"/>
<path d="M1103.45 576.503L1048.44 564.05L1043.95 598.521L1050.43 633.481L1103.8 616.462L1105.52 577.456" fill="#D6D6D6"/>
<path d="M1103.45 576.503L1048.44 564.05L1043.95 598.521L1050.43 633.481L1103.8 616.462L1105.52 577.456" stroke="#263238" stroke-width="2.36067" stroke-linecap="round" stroke-linejoin="round"/>
<path d="M1102.76 498.356C1068.09 498.653 1040.35 542.829 1040.83 597.021C1041.3 651.212 1069.81 694.906 1104.48 694.609C1139.16 694.312 1166.9 650.136 1166.42 595.945C1165.94 541.753 1137.44 498.059 1102.76 498.356ZM1105.9 680.678C1077.01 680.925 1053.24 643.423 1052.84 596.918C1052.43 550.413 1075.54 512.533 1104.43 512.285C1133.32 512.037 1157.09 549.516 1157.5 596.021C1157.9 642.526 1134.82 680.43 1105.9 680.678Z" fill="#263238" stroke="#263238" stroke-width="2.36067" stroke-linecap="round" stroke-linejoin="round"/>
<path d="M1103.8 616.462C1110.86 616.401 1116.5 607.407 1116.4 596.373C1116.31 585.339 1110.51 576.443 1103.45 576.503C1096.39 576.564 1090.75 585.558 1090.85 596.592C1090.94 607.626 1096.74 616.522 1103.8 616.462Z" fill="#FFC700" stroke="#263238" stroke-width="2.36067" stroke-linecap="round" stroke-linejoin="round"/>
<path d="M1264.68 493.308L1277.41 489.707" stroke="#263238" stroke-width="2.36067" stroke-linecap="round" stroke-linejoin="round"/>
<path d="M1173.6 518.967L1248.99 497.71" stroke="#263238" stroke-width="2.36067" stroke-linecap="round" stroke-linejoin="round"/>
<path d="M1184.14 590.846L1253.52 592.434" stroke="#263238" stroke-width="2.36067" stroke-linecap="round" stroke-linejoin="round"/>
<path d="M1242.39 680.042L1256.8 683.992" stroke="#263238" stroke-width="2.36067" stroke-linecap="round" stroke-linejoin="round"/>
<path d="M1179.82 662.853L1230.95 676.915" stroke="#263238" stroke-width="2.36067" stroke-linecap="round" stroke-linejoin="round"/>
<path d="M1181.32 551.612L1218.44 546.929" stroke="#263238" stroke-width="2.36067" stroke-linecap="round" stroke-linejoin="round"/>
<path d="M1165.16 686.96L1192.59 706.366" stroke="#263238" stroke-width="2.36067" stroke-linecap="round" stroke-linejoin="round"/>
</g>
<path d="M1390.45 1189.51L1537.36 1192.05C1544.11 1192.16 1549.67 1188.13 1549.76 1183.05L1551.08 1109.37C1551.17 1104.29 1545.75 1100.07 1539 1099.95L1428.7 1098.05L1392.38 1079.04L1392.09 1097.42C1385.34 1097.3 1379.77 1101.34 1379.68 1106.42L1378.37 1180.09C1378.28 1185.17 1383.7 1189.4 1390.45 1189.51Z" fill="#FFC700" fill-opacity="0.4"/>
<path opacity="0.2" d="M1382.49 1142.96C1382.16 1161.01 1397.6 1177.58 1422.73 1189.72L1538 1191.71C1548.78 1191.89 1557.62 1187.91 1557.71 1182.83L1559.02 1109.16C1559.11 1104.08 1550.42 1099.8 1539.64 1099.61L1424.37 1097.63C1398.82 1108.89 1382.81 1124.92 1382.49 1142.96Z" fill="#FFC700" fill-opacity="0.4"/>
<path d="M1525.94 1145.79C1525.98 1143.35 1524.73 1140.98 1522.47 1139.21C1520.2 1137.45 1517.1 1136.42 1513.86 1136.37C1510.61 1136.31 1507.48 1137.23 1505.15 1138.92C1502.83 1140.6 1501.49 1142.92 1501.45 1145.37C1501.41 1147.81 1502.66 1150.17 1504.92 1151.94C1507.19 1153.71 1510.28 1154.73 1513.53 1154.79C1516.78 1154.84 1519.91 1153.93 1522.23 1152.24C1524.56 1150.55 1525.89 1148.23 1525.94 1145.79Z" fill="#333333"/>
<path d="M1476.97 1144.94C1477.01 1142.5 1475.76 1140.14 1473.5 1138.37C1471.23 1136.6 1468.13 1135.58 1464.89 1135.52C1461.64 1135.47 1458.51 1136.38 1456.18 1138.07C1453.86 1139.76 1452.52 1142.08 1452.48 1144.52C1452.44 1146.96 1453.69 1149.33 1455.95 1151.09C1458.22 1152.86 1461.31 1153.89 1464.56 1153.94C1467.81 1154 1470.94 1153.08 1473.26 1151.39C1475.59 1149.71 1476.92 1147.39 1476.97 1144.94Z" fill="#333333"/>
<path d="M1428 1144.1C1428.04 1141.66 1426.79 1139.29 1424.53 1137.52C1422.26 1135.76 1419.17 1134.73 1415.92 1134.68C1412.67 1134.62 1409.54 1135.54 1407.21 1137.23C1404.89 1138.91 1403.56 1141.23 1403.51 1143.68C1403.47 1146.12 1404.72 1148.48 1406.98 1150.25C1409.25 1152.02 1412.34 1153.04 1415.59 1153.1C1418.84 1153.15 1421.97 1152.24 1424.3 1150.55C1426.62 1148.86 1427.95 1146.54 1428 1144.1Z" fill="#333333"/>
<path d="M1752.46 1206.14L1726.82 1176.06C1738.83 1157.18 1741.75 1134.25 1734.77 1112.8C1734.12 1110.78 1731.85 1109.69 1729.74 1110.31C1727.63 1110.93 1726.41 1113.11 1727.14 1115.13C1733.71 1135.18 1730.63 1156.63 1718.62 1174.12L1718.38 1174.43C1717.56 1175.83 1717.64 1177.54 1718.7 1178.78L1746.21 1210.96C1746.21 1210.96 1746.62 1211.42 1746.7 1211.42C1748.97 1213.91 1748.97 1217.41 1746.78 1219.97C1746.7 1220.05 1746.7 1220.13 1746.62 1220.13L1746.05 1220.67C1743.45 1222.77 1739.64 1222.77 1736.96 1220.52C1736.8 1220.36 1736.72 1220.28 1736.56 1220.13L1702.95 1193.86C1701.57 1192.77 1699.63 1192.69 1698.17 1193.63L1697.84 1193.86C1669.52 1211.58 1631.61 1208.01 1607.43 1185.31C1607.27 1185.08 1607.18 1184.84 1607.02 1184.69C1578.78 1157.8 1578.78 1113.89 1606.94 1086.92C1635.1 1059.95 1680.96 1059.95 1709.12 1086.92C1709.28 1087.07 1709.53 1087.23 1709.77 1087.31C1709.85 1087.38 1710.02 1087.54 1710.1 1087.62C1711.48 1089.25 1714.07 1089.48 1715.78 1088.08C1717.48 1086.76 1717.73 1084.27 1716.26 1082.64C1715.94 1082.25 1715.45 1081.79 1714.97 1081.32C1683.72 1051.48 1632.83 1051.24 1601.34 1081.09C1601.26 1081.17 1601.1 1081.24 1601.02 1081.4C1588.03 1093.83 1579.91 1110.39 1578.05 1127.88C1577.24 1135.49 1577.64 1143.11 1579.1 1150.49C1582.19 1165.65 1589.82 1179.4 1601.26 1190.36C1627.47 1215.39 1668.62 1219.97 1700.11 1201.63L1731.28 1226.04C1731.44 1226.19 1731.69 1226.42 1731.85 1226.58C1734.69 1228.91 1738.1 1230 1741.51 1230C1745 1230 1748.49 1228.83 1751.33 1226.5L1752.71 1225.26C1752.95 1225.03 1753.11 1224.79 1753.27 1224.48C1757.58 1219.12 1757.41 1211.66 1752.79 1206.45C1752.71 1206.37 1752.54 1206.22 1752.46 1206.14Z" fill="black" fill-opacity="0.3"/>
<path d="M1776.16 1061.19C1775.35 1060.1 1773.97 1059.48 1772.51 1059.64L1746.46 1062.28C1745 1062.43 1743.78 1063.29 1743.21 1064.53C1742.64 1065.78 1742.8 1067.25 1743.62 1068.34L1749.38 1075.88L1657.83 1139.07C1656.85 1139.69 1656.29 1140.78 1656.21 1141.86L1653.77 1171.79L1614.16 1134.71C1613.35 1133.94 1612.22 1133.55 1611.08 1133.63L1599.47 1134.4C1597.28 1134.56 1595.58 1136.35 1595.74 1138.52C1595.9 1140.62 1597.85 1142.25 1600.04 1142.1L1609.86 1141.48L1654.34 1183.06C1655.07 1183.76 1656.12 1184.14 1657.18 1184.14C1657.67 1184.14 1658.15 1184.07 1658.56 1183.91C1660.02 1183.37 1660.99 1182.12 1661.16 1180.65L1664.16 1144.35L1754.33 1082.25L1759.28 1088.78C1760.01 1089.79 1761.23 1090.34 1762.53 1090.34C1762.69 1090.34 1762.85 1090.34 1762.93 1090.34C1764.39 1090.18 1765.61 1089.33 1766.18 1088.08L1776.73 1065.15C1777.22 1063.76 1777.05 1062.36 1776.16 1061.19ZM1761.55 1078.76L1754.33 1069.27L1766.5 1068.03L1761.55 1078.76Z" fill="black" fill-opacity="0.3"/>
<path d="M193.245 112.817L23.3388 115.548C15.5293 115.673 9.26437 120.86 9.36827 127.115L10.8752 217.829C10.9791 224.084 17.4129 229.067 25.2225 228.941L152.785 226.89L195.549 248.835L195.129 226.21C202.939 226.084 209.203 220.897 209.1 214.643L207.593 123.928C207.489 117.674 201.055 112.691 193.245 112.817Z" fill="#FFC700" fill-opacity="0.4"/>
<path opacity="0.2" d="M204.359 169.773C203.991 147.555 185.471 127.774 155.921 113.842L22.6084 115.99C10.1424 116.19 0.0913913 121.439 0.195054 127.693L1.6986 218.408C1.80226 224.662 12.0218 229.584 24.4879 229.383L157.8 227.235C186.873 212.358 204.727 191.991 204.359 169.773Z" fill="#FFC700" fill-opacity="0.4"/>
<path d="M38.4395 172.017C38.4895 175.024 40.0291 177.884 42.7198 179.968C45.4104 182.052 49.0316 183.189 52.7868 183.129C56.5419 183.068 60.1235 181.816 62.7434 179.646C65.3634 177.477 66.8072 174.569 66.7573 171.562C66.7073 168.554 65.1677 165.694 62.477 163.61C59.7864 161.526 56.1652 160.39 52.41 160.45C48.6549 160.51 45.0733 161.763 42.4534 163.932C39.8334 166.101 38.3896 169.009 38.4395 172.017Z" fill="#333333"/>
<path d="M95.0751 171.106C95.125 174.114 96.6647 176.974 99.3553 179.058C102.046 181.142 105.667 182.278 109.422 182.218C113.177 182.158 116.759 180.905 119.379 178.736C121.999 176.567 123.443 173.659 123.393 170.651C123.343 167.644 121.803 164.784 119.113 162.7C116.422 160.616 112.801 159.479 109.046 159.539C105.29 159.6 101.709 160.852 99.0889 163.022C96.4689 165.191 95.0251 168.099 95.0751 171.106Z" fill="#333333"/>
<path d="M151.711 170.196C151.761 173.203 153.3 176.064 155.991 178.147C158.681 180.231 162.303 181.368 166.058 181.308C169.813 181.247 173.395 179.995 176.015 177.825C178.634 175.656 180.078 172.748 180.028 169.741C179.978 166.733 178.439 163.873 175.748 161.789C173.057 159.705 169.436 158.569 165.681 158.629C161.926 158.689 158.344 159.942 155.724 162.111C153.104 164.28 151.661 167.189 151.711 170.196Z" fill="#333333"/>
</svg>
