<svg width="764" height="666" viewBox="0 0 764 666" fill="none" xmlns="http://www.w3.org/2000/svg">
<path d="M16.0841 319.237C60.5181 330.92 134.454 349.535 153.36 355.073C135.129 423.468 120.655 519.721 105.244 558.608C89.6954 555.144 42.1876 543.379 14.1958 536.642" fill="#7ED7F7"/>
<path d="M16.0841 319.237C60.5181 330.92 134.454 349.535 153.36 355.073C135.129 423.468 120.655 519.721 105.244 558.608C89.6954 555.144 42.1876 543.379 14.1958 536.642" fill="#7ED7F7"/>
<path d="M316.744 362.296C313.261 363.674 309.813 364.953 306.398 366.105L306.238 366.122C298.095 367.054 286.58 369.539 278.24 371.247C267.055 373.524 256.924 378.491 248.604 380.277C242.43 381.39 236.156 381.969 229.863 382.004C219.715 381.985 195.71 378.449 184.024 376.481L182.184 376.172C177.389 407.518 155.716 501.598 144.006 535.597C148.388 535.912 154.962 536.44 164.073 537.389C169.755 538.091 175.346 539.312 180.763 541.033C181.423 541.234 182.074 541.45 182.718 541.682C182.718 541.682 241.432 566.526 259.884 578.029C280.181 590.681 368.286 640.027 368.286 640.027C379.2 645.398 390.498 650.09 402.103 654.071C411.299 656.905 421.194 657.249 430.599 655.064C439.266 652.648 443.532 646.827 443.938 640.871L443.731 637.816C451.656 640.881 469.57 643.737 481.926 634.263C487.53 629.968 490.851 620.205 488.383 614.019L487.862 612.032C499.269 617.832 519.553 618.106 531.437 605.021C538.136 597.65 536.401 583.228 526.265 574.77L527.439 575.497C544.569 580.591 560.345 573.389 565.572 565.376C570.554 557.746 572.725 545.127 562.506 535.182C572.185 529.442 584.267 523.781 594.438 518.057C602.581 513.344 611.03 509.089 619.738 505.314C607.738 466.691 588.993 385.838 584.156 355.712C576.875 357.284 568.717 358.783 559.295 360.15C546.591 362.256 434.56 341.246 402.281 338.077C371.396 336.289 343.086 351.877 316.744 362.296Z" fill="white"/>
<path d="M222.655 576.848C227.08 567.489 233.158 558.859 240.645 551.304C244.507 546.921 249.215 543.224 254.537 540.396C259.174 538.303 264.359 537.437 269.506 537.898C274.653 538.358 279.557 540.126 283.662 543.002C291.758 548.842 294.907 559.905 292.437 569.004C289.966 578.102 271.085 603.937 259.658 610.416C256.364 612.143 252.693 613.183 248.908 613.462C245.124 613.741 241.318 613.252 237.764 612.03C229.729 608.946 225.644 604.818 222.023 597.564C219.246 592.003 219.647 583.272 222.655 576.848Z" fill="white"/>
<path d="M275.929 602.267C279.385 592.91 284.499 584.136 291.068 576.296C294.412 571.784 298.634 567.872 303.523 564.753C307.817 562.394 312.747 561.181 317.757 561.25C322.766 561.32 327.654 562.669 331.868 565.146C340.185 570.192 344.198 580.642 342.606 589.6C341.014 598.559 325.043 624.883 314.583 631.97C311.553 633.877 308.101 635.149 304.471 635.694C300.842 636.239 297.125 636.045 293.588 635.124C285.561 632.733 281.258 629.039 277.129 622.307C273.959 617.141 273.59 608.692 275.929 602.267Z" fill="white"/>
<path d="M321.854 635.665C323.461 627.523 330.076 613.342 337.199 607.593C340.4 605.156 344.293 603.603 348.424 603.115C352.555 602.627 356.753 603.224 360.526 604.837C368.012 608.081 371.736 617.663 371.597 625.192C371.458 632.721 365.124 648.905 357.45 655.861C355.21 657.756 352.54 659.175 349.63 660.017C346.721 660.858 343.644 661.102 340.619 660.731C337.56 660.331 334.626 659.345 332.011 657.84C329.395 656.334 327.156 654.341 325.439 651.991C322.015 647.165 320.732 641.326 321.854 635.665Z" fill="white"/>
<path d="M171.739 567.493C169.181 561.435 171.288 550.852 175.511 546.081C182.321 538.379 197.358 540.245 205.473 544.904C211.453 548.338 219.38 556.041 221.151 559.818C226.515 570.086 221.205 579.093 217.234 581.904C212.574 585.205 201.157 586.292 195.336 585.448C190.07 584.509 185.147 582.371 181.023 579.233C176.899 576.095 173.706 572.058 171.739 567.493Z" fill="white"/>
<path d="M757.221 304.848C710.877 316.149 633.758 334.152 614.039 339.508C633.053 405.659 648.151 498.758 664.235 536.37C680.454 533.02 730.004 521.643 759.201 515.125" fill="#E050B0"/>
<path d="M596.524 342.885C602.947 341.021 610.208 339.034 615.142 337.734L615.785 337.561C631.601 396.397 644.847 472.08 658.267 516.761C657.673 516.917 657.362 517.002 657.362 517.002C648.982 519.317 636.035 521.098 626.324 523.432C615.455 501.843 584.684 369.537 583.046 347.25C587.445 345.563 591.945 344.106 596.524 342.885Z" fill="white"/>
<path d="M108.732 536.9C122.017 492.061 135.12 417.433 150.752 359.254C151.168 359.325 151.415 359.355 151.415 359.355C161.192 361.929 179.515 367.245 183.071 369.019C181.435 391.306 151.103 523.463 140.232 545.053C130.522 542.719 117.575 540.939 109.195 538.623L108.292 538.378C108.44 537.89 108.587 537.397 108.732 536.9Z" fill="white"/>
<path d="M389.482 415.55C381.499 414.083 372.558 415.74 364.714 417.123C359.874 417.961 355.095 419.068 350.403 420.439C345.872 421.783 340.232 423.286 336.738 426.387C334.888 428.281 333.395 430.444 332.323 432.787C330.992 435.176 329.689 437.575 328.379 439.973C326.027 444.275 323.661 448.578 321.047 452.753C316.153 461.015 309.506 468.301 301.495 474.186C297.894 476.957 293.478 478.694 288.802 479.178C284.454 479.934 279.967 479.67 275.762 478.409C271.61 476.847 267.22 473.294 266.663 468.988C266.557 466.42 266.669 463.848 266.998 461.296C267.136 458.181 267.247 455.064 267.332 451.946C267.595 442.138 267.581 432.314 268.44 422.529C268.894 417.371 269.599 412.247 270.553 407.156C271.571 401.716 272.569 395.912 275.382 390.966C280.571 381.845 291.189 375.508 301.639 372.399C312.341 369.033 322.809 365.072 332.983 360.539C354.094 351.537 376.268 341.766 400.148 342.537C401.696 342.586 403.216 342.727 404.752 342.892C405.314 342.955 405.875 343.018 406.435 343.082L407.315 343.186C407.693 343.232 407.554 343.215 406.9 343.133L407.641 343.226C410.525 343.592 413.405 343.978 416.281 344.386C423.546 345.41 430.778 346.523 438.012 347.656C454.998 350.313 471.958 353.108 488.934 355.817C504.485 358.301 520.046 360.795 535.676 362.824C541.148 363.536 546.635 364.236 552.144 364.638C557.281 364.875 562.429 364.486 567.455 363.484C573.498 362.506 579.509 361.382 585.487 360.112C591.729 358.783 589.087 350 582.839 351.326C576.546 352.662 570.219 353.838 563.857 354.853C562.064 355.139 560.264 355.39 558.473 355.676C556.625 355.97 559.461 355.724 558.506 355.676C557.883 355.646 557.213 355.735 556.576 355.731C552.121 355.617 547.678 355.255 543.272 354.65L541.267 354.412C539.93 354.251 541.981 354.501 541.136 354.395L540.073 354.262C538.351 354.043 536.633 353.818 534.917 353.585C531.36 353.104 527.808 352.603 524.26 352.082C515.969 350.869 507.691 349.582 499.416 348.274C467.935 343.3 436.487 337.297 404.76 333.772C381.511 331.191 358.43 339.861 337.759 348.506C327.16 352.938 316.715 357.758 305.792 361.478C300.219 363.112 294.749 365.028 289.408 367.218C283.958 369.727 278.975 373.005 274.641 376.931C269.987 381.103 266.437 386.192 264.262 391.809C262.319 397.429 260.962 403.205 260.208 409.059C258.642 419.322 257.788 429.665 257.65 440.026C257.534 445.177 257.453 450.328 257.283 455.477C257.18 458.596 257.042 461.712 256.868 464.826C256.238 469.061 257.11 473.369 259.357 477.118C261.604 480.866 265.106 483.856 269.35 485.65C274.22 487.895 279.664 488.895 285.105 488.546C290.607 488.52 296.043 487.447 301.066 485.394C306.086 482.841 310.648 479.599 314.592 475.781C321.981 468.773 328.138 460.759 332.842 452.026C335.497 447.407 337.986 442.707 340.568 438.052C341.548 436.285 342.409 433.726 344.228 432.565C346.009 431.558 347.927 430.767 349.932 430.213C358.998 427.197 368.452 425.264 378.059 424.463C379.911 424.307 381.773 424.193 383.633 424.186C384.353 424.186 385.075 424.186 385.796 424.231C386.169 424.252 386.541 424.282 386.912 424.317C385.503 424.187 386.528 424.277 386.846 424.336C388.119 424.626 389.465 424.458 390.606 423.866C391.746 423.273 392.594 422.303 392.974 421.155C393.312 419.99 393.137 418.75 392.487 417.702C391.836 416.654 390.762 415.882 389.495 415.55H389.482Z" fill="#343434"/>
<path d="M386.827 424.329C387.263 424.475 388.612 425.077 386.943 424.342C387.338 424.517 387.749 424.669 388.145 424.839C389.131 425.266 390.096 425.733 391.051 426.217C393.362 427.392 395.603 428.685 397.82 429.992C404.727 434.09 411.433 438.47 418.163 442.815C440.789 457.446 463.613 471.853 486.119 486.64C498.764 494.951 511.274 503.434 523.647 512.087C529.776 516.389 535.852 520.758 541.874 525.196C544.919 527.439 547.95 529.7 550.969 531.979C554.137 534.152 557.094 536.57 559.809 539.206C562.791 542.621 564.511 546.813 564.722 551.179C564.932 555.544 563.622 559.858 560.98 563.5C558.135 566.996 554.175 569.6 549.644 570.953C546.778 571.897 543.777 572.453 540.735 572.604C536.994 572.959 533.214 572.534 529.679 571.361C527.703 570.323 525.813 569.154 524.023 567.865C521.512 566.293 519.006 564.719 516.504 563.141C510.841 559.572 505.186 555.99 499.539 552.395C489.51 546.018 479.505 539.612 469.525 533.179C468.381 532.579 467.026 532.414 465.751 532.72C464.477 533.026 463.384 533.777 462.71 534.813C462.07 535.862 461.899 537.096 462.232 538.258C462.565 539.419 463.377 540.418 464.497 541.045C483.515 553.344 502.642 565.506 521.876 577.531C524.499 579.244 527.498 580.415 530.665 580.962C534.526 581.685 538.48 581.902 542.408 581.608C549.362 581.128 556.052 578.966 561.792 575.345C566.426 572.208 570.045 567.982 572.264 563.117C574.483 558.251 575.22 552.927 574.396 547.709C573.442 541.525 570.308 535.795 565.47 531.387C559.497 526.289 553.208 521.509 546.636 517.069C533.545 507.491 520.232 498.169 506.698 489.105C481.957 472.445 456.594 456.576 431.525 440.328C423.469 435.107 415.442 429.839 407.259 424.782C402.736 421.807 397.963 419.163 392.986 416.874C391.842 416.386 390.677 415.925 389.492 415.532C388.219 415.222 386.863 415.381 385.716 415.976C384.57 416.571 383.726 417.554 383.364 418.713C383.041 419.877 383.223 421.11 383.871 422.155C384.52 423.199 385.585 423.974 386.843 424.318L386.827 424.329Z" fill="#343434"/>
<path d="M365.772 643.952C375.851 649.039 386.307 653.473 397.065 657.222C409.413 661.587 425.877 663.485 437.852 657.119C441.015 655.449 443.679 653.092 445.61 650.256C447.54 647.421 448.677 644.194 448.92 640.862C448.91 639.657 448.382 638.504 447.449 637.651C446.517 636.799 445.256 636.316 443.938 636.307C442.625 636.33 441.372 636.817 440.444 637.667C439.515 638.516 438.982 639.661 438.956 640.862C438.487 646.148 433.459 649.74 427.72 651.056C419.906 652.612 411.778 652.21 404.193 649.894C398.425 648.115 392.786 646.003 387.31 643.57C381.733 641.23 376.161 638.825 370.802 636.085C365.197 633.223 360.167 641.088 365.772 643.952Z" fill="#343434"/>
<path d="M182.699 380.871C197.321 383.617 212.122 385.49 227.009 386.478C234.703 386.837 242.415 386.227 249.928 384.667C259.149 382.697 267.637 378.491 276.791 376.257C286.464 373.814 296.3 371.95 306.238 370.677C307.547 370.64 308.79 370.148 309.716 369.302C310.642 368.456 311.18 367.319 311.22 366.122C311.213 364.916 310.685 363.762 309.753 362.909C308.82 362.056 307.557 361.574 306.238 361.567C297.225 362.634 288.368 364.494 279.508 366.312C270.09 368.252 261.434 371.695 252.332 374.517C238.632 378.766 223.997 377.506 209.95 375.714C201.722 374.664 193.521 373.453 185.348 372.08C184.076 371.792 182.731 371.961 181.591 372.552C180.451 373.144 179.602 374.113 179.22 375.259C178.881 376.424 179.055 377.664 179.706 378.712C180.356 379.76 181.431 380.533 182.699 380.864V380.871Z" fill="#343434"/>
<path d="M568.233 537.246C577.016 532.311 586.145 527.929 594.976 523.072C603.788 518.01 612.892 513.385 622.248 509.217C623.38 508.601 624.203 507.601 624.537 506.435C624.871 505.269 624.691 504.03 624.035 502.984C623.347 501.962 622.255 501.221 620.985 500.917C619.715 500.613 618.366 500.768 617.218 501.35C607.863 505.518 598.76 510.143 589.948 515.205C581.118 520.062 571.988 524.448 563.204 529.379C557.748 532.44 562.747 540.324 568.233 537.246Z" fill="#343434"/>
<path d="M428.046 582.513C445.323 593.073 462.919 603.225 480.564 613.276C484.645 615.809 489.125 617.76 493.849 619.061C499.022 620.314 504.405 620.673 509.722 620.12C521.268 618.888 533.93 613.069 538.551 602.744C543.564 591.547 538.213 577.652 528.186 570.29C527.234 569.469 525.973 569.011 524.664 569.011C523.354 569.011 522.094 569.469 521.141 570.29C520.215 571.148 519.696 572.305 519.696 573.511C519.696 574.716 520.215 575.873 521.141 576.732C528.323 582 532.382 590.994 529.557 598.842C528.311 602.27 524.612 605.377 520.649 607.522C516.715 609.633 512.299 610.884 507.748 611.177C503.171 611.519 498.565 610.996 494.218 609.641C490.642 608.28 487.238 606.567 484.067 604.532C475.137 599.427 466.243 594.27 457.383 589.062C449.25 584.299 441.105 579.548 433.075 574.638C427.73 571.37 422.736 579.258 428.046 582.503V582.513Z" fill="#343434"/>
<path d="M395.757 615.413C410.012 624.007 424.196 632.934 438.984 640.746C445.036 643.62 451.739 645.161 458.559 645.248C467.568 645.803 476.507 643.464 483.831 638.634C491.875 633.027 496.458 621.775 493.172 612.799C491.151 607.265 481.523 609.637 483.564 615.221C484.416 618.132 484.334 621.207 483.325 624.076C482.317 626.946 480.426 629.489 477.878 631.401C471.849 635.2 464.512 636.859 457.24 636.068C454.247 635.849 451.29 635.331 448.42 634.523C447.87 634.369 447.322 634.208 446.78 634.031C446.531 633.952 444.912 633.354 445.929 633.758C445.054 633.402 444.206 632.992 443.391 632.53C436.657 628.775 429.978 624.937 423.353 621.017C415.797 616.569 408.272 612.077 400.777 607.542C395.409 604.306 390.412 612.192 395.749 615.409L395.757 615.413Z" fill="#343434"/>
<path d="M144.006 540.143C156.669 541.062 169.414 541.876 181.394 546.067C182.668 546.378 184.025 546.219 185.172 545.623C186.318 545.028 187.163 544.044 187.523 542.884C187.845 541.72 187.662 540.487 187.013 539.443C186.365 538.399 185.3 537.625 184.042 537.281C171.28 532.817 157.505 532.011 144.006 531.033C142.688 531.043 141.428 531.526 140.496 532.378C139.564 533.23 139.035 534.383 139.024 535.588C139.05 536.789 139.583 537.934 140.512 538.783C141.441 539.633 142.693 540.12 144.006 540.143Z" fill="#343434"/>
<path d="M82.1456 328.661C57.4872 322.626 32.8184 316.625 8.18695 310.494C7.44793 310.318 6.67476 310.298 5.92593 310.435C5.1771 310.572 4.47224 310.864 3.86467 311.287C3.25711 311.71 2.76276 312.254 2.41903 312.877C2.07531 313.501 1.89121 314.188 1.88067 314.886C1.90973 372.239 1.10225 429.593 0.487813 486.944C0.313446 503.255 0.150841 519.566 0 535.878C0.0123608 536.872 0.374824 537.837 1.03365 538.628C1.69247 539.419 2.61258 539.995 3.65756 540.27C30.7696 546.461 57.7279 553.191 84.7963 559.534C89.8364 560.716 94.8806 561.897 99.9497 562.971C101.222 563.256 102.566 563.085 103.705 562.494C104.844 561.902 105.693 560.935 106.077 559.79C115.167 537.936 120.106 514.504 125.345 491.693C132.239 461.66 138.456 431.502 145.41 401.481C149.223 385.014 153.233 368.58 157.808 352.273C158.134 351.109 157.953 349.874 157.304 348.829C156.654 347.784 155.588 347.01 154.327 346.669C130.472 340.062 106.221 334.552 82.1456 328.661C75.9452 327.143 73.3006 335.928 79.4968 337.447C103.576 343.33 127.823 348.847 151.679 355.454L148.2 349.851C139.896 379.459 133.329 409.471 126.769 439.433C120.616 467.562 114.767 495.777 107.319 523.646C104.466 535.08 100.846 546.342 96.4789 557.368L102.607 554.186C77.7366 548.913 53.1301 542.515 28.4218 536.651C21.061 534.905 13.692 533.183 6.31458 531.485L9.96383 535.878C10.4869 477.132 11.3214 418.397 11.695 359.643C11.7905 344.725 11.8404 329.806 11.8445 314.886L5.53823 319.27C30.1696 325.41 54.8384 331.417 79.5031 337.447C85.6993 338.963 88.3439 330.178 82.1456 328.661Z" fill="#343434"/>
<path d="M150.09 363.749C156.065 365.328 162.006 367.006 167.915 368.781C170.674 369.606 173.429 370.447 176.158 371.347C177.242 371.703 178.315 372.075 179.386 372.455C180.657 372.905 178.519 372.075 179.577 372.522C179.907 372.664 180.235 372.799 180.557 372.954L178.089 369.022C177.987 370.379 177.825 371.73 177.647 373.081C177.593 373.476 177.537 373.871 177.483 374.266C177.31 375.532 177.64 373.265 177.437 374.579C177.277 375.608 177.117 376.634 176.949 377.661C176.16 382.467 175.266 387.257 174.338 392.042C171.797 405.137 168.98 418.17 166.06 431.19C159.699 459.539 152.959 487.868 144.922 515.864C143.307 521.495 141.63 527.117 139.763 532.685C139.058 534.788 138.327 536.885 137.528 538.96C137.191 539.835 136.845 540.708 136.475 541.571C136.313 541.951 136.137 542.319 135.979 542.695C136.394 541.693 136.27 542.08 135.931 542.758L141.557 540.67C131.288 538.237 120.697 536.995 110.52 534.24C104.359 532.571 101.726 541.361 107.871 543.025C118.042 545.781 128.629 547.011 138.908 549.453C139.967 549.711 141.088 549.647 142.103 549.27C143.118 548.893 143.971 548.225 144.534 547.366C148.161 539.399 151.069 531.175 153.227 522.774C157.084 509.724 160.521 496.57 163.841 483.396C170.961 455.117 177.551 426.711 183.22 398.164C185.414 388.542 187.028 378.817 188.053 369.033C188.064 368.236 187.841 367.45 187.407 366.758C186.973 366.066 186.345 365.493 185.587 365.099C180.957 363.112 176.157 361.477 171.235 360.21C165.103 358.366 158.938 356.622 152.739 354.977C146.568 353.347 143.932 362.134 150.09 363.761V363.749Z" fill="#343434"/>
<path d="M685.513 323.227C709.858 317.387 734.213 311.579 758.532 305.645L752.306 301.4C752.277 356.801 753.072 412.203 753.679 467.6C753.851 483.487 754.012 499.374 754.163 515.26L757.774 511.01C731.006 517.001 704.39 523.514 677.665 529.652C672.689 530.794 667.709 531.937 662.704 532.978L668.756 536.056C659.782 514.909 654.904 492.232 649.733 470.157C642.925 441.093 636.787 411.909 629.924 382.858C626.159 366.921 622.197 351.018 617.682 335.237L614.247 340.659C637.8 334.266 661.743 328.934 685.513 323.233C691.622 321.763 689.029 313.26 682.897 314.731C659.124 320.434 635.185 325.764 611.632 332.159C610.388 332.488 609.335 333.237 608.694 334.249C608.053 335.26 607.875 336.454 608.197 337.581C616.395 366.233 622.88 395.276 629.354 424.271C635.43 451.485 641.204 478.795 648.567 505.759C651.383 516.823 654.957 527.722 659.269 538.392C659.647 539.502 660.485 540.439 661.61 541.012C662.736 541.584 664.063 541.749 665.319 541.471C689.876 536.368 714.168 530.177 738.562 524.502C745.832 522.81 753.108 521.143 760.389 519.502C761.421 519.236 762.33 518.679 762.98 517.914C763.631 517.148 763.988 516.215 764 515.252C763.483 458.273 762.655 401.295 762.287 344.314C762.195 330.009 762.147 315.702 762.143 301.393C762.133 300.717 761.951 300.053 761.612 299.449C761.272 298.846 760.784 298.32 760.184 297.91C759.584 297.501 758.888 297.219 758.149 297.087C757.41 296.954 756.646 296.974 755.917 297.145C731.598 303.079 707.243 308.885 682.897 314.725C676.788 316.191 679.381 324.698 685.513 323.227Z" fill="#343434"/>
<path d="M613.813 333.341C607.532 334.998 601.275 336.73 595.044 338.535C590.069 339.759 585.214 341.358 580.528 343.316C579.769 343.709 579.139 344.282 578.705 344.974C578.271 345.665 578.048 346.451 578.06 347.249C578.923 355.633 580.28 363.97 582.124 372.221C584.706 385.412 587.575 398.557 590.552 411.677C597.043 440.294 603.92 468.89 612.119 497.143C614.899 506.721 617.502 516.672 622.023 525.721C622.582 526.584 623.435 527.255 624.451 527.632C625.467 528.009 626.59 528.071 627.648 527.809C637.917 525.376 648.51 524.137 658.686 521.381C664.82 519.718 662.214 510.923 656.037 512.595C645.865 515.353 635.279 516.592 624.999 519.026L630.625 521.113C630.527 520.834 630.397 520.565 630.237 520.31C631.129 521.345 630.502 520.912 630.251 520.31C629.925 519.551 629.606 518.792 629.301 518.014C628.587 516.209 627.933 514.385 627.299 512.556C625.674 507.856 624.213 503.11 622.799 498.355C618.971 485.463 615.534 472.473 612.227 459.465C605.053 431.277 598.402 402.951 592.667 374.487C591.519 368.794 590.411 363.075 589.431 357.347C589.231 356.178 589.038 355.008 588.852 353.836C588.775 353.348 588.702 352.859 588.625 352.371C588.488 351.494 588.756 353.364 588.569 351.969C588.362 350.388 588.154 348.809 588.027 347.224L585.559 351.156C585.847 350.992 586.155 350.86 586.477 350.763C585.186 351.014 586.238 350.858 586.597 350.739C587.635 350.395 588.656 350.04 589.692 349.71C592.563 348.795 595.459 347.943 598.357 347.104C604.368 345.363 610.405 343.696 616.466 342.101C622.614 340.479 619.995 331.686 613.817 333.316L613.813 333.341Z" fill="#343434"/>
<path d="M226.958 579.145C230.461 571.666 235.061 564.658 240.633 558.315C245.659 552.651 251.651 545.76 259.508 543.397C263.024 542.323 266.771 542.044 270.43 542.584C274.09 543.123 277.551 544.465 280.519 546.495C283.007 548.47 284.991 550.92 286.331 553.672C287.671 556.424 288.335 559.412 288.275 562.424C288.33 564.871 287.901 567.307 287.008 569.615C286.936 569.805 286.46 570.904 286.653 570.477C286.811 570.124 286.299 571.204 286.17 571.458C285.591 572.597 284.966 573.735 284.318 574.844C281.338 579.892 277.997 584.755 274.317 589.401C270.75 594.072 266.75 598.453 262.36 602.497C261.41 603.351 260.426 604.167 259.419 604.964C259.234 605.112 259.041 605.252 258.85 605.393C258.213 605.864 259.377 605.046 258.746 605.471C258.281 605.784 257.808 606.089 257.318 606.37C254.294 608.047 250.829 608.946 247.292 608.97C243.674 609.02 240.101 608.222 236.915 606.652C233.729 605.083 231.035 602.795 229.09 600.005C226.847 596.757 225.523 593.05 225.239 589.217C224.954 585.385 225.718 581.548 227.46 578.053C227.802 576.889 227.629 575.648 226.977 574.599C226.325 573.551 225.248 572.78 223.979 572.452C222.706 572.161 221.359 572.329 220.218 572.921C219.077 573.513 218.23 574.485 217.851 575.633C215.968 579.737 215.057 584.159 215.178 588.608C215.299 593.057 216.45 597.432 218.555 601.445C222.345 608.535 229.009 613.994 237.131 616.663C241.475 618.035 246.108 618.471 250.667 617.937C255.226 617.402 259.588 615.911 263.413 613.58C268.905 609.748 273.773 605.221 277.871 600.136C282.67 594.606 287.04 588.776 290.948 582.688C294.352 577.927 296.707 572.603 297.879 567.017C298.528 562.893 298.271 558.691 297.122 554.659C295.973 550.627 293.956 546.845 291.189 543.534C288.17 540.21 284.367 537.556 280.065 535.769C275.763 533.983 271.074 533.112 266.35 533.221C254.387 533.37 245.403 539.685 237.704 547.482C229.69 555.481 223.154 564.62 218.354 574.54C217.729 575.592 217.566 576.822 217.898 577.98C218.23 579.138 219.032 580.137 220.141 580.773C221.283 581.375 222.639 581.542 223.914 581.237C225.19 580.932 226.283 580.181 226.958 579.145Z" fill="#343434"/>
<path d="M280.735 603.478C283.509 596.085 287.368 589.07 292.206 582.626C296.484 576.877 301.624 570.073 308.893 567.3C312.008 565.991 315.431 565.417 318.851 565.631C322.27 565.845 325.576 566.841 328.466 568.527C331.355 570.212 333.736 572.534 335.389 575.279C337.043 578.024 337.916 581.105 337.93 584.239C338.096 586.446 337.842 588.663 337.178 590.79C336.561 592.643 335.821 594.459 334.961 596.228C332.412 601.43 329.493 606.474 326.224 611.328C323.239 616.008 319.792 620.428 315.926 624.534C315.179 625.293 314.409 626.042 313.601 626.752C313.207 627.1 312.802 627.434 312.393 627.766C312.186 627.942 311.947 628.115 311.719 628.282C312.325 627.838 311.812 628.225 311.48 628.417C307.179 631.014 301.954 632.004 296.879 631.184C291.804 630.363 287.266 627.795 284.2 624.008C281.819 621.111 280.257 617.721 279.653 614.14C279.048 610.559 279.42 606.896 280.735 603.478C282.676 597.877 273.055 595.48 271.126 601.056C269.636 605.117 269.087 609.418 269.513 613.683C269.939 617.949 271.332 622.087 273.603 625.834C277.768 632.487 284.573 637.42 292.607 639.613C297.01 640.73 301.638 640.891 306.121 640.083C310.605 639.276 314.82 637.523 318.432 634.963C323.423 630.964 327.725 626.299 331.192 621.125C335.278 615.588 338.921 609.787 342.092 603.768C345.091 598.758 347.048 593.282 347.862 587.619C348.173 583.564 347.596 579.492 346.165 575.643C344.734 571.794 342.478 568.245 339.528 565.203C336.289 562.114 332.311 559.754 327.906 558.308C323.501 556.862 318.789 556.369 314.141 556.869C308.642 557.35 303.385 559.168 298.915 562.136C294.475 565.363 290.556 569.148 287.276 573.379C280.282 581.741 274.825 591.089 271.12 601.056C269.063 606.615 278.684 609.011 280.735 603.478Z" fill="#343434"/>
<path d="M326.658 636.876C327.622 632.424 329.172 628.095 331.274 623.983C333.217 619.672 335.905 615.674 339.235 612.142C345.67 605.898 358.262 605.605 363.314 613.425C368.367 621.244 366.658 629.115 363.572 637.022C360.458 644.98 355.578 655.052 345.255 656.295C342.691 656.533 340.102 656.217 337.696 655.372C335.29 654.527 333.135 653.177 331.405 651.431C329.438 649.504 327.986 647.188 327.16 644.663C326.335 642.138 326.159 639.473 326.647 636.876C326.958 635.712 326.772 634.484 326.125 633.442C325.478 632.4 324.421 631.624 323.168 631.271C321.894 630.96 320.537 631.119 319.39 631.714C318.243 632.31 317.399 633.294 317.039 634.454C315.868 641.083 316.665 648.711 321.126 654.289C324.975 659.465 330.748 663.187 337.373 664.764C341.047 665.579 344.873 665.641 348.577 664.946C352.281 664.252 355.771 662.817 358.797 660.746C363.646 656.956 367.441 652.167 369.87 646.773C375.202 636.378 379.039 624.587 374.268 613.395C373.186 610.423 371.426 607.696 369.105 605.393C366.784 603.09 363.955 601.263 360.805 600.033C357.356 598.843 353.679 598.304 349.996 598.449C346.313 598.593 342.699 599.417 339.374 600.872C332.605 603.77 328.101 609.762 324.692 615.621C321.13 621.515 318.55 627.863 317.039 634.454C316.723 635.618 316.908 636.848 317.556 637.891C318.204 638.933 319.265 639.708 320.52 640.057C321.795 640.37 323.153 640.212 324.302 639.617C325.451 639.021 326.297 638.037 326.658 636.876Z" fill="#343434"/>
<path d="M176.543 566.282C175.248 562.413 175.28 558.274 176.636 554.422C177.749 550.759 179.258 548.038 182.926 546.519C189.645 543.739 199.146 546.03 205.064 550.167C212.086 555.075 219.977 562.348 218.212 571.196C217.868 572.967 217.164 574.664 216.136 576.197C215.463 577.317 214.455 578.238 213.23 578.854C209.393 580.403 205.239 581.187 201.045 581.155C196.208 581.42 191.405 580.257 187.345 577.837C182.52 575.109 178.746 571.071 176.551 566.288C176.166 565.143 175.317 564.176 174.178 563.584C173.039 562.992 171.696 562.821 170.423 563.105C169.154 563.434 168.077 564.206 167.426 565.255C166.775 566.304 166.602 567.545 166.944 568.71C171.965 580.16 183.386 589.198 197.139 590.194C203.092 590.641 209.082 589.939 214.721 588.135C217.371 587.277 219.786 585.904 221.8 584.11C223.813 582.316 225.378 580.144 226.385 577.744C227.778 574.577 228.433 571.179 228.309 567.767C228.185 564.355 227.283 561.005 225.662 557.93C222.969 553.26 219.276 549.134 214.802 545.798C206.021 538.586 193.741 534.135 181.902 537.225C178.632 538.097 175.645 539.686 173.199 541.853C170.753 544.021 168.923 546.701 167.868 549.662C165.212 555.733 164.886 562.448 166.944 568.71C167.324 569.858 168.172 570.828 169.313 571.42C170.453 572.012 171.799 572.18 173.072 571.891C174.339 571.559 175.413 570.785 176.063 569.736C176.712 568.687 176.884 567.447 176.543 566.282Z" fill="#343434"/>
<path d="M469.516 533.177L469.365 533.072L470.374 533.784C469.208 532.943 468.162 531.972 467.26 530.894L468.038 531.816C466.434 529.86 465.108 527.726 464.094 525.464L464.597 526.551C464.123 525.517 463.707 524.461 463.351 523.387C462.987 522.251 462.173 521.28 461.068 520.664C460.212 520.206 459.227 519.992 458.238 520.05C457.249 520.107 456.301 520.432 455.515 520.985C454.73 521.537 454.142 522.291 453.828 523.151C453.513 524.01 453.487 524.936 453.751 525.809C454.588 528.327 455.705 530.76 457.084 533.07C458.015 534.596 459.086 536.047 460.285 537.407C461.508 538.783 462.924 540.006 464.497 541.044C465.071 541.349 465.707 541.547 466.366 541.626C467.025 541.704 467.694 541.662 468.335 541.501C468.966 541.342 469.556 541.071 470.073 540.703C470.589 540.336 471.021 539.879 471.344 539.359C471.667 538.838 471.875 538.265 471.956 537.671C472.036 537.078 471.988 536.475 471.814 535.898L471.312 534.811C470.88 534.135 470.264 533.572 469.525 533.177H469.516Z" fill="#343434"/>
<path d="M540 250.125C540 235.705 534.28 221.872 524.079 211.671C513.878 201.47 500.045 195.75 485.625 195.75C440.972 195.75 378.028 195.75 333.375 195.75C318.955 195.75 305.122 201.47 294.921 211.671C284.72 221.872 279 235.705 279 250.125C279 285.947 279 304.5 279 304.5H540C540 304.5 540 285.947 540 250.125ZM257.25 261H192C192 261 192 242.447 192 206.625C192 192.205 197.72 178.372 207.921 168.171C218.122 157.97 231.955 152.25 246.375 152.25H334.158C338.899 160.428 344.924 167.779 351.971 174H333.375C291.332 174 257.25 208.082 257.25 250.125V261ZM409.5 43.5C445.518 43.5 474.75 72.732 474.75 108.75C474.75 144.768 445.518 174 409.5 174C373.482 174 344.25 144.768 344.25 108.75C344.25 72.732 373.482 43.5 409.5 43.5ZM325.24 130.435C324.327 130.478 323.413 130.5 322.5 130.5C286.482 130.5 257.25 101.268 257.25 65.25C257.25 29.232 286.482 0 322.5 0C344.816 0 364.521 11.223 376.288 28.3185C344.728 41.3903 322.5 72.4927 322.5 108.75C322.5 116.232 323.457 123.518 325.24 130.435Z" fill="url(#paint0_linear_33_44)"/>
<defs>
<linearGradient id="paint0_linear_33_44" x1="366" y1="0" x2="366" y2="304.5" gradientUnits="userSpaceOnUse">
<stop stop-color="#E050B0"/>
<stop offset="0.5" stop-color="#BA8FDB"/>
<stop offset="1" stop-color="#7ED7F7"/>
</linearGradient>
</defs>
</svg>
