<svg width="119" height="119" viewBox="0 0 119 119" fill="none" xmlns="http://www.w3.org/2000/svg">
<path d="M59.5 117.575C91.5779 117.575 117.575 91.5734 117.575 59.5C117.575 27.4266 91.5779 1.425 59.5 1.425C27.4265 1.425 1.425 27.4265 1.425 59.5C1.425 91.5734 27.4265 117.575 59.5 117.575ZM59.5 7.17482C88.3512 7.17482 111.825 30.6488 111.825 59.5C111.825 88.3512 88.3512 111.825 59.5 111.825C30.6444 111.825 7.17482 88.3512 7.17482 59.5C7.17482 30.6488 30.6444 7.17482 59.5 7.17482Z" fill="#FFC700" stroke="#FFC700" stroke-width="1.15"/>
<path d="M40.2567 25.0667L44.4895 20.0659L83.2293 59.5306L44.4895 98.9952L40.2567 93.9945L74.0869 59.5306L40.2567 25.0667Z" fill="#FFC700"/>
</svg>
