<svg width="104" height="104" viewBox="0 0 104 104" fill="none" xmlns="http://www.w3.org/2000/svg">
<path d="M52 102C79.6176 102 102 79.6138 102 52C102 24.3862 79.6176 2 52 2C24.3862 2 2 24.3862 2 52C2 79.6138 24.3862 102 52 102ZM52 5.99985C77.3641 5.99985 98.0002 26.6359 98.0002 52C98.0002 77.3641 77.3641 98.0001 52 98.0001C26.632 98.0001 5.99985 77.3641 5.99985 52C5.99985 26.6359 26.632 5.99985 52 5.99985Z" fill="#FFC700" fill-opacity="0.6"/>
<path d="M52 102.879C80.1029 102.879 102.879 80.099 102.879 52C102.879 23.901 80.1029 1.12148 52 1.12148C23.901 1.12148 1.12148 23.901 1.12148 52C1.12148 80.099 23.901 102.879 52 102.879ZM52 6.87836C76.879 6.87836 97.1216 27.121 97.1216 52C97.1216 76.8789 76.879 97.1216 52 97.1216C27.1173 97.1216 6.87837 76.879 6.87837 52C6.87837 27.121 27.1173 6.87836 52 6.87836Z" stroke="#FFC700" stroke-opacity="0.6" stroke-width="1.75703"/>
<path d="M35.2667 22.0579L38.9474 17.7095L72.6342 52.0266L38.9474 86.3437L35.2667 81.9952L64.6842 52.0266L35.2667 22.0579Z" fill="#FFC700" fill-opacity="0.6"/>
</svg>
