<svg width="659" height="665" viewBox="0 0 659 665" fill="none" xmlns="http://www.w3.org/2000/svg">
<mask id="path-1-outside-1_23_45" maskUnits="userSpaceOnUse" x="-2.171" y="-5.01461" width="662.324" height="675.2" fill="black">
<rect fill="white" x="-2.171" y="-5.01461" width="662.324" height="675.2"/>
<path d="M446.044 212.659L430.574 197.394L396.595 233.168L412.065 248.433L446.044 212.659ZM424.472 147.596L460.883 84.5337L418.788 59.2984L382.378 122.36L424.472 147.596ZM535.236 73.003L583.487 120.61L617.466 84.836L569.215 37.2292L535.236 73.003ZM598.822 149.122C602.983 196.788 597.866 321.01 457.261 454.56L490.554 490.972C643.795 345.422 652.762 205.276 647.476 144.696L598.822 149.122ZM457.261 454.56C323.158 581.931 210.868 602.444 161.68 604.666L163.826 654.398C224.071 651.677 347.562 626.79 490.554 490.972L457.261 454.56ZM241.579 406.865L231.837 397.253L197.857 433.026L207.599 442.638L241.579 406.865ZM109.492 388.614L51.0217 429.908L78.833 470.822L137.303 429.526L109.492 388.614ZM37.1564 571.428L90.4694 624.028L124.449 588.255L71.1363 535.654L37.1564 571.428ZM224.589 424.751C207.599 442.638 207.623 442.661 207.646 442.685C207.655 442.693 207.678 442.716 207.695 442.732C207.728 442.764 207.761 442.796 207.795 442.829C207.863 442.895 207.935 442.963 208.009 443.034C208.158 443.174 208.319 443.324 208.493 443.481C208.84 443.794 209.238 444.139 209.686 444.508C210.584 445.246 211.688 446.082 213.007 446.96C215.653 448.722 219.141 450.638 223.522 452.274C232.431 455.602 244.254 457.481 259.06 455.413C288.151 451.352 327.399 432.323 380.24 382.135L346.946 345.722C297.553 392.634 267.3 404.019 252.447 406.093C245.282 407.094 241.522 405.972 240.342 405.531C239.679 405.284 239.495 405.124 239.731 405.281C239.845 405.357 240.059 405.508 240.368 405.762C240.522 405.889 240.7 406.042 240.903 406.224C241.003 406.315 241.11 406.414 241.223 406.521C241.28 406.574 241.337 406.629 241.397 406.687C241.426 406.715 241.456 406.744 241.487 406.774C241.502 406.789 241.525 406.812 241.533 406.819C241.556 406.842 241.579 406.865 224.589 424.751ZM380.24 382.135C432.926 332.091 453.812 294.119 458.728 265.042C461.251 250.121 459.464 238.007 456.008 228.814C454.319 224.32 452.317 220.76 450.493 218.084C449.581 216.748 448.715 215.635 447.958 214.738C447.579 214.286 447.224 213.891 446.902 213.546C446.744 213.372 446.589 213.212 446.447 213.064C446.376 212.99 446.305 212.92 446.237 212.853C446.205 212.82 446.173 212.786 446.141 212.753C446.125 212.736 446.099 212.712 446.092 212.706C446.067 212.682 446.044 212.659 429.054 230.546C412.065 248.433 412.042 248.409 412.02 248.386C412.01 248.379 411.988 248.355 411.971 248.342C411.942 248.312 411.913 248.282 411.884 248.252C411.826 248.191 411.768 248.134 411.713 248.081C411.607 247.967 411.504 247.86 411.41 247.759C411.223 247.558 411.062 247.374 410.927 247.214C410.656 246.896 410.483 246.658 410.38 246.505C410.165 246.191 410.239 246.225 410.398 246.648C410.64 247.291 411.656 250.317 410.594 256.603C408.337 269.944 396.494 298.659 346.946 345.722L380.24 382.135ZM51.0217 429.908C4.02247 463.102 -4.4922 530.336 37.1564 571.428L71.1363 535.654C53.3776 518.133 55.0757 487.601 78.833 470.822L51.0217 429.908ZM161.68 604.666C148.672 605.254 135.705 599.36 124.449 588.255L90.4694 624.028C108.67 641.985 134.06 655.743 163.826 654.398L161.68 604.666ZM583.487 120.61C592.966 129.96 597.999 139.695 598.822 149.122L647.476 144.696C645.308 119.879 632.527 99.6918 617.466 84.836L583.487 120.61ZM231.837 397.253C198.972 364.827 147.085 362.061 109.492 388.614L137.303 429.526C156.878 415.702 182.724 418.096 197.857 433.026L231.837 397.253ZM460.883 84.5337C476.527 57.4406 514.424 52.467 535.236 73.003L569.215 37.2292C524.89 -6.50029 449.908 5.39939 418.788 59.2984L460.883 84.5337ZM430.574 197.394C417.482 184.479 414.702 164.519 424.472 147.596L382.378 122.36C361.443 158.62 366.917 203.889 396.595 233.168L430.574 197.394Z"/>
</mask>
<path d="M446.044 212.659L430.574 197.394L396.595 233.168L412.065 248.433L446.044 212.659ZM424.472 147.596L460.883 84.5337L418.788 59.2984L382.378 122.36L424.472 147.596ZM535.236 73.003L583.487 120.61L617.466 84.836L569.215 37.2292L535.236 73.003ZM598.822 149.122C602.983 196.788 597.866 321.01 457.261 454.56L490.554 490.972C643.795 345.422 652.762 205.276 647.476 144.696L598.822 149.122ZM457.261 454.56C323.158 581.931 210.868 602.444 161.68 604.666L163.826 654.398C224.071 651.677 347.562 626.79 490.554 490.972L457.261 454.56ZM241.579 406.865L231.837 397.253L197.857 433.026L207.599 442.638L241.579 406.865ZM109.492 388.614L51.0217 429.908L78.833 470.822L137.303 429.526L109.492 388.614ZM37.1564 571.428L90.4694 624.028L124.449 588.255L71.1363 535.654L37.1564 571.428ZM224.589 424.751C207.599 442.638 207.623 442.661 207.646 442.685C207.655 442.693 207.678 442.716 207.695 442.732C207.728 442.764 207.761 442.796 207.795 442.829C207.863 442.895 207.935 442.963 208.009 443.034C208.158 443.174 208.319 443.324 208.493 443.481C208.84 443.794 209.238 444.139 209.686 444.508C210.584 445.246 211.688 446.082 213.007 446.96C215.653 448.722 219.141 450.638 223.522 452.274C232.431 455.602 244.254 457.481 259.06 455.413C288.151 451.352 327.399 432.323 380.24 382.135L346.946 345.722C297.553 392.634 267.3 404.019 252.447 406.093C245.282 407.094 241.522 405.972 240.342 405.531C239.679 405.284 239.495 405.124 239.731 405.281C239.845 405.357 240.059 405.508 240.368 405.762C240.522 405.889 240.7 406.042 240.903 406.224C241.003 406.315 241.11 406.414 241.223 406.521C241.28 406.574 241.337 406.629 241.397 406.687C241.426 406.715 241.456 406.744 241.487 406.774C241.502 406.789 241.525 406.812 241.533 406.819C241.556 406.842 241.579 406.865 224.589 424.751ZM380.24 382.135C432.926 332.091 453.812 294.119 458.728 265.042C461.251 250.121 459.464 238.007 456.008 228.814C454.319 224.32 452.317 220.76 450.493 218.084C449.581 216.748 448.715 215.635 447.958 214.738C447.579 214.286 447.224 213.891 446.902 213.546C446.744 213.372 446.589 213.212 446.447 213.064C446.376 212.99 446.305 212.92 446.237 212.853C446.205 212.82 446.173 212.786 446.141 212.753C446.125 212.736 446.099 212.712 446.092 212.706C446.067 212.682 446.044 212.659 429.054 230.546C412.065 248.433 412.042 248.409 412.02 248.386C412.01 248.379 411.988 248.355 411.971 248.342C411.942 248.312 411.913 248.282 411.884 248.252C411.826 248.191 411.768 248.134 411.713 248.081C411.607 247.967 411.504 247.86 411.41 247.759C411.223 247.558 411.062 247.374 410.927 247.214C410.656 246.896 410.483 246.658 410.38 246.505C410.165 246.191 410.239 246.225 410.398 246.648C410.64 247.291 411.656 250.317 410.594 256.603C408.337 269.944 396.494 298.659 346.946 345.722L380.24 382.135ZM51.0217 429.908C4.02247 463.102 -4.4922 530.336 37.1564 571.428L71.1363 535.654C53.3776 518.133 55.0757 487.601 78.833 470.822L51.0217 429.908ZM161.68 604.666C148.672 605.254 135.705 599.36 124.449 588.255L90.4694 624.028C108.67 641.985 134.06 655.743 163.826 654.398L161.68 604.666ZM583.487 120.61C592.966 129.96 597.999 139.695 598.822 149.122L647.476 144.696C645.308 119.879 632.527 99.6918 617.466 84.836L583.487 120.61ZM231.837 397.253C198.972 364.827 147.085 362.061 109.492 388.614L137.303 429.526C156.878 415.702 182.724 418.096 197.857 433.026L231.837 397.253ZM460.883 84.5337C476.527 57.4406 514.424 52.467 535.236 73.003L569.215 37.2292C524.89 -6.50029 449.908 5.39939 418.788 59.2984L460.883 84.5337ZM430.574 197.394C417.482 184.479 414.702 164.519 424.472 147.596L382.378 122.36C361.443 158.62 366.917 203.889 396.595 233.168L430.574 197.394Z" fill="url(#paint0_linear_23_45)"/>
<path d="M424.472 147.596L421.902 151.884L427.043 143.307L424.472 147.596ZM460.883 84.5337L458.312 88.8222L463.454 80.2452L460.883 84.5337ZM647.476 144.696L647.929 149.675L647.023 139.716L647.476 144.696ZM163.826 654.398L158.831 654.614L168.821 654.183L163.826 654.398ZM231.837 397.253L235.462 400.697L228.212 393.81L231.837 397.253ZM109.492 388.614L113.627 385.803L105.357 391.425L109.492 388.614ZM425.429 227.102L408.44 244.989L415.69 251.876L432.68 233.989L425.429 227.102ZM417.21 218.724L434.2 200.838L426.949 193.951L409.959 211.838L417.21 218.724ZM400.855 139.268L421.902 151.884L427.043 143.307L405.996 130.691L400.855 139.268ZM437.265 76.2062L458.312 88.8222L463.453 80.2451L442.406 67.6291L437.265 76.2062ZM555.851 58.5596L572.84 40.6727L565.59 33.7858L548.6 51.6727L555.851 58.5596ZM596.852 99.2795L579.862 117.166L587.113 124.053L604.102 106.166L596.852 99.2795ZM623.602 151.887L647.929 149.675L647.023 139.716L622.696 141.928L623.602 151.887ZM477.597 469.392L460.951 451.186L453.571 457.934L470.217 476.14L477.597 469.392ZM157.758 629.748L158.831 654.614L168.821 654.183L167.749 629.317L157.758 629.748ZM218.472 418.583L235.462 400.697L228.212 393.81L211.222 411.696L218.472 418.583ZM127.533 406.259L113.627 385.803L105.357 391.425L119.263 411.881L127.533 406.259ZM60.7921 453.176L74.6979 473.633L82.9681 468.011L69.0623 447.554L60.7921 453.176ZM57.7714 556.985L74.7616 539.098L67.5111 532.211L50.521 550.097L57.7714 556.985ZM103.834 602.698L86.8442 620.584L94.0946 627.471L111.085 609.585L103.834 602.698ZM367.283 360.554L350.636 342.348L343.256 349.096L359.903 367.302L367.283 360.554ZM426.949 193.951L392.97 229.725L400.221 236.611L434.2 200.838L426.949 193.951ZM463.454 80.2452L421.359 55.01L416.218 63.5868L458.312 88.8221L463.454 80.2452ZM379.807 126.649L421.902 151.884L427.043 143.307L384.949 118.072L379.807 126.649ZM587.113 124.053L621.092 88.2794L613.841 81.3926L579.862 117.166L587.113 124.053ZM565.59 33.7858L531.611 69.5596L538.861 76.4465L572.84 40.6727L565.59 33.7858ZM453.571 457.934L486.864 494.346L494.244 487.598L460.951 451.186L453.571 457.934ZM647.023 139.716L598.369 144.143L599.275 154.102L647.929 149.675L647.023 139.716ZM156.685 604.882L158.831 654.614L168.821 654.183L166.676 604.451L156.685 604.882ZM228.212 393.81L194.232 429.583L201.482 436.47L235.462 400.697L228.212 393.81ZM46.8865 432.719L74.6979 473.633L82.9681 468.011L55.1568 427.097L46.8865 432.719ZM141.439 426.715L113.628 385.803L105.357 391.425L133.168 432.337L141.439 426.715ZM94.0946 627.471L128.075 591.698L120.824 584.811L86.8442 620.584L94.0946 627.471ZM67.5111 532.211L33.5312 567.984L40.7816 574.871L74.7616 539.098L67.5111 532.211ZM383.93 378.761L350.636 342.348L343.256 349.096L376.55 385.509L383.93 378.761ZM412.065 248.433L405.041 255.551L412.296 262.709L419.316 255.319L412.065 248.433ZM430.574 197.394L437.598 190.276L437.597 190.275L430.574 197.394ZM424.472 147.596L415.812 142.596L415.812 142.596L424.472 147.596ZM460.883 84.5337L452.223 79.5332L452.222 79.5335L460.883 84.5337ZM569.215 37.2292L576.238 30.1108L576.238 30.1105L569.215 37.2292ZM583.487 120.61L576.464 127.728L576.465 127.729L583.487 120.61ZM647.476 144.696L657.438 143.826L657.438 143.825L647.476 144.696ZM457.261 454.56L464.147 461.811L464.147 461.811L457.261 454.56ZM163.826 654.398L163.375 644.409L163.375 644.409L163.826 654.398ZM231.837 397.253L224.814 404.372L224.814 404.372L231.837 397.253ZM109.492 388.614L115.261 396.782L115.262 396.782L109.492 388.614ZM78.833 470.822L84.6019 478.99L84.6019 478.99L78.833 470.822ZM71.1363 535.654L64.113 542.773L64.113 542.773L71.1363 535.654ZM90.4694 624.028L83.4461 631.146L83.4461 631.146L90.4694 624.028ZM346.946 345.722L353.833 352.973L353.833 352.973L346.946 345.722ZM446.044 212.659L453.295 219.546L460.051 212.432L453.068 205.541L446.044 212.659ZM396.595 233.168L403.619 226.05L403.618 226.049L396.595 233.168ZM418.788 59.2984L427.449 64.2985L427.449 64.2985L418.788 59.2984ZM382.378 122.36L373.718 117.36L373.718 117.36L382.378 122.36ZM535.236 73.003L528.212 80.1212L528.213 80.1215L535.236 73.003ZM617.466 84.836L610.443 91.9545L610.444 91.9552L617.466 84.836ZM598.822 149.122L588.859 149.991L588.859 149.992L598.822 149.122ZM490.554 490.972L483.667 483.721L483.667 483.721L490.554 490.972ZM161.68 604.666L162.132 614.656L162.132 614.656L161.68 604.666ZM241.579 406.865L248.83 413.752L255.587 406.637L248.602 399.746L241.579 406.865ZM197.857 433.026L190.834 440.145L190.834 440.145L197.857 433.026ZM207.599 442.638L200.576 449.757L207.831 456.914L214.85 449.525L207.599 442.638ZM51.0217 429.908L45.2529 421.74L45.2527 421.74L51.0217 429.908ZM137.303 429.526L131.535 421.358L131.535 421.358L137.303 429.526ZM37.1564 571.428L44.1797 564.309L44.1797 564.309L37.1564 571.428ZM124.449 588.255L131.473 581.136L131.473 581.136L124.449 588.255ZM224.589 424.751L217.338 417.864L217.338 417.864L224.589 424.751ZM207.646 442.685L200.589 449.77L200.657 449.837L200.725 449.903L207.646 442.685ZM207.695 442.732L200.708 449.887L200.725 449.903L200.741 449.919L207.695 442.732ZM207.795 442.829L214.74 435.634L214.731 435.625L214.722 435.616L207.795 442.829ZM208.009 443.034L201.143 450.304L201.144 450.305L208.009 443.034ZM208.493 443.481L201.788 450.9L201.792 450.903L208.493 443.481ZM209.686 444.508L203.335 452.233L209.686 444.508ZM213.007 446.96L207.464 455.284L207.465 455.285L213.007 446.96ZM223.522 452.274L220.023 461.642L220.023 461.642L223.522 452.274ZM259.06 455.413L257.677 445.51L257.677 445.51L259.06 455.413ZM380.24 382.135L387.126 389.385L387.127 389.385L380.24 382.135ZM252.447 406.093L253.83 415.997L253.831 415.997L252.447 406.093ZM240.342 405.531L243.841 396.163L243.839 396.163L240.342 405.531ZM239.731 405.281L234.188 413.604L234.193 413.607L239.731 405.281ZM240.368 405.762L246.727 398.044L246.717 398.036L240.368 405.762ZM240.903 406.224L247.615 398.812L247.609 398.807L247.604 398.802L240.903 406.224ZM241.223 406.521L248.087 399.248L248.081 399.243L248.075 399.237L241.223 406.521ZM241.397 406.687L234.451 413.881L234.462 413.891L234.473 413.901L241.397 406.687ZM241.487 406.774L234.475 413.904L234.495 413.924L234.515 413.943L241.487 406.774ZM241.533 406.819L234.484 413.913L234.507 413.935L234.53 413.957L241.533 406.819ZM458.728 265.042L468.589 266.709L468.589 266.709L458.728 265.042ZM456.008 228.814L465.369 225.295L465.368 225.294L456.008 228.814ZM450.493 218.084L458.755 212.451L458.752 212.446L450.493 218.084ZM447.958 214.738L440.306 221.176L440.311 221.182L440.316 221.188L447.958 214.738ZM446.902 213.546L439.495 220.265L439.545 220.32L439.596 220.375L446.902 213.546ZM446.237 212.853L439.033 219.789L439.118 219.876L439.205 219.962L446.237 212.853ZM446.141 212.753L453.345 205.817L446.141 212.753ZM446.092 212.706L453.296 205.77L453.065 205.53L452.819 205.306L446.092 212.706ZM412.02 248.386L419.224 241.45L418.535 240.734L417.718 240.168L412.02 248.386ZM411.971 248.342L404.767 255.278L405.152 255.677L405.579 256.032L411.971 248.342ZM411.884 248.252L419.088 241.316L411.884 248.252ZM411.713 248.081L404.407 254.908L404.561 255.073L404.723 255.231L411.713 248.081ZM411.41 247.759L418.731 240.947L411.41 247.759ZM410.927 247.214L418.576 240.772L418.559 240.752L418.542 240.732L410.927 247.214ZM410.38 246.505L418.693 240.946L418.661 240.899L418.629 240.852L410.38 246.505ZM410.398 246.648L401.036 250.162L401.037 250.163L410.398 246.648ZM410.594 256.603L420.454 258.271L420.454 258.27L410.594 256.603ZM453.068 205.541L437.598 190.276L423.55 204.512L439.02 219.777L453.068 205.541ZM389.572 240.286L405.041 255.551L419.089 241.314L403.619 226.05L389.572 240.286ZM419.316 255.319L453.295 219.546L438.793 205.772L404.814 241.546L419.316 255.319ZM433.133 152.596L469.543 89.5338L452.222 79.5335L415.812 142.596L433.133 152.596ZM410.128 54.2982L373.718 117.36L391.038 127.361L427.449 64.2985L410.128 54.2982ZM528.213 80.1215L576.464 127.728L590.511 113.491L542.259 65.8846L528.213 80.1215ZM624.49 77.7176L576.238 30.1108L562.192 44.3477L610.443 91.9545L624.49 77.7176ZM588.859 149.992C592.8 195.128 588.429 316.182 450.374 447.309L464.147 461.811C607.304 325.838 613.166 198.448 608.784 148.252L588.859 149.992ZM497.441 498.223C653.235 350.247 662.945 206.932 657.438 143.826L637.514 145.565C642.58 203.621 634.354 340.597 483.667 483.721L497.441 498.223ZM450.374 447.309C318.08 572.962 208.101 592.558 161.229 594.676L162.132 614.656C213.635 612.329 328.236 590.9 464.147 461.811L450.374 447.309ZM164.277 664.388C226.838 661.562 352.64 635.76 497.441 498.223L483.667 483.721C342.485 617.821 221.305 641.791 163.375 644.409L164.277 664.388ZM248.602 399.746L238.86 390.135L224.814 404.372L234.556 413.983L248.602 399.746ZM190.834 440.145L200.576 449.757L214.622 435.519L204.88 425.908L190.834 440.145ZM214.85 449.525L248.83 413.752L234.329 399.978L200.349 435.751L214.85 449.525ZM103.724 380.446L45.2529 421.74L56.7904 438.077L115.261 396.782L103.724 380.446ZM84.6019 478.99L143.072 437.695L131.535 421.358L73.064 462.654L84.6019 478.99ZM30.1331 578.546L83.4461 631.146L97.4927 616.909L44.1797 564.309L30.1331 578.546ZM131.473 581.136L78.1597 528.536L64.113 542.773L117.426 595.373L131.473 581.136ZM217.338 417.864C208.845 426.806 204.59 431.297 202.459 433.559C201.409 434.674 200.829 435.295 200.507 435.648C200.404 435.761 200.127 436.062 199.866 436.389C199.784 436.491 199.631 436.685 199.455 436.938C199.324 437.125 198.931 437.694 198.563 438.494C198.287 439.093 197.277 441.355 197.785 444.354C198.377 447.844 200.68 449.86 200.589 449.77L214.703 435.599C214.611 435.507 216.912 437.523 217.504 441.009C218.012 444.006 217.003 446.264 216.729 446.858C216.364 447.652 215.975 448.213 215.852 448.389C215.684 448.63 215.542 448.81 215.476 448.892C215.274 449.144 215.125 449.3 215.282 449.128C215.479 448.911 215.951 448.404 217.016 447.274C219.115 445.047 223.343 440.584 231.839 431.638L217.338 417.864ZM200.725 449.903C200.715 449.893 200.707 449.885 200.702 449.88C200.696 449.875 200.691 449.87 200.688 449.867C200.681 449.86 200.677 449.856 200.675 449.854C200.672 449.852 200.671 449.85 200.671 449.85C200.671 449.85 200.671 449.851 200.673 449.852C200.674 449.853 200.675 449.855 200.678 449.857C200.68 449.859 200.683 449.861 200.685 449.864C200.688 449.867 200.692 449.87 200.695 449.874C200.699 449.878 200.704 449.882 200.708 449.887L214.681 435.577C214.682 435.578 214.682 435.578 214.678 435.574C214.676 435.572 214.667 435.564 214.662 435.559C214.657 435.553 214.647 435.543 214.635 435.533C214.63 435.527 214.622 435.519 214.612 435.51C214.604 435.502 214.587 435.486 214.567 435.467L200.725 449.903ZM200.741 449.919C200.749 449.926 200.752 449.929 200.778 449.954C200.798 449.973 200.831 450.005 200.868 450.042L214.722 435.616C214.725 435.62 214.724 435.619 214.711 435.606C214.708 435.603 214.704 435.6 214.7 435.596C214.696 435.592 214.691 435.587 214.686 435.582C214.676 435.572 214.663 435.559 214.648 435.545L200.741 449.919ZM200.85 450.024C200.935 450.106 201.034 450.201 201.143 450.304L214.875 435.763C214.835 435.726 214.792 435.684 214.74 435.634L200.85 450.024ZM201.144 450.305C201.343 450.492 201.557 450.691 201.788 450.9L215.198 436.061C215.081 435.956 214.973 435.856 214.874 435.763L201.144 450.305ZM201.792 450.903C202.247 451.314 202.761 451.76 203.335 452.233L216.037 436.784C215.714 436.518 215.434 436.274 215.194 436.058L201.792 450.903ZM203.335 452.233C204.478 453.172 205.851 454.21 207.464 455.284L218.55 438.637C217.525 437.955 216.69 437.32 216.037 436.784L203.335 452.233ZM207.465 455.285C210.701 457.439 214.871 459.718 220.023 461.642L227.021 442.906C223.41 441.558 220.604 440.004 218.548 438.636L207.465 455.285ZM220.023 461.642C230.539 465.569 244.042 467.607 260.443 465.317L257.677 445.51C244.466 447.354 234.324 445.634 227.02 442.906L220.023 461.642ZM260.443 465.317C292.496 460.842 333.597 440.228 387.126 389.385L373.353 374.884C321.201 424.418 283.806 441.861 257.677 445.51L260.443 465.317ZM340.06 338.471C291.357 384.727 262.956 394.528 251.064 396.189L253.831 415.997C271.643 413.509 303.749 400.541 353.833 352.973L340.06 338.471ZM251.064 396.189C245.495 396.967 243.417 396.005 243.841 396.163L236.843 414.899C239.627 415.939 245.068 417.22 253.83 415.997L251.064 396.189ZM243.839 396.163C243.885 396.18 244.037 396.24 244.286 396.368C244.348 396.4 244.418 396.438 244.497 396.481C244.534 396.502 244.583 396.529 244.641 396.563C244.656 396.571 244.678 396.585 244.706 396.601C244.719 396.609 244.742 396.622 244.769 396.639C244.777 396.643 244.86 396.692 244.962 396.757C244.994 396.777 245.074 396.828 245.121 396.859C245.201 396.912 245.436 397.075 245.591 397.187C246.059 397.557 249.623 405.656 245.843 413.056C241.318 415.075 235.941 414.512 235.511 414.33C235.36 414.26 235.133 414.149 235.056 414.109C235.009 414.085 234.931 414.044 234.899 414.027C234.837 413.994 234.789 413.967 234.769 413.956C234.693 413.913 234.633 413.879 234.625 413.874C234.412 413.751 234.264 413.655 234.188 413.604L245.274 396.958C245.08 396.828 244.866 396.693 244.642 396.564C244.633 396.558 244.573 396.524 244.497 396.481C244.476 396.47 244.428 396.443 244.366 396.41C244.335 396.393 244.256 396.352 244.21 396.327C244.133 396.288 243.905 396.177 243.754 396.107C243.325 395.925 237.948 395.361 233.422 397.381C229.642 404.781 233.206 412.88 233.674 413.249C233.829 413.362 234.065 413.525 234.144 413.578C234.191 413.608 234.271 413.66 234.303 413.68C234.406 413.745 234.489 413.794 234.497 413.799C234.524 413.815 234.547 413.829 234.561 413.837C234.589 413.853 234.612 413.867 234.628 413.876C234.69 413.912 234.747 413.944 234.794 413.97C234.895 414.026 235.001 414.083 235.113 414.14C235.561 414.372 236.136 414.635 236.845 414.9L243.839 396.163ZM234.193 413.607C234.009 413.485 233.953 413.434 234.019 413.488L246.717 398.036C246.165 397.582 245.681 397.228 245.269 396.954L234.193 413.607ZM234.009 413.48C234.047 413.511 234.112 413.566 234.202 413.647L247.604 398.802C247.289 398.518 246.997 398.267 246.727 398.044L234.009 413.48ZM234.19 413.636C234.234 413.676 234.293 413.731 234.371 413.804L248.075 399.237C247.927 399.098 247.773 398.955 247.615 398.812L234.19 413.636ZM234.359 413.793C234.381 413.813 234.41 413.842 234.451 413.881L248.342 399.492C248.264 399.417 248.178 399.334 248.087 399.248L234.359 413.793ZM234.473 413.901C234.472 413.901 234.473 413.902 234.475 413.904L248.499 399.644C248.44 399.586 248.38 399.529 248.321 399.472L234.473 413.901ZM234.515 413.943C234.512 413.94 234.51 413.938 234.51 413.939C234.511 413.939 234.511 413.939 234.512 413.94C234.513 413.941 234.512 413.94 234.51 413.938C234.509 413.937 234.507 413.935 234.504 413.932C234.501 413.929 234.494 413.922 234.484 413.913L248.581 399.725C248.537 399.682 248.485 399.631 248.458 399.605L234.515 413.943ZM234.53 413.957C234.619 414.045 232.252 412.005 231.667 408.444C231.171 405.426 232.209 403.16 232.472 402.596C232.837 401.816 233.222 401.264 233.342 401.092C233.508 400.856 233.648 400.679 233.713 400.599C233.91 400.353 234.056 400.201 233.899 400.373C233.7 400.59 233.228 401.098 232.163 402.228C230.064 404.456 225.835 408.919 217.338 417.864L231.839 431.638C240.333 422.697 244.588 418.205 246.718 415.944C247.769 414.83 248.348 414.21 248.669 413.857C248.772 413.745 249.045 413.447 249.303 413.126C249.383 413.027 249.534 412.836 249.708 412.588C249.836 412.405 250.226 411.845 250.594 411.059C250.86 410.489 251.898 408.22 251.402 405.199C251.126 403.52 250.461 402.131 249.716 401.071C249.378 400.591 249.062 400.231 248.858 400.012C248.756 399.902 248.67 399.815 248.618 399.762C248.598 399.742 248.567 399.711 248.556 399.701C248.546 399.691 248.536 399.681 248.536 399.681L234.53 413.957ZM387.127 389.385C440.462 338.725 463.145 298.901 468.589 266.709L448.868 263.375C444.478 289.337 425.39 325.458 373.353 374.884L387.127 389.385ZM468.589 266.709C471.398 250.088 469.461 236.182 465.369 225.295L446.648 232.332C449.467 239.832 451.103 250.154 448.868 263.375L468.589 266.709ZM465.368 225.294C463.374 219.991 460.988 215.726 458.755 212.451L442.23 223.717C443.646 225.794 445.263 228.65 446.648 232.334L465.368 225.294ZM458.752 212.446C457.638 210.814 456.565 209.431 455.601 208.288L440.316 221.188C440.866 221.838 441.523 222.682 442.234 223.722L458.752 212.446ZM455.611 208.3C455.106 207.701 454.635 207.176 454.207 206.718L439.596 220.375C439.813 220.607 440.051 220.872 440.306 221.176L455.611 208.3ZM454.308 206.828C454.036 206.528 453.782 206.264 453.651 206.129L439.243 220C439.318 220.077 439.365 220.127 439.41 220.174C439.452 220.218 439.478 220.247 439.495 220.265L454.308 206.828ZM453.651 206.129C453.485 205.956 453.334 205.807 453.27 205.744L439.205 219.962C439.221 219.978 439.232 219.989 439.242 219.999C439.251 220.008 439.257 220.014 439.26 220.017C439.267 220.024 439.259 220.017 439.243 220L453.651 206.129ZM453.442 205.918C453.156 205.621 453.679 206.164 453.393 205.867C452.976 205.434 453.762 206.25 453.345 205.817L438.937 219.688C439.223 219.985 438.699 219.441 438.985 219.738C439.402 220.172 438.616 219.355 439.033 219.789L453.442 205.918ZM453.345 205.817C453.287 205.757 453.238 205.707 453.2 205.67C453.162 205.632 453.129 205.599 453.103 205.574C453.077 205.549 453.055 205.527 453.038 205.511C453.021 205.495 453.006 205.481 452.997 205.472C452.988 205.464 452.98 205.456 452.98 205.456C452.979 205.455 452.98 205.456 452.982 205.458C452.984 205.46 452.988 205.464 452.994 205.469C453 205.475 453.008 205.483 453.019 205.493C453.029 205.503 453.045 205.518 453.064 205.537C453.082 205.555 453.11 205.582 453.144 205.616C453.162 205.633 453.183 205.654 453.207 205.679C453.231 205.703 453.262 205.734 453.296 205.77L438.888 219.641C438.923 219.678 438.954 219.709 438.979 219.734C439.003 219.759 439.025 219.781 439.043 219.799C439.078 219.833 439.107 219.862 439.127 219.881C439.147 219.901 439.165 219.917 439.177 219.929C439.189 219.941 439.199 219.951 439.207 219.958C439.214 219.965 439.22 219.97 439.224 219.974C439.228 219.978 439.231 219.981 439.232 219.982C439.236 219.986 439.233 219.982 439.229 219.979C439.224 219.974 439.215 219.965 439.202 219.953C439.19 219.942 439.172 219.925 439.151 219.904C439.13 219.884 439.102 219.856 439.068 219.822C439.035 219.789 438.99 219.744 438.937 219.688L453.345 205.817ZM452.819 205.306C452.951 205.426 450.889 203.285 447.494 202.803C444.463 202.373 442.216 203.455 441.562 203.786C440.744 204.201 440.17 204.637 439.98 204.783C439.725 204.979 439.53 205.148 439.429 205.238C439.103 205.525 438.806 205.827 438.702 205.933C438.363 206.275 437.771 206.888 436.712 207.993C434.563 210.237 430.297 214.717 421.804 223.659L436.305 237.432C444.802 228.487 449.041 224.036 451.157 221.825C452.231 220.704 452.712 220.209 452.915 220.003C453.082 219.835 452.924 220.002 452.671 220.226C452.587 220.3 452.407 220.457 452.163 220.644C451.983 220.782 451.417 221.213 450.604 221.625C449.957 221.954 447.714 223.035 444.685 222.605C441.293 222.124 439.232 219.983 439.366 220.105L452.819 205.306ZM421.804 223.659C413.307 232.604 409.068 237.056 406.951 239.267C405.878 240.388 405.395 240.885 405.189 241.094C405.025 241.261 405.171 241.106 405.408 240.894C405.486 240.825 405.657 240.674 405.888 240.494C406.053 240.365 406.602 239.939 407.39 239.526C407.937 239.24 410.307 238.011 413.527 238.501C417.257 239.069 419.377 241.609 419.224 241.45L404.816 255.321C404.816 255.321 404.826 255.332 404.836 255.342C404.846 255.352 404.876 255.384 404.897 255.404C404.949 255.457 405.035 255.543 405.145 255.648C405.362 255.853 405.723 256.178 406.21 256.525C407.283 257.291 408.733 258.002 410.518 258.274C413.74 258.764 416.114 257.534 416.666 257.245C417.46 256.829 418.016 256.398 418.192 256.261C418.434 256.073 418.619 255.91 418.715 255.825C419.024 255.549 419.308 255.26 419.415 255.152C419.75 254.813 420.339 254.204 421.398 253.097C423.546 250.854 427.812 246.374 436.305 237.432L421.804 223.659ZM417.718 240.168C417.897 240.292 418.042 240.401 418.145 240.482C418.252 240.564 418.34 240.636 418.407 240.692C418.537 240.8 418.638 240.889 418.693 240.938C418.752 240.991 418.798 241.034 418.821 241.055C418.844 241.077 418.862 241.094 418.863 241.095C418.883 241.114 418.825 241.058 418.768 241.006C418.714 240.956 418.563 240.818 418.364 240.652L405.579 256.032C405.388 255.873 405.246 255.743 405.201 255.701C405.153 255.657 405.104 255.61 405.133 255.638C405.138 255.643 405.161 255.664 405.188 255.69C405.216 255.715 405.265 255.761 405.328 255.817C405.387 255.87 405.491 255.962 405.624 256.073C405.692 256.13 405.783 256.203 405.89 256.287C405.995 256.368 406.142 256.479 406.321 256.603L417.718 240.168ZM419.175 241.407C418.793 241.009 419.547 241.793 419.165 241.395C419.164 241.394 419.155 241.385 419.154 241.384C419.128 241.358 419.157 241.388 419.132 241.361C419.123 241.352 419.097 241.325 419.088 241.316L404.68 255.187C405.063 255.584 404.309 254.801 404.691 255.198C404.692 255.199 404.701 255.209 404.702 255.21C404.727 255.236 404.698 255.206 404.724 255.232C404.733 255.242 404.758 255.268 404.767 255.278L419.175 241.407ZM419.088 241.316C418.913 241.134 418.756 240.981 418.704 240.93L404.723 255.231C404.735 255.243 404.741 255.249 404.745 255.254C404.749 255.257 404.749 255.257 404.745 255.253C404.739 255.247 404.715 255.223 404.68 255.187L419.088 241.316ZM419.02 241.253C418.554 240.755 419.037 241.276 418.731 240.947L404.09 254.572C404.172 254.66 404.252 254.745 404.298 254.793C404.354 254.852 404.382 254.881 404.407 254.908L419.02 241.253ZM418.731 240.947C418.668 240.879 418.616 240.82 418.576 240.772L403.278 253.655C403.508 253.929 403.779 254.238 404.09 254.572L418.731 240.947ZM418.542 240.732C418.519 240.704 418.522 240.706 418.546 240.739C418.571 240.771 418.622 240.84 418.693 240.946L402.068 252.064C402.41 252.576 402.823 253.121 403.312 253.695L418.542 240.732ZM418.629 240.852C418.68 240.926 418.747 241.029 418.826 241.16C418.866 241.226 418.908 241.297 418.951 241.373C419.097 241.631 418.905 241.292 418.894 241.273C418.847 241.193 418.508 240.661 418.193 240.224C405.283 237.615 401.123 250.389 401.273 250.708C401.308 250.779 401.36 250.88 401.375 250.91C401.384 250.927 401.398 250.954 401.403 250.964C401.413 250.982 401.42 250.996 401.422 250.999C401.425 251.004 401.427 251.008 401.427 251.009C401.43 251.013 401.425 251.006 401.422 250.999C401.414 250.984 401.404 250.965 401.394 250.946C401.221 250.617 401.108 250.354 401.036 250.162L419.76 243.133C419.53 242.519 419.3 242.027 419.104 241.654C419.092 241.632 419.082 241.611 419.073 241.594C419.069 241.587 419.064 241.579 419.067 241.584C419.067 241.584 419.069 241.588 419.072 241.593C419.073 241.596 419.081 241.61 419.09 241.628C419.096 241.638 419.11 241.665 419.119 241.682C419.134 241.712 419.185 241.813 419.221 241.884C419.371 242.203 415.211 254.977 402.301 252.368C401.986 251.931 401.647 251.399 401.6 251.319C401.589 251.3 401.398 250.964 401.548 251.228C401.598 251.316 401.653 251.41 401.713 251.511C401.834 251.71 401.973 251.926 402.131 252.158L418.629 240.852ZM401.037 250.163C400.884 249.756 400.969 249.804 401.028 250.439C401.092 251.123 401.133 252.576 400.733 254.936L420.454 258.27C421.804 250.281 420.636 245.464 419.76 243.132L401.037 250.163ZM400.734 254.935C399.004 265.163 388.956 292.027 340.059 338.471L353.833 352.973C404.032 305.291 417.671 274.724 420.454 258.271L400.734 254.935ZM45.2527 421.74C-6.40649 458.225 -16.3139 532.72 30.1331 578.546L44.1797 564.309C7.3295 527.952 14.4514 467.979 56.7906 438.076L45.2527 421.74ZM78.1597 528.536C65.0743 515.626 65.6532 492.373 84.6019 478.99L73.0641 462.654C44.4982 482.829 41.681 520.641 64.113 542.773L78.1597 528.536ZM161.229 594.676C151.706 595.106 141.309 590.841 131.473 581.136L117.426 595.373C130.102 607.879 145.638 615.401 162.132 614.656L161.229 594.676ZM83.4461 631.146C103.042 650.48 130.999 665.892 164.277 664.388L163.375 644.409C137.121 645.595 114.298 633.49 97.4927 616.909L83.4461 631.146ZM576.465 127.729C584.789 135.94 588.301 143.586 588.859 149.991L608.784 148.253C607.698 135.804 601.143 123.979 590.51 113.491L576.465 127.729ZM657.438 143.825C655.005 115.969 640.686 93.6938 624.489 77.7168L610.444 91.9552C624.367 105.69 635.612 123.79 637.514 145.566L657.438 143.825ZM238.861 390.135C202.346 354.108 145.035 351.266 103.723 380.446L115.262 396.782C149.135 372.856 195.598 375.547 224.814 404.372L238.861 390.135ZM143.072 437.695C158.888 426.525 179.317 428.782 190.834 440.145L204.881 425.908C186.131 407.409 154.868 404.879 131.535 421.358L143.072 437.695ZM469.543 89.5341C482.042 67.8878 512.242 64.3633 528.212 80.1212L542.26 65.8849C516.605 40.5708 471.012 46.9934 452.223 79.5332L469.543 89.5341ZM576.238 30.1105C527.016 -18.4501 444.353 -4.98015 410.128 54.2983L427.449 64.2985C455.462 15.7789 522.764 5.44948 562.192 44.348L576.238 30.1105ZM437.597 190.275C427.836 180.646 425.573 165.69 433.133 152.596L415.812 142.596C403.831 163.348 407.128 188.311 423.551 204.513L437.597 190.275ZM373.718 117.36C350.582 157.432 356.55 207.708 389.572 240.287L403.618 226.049C377.285 200.07 372.305 159.807 391.038 127.36L373.718 117.36Z" fill="url(#paint1_linear_23_45)" mask="url(#path-1-outside-1_23_45)"/>
<defs>
<linearGradient id="paint0_linear_23_45" x1="332.566" y1="8.92423" x2="326.419" y2="656.076" gradientUnits="userSpaceOnUse">
<stop stop-color="#7ED7F7"/>
<stop offset="0.5" stop-color="#BA8FDB"/>
<stop offset="1" stop-color="#E050B0"/>
</linearGradient>
<linearGradient id="paint1_linear_23_45" x1="332.566" y1="8.92423" x2="326.419" y2="656.076" gradientUnits="userSpaceOnUse">
<stop stop-color="#7ED7F7"/>
<stop offset="0.5" stop-color="#BA8FDB"/>
<stop offset="1" stop-color="#E050B0"/>
</linearGradient>
</defs>
</svg>
