<svg width="733" height="733" viewBox="0 0 733 733" fill="none" xmlns="http://www.w3.org/2000/svg">
<path d="M531.502 365.772C531.502 384.589 515.907 399.937 496.555 399.937C477.202 399.937 461.608 384.589 461.608 365.772C461.608 346.955 477.202 331.608 496.555 331.608C515.907 331.608 531.502 346.955 531.502 365.772Z" fill="url(#paint0_linear_24_72)" stroke="url(#paint1_linear_24_72)" stroke-width="5.21594" stroke-linecap="round" stroke-linejoin="round"/>
<path d="M400.947 366.029C400.947 384.846 385.353 400.193 366 400.193C346.647 400.193 331.053 384.846 331.053 366.029C331.053 347.212 346.647 331.864 366 331.864C385.353 331.864 400.947 347.212 400.947 366.029Z" fill="url(#paint2_linear_24_72)" stroke="url(#paint3_linear_24_72)" stroke-width="5.21594" stroke-linecap="round" stroke-linejoin="round"/>
<path d="M270.502 365.772C270.502 384.589 254.907 399.937 235.555 399.937C216.202 399.937 200.608 384.589 200.608 365.772C200.608 346.955 216.202 331.608 235.555 331.608C254.907 331.608 270.502 346.955 270.502 365.772Z" fill="url(#paint4_linear_24_72)" stroke="url(#paint5_linear_24_72)" stroke-width="5.21594" stroke-linecap="round" stroke-linejoin="round"/>
<path d="M533 77.594C483.97 49.2323 427.047 33 366.333 33C182.238 33 33 182.238 33 366.333C33 419.657 45.5207 470.053 67.782 514.75C73.698 526.627 75.667 540.203 72.2373 553.02L52.3837 627.223C43.765 659.433 73.2337 688.9 105.445 680.283L179.646 660.43C192.464 657 206.04 658.97 217.918 664.883C262.612 687.147 313.01 699.667 366.333 699.667C550.427 699.667 699.667 550.427 699.667 366.333C699.667 305.62 683.433 248.696 655.073 199.667" stroke="url(#paint6_linear_24_72)" stroke-width="65" stroke-linecap="round"/>
<defs>
<linearGradient id="paint0_linear_24_72" x1="496.555" y1="329" x2="496.555" y2="402.545" gradientUnits="userSpaceOnUse">
<stop stop-color="#7ED7F7"/>
<stop offset="0.5" stop-color="#BA8FDB"/>
<stop offset="1" stop-color="#E050B0"/>
</linearGradient>
<linearGradient id="paint1_linear_24_72" x1="496.555" y1="329" x2="496.555" y2="402.545" gradientUnits="userSpaceOnUse">
<stop stop-color="#7ED7F7"/>
<stop offset="0.5" stop-color="#BA8FDB"/>
<stop offset="1" stop-color="#E050B0"/>
</linearGradient>
<linearGradient id="paint2_linear_24_72" x1="366" y1="329.256" x2="366" y2="402.801" gradientUnits="userSpaceOnUse">
<stop stop-color="#7ED7F7"/>
<stop offset="0.5" stop-color="#BA8FDB"/>
<stop offset="1" stop-color="#E050B0"/>
</linearGradient>
<linearGradient id="paint3_linear_24_72" x1="366" y1="329.256" x2="366" y2="402.801" gradientUnits="userSpaceOnUse">
<stop stop-color="#7ED7F7"/>
<stop offset="0.5" stop-color="#BA8FDB"/>
<stop offset="1" stop-color="#E050B0"/>
</linearGradient>
<linearGradient id="paint4_linear_24_72" x1="235.555" y1="329" x2="235.555" y2="402.545" gradientUnits="userSpaceOnUse">
<stop stop-color="#7ED7F7"/>
<stop offset="0.5" stop-color="#BA8FDB"/>
<stop offset="1" stop-color="#E050B0"/>
</linearGradient>
<linearGradient id="paint5_linear_24_72" x1="235.555" y1="329" x2="235.555" y2="402.545" gradientUnits="userSpaceOnUse">
<stop stop-color="#7ED7F7"/>
<stop offset="0.5" stop-color="#BA8FDB"/>
<stop offset="1" stop-color="#E050B0"/>
</linearGradient>
<linearGradient id="paint6_linear_24_72" x1="366.333" y1="33" x2="366.333" y2="699.667" gradientUnits="userSpaceOnUse">
<stop stop-color="#7ED7F7"/>
<stop offset="0.5" stop-color="#BA8FDB"/>
<stop offset="1" stop-color="#E050B0"/>
</linearGradient>
</defs>
</svg>
