<svg width="615" height="638" viewBox="0 0 615 638" fill="none" xmlns="http://www.w3.org/2000/svg">
<path d="M485.667 364.5V52.3334C485.667 43.4928 482.155 35.0143 475.904 28.7631C469.652 22.5119 461.174 19 452.333 19H52.3333C43.4928 19 35.0143 22.5119 28.7631 28.7631C22.5119 35.0143 19 43.4928 19 52.3334V585.667C19 594.507 22.5119 602.986 28.7631 609.237C35.0143 615.488 43.4928 619 52.3333 619H452.333" stroke="url(#paint0_linear_32_110)" stroke-width="38" stroke-linecap="round" stroke-linejoin="round"/>
<path d="M457.513 430.666C443.802 434.415 435.538 444.936 435.538 454.875C435.538 464.815 443.802 475.335 457.513 479.084V430.666Z" fill="url(#paint1_linear_32_110)"/>
<path d="M479.487 503.916V552.334C493.198 548.585 501.462 538.065 501.462 528.125C501.462 518.185 493.198 507.665 479.487 503.916Z" fill="url(#paint2_linear_32_110)"/>
<path fill-rule="evenodd" clip-rule="evenodd" d="M615 491.5C615 572.409 549.409 638 468.5 638C387.59 638 322 572.409 322 491.5C322 410.59 387.59 345 468.5 345C549.409 345 615 410.59 615 491.5ZM468.5 392.612C474.568 392.612 479.487 397.532 479.487 403.6V408.24C503.373 412.517 523.438 430.462 523.438 454.875C523.438 460.943 518.518 465.863 512.45 465.863C506.382 465.863 501.463 460.943 501.463 454.875C501.463 444.936 493.198 434.415 479.487 430.666V481.49C503.373 485.767 523.438 503.712 523.438 528.125C523.438 552.538 503.373 570.483 479.487 574.76V579.4C479.487 585.468 474.568 590.387 468.5 590.387C462.432 590.387 457.512 585.468 457.512 579.4V574.76C433.627 570.483 413.562 552.538 413.562 528.125C413.562 522.057 418.482 517.137 424.55 517.137C430.618 517.137 435.537 522.057 435.537 528.125C435.537 538.065 443.802 548.585 457.512 552.334V501.51C433.627 497.233 413.562 479.288 413.562 454.875C413.562 430.462 433.627 412.517 457.512 408.24V403.6C457.512 397.532 462.432 392.612 468.5 392.612Z" fill="url(#paint3_linear_32_110)"/>
<path d="M98 123H348" stroke="#E050B0" stroke-width="38" stroke-linecap="round" stroke-linejoin="round"/>
<path d="M98 212H298" stroke="#BA8FDB" stroke-width="38" stroke-linecap="round" stroke-linejoin="round"/>
<path d="M98 301H248" stroke="#7ED7F7" stroke-width="38" stroke-linecap="round" stroke-linejoin="round"/>
<defs>
<linearGradient id="paint0_linear_32_110" x1="252.333" y1="19" x2="252.333" y2="619" gradientUnits="userSpaceOnUse">
<stop stop-color="#E050B0"/>
<stop offset="0.5" stop-color="#BA8FDB"/>
<stop offset="1" stop-color="#7ED7F7"/>
</linearGradient>
<linearGradient id="paint1_linear_32_110" x1="446.525" y1="430.666" x2="446.525" y2="479.084" gradientUnits="userSpaceOnUse">
<stop stop-color="#E050B0"/>
<stop offset="0.5" stop-color="#BA8FDB"/>
<stop offset="1" stop-color="#7ED7F7"/>
</linearGradient>
<linearGradient id="paint2_linear_32_110" x1="490.475" y1="503.916" x2="490.475" y2="552.334" gradientUnits="userSpaceOnUse">
<stop stop-color="#E050B0"/>
<stop offset="0.5" stop-color="#BA8FDB"/>
<stop offset="1" stop-color="#7ED7F7"/>
</linearGradient>
<linearGradient id="paint3_linear_32_110" x1="468.5" y1="345" x2="468.5" y2="638" gradientUnits="userSpaceOnUse">
<stop stop-color="#E050B0"/>
<stop offset="0.5" stop-color="#BA8FDB"/>
<stop offset="1" stop-color="#7ED7F7"/>
</linearGradient>
</defs>
</svg>
