<svg width="798" height="743" viewBox="0 0 798 743" fill="none" xmlns="http://www.w3.org/2000/svg">
<path d="M572.967 424.684C600.664 424.684 623.117 404.384 623.117 379.342C623.117 354.3 600.664 334 572.967 334C545.269 334 522.816 354.3 522.816 379.342C522.816 404.384 545.269 424.684 572.967 424.684Z" fill="url(#paint0_linear_24_71)" stroke="url(#paint1_linear_24_71)" stroke-width="20" stroke-linecap="round" stroke-linejoin="round"/>
<path d="M398.625 425C426.323 425 448.776 404.7 448.776 379.658C448.776 354.616 426.323 334.316 398.625 334.316C370.928 334.316 348.475 354.616 348.475 379.658C348.475 404.7 370.928 425 398.625 425Z" fill="url(#paint2_linear_24_71)" stroke="url(#paint3_linear_24_71)" stroke-width="20" stroke-linecap="round" stroke-linejoin="round"/>
<path d="M224.43 424.684C252.127 424.684 274.58 404.384 274.58 379.342C274.58 354.3 252.127 334 224.43 334C196.733 334 174.28 354.3 174.28 379.342C174.28 404.384 196.733 424.684 224.43 424.684Z" fill="url(#paint4_linear_24_71)" stroke="url(#paint5_linear_24_71)" stroke-width="20" stroke-linecap="round" stroke-linejoin="round"/>
<path d="M579.5 82.594C526.4 54.2323 464.753 38 399 38C199.625 38 38 187.238 38 371.333C38 424.657 51.5599 475.053 75.6689 519.75C82.0759 531.627 84.2084 545.203 80.494 558.02L58.9925 632.223C49.6585 664.433 81.5731 693.9 116.458 685.283L196.818 665.43C210.7 662 225.403 663.97 238.266 669.883C286.67 692.147 341.251 704.667 399 704.667C598.373 704.667 760 555.427 760 371.333C760 310.62 742.419 253.696 711.705 204.667" stroke="url(#paint6_linear_24_71)" stroke-width="75" stroke-linecap="round"/>
<defs>
<linearGradient id="paint0_linear_24_71" x1="572.967" y1="334" x2="572.967" y2="424.684" gradientUnits="userSpaceOnUse">
<stop stop-color="#7ED7F7"/>
<stop offset="0.5" stop-color="#BA8FDB"/>
<stop offset="1" stop-color="#E050B0"/>
</linearGradient>
<linearGradient id="paint1_linear_24_71" x1="572.967" y1="334" x2="572.967" y2="424.684" gradientUnits="userSpaceOnUse">
<stop stop-color="#7ED7F7"/>
<stop offset="0.5" stop-color="#BA8FDB"/>
<stop offset="1" stop-color="#E050B0"/>
</linearGradient>
<linearGradient id="paint2_linear_24_71" x1="398.625" y1="334.316" x2="398.625" y2="425" gradientUnits="userSpaceOnUse">
<stop stop-color="#7ED7F7"/>
<stop offset="0.5" stop-color="#BA8FDB"/>
<stop offset="1" stop-color="#E050B0"/>
</linearGradient>
<linearGradient id="paint3_linear_24_71" x1="398.625" y1="334.316" x2="398.625" y2="425" gradientUnits="userSpaceOnUse">
<stop stop-color="#7ED7F7"/>
<stop offset="0.5" stop-color="#BA8FDB"/>
<stop offset="1" stop-color="#E050B0"/>
</linearGradient>
<linearGradient id="paint4_linear_24_71" x1="224.43" y1="334" x2="224.43" y2="424.684" gradientUnits="userSpaceOnUse">
<stop stop-color="#7ED7F7"/>
<stop offset="0.5" stop-color="#BA8FDB"/>
<stop offset="1" stop-color="#E050B0"/>
</linearGradient>
<linearGradient id="paint5_linear_24_71" x1="224.43" y1="334" x2="224.43" y2="424.684" gradientUnits="userSpaceOnUse">
<stop stop-color="#7ED7F7"/>
<stop offset="0.5" stop-color="#BA8FDB"/>
<stop offset="1" stop-color="#E050B0"/>
</linearGradient>
<linearGradient id="paint6_linear_24_71" x1="399" y1="38" x2="399" y2="704.667" gradientUnits="userSpaceOnUse">
<stop stop-color="#7ED7F7"/>
<stop offset="0.5" stop-color="#BA8FDB"/>
<stop offset="1" stop-color="#E050B0"/>
</linearGradient>
</defs>
</svg>
