<svg width="262" height="262" viewBox="0 0 262 262" fill="none" xmlns="http://www.w3.org/2000/svg">
<path d="M202.845 46.8702C169.394 46.8702 142.981 73.9919 142.981 107.443C142.981 140.894 170.455 168.016 203.906 168.016C204.24 168.016 204.745 167.97 205.08 167.965C191.854 178.497 175.241 184.843 157.058 184.843C148.693 184.843 141.96 191.627 141.96 199.987C141.96 208.347 147.343 215.13 155.708 215.13C215.085 215.124 262 166.819 262 107.443C262 107.432 262 107.42 262 107.403C262 73.9692 236.285 46.8702 202.845 46.8702Z" fill="#FFC700" fill-opacity="0.8"/>
<path d="M60.9698 46.8702C27.5187 46.8702 1.06059 73.9919 1.06059 107.443C1.06059 140.894 28.5112 168.016 61.968 168.016C62.3026 168.016 62.7961 167.97 63.1307 167.965C49.9045 178.497 33.2867 184.843 15.1035 184.843C6.73787 184.843 0 191.627 0 199.987C0 208.347 5.46743 215.13 13.8331 215.13C73.2091 215.124 120.21 166.819 120.21 107.443C120.21 107.432 120.21 107.42 120.21 107.403C120.21 73.9692 94.4096 46.8702 60.9698 46.8702Z" fill="#FFC700" fill-opacity="0.8"/>
</svg>
