<svg width="1606" height="1040" viewBox="0 0 1606 1040" fill="none" xmlns="http://www.w3.org/2000/svg">
<path d="M1204.84 533.511C1204.84 809.908 977.996 1033.97 674.872 1033.97C371.747 1033.97 149.623 809.908 149.623 533.511C149.623 257.114 371.747 33.0494 674.872 33.0494C977.996 33.0494 1204.84 257.114 1204.84 533.511Z" fill="#FEFEFE"/>
<path d="M208.12 438.532C208.12 438.532 191.15 601.972 323.373 736.236C455.595 870.5 658.671 914.073 822.519 953.394C986.367 992.715 1125.32 928.909 1162.64 802.054C1199.95 675.199 1078.95 614.789 1031.16 454.523C983.372 294.257 996.222 246.607 863.953 129.959C731.684 13.3105 497.12 29.428 356.345 164.712C215.569 299.995 208.12 438.532 208.12 438.532Z" fill="#FFC700"/>
<path opacity="0.7" d="M206.727 433.188C206.727 433.188 189.875 594.206 321.089 726.472C452.303 858.738 653.84 901.653 816.446 940.381C979.052 979.109 1116.96 916.239 1154 791.262C1191.04 666.285 1070.96 606.777 1023.54 448.89C976.124 291.003 988.88 244.058 857.619 129.147C726.357 14.2355 493.567 30.1289 353.848 163.416C214.128 296.704 206.727 433.188 206.727 433.188Z" fill="white"/>
<path d="M380.803 179.104L700.82 598.373L1082.65 297.69" stroke="#263238" stroke-width="2.36067" stroke-linecap="round" stroke-linejoin="round"/>
<path d="M201.558 635.02L674.529 609.931L329.025 479.944" stroke="#263238" stroke-width="2.36067" stroke-linecap="round" stroke-linejoin="round"/>
<path d="M741.356 125.995L679.704 608.495L1084.11 676.37" stroke="#263238" stroke-width="2.36067" stroke-linecap="round" stroke-linejoin="round"/>
<path d="M310.148 948.989L647.935 598.831L1003.68 850.964" stroke="#263238" stroke-width="2.36067" stroke-linecap="round" stroke-linejoin="round"/>
<path d="M132.494 560.087C118.606 560.207 105.066 564.417 93.586 572.182C82.1056 579.948 73.2004 590.921 67.9965 603.714C62.7925 616.507 61.5237 630.546 64.3502 644.055C67.1768 657.563 73.972 669.936 83.8763 679.607C93.7807 689.278 106.349 695.813 119.993 698.387C133.637 700.961 147.743 699.457 160.527 694.066C173.312 688.674 184.2 679.638 191.816 668.099C199.432 656.56 203.433 643.037 203.314 629.239C203.13 610.745 195.572 593.078 182.295 580.114C169.019 567.151 151.109 559.948 132.494 560.087Z" fill="#263238"/>
<path fill-rule="evenodd" clip-rule="evenodd" d="M176.076 627.674C175.273 617.641 170.695 608.278 163.255 601.449C155.815 594.619 146.058 590.826 135.928 590.823C125.798 590.821 116.038 594.61 108.593 601.436C101.148 608.262 96.5638 617.623 95.7538 627.656C95.7587 628.227 95.7637 628.799 95.7689 629.4C95.8246 636.618 97.8771 643.683 101.702 649.821L94.6342 671.126L116.846 663.9C122.977 667.158 129.852 668.785 136.803 668.621C143.755 668.457 150.545 666.509 156.514 662.966C162.483 659.423 167.428 654.405 170.868 648.401C174.307 642.397 176.124 635.611 176.142 628.703C176.111 628.36 176.108 628.017 176.076 627.674ZM136.086 662.332C129.48 662.395 123 660.533 117.448 656.975L104.506 661.205L108.628 648.788C104.386 643.167 102.068 636.343 102.013 629.317C102.003 628.238 102.051 627.159 102.158 626.085C102.813 617.645 106.651 609.762 112.904 604.012C119.157 598.262 127.364 595.069 135.883 595.071C144.403 595.073 152.607 598.27 158.856 604.023C165.105 609.776 168.937 617.661 169.587 626.101C169.594 626.958 169.602 627.816 169.609 628.702C169.648 637.56 166.156 646.073 159.895 652.38C153.635 658.687 145.116 662.275 136.201 662.359L136.086 662.332Z" fill="white"/>
<path fill-rule="evenodd" clip-rule="evenodd" d="M154.429 636.868C153.418 636.391 148.649 634.059 147.639 633.782C146.63 633.505 146.081 633.31 145.428 634.287C144.774 635.265 142.894 637.454 142.353 638.117C141.812 638.779 141.208 638.842 140.196 638.364C137.282 637.256 134.589 635.643 132.241 633.601C130.07 631.679 128.206 629.439 126.715 626.958C126.131 625.991 126.702 625.443 127.13 624.953C127.557 624.463 128.098 623.83 128.583 623.254L128.953 622.793C129.18 622.415 129.378 622.022 129.547 621.615C129.688 621.356 129.761 621.065 129.759 620.77C129.756 620.475 129.678 620.186 129.532 619.929C129.269 619.445 127.271 614.659 126.419 612.722C125.568 610.785 124.765 611.135 124.19 611.14C123.614 611.145 122.952 611.151 122.29 611.156C121.794 611.169 121.305 611.284 120.856 611.495C120.407 611.705 120.007 612.007 119.682 612.38C118.576 613.428 117.704 614.695 117.121 616.099C116.539 617.502 116.259 619.012 116.299 620.529C116.324 621.654 116.508 622.768 116.846 623.841C117.635 626.26 118.843 628.524 120.415 630.53C120.91 631.155 127.329 641.249 137.377 645.051C147.425 648.852 147.413 647.566 149.225 647.378C150.597 647.105 151.896 646.546 153.035 645.738C154.174 644.929 155.127 643.89 155.832 642.689C156.447 641.235 156.633 639.636 156.368 638.081C156.048 637.655 155.297 637.347 154.429 636.868Z" fill="white"/>
<path d="M334.666 59.6569C316.143 60.1779 298.566 67.6562 285.707 80.4868C272.847 93.3174 265.731 110.478 265.886 128.285C266.04 146.091 273.453 163.126 286.532 175.731C299.612 188.337 317.316 195.51 335.846 195.709C345.264 195.811 354.61 194.106 363.337 190.693C372.063 187.281 379.995 182.23 386.667 175.837C393.339 169.444 398.618 161.836 402.194 153.46C405.77 145.084 407.571 136.108 407.493 127.057C407.414 118.006 405.457 109.062 401.737 100.749C398.016 92.4364 392.606 84.9216 385.824 78.645C379.042 72.3683 371.024 67.4559 362.24 64.1955C353.456 60.935 344.081 59.3921 334.666 59.6569Z" fill="#263238"/>
<path d="M383.173 105.091C382.647 103.171 381.597 101.421 380.131 100.023C378.665 98.6239 376.838 97.6269 374.836 97.1347C367.481 95.3029 338.156 95.5571 338.156 95.5571C338.156 95.5571 308.831 95.8113 301.538 97.7701C299.549 98.3084 297.741 99.3402 296.297 100.762C294.853 102.184 293.824 103.945 293.312 105.87C290.846 120.336 290.974 135.099 293.691 149.52C294.241 151.433 295.302 153.174 296.77 154.569C298.237 155.965 300.06 156.967 302.056 157.476C309.382 159.308 338.707 159.054 338.707 159.054C338.707 159.054 368.032 158.8 375.354 156.841C377.338 156.298 379.14 155.264 380.578 153.843C382.017 152.422 383.042 150.662 383.551 148.741C386.056 134.278 385.928 119.508 383.173 105.091Z" fill="white"/>
<path d="M328.977 140.796L328.745 113.981L353.371 127.176L328.977 140.796Z" fill="#263238"/>
<path d="M310.728 892.972C296.139 893.098 281.912 897.076 269.845 904.401C257.778 911.726 248.413 922.071 242.934 934.126C237.455 946.181 236.109 959.405 239.066 972.126C242.022 984.848 249.149 996.495 259.544 1005.6C269.939 1014.7 283.136 1020.84 297.466 1023.25C311.796 1025.66 326.616 1024.23 340.05 1019.14C353.485 1014.05 364.932 1005.53 372.943 994.654C380.954 983.778 385.17 971.037 385.057 958.041C384.906 940.614 376.99 923.968 363.051 911.765C349.111 899.563 330.29 892.802 310.728 892.972Z" fill="#263238"/>
<path d="M299.238 1000.92L318.323 1000.76L317.954 958.191L331.253 958.076L332.559 943.813L317.83 943.941L317.759 935.727C317.73 932.36 318.456 931.039 322.121 931.007L332.447 930.918L332.319 916.113L319.111 916.227C304.913 916.351 298.554 921.991 298.646 932.648L298.745 944.004L288.811 944.09L288.935 958.463L298.869 958.377L299.238 1000.92Z" fill="white"/>
<path d="M1050.83 798.6C1035.54 798.731 1020.63 803.043 1007.97 810.99C995.321 818.938 985.501 830.163 979.755 843.246C974.009 856.329 972.596 870.683 975.694 884.491C978.791 898.299 986.261 910.941 997.158 920.818C1008.05 930.695 1021.89 937.363 1036.91 939.979C1051.93 942.595 1067.47 941.041 1081.55 935.513C1095.63 929.986 1107.63 920.734 1116.02 908.927C1124.41 897.12 1128.83 883.289 1128.7 869.183C1128.52 850.287 1120.22 832.244 1105.62 819.012C1091.02 805.779 1071.32 798.439 1050.83 798.6Z" fill="#263238"/>
<path d="M1051.15 835.845C1063.18 835.737 1064.61 835.724 1069.36 835.915C1072.21 835.925 1075.04 836.383 1077.73 837.271C1079.68 837.931 1081.45 838.971 1082.92 840.321C1084.43 841.649 1085.59 843.277 1086.32 845.082C1087.34 847.539 1087.89 850.145 1087.93 852.78C1088.19 857.16 1088.27 858.62 1088.36 869.545C1088.45 880.471 1088.46 881.96 1088.21 886.345C1088.22 888.98 1087.71 891.596 1086.73 894.071C1086.04 895.883 1084.9 897.524 1083.41 898.862C1081.97 900.256 1080.22 901.34 1078.27 902.034C1075.6 902.97 1072.78 903.48 1069.92 903.541C1065.18 903.788 1063.75 903.83 1051.72 903.938C1039.68 904.046 1038.26 904.059 1033.5 903.868C1030.65 903.854 1027.82 903.395 1025.13 902.511C1023.18 901.852 1021.4 900.8 1019.94 899.432C1018.43 898.12 1017.26 896.5 1016.55 894.701C1015.52 892.244 1014.97 889.637 1014.93 887.003C1014.67 882.623 1014.6 881.309 1014.5 870.208C1014.41 859.108 1014.4 857.822 1014.65 853.438C1014.65 850.803 1015.15 848.187 1016.14 845.712C1016.83 843.894 1017.97 842.246 1019.45 840.891C1020.9 839.515 1022.65 838.443 1024.59 837.748C1027.26 836.816 1030.08 836.307 1032.94 836.242C1037.69 835.995 1039.11 835.953 1051.15 835.845ZM1051.08 828.366C1038.86 828.476 1037.31 828.49 1032.53 828.767C1028.85 828.847 1025.22 829.492 1021.77 830.675C1018.79 831.767 1016.08 833.423 1013.83 835.536C1011.58 837.65 1009.83 840.173 1008.7 842.945C1007.43 846.185 1006.75 849.598 1006.7 853.042C1006.51 857.484 1006.46 858.887 1006.55 870.163C1006.65 881.439 1006.66 882.87 1006.98 887.308C1007.09 890.75 1007.83 894.151 1009.16 897.367C1010.32 900.145 1012.1 902.666 1014.39 904.764C1016.67 906.863 1019.42 908.492 1022.44 909.547C1025.94 910.723 1029.64 911.342 1033.38 911.377C1038.16 911.538 1039.71 911.554 1051.94 911.444C1064.16 911.334 1065.71 911.32 1070.49 911.044C1074.23 910.942 1077.92 910.257 1081.4 909.018C1084.39 907.925 1087.09 906.269 1089.34 904.156C1091.6 902.043 1093.34 899.519 1094.48 896.747C1095.75 893.508 1096.43 890.095 1096.48 886.65C1096.67 882.208 1096.72 880.805 1096.62 869.5C1096.53 858.195 1096.52 856.822 1096.2 852.385C1096.09 848.942 1095.35 845.541 1094.02 842.325C1092.84 839.574 1091.05 837.082 1088.77 835.01C1086.48 832.937 1083.75 831.33 1080.74 830.291C1077.24 829.115 1073.54 828.496 1069.8 828.461C1065.02 828.3 1063.47 828.285 1051.24 828.394" fill="white"/>
<path d="M1051.25 848.552C1046.67 848.587 1042.2 849.875 1038.41 852.254C1034.62 854.632 1031.67 857.994 1029.95 861.913C1028.23 865.831 1027.8 870.132 1028.73 874.269C1029.66 878.406 1031.89 882.193 1035.16 885.152C1038.42 888.111 1042.57 890.109 1047.07 890.891C1051.57 891.674 1056.22 891.207 1060.44 889.549C1064.66 887.891 1068.25 885.117 1070.76 881.578C1073.27 878.04 1074.59 873.895 1074.55 869.669C1074.5 864.013 1072.02 858.611 1067.65 854.651C1063.28 850.691 1057.39 848.497 1051.25 848.552ZM1051.55 883.606C1048.58 883.633 1045.67 882.847 1043.19 881.347C1040.71 879.848 1038.76 877.703 1037.61 875.183C1036.45 872.663 1036.13 869.882 1036.69 867.19C1037.24 864.499 1038.65 862.019 1040.73 860.064C1042.82 858.109 1045.48 856.766 1048.39 856.205C1051.3 855.645 1054.32 855.892 1057.07 856.916C1059.82 857.939 1062.18 859.693 1063.85 861.955C1065.52 864.217 1066.42 866.886 1066.44 869.625C1066.47 873.297 1064.92 876.833 1062.13 879.455C1059.33 882.077 1055.53 883.57 1051.55 883.606Z" fill="white"/>
<path d="M1080.7 847.44C1080.72 848.43 1080.41 849.401 1079.83 850.232C1079.24 851.062 1078.4 851.715 1077.42 852.106C1076.43 852.497 1075.34 852.61 1074.29 852.43C1073.24 852.25 1072.26 851.786 1071.5 851.095C1070.73 850.404 1070.2 849.519 1069.98 848.551C1069.77 847.583 1069.86 846.577 1070.26 845.658C1070.66 844.74 1071.35 843.952 1072.24 843.394C1073.13 842.836 1074.17 842.533 1075.24 842.523C1076.67 842.51 1078.05 843.02 1079.07 843.941C1080.1 844.863 1080.68 846.121 1080.7 847.44Z" fill="white"/>
<path d="M1119.1 308.412C1098.99 308.586 1079.64 300.749 1065.29 286.624C1050.95 272.499 1042.79 253.244 1042.61 233.094C1042.44 212.944 1050.26 193.55 1064.36 179.179C1078.46 164.808 1097.68 156.636 1117.79 156.462C1137.9 156.287 1157.26 164.124 1171.6 178.249C1185.95 192.374 1194.1 211.629 1194.28 231.779C1194.45 251.929 1186.63 271.323 1172.53 285.694C1158.43 300.066 1139.22 308.237 1119.1 308.412Z" fill="#263238" stroke="#263238" stroke-width="2.36067" stroke-linecap="round" stroke-linejoin="round"/>
<path d="M1078.17 257.434C1086.74 262.233 1096.67 264.734 1106.8 264.64C1141.37 264.34 1160.71 238.133 1159.38 214.796C1162.97 212.404 1166.07 209.472 1168.53 206.133C1165.14 207.504 1161.54 208.414 1157.85 208.834C1161.72 206.725 1164.6 203.438 1165.96 199.584C1162.32 201.574 1158.34 202.997 1154.17 203.793C1151.34 201.151 1147.61 199.416 1143.55 198.857C1139.5 198.299 1135.35 198.947 1131.74 200.703C1128.14 202.458 1125.28 205.222 1123.62 208.567C1121.96 211.912 1121.57 215.65 1122.54 219.202C1115.13 218.941 1107.86 217.292 1101.22 214.364C1094.58 211.435 1088.71 207.292 1083.99 202.205C1081.64 205.879 1080.94 210.21 1082.05 214.317C1083.16 218.423 1085.98 221.997 1089.94 224.311C1086.99 224.256 1084.09 223.577 1081.49 222.33C1081.49 226.187 1082.99 229.921 1085.74 232.894C1088.49 235.867 1092.32 237.894 1096.57 238.628C1093.84 239.319 1090.96 239.435 1088.18 238.968C1089.39 242.259 1091.73 245.128 1094.87 247.171C1098.01 249.213 1101.79 250.327 1105.68 250.357C1097.91 255.854 1088.02 258.398 1078.17 257.434Z" fill="white"/>
<path d="M303.391 387.775C290.254 387.899 277.442 391.791 266.575 398.958C255.708 406.126 247.274 416.247 242.341 428.042C237.407 439.838 236.195 452.777 238.857 465.224C241.52 477.672 247.937 489.068 257.299 497.972C266.66 506.876 278.544 512.888 291.449 515.247C304.354 517.607 317.699 516.208 329.797 511.227C341.896 506.247 352.204 497.908 359.419 487.267C366.633 476.625 370.429 464.158 370.328 451.442C370.174 434.396 363.039 418.12 350.49 406.183C337.941 394.247 321.002 387.627 303.391 387.775Z" fill="#808080"/>
<path d="M284.399 435.401L269.784 435.539L270.148 481.215L284.764 481.077L284.399 435.401Z" fill="white"/>
<path d="M276.975 429.499C278.703 429.496 280.392 428.996 281.828 428.063C283.263 427.13 284.381 425.806 285.04 424.258C285.698 422.711 285.867 421.009 285.525 419.371C285.184 417.732 284.346 416.23 283.12 415.054C281.894 413.878 280.334 413.082 278.637 412.767C276.941 412.452 275.185 412.632 273.593 413.283C272 413.935 270.643 415.03 269.693 416.429C268.742 417.827 268.242 419.467 268.256 421.139C268.26 422.243 268.489 423.335 268.929 424.353C269.37 425.371 270.013 426.294 270.823 427.07C271.633 427.847 272.593 428.461 273.648 428.877C274.704 429.294 275.834 429.505 276.975 429.499Z" fill="white"/>
<path d="M307.944 456.901C307.893 450.462 310.896 446.63 316.756 446.575C322.616 446.52 324.713 450.17 324.765 456.743L324.957 480.698L339.503 480.561L339.273 451.735C339.175 439.523 331.958 433.652 321.893 433.747C319.051 433.737 316.253 434.443 313.774 435.794C311.295 437.145 309.22 439.095 307.752 441.454L307.703 435.349L293.674 435.481L294.038 481.156L308.068 481.024L307.944 456.901Z" fill="white"/>
<path d="M1131.37 736.292C1123.47 736.364 1115.63 734.98 1108.31 732.219C1100.99 729.458 1094.32 725.374 1088.7 720.2C1083.07 715.026 1078.58 708.864 1075.5 702.065C1072.43 695.266 1070.81 687.964 1070.75 680.576C1070.62 665.653 1076.84 651.285 1088.04 640.63C1099.23 629.976 1114.48 623.909 1130.44 623.764C1146.39 623.619 1161.74 629.407 1173.11 639.856C1184.48 650.305 1190.93 664.558 1191.06 679.48C1191.12 686.869 1189.62 694.2 1186.65 701.054C1183.69 707.907 1179.31 714.15 1173.77 719.426C1168.22 724.701 1161.63 728.906 1154.35 731.8C1147.08 734.694 1139.27 736.22 1131.37 736.292Z" fill="#808080"/>
<path d="M1122.24 701.433C1123.97 701.112 1125.6 700.423 1127 699.42C1128.2 698.558 1129.22 697.489 1129.98 696.27C1131.24 694.384 1131.88 692.198 1131.83 689.979C1131.87 687.938 1131.28 685.931 1130.13 684.199C1128.95 682.569 1127.23 681.356 1125.22 680.755C1126.44 680.212 1127.53 679.447 1128.42 678.503C1129.78 676.827 1130.45 674.758 1130.33 672.662C1130.37 670.511 1129.66 668.407 1128.33 666.66C1126.98 665.207 1125.29 664.078 1123.38 663.366C1121.48 662.654 1119.42 662.38 1117.37 662.567L1096.98 662.753L1097.31 702.138L1116.23 701.966C1118.24 701.987 1120.26 701.808 1122.24 701.433ZM1105.43 669.513L1114.6 669.429C1116.29 669.367 1117.98 669.561 1119.6 670.003C1120.35 670.293 1120.97 670.802 1121.38 671.452C1121.79 672.102 1121.97 672.859 1121.89 673.611C1121.97 674.282 1121.85 674.961 1121.56 675.578C1121.26 676.194 1120.79 676.725 1120.2 677.115C1118.84 677.821 1117.31 678.166 1115.76 678.112L1105.5 678.205L1105.43 669.513ZM1105.64 695.282L1105.56 684.76L1115.93 684.666C1117.37 684.596 1118.8 684.803 1120.15 685.275C1121.02 685.625 1121.75 686.22 1122.24 686.976C1122.73 687.733 1122.96 688.614 1122.89 689.498C1123.01 690.485 1122.81 691.483 1122.32 692.365C1121.83 693.247 1121.07 693.972 1120.13 694.446C1118.79 694.98 1117.33 695.233 1115.87 695.188L1105.64 695.282Z" fill="white"/>
<path d="M1138.85 699.228C1141.97 701.56 1145.87 702.79 1149.86 702.7C1152.03 702.811 1154.21 702.478 1156.23 701.727C1158.26 700.975 1160.08 699.821 1161.59 698.345C1163.16 696.931 1164.2 695.074 1164.55 693.057L1156.22 693.133C1155.82 693.899 1155.26 694.583 1154.58 695.146C1153.29 696.096 1151.69 696.59 1150.05 696.537C1148.47 696.592 1146.9 696.226 1145.53 695.481C1144.46 694.811 1143.6 693.895 1143.02 692.821C1142.44 691.747 1142.17 690.552 1142.23 689.35L1164.94 689.143C1165.01 687.208 1164.91 685.271 1164.65 683.35C1164.29 681.19 1163.42 679.132 1162.1 677.324C1160.76 675.456 1158.88 673.981 1156.68 673.069C1154.36 672.156 1151.86 671.709 1149.33 671.758C1147.28 671.701 1145.23 672.041 1143.31 672.755C1141.4 673.469 1139.66 674.543 1138.21 675.91C1136.75 677.496 1135.65 679.335 1134.95 681.32C1134.25 683.306 1133.98 685.4 1134.15 687.482C1133.91 689.648 1134.21 691.837 1135.02 693.875C1135.84 695.913 1137.15 697.745 1138.85 699.228ZM1144.53 679.763C1145.17 679.183 1145.93 678.732 1146.77 678.438C1147.6 678.145 1148.5 678.016 1149.39 678.059C1151.15 677.999 1152.88 678.543 1154.24 679.59C1154.92 680.176 1155.47 680.885 1155.85 681.675C1156.23 682.464 1156.43 683.318 1156.45 684.184L1142.4 684.312C1142.57 682.622 1143.31 681.027 1144.53 679.763Z" fill="white"/>
<path d="M1157.91 664.449L1139.56 664.616L1139.59 668.611L1157.94 668.444L1157.91 664.449Z" fill="white"/>
<path d="M742.679 126.845C724.036 127.012 706.101 120.524 692.82 108.808C679.539 97.0913 671.999 81.1065 671.859 64.3696C671.719 47.6327 678.99 31.5148 692.073 19.5616C705.157 7.6084 722.98 0.79906 741.623 0.631564C760.265 0.464068 778.2 6.95213 791.481 18.6685C804.763 30.3848 812.303 46.3696 812.443 63.1065C812.583 79.8434 805.311 95.9613 792.228 107.915C779.145 119.868 761.321 126.677 742.679 126.845Z" fill="#808080"/>
<path fill-rule="evenodd" clip-rule="evenodd" d="M783.1 80.5636C782.271 80.1579 781.38 79.8705 780.457 79.7112C776.112 78.3818 772.305 75.8711 769.536 72.5079C767.893 70.7011 766.571 68.6648 765.619 66.4748C765.405 66.0776 765.291 65.6402 765.288 65.196C765.284 64.7518 765.39 64.3124 765.598 63.9114C766.571 62.8537 767.861 62.0855 769.305 61.7039C771.13 61.1969 772.83 60.3659 774.311 59.2576C774.623 59.0175 774.873 58.7158 775.042 58.3748C775.061 58.2782 775.06 58.1791 775.039 58.0828C775.212 57.6862 775.208 57.2432 775.029 56.8498C774.629 56.177 774.009 55.6377 773.258 55.308C772.806 55.063 772.299 54.9149 771.775 54.8747C771.252 54.8345 770.725 54.9031 770.234 55.0756C769.371 55.3957 768.479 55.6427 767.569 55.8135C766.564 56.0374 765.519 56.0468 764.511 55.8409C764.511 55.8409 764.508 55.484 764.506 55.2244C764.491 53.5047 764.477 51.7525 764.461 49.9354C764.63 47.1211 764.536 44.2991 764.18 41.5007C763.034 36.7189 759.925 32.5367 755.506 29.8315C752.362 27.8804 748.716 26.727 744.933 26.4867C743.668 26.4981 742.438 26.5091 741.173 26.5205C736.65 26.3824 732.188 27.5356 728.395 29.8229C724.603 32.1101 721.664 35.4202 719.98 39.3018C718.803 42.6092 718.448 46.1172 718.941 49.5655C719.174 51.8076 719.251 54.0614 719.173 56.3132C718.012 56.5096 716.823 56.5202 715.658 56.3448C714.815 56.3523 713.897 55.9063 712.876 55.6558C712.405 55.5825 711.922 55.5986 711.458 55.7032C710.993 55.8078 710.557 55.9987 710.175 56.2642C709.764 56.4673 709.416 56.7621 709.161 57.1216C708.906 57.4811 708.753 57.8938 708.715 58.3217L708.717 58.5164C708.834 59.0582 709.163 59.5407 709.642 59.871L710.597 60.5115C712.394 61.4433 714.298 62.188 716.274 62.732C716.848 62.8994 717.374 63.1821 717.814 63.5596C718.255 63.9372 718.6 64.4003 718.823 64.9157C718.979 66.3223 718.633 67.7384 717.838 68.9485C715.893 72.5358 713.022 75.6268 709.477 77.9475C707.552 79.1689 705.422 80.0872 703.173 80.6651C702.292 80.8083 701.496 81.2421 700.934 81.8859L700.936 82.1131C700.844 82.3898 700.83 82.6833 700.893 82.9663C700.957 83.2493 701.097 83.5128 701.301 83.7323C701.562 84.0184 701.888 84.2481 702.255 84.4052C704.093 85.2589 706.05 85.8747 708.07 86.2351C709.272 86.3927 710.452 86.6649 711.592 87.0472L711.986 87.9523C712.346 88.9226 712.496 90.0245 712.892 91.1892C712.956 91.3519 713.065 91.4965 713.207 91.6089C713.35 91.7214 713.522 91.7978 713.706 91.8309C714.146 91.9946 714.639 91.9902 715.076 91.8186C718.074 91.1151 721.196 90.9876 724.247 91.4441C727.393 92.4894 730.363 93.9373 733.07 95.7457C735.16 97.0655 737.592 97.8499 740.119 98.0188C742.063 98.1161 744.011 98.0986 745.953 97.9664C747.584 97.8028 749.154 97.3006 750.546 96.4973C753.66 94.8144 756.385 92.8428 759.432 91.5499C760.582 91.2913 761.761 91.1608 762.943 91.1614C765.467 91.0516 767.995 91.1374 770.503 91.418C770.542 91.4328 770.584 91.4402 770.626 91.4398C770.668 91.4395 770.71 91.4313 770.749 91.4158C771.087 91.3752 771.398 91.2224 771.624 90.986C771.742 90.8414 771.825 90.6744 771.866 90.4971C771.863 90.1402 771.864 90.2375 771.866 90.4971C771.88 90.4328 771.88 90.3664 771.864 90.3024C772.124 89.1432 772.616 88.0384 773.313 87.0443C773.522 86.873 773.767 86.743 774.032 86.6625C774.297 86.582 774.578 86.5526 774.856 86.5762C776.905 86.2588 778.906 85.718 780.817 84.965C781.763 84.6702 782.6 84.1338 783.23 83.4181C783.365 83.2401 783.459 83.0386 783.506 82.8259C783.553 82.6133 783.553 82.394 783.505 82.1816C783.457 81.9693 783.363 81.7683 783.228 81.5911C783.092 81.4138 782.919 81.2641 782.719 81.1511L783.1 80.5636Z" fill="white"/>
<path d="M848.885 196.957L479.969 200.156C461.485 200.316 446.616 213.795 446.759 230.261L452.811 928.329C452.954 944.795 468.054 958.014 486.538 957.854L855.454 954.655C873.938 954.495 888.807 941.016 888.664 924.55L882.612 226.482C882.47 210.016 867.369 196.797 848.885 196.957Z" fill="#263238"/>
<mask id="mask0_5_905" style="mask-type:luminance" maskUnits="userSpaceOnUse" x="446" y="196" width="443" height="762">
<path d="M848.885 196.957L479.969 200.156C461.485 200.316 446.616 213.795 446.759 230.261L452.811 928.329C452.954 944.795 468.054 958.014 486.538 957.854L855.454 954.655C873.938 954.495 888.807 941.016 888.664 924.55L882.612 226.482C882.47 210.016 867.369 196.797 848.885 196.957Z" fill="white"/>
</mask>
<g mask="url(#mask0_5_905)">
<path opacity="0.2" d="M484.049 200.12C474.091 200.207 464.571 203.814 457.583 210.148C450.596 216.482 446.714 225.024 446.791 233.895L452.779 924.674C452.816 929.57 454.061 934.396 456.425 938.812C458.79 943.227 462.217 947.123 466.463 950.224L714.25 198.125L484.049 200.12Z" fill="white"/>
<path d="M685.592 934.196C685.569 931.584 684.677 929.038 683.029 926.88C681.381 924.723 679.05 923.05 676.332 922.075C673.614 921.1 670.63 920.866 667.759 921.402C664.888 921.938 662.258 923.22 660.202 925.087C658.146 926.953 656.757 929.32 656.21 931.887C655.663 934.455 655.983 937.108 657.129 939.51C658.275 941.913 660.196 943.957 662.649 945.384C665.102 946.811 667.976 947.557 670.909 947.528C672.854 947.511 674.777 947.152 676.568 946.473C678.359 945.794 679.983 944.807 681.347 943.568C682.711 942.33 683.788 940.865 684.516 939.257C685.244 937.649 685.61 935.929 685.592 934.196Z" stroke="white" stroke-width="2.36067" stroke-linecap="round" stroke-linejoin="round"/>
</g>
<path d="M848.885 196.957L479.969 200.156C461.485 200.316 446.616 213.795 446.759 230.261L452.811 928.329C452.954 944.795 468.054 958.014 486.538 957.854L855.454 954.655C873.938 954.495 888.807 941.016 888.664 924.55L882.612 226.482C882.47 210.016 867.369 196.797 848.885 196.957Z" stroke="#263238" stroke-width="2.36067" stroke-linecap="round" stroke-linejoin="round"/>
<path d="M863.391 248.293L466.308 251.736L472.041 913.007L869.124 909.564L863.391 248.293Z" fill="#FFC700" stroke="#263238" stroke-width="2.36067" stroke-linecap="round" stroke-linejoin="round"/>
<path d="M663.188 777.5C763.744 776.628 844.63 703.304 843.854 613.725C843.077 524.146 760.931 452.235 660.376 453.107C559.82 453.979 478.933 527.303 479.709 616.882C480.486 706.461 562.632 778.372 663.188 777.5Z" fill="#263238"/>
<path d="M851.955 327.762L480.735 330.98L481.388 406.277L852.608 403.059L851.955 327.762Z" fill="white"/>
<path d="M856.242 822.154L485.021 825.373L485.674 900.67L856.894 897.452L856.242 822.154Z" fill="white"/>
<path d="M856.015 795.974L484.794 799.192L484.822 802.457L856.043 799.239L856.015 795.974Z" fill="white"/>
<path d="M856.142 810.696L484.922 813.915L484.95 817.18L856.171 813.961L856.142 810.696Z" fill="white"/>
<path d="M849.943 255.269L817.029 255.554L817.168 271.632L850.083 271.347L849.943 255.269Z" stroke="#263238" stroke-width="1.93827" stroke-linecap="round" stroke-linejoin="round"/>
<path d="M842.706 255.331L817.029 255.554L817.168 271.632L842.845 271.409L842.706 255.331Z" fill="#263238" stroke="#263238" stroke-width="1.71166" stroke-linecap="round" stroke-linejoin="round"/>
<path d="M854.547 259.726L849.914 259.766L849.975 266.85L854.608 266.81L854.547 259.726Z" fill="#263238" stroke="#263238" stroke-width="1.71166" stroke-linecap="round" stroke-linejoin="round"/>
<path d="M481.393 263.454L475.354 263.506L475.434 272.726L481.473 272.674L481.393 263.454Z" fill="#263238" stroke="#263238" stroke-width="2.08467" stroke-linecap="round" stroke-linejoin="round"/>
<path d="M490.862 260.127L484.823 260.18L484.932 272.644L490.971 272.591L490.862 260.127Z" fill="#263238" stroke="#263238" stroke-width="2.08467" stroke-linecap="round" stroke-linejoin="round"/>
<path d="M500.303 256.226L494.264 256.278L494.405 272.562L500.444 272.509L500.303 256.226Z" fill="#263238" stroke="#263238" stroke-width="2.08467" stroke-linecap="round" stroke-linejoin="round"/>
<path d="M854.286 280.243L472.993 283.549L473.214 309.093L854.508 305.787L854.286 280.243Z" fill="#263238"/>
<mask id="mask1_5_905" style="mask-type:luminance" maskUnits="userSpaceOnUse" x="486" y="333" width="619" height="439">
<path d="M1101.24 333.753L637.108 337.777L638.171 460.425C609.442 463.96 582.128 473.778 558.672 489.003C535.216 504.228 516.348 524.385 503.753 547.672C491.158 570.96 485.23 596.653 486.497 622.456C487.765 648.258 496.189 673.366 511.017 695.536C525.845 717.706 546.615 736.246 571.47 749.501C596.326 762.756 624.492 770.312 653.453 771.494C682.414 772.677 711.267 767.448 737.434 756.276C763.601 745.103 786.266 728.335 803.404 707.471L1104.46 704.861L1101.24 333.753Z" fill="white"/>
</mask>
<g mask="url(#mask1_5_905)">
<path d="M471.862 769.897C471.862 769.897 519.145 618.758 528.039 586.461C536.934 554.164 550.628 533.078 579.212 527.717C607.796 522.356 660.608 517.155 660.608 517.155C660.608 517.155 706.512 512.65 739.814 514.414C773.116 516.179 803.702 531.767 819.862 542.47C836.022 553.173 882.86 589.997 882.86 589.997L876.375 504.133L918.307 506.83C918.307 506.83 949.77 626.237 953.972 648.214C958.173 670.192 958.281 679.904 954.269 682.485C950.257 685.066 957.186 686.567 920.351 676.126C883.516 665.685 840.33 651.253 816.743 645.318C793.155 639.382 790.265 638.38 790.265 638.38C790.265 638.38 733.31 716.128 715.185 739.305C702.748 755.758 691.709 773.015 682.161 790.93" fill="white"/>
<mask id="mask2_5_905" style="mask-type:luminance" maskUnits="userSpaceOnUse" x="471" y="504" width="487" height="287">
<path d="M471.862 769.897C471.862 769.897 519.145 618.758 528.039 586.461C536.934 554.164 550.628 533.078 579.212 527.717C607.796 522.356 660.608 517.155 660.608 517.155C660.608 517.155 706.512 512.65 739.814 514.414C773.116 516.179 803.702 531.767 819.862 542.47C836.022 553.173 882.86 589.997 882.86 589.997L876.375 504.133L918.307 506.83C918.307 506.83 949.77 626.237 953.972 648.214C958.173 670.192 958.281 679.904 954.269 682.485C950.257 685.066 957.186 686.567 920.351 676.126C883.516 665.685 840.33 651.253 816.743 645.318C793.155 639.382 790.265 638.38 790.265 638.38C790.265 638.38 733.31 716.128 715.185 739.305C702.748 755.758 691.709 773.015 682.161 790.93" fill="white"/>
</mask>
<g mask="url(#mask2_5_905)">
<path opacity="0.2" d="M954.198 682.322C958.209 679.741 958.125 669.966 953.901 648.051C951.482 634.95 939.196 587.188 929.752 550.758C933.744 593.848 935.516 635.971 928.254 643.899C912.266 661.041 888.493 638.905 888.493 638.905L883.71 605.802C883.71 605.802 802.9 553.706 772.673 545.015C742.446 536.323 710.345 534.815 679.236 544.038C648.127 553.261 622.135 562.44 603.197 579.608C584.259 596.775 519.238 733.365 519.238 733.365L512.097 773.82L682.089 790.664C691.637 772.748 702.676 755.492 715.112 739.039C733.353 715.861 790.193 638.114 790.193 638.114C790.193 638.114 793.083 639.116 816.67 645.051C840.258 650.987 883.444 665.439 920.279 675.86C957.113 686.28 950.209 684.923 954.198 682.322Z" fill="black"/>
</g>
<path d="M471.862 769.897C471.862 769.897 519.145 618.758 528.039 586.461C536.934 554.164 550.628 533.078 579.212 527.717C607.796 522.356 660.608 517.155 660.608 517.155C660.608 517.155 706.512 512.65 739.814 514.414C773.116 516.179 803.702 531.767 819.862 542.47C836.022 553.173 882.86 589.997 882.86 589.997L876.375 504.133L918.307 506.83C918.307 506.83 949.77 626.237 953.972 648.214C958.173 670.192 958.281 679.904 954.269 682.485C950.257 685.066 957.186 686.567 920.351 676.126C883.516 665.685 840.33 651.253 816.743 645.318C793.155 639.382 790.265 638.38 790.265 638.38C790.265 638.38 733.31 716.128 715.185 739.305C702.748 755.758 691.709 773.015 682.161 790.93" stroke="#263238" stroke-width="2.36067" stroke-linecap="round" stroke-linejoin="round"/>
<path d="M806.377 614.358L790.194 638.237L838.485 614.08" stroke="#263238" stroke-width="2.36067" stroke-linecap="round" stroke-linejoin="round"/>
<path d="M882.789 589.854C882.789 589.854 885.462 632.277 888.378 638.906C891.293 645.534 903.974 648.484 903.974 648.484" fill="white"/>
<path d="M882.789 589.854C882.789 589.854 885.462 632.277 888.378 638.906C891.293 645.534 903.974 648.484 903.974 648.484" stroke="#263238" stroke-width="2.36067" stroke-linecap="round" stroke-linejoin="round"/>
<path d="M629.803 590.753C629.803 590.753 623.649 604.052 626.784 604.025C629.918 603.998 650.211 596.86 659.615 596.779C669.019 596.697 679.311 611.25 679.311 611.25C679.311 611.25 706.56 592.881 715.198 594.901C719.431 596.123 723.322 598.133 726.614 600.798C727.162 601.216 727.832 601.488 728.547 601.58C729.262 601.673 729.992 601.584 730.653 601.322C731.314 601.061 731.879 600.638 732.282 600.103C732.685 599.568 732.91 598.943 732.931 598.299C733.06 594.54 733.154 589.406 733.097 582.876C732.964 567.537 717.734 525.818 690.31 523.961C662.886 522.104 658.335 539.578 646.831 560.604C635.326 581.629 629.803 590.753 629.803 590.753Z" fill="#263238"/>
<path d="M687.959 499.996C687.959 499.996 661.571 503.347 649.605 513.718C637.639 524.089 641.791 540.379 635.604 555.259C629.417 570.139 618.777 600.419 624.465 599.856C630.154 599.293 650.175 584.806 655.946 588.33C661.716 591.853 675.053 606.646 677.366 607.57C679.679 608.495 708.789 589.412 712.781 587.323C716.774 585.235 736.493 607.653 737.016 601.488C737.539 595.323 738.377 559.03 734.152 537.073C729.928 515.116 701.171 500.395 687.959 499.996Z" fill="white" stroke="#263238" stroke-width="2.36067" stroke-linecap="round" stroke-linejoin="round"/>
<path d="M696.885 471.272C696.885 471.272 687.366 497.948 679.356 507.299C671.346 516.651 667.924 518.139 665.298 539.641C662.672 561.144 675.656 609.618 679.726 608.556C683.797 607.494 722.863 550.909 735.99 541.575C749.118 532.241 762.817 522.429 762.817 522.429C762.817 522.429 730.588 514.002 719.579 501.837C711.255 492.114 703.674 481.902 696.885 471.272Z" fill="white"/>
<mask id="mask3_5_905" style="mask-type:luminance" maskUnits="userSpaceOnUse" x="664" y="471" width="99" height="138">
<path d="M696.885 471.272C696.885 471.272 687.366 497.948 679.356 507.299C671.346 516.651 667.924 518.139 665.298 539.641C662.672 561.144 675.656 609.618 679.726 608.556C683.797 607.494 722.863 550.909 735.99 541.575C749.118 532.241 762.817 522.429 762.817 522.429C762.817 522.429 730.588 514.002 719.579 501.837C711.255 492.114 703.674 481.902 696.885 471.272Z" fill="white"/>
</mask>
<g mask="url(#mask3_5_905)">
<path opacity="0.2" d="M741.649 537.562C752.761 529.642 762.795 522.45 762.795 522.45C762.795 522.45 730.565 514.022 719.556 501.858C711.243 492.153 703.67 481.963 696.886 471.354C693.621 480.385 689.796 489.248 685.429 497.903C690.398 509.996 704.123 529.674 741.649 537.562Z" fill="black"/>
<path d="M719.556 501.776C711.243 492.071 703.669 481.881 696.886 471.272C696.886 471.272 693.69 480.233 689.461 489.572C693.113 498.761 700.4 512.415 713.309 520.394C723.744 526.475 735.298 530.878 747.446 533.405L762.795 522.429C762.795 522.429 730.565 513.94 719.556 501.776Z" fill="#263238"/>
</g>
<path d="M696.885 471.272C696.885 471.272 687.366 497.948 679.356 507.299C671.346 516.651 667.924 518.139 665.298 539.641C662.672 561.144 675.656 609.618 679.726 608.556C683.797 607.494 722.863 550.909 735.99 541.575C749.118 532.241 762.817 522.429 762.817 522.429C762.817 522.429 730.588 514.002 719.579 501.837C711.255 492.114 703.674 481.902 696.885 471.272Z" stroke="#263238" stroke-width="2.36067" stroke-linecap="round" stroke-linejoin="round"/>
<path d="M818.577 402.204C818.577 402.204 817.168 436.49 818.395 447.712C819.622 458.934 824.401 478.463 814.21 496.848C804.02 515.234 795.525 527.197 785.801 530.341C776.078 533.485 744.446 527.64 719.037 510.98C693.628 494.321 688.739 459.597 684.608 448.379C680.477 437.162 684.754 398.764 710.487 386.261C731.324 376.487 755.58 374.26 778.182 380.048C792.025 384.014 818.577 402.204 818.577 402.204Z" fill="white"/>
<mask id="mask4_5_905" style="mask-type:luminance" maskUnits="userSpaceOnUse" x="683" y="376" width="138" height="156">
<path d="M818.577 402.204C818.577 402.204 817.168 436.49 818.395 447.712C819.622 458.934 824.401 478.463 814.21 496.848C804.02 515.234 795.525 527.197 785.801 530.341C776.078 533.485 744.446 527.64 719.037 510.98C693.628 494.321 688.739 459.597 684.608 448.379C680.477 437.162 684.754 398.764 710.487 386.261C731.324 376.487 755.58 374.26 778.182 380.048C792.025 384.014 818.577 402.204 818.577 402.204Z" fill="white"/>
</mask>
<g mask="url(#mask4_5_905)">
<path opacity="0.2" d="M710.579 386.261C706.91 388.07 703.591 390.394 700.749 393.143L714.122 401.447C714.122 401.447 731.071 386.083 769.497 407.23C789.324 418.147 806.35 419.786 818.213 418.8C818.411 409.681 818.715 402.203 818.715 402.203C818.715 402.203 792.162 383.952 778.343 379.965C755.708 374.186 731.423 376.443 710.579 386.261Z" fill="black"/>
</g>
<path d="M818.577 402.204C818.577 402.204 817.168 436.49 818.395 447.712C819.622 458.934 824.401 478.463 814.21 496.848C804.02 515.234 795.525 527.197 785.801 530.341C776.078 533.485 744.446 527.64 719.037 510.98C693.628 494.321 688.739 459.597 684.608 448.379C680.477 437.162 684.754 398.764 710.487 386.261C731.324 376.487 755.58 374.26 778.182 380.048C792.025 384.014 818.577 402.204 818.577 402.204Z" stroke="#263238" stroke-width="2.36067" stroke-linecap="round" stroke-linejoin="round"/>
<path d="M764.763 448.896C764.795 452.53 763.23 455.501 761.271 455.518C759.312 455.535 757.696 452.592 757.664 448.957C757.633 445.323 759.197 442.332 761.157 442.315C763.116 442.298 764.732 445.241 764.763 448.896Z" fill="#263238"/>
<path d="M806.721 451.961C806.753 455.616 805.188 458.587 803.229 458.604C801.27 458.621 799.654 455.678 799.622 452.023C799.59 448.368 801.155 445.418 803.114 445.401C805.074 445.384 806.69 448.327 806.721 451.961Z" fill="#263238"/>
<path d="M795.388 442.305C795.388 442.305 784.57 452.112 787.463 456.174C790.357 460.235 797.061 462.477 795.038 468.429C793.015 474.382 777.891 476.792 772.657 468.623" stroke="#263238" stroke-width="2.36067" stroke-linecap="round" stroke-linejoin="round"/>
<path d="M739.974 474.492C744.295 479.083 749.667 482.798 755.731 485.391C761.795 487.983 768.413 489.394 775.142 489.527C775.142 489.527 751.706 503.53 741.367 502.141C731.028 500.753 739.974 474.492 739.974 474.492Z" fill="#263238" stroke="#263238" stroke-width="2.36067" stroke-linecap="round" stroke-linejoin="round"/>
<path d="M745.094 429.558C745.094 429.558 754.991 417.151 775.018 424.637" stroke="#263238" stroke-width="2.36067" stroke-linecap="round" stroke-linejoin="round"/>
<path d="M799.288 429.478C799.288 429.478 811.897 426.781 816.577 437.542" stroke="#263238" stroke-width="2.36067" stroke-linecap="round" stroke-linejoin="round"/>
<path d="M688.785 462.143C688.785 462.143 693.775 442.16 706.344 434.884C718.913 427.608 730.982 429.043 723.43 419.396C715.877 409.748 711.736 400.05 727.831 395.311C743.926 390.571 775.502 397.978 793.926 403.958C812.35 409.938 847.958 411.704 856.955 388.564C862.502 374.306 845.808 363.136 833.633 357.43C820.139 351.14 805.037 348.088 789.891 350.601C780.683 352.098 771.929 355.398 762.716 356.299C747.123 357.851 733.307 351.523 717.777 355.005C704.742 357.895 693.107 364.483 684.63 373.774C670.36 389.669 666.575 418.348 688.785 462.143Z" fill="#263238"/>
<mask id="mask5_5_905" style="mask-type:luminance" maskUnits="userSpaceOnUse" x="673" y="349" width="186" height="114">
<path d="M688.785 462.143C688.785 462.143 693.775 442.16 706.344 434.884C718.913 427.608 730.982 429.043 723.43 419.396C715.877 409.748 711.736 400.05 727.831 395.311C743.926 390.571 775.502 397.978 793.926 403.958C812.35 409.938 847.958 411.704 856.955 388.564C862.502 374.306 845.808 363.136 833.633 357.43C820.139 351.14 805.037 348.088 789.891 350.601C780.683 352.098 771.929 355.398 762.716 356.299C747.123 357.851 733.307 351.523 717.777 355.005C704.742 357.895 693.107 364.483 684.63 373.774C670.36 389.669 666.575 418.348 688.785 462.143Z" fill="white"/>
</mask>
<g mask="url(#mask5_5_905)">
<path d="M820.746 349.369C820.746 349.369 850.698 363.484 830.021 387.546C809.345 411.608 789.541 395.351 739.933 387.279C690.325 379.208 661.309 401.248 661.309 401.248" stroke="#808080" stroke-width="2.36067" stroke-linecap="round" stroke-linejoin="round"/>
<path d="M665.708 427.33C665.708 427.33 675.108 410.82 706.091 405.726C737.074 400.631 738.909 404.907 738.909 404.907" stroke="#808080" stroke-width="2.36067" stroke-linecap="round" stroke-linejoin="round"/>
</g>
<path d="M688.785 462.143C688.785 462.143 693.775 442.16 706.344 434.884C718.913 427.608 730.982 429.043 723.43 419.396C715.877 409.748 711.736 400.05 727.831 395.311C743.926 390.571 775.502 397.978 793.926 403.958C812.35 409.938 847.958 411.704 856.955 388.564C862.502 374.306 845.808 363.136 833.633 357.43C820.139 351.14 805.037 348.088 789.891 350.601C780.683 352.098 771.929 355.398 762.716 356.299C747.123 357.851 733.307 351.523 717.777 355.005C704.742 357.895 693.107 364.483 684.63 373.774C670.36 389.669 666.575 418.348 688.785 462.143Z" stroke="#263238" stroke-width="2.36067" stroke-linecap="round" stroke-linejoin="round"/>
<path d="M701.698 454.761C701.698 454.761 686.545 424.521 673.567 440.445C660.588 456.37 684.526 476.164 702.333 472.129" fill="white"/>
<path d="M701.698 454.761C701.698 454.761 686.545 424.521 673.567 440.445C660.588 456.37 684.526 476.164 702.333 472.129" stroke="#263238" stroke-width="2.36067" stroke-linecap="round" stroke-linejoin="round"/>
<path d="M863.779 449.886C863.779 449.886 854.02 448.943 852.308 456.146C850.595 463.348 849.011 474.656 852.468 474.626C855.926 474.596 862.205 473.022 864.47 468.361C866.734 463.701 868.915 449.389 868.915 449.389L863.779 449.886Z" fill="white" stroke="#263238" stroke-width="2.36067" stroke-linecap="round" stroke-linejoin="round"/>
<path d="M879.246 447.184C879.246 447.184 865.399 445.251 863.779 449.886C862.16 454.52 859.947 470.454 861.656 470.87C863.366 471.287 873.68 467.193 873.68 467.193L879.246 447.184Z" fill="white" stroke="#263238" stroke-width="2.36067" stroke-linecap="round" stroke-linejoin="round"/>
<path d="M897.626 448.052C897.626 448.052 881.412 438.993 877.51 443.626C873.609 448.26 873.68 467.193 873.68 467.193C875.11 467.462 876.592 467.408 877.994 467.037C879.395 466.667 880.672 465.99 881.707 465.07C884.562 461.985 887.961 457.869 887.961 457.869C887.961 457.869 899.507 460.316 901.186 459.808C902.864 459.301 906.925 459.759 905.751 454.655C904.578 449.552 897.626 448.052 897.626 448.052Z" fill="white" stroke="#263238" stroke-width="2.36067" stroke-linecap="round" stroke-linejoin="round"/>
<path d="M919.534 457.082C912.251 452.684 906.288 446.765 902.166 439.839C896.333 429.15 893.456 429.647 890.592 434.313C887.728 438.979 891.225 443.507 893.565 447.574C895.906 451.64 905.74 461.288 905.74 461.288L919.534 457.082Z" fill="white" stroke="#263238" stroke-width="2.36067" stroke-linecap="round" stroke-linejoin="round"/>
<path d="M816.891 529.517C816.891 529.517 809.119 592.895 810.439 596.313C811.76 599.731 825.855 603.593 829.039 601.286C832.223 598.979 830.27 594.437 828.955 591.594C827.639 588.751 839.35 535.607 839.35 535.607L816.891 529.517Z" fill="#92E3A9" stroke="#263238" stroke-width="2.36067" stroke-linecap="round" stroke-linejoin="round"/>
<path d="M607.441 553.265L650.593 670.127C650.593 670.127 746.968 619.062 769.422 592.665C791.876 566.267 804.712 536.605 812.709 533.763C820.707 530.922 849.072 537.555 853.256 541.626C857.441 545.697 856.512 550.202 851.524 554.476C846.535 558.749 843.682 559.369 843.682 559.369C843.682 559.369 843.509 568.591 841.264 570.213C839.019 571.834 839.531 569.755 838.972 571.814C838.599 574.013 837.715 576.119 836.375 577.997C834.733 580.065 834.097 581.138 832.512 581.706C829.22 582.987 825.792 583.966 822.279 584.629C816.096 586.105 809.804 587.189 803.451 587.872C799.468 588.523 773.887 634.477 749.737 661.937C725.586 689.396 649.094 752.549 636.996 752.982C624.898 753.416 552.904 649.433 537.446 623.877" fill="white"/>
<mask id="mask6_5_905" style="mask-type:luminance" maskUnits="userSpaceOnUse" x="537" y="533" width="319" height="220">
<path d="M607.441 553.265L650.593 670.127C650.593 670.127 746.968 619.062 769.422 592.665C791.876 566.267 804.712 536.605 812.709 533.763C820.707 530.922 849.072 537.555 853.256 541.626C857.441 545.697 856.512 550.202 851.524 554.476C846.535 558.749 843.682 559.369 843.682 559.369C843.682 559.369 843.509 568.591 841.264 570.213C839.019 571.834 839.531 569.755 838.972 571.814C838.599 574.013 837.715 576.119 836.375 577.997C834.733 580.065 834.097 581.138 832.512 581.706C829.22 582.987 825.792 583.966 822.279 584.629C816.096 586.105 809.804 587.189 803.451 587.872C799.468 588.523 773.887 634.477 749.737 661.937C725.586 689.396 649.094 752.549 636.996 752.982C624.898 753.416 552.904 649.433 537.446 623.877" fill="white"/>
</mask>
<g mask="url(#mask6_5_905)">
<path opacity="0.2" d="M836.375 577.956C837.714 576.077 838.599 573.971 838.972 571.773C839.461 569.715 838.972 571.772 841.263 570.171C843.555 568.57 843.682 559.328 843.682 559.328C843.682 559.328 846.535 558.708 851.523 554.435C856.512 550.161 857.463 545.532 853.256 541.585C849.049 537.638 820.638 530.984 812.709 533.722C810.641 534.459 808.127 537.048 805.395 540.932C809.666 547.056 814.701 550.77 810.184 561.57C803.412 578.057 787.455 598.73 773.776 616.304C760.097 633.878 645.684 731.386 631.836 729.452C620.527 727.866 587.421 692.874 575.646 680.182C600.942 715.674 629.851 753.147 637.111 752.899C649.163 752.466 725.747 689.333 749.851 661.853C773.956 634.373 799.467 588.4 803.45 587.831C809.804 587.148 816.096 586.064 822.278 584.588C825.791 583.925 829.22 582.946 832.511 581.665C834.212 581.096 834.733 580.064 836.375 577.956Z" fill="black"/>
</g>
<path d="M607.441 553.265L650.593 670.127C650.593 670.127 746.968 619.062 769.422 592.665C791.876 566.267 804.712 536.605 812.709 533.763C820.707 530.922 849.072 537.555 853.256 541.626C857.441 545.697 856.512 550.202 851.524 554.476C846.535 558.749 843.682 559.369 843.682 559.369C843.682 559.369 843.509 568.591 841.264 570.213C839.019 571.834 839.531 569.755 838.972 571.814C838.599 574.013 837.715 576.119 836.375 577.997C834.733 580.065 834.097 581.138 832.512 581.706C829.22 582.987 825.792 583.966 822.279 584.629C816.096 586.105 809.804 587.189 803.451 587.872C799.468 588.523 773.887 634.477 749.737 661.937C725.586 689.396 649.094 752.549 636.996 752.982C624.898 753.416 552.904 649.433 537.446 623.877" stroke="#263238" stroke-width="2.36067" stroke-linecap="round" stroke-linejoin="round"/>
<path d="M650.592 670.127C650.592 670.127 639.555 670.634 630.425 696.998" stroke="#263238" stroke-width="2.36067" stroke-linecap="round" stroke-linejoin="round"/>
<path d="M822.277 584.588C825.79 583.925 829.219 582.946 832.51 581.665C834.211 581.096 834.801 580.064 836.373 577.956C837.713 576.078 838.598 573.971 838.971 571.773C839.46 569.715 840.952 569.004 843.174 567.383C845.396 565.762 843.611 559.329 843.611 559.329C843.611 559.329 846.464 558.709 851.453 554.435C856.441 550.162 857.392 545.533 853.185 541.586C848.979 537.638 820.568 530.985 812.639 533.723C804.71 536.461 792.914 563.814 772.274 589.313L791.805 603.313C797.811 594.225 802.092 588.069 803.519 587.831C809.849 587.145 816.117 586.061 822.277 584.588Z" fill="white"/>
<mask id="mask7_5_905" style="mask-type:luminance" maskUnits="userSpaceOnUse" x="772" y="533" width="84" height="71">
<path d="M822.277 584.588C825.79 583.925 829.219 582.946 832.51 581.665C834.211 581.096 834.801 580.064 836.373 577.956C837.713 576.078 838.598 573.971 838.971 571.773C839.46 569.715 840.952 569.004 843.174 567.383C845.396 565.762 843.611 559.329 843.611 559.329C843.611 559.329 846.464 558.709 851.453 554.435C856.441 550.162 857.392 545.533 853.185 541.586C848.979 537.638 820.568 530.985 812.639 533.723C804.71 536.461 792.914 563.814 772.274 589.313L791.805 603.313C797.811 594.225 802.092 588.069 803.519 587.831C809.849 587.145 816.117 586.061 822.277 584.588Z" fill="white"/>
</mask>
<g mask="url(#mask7_5_905)">
<path opacity="0.2" d="M836.375 577.956C837.714 576.077 838.599 573.971 838.972 571.773C839.461 569.715 838.972 571.773 841.263 570.171C843.555 568.57 843.682 559.328 843.682 559.328C843.682 559.328 846.535 558.708 851.523 554.435C856.512 550.161 857.463 545.532 853.256 541.585C849.049 537.638 820.638 530.984 812.709 533.722C810.641 534.459 808.127 537.048 805.395 540.932C809.666 547.056 814.701 550.77 810.184 561.57C803.412 578.057 787.455 598.73 773.776 616.304C760.097 633.878 645.684 731.386 631.836 729.452C620.527 727.866 587.421 692.874 575.647 680.182C600.942 715.674 629.851 753.147 637.111 752.899C649.163 752.466 725.747 689.333 749.851 661.853C773.956 634.374 799.467 588.4 803.45 587.831C809.804 587.148 816.096 586.064 822.278 584.588C825.791 583.925 829.22 582.946 832.511 581.665C834.212 581.096 834.733 580.065 836.375 577.956Z" fill="black"/>
</g>
<path d="M822.277 584.588C825.79 583.925 829.219 582.946 832.51 581.665C834.211 581.096 834.801 580.064 836.373 577.956C837.713 576.078 838.598 573.971 838.971 571.773C839.46 569.715 840.952 569.004 843.174 567.383C845.396 565.762 843.611 559.329 843.611 559.329C843.611 559.329 846.464 558.709 851.453 554.435C856.441 550.162 857.392 545.533 853.185 541.586C848.979 537.638 820.568 530.985 812.639 533.723C804.71 536.461 792.914 563.814 772.274 589.313L791.805 603.313C797.811 594.225 802.092 588.069 803.519 587.831C809.849 587.145 816.117 586.061 822.277 584.588Z" stroke="#263238" stroke-width="2.36067" stroke-linecap="round" stroke-linejoin="round"/>
<path d="M796.363 488.317C790.025 488.372 784.91 496.63 784.996 506.568C785.082 516.507 790.293 524.676 796.678 524.62L937.611 561.245L936.627 447.714L796.363 488.317Z" fill="#FFC700" stroke="#263238" stroke-width="2.36067" stroke-linecap="round" stroke-linejoin="round"/>
<path d="M875.339 472.518L820.603 487.059" stroke="#263238" stroke-width="2.36067" stroke-linecap="round" stroke-linejoin="round"/>
<path d="M893.647 467.657L882.194 470.713" stroke="#263238" stroke-width="2.36067" stroke-linecap="round" stroke-linejoin="round"/>
<path d="M814.321 483.109L796.363 488.317C790.025 488.372 784.91 496.63 784.996 506.568C785.082 516.507 790.293 524.676 796.678 524.62L812.966 528.853C809.084 521.691 807.181 513.803 807.417 505.846C807.653 497.889 810.02 490.093 814.321 483.109Z" fill="#263238" stroke="#263238" stroke-width="2.36067" stroke-linecap="round" stroke-linejoin="round"/>
<path d="M949.887 581.387C976.518 581.156 997.811 546.834 997.446 504.727C997.081 462.619 975.196 428.672 948.565 428.903C921.934 429.133 900.642 463.455 901.007 505.563C901.372 547.67 923.256 581.618 949.887 581.387Z" fill="#D6D6D6" stroke="#263238" stroke-width="2.36067" stroke-linecap="round" stroke-linejoin="round"/>
<path d="M949.08 488.225L903.047 477.679L899.289 506.871L904.709 536.477L949.373 522.065L950.815 489.031" fill="#D6D6D6"/>
<path d="M949.08 488.225L903.047 477.679L899.289 506.871L904.709 536.477L949.373 522.065L950.815 489.031" stroke="#263238" stroke-width="2.36067" stroke-linecap="round" stroke-linejoin="round"/>
<path d="M948.506 422.044C919.486 422.296 896.275 459.707 896.673 505.6C897.071 551.493 920.927 588.497 949.947 588.245C978.966 587.993 1002.18 550.582 1001.78 504.689C1001.38 458.796 977.525 421.793 948.506 422.044ZM951.135 576.447C926.956 576.657 907.064 544.897 906.723 505.513C906.381 466.129 925.72 434.05 949.899 433.84C974.078 433.63 993.97 465.37 994.311 504.754C994.653 544.138 975.337 576.238 951.135 576.447Z" fill="#263238" stroke="#263238" stroke-width="2.36067" stroke-linecap="round" stroke-linejoin="round"/>
<path d="M949.374 522.064C955.281 522.013 960.003 514.396 959.922 505.052C959.841 495.707 954.987 488.174 949.08 488.225C943.174 488.276 938.451 495.893 938.532 505.237C938.613 514.582 943.467 522.116 949.374 522.064Z" fill="#FFC700" stroke="#263238" stroke-width="2.36067" stroke-linecap="round" stroke-linejoin="round"/>
<path d="M1084.01 417.769L1094.66 414.719" stroke="#263238" stroke-width="2.36067" stroke-linecap="round" stroke-linejoin="round"/>
<path d="M1007.79 439.499L1070.88 421.497" stroke="#263238" stroke-width="2.36067" stroke-linecap="round" stroke-linejoin="round"/>
<path d="M1016.61 500.371L1074.67 501.716" stroke="#263238" stroke-width="2.36067" stroke-linecap="round" stroke-linejoin="round"/>
<path d="M1065.35 575.909L1077.42 579.254" stroke="#263238" stroke-width="2.36067" stroke-linecap="round" stroke-linejoin="round"/>
<path d="M1012.99 561.352L1055.79 573.261" stroke="#263238" stroke-width="2.36067" stroke-linecap="round" stroke-linejoin="round"/>
<path d="M1014.25 467.145L1045.31 463.179" stroke="#263238" stroke-width="2.36067" stroke-linecap="round" stroke-linejoin="round"/>
<path d="M1000.72 581.767L1023.68 598.202" stroke="#263238" stroke-width="2.36067" stroke-linecap="round" stroke-linejoin="round"/>
</g>
<path d="M1200.47 1001.44L1369.33 1004.4C1377.09 1004.54 1383.49 999.401 1383.61 992.947L1385.25 899.335C1385.36 892.88 1379.14 887.522 1371.38 887.386L1244.6 885.164L1202.89 861.077L1202.52 884.426C1194.76 884.29 1188.36 889.427 1188.25 895.881L1186.6 989.494C1186.49 995.948 1192.71 1001.31 1200.47 1001.44Z" fill="#FFC700" fill-opacity="0.4"/>
<path opacity="0.2" d="M1191.4 942.313C1191 965.24 1208.71 986.273 1237.58 1001.65L1370.07 1003.97C1382.46 1004.19 1392.62 999.117 1392.74 992.663L1394.38 899.05C1394.49 892.596 1384.51 887.172 1372.12 886.955L1239.63 884.632C1210.24 898.986 1191.8 919.385 1191.4 942.313Z" fill="#FFC700" fill-opacity="0.4"/>
<path d="M1356.28 945.648C1356.34 942.544 1354.91 939.542 1352.31 937.301C1349.71 935.06 1346.15 933.765 1342.42 933.699C1338.68 933.634 1335.08 934.804 1332.41 936.952C1329.73 939.1 1328.19 942.051 1328.14 945.154C1328.09 948.258 1329.52 951.26 1332.12 953.501C1334.72 955.741 1338.27 957.037 1342.01 957.102C1345.74 957.168 1349.34 955.998 1352.02 953.85C1354.69 951.701 1356.23 948.751 1356.28 945.648Z" fill="#333333"/>
<path d="M1300 944.661C1300.05 941.557 1298.62 938.555 1296.02 936.314C1293.42 934.074 1289.86 932.778 1286.13 932.713C1282.4 932.647 1278.8 933.817 1276.12 935.966C1273.44 938.114 1271.91 941.064 1271.85 944.168C1271.8 947.271 1273.23 950.273 1275.83 952.514C1278.43 954.755 1281.99 956.05 1285.72 956.116C1289.45 956.181 1293.05 955.011 1295.73 952.863C1298.41 950.715 1299.94 947.764 1300 944.661Z" fill="#333333"/>
<path d="M1243.71 943.674C1243.77 940.571 1242.34 937.568 1239.73 935.328C1237.13 933.087 1233.58 931.791 1229.84 931.726C1226.11 931.66 1222.51 932.831 1219.83 934.979C1217.16 937.127 1215.62 940.077 1215.57 943.181C1215.51 946.284 1216.94 949.287 1219.54 951.527C1222.15 953.768 1225.7 955.064 1229.43 955.129C1233.17 955.194 1236.77 954.024 1239.44 951.876C1242.12 949.728 1243.66 946.778 1243.71 943.674Z" fill="#333333"/>
<path d="M1582.43 1006.83L1558.34 978.93C1569.62 961.409 1572.37 940.138 1565.81 920.238C1565.2 918.363 1563.07 917.353 1561.09 917.93C1559.1 918.507 1557.96 920.526 1558.65 922.401C1564.82 941.004 1561.92 960.904 1550.64 977.128L1550.41 977.416C1549.65 978.714 1549.73 980.3 1550.72 981.454L1576.56 1011.31C1576.56 1011.31 1576.94 1011.74 1577.02 1011.74C1579.15 1014.05 1579.15 1017.29 1577.09 1019.67C1577.02 1019.74 1577.02 1019.81 1576.94 1019.81L1576.41 1020.32C1573.97 1022.27 1570.39 1022.27 1567.87 1020.17C1567.72 1020.03 1567.64 1019.96 1567.49 1019.81L1535.93 995.442C1534.63 994.433 1532.8 994.361 1531.43 995.226L1531.13 995.442C1504.52 1011.88 1468.92 1008.57 1446.21 987.511C1446.05 987.295 1445.98 987.078 1445.83 986.934C1419.3 961.986 1419.3 921.247 1445.75 896.227C1472.2 871.207 1515.27 871.207 1541.72 896.227C1541.88 896.371 1542.1 896.515 1542.33 896.587C1542.41 896.659 1542.56 896.804 1542.64 896.876C1543.93 898.39 1546.37 898.606 1547.97 897.308C1549.58 896.083 1549.8 893.775 1548.43 892.261C1548.13 891.901 1547.67 891.468 1547.21 891.035C1517.86 863.347 1470.07 863.131 1440.49 890.819C1440.41 890.891 1440.26 890.963 1440.18 891.107C1427.99 902.644 1420.36 918.002 1418.61 934.226C1417.85 941.292 1418.23 948.358 1419.6 955.208C1422.5 969.269 1429.66 982.031 1440.41 992.198C1465.04 1015.42 1503.68 1019.67 1533.26 1002.65L1562.53 1025.29C1562.69 1025.44 1562.92 1025.65 1563.07 1025.8C1565.74 1027.96 1568.94 1028.97 1572.14 1028.97C1575.42 1028.97 1578.7 1027.89 1581.36 1025.73L1582.66 1024.57C1582.89 1024.36 1583.04 1024.14 1583.19 1023.85C1587.23 1018.88 1587.08 1011.95 1582.74 1007.12C1582.66 1007.05 1582.51 1006.91 1582.43 1006.83Z" fill="black" fill-opacity="0.3"/>
<path d="M1604.69 872.36C1603.93 871.351 1602.63 870.774 1601.26 870.918L1576.79 873.37C1575.42 873.514 1574.27 874.307 1573.74 875.461C1573.21 876.615 1573.36 877.985 1574.12 878.994L1579.53 885.988L1493.55 944.609C1492.63 945.186 1492.1 946.195 1492.02 947.205L1489.73 974.965L1452.53 940.571C1451.77 939.85 1450.7 939.489 1449.64 939.562L1438.74 940.283C1436.68 940.427 1435.08 942.085 1435.23 944.104C1435.38 946.051 1437.21 947.565 1439.27 947.421L1448.49 946.844L1490.27 985.42C1490.95 986.069 1491.94 986.429 1492.94 986.429C1493.39 986.429 1493.85 986.357 1494.23 986.213C1495.6 985.708 1496.52 984.555 1496.67 983.185L1499.49 949.512L1584.18 891.901L1588.83 897.957C1589.52 898.895 1590.66 899.399 1591.88 899.399C1592.04 899.399 1592.19 899.399 1592.26 899.399C1593.64 899.255 1594.78 898.462 1595.31 897.308L1605.22 876.038C1605.68 874.74 1605.53 873.442 1604.69 872.36ZM1590.97 888.656L1584.18 879.859L1595.62 878.706L1590.97 888.656Z" fill="black" fill-opacity="0.3"/>
<path d="M192.056 62.1188L23.1952 64.8782C15.4337 65.0051 9.20918 70.3557 9.31465 76.81L10.8444 170.424C10.9499 176.879 17.346 182.023 25.1074 181.896L151.885 179.824L194.394 202.485L193.969 179.137C201.73 179.01 207.955 173.659 207.849 167.205L206.319 73.5906C206.214 67.1364 199.818 61.992 192.056 62.1188Z" fill="#FFC700" fill-opacity="0.4"/>
<path opacity="0.2" d="M203.124 120.907C202.749 97.9788 184.336 77.5584 154.962 63.1695L22.4695 65.3346C10.0802 65.5371 0.0929999 70.9492 0.198472 77.4035L1.72826 171.018C1.83373 177.472 11.9924 182.555 24.3818 182.353L156.874 180.187C185.762 164.846 203.499 143.835 203.124 120.907Z" fill="#FFC700" fill-opacity="0.4"/>
<path d="M38.2231 123.157C38.2738 126.261 39.805 129.213 42.4799 131.364C45.1547 133.516 48.7541 134.69 52.4861 134.629C56.2182 134.568 59.7773 133.277 62.3804 131.039C64.9835 128.801 66.4174 125.801 66.3667 122.697C66.316 119.594 64.7848 116.642 62.1099 114.49C59.4351 112.339 55.8357 111.165 52.1037 111.225C48.3716 111.286 44.8125 112.578 42.2094 114.815C39.6063 117.053 38.1724 120.054 38.2231 123.157Z" fill="#333333"/>
<path d="M94.5102 122.237C94.561 125.341 96.0922 128.293 98.767 130.444C101.442 132.596 105.041 133.77 108.773 133.709C112.505 133.648 116.064 132.357 118.667 130.119C121.271 127.882 122.704 124.881 122.654 121.778C122.603 118.674 121.072 115.722 118.397 113.57C115.722 111.419 112.123 110.245 108.391 110.306C104.659 110.367 101.1 111.658 98.4966 113.896C95.8934 116.133 94.4595 119.134 94.5102 122.237Z" fill="#333333"/>
<path d="M150.797 121.318C150.848 124.421 152.379 127.373 155.054 129.525C157.729 131.676 161.328 132.85 165.06 132.789C168.792 132.728 172.351 131.437 174.955 129.199C177.558 126.962 178.992 123.961 178.941 120.858C178.89 117.754 177.359 114.802 174.684 112.651C172.009 110.499 168.41 109.325 164.678 109.386C160.946 109.447 157.387 110.738 154.784 112.976C152.181 115.213 150.747 118.214 150.797 121.318Z" fill="#333333"/>
</svg>
