<svg width="534" height="634" viewBox="0 0 534 634" fill="none" xmlns="http://www.w3.org/2000/svg">
<path fill-rule="evenodd" clip-rule="evenodd" d="M266.667 66.6667C211.437 66.6667 166.667 111.438 166.667 166.667C166.667 221.895 211.437 266.667 266.667 266.667C321.897 266.667 366.667 221.895 366.667 166.667C366.667 111.438 321.897 66.6667 266.667 66.6667ZM100 166.667C100 74.6193 174.619 0 266.667 0C358.713 0 433.333 74.6193 433.333 166.667C433.333 258.713 358.713 333.333 266.667 333.333C174.619 333.333 100 258.713 100 166.667ZM115.203 457.547C80.0613 473.153 66.6667 492.86 66.6667 516.667C66.6667 524.12 67.992 528.34 69.9093 531.4C71.8277 534.46 76.4047 539.643 88.7397 545.223C115.104 557.15 167.203 566.667 266.667 566.667C366.13 566.667 418.23 557.15 444.593 545.223C456.93 539.643 461.507 534.46 463.423 531.4C465.34 528.34 466.667 524.12 466.667 516.667C466.667 492.86 453.273 473.153 418.13 457.547C382.047 441.527 329.073 433.333 266.667 433.333C204.26 433.333 151.286 441.527 115.203 457.547ZM88.1473 396.62C136.515 375.14 200.207 366.667 266.667 366.667C333.127 366.667 396.82 375.14 445.187 396.62C494.493 418.513 533.333 457.14 533.333 516.667C533.333 532.223 530.493 549.927 519.91 566.81C509.327 583.687 493.07 596.463 472.073 605.963C431.77 624.197 367.203 633.333 266.667 633.333C166.13 633.333 101.563 624.197 61.2603 605.963C40.262 596.463 24.0057 583.687 13.424 566.81C2.84133 549.927 0 532.223 0 516.667C0 457.14 38.8387 418.513 88.1473 396.62Z" fill="url(#paint0_linear_22_31)"/>
<defs>
<linearGradient id="paint0_linear_22_31" x1="266.667" y1="0" x2="266.667" y2="633.333" gradientUnits="userSpaceOnUse">
<stop stop-color="#7ED7F7"/>
<stop offset="0.5" stop-color="#BA8FDB"/>
<stop offset="1" stop-color="#E050B0"/>
</linearGradient>
</defs>
</svg>
