<svg width="1346" height="724" viewBox="0 0 1346 724" fill="none" xmlns="http://www.w3.org/2000/svg">
<g clip-path="url(#clip0_6_907)">
<path d="M940.296 372.166C940.296 564.975 782.053 721.278 570.6 721.278C359.147 721.278 204.197 564.975 204.197 372.166C204.197 179.357 359.147 23.0546 570.6 23.0546C782.053 23.0546 940.296 179.357 940.296 372.166Z" fill="#FEFEFE"/>
<path d="M245.004 305.911C245.004 305.911 233.166 419.923 325.402 513.583C417.637 607.243 559.299 637.639 673.595 665.068C787.892 692.498 884.825 647.987 910.855 559.496C936.885 471.005 852.476 428.864 819.14 317.066C785.803 205.268 794.767 172.028 702.499 90.6567C610.231 9.28513 446.604 20.5284 348.402 114.899C250.2 209.271 245.004 305.911 245.004 305.911Z" fill="#FFC700"/>
<path opacity="0.7" d="M244.032 302.183C244.032 302.183 232.276 414.506 323.809 506.772C415.341 599.038 555.929 628.974 669.359 655.99C782.79 683.006 878.992 639.149 904.831 551.968C930.67 464.786 846.902 423.275 813.825 313.136C780.747 202.997 789.646 170.25 698.08 90.0901C606.515 9.93039 444.126 21.0173 346.66 113.996C249.195 206.975 244.032 302.183 244.032 302.183Z" fill="white"/>
<path d="M365.464 124.939L588.701 417.412L855.057 207.662" stroke="#263238" stroke-width="1.64675" stroke-linecap="round" stroke-linejoin="round"/>
<path d="M240.426 442.977L570.361 425.475L329.345 334.799" stroke="#263238" stroke-width="1.64675" stroke-linecap="round" stroke-linejoin="round"/>
<path d="M616.978 87.8917L573.971 424.473L856.078 471.821" stroke="#263238" stroke-width="1.64675" stroke-linecap="round" stroke-linejoin="round"/>
<path d="M316.177 661.995L551.809 417.732L799.968 593.615" stroke="#263238" stroke-width="1.64675" stroke-linecap="round" stroke-linejoin="round"/>
<path d="M192.248 390.705C182.561 390.789 173.116 393.725 165.107 399.142C157.099 404.559 150.887 412.214 147.256 421.138C143.626 430.063 142.741 439.856 144.713 449.279C146.685 458.703 151.425 467.333 158.334 474.08C165.243 480.826 174.011 485.385 183.528 487.18C193.046 488.976 202.886 487.927 211.804 484.166C220.722 480.405 228.318 474.101 233.63 466.052C238.943 458.003 241.734 448.569 241.651 438.944C241.523 426.043 236.25 413.719 226.989 404.676C217.728 395.633 205.234 390.608 192.248 390.705Z" fill="#263238"/>
<path fill-rule="evenodd" clip-rule="evenodd" d="M222.65 437.852C222.09 430.854 218.897 424.322 213.707 419.558C208.516 414.794 201.71 412.148 194.644 412.146C187.577 412.145 180.769 414.788 175.576 419.549C170.382 424.311 167.184 430.841 166.619 437.84C166.623 438.238 166.626 438.637 166.63 439.056C166.669 444.092 168.1 449.02 170.768 453.301L165.838 468.164L181.333 463.123C185.61 465.396 190.406 466.53 195.255 466.416C200.104 466.302 204.84 464.943 209.004 462.471C213.168 460 216.618 456.499 219.017 452.311C221.417 448.123 222.684 443.389 222.697 438.57C222.675 438.331 222.672 438.092 222.65 437.852ZM194.754 462.029C190.146 462.073 185.626 460.774 181.753 458.292L172.724 461.243L175.6 452.581C172.641 448.66 171.024 443.9 170.986 438.998C170.979 438.246 171.012 437.493 171.087 436.744C171.544 430.857 174.221 425.358 178.583 421.347C182.945 417.335 188.67 415.108 194.613 415.109C200.556 415.111 206.279 417.341 210.638 421.354C214.997 425.367 217.671 430.867 218.124 436.755C218.129 437.353 218.134 437.951 218.14 438.57C218.167 444.748 215.73 450.687 211.363 455.086C206.996 459.486 201.053 461.989 194.835 462.048L194.754 462.029Z" fill="white"/>
<path fill-rule="evenodd" clip-rule="evenodd" d="M207.55 444.266C206.844 443.933 203.518 442.307 202.814 442.113C202.109 441.92 201.727 441.784 201.271 442.466C200.815 443.148 199.503 444.675 199.126 445.137C198.748 445.599 198.327 445.643 197.622 445.31C195.589 444.536 193.71 443.411 192.072 441.987C190.557 440.646 189.258 439.084 188.218 437.353C187.81 436.678 188.208 436.296 188.507 435.954C188.805 435.613 189.182 435.171 189.52 434.769L189.778 434.447C189.937 434.184 190.075 433.91 190.193 433.626C190.291 433.445 190.342 433.242 190.34 433.036C190.339 432.831 190.284 432.629 190.183 432.449C189.999 432.112 188.605 428.773 188.011 427.422C187.417 426.071 186.857 426.315 186.456 426.318C186.054 426.322 185.592 426.326 185.131 426.33C184.784 426.339 184.444 426.419 184.13 426.566C183.817 426.713 183.538 426.923 183.311 427.183C182.54 427.915 181.931 428.798 181.525 429.778C181.119 430.757 180.923 431.81 180.951 432.868C180.969 433.653 181.097 434.43 181.333 435.179C181.883 436.866 182.726 438.445 183.823 439.844C184.168 440.28 188.645 447.322 195.655 449.974C202.664 452.626 202.656 451.728 203.92 451.598C204.877 451.407 205.783 451.017 206.577 450.453C207.372 449.889 208.037 449.165 208.529 448.327C208.957 447.312 209.087 446.197 208.902 445.112C208.679 444.815 208.155 444.6 207.55 444.266Z" fill="white"/>
<path d="M333.28 41.6154C320.358 41.9789 308.097 47.1956 299.126 56.146C290.156 65.0963 285.192 77.0669 285.3 89.4887C285.407 101.91 290.578 113.793 299.702 122.587C308.827 131.38 321.177 136.383 334.103 136.523C340.673 136.594 347.192 135.404 353.28 133.024C359.367 130.643 364.9 127.12 369.554 122.66C374.209 118.201 377.891 112.894 380.385 107.051C382.88 101.208 384.137 94.9461 384.082 88.6323C384.027 82.3184 382.662 76.0794 380.067 70.2806C377.471 64.4817 373.697 59.2396 368.966 54.8611C364.235 50.4827 358.642 47.0559 352.515 44.7815C346.387 42.5071 339.848 41.4307 333.28 41.6154Z" fill="#263238"/>
<path d="M367.117 73.3091C366.75 71.9699 366.017 70.7494 364.995 69.7737C363.973 68.798 362.698 68.1025 361.301 67.7592C356.171 66.4813 335.714 66.6587 335.714 66.6587C335.714 66.6587 315.258 66.836 310.17 68.2024C308.782 68.5779 307.521 69.2977 306.514 70.2895C305.507 71.2812 304.789 72.5101 304.432 73.8526C302.712 83.9438 302.801 94.2423 304.696 104.302C305.08 105.637 305.82 106.851 306.844 107.824C307.868 108.798 309.139 109.497 310.531 109.852C315.642 111.13 336.098 110.953 336.098 110.953C336.098 110.953 356.555 110.775 361.663 109.409C363.047 109.03 364.303 108.309 365.307 107.318C366.31 106.326 367.026 105.099 367.381 103.759C369.128 93.6695 369.039 83.3666 367.117 73.3091Z" fill="white"/>
<path d="M329.311 98.2162L329.149 79.5109L346.328 88.7153L329.311 98.2162Z" fill="#263238"/>
<path d="M316.581 622.919C306.404 623.007 296.479 625.781 288.062 630.891C279.644 636.001 273.111 643.217 269.289 651.627C265.467 660.036 264.528 669.261 266.591 678.135C268.653 687.009 273.625 695.134 280.876 701.482C288.127 707.83 297.333 712.116 307.33 713.798C317.326 715.48 327.664 714.483 337.036 710.932C346.407 707.381 354.392 701.437 359.981 693.85C365.569 686.263 368.51 677.375 368.432 668.309C368.326 656.153 362.804 644.541 353.08 636.029C343.356 627.516 330.227 622.8 316.581 622.919Z" fill="#263238"/>
<path d="M308.566 698.223L321.879 698.108L321.621 668.414L330.899 668.334L331.809 658.384L321.535 658.474L321.486 652.744C321.465 650.395 321.972 649.474 324.528 649.451L331.732 649.389L331.642 639.061L322.429 639.141C312.525 639.227 308.089 643.162 308.153 650.596L308.222 658.517L301.292 658.577L301.379 668.604L308.309 668.544L308.566 698.223Z" fill="white"/>
<path d="M832.863 557.086C822.195 557.178 811.79 560.186 802.965 565.73C794.139 571.274 787.289 579.104 783.28 588.231C779.272 597.358 778.286 607.37 780.447 617.002C782.608 626.635 787.819 635.454 795.42 642.344C803.021 649.234 812.672 653.885 823.15 655.71C833.629 657.535 844.466 656.451 854.289 652.595C864.112 648.739 872.48 642.285 878.336 634.048C884.191 625.812 887.27 616.164 887.183 606.324C887.055 593.142 881.265 580.556 871.081 571.325C860.898 562.095 847.154 556.974 832.863 557.086Z" fill="#263238"/>
<path d="M833.081 583.068C841.476 582.993 842.47 582.984 845.785 583.117C847.777 583.124 849.752 583.444 851.626 584.063C852.985 584.523 854.219 585.249 855.245 586.191C856.299 587.117 857.109 588.253 857.615 589.512C858.332 591.225 858.714 593.044 858.742 594.882C858.922 597.937 858.975 598.955 859.039 606.577C859.103 614.198 859.112 615.237 858.938 618.296C858.941 620.134 858.59 621.959 857.901 623.685C857.421 624.949 856.629 626.094 855.587 627.028C854.584 628 853.361 628.756 852.004 629.24C850.141 629.893 848.172 630.249 846.18 630.291C842.868 630.464 841.874 630.493 833.479 630.568C825.084 630.644 824.09 630.653 820.775 630.519C818.783 630.51 816.809 630.19 814.934 629.573C813.57 629.113 812.334 628.379 811.315 627.425C810.257 626.51 809.446 625.38 808.945 624.124C808.228 622.411 807.846 620.593 807.818 618.755C807.637 615.699 807.586 614.783 807.521 607.039C807.456 599.296 807.448 598.399 807.622 595.341C807.619 593.502 807.97 591.677 808.659 589.951C809.144 588.683 809.935 587.533 810.973 586.588C811.982 585.628 813.205 584.88 814.556 584.396C816.42 583.746 818.389 583.39 820.38 583.345C823.692 583.173 824.686 583.143 833.081 583.068ZM833.037 577.851C824.51 577.928 823.427 577.938 820.093 578.13C817.531 578.186 814.996 578.636 812.592 579.461C810.51 580.223 808.623 581.379 807.053 582.853C805.482 584.327 804.263 586.087 803.473 588.021C802.583 590.281 802.11 592.662 802.074 595.064C801.945 598.163 801.909 599.142 801.975 607.007C802.041 614.873 802.049 615.872 802.274 618.967C802.35 621.369 802.863 623.741 803.791 625.985C804.6 627.923 805.843 629.681 807.439 631.145C809.035 632.609 810.948 633.745 813.053 634.481C815.5 635.302 818.081 635.733 820.686 635.758C824.023 635.87 825.106 635.881 833.633 635.804C842.161 635.728 843.243 635.718 846.578 635.525C849.182 635.454 851.755 634.976 854.188 634.112C856.27 633.35 858.157 632.195 859.728 630.72C861.298 629.246 862.518 627.486 863.307 625.552C864.197 623.292 864.67 620.911 864.707 618.509C864.835 615.41 864.871 614.431 864.805 606.545C864.739 598.659 864.731 597.701 864.506 594.606C864.43 592.204 863.917 589.832 862.989 587.589C862.168 585.669 860.919 583.931 859.324 582.485C857.729 581.04 855.823 579.918 853.728 579.194C851.281 578.373 848.7 577.942 846.095 577.917C842.758 577.805 841.676 577.794 833.148 577.871" fill="white"/>
<path d="M833.156 591.932C829.96 591.957 826.842 592.855 824.197 594.515C821.551 596.174 819.497 598.519 818.295 601.252C817.093 603.986 816.796 606.986 817.443 609.872C818.09 612.757 819.65 615.4 821.928 617.464C824.205 619.528 827.096 620.921 830.236 621.467C833.375 622.013 836.622 621.687 839.564 620.531C842.506 619.375 845.012 617.439 846.765 614.971C848.517 612.502 849.437 609.611 849.408 606.663C849.375 602.718 847.644 598.949 844.596 596.187C841.548 593.424 837.433 591.894 833.156 591.932ZM833.361 616.385C831.29 616.404 829.26 615.856 827.53 614.81C825.799 613.764 824.444 612.267 823.636 610.509C822.829 608.752 822.605 606.811 822.994 604.934C823.382 603.057 824.365 601.327 825.818 599.963C827.271 598.599 829.13 597.662 831.158 597.271C833.186 596.88 835.293 597.053 837.213 597.767C839.132 598.48 840.778 599.704 841.942 601.282C843.106 602.86 843.736 604.722 843.752 606.632C843.773 609.194 842.69 611.661 840.742 613.49C838.793 615.319 836.138 616.36 833.361 616.385Z" fill="white"/>
<path d="M853.698 591.157C853.708 591.847 853.496 592.524 853.088 593.104C852.68 593.683 852.096 594.138 851.408 594.411C850.72 594.685 849.961 594.763 849.225 594.638C848.49 594.512 847.812 594.188 847.278 593.706C846.743 593.224 846.376 592.607 846.222 591.932C846.069 591.257 846.137 590.554 846.417 589.914C846.697 589.273 847.176 588.723 847.795 588.334C848.413 587.945 849.143 587.733 849.891 587.727C850.889 587.718 851.85 588.073 852.563 588.716C853.276 589.359 853.684 590.236 853.698 591.157Z" fill="white"/>
<path d="M880.487 215.142C866.458 215.263 852.954 209.796 842.948 199.943C832.941 190.09 827.251 176.658 827.129 162.602C827.008 148.545 832.464 135.017 842.298 124.992C852.132 114.966 865.539 109.266 879.568 109.144C893.598 109.023 907.101 114.49 917.108 124.343C927.114 134.196 932.804 147.628 932.926 161.684C933.048 175.741 927.592 189.269 917.757 199.294C907.923 209.32 894.517 215.02 880.487 215.142Z" fill="#263238" stroke="#263238" stroke-width="1.64675" stroke-linecap="round" stroke-linejoin="round"/>
<path d="M851.935 179.58C857.907 182.928 864.838 184.673 871.901 184.607C896.019 184.398 909.512 166.117 908.583 149.837C911.088 148.169 913.247 146.124 914.962 143.794C912.6 144.75 910.09 145.385 907.518 145.678C910.216 144.207 912.225 141.914 913.17 139.226C910.635 140.614 907.854 141.607 904.947 142.162C902.972 140.319 900.369 139.109 897.541 138.719C894.713 138.329 891.818 138.781 889.304 140.006C886.79 141.231 884.799 143.159 883.637 145.492C882.476 147.825 882.211 150.433 882.882 152.911C877.713 152.729 872.647 151.579 868.013 149.536C863.38 147.493 859.284 144.603 855.99 141.054C854.351 143.617 853.867 146.638 854.639 149.503C855.411 152.368 857.379 154.861 860.144 156.474C858.082 156.436 856.061 155.963 854.247 155.093C854.246 157.783 855.295 160.388 857.214 162.462C859.133 164.536 861.802 165.95 864.765 166.462C862.861 166.944 860.858 167.025 858.914 166.699C859.76 168.995 861.392 170.996 863.582 172.421C865.772 173.846 868.409 174.623 871.123 174.644C865.703 178.479 858.806 180.253 851.935 179.58Z" fill="white"/>
<path d="M311.463 270.504C302.299 270.59 293.361 273.305 285.781 278.305C278.2 283.305 272.317 290.365 268.875 298.593C265.434 306.822 264.588 315.848 266.445 324.531C268.303 333.214 272.779 341.164 279.31 347.375C285.84 353.586 294.13 357.78 303.132 359.426C312.134 361.072 321.444 360.096 329.883 356.621C338.323 353.147 345.514 347.331 350.546 339.907C355.579 332.484 358.227 323.787 358.156 314.917C358.049 303.026 353.072 291.672 344.318 283.345C335.564 275.019 323.748 270.401 311.463 270.504Z" fill="#808080"/>
<path d="M298.214 303.727L288.019 303.823L288.273 335.685L298.469 335.589L298.214 303.727Z" fill="white"/>
<path d="M293.035 299.609C294.241 299.607 295.419 299.259 296.42 298.608C297.422 297.957 298.202 297.033 298.661 295.954C299.12 294.874 299.238 293.687 299 292.544C298.762 291.401 298.178 290.353 297.322 289.533C296.467 288.713 295.378 288.158 294.195 287.938C293.012 287.718 291.787 287.843 290.676 288.298C289.565 288.753 288.618 289.516 287.956 290.492C287.293 291.468 286.944 292.611 286.953 293.778C286.956 294.548 287.116 295.31 287.423 296.02C287.73 296.73 288.179 297.374 288.744 297.915C289.309 298.457 289.978 298.885 290.715 299.176C291.451 299.467 292.24 299.614 293.035 299.609Z" fill="white"/>
<path d="M314.639 318.725C314.603 314.233 316.698 311.56 320.786 311.521C324.873 311.483 326.337 314.029 326.373 318.614L326.506 335.325L336.654 335.23L336.493 315.121C336.425 306.602 331.391 302.507 324.369 302.573C322.387 302.566 320.435 303.058 318.706 304.001C316.976 304.943 315.529 306.304 314.505 307.949L314.471 303.69L304.684 303.782L304.939 335.645L314.725 335.553L314.639 318.725Z" fill="white"/>
<path d="M889.041 513.622C883.531 513.672 878.066 512.707 872.958 510.781C867.851 508.855 863.201 506.006 859.275 502.396C855.348 498.787 852.221 494.489 850.073 489.746C847.925 485.003 846.798 479.91 846.755 474.755C846.669 464.346 851.008 454.323 858.816 446.891C866.625 439.458 877.264 435.226 888.393 435.125C899.522 435.023 910.229 439.061 918.159 446.35C926.089 453.639 930.593 463.582 930.679 473.991C930.721 479.146 929.678 484.259 927.609 489.04C925.539 493.821 922.484 498.176 918.618 501.856C914.751 505.536 910.149 508.47 905.074 510.488C900 512.507 894.552 513.572 889.041 513.622Z" fill="#808080"/>
<path d="M882.672 489.305C883.88 489.081 885.018 488.601 885.997 487.901C886.835 487.3 887.541 486.554 888.077 485.703C888.952 484.388 889.399 482.863 889.363 481.315C889.39 479.891 888.978 478.491 888.175 477.283C887.356 476.146 886.152 475.3 884.756 474.88C885.605 474.502 886.364 473.968 886.988 473.31C887.933 472.141 888.405 470.697 888.319 469.235C888.344 467.734 887.854 466.267 886.92 465.048C885.985 464.035 884.803 463.247 883.473 462.75C882.144 462.254 880.706 462.063 879.28 462.193L865.055 462.323L865.282 489.797L878.479 489.677C879.886 489.691 881.292 489.567 882.672 489.305ZM870.948 467.038L877.347 466.98C878.525 466.936 879.702 467.072 880.834 467.38C881.354 467.583 881.79 467.937 882.077 468.391C882.364 468.844 882.487 469.372 882.428 469.897C882.484 470.365 882.404 470.839 882.197 471.269C881.991 471.699 881.664 472.069 881.252 472.341C880.306 472.834 879.234 473.074 878.153 473.037L870.998 473.102L870.948 467.038ZM871.096 485.014L871.036 477.674L878.274 477.609C879.276 477.56 880.277 477.704 881.215 478.033C881.822 478.278 882.331 478.693 882.674 479.22C883.016 479.748 883.175 480.363 883.128 480.979C883.212 481.668 883.074 482.364 882.731 482.98C882.388 483.595 881.857 484.1 881.205 484.431C880.265 484.804 879.25 484.98 878.23 484.949L871.096 485.014Z" fill="white"/>
<path d="M894.264 487.767C896.438 489.394 899.156 490.252 901.943 490.189C903.459 490.266 904.975 490.034 906.387 489.51C907.799 488.985 909.073 488.181 910.122 487.151C911.222 486.164 911.948 484.869 912.19 483.462L906.378 483.515C906.101 484.049 905.712 484.527 905.235 484.919C904.337 485.582 903.217 485.926 902.075 485.89C900.97 485.928 899.877 485.673 898.922 485.153C898.177 484.686 897.574 484.047 897.171 483.298C896.768 482.549 896.578 481.715 896.62 480.876L912.461 480.732C912.508 479.382 912.441 478.031 912.259 476.691C912.006 475.184 911.399 473.749 910.483 472.487C909.548 471.184 908.237 470.155 906.703 469.519C905.082 468.882 903.335 468.57 901.576 468.604C900.14 468.565 898.71 468.802 897.376 469.3C896.041 469.798 894.829 470.547 893.815 471.501C892.799 472.607 892.026 473.89 891.541 475.275C891.055 476.66 890.867 478.121 890.986 479.573C890.817 481.084 891.024 482.611 891.593 484.033C892.162 485.455 893.076 486.733 894.264 487.767ZM898.223 474.189C898.67 473.784 899.202 473.469 899.786 473.265C900.369 473.06 900.99 472.97 901.612 473C902.843 472.958 904.048 473.338 904.999 474.068C905.474 474.476 905.856 474.971 906.12 475.522C906.384 476.073 906.526 476.669 906.536 477.273L896.738 477.362C896.855 476.183 897.375 475.07 898.223 474.189Z" fill="white"/>
<path d="M907.556 463.506L894.757 463.622L894.78 466.409L907.579 466.293L907.556 463.506Z" fill="white"/>
<path d="M617.901 88.4842C604.896 88.601 592.385 84.0751 583.12 75.902C573.856 67.7289 568.596 56.5782 568.498 44.9029C568.4 33.2276 573.473 21.9841 582.599 13.6458C591.726 5.30749 604.159 0.557439 617.164 0.440598C630.169 0.323756 642.68 4.8497 651.944 13.0228C661.209 21.1958 666.469 32.3465 666.567 44.0218C666.664 55.6971 661.592 66.9407 652.465 75.279C643.339 83.6173 630.905 88.3673 617.901 88.4842Z" fill="#808080"/>
<path fill-rule="evenodd" clip-rule="evenodd" d="M646.098 56.1995C645.52 55.9165 644.898 55.7161 644.254 55.6049C641.223 54.6776 638.568 52.9261 636.636 50.58C635.49 49.3196 634.567 47.8992 633.903 46.3715C633.754 46.0944 633.675 45.7893 633.672 45.4794C633.669 45.1695 633.743 44.863 633.888 44.5833C634.567 43.8455 635.467 43.3096 636.475 43.0434C637.747 42.6897 638.934 42.11 639.967 41.3369C640.184 41.1694 640.358 40.9589 640.476 40.7211C640.49 40.6537 640.489 40.5845 640.475 40.5174C640.595 40.2407 640.592 39.9317 640.467 39.6572C640.188 39.1879 639.756 38.8117 639.232 38.5818C638.917 38.4108 638.563 38.3075 638.198 38.2795C637.833 38.2514 637.465 38.2993 637.122 38.4196C636.521 38.6429 635.899 38.8152 635.263 38.9343C634.563 39.0905 633.833 39.0971 633.13 38.9535C633.13 38.9535 633.128 38.7045 633.127 38.5234C633.117 37.3238 633.106 36.1015 633.096 34.8339C633.213 32.8707 633.148 30.9022 632.9 28.9501C632.1 25.6144 629.931 22.697 626.849 20.8099C624.655 19.4488 622.112 18.6442 619.474 18.4766C618.591 18.4845 617.733 18.4922 616.85 18.5002C613.695 18.4038 610.582 19.2083 607.937 20.8038C605.291 22.3994 603.241 24.7084 602.066 27.4161C601.246 29.7233 600.998 32.1704 601.342 34.5759C601.504 36.1399 601.558 37.7121 601.504 39.2829C600.693 39.4199 599.864 39.4274 599.052 39.305C598.463 39.3102 597.823 38.9991 597.111 38.8244C596.782 38.7732 596.446 38.7844 596.122 38.8574C595.798 38.9304 595.493 39.0635 595.226 39.2488C594.94 39.3904 594.697 39.5961 594.519 39.8469C594.342 40.0977 594.235 40.3855 594.209 40.6841L594.21 40.8199C594.291 41.1978 594.521 41.5344 594.855 41.7648L595.521 42.2116C596.775 42.8616 598.103 43.3811 599.481 43.7606C599.881 43.8774 600.248 44.0745 600.556 44.3379C600.863 44.6013 601.104 44.9243 601.26 45.2839C601.368 46.2651 601.127 47.2529 600.572 48.0971C599.216 50.5995 597.213 52.7557 594.74 54.3746C593.397 55.2266 591.911 55.8672 590.342 56.2704C589.728 56.3702 589.172 56.6729 588.78 57.122L588.782 57.2804C588.718 57.4735 588.708 57.6782 588.752 57.8756C588.797 58.073 588.894 58.2568 589.036 58.41C589.218 58.6095 589.446 58.7697 589.702 58.8794C590.984 59.4749 592.349 59.9044 593.759 60.1559C594.597 60.2658 595.42 60.4556 596.215 60.7223L596.49 61.3537C596.741 62.0306 596.846 62.7993 597.122 63.6117C597.167 63.7252 597.243 63.8261 597.342 63.9045C597.441 63.9829 597.561 64.0363 597.69 64.0594C597.997 64.1736 598.341 64.1705 598.646 64.0508C600.737 63.56 602.915 63.4711 605.043 63.7896C607.237 64.5187 609.309 65.5288 611.198 66.7902C612.656 67.7109 614.352 68.2581 616.115 68.3759C617.471 68.4438 618.83 68.4316 620.185 68.3394C621.322 68.2253 622.418 67.8749 623.388 67.3146C625.561 66.1406 627.462 64.7653 629.587 63.8633C630.389 63.6829 631.212 63.5919 632.037 63.5923C633.797 63.5157 635.561 63.5756 637.31 63.7713C637.337 63.7816 637.366 63.7868 637.396 63.7866C637.425 63.7863 637.455 63.7806 637.482 63.7698C637.718 63.7414 637.935 63.6349 638.092 63.47C638.175 63.3691 638.232 63.2526 638.261 63.1289C638.259 62.8799 638.259 62.9478 638.261 63.1289C638.271 63.0841 638.271 63.0378 638.26 62.9931C638.441 62.1845 638.784 61.4138 639.271 60.7203C639.416 60.6008 639.587 60.5102 639.772 60.454C639.957 60.3978 640.153 60.3773 640.347 60.3938C641.776 60.1724 643.172 59.7951 644.505 59.2698C645.165 59.0642 645.749 58.69 646.188 58.1908C646.282 58.0666 646.348 57.926 646.381 57.7777C646.414 57.6293 646.414 57.4764 646.38 57.3282C646.347 57.1801 646.281 57.0399 646.187 56.9163C646.092 56.7926 645.972 56.6882 645.832 56.6094L646.098 56.1995Z" fill="white"/>
<path d="M691.988 137.393L434.64 139.625C421.746 139.736 411.374 149.139 411.473 160.625L415.695 647.583C415.795 659.069 426.328 668.291 439.222 668.179L696.57 665.948C709.465 665.836 719.837 656.434 719.737 644.947L715.515 157.989C715.416 146.503 704.882 137.282 691.988 137.393Z" fill="#263238"/>
<mask id="mask0_6_907" style="mask-type:luminance" maskUnits="userSpaceOnUse" x="411" y="137" width="309" height="532">
<path d="M691.988 137.393L434.64 139.625C421.746 139.736 411.374 149.139 411.473 160.625L415.695 647.583C415.795 659.069 426.328 668.291 439.222 668.179L696.57 665.948C709.465 665.836 719.837 656.434 719.737 644.947L715.515 157.989C715.416 146.503 704.882 137.282 691.988 137.393Z" fill="white"/>
</mask>
<g mask="url(#mask0_6_907)">
<path opacity="0.2" d="M437.486 139.6C430.539 139.66 423.898 142.176 419.024 146.595C414.15 151.013 411.442 156.972 411.495 163.161L415.673 645.033C415.698 648.448 416.567 651.815 418.216 654.895C419.866 657.976 422.256 660.694 425.218 662.857L598.069 138.208L437.486 139.6Z" fill="white"/>
<path d="M578.078 651.676C578.062 649.854 577.44 648.077 576.29 646.572C575.14 645.067 573.515 643.901 571.618 643.221C569.722 642.54 567.641 642.377 565.638 642.751C563.635 643.125 561.801 644.019 560.367 645.321C558.933 646.623 557.964 648.274 557.582 650.065C557.2 651.856 557.423 653.707 558.223 655.383C559.023 657.059 560.363 658.485 562.074 659.48C563.785 660.476 565.79 660.996 567.835 660.976C569.192 660.964 570.534 660.714 571.783 660.24C573.033 659.766 574.166 659.077 575.117 658.214C576.068 657.35 576.82 656.328 577.328 655.206C577.836 654.084 578.091 652.885 578.078 651.676Z" stroke="white" stroke-width="1.64675" stroke-linecap="round" stroke-linejoin="round"/>
</g>
<path d="M691.988 137.393L434.64 139.625C421.746 139.736 411.374 149.139 411.473 160.625L415.695 647.583C415.795 659.069 426.328 668.291 439.222 668.179L696.57 665.948C709.465 665.836 719.837 656.434 719.737 644.947L715.515 157.989C715.416 146.503 704.882 137.282 691.988 137.393Z" stroke="#263238" stroke-width="1.64675" stroke-linecap="round" stroke-linejoin="round"/>
<path d="M702.107 173.204L425.111 175.606L429.11 636.895L706.107 634.493L702.107 173.204Z" fill="#FFC700" stroke="#263238" stroke-width="1.64675" stroke-linecap="round" stroke-linejoin="round"/>
<path d="M562.45 542.368C632.595 541.76 689.02 490.61 688.478 428.122C687.937 365.634 630.633 315.47 560.488 316.078C490.342 316.686 433.917 367.836 434.459 430.324C435.001 492.812 492.304 542.976 562.45 542.368Z" fill="#263238"/>
<path d="M694.13 228.64L435.174 230.885L435.629 283.411L694.585 281.166L694.13 228.64Z" fill="white"/>
<path d="M697.12 573.518L438.164 575.763L438.619 628.289L697.575 626.044L697.12 573.518Z" fill="white"/>
<path d="M696.961 555.255L438.006 557.5L438.025 559.777L696.981 557.532L696.961 555.255Z" fill="white"/>
<path d="M697.05 565.525L438.095 567.77L438.114 570.047L697.07 567.802L697.05 565.525Z" fill="white"/>
<path d="M692.726 178.07L669.766 178.269L669.863 189.485L692.823 189.286L692.726 178.07Z" stroke="#263238" stroke-width="1.35209" stroke-linecap="round" stroke-linejoin="round"/>
<path d="M687.677 178.114L669.766 178.269L669.863 189.485L687.775 189.33L687.677 178.114Z" fill="#263238" stroke="#263238" stroke-width="1.19402" stroke-linecap="round" stroke-linejoin="round"/>
<path d="M695.937 181.179L692.706 181.207L692.749 186.149L695.98 186.121L695.937 181.179Z" fill="#263238" stroke="#263238" stroke-width="1.19402" stroke-linecap="round" stroke-linejoin="round"/>
<path d="M435.633 183.78L431.421 183.817L431.477 190.248L435.689 190.211L435.633 183.78Z" fill="#263238" stroke="#263238" stroke-width="1.45422" stroke-linecap="round" stroke-linejoin="round"/>
<path d="M442.239 181.459L438.026 181.496L438.102 190.191L442.314 190.154L442.239 181.459Z" fill="#263238" stroke="#263238" stroke-width="1.45422" stroke-linecap="round" stroke-linejoin="round"/>
<path d="M448.824 178.738L444.612 178.774L444.71 190.133L448.923 190.097L448.824 178.738Z" fill="#263238" stroke="#263238" stroke-width="1.45422" stroke-linecap="round" stroke-linejoin="round"/>
<path d="M695.756 195.492L429.773 197.798L429.928 215.617L695.91 213.311L695.756 195.492Z" fill="#263238"/>
<mask id="mask1_6_907" style="mask-type:luminance" maskUnits="userSpaceOnUse" x="439" y="232" width="432" height="307">
<path d="M868.028 232.819L544.257 235.626L544.998 321.183C524.957 323.649 505.904 330.498 489.542 341.118C473.179 351.739 460.017 365.8 451.231 382.045C442.445 398.29 438.31 416.213 439.194 434.212C440.078 452.212 445.955 469.726 456.298 485.191C466.642 500.657 481.131 513.59 498.469 522.837C515.808 532.083 535.456 537.354 555.659 538.178C575.862 539.003 595.989 535.356 614.242 527.562C632.496 519.769 648.306 508.072 660.261 493.517L870.272 491.696L868.028 232.819Z" fill="white"/>
</mask>
<g mask="url(#mask1_6_907)">
<path d="M428.984 537.064C428.984 537.064 461.968 431.633 468.173 409.103C474.377 386.573 483.93 371.864 503.87 368.125C523.809 364.385 560.65 360.756 560.65 360.756C560.65 360.756 592.671 357.614 615.902 358.845C639.133 360.076 660.469 370.95 671.742 378.416C683.015 385.882 715.688 411.57 715.688 411.57L711.165 351.673L740.415 353.554C740.415 353.554 762.364 436.85 765.294 452.181C768.225 467.512 768.3 474.287 765.502 476.088C762.703 477.888 767.536 478.935 741.841 471.651C716.146 464.368 686.02 454.301 669.566 450.16C653.112 446.02 651.096 445.321 651.096 445.321C651.096 445.321 611.365 499.556 598.721 515.724C590.046 527.201 582.346 539.239 575.685 551.736" fill="white"/>
<mask id="mask2_6_907" style="mask-type:luminance" maskUnits="userSpaceOnUse" x="428" y="351" width="340" height="201">
<path d="M428.984 537.064C428.984 537.064 461.968 431.633 468.173 409.103C474.377 386.573 483.93 371.864 503.87 368.125C523.809 364.385 560.65 360.756 560.65 360.756C560.65 360.756 592.671 357.614 615.902 358.845C639.133 360.076 660.469 370.95 671.742 378.416C683.015 385.882 715.688 411.57 715.688 411.57L711.165 351.673L740.415 353.554C740.415 353.554 762.364 436.85 765.294 452.181C768.225 467.512 768.3 474.287 765.502 476.088C762.703 477.888 767.536 478.935 741.841 471.651C716.146 464.368 686.02 454.301 669.566 450.16C653.112 446.02 651.096 445.321 651.096 445.321C651.096 445.321 611.365 499.556 598.721 515.724C590.046 527.201 582.346 539.239 575.685 551.736" fill="white"/>
</mask>
<g mask="url(#mask2_6_907)">
<path opacity="0.2" d="M765.452 475.973C768.25 474.173 768.191 467.355 765.245 452.067C763.557 442.928 754.987 409.61 748.399 384.197C751.184 414.256 752.42 443.64 747.354 449.171C736.202 461.128 719.617 445.687 719.617 445.687L716.282 422.595C716.282 422.595 659.91 386.254 638.824 380.191C617.738 374.128 595.345 373.076 573.644 379.51C551.943 385.944 533.812 392.347 520.601 404.322C507.39 416.298 462.033 511.58 462.033 511.58L457.052 539.801L575.634 551.551C582.295 539.053 589.996 527.015 598.671 515.538C611.395 499.37 651.046 445.135 651.046 445.135C651.046 445.135 653.062 445.834 669.516 449.974C685.97 454.115 716.095 464.196 741.791 471.466C767.486 478.735 762.67 477.788 765.452 475.973Z" fill="black"/>
</g>
<path d="M428.984 537.064C428.984 537.064 461.968 431.633 468.173 409.103C474.377 386.573 483.93 371.864 503.87 368.125C523.809 364.385 560.65 360.756 560.65 360.756C560.65 360.756 592.671 357.614 615.902 358.845C639.133 360.076 660.469 370.95 671.742 378.416C683.015 385.882 715.688 411.57 715.688 411.57L711.165 351.673L740.415 353.554C740.415 353.554 762.364 436.85 765.294 452.181C768.225 467.512 768.3 474.287 765.502 476.088C762.703 477.888 767.536 478.935 741.841 471.651C716.146 464.368 686.02 454.301 669.566 450.16C653.112 446.02 651.096 445.321 651.096 445.321C651.096 445.321 611.365 499.556 598.721 515.724C590.046 527.201 582.346 539.239 575.685 551.736" stroke="#263238" stroke-width="1.64675" stroke-linecap="round" stroke-linejoin="round"/>
<path d="M662.335 428.563L651.047 445.221L684.733 428.369" stroke="#263238" stroke-width="1.64675" stroke-linecap="round" stroke-linejoin="round"/>
<path d="M715.639 411.47C715.639 411.47 717.503 441.064 719.537 445.687C721.571 450.311 730.417 452.369 730.417 452.369" fill="white"/>
<path d="M715.639 411.47C715.639 411.47 717.503 441.064 719.537 445.687C721.571 450.311 730.417 452.369 730.417 452.369" stroke="#263238" stroke-width="1.64675" stroke-linecap="round" stroke-linejoin="round"/>
<path d="M539.161 412.097C539.161 412.097 534.868 421.374 537.055 421.355C539.241 421.336 553.397 416.357 559.957 416.301C566.517 416.244 573.697 426.395 573.697 426.395C573.697 426.395 592.705 413.581 598.731 414.99C601.683 415.843 604.398 417.245 606.694 419.104C607.077 419.396 607.544 419.585 608.043 419.65C608.541 419.715 609.051 419.652 609.512 419.47C609.973 419.288 610.367 418.993 610.648 418.62C610.929 418.246 611.086 417.81 611.101 417.361C611.191 414.739 611.256 411.157 611.217 406.602C611.124 395.902 600.5 366.8 581.37 365.505C562.239 364.209 559.064 376.399 551.039 391.066C543.014 405.732 539.161 412.097 539.161 412.097Z" fill="#263238"/>
<path d="M579.729 348.787C579.729 348.787 561.322 351.124 552.974 358.359C544.627 365.594 547.524 376.957 543.208 387.337C538.892 397.717 531.469 418.84 535.437 418.447C539.406 418.054 553.372 407.949 557.397 410.406C561.423 412.864 570.726 423.183 572.34 423.828C573.953 424.473 594.26 411.161 597.045 409.705C599.83 408.248 613.586 423.886 613.95 419.586C614.315 415.285 614.9 389.968 611.953 374.651C609.006 359.334 588.945 349.065 579.729 348.787Z" fill="white" stroke="#263238" stroke-width="1.64675" stroke-linecap="round" stroke-linejoin="round"/>
<path d="M585.956 328.75C585.956 328.75 579.315 347.358 573.728 353.882C568.14 360.405 565.753 361.443 563.922 376.443C562.09 391.442 571.147 425.257 573.986 424.516C576.826 423.775 604.077 384.303 613.235 377.791C622.392 371.28 631.949 364.436 631.949 364.436C631.949 364.436 609.466 358.557 601.787 350.071C595.98 343.288 590.692 336.165 585.956 328.75Z" fill="white"/>
<mask id="mask3_6_907" style="mask-type:luminance" maskUnits="userSpaceOnUse" x="563" y="328" width="69" height="97">
<path d="M585.956 328.75C585.956 328.75 579.315 347.358 573.728 353.882C568.14 360.405 565.753 361.443 563.922 376.443C562.09 391.442 571.147 425.257 573.986 424.516C576.826 423.775 604.077 384.303 613.235 377.791C622.392 371.28 631.949 364.436 631.949 364.436C631.949 364.436 609.466 358.557 601.787 350.071C595.98 343.288 590.692 336.165 585.956 328.75Z" fill="white"/>
</mask>
<g mask="url(#mask3_6_907)">
<path opacity="0.2" d="M617.183 374.992C624.934 369.467 631.933 364.45 631.933 364.45C631.933 364.45 609.451 358.571 601.771 350.086C595.972 343.316 590.689 336.207 585.957 328.807C583.679 335.107 581.011 341.289 577.965 347.327C581.431 355.763 591.005 369.489 617.183 374.992Z" fill="black"/>
<path d="M601.771 350.029C595.972 343.259 590.689 336.15 585.956 328.75C585.956 328.75 583.727 335 580.777 341.515C583.325 347.925 588.408 357.45 597.413 363.016C604.692 367.258 612.752 370.33 621.226 372.092L631.933 364.436C631.933 364.436 609.45 358.514 601.771 350.029Z" fill="#263238"/>
</g>
<path d="M585.956 328.75C585.956 328.75 579.315 347.358 573.728 353.882C568.14 360.405 565.753 361.443 563.922 376.443C562.09 391.442 571.147 425.257 573.986 424.516C576.826 423.775 604.077 384.303 613.235 377.791C622.392 371.28 631.949 364.436 631.949 364.436C631.949 364.436 609.466 358.557 601.787 350.071C595.98 343.288 590.692 336.165 585.956 328.75Z" stroke="#263238" stroke-width="1.64675" stroke-linecap="round" stroke-linejoin="round"/>
<path d="M670.845 280.569C670.845 280.569 669.863 304.486 670.719 312.315C671.574 320.143 674.909 333.766 667.8 346.591C660.691 359.416 654.765 367.762 647.982 369.955C641.199 372.148 619.134 368.071 601.409 356.449C583.684 344.828 580.274 320.605 577.392 312.78C574.51 304.955 577.494 278.17 595.444 269.448C609.98 262.629 626.9 261.076 642.667 265.113C652.323 267.88 670.845 280.569 670.845 280.569Z" fill="white"/>
<mask id="mask4_6_907" style="mask-type:luminance" maskUnits="userSpaceOnUse" x="576" y="262" width="97" height="109">
<path d="M670.845 280.569C670.845 280.569 669.863 304.486 670.719 312.315C671.574 320.143 674.909 333.766 667.8 346.591C660.691 359.416 654.765 367.762 647.982 369.955C641.199 372.148 619.134 368.071 601.409 356.449C583.684 344.828 580.274 320.605 577.392 312.78C574.51 304.955 577.494 278.17 595.444 269.448C609.98 262.629 626.9 261.076 642.667 265.113C652.323 267.88 670.845 280.569 670.845 280.569Z" fill="white"/>
</mask>
<g mask="url(#mask4_6_907)">
<path opacity="0.2" d="M595.509 269.448C592.949 270.71 590.634 272.331 588.652 274.249L597.98 280.041C597.98 280.041 609.803 269.324 636.608 284.075C650.439 291.691 662.317 292.834 670.592 292.146C670.73 285.785 670.942 280.569 670.942 280.569C670.942 280.569 652.419 267.837 642.779 265.055C626.989 261.024 610.049 262.599 595.509 269.448Z" fill="black"/>
</g>
<path d="M670.845 280.569C670.845 280.569 669.863 304.486 670.719 312.315C671.574 320.143 674.909 333.766 667.8 346.591C660.691 359.416 654.765 367.762 647.982 369.955C641.199 372.148 619.134 368.071 601.409 356.449C583.684 344.828 580.274 320.605 577.392 312.78C574.51 304.955 577.494 278.17 595.444 269.448C609.98 262.629 626.9 261.076 642.667 265.113C652.323 267.88 670.845 280.569 670.845 280.569Z" stroke="#263238" stroke-width="1.64675" stroke-linecap="round" stroke-linejoin="round"/>
<path d="M633.307 313.14C633.329 315.676 632.237 317.748 630.87 317.76C629.504 317.772 628.376 315.719 628.354 313.183C628.332 310.648 629.424 308.561 630.79 308.55C632.157 308.538 633.284 310.591 633.307 313.14Z" fill="#263238"/>
<path d="M662.575 315.279C662.597 317.829 661.506 319.901 660.139 319.913C658.773 319.925 657.645 317.871 657.623 315.322C657.601 312.772 658.693 310.714 660.059 310.702C661.426 310.691 662.553 312.744 662.575 315.279Z" fill="#263238"/>
<path d="M654.669 308.543C654.669 308.543 647.123 315.384 649.141 318.217C651.16 321.051 655.837 322.614 654.425 326.767C653.014 330.919 642.464 332.6 638.813 326.902" stroke="#263238" stroke-width="1.64675" stroke-linecap="round" stroke-linejoin="round"/>
<path d="M616.014 330.996C619.028 334.198 622.776 336.79 627.006 338.599C631.236 340.407 635.852 341.391 640.547 341.484C640.547 341.484 624.198 351.252 616.985 350.283C609.773 349.315 616.014 330.996 616.014 330.996Z" fill="#263238" stroke="#263238" stroke-width="1.64675" stroke-linecap="round" stroke-linejoin="round"/>
<path d="M619.586 299.651C619.586 299.651 626.489 290.996 640.46 296.218" stroke="#263238" stroke-width="1.64675" stroke-linecap="round" stroke-linejoin="round"/>
<path d="M657.39 299.595C657.39 299.595 666.186 297.714 669.451 305.22" stroke="#263238" stroke-width="1.64675" stroke-linecap="round" stroke-linejoin="round"/>
<path d="M580.305 322.381C580.305 322.381 583.786 308.441 592.554 303.366C601.323 298.29 609.741 299.292 604.473 292.562C599.204 285.832 596.316 279.067 607.543 275.76C618.771 272.454 640.798 277.621 653.65 281.793C666.502 285.964 691.341 287.196 697.617 271.055C701.487 261.108 689.841 253.316 681.349 249.336C671.936 244.948 661.401 242.819 650.835 244.572C644.412 245.616 638.305 247.918 631.878 248.547C621.001 249.63 611.363 245.215 600.53 247.644C591.437 249.66 583.321 254.256 577.407 260.737C567.453 271.825 564.812 291.831 580.305 322.381Z" fill="#263238"/>
<mask id="mask5_6_907" style="mask-type:luminance" maskUnits="userSpaceOnUse" x="569" y="243" width="130" height="80">
<path d="M580.305 322.381C580.305 322.381 583.786 308.441 592.554 303.366C601.323 298.29 609.741 299.292 604.473 292.562C599.204 285.832 596.316 279.067 607.543 275.76C618.771 272.454 640.798 277.621 653.65 281.793C666.502 285.964 691.341 287.196 697.617 271.055C701.487 261.108 689.841 253.316 681.349 249.336C671.936 244.948 661.401 242.819 650.835 244.572C644.412 245.616 638.305 247.918 631.878 248.547C621.001 249.63 611.363 245.215 600.53 247.644C591.437 249.66 583.321 254.256 577.407 260.737C567.453 271.825 564.812 291.831 580.305 322.381Z" fill="white"/>
</mask>
<g mask="url(#mask5_6_907)">
<path d="M672.359 243.712C672.359 243.712 693.253 253.559 678.829 270.344C664.406 287.129 650.591 275.789 615.985 270.158C581.38 264.528 561.139 279.902 561.139 279.902" stroke="#808080" stroke-width="1.64675" stroke-linecap="round" stroke-linejoin="round"/>
<path d="M564.207 298.096C564.207 298.096 570.765 286.58 592.378 283.026C613.991 279.472 615.271 282.455 615.271 282.455" stroke="#808080" stroke-width="1.64675" stroke-linecap="round" stroke-linejoin="round"/>
</g>
<path d="M580.305 322.381C580.305 322.381 583.786 308.441 592.554 303.366C601.323 298.29 609.741 299.292 604.473 292.562C599.204 285.832 596.316 279.067 607.543 275.76C618.771 272.454 640.798 277.621 653.65 281.793C666.502 285.964 691.341 287.196 697.617 271.055C701.487 261.108 689.841 253.316 681.349 249.336C671.936 244.948 661.401 242.819 650.835 244.572C644.412 245.616 638.305 247.918 631.878 248.547C621.001 249.63 611.363 245.215 600.53 247.644C591.437 249.66 583.321 254.256 577.407 260.737C567.453 271.825 564.812 291.831 580.305 322.381Z" stroke="#263238" stroke-width="1.64675" stroke-linecap="round" stroke-linejoin="round"/>
<path d="M589.313 317.232C589.313 317.232 578.743 296.137 569.69 307.246C560.636 318.354 577.335 332.162 589.756 329.347" fill="white"/>
<path d="M589.313 317.232C589.313 317.232 578.743 296.137 569.69 307.246C560.636 318.354 577.335 332.162 589.756 329.347" stroke="#263238" stroke-width="1.64675" stroke-linecap="round" stroke-linejoin="round"/>
<path d="M702.378 313.831C702.378 313.831 695.57 313.174 694.376 318.198C693.181 323.222 692.076 331.11 694.487 331.089C696.899 331.068 701.28 329.97 702.86 326.719C704.439 323.468 705.961 313.485 705.961 313.485L702.378 313.831Z" fill="white" stroke="#263238" stroke-width="1.64675" stroke-linecap="round" stroke-linejoin="round"/>
<path d="M713.168 311.947C713.168 311.947 703.508 310.598 702.378 313.831C701.248 317.064 699.704 328.179 700.897 328.469C702.089 328.76 709.285 325.904 709.285 325.904L713.168 311.947Z" fill="white" stroke="#263238" stroke-width="1.64675" stroke-linecap="round" stroke-linejoin="round"/>
<path d="M725.989 312.552C725.989 312.552 714.678 306.232 711.956 309.465C709.235 312.697 709.285 325.904 709.285 325.904C710.282 326.092 711.316 326.054 712.294 325.796C713.271 325.537 714.162 325.065 714.884 324.423C716.875 322.271 719.246 319.4 719.246 319.4C719.246 319.4 727.301 321.107 728.472 320.753C729.643 320.399 732.476 320.718 731.657 317.158C730.838 313.598 725.989 312.552 725.989 312.552Z" fill="white" stroke="#263238" stroke-width="1.64675" stroke-linecap="round" stroke-linejoin="round"/>
<path d="M741.271 318.851C736.191 315.783 732.031 311.654 729.155 306.823C725.087 299.366 723.08 299.713 721.082 302.968C719.084 306.223 721.523 309.382 723.156 312.218C724.789 315.055 731.649 321.785 731.649 321.785L741.271 318.851Z" fill="white" stroke="#263238" stroke-width="1.64675" stroke-linecap="round" stroke-linejoin="round"/>
<path d="M669.67 369.38C669.67 369.38 664.248 413.591 665.169 415.976C666.09 418.36 675.922 421.054 678.144 419.444C680.365 417.835 679.003 414.667 678.085 412.684C677.167 410.7 685.336 373.628 685.336 373.628L669.67 369.38Z" fill="#92E3A9" stroke="#263238" stroke-width="1.64675" stroke-linecap="round" stroke-linejoin="round"/>
<path d="M523.562 385.946L553.664 467.467C553.664 467.467 620.893 431.845 636.556 413.43C652.22 395.016 661.174 374.325 666.753 372.342C672.331 370.36 692.118 374.987 695.037 377.827C697.957 380.667 697.308 383.81 693.829 386.791C690.349 389.772 688.359 390.205 688.359 390.205C688.359 390.205 688.238 396.638 686.672 397.768C685.106 398.899 685.463 397.449 685.073 398.885C684.813 400.419 684.196 401.888 683.261 403.199C682.116 404.641 681.672 405.39 680.566 405.786C678.27 406.68 675.879 407.363 673.428 407.825C669.115 408.855 664.726 409.611 660.294 410.087C657.516 410.541 639.671 442.598 622.824 461.753C605.977 480.909 552.618 524.962 544.179 525.265C535.739 525.567 485.518 453.031 474.734 435.204" fill="white"/>
<mask id="mask6_6_907" style="mask-type:luminance" maskUnits="userSpaceOnUse" x="474" y="371" width="223" height="155">
<path d="M523.562 385.946L553.664 467.467C553.664 467.467 620.893 431.845 636.556 413.43C652.22 395.016 661.174 374.325 666.753 372.342C672.331 370.36 692.118 374.987 695.037 377.827C697.957 380.667 697.308 383.81 693.829 386.791C690.349 389.772 688.359 390.205 688.359 390.205C688.359 390.205 688.238 396.638 686.672 397.768C685.106 398.899 685.463 397.449 685.073 398.885C684.813 400.419 684.196 401.888 683.261 403.199C682.116 404.641 681.672 405.39 680.566 405.786C678.27 406.68 675.879 407.363 673.428 407.825C669.115 408.855 664.726 409.611 660.294 410.087C657.516 410.541 639.671 442.598 622.824 461.753C605.977 480.909 552.618 524.962 544.179 525.265C535.739 525.567 485.518 453.031 474.734 435.204" fill="white"/>
</mask>
<g mask="url(#mask6_6_907)">
<path opacity="0.2" d="M683.261 403.17C684.196 401.86 684.813 400.391 685.073 398.857C685.414 397.421 685.073 398.857 686.671 397.74C688.27 396.623 688.358 390.176 688.358 390.176C688.358 390.176 690.349 389.743 693.828 386.762C697.308 383.781 697.972 380.552 695.037 377.798C692.103 375.045 672.284 370.403 666.752 372.314C665.31 372.827 663.556 374.633 661.65 377.343C664.63 381.615 668.142 384.206 664.991 391.739C660.267 403.24 649.135 417.662 639.593 429.921C630.051 442.18 550.239 510.199 540.579 508.851C532.69 507.744 509.596 483.334 501.383 474.481C519.028 499.239 539.195 525.38 544.259 525.207C552.666 524.905 606.089 480.865 622.904 461.695C639.719 442.526 657.515 410.455 660.294 410.059C664.726 409.582 669.115 408.826 673.428 407.796C675.878 407.334 678.27 406.651 680.566 405.757C681.752 405.36 682.116 404.641 683.261 403.17Z" fill="black"/>
</g>
<path d="M523.562 385.946L553.664 467.467C553.664 467.467 620.893 431.845 636.556 413.43C652.22 395.016 661.174 374.325 666.753 372.342C672.331 370.36 692.118 374.987 695.037 377.827C697.957 380.667 697.308 383.81 693.829 386.791C690.349 389.772 688.359 390.205 688.359 390.205C688.359 390.205 688.238 396.638 686.672 397.768C685.106 398.899 685.463 397.449 685.073 398.885C684.813 400.419 684.196 401.888 683.261 403.199C682.116 404.641 681.672 405.39 680.566 405.786C678.27 406.68 675.879 407.363 673.428 407.825C669.115 408.855 664.726 409.611 660.294 410.087C657.516 410.541 639.671 442.598 622.824 461.753C605.977 480.909 552.618 524.962 544.179 525.265C535.739 525.567 485.518 453.031 474.734 435.204" stroke="#263238" stroke-width="1.64675" stroke-linecap="round" stroke-linejoin="round"/>
<path d="M553.663 467.467C553.663 467.467 545.964 467.82 539.595 486.211" stroke="#263238" stroke-width="1.64675" stroke-linecap="round" stroke-linejoin="round"/>
<path d="M673.427 407.796C675.877 407.334 678.269 406.651 680.565 405.757C681.752 405.36 682.163 404.641 683.26 403.17C684.195 401.86 684.812 400.391 685.072 398.857C685.413 397.421 686.454 396.925 688.004 395.794C689.554 394.664 688.309 390.176 688.309 390.176C688.309 390.176 690.299 389.744 693.779 386.762C697.259 383.781 697.922 380.552 694.988 377.799C692.053 375.045 672.235 370.404 666.704 372.314C661.172 374.224 652.944 393.305 638.546 411.093L652.17 420.859C656.36 414.519 659.346 410.225 660.341 410.058C664.757 409.58 669.13 408.824 673.427 407.796Z" fill="white"/>
<mask id="mask7_6_907" style="mask-type:luminance" maskUnits="userSpaceOnUse" x="638" y="371" width="59" height="50">
<path d="M673.427 407.796C675.877 407.334 678.269 406.651 680.565 405.757C681.752 405.36 682.163 404.641 683.26 403.17C684.195 401.86 684.812 400.391 685.072 398.857C685.413 397.421 686.454 396.925 688.004 395.794C689.554 394.664 688.309 390.176 688.309 390.176C688.309 390.176 690.299 389.744 693.779 386.762C697.259 383.781 697.922 380.552 694.988 377.799C692.053 375.045 672.235 370.404 666.704 372.314C661.172 374.224 652.944 393.305 638.546 411.093L652.17 420.859C656.36 414.519 659.346 410.225 660.341 410.058C664.757 409.58 669.13 408.824 673.427 407.796Z" fill="white"/>
</mask>
<g mask="url(#mask7_6_907)">
<path opacity="0.2" d="M683.261 403.17C684.196 401.86 684.813 400.391 685.073 398.857C685.414 397.421 685.073 398.857 686.671 397.74C688.27 396.623 688.359 390.176 688.359 390.176C688.359 390.176 690.349 389.743 693.828 386.762C697.308 383.781 697.972 380.552 695.037 377.798C692.103 375.045 672.284 370.403 666.752 372.314C665.31 372.828 663.556 374.633 661.65 377.343C664.63 381.615 668.142 384.206 664.991 391.739C660.267 403.24 649.135 417.662 639.593 429.921C630.051 442.18 550.239 510.2 540.579 508.851C532.69 507.744 509.596 483.334 501.383 474.481C519.028 499.239 539.195 525.38 544.259 525.207C552.666 524.905 606.089 480.865 622.904 461.695C639.719 442.526 657.515 410.455 660.294 410.059C664.726 409.582 669.115 408.826 673.428 407.796C675.878 407.334 678.27 406.651 680.566 405.757C681.752 405.36 682.116 404.641 683.261 403.17Z" fill="black"/>
</g>
<path d="M673.427 407.796C675.877 407.334 678.269 406.651 680.565 405.757C681.752 405.36 682.163 404.641 683.26 403.17C684.195 401.86 684.812 400.391 685.072 398.857C685.413 397.421 686.454 396.925 688.004 395.794C689.554 394.664 688.309 390.176 688.309 390.176C688.309 390.176 690.299 389.744 693.779 386.762C697.259 383.781 697.922 380.552 694.988 377.799C692.053 375.045 672.235 370.404 666.704 372.314C661.172 374.224 652.944 393.305 638.546 411.093L652.17 420.859C656.36 414.519 659.346 410.225 660.341 410.058C664.757 409.58 669.13 408.824 673.427 407.796Z" stroke="#263238" stroke-width="1.64675" stroke-linecap="round" stroke-linejoin="round"/>
<path d="M655.35 340.64C650.928 340.678 647.36 346.439 647.42 353.372C647.48 360.304 651.116 366.003 655.57 365.964L753.882 391.513L753.195 312.316L655.35 340.64Z" fill="#FFC700" stroke="#263238" stroke-width="1.64675" stroke-linecap="round" stroke-linejoin="round"/>
<path d="M710.442 329.619L672.259 339.762" stroke="#263238" stroke-width="1.64675" stroke-linecap="round" stroke-linejoin="round"/>
<path d="M723.213 326.228L715.224 328.36" stroke="#263238" stroke-width="1.64675" stroke-linecap="round" stroke-linejoin="round"/>
<path d="M667.877 337.007L655.35 340.64C650.928 340.678 647.36 346.439 647.42 353.372C647.48 360.304 651.116 366.003 655.569 365.964L666.932 368.917C664.223 363.921 662.896 358.418 663.061 352.868C663.225 347.317 664.877 341.879 667.877 337.007Z" fill="#263238" stroke="#263238" stroke-width="1.64675" stroke-linecap="round" stroke-linejoin="round"/>
<path d="M762.445 405.563C781.022 405.402 795.876 381.46 795.621 352.087C795.366 322.714 780.1 299.032 761.523 299.194C742.946 299.355 728.092 323.297 728.347 352.67C728.602 382.043 743.868 405.724 762.445 405.563Z" fill="#D6D6D6" stroke="#263238" stroke-width="1.64675" stroke-linecap="round" stroke-linejoin="round"/>
<path d="M761.882 340.575L729.77 333.219L727.149 353.583L730.93 374.235L762.086 364.181L763.092 341.138" fill="#D6D6D6"/>
<path d="M761.882 340.575L729.77 333.219L727.149 353.583L730.93 374.235L762.086 364.181L763.092 341.138" stroke="#263238" stroke-width="1.64675" stroke-linecap="round" stroke-linejoin="round"/>
<path d="M761.481 294.409C741.238 294.585 725.047 320.682 725.324 352.696C725.602 384.71 742.243 410.523 762.486 410.347C782.73 410.172 798.921 384.075 798.644 352.061C798.366 320.047 781.725 294.234 761.481 294.409ZM763.316 402.118C746.449 402.264 732.573 380.109 732.334 352.635C732.096 325.162 745.586 302.784 762.453 302.638C779.32 302.492 793.196 324.632 793.434 352.106C793.672 379.579 780.198 401.971 763.316 402.118Z" fill="#263238" stroke="#263238" stroke-width="1.64675" stroke-linecap="round" stroke-linejoin="round"/>
<path d="M762.087 364.181C766.207 364.146 769.502 358.832 769.445 352.314C769.389 345.795 766.003 340.54 761.882 340.575C757.762 340.611 754.467 345.924 754.524 352.443C754.581 358.962 757.967 364.217 762.087 364.181Z" fill="#FFC700" stroke="#263238" stroke-width="1.64675" stroke-linecap="round" stroke-linejoin="round"/>
<path d="M856.009 291.427L863.436 289.3" stroke="#263238" stroke-width="1.64675" stroke-linecap="round" stroke-linejoin="round"/>
<path d="M802.834 306.585L846.849 294.027" stroke="#263238" stroke-width="1.64675" stroke-linecap="round" stroke-linejoin="round"/>
<path d="M808.991 349.049L849.489 349.987" stroke="#263238" stroke-width="1.64675" stroke-linecap="round" stroke-linejoin="round"/>
<path d="M842.992 401.742L851.406 404.076" stroke="#263238" stroke-width="1.64675" stroke-linecap="round" stroke-linejoin="round"/>
<path d="M806.465 391.587L836.318 399.895" stroke="#263238" stroke-width="1.64675" stroke-linecap="round" stroke-linejoin="round"/>
<path d="M807.343 325.871L829.011 323.104" stroke="#263238" stroke-width="1.64675" stroke-linecap="round" stroke-linejoin="round"/>
<path d="M797.905 405.829L813.924 417.293" stroke="#263238" stroke-width="1.64675" stroke-linecap="round" stroke-linejoin="round"/>
</g>
<path d="M1064.02 697.212L1181.33 699.268C1186.73 699.363 1191.17 695.794 1191.25 691.31L1192.39 626.273C1192.47 621.789 1188.15 618.067 1182.76 617.973L1094.68 616.429L1065.7 599.694L1065.45 615.916C1060.05 615.822 1055.61 619.39 1055.53 623.874L1054.39 688.911C1054.31 693.395 1058.63 697.117 1064.02 697.212Z" fill="#FFC700" fill-opacity="0.4"/>
<path opacity="0.2" d="M1057.72 656.132C1057.44 672.061 1069.75 686.673 1089.8 697.355L1181.85 698.969C1190.46 699.12 1197.52 695.597 1197.6 691.113L1198.74 626.076C1198.82 621.592 1191.88 617.824 1183.27 617.673L1091.23 616.059C1070.81 626.032 1058 640.203 1057.72 656.132Z" fill="#FFC700" fill-opacity="0.4"/>
<path d="M1172.27 658.449C1172.31 656.293 1171.31 654.207 1169.51 652.65C1167.7 651.094 1165.23 650.194 1162.64 650.148C1160.04 650.103 1157.54 650.916 1155.68 652.408C1153.82 653.901 1152.76 655.95 1152.72 658.106C1152.68 660.262 1153.67 662.348 1155.48 663.905C1157.29 665.462 1159.76 666.362 1162.35 666.407C1164.94 666.453 1167.45 665.64 1169.31 664.147C1171.17 662.655 1172.23 660.605 1172.27 658.449Z" fill="#333333"/>
<path d="M1133.17 657.764C1133.2 655.608 1132.21 653.522 1130.4 651.965C1128.6 650.408 1126.13 649.508 1123.53 649.463C1120.94 649.417 1118.44 650.23 1116.58 651.723C1114.72 653.215 1113.65 655.265 1113.61 657.421C1113.58 659.577 1114.57 661.663 1116.38 663.22C1118.18 664.776 1120.65 665.676 1123.25 665.722C1125.84 665.767 1128.34 664.954 1130.2 663.462C1132.06 661.969 1133.13 659.92 1133.17 657.764Z" fill="#333333"/>
<path d="M1094.06 657.078C1094.1 654.922 1093.11 652.836 1091.3 651.279C1089.49 649.723 1087.02 648.823 1084.43 648.777C1081.84 648.732 1079.33 649.545 1077.47 651.037C1075.61 652.53 1074.55 654.579 1074.51 656.735C1074.47 658.891 1075.47 660.977 1077.27 662.534C1079.08 664.091 1081.55 664.991 1084.14 665.036C1086.74 665.082 1089.24 664.269 1091.1 662.776C1092.96 661.284 1094.02 659.234 1094.06 657.078Z" fill="#333333"/>
<path d="M1329.39 700.959L1312.65 681.572C1320.49 669.399 1322.39 654.622 1317.84 640.796C1317.42 639.493 1315.93 638.792 1314.56 639.193C1313.18 639.593 1312.39 640.996 1312.86 642.299C1317.15 655.223 1315.14 669.049 1307.3 680.32L1307.14 680.52C1306.61 681.422 1306.67 682.524 1307.35 683.326L1325.31 704.065C1325.31 704.065 1325.57 704.365 1325.63 704.365C1327.11 705.968 1327.11 708.222 1325.68 709.875C1325.63 709.926 1325.63 709.976 1325.57 709.976L1325.2 710.326C1323.51 711.679 1321.02 711.679 1319.27 710.226C1319.16 710.126 1319.11 710.076 1319.01 709.976L1297.08 693.044C1296.18 692.343 1294.91 692.292 1293.95 692.894L1293.74 693.044C1275.26 704.465 1250.53 702.161 1234.74 687.534C1234.64 687.383 1234.59 687.233 1234.48 687.133C1216.05 669.8 1216.05 641.497 1234.43 624.114C1252.8 606.732 1282.73 606.732 1301.1 624.114C1301.21 624.215 1301.37 624.315 1301.53 624.365C1301.58 624.415 1301.69 624.515 1301.74 624.565C1302.64 625.617 1304.34 625.767 1305.45 624.866C1306.56 624.014 1306.72 622.411 1305.77 621.359C1305.55 621.109 1305.24 620.808 1304.92 620.508C1284.53 601.271 1251.32 601.121 1230.77 620.357C1230.72 620.407 1230.61 620.458 1230.56 620.558C1222.09 628.573 1216.79 639.243 1215.57 650.514C1215.04 655.423 1215.31 660.332 1216.26 665.091C1218.27 674.86 1223.25 683.726 1230.72 690.79C1247.83 706.92 1274.68 709.875 1295.23 698.053L1315.56 713.783C1315.67 713.883 1315.83 714.033 1315.93 714.133C1317.79 715.636 1320.01 716.338 1322.24 716.338C1324.51 716.338 1326.79 715.586 1328.64 714.083L1329.54 713.282C1329.7 713.132 1329.81 712.981 1329.92 712.781C1332.72 709.324 1332.62 704.515 1329.6 701.159C1329.54 701.109 1329.44 701.009 1329.39 700.959Z" fill="black" fill-opacity="0.3"/>
<path d="M1344.85 607.533C1344.32 606.832 1343.42 606.431 1342.47 606.531L1325.47 608.235C1324.51 608.335 1323.72 608.886 1323.35 609.687C1322.98 610.489 1323.08 611.441 1323.61 612.142L1327.37 617.001L1267.63 657.728C1267 658.128 1266.63 658.83 1266.57 659.531L1264.99 678.817L1239.14 654.922C1238.61 654.421 1237.87 654.171 1237.13 654.221L1229.55 654.722C1228.12 654.822 1227.01 655.974 1227.12 657.377C1227.22 658.729 1228.49 659.781 1229.92 659.681L1236.33 659.28L1265.36 686.081C1265.83 686.532 1266.52 686.782 1267.21 686.782C1267.53 686.782 1267.85 686.732 1268.11 686.632C1269.06 686.281 1269.7 685.48 1269.8 684.528L1271.76 661.134L1330.6 621.109L1333.83 625.317C1334.31 625.968 1335.11 626.319 1335.95 626.319C1336.06 626.319 1336.16 626.319 1336.22 626.319C1337.17 626.218 1337.97 625.667 1338.34 624.866L1345.22 610.088C1345.54 609.186 1345.43 608.285 1344.85 607.533ZM1335.32 618.855L1330.6 612.743L1338.55 611.942L1335.32 618.855Z" fill="black" fill-opacity="0.3"/>
<path d="M133.43 44.6221L16.1148 46.5392C10.7225 46.6273 6.39805 50.3446 6.47132 54.8287L7.53414 119.867C7.60741 124.351 12.051 127.925 17.4433 127.837L105.522 126.397L135.054 142.141L134.759 125.92C140.151 125.832 144.475 122.114 144.402 117.63L143.339 52.5921C143.266 48.108 138.822 44.534 133.43 44.6221Z" fill="#FFC700" fill-opacity="0.4"/>
<path opacity="0.2" d="M141.119 85.4649C140.859 69.5357 128.066 55.3487 107.659 45.352L15.6106 46.8563C7.00315 46.9969 0.0646111 50.757 0.137887 55.241L1.2007 120.279C1.27398 124.763 8.33167 128.294 16.9391 128.154L108.988 126.65C129.057 115.992 141.38 101.394 141.119 85.4649Z" fill="#FFC700" fill-opacity="0.4"/>
<path d="M26.5553 87.0282C26.5905 89.1844 27.6543 91.2354 29.5127 92.73C31.371 94.2247 33.8716 95.0406 36.4644 94.9982C39.0573 94.9558 41.5299 94.0587 43.3384 92.5041C45.1469 90.9495 46.1431 88.8648 46.1079 86.7087C46.0727 84.5525 45.0089 82.5015 43.1505 81.0069C41.2922 79.5122 38.7916 78.6963 36.1987 78.7387C33.6059 78.7811 31.1333 79.6782 29.3248 81.2328C27.5163 82.7874 26.5201 84.8721 26.5553 87.0282Z" fill="#333333"/>
<path d="M65.6605 86.3892C65.6957 88.5453 66.7595 90.5963 68.6178 92.091C70.4761 93.5856 72.9768 94.4015 75.5696 94.3592C78.1624 94.3168 80.6351 93.4196 82.4436 91.8651C84.2521 90.3105 85.2483 88.2258 85.2131 86.0697C85.1778 83.9135 84.114 81.8625 82.2557 80.3678C80.3974 78.8732 77.8967 78.0573 75.3039 78.0997C72.7111 78.142 70.2384 79.0392 68.4299 80.5938C66.6214 82.1484 65.6252 84.233 65.6605 86.3892Z" fill="#333333"/>
<path d="M104.766 85.7501C104.801 87.9063 105.865 89.9573 107.723 91.4519C109.581 92.9466 112.082 93.7625 114.675 93.7201C117.268 93.6778 119.74 92.7806 121.549 91.226C123.357 89.6714 124.353 87.5868 124.318 85.4306C124.283 83.2745 123.219 81.2235 121.361 79.7288C119.503 78.2341 117.002 77.4182 114.409 77.4606C111.816 77.503 109.344 78.4002 107.535 79.9547C105.727 81.5093 104.73 83.594 104.766 85.7501Z" fill="#333333"/>
</g>
<defs>
<clipPath id="clip0_6_907">
<rect width="1345.4" height="724" fill="white"/>
</clipPath>
</defs>
</svg>
