<svg width="678" height="651" viewBox="0 0 678 651" fill="none" xmlns="http://www.w3.org/2000/svg">
<path d="M559.251 128.138C560.755 126.792 561.955 125.141 562.772 123.294C563.586 121.447 563.999 119.446 563.98 117.427C563.961 115.408 563.509 113.416 562.657 111.585C561.804 109.755 560.57 108.127 559.039 106.812C557.422 105.428 555.822 104.05 554.233 102.681C542.105 92.2528 529.565 81.4559 516.45 72.2458C416.25 1.7234 312.136 1.32665 207.021 38.7275C111.848 72.566 50.7297 140.264 25.338 239.905C-2.98697 351.229 21.8166 449.44 99.1112 531.843C101.122 533.972 103.174 536.101 105.224 538.134C146.745 579.658 198.462 605.293 239.439 623.129C257.027 630.813 347.272 640.14 371.689 636.502C516.798 614.832 612.288 532.988 645.55 396.065C651.899 369.244 655.062 341.768 654.969 314.206C654.827 285.261 649.959 256.532 640.558 229.155C639.872 227.107 638.746 225.236 637.253 223.675C635.76 222.114 633.943 220.903 631.926 220.127C629.912 219.351 627.748 219.03 625.596 219.187C623.444 219.345 621.349 219.976 619.471 221.037L619.077 221.261C616.088 222.973 613.793 225.681 612.601 228.912C611.405 232.142 611.386 235.69 612.543 238.934C621.029 262.466 625.357 287.295 625.33 312.31C625.037 342.321 620.975 372.175 613.237 401.173C590.31 484.502 535.498 545.235 445.669 586.778C354.345 630.5 223.38 586.296 188.535 563.291C150.021 536.961 116.32 504.205 88.9079 466.454C45.9169 405.582 36.2718 318.094 59.3735 238.11C70.1843 201.181 89.0776 167.119 114.684 138.397C140.291 109.675 171.968 87.0107 207.42 72.0487C299.649 33.7202 392.189 26.9591 482.449 84.3615C494.549 92.0665 525.407 116.296 541.002 128.669C543.617 130.744 546.884 131.828 550.221 131.728C553.561 131.628 556.755 130.35 559.243 128.121L559.251 128.138Z" fill="#E050B0" stroke="#E050B0" stroke-width="26.2295"/>
<path d="M298.625 413.192C304.806 407.317 308.202 404.343 311.31 401.095C410.965 296.981 520.103 203.248 629.885 110.24C634.036 106.726 638.283 102.245 643.193 100.986C649.114 99.4733 658.769 101.213 661.415 104.428C663.155 106.804 664.254 109.587 664.605 112.51C664.96 115.432 664.555 118.397 663.436 121.119C660.856 127.886 654.568 133.681 648.867 138.746C614.838 168.983 579.857 198.178 546.429 229.04C476.551 293.575 407.12 358.59 338.13 424.085C307.9 452.721 296.267 453.882 268.45 423.282C250.14 403.132 194.88 335.214 177.957 313.815C175.566 310.489 173.436 306.982 171.587 303.327C167.77 296.558 165.274 289.099 172.862 283.851C181.314 278.006 187.311 284.105 192.322 290.456C197.392 296.886 201.715 303.948 207.143 310.041C223.996 328.951 280.416 393.246 298.625 413.192Z" fill="#E050B0" stroke="#E050B0" stroke-width="26.2295"/>
</svg>
