<svg width="800" height="800" viewBox="0 0 800 800" fill="none" xmlns="http://www.w3.org/2000/svg">
<path d="M349.375 130.625C470.156 130.625 568.125 228.594 568.125 349.375C568.125 470.156 470.156 568.125 349.375 568.125C228.594 568.125 130.625 470.156 130.625 349.375C130.625 228.437 228.437 130.625 349.375 130.625Z" fill="#FFC700"/>
<path d="M520.313 212.812C482.969 182.969 435.625 165.156 384.063 165.156C263.125 165.156 165.313 263.125 165.313 383.906C165.313 435.469 183.125 482.969 213.125 520.312C162.969 480.312 130.781 418.438 130.781 349.375C130.781 228.437 228.75 130.625 349.531 130.625C418.594 130.625 480.156 162.656 520.313 212.812Z" fill="#FFC700"/>
<path d="M349.375 187.969C438.438 187.969 510.625 260.156 510.625 349.375C510.625 438.438 438.438 510.625 349.375 510.625C260.313 510.625 187.969 438.438 187.969 349.375C187.969 260.156 260.156 187.969 349.375 187.969Z" fill="white"/>
<path d="M510.625 349.375C510.625 438.438 438.438 510.625 349.375 510.625C292.813 510.625 243.125 481.563 214.375 437.656C239.688 454.375 270.156 464.063 302.813 464.063C391.875 464.063 464.063 391.875 464.063 302.813C464.063 270.156 454.375 239.688 437.656 214.375C481.719 243.125 510.625 292.813 510.625 349.375Z" fill="#EDEDED"/>
<path d="M349.375 516.875C257.031 516.875 181.719 441.719 181.719 349.375C181.719 257.031 256.875 181.719 349.375 181.719C442.031 181.719 516.875 256.719 516.875 349.375C516.875 441.719 441.719 516.875 349.375 516.875ZM349.375 194.219C263.906 194.219 194.219 263.75 194.219 349.375C194.219 434.844 263.75 504.375 349.375 504.375C434.844 504.375 504.375 434.844 504.375 349.375C504.375 307.969 488.281 269.062 458.906 239.687C429.531 210.312 390.781 194.219 349.375 194.219Z" fill="#333333"/>
<path d="M568.594 517.5C568.125 517.813 567.813 518.125 567.344 518.594L518.594 567.344C518.125 567.813 517.813 568.281 517.5 568.594L476.25 527.344C495.938 513.281 513.281 495.938 527.5 476.25L568.594 517.5Z" fill="white"/>
<path d="M788.281 731.719L731.719 788.281C724.219 795.625 712.344 795.625 704.844 788.281L518.594 601.875C509.062 592.188 509.062 576.875 518.594 567.344L567.344 518.594C576.875 509.062 592.344 509.062 601.875 518.594L788.281 705C795.625 712.344 795.625 724.219 788.281 731.719Z" fill="#FBB381"/>
<path d="M788.281 731.719L731.719 788.281C724.219 795.625 712.344 795.625 704.844 788.281L669.844 753.125C677.187 760.469 689.219 760.469 696.719 753.125L753.281 696.562C760.625 689.062 760.625 677.187 753.281 669.844L788.437 705C795.625 712.344 795.625 724.219 788.281 731.719Z" fill="#FA9957"/>
<path d="M637.031 553.75C627.5 544.219 612.031 544.219 602.5 553.75L553.75 602.5C544.219 611.875 544.219 627.344 553.594 636.875L518.594 601.875C509.062 592.188 509.062 576.875 518.594 567.344L567.344 518.594C576.875 509.062 592.344 509.062 601.875 518.594L637.031 553.75Z" fill="#FCCCAB"/>
<path d="M792.656 700.469L606.25 514.219C603.438 511.406 600.312 509.375 596.875 507.969C615.938 478.125 629.531 445.469 636.875 410.625H670.938C686.25 410.625 698.75 398.281 698.75 382.969V315.937C698.75 300.625 686.25 288.125 670.938 288.125H636.875C629.375 252.812 615.625 219.531 595.938 189.219L620 165.156C630.938 154.219 630.781 136.719 620 125.781L572.656 78.75C562.031 67.9687 544.375 67.8125 533.438 78.75L509.375 102.813C478.906 82.9688 445.781 69.2187 410.625 61.875V27.6563C410.469 12.5 398.125 0 382.812 0H315.938C300.625 0 288.281 12.5 288.281 27.6563V61.875C252.969 69.2187 219.688 83.125 189.375 102.813L165.312 78.75C154.531 67.9687 136.875 67.9687 126.094 78.75L78.5938 125.937C67.5 137.187 67.9688 154.687 78.5938 165.156L102.656 189.219C82.9687 219.531 69.2188 252.656 61.7188 288.125H27.6563C12.3438 288.125 0 300.625 0 315.781V382.812C0 398.125 12.3438 410.469 27.6563 410.625H61.875C69.2187 445.781 82.9688 479.062 102.813 509.531L78.75 533.594C67.8125 544.219 67.8125 561.875 78.5938 572.812L125.938 620.156C136.562 630.937 154.219 630.781 165 620.156L189.062 596.094C219.688 615.937 252.812 629.687 288.125 637.187V671.25C288.125 686.25 300.156 698.906 315.625 698.906C315.625 698.906 315.625 698.906 315.781 698.906H382.656C397.969 698.906 410.469 686.406 410.469 671.25V637.187C445.156 629.844 477.656 616.406 507.656 597.187C509.219 600.625 511.406 603.906 514.062 606.719L700.312 792.969C709.844 802.656 725.938 802.969 735.938 792.969L792.5 736.406C802.5 726.25 802.5 710.312 792.656 700.469ZM505.312 583.594C474.062 604.531 439.688 618.594 403.125 625.625C400.156 626.25 398.125 628.75 398.125 631.875V671.094C398.125 679.375 391.25 686.25 382.812 686.25H315.938C315.938 686.25 315.938 686.25 315.781 686.25C307.656 686.25 300.781 679.687 300.781 671.094V631.875C300.781 628.906 298.594 626.25 295.625 625.625C256.719 618.281 222.813 603.281 191.25 582.344C188.75 581.094 185.938 581.562 184.062 583.437L156.25 611.094C150.312 617.031 140.625 617.031 134.688 611.25L87.5 563.75C81.5625 557.812 81.5625 548.125 87.5 542.187L115.156 514.531C117.344 512.344 117.656 509.062 115.937 506.719C94.6875 475 80.3125 440.156 73.125 403.125C72.5 400.156 70 398.125 67.0312 398.125H27.6563C19.2188 398.125 12.5 391.25 12.5 382.812V315.781C12.5 307.344 19.375 300.625 27.6563 300.625H66.875C69.8438 300.625 72.5 298.437 72.9688 295.625C80.1562 258.437 94.5312 223.437 115.781 192.031C117.5 189.531 117.188 186.25 115 184.062L87.5 156.25C81.4062 150.312 81.5625 140.625 87.5 134.844L134.688 87.5C140.625 81.5625 150.312 81.5625 156.25 87.5L183.906 115.313C185.938 117.344 189.219 117.812 192.031 115.937C223.594 94.6875 258.438 80.3125 295.469 73.125C298.438 72.5 300.625 70 300.625 67.0312V27.6563C300.625 19.375 307.344 12.5 315.781 12.5H382.812C391.25 12.5 398.125 19.375 398.125 27.6563V66.875C398.125 69.8437 400.312 72.5 403.125 72.9687C440.312 80.1562 475 94.5312 506.719 115.781C509.219 117.5 512.5 117.187 514.531 115L542.344 87.5C548.125 81.7187 557.656 81.4062 563.75 87.5L611.094 134.687C617.031 140.625 617.188 150.312 611.094 156.25L583.281 183.906C581.406 185.781 580.938 188.437 582.031 190.781C582.344 191.406 582.656 192.031 582.969 192.5C604.062 223.906 618.281 258.594 625.469 295.625C626.094 298.594 628.594 300.625 631.719 300.625H670.938C679.375 300.625 686.25 307.5 686.25 315.937V382.812C686.25 391.094 679.375 397.969 670.938 397.969H631.875C628.906 397.969 626.25 400.156 625.781 402.969C618.594 439.687 604.531 474.219 583.75 505.156C578.75 505.312 573.906 506.719 569.531 509.219L535.625 475.313C560.156 439.375 574.375 395.937 574.375 349.219C574.375 225.156 473.438 124.219 349.375 124.219C225.312 124.219 124.375 225.156 124.375 349.219C124.375 473.281 225.312 574.219 349.375 574.219C396.094 574.219 439.531 559.844 475.469 535.469L509.375 569.375C506.875 573.594 505.469 578.437 505.312 583.594ZM349.375 561.719C232.188 561.719 136.875 466.406 136.875 349.219C136.875 232.031 232.188 136.719 349.375 136.719C466.562 136.719 561.875 232.031 561.875 349.219C561.875 466.562 466.562 561.719 349.375 561.719ZM485.938 528.125C501.875 515.937 516.094 501.875 528.281 485.781L559.844 517.344L517.5 559.687L485.938 528.125ZM783.75 727.344L727.188 783.906C722.188 788.906 714.219 788.906 709.219 783.906L523.125 597.5C516.094 590.625 515.781 579.062 523.125 571.719L571.875 522.969C579.062 515.937 590.312 515.781 597.5 522.969L783.75 709.375C788.75 714.219 788.75 722.344 783.75 727.344Z" fill="#333333"/>
</svg>
