<svg width="89" height="89" viewBox="0 0 89 89" fill="none" xmlns="http://www.w3.org/2000/svg">
<path d="M44.5 89C69.0797 89 89 69.0763 89 44.5C89 19.9237 69.0797 0 44.5 0C19.9237 0 0 19.9237 0 44.5C0 69.0763 19.9237 89 44.5 89ZM44.5 3.55986C67.0741 3.55986 85.4401 21.9259 85.4401 44.5C85.4401 67.0741 67.0741 85.4401 44.5 85.4401C21.9225 85.4401 3.55986 67.0741 3.55986 44.5C3.55986 21.9259 21.9225 3.55986 44.5 3.55986Z" fill="url(#paint0_linear_113_9)"/>
<path d="M56.2121 21.4238C55.8339 21.2225 55.4079 21.1279 54.98 21.1503C54.552 21.1727 54.1383 21.3113 53.7831 21.551L23.0309 42.4094C22.7167 42.6227 22.4588 42.909 22.2794 43.2437C22.1 43.5785 22.0044 43.9517 22.0008 44.3315C21.9971 44.7112 22.0856 45.0862 22.2586 45.4243C22.4316 45.7624 22.6839 46.0536 22.994 46.2728L53.3423 67.7148C53.6925 67.9621 54.1037 68.1089 54.5314 68.1392C54.9591 68.1696 55.3869 68.0824 55.7686 67.8871C56.1502 67.6917 56.4712 67.3957 56.6967 67.0311C56.9222 66.6664 57.0436 66.247 57.0479 65.8183L57.4519 23.518C57.456 23.089 57.3427 22.6671 57.1242 22.2979C56.9056 21.9288 56.5902 21.6265 56.2121 21.4238Z" fill="url(#paint1_linear_113_9)"/>
<defs>
<linearGradient id="paint0_linear_113_9" x1="44.5" y1="0" x2="44.5" y2="89" gradientUnits="userSpaceOnUse">
<stop stop-color="#FFA000" stop-opacity="0.6"/>
<stop offset="0.5" stop-color="#FFB300" stop-opacity="0.8"/>
<stop offset="1" stop-color="#FFCA28"/>
</linearGradient>
<linearGradient id="paint1_linear_113_9" x1="39.4009" y1="67.9992" x2="39.8497" y2="21.0013" gradientUnits="userSpaceOnUse">
<stop stop-color="#FFCA28"/>
<stop offset="0.5" stop-color="#FFB300" stop-opacity="0.8"/>
<stop offset="1" stop-color="#FFA000" stop-opacity="0.6"/>
</linearGradient>
</defs>
</svg>
