<svg width="1116" height="723" viewBox="0 0 1116 723" fill="none" xmlns="http://www.w3.org/2000/svg">
<path d="M837.057 370.654C837.057 562.68 679.458 718.347 468.864 718.347C258.269 718.347 103.95 562.68 103.95 370.654C103.95 178.628 258.269 22.9609 468.864 22.9609C679.458 22.9609 837.057 178.628 837.057 370.654Z" fill="#FEFEFE"/>
<path d="M144.59 304.668C144.59 304.668 132.801 418.217 224.662 511.496C316.522 604.775 457.608 635.048 571.441 662.366C685.273 689.684 781.812 645.354 807.736 557.223C833.661 469.091 749.595 427.121 716.394 315.777C683.193 204.434 692.12 171.329 600.227 90.2883C508.333 9.24738 345.372 20.445 247.569 114.433C149.766 208.42 144.59 304.668 144.59 304.668Z" fill="#FFC700"/>
<path opacity="0.7" d="M143.622 300.955C143.622 300.955 131.915 412.822 223.075 504.713C314.235 596.604 454.252 626.419 567.222 653.325C680.191 680.231 776.003 636.552 801.737 549.725C827.471 462.898 744.043 421.555 711.1 311.864C678.157 202.173 687.019 169.558 595.826 89.7241C504.633 9.89002 342.903 20.9319 245.834 113.533C148.764 206.134 143.622 300.955 143.622 300.955Z" fill="white"/>
<path d="M264.561 124.432L486.891 415.716L752.164 206.818" stroke="#263238" stroke-width="1.64006" stroke-linecap="round" stroke-linejoin="round"/>
<path d="M140.031 441.177L468.626 423.746L228.588 333.439" stroke="#263238" stroke-width="1.64006" stroke-linecap="round" stroke-linejoin="round"/>
<path d="M515.054 87.5346L472.221 422.749L753.182 469.904" stroke="#263238" stroke-width="1.64006" stroke-linecap="round" stroke-linejoin="round"/>
<path d="M215.474 659.305L450.15 416.035L697.299 591.203" stroke="#263238" stroke-width="1.64006" stroke-linecap="round" stroke-linejoin="round"/>
<path d="M92.0492 389.118C82.4011 389.201 72.9943 392.125 65.0184 397.521C57.0424 402.916 50.8556 410.539 47.2402 419.427C43.6248 428.315 42.7432 438.068 44.707 447.454C46.6708 456.839 51.3916 465.434 58.2726 472.153C65.1536 478.872 73.8857 483.413 83.3647 485.201C92.8436 486.989 102.644 485.944 111.526 482.198C120.407 478.453 127.972 472.175 133.263 464.158C138.554 456.142 141.334 446.746 141.251 437.161C141.124 424.312 135.872 412.038 126.649 403.031C117.425 394.025 104.982 389.021 92.0492 389.118Z" fill="#263238"/>
<path fill-rule="evenodd" clip-rule="evenodd" d="M122.328 436.073C121.77 429.103 118.59 422.598 113.42 417.853C108.251 413.109 101.473 410.473 94.435 410.472C87.3972 410.47 80.6168 413.102 75.4443 417.845C70.2719 422.587 67.0872 429.091 66.5244 436.06C66.5279 436.458 66.5313 436.855 66.5349 437.272C66.5737 442.287 67.9996 447.195 70.6567 451.459L65.7466 466.261L81.1784 461.241C85.4377 463.505 90.2142 464.635 95.0435 464.521C99.8727 464.407 104.59 463.054 108.737 460.592C112.884 458.13 116.32 454.645 118.709 450.473C121.099 446.302 122.361 441.587 122.374 436.788C122.352 436.55 122.35 436.311 122.328 436.073ZM94.5449 460.152C89.9553 460.196 85.4535 458.902 81.5966 456.43L72.6047 459.368L75.4691 450.742C72.5216 446.837 70.9109 442.096 70.8731 437.215C70.8662 436.465 70.8997 435.715 70.9736 434.969C71.4291 429.106 74.0955 423.629 78.4396 419.634C82.7837 415.64 88.4853 413.421 94.4042 413.423C100.323 413.424 106.023 415.645 110.364 419.642C114.706 423.639 117.368 429.117 117.82 434.98C117.825 435.576 117.83 436.172 117.835 436.788C117.862 442.941 115.436 448.856 111.086 453.237C106.737 457.619 100.819 460.112 94.6251 460.171L94.5449 460.152Z" fill="white"/>
<path fill-rule="evenodd" clip-rule="evenodd" d="M107.289 442.461C106.586 442.129 103.273 440.509 102.572 440.317C101.87 440.124 101.489 439.988 101.035 440.668C100.581 441.347 99.2747 442.868 98.8989 443.328C98.523 443.788 98.1035 443.832 97.4008 443.5C95.3762 442.73 93.5049 441.61 91.8738 440.191C90.3652 438.856 89.0707 437.3 88.0349 435.576C87.6292 434.904 88.0258 434.523 88.3227 434.183C88.6197 433.843 88.9957 433.402 89.3322 433.002L89.5893 432.682C89.747 432.42 89.8849 432.146 90.0021 431.864C90.1003 431.684 90.1509 431.482 90.1491 431.277C90.1473 431.072 90.0933 430.871 89.9919 430.692C89.8091 430.356 88.4207 427.031 87.8292 425.685C87.2377 424.34 86.68 424.583 86.2801 424.586C85.8803 424.59 85.4204 424.594 84.9606 424.598C84.6157 424.606 84.2763 424.686 83.9643 424.833C83.6523 424.979 83.3744 425.188 83.1485 425.448C82.3804 426.176 81.7743 427.056 81.3695 428.031C80.9647 429.006 80.7701 430.055 80.7983 431.11C80.8156 431.891 80.9435 432.665 81.1782 433.411C81.7262 435.091 82.5653 436.664 83.6577 438.057C84.0014 438.491 88.4609 445.505 95.4417 448.146C102.422 450.787 102.415 449.893 103.673 449.763C104.627 449.573 105.529 449.184 106.32 448.623C107.111 448.061 107.774 447.339 108.264 446.505C108.691 445.494 108.82 444.384 108.636 443.303C108.413 443.007 107.892 442.793 107.289 442.461Z" fill="white"/>
<path d="M232.508 41.4463C219.639 41.8083 207.427 47.0038 198.493 55.9178C189.559 64.8318 184.615 76.7538 184.723 89.125C184.83 101.496 189.98 113.331 199.067 122.089C208.154 130.846 220.454 135.829 233.327 135.968C239.87 136.039 246.364 134.854 252.426 132.483C258.489 130.113 263.999 126.604 268.635 122.162C273.27 117.72 276.937 112.435 279.422 106.616C281.906 100.797 283.158 94.5603 283.103 88.2721C283.049 81.9839 281.689 75.7703 279.104 69.995C276.519 64.2197 272.761 58.9988 268.049 54.6382C263.338 50.2775 257.767 46.8647 251.664 44.5995C245.561 42.3343 239.049 41.2623 232.508 41.4463Z" fill="#263238"/>
<path d="M266.207 73.0112C265.842 71.6774 265.112 70.4619 264.094 69.4902C263.076 68.5184 261.806 67.8258 260.416 67.4838C255.306 66.2112 234.932 66.3878 234.932 66.3878C234.932 66.3878 214.559 66.5644 209.492 67.9253C208.11 68.2992 206.854 69.0161 205.851 70.0038C204.848 70.9916 204.133 72.2154 203.777 73.5524C202.064 83.6027 202.153 93.8594 204.04 103.878C204.422 105.207 205.16 106.417 206.179 107.386C207.199 108.356 208.465 109.052 209.852 109.406C214.941 110.678 235.315 110.502 235.315 110.502C235.315 110.502 255.688 110.325 260.775 108.964C262.154 108.587 263.405 107.869 264.405 106.882C265.404 105.894 266.116 104.672 266.47 103.337C268.21 93.2889 268.121 83.0278 266.207 73.0112Z" fill="white"/>
<path d="M228.555 97.8172L228.394 79.1878L245.503 88.3548L228.555 97.8172Z" fill="#263238"/>
<path d="M215.876 620.388C205.741 620.476 195.857 623.239 187.473 628.328C179.09 633.417 172.583 640.604 168.777 648.979C164.971 657.354 164.036 666.542 166.09 675.38C168.144 684.218 173.095 692.31 180.317 698.632C187.539 704.954 196.707 709.223 206.663 710.898C216.619 712.573 226.915 711.58 236.248 708.044C245.582 704.507 253.535 698.587 259.1 691.031C264.666 683.475 267.595 674.623 267.517 665.594C267.412 653.487 261.912 641.922 252.228 633.444C242.543 624.966 229.467 620.27 215.876 620.388Z" fill="#263238"/>
<path d="M207.894 695.386L221.153 695.271L220.897 665.698L230.136 665.618L231.043 655.709L220.811 655.798L220.762 650.092C220.741 647.752 221.246 646.835 223.792 646.813L230.966 646.75L230.877 636.465L221.701 636.544C211.837 636.63 207.419 640.549 207.483 647.953L207.551 655.842L200.65 655.901L200.736 665.887L207.638 665.828L207.894 695.386Z" fill="white"/>
<path d="M730.061 554.823C719.436 554.914 709.074 557.91 700.284 563.431C691.494 568.953 684.672 576.751 680.68 585.841C676.688 594.93 675.706 604.902 677.858 614.495C680.01 624.088 685.2 632.872 692.77 639.734C700.34 646.596 709.952 651.228 720.388 653.046C730.824 654.863 741.616 653.783 751.4 649.943C761.183 646.103 769.517 639.675 775.349 631.472C781.18 623.269 784.247 613.66 784.16 603.86C784.033 590.732 778.266 578.197 768.124 569.004C757.982 559.811 744.294 554.711 730.061 554.823Z" fill="#263238"/>
<path d="M730.278 580.699C738.639 580.624 739.629 580.615 742.931 580.748C744.915 580.754 746.882 581.073 748.748 581.69C750.101 582.148 751.331 582.871 752.352 583.809C753.401 584.731 754.208 585.862 754.712 587.116C755.427 588.823 755.807 590.634 755.835 592.465C756.015 595.507 756.067 596.522 756.131 604.112C756.194 611.702 756.203 612.737 756.03 615.783C756.033 617.614 755.683 619.432 754.997 621.151C754.519 622.41 753.73 623.55 752.693 624.48C751.694 625.448 750.475 626.201 749.125 626.684C747.269 627.334 745.307 627.688 743.324 627.73C740.025 627.902 739.035 627.931 730.674 628.006C722.314 628.081 721.324 628.09 718.022 627.957C716.039 627.948 714.072 627.629 712.205 627.015C710.846 626.557 709.615 625.826 708.6 624.876C707.547 623.964 706.739 622.839 706.24 621.589C705.526 619.882 705.146 618.071 705.118 616.24C704.938 613.198 704.886 612.285 704.822 604.573C704.757 596.861 704.75 595.968 704.922 592.922C704.92 591.091 705.269 589.273 705.955 587.554C706.438 586.291 707.226 585.146 708.26 584.205C709.265 583.249 710.483 582.504 711.828 582.021C713.685 581.374 715.646 581.02 717.628 580.975C720.928 580.803 721.918 580.774 730.278 580.699ZM730.235 575.503C721.742 575.58 720.664 575.589 717.343 575.781C714.791 575.837 712.266 576.285 709.873 577.107C707.799 577.866 705.92 579.016 704.355 580.484C702.791 581.953 701.577 583.706 700.791 585.632C699.904 587.882 699.433 590.254 699.397 592.646C699.269 595.733 699.233 596.707 699.299 604.541C699.364 612.375 699.372 613.369 699.596 616.452C699.672 618.844 700.183 621.207 701.107 623.441C701.913 625.371 703.151 627.122 704.74 628.58C706.329 630.038 708.235 631.17 710.332 631.903C712.769 632.72 715.339 633.15 717.934 633.174C721.257 633.287 722.335 633.297 730.828 633.221C739.321 633.145 740.399 633.135 743.72 632.943C746.314 632.872 748.877 632.396 751.3 631.535C753.373 630.776 755.253 629.626 756.817 628.158C758.381 626.689 759.595 624.936 760.382 623.01C761.268 620.76 761.739 618.389 761.775 615.996C761.903 612.909 761.939 611.935 761.873 604.081C761.808 596.227 761.8 595.273 761.576 592.19C761.5 589.798 760.989 587.436 760.065 585.201C759.247 583.29 758.003 581.559 756.415 580.119C754.826 578.679 752.928 577.562 750.842 576.841C748.405 576.023 745.834 575.593 743.24 575.569C739.916 575.457 738.838 575.446 730.345 575.523" fill="white"/>
<path d="M730.353 589.527C727.17 589.551 724.065 590.447 721.43 592.099C718.795 593.751 716.75 596.087 715.552 598.809C714.355 601.532 714.06 604.519 714.704 607.394C715.348 610.268 716.902 612.899 719.17 614.955C721.438 617.011 724.318 618.398 727.445 618.942C730.571 619.486 733.805 619.161 736.735 618.01C739.665 616.858 742.161 614.931 743.906 612.472C745.651 610.013 746.567 607.134 746.539 604.198C746.506 600.269 744.782 596.516 741.747 593.764C738.711 591.013 734.613 589.489 730.353 589.527ZM730.557 613.881C728.494 613.899 726.473 613.353 724.749 612.312C723.025 611.27 721.676 609.779 720.872 608.029C720.068 606.278 719.845 604.346 720.232 602.476C720.619 600.606 721.598 598.883 723.045 597.525C724.492 596.167 726.343 595.234 728.363 594.844C730.383 594.455 732.481 594.627 734.393 595.338C736.305 596.049 737.944 597.267 739.103 598.839C740.262 600.41 740.889 602.265 740.905 604.167C740.927 606.719 739.848 609.175 737.908 610.997C735.967 612.819 733.323 613.856 730.557 613.881Z" fill="white"/>
<path d="M750.811 588.755C750.821 589.442 750.61 590.117 750.204 590.694C749.798 591.271 749.216 591.724 748.531 591.996C747.846 592.268 747.089 592.347 746.357 592.222C745.625 592.097 744.95 591.774 744.417 591.294C743.885 590.814 743.519 590.199 743.366 589.527C743.214 588.854 743.281 588.155 743.56 587.517C743.839 586.879 744.316 586.331 744.932 585.944C745.548 585.556 746.275 585.345 747.02 585.338C748.014 585.33 748.971 585.684 749.681 586.324C750.391 586.964 750.798 587.838 750.811 588.755Z" fill="white"/>
<path d="M777.492 214.267C763.519 214.389 750.071 208.944 740.105 199.131C730.139 189.317 724.472 175.94 724.351 161.941C724.229 147.942 729.664 134.468 739.458 124.484C749.252 114.499 762.604 108.822 776.577 108.701C790.549 108.58 803.998 114.025 813.963 123.838C823.929 133.651 829.596 147.028 829.718 161.027C829.839 175.026 824.405 188.5 814.611 198.485C804.816 208.469 791.464 214.146 777.492 214.267Z" fill="#263238" stroke="#263238" stroke-width="1.64006" stroke-linecap="round" stroke-linejoin="round"/>
<path d="M749.055 178.851C755.004 182.185 761.906 183.923 768.94 183.857C792.96 183.649 806.399 165.442 805.473 149.229C807.968 147.567 810.118 145.53 811.827 143.21C809.474 144.162 806.975 144.795 804.412 145.086C807.1 143.621 809.1 141.338 810.042 138.66C807.518 140.042 804.748 141.031 801.852 141.584C799.886 139.749 797.293 138.543 794.477 138.155C791.66 137.767 788.776 138.218 786.273 139.437C783.769 140.657 781.786 142.577 780.629 144.901C779.473 147.225 779.208 149.822 779.877 152.29C774.728 152.108 769.683 150.963 765.069 148.928C760.454 146.893 756.374 144.015 753.094 140.481C751.461 143.033 750.98 146.042 751.749 148.895C752.517 151.748 754.478 154.231 757.231 155.839C755.178 155.8 753.165 155.329 751.358 154.463C751.358 157.142 752.402 159.736 754.313 161.802C756.224 163.867 758.882 165.275 761.833 165.786C759.937 166.265 757.942 166.346 756.006 166.022C756.849 168.308 758.475 170.301 760.655 171.72C762.836 173.14 765.463 173.914 768.166 173.934C762.768 177.753 755.899 179.52 749.055 178.851Z" fill="white"/>
<path d="M210.78 269.405C201.652 269.491 192.751 272.195 185.201 277.174C177.652 282.154 171.793 289.185 168.365 297.38C164.937 305.575 164.095 314.564 165.945 323.212C167.795 331.86 172.253 339.778 178.757 345.964C185.26 352.15 193.517 356.326 202.483 357.965C211.448 359.605 220.72 358.633 229.125 355.172C237.53 351.712 244.692 345.919 249.704 338.526C254.716 331.133 257.354 322.471 257.283 313.637C257.176 301.795 252.22 290.486 243.501 282.194C234.783 273.901 223.015 269.302 210.78 269.405Z" fill="#808080"/>
<path d="M197.585 302.493L187.431 302.589L187.684 334.321L197.838 334.226L197.585 302.493Z" fill="white"/>
<path d="M192.427 298.392C193.627 298.39 194.801 298.043 195.798 297.394C196.796 296.746 197.572 295.826 198.03 294.751C198.487 293.676 198.605 292.494 198.367 291.356C198.13 290.217 197.548 289.173 196.696 288.357C195.844 287.54 194.76 286.987 193.582 286.768C192.403 286.549 191.184 286.674 190.077 287.127C188.971 287.579 188.028 288.34 187.368 289.312C186.707 290.283 186.36 291.422 186.369 292.584C186.372 293.351 186.531 294.11 186.837 294.817C187.143 295.524 187.59 296.166 188.153 296.705C188.715 297.244 189.382 297.671 190.116 297.96C190.849 298.25 191.634 298.396 192.427 298.392Z" fill="white"/>
<path d="M213.943 317.43C213.907 312.956 215.993 310.294 220.064 310.256C224.135 310.217 225.593 312.753 225.629 317.32L225.762 333.963L235.868 333.868L235.708 313.84C235.64 305.357 230.626 301.278 223.634 301.343C221.659 301.337 219.715 301.827 217.993 302.765C216.271 303.704 214.829 305.059 213.809 306.698L213.775 302.456L204.028 302.548L204.282 334.281L214.028 334.189L213.943 317.43Z" fill="white"/>
<path d="M786.011 511.535C780.523 511.585 775.08 510.623 769.993 508.705C764.907 506.787 760.276 503.95 756.365 500.355C752.455 496.761 749.341 492.48 747.201 487.756C745.062 483.033 743.939 477.96 743.897 472.826C743.811 462.459 748.132 452.477 755.909 445.075C763.686 437.673 774.281 433.458 785.365 433.357C796.449 433.256 807.113 437.277 815.011 444.537C822.909 451.796 827.394 461.698 827.479 472.066C827.522 477.199 826.483 482.292 824.422 487.053C822.361 491.815 819.318 496.152 815.467 499.817C811.616 503.482 807.033 506.403 801.979 508.414C796.925 510.425 791.499 511.485 786.011 511.535Z" fill="#808080"/>
<path d="M779.668 487.317C780.871 487.094 782.004 486.615 782.979 485.918C783.813 485.32 784.517 484.577 785.051 483.73C785.922 482.419 786.367 480.901 786.331 479.359C786.359 477.942 785.948 476.547 785.149 475.344C784.333 474.211 783.134 473.369 781.744 472.951C782.589 472.574 783.345 472.042 783.967 471.387C784.908 470.222 785.377 468.784 785.291 467.328C785.317 465.834 784.829 464.372 783.899 463.158C782.967 462.149 781.79 461.365 780.466 460.87C779.142 460.375 777.71 460.185 776.289 460.315L762.122 460.444L762.348 487.807L775.492 487.687C776.893 487.702 778.293 487.578 779.668 487.317ZM767.991 465.14L774.364 465.082C775.538 465.039 776.71 465.174 777.837 465.481C778.355 465.683 778.789 466.036 779.075 466.488C779.361 466.939 779.484 467.465 779.425 467.988C779.48 468.454 779.401 468.926 779.195 469.354C778.989 469.782 778.664 470.151 778.254 470.422C777.311 470.913 776.243 471.152 775.167 471.115L768.041 471.18L767.991 465.14ZM768.139 483.043L768.079 475.734L775.288 475.668C776.285 475.619 777.282 475.763 778.217 476.091C778.821 476.335 779.328 476.748 779.67 477.273C780.011 477.799 780.169 478.411 780.122 479.025C780.205 479.711 780.068 480.404 779.726 481.017C779.385 481.63 778.856 482.133 778.207 482.463C777.27 482.834 776.259 483.01 775.244 482.979L768.139 483.043Z" fill="white"/>
<path d="M791.213 485.785C793.377 487.405 796.085 488.26 798.86 488.197C800.37 488.274 801.88 488.043 803.286 487.521C804.693 486.999 805.962 486.197 807.006 485.172C808.102 484.189 808.825 482.899 809.065 481.498L803.277 481.551C803.001 482.083 802.614 482.558 802.139 482.949C801.245 483.609 800.13 483.952 798.992 483.916C797.891 483.954 796.802 483.699 795.851 483.182C795.11 482.717 794.509 482.08 794.108 481.334C793.707 480.588 793.517 479.757 793.559 478.922L809.335 478.779C809.383 477.434 809.316 476.088 809.135 474.754C808.882 473.253 808.278 471.824 807.366 470.568C806.434 469.27 805.129 468.245 803.601 467.611C801.986 466.977 800.247 466.667 798.494 466.7C797.065 466.661 795.641 466.897 794.311 467.393C792.982 467.889 791.775 468.635 790.765 469.585C789.754 470.687 788.984 471.964 788.5 473.344C788.017 474.723 787.829 476.178 787.948 477.625C787.779 479.13 787.986 480.65 788.553 482.066C789.119 483.482 790.03 484.755 791.213 485.785ZM795.155 472.262C795.601 471.859 796.131 471.545 796.712 471.342C797.292 471.138 797.912 471.048 798.531 471.078C799.757 471.036 800.956 471.415 801.904 472.142C802.377 472.549 802.757 473.041 803.02 473.59C803.284 474.139 803.425 474.732 803.435 475.334L793.677 475.422C793.793 474.248 794.311 473.14 795.155 472.262Z" fill="white"/>
<path d="M804.45 461.623L791.704 461.739L791.727 464.514L804.473 464.398L804.45 461.623Z" fill="white"/>
<path d="M515.972 88.1246C503.02 88.241 490.56 83.7334 481.333 75.5936C472.106 67.4537 466.868 56.3483 466.77 44.7204C466.673 33.0926 471.725 21.8947 480.814 13.5903C489.904 5.28589 502.287 0.555138 515.239 0.438771C528.19 0.322405 540.65 4.82995 549.878 12.9698C559.105 21.1097 564.343 32.2151 564.44 43.8429C564.538 55.4708 559.486 66.6686 550.396 74.9731C541.307 83.2775 528.924 88.0082 515.972 88.1246Z" fill="#808080"/>
<path fill-rule="evenodd" clip-rule="evenodd" d="M544.055 55.9711C543.479 55.6893 542.86 55.4897 542.219 55.3789C539.2 54.4554 536.555 52.7111 534.631 50.3745C533.49 49.1192 532.571 47.7045 531.91 46.183C531.761 45.907 531.682 45.6032 531.68 45.2946C531.677 44.986 531.751 44.6807 531.895 44.4021C532.571 43.6673 533.467 43.1336 534.471 42.8685C535.738 42.5162 536.92 41.9389 537.948 41.1689C538.165 41.0021 538.339 40.7925 538.456 40.5556C538.469 40.4885 538.469 40.4196 538.454 40.3527C538.574 40.0772 538.572 39.7694 538.447 39.4961C538.169 39.0287 537.739 38.654 537.217 38.425C536.903 38.2547 536.551 38.1519 536.187 38.1239C535.823 38.096 535.457 38.1437 535.116 38.2635C534.517 38.4859 533.897 38.6575 533.264 38.7761C532.567 38.9317 531.84 38.9382 531.14 38.7952C531.14 38.7952 531.138 38.5472 531.136 38.3669C531.126 37.1721 531.116 35.9547 531.106 34.6923C531.223 32.7371 531.157 30.7766 530.91 28.8324C530.114 25.5103 527.954 22.6047 524.884 20.7253C522.699 19.3698 520.167 18.5684 517.539 18.4015C516.66 18.4094 515.805 18.4171 514.926 18.425C511.784 18.329 508.684 19.1302 506.049 20.7193C503.414 22.3084 501.372 24.608 500.202 27.3047C499.385 29.6025 499.138 32.0397 499.48 34.4354C499.642 35.9931 499.696 37.5589 499.642 39.1233C498.835 39.2597 498.009 39.2671 497.2 39.1452C496.614 39.1505 495.976 38.8406 495.267 38.6666C494.94 38.6156 494.604 38.6268 494.282 38.6995C493.959 38.7722 493.656 38.9048 493.39 39.0893C493.105 39.2304 492.863 39.4352 492.686 39.6849C492.509 39.9347 492.402 40.2214 492.376 40.5187L492.377 40.654C492.458 41.0304 492.687 41.3656 493.02 41.5951L493.683 42.04C494.932 42.6874 496.255 43.2048 497.628 43.5827C498.026 43.699 498.392 43.8954 498.698 44.1577C499.004 44.42 499.243 44.7418 499.399 45.0999C499.507 46.0771 499.267 47.0609 498.714 47.9016C497.363 50.3939 495.368 52.5413 492.906 54.1537C491.568 55.0022 490.088 55.6402 488.526 56.0417C487.914 56.1411 487.361 56.4426 486.97 56.8898L486.971 57.0476C486.908 57.2399 486.898 57.4438 486.942 57.6404C486.986 57.837 487.084 58.0201 487.225 58.1726C487.406 58.3713 487.633 58.5309 487.888 58.6401C489.165 59.2332 490.524 59.661 491.928 59.9114C492.763 60.0209 493.583 60.21 494.375 60.4756L494.649 61.1044C494.899 61.7785 495.003 62.5441 495.278 63.3532C495.323 63.4663 495.398 63.5667 495.497 63.6448C495.596 63.7229 495.715 63.7761 495.843 63.799C496.149 63.9128 496.492 63.9097 496.796 63.7905C498.879 63.3017 501.047 63.2132 503.167 63.5303C505.352 64.2565 507.416 65.2625 509.297 66.5188C510.748 67.4358 512.438 67.9807 514.194 68.0981C515.544 68.1657 516.898 68.1535 518.247 68.0617C519.38 67.948 520.471 67.5991 521.438 67.041C523.601 65.8718 525.494 64.5021 527.611 63.6038C528.41 63.4241 529.229 63.3335 530.051 63.3339C531.804 63.2576 533.561 63.3172 535.303 63.5122C535.33 63.5225 535.359 63.5276 535.388 63.5274C535.418 63.5271 535.447 63.5214 535.474 63.5106C535.709 63.4824 535.925 63.3763 536.082 63.2121C536.164 63.1116 536.221 62.9956 536.25 62.8724C536.248 62.6244 536.248 62.692 536.25 62.8724C536.26 62.8277 536.26 62.7816 536.249 62.7371C536.429 61.9318 536.771 61.1642 537.255 60.4736C537.4 60.3546 537.57 60.2643 537.755 60.2083C537.939 60.1524 538.134 60.132 538.327 60.1483C539.75 59.9279 541.141 59.5521 542.469 59.029C543.126 58.8242 543.707 58.4515 544.145 57.9543C544.238 57.8306 544.304 57.6906 544.337 57.5429C544.37 57.3951 544.369 57.2428 544.336 57.0953C544.303 56.9477 544.237 56.8081 544.143 56.685C544.049 56.5618 543.929 56.4578 543.79 56.3793L544.055 55.9711Z" fill="white"/>
<path d="M589.759 136.835L333.456 139.057C320.614 139.169 310.284 148.533 310.384 159.973L314.588 644.951C314.687 656.391 325.178 665.575 338.02 665.464L594.322 663.242C607.164 663.13 617.494 653.766 617.395 642.326L613.19 157.347C613.091 145.907 602.6 136.724 589.759 136.835Z" fill="#263238"/>
<mask id="mask0_5_905" style="mask-type:luminance" maskUnits="userSpaceOnUse" x="310" y="136" width="308" height="530">
<path d="M589.759 136.835L333.456 139.057C320.614 139.169 310.284 148.533 310.384 159.973L314.588 644.951C314.687 656.391 325.178 665.575 338.02 665.464L594.322 663.242C607.164 663.13 617.494 653.766 617.395 642.326L613.19 157.347C613.091 145.907 602.6 136.724 589.759 136.835Z" fill="white"/>
</mask>
<g mask="url(#mask0_5_905)">
<path opacity="0.2" d="M336.291 139.033C329.372 139.093 322.758 141.598 317.904 145.999C313.049 150.4 310.352 156.334 310.405 162.498L314.566 642.412C314.592 645.814 315.456 649.167 317.099 652.234C318.742 655.302 321.123 658.009 324.073 660.163L496.221 137.646L336.291 139.033Z" fill="white"/>
<path d="M476.312 649.028C476.296 647.213 475.676 645.444 474.531 643.945C473.386 642.446 471.766 641.285 469.878 640.607C467.99 639.929 465.917 639.767 463.922 640.139C461.927 640.511 460.1 641.402 458.672 642.699C457.244 643.996 456.279 645.64 455.899 647.424C455.518 649.208 455.741 651.051 456.537 652.72C457.333 654.389 458.668 655.809 460.372 656.801C462.076 657.792 464.073 658.31 466.11 658.29C467.462 658.278 468.798 658.029 470.042 657.557C471.287 657.085 472.415 656.399 473.362 655.539C474.31 654.679 475.058 653.661 475.564 652.544C476.07 651.427 476.324 650.232 476.312 649.028Z" stroke="white" stroke-width="1.64006" stroke-linecap="round" stroke-linejoin="round"/>
</g>
<path d="M589.759 136.835L333.456 139.057C320.614 139.169 310.284 148.533 310.384 159.973L314.588 644.951C314.687 656.391 325.178 665.575 338.02 665.464L594.322 663.242C607.164 663.13 617.494 653.766 617.395 642.326L613.19 157.347C613.091 145.907 602.6 136.724 589.759 136.835Z" stroke="#263238" stroke-width="1.64006" stroke-linecap="round" stroke-linejoin="round"/>
<path d="M599.837 172.5L323.965 174.892L327.948 634.307L603.82 631.915L599.837 172.5Z" fill="#FFC700" stroke="#263238" stroke-width="1.64006" stroke-linecap="round" stroke-linejoin="round"/>
<path d="M460.746 540.164C530.607 539.559 586.803 488.617 586.263 426.382C585.724 364.148 528.653 314.188 458.792 314.794C388.932 315.399 332.736 366.341 333.276 428.576C333.815 490.81 390.886 540.77 460.746 540.164Z" fill="#263238"/>
<path d="M591.892 227.711L333.988 229.947L334.441 282.259L592.345 280.023L591.892 227.711Z" fill="white"/>
<path d="M594.869 571.187L336.966 573.423L337.419 625.736L595.323 623.5L594.869 571.187Z" fill="white"/>
<path d="M594.712 552.999L336.808 555.235L336.828 557.503L594.731 555.267L594.712 552.999Z" fill="white"/>
<path d="M594.8 563.227L336.897 565.463L336.916 567.731L594.82 565.495L594.8 563.227Z" fill="white"/>
<path d="M590.494 177.347L567.626 177.545L567.723 188.715L590.591 188.517L590.494 177.347Z" stroke="#263238" stroke-width="1.3466" stroke-linecap="round" stroke-linejoin="round"/>
<path d="M585.465 177.39L567.626 177.545L567.723 188.715L585.562 188.56L585.465 177.39Z" fill="#263238" stroke="#263238" stroke-width="1.18916" stroke-linecap="round" stroke-linejoin="round"/>
<path d="M593.692 180.443L590.473 180.471L590.516 185.393L593.735 185.365L593.692 180.443Z" fill="#263238" stroke="#263238" stroke-width="1.18916" stroke-linecap="round" stroke-linejoin="round"/>
<path d="M334.446 183.033L330.25 183.07L330.306 189.475L334.501 189.439L334.446 183.033Z" fill="#263238" stroke="#263238" stroke-width="1.44832" stroke-linecap="round" stroke-linejoin="round"/>
<path d="M341.024 180.722L336.829 180.758L336.904 189.418L341.099 189.381L341.024 180.722Z" fill="#263238" stroke="#263238" stroke-width="1.44832" stroke-linecap="round" stroke-linejoin="round"/>
<path d="M347.583 178.012L343.387 178.048L343.485 189.361L347.681 189.324L347.583 178.012Z" fill="#263238" stroke="#263238" stroke-width="1.44832" stroke-linecap="round" stroke-linejoin="round"/>
<path d="M593.511 194.697L328.609 196.994L328.763 214.741L593.665 212.444L593.511 194.697Z" fill="#263238"/>
<mask id="mask1_5_905" style="mask-type:luminance" maskUnits="userSpaceOnUse" x="337" y="231" width="431" height="306">
<path d="M765.083 231.873L442.627 234.669L443.366 319.878C423.406 322.334 404.431 329.155 388.135 339.732C371.839 350.31 358.73 364.313 349.98 380.493C341.23 396.672 337.111 414.522 337.992 432.448C338.872 450.374 344.725 467.818 355.027 483.22C365.328 498.622 379.758 511.503 397.026 520.712C414.294 529.921 433.863 535.17 453.983 535.992C474.104 536.813 494.149 533.18 512.329 525.419C530.508 517.657 546.254 506.007 558.161 491.512L767.318 489.698L765.083 231.873Z" fill="white"/>
</mask>
<g mask="url(#mask1_5_905)">
<path d="M327.824 534.882C327.824 534.882 360.673 429.879 366.853 407.441C373.032 385.002 382.546 370.353 402.405 366.629C422.263 362.904 458.954 359.291 458.954 359.291C458.954 359.291 490.845 356.161 513.982 357.387C537.118 358.613 558.368 369.443 569.595 376.878C580.822 384.314 613.362 409.897 613.362 409.897L608.857 350.244L637.989 352.117C637.989 352.117 659.848 435.075 662.767 450.344C665.686 465.612 665.761 472.36 662.973 474.153C660.186 475.946 665 476.989 639.409 469.735C613.818 462.481 583.815 452.455 567.428 448.331C551.041 444.207 549.033 443.511 549.033 443.511C549.033 443.511 509.463 497.526 496.871 513.629C488.231 525.059 480.562 537.048 473.928 549.495" fill="white"/>
<mask id="mask2_5_905" style="mask-type:luminance" maskUnits="userSpaceOnUse" x="327" y="350" width="339" height="200">
<path d="M327.824 534.882C327.824 534.882 360.673 429.879 366.853 407.441C373.032 385.002 382.546 370.353 402.405 366.629C422.263 362.904 458.954 359.291 458.954 359.291C458.954 359.291 490.845 356.161 513.982 357.387C537.118 358.613 558.368 369.443 569.595 376.878C580.822 384.314 613.362 409.897 613.362 409.897L608.857 350.244L637.989 352.117C637.989 352.117 659.848 435.075 662.767 450.344C665.686 465.612 665.761 472.36 662.973 474.153C660.186 475.946 665 476.989 639.409 469.735C613.818 462.481 583.815 452.455 567.428 448.331C551.041 444.207 549.033 443.511 549.033 443.511C549.033 443.511 509.463 497.526 496.871 513.629C488.231 525.059 480.562 537.048 473.928 549.495" fill="white"/>
</mask>
<g mask="url(#mask2_5_905)">
<path opacity="0.2" d="M662.924 474.039C665.711 472.246 665.652 465.456 662.717 450.23C661.037 441.128 652.502 407.946 645.94 382.636C648.714 412.573 649.945 441.838 644.9 447.346C633.792 459.255 617.276 443.876 617.276 443.876L613.953 420.878C613.953 420.878 557.811 384.684 536.811 378.646C515.811 372.608 493.509 371.56 471.896 377.968C450.283 384.375 432.225 390.752 419.068 402.679C405.911 414.606 360.738 509.502 360.738 509.502L355.777 537.607L473.878 549.31C480.511 536.863 488.18 524.874 496.821 513.444C509.493 497.341 548.982 443.326 548.982 443.326C548.982 443.326 550.99 444.022 567.378 448.146C583.765 452.27 613.768 462.31 639.359 469.55C664.95 476.79 660.153 475.847 662.924 474.039Z" fill="black"/>
</g>
<path d="M327.824 534.882C327.824 534.882 360.673 429.879 366.853 407.441C373.032 385.002 382.546 370.353 402.405 366.629C422.263 362.904 458.954 359.291 458.954 359.291C458.954 359.291 490.845 356.161 513.982 357.387C537.118 358.613 558.368 369.443 569.595 376.878C580.822 384.314 613.362 409.897 613.362 409.897L608.857 350.244L637.989 352.117C637.989 352.117 659.848 435.075 662.767 450.344C665.686 465.612 665.761 472.36 662.973 474.153C660.186 475.946 665 476.989 639.409 469.735C613.818 462.481 583.815 452.455 567.428 448.331C551.041 444.207 549.033 443.511 549.033 443.511C549.033 443.511 509.463 497.526 496.871 513.629C488.231 525.059 480.562 537.048 473.928 549.495" stroke="#263238" stroke-width="1.64006" stroke-linecap="round" stroke-linejoin="round"/>
<path d="M560.226 426.822L548.984 443.412L582.533 426.629" stroke="#263238" stroke-width="1.64006" stroke-linecap="round" stroke-linejoin="round"/>
<path d="M613.313 409.798C613.313 409.798 615.17 439.271 617.196 443.876C619.222 448.481 628.031 450.531 628.031 450.531" fill="white"/>
<path d="M613.313 409.798C613.313 409.798 615.17 439.271 617.196 443.876C619.222 448.481 628.031 450.531 628.031 450.531" stroke="#263238" stroke-width="1.64006" stroke-linecap="round" stroke-linejoin="round"/>
<path d="M437.553 410.423C437.553 410.423 433.277 419.662 435.455 419.643C437.632 419.624 451.731 414.666 458.264 414.609C464.798 414.552 471.948 424.663 471.948 424.663C471.948 424.663 490.879 411.901 496.88 413.304C499.821 414.154 502.524 415.55 504.811 417.401C505.192 417.692 505.658 417.88 506.154 417.945C506.651 418.009 507.158 417.947 507.617 417.766C508.077 417.584 508.469 417.29 508.749 416.919C509.029 416.547 509.186 416.113 509.2 415.665C509.29 413.054 509.355 409.487 509.315 404.95C509.223 394.294 498.642 365.309 479.59 364.019C460.537 362.729 457.375 374.869 449.382 389.477C441.389 404.084 437.553 410.423 437.553 410.423Z" fill="#263238"/>
<path d="M477.956 347.37C477.956 347.37 459.623 349.697 451.31 356.903C442.997 364.108 445.881 375.426 441.583 385.763C437.284 396.101 429.892 417.138 433.844 416.747C437.796 416.356 451.706 406.291 455.715 408.739C459.724 411.187 468.989 421.464 470.596 422.106C472.203 422.749 492.427 409.491 495.201 408.04C497.975 406.589 511.675 422.164 512.038 417.881C512.401 413.598 512.983 388.383 510.048 373.129C507.114 357.874 487.135 347.647 477.956 347.37Z" fill="white" stroke="#263238" stroke-width="1.64006" stroke-linecap="round" stroke-linejoin="round"/>
<path d="M484.157 327.414C484.157 327.414 477.544 345.947 471.979 352.444C466.414 358.941 464.037 359.974 462.212 374.913C460.388 389.852 469.408 423.529 472.236 422.791C475.065 422.053 502.205 382.741 511.325 376.256C520.446 369.771 529.963 362.955 529.963 362.955C529.963 362.955 507.572 357.1 499.924 348.649C494.141 341.893 488.874 334.799 484.157 327.414Z" fill="white"/>
<mask id="mask3_5_905" style="mask-type:luminance" maskUnits="userSpaceOnUse" x="461" y="327" width="69" height="96">
<path d="M484.157 327.414C484.157 327.414 477.544 345.947 471.979 352.444C466.414 358.941 464.037 359.974 462.212 374.913C460.388 389.852 469.408 423.529 472.236 422.791C475.065 422.053 502.205 382.741 511.325 376.256C520.446 369.771 529.963 362.955 529.963 362.955C529.963 362.955 507.572 357.1 499.924 348.649C494.141 341.893 488.874 334.799 484.157 327.414Z" fill="white"/>
</mask>
<g mask="url(#mask3_5_905)">
<path opacity="0.2" d="M515.257 373.469C522.977 367.966 529.948 362.969 529.948 362.969C529.948 362.969 507.556 357.114 499.908 348.663C494.133 341.921 488.871 334.841 484.158 327.471C481.889 333.745 479.232 339.903 476.198 345.916C479.65 354.318 489.186 367.988 515.257 373.469Z" fill="black"/>
<path d="M499.908 348.606C494.132 341.864 488.871 334.784 484.158 327.414C484.158 327.414 481.938 333.639 478.999 340.128C481.537 346.511 486.6 355.998 495.568 361.541C502.818 365.765 510.844 368.825 519.284 370.58L529.948 362.955C529.948 362.955 507.556 357.057 499.908 348.606Z" fill="#263238"/>
</g>
<path d="M484.157 327.414C484.157 327.414 477.544 345.947 471.979 352.444C466.414 358.941 464.037 359.974 462.212 374.913C460.388 389.852 469.408 423.529 472.236 422.791C475.065 422.053 502.205 382.741 511.325 376.256C520.446 369.771 529.963 362.955 529.963 362.955C529.963 362.955 507.572 357.1 499.924 348.649C494.141 341.893 488.874 334.799 484.157 327.414Z" stroke="#263238" stroke-width="1.64006" stroke-linecap="round" stroke-linejoin="round"/>
<path d="M568.702 279.429C568.702 279.429 567.723 303.249 568.576 311.046C569.428 318.842 572.748 332.41 565.668 345.183C558.588 357.956 552.687 366.268 545.931 368.452C539.176 370.636 517.2 366.575 499.547 355.001C481.894 343.427 478.498 319.302 475.628 311.509C472.758 303.716 475.729 277.039 493.607 268.353C508.083 261.562 524.935 260.015 540.638 264.036C550.255 266.792 568.702 279.429 568.702 279.429Z" fill="white"/>
<mask id="mask4_5_905" style="mask-type:luminance" maskUnits="userSpaceOnUse" x="474" y="261" width="97" height="109">
<path d="M568.702 279.429C568.702 279.429 567.723 303.249 568.576 311.046C569.428 318.842 572.748 332.41 565.668 345.183C558.588 357.956 552.687 366.268 545.931 368.452C539.176 370.636 517.2 366.575 499.547 355.001C481.894 343.427 478.498 319.302 475.628 311.509C472.758 303.716 475.729 277.039 493.607 268.353C508.083 261.562 524.935 260.015 540.638 264.036C550.255 266.792 568.702 279.429 568.702 279.429Z" fill="white"/>
</mask>
<g mask="url(#mask4_5_905)">
<path opacity="0.2" d="M493.671 268.353C491.122 269.61 488.816 271.224 486.842 273.134L496.133 278.903C496.133 278.903 507.907 268.229 534.604 282.921C548.379 290.506 560.208 291.644 568.449 290.959C568.587 284.624 568.798 279.429 568.798 279.429C568.798 279.429 550.351 266.749 540.75 263.978C525.024 259.964 508.152 261.532 493.671 268.353Z" fill="black"/>
</g>
<path d="M568.702 279.429C568.702 279.429 567.723 303.249 568.576 311.046C569.428 318.842 572.748 332.41 565.668 345.183C558.588 357.956 552.687 366.268 545.931 368.452C539.176 370.636 517.2 366.575 499.547 355.001C481.894 343.427 478.498 319.302 475.628 311.509C472.758 303.716 475.729 277.039 493.607 268.353C508.083 261.562 524.935 260.015 540.638 264.036C550.255 266.792 568.702 279.429 568.702 279.429Z" stroke="#263238" stroke-width="1.64006" stroke-linecap="round" stroke-linejoin="round"/>
<path d="M531.315 311.868C531.337 314.393 530.25 316.457 528.889 316.469C527.528 316.48 526.405 314.436 526.383 311.911C526.361 309.386 527.448 307.308 528.81 307.296C530.171 307.284 531.293 309.329 531.315 311.868Z" fill="#263238"/>
<path d="M560.465 313.998C560.487 316.537 559.4 318.601 558.039 318.613C556.678 318.625 555.555 316.58 555.533 314.041C555.511 311.501 556.598 309.452 557.96 309.44C559.321 309.428 560.443 311.473 560.465 313.998Z" fill="#263238"/>
<path d="M552.592 307.289C552.592 307.289 545.076 314.103 547.086 316.924C549.096 319.746 553.754 321.304 552.348 325.439C550.943 329.574 540.436 331.249 536.799 325.574" stroke="#263238" stroke-width="1.64006" stroke-linecap="round" stroke-linejoin="round"/>
<path d="M514.093 329.651C517.095 332.84 520.827 335.422 525.04 337.223C529.253 339.024 533.851 340.004 538.526 340.097C538.526 340.097 522.244 349.825 515.061 348.86C507.878 347.895 514.093 329.651 514.093 329.651Z" fill="#263238" stroke="#263238" stroke-width="1.64006" stroke-linecap="round" stroke-linejoin="round"/>
<path d="M517.65 298.433C517.65 298.433 524.526 289.813 538.44 295.014" stroke="#263238" stroke-width="1.64006" stroke-linecap="round" stroke-linejoin="round"/>
<path d="M555.301 298.378C555.301 298.378 564.061 296.504 567.313 303.98" stroke="#263238" stroke-width="1.64006" stroke-linecap="round" stroke-linejoin="round"/>
<path d="M478.529 321.071C478.529 321.071 481.997 307.188 490.729 302.133C499.461 297.078 507.846 298.076 502.599 291.373C497.352 284.67 494.475 277.933 505.657 274.64C516.839 271.347 538.776 276.493 551.576 280.648C564.376 284.803 589.114 286.029 595.365 269.953C599.219 260.047 587.621 252.287 579.162 248.322C569.788 243.952 559.295 241.832 548.772 243.578C542.375 244.618 536.294 246.911 529.893 247.537C519.06 248.615 509.461 244.219 498.672 246.638C489.616 248.646 481.533 253.223 475.643 259.678C465.729 270.72 463.099 290.645 478.529 321.071Z" fill="#263238"/>
<mask id="mask5_5_905" style="mask-type:luminance" maskUnits="userSpaceOnUse" x="467" y="242" width="130" height="80">
<path d="M478.529 321.071C478.529 321.071 481.997 307.188 490.729 302.133C499.461 297.078 507.846 298.076 502.599 291.373C497.352 284.67 494.475 277.933 505.657 274.64C516.839 271.347 538.776 276.493 551.576 280.648C564.376 284.803 589.114 286.029 595.365 269.953C599.219 260.047 587.621 252.287 579.162 248.322C569.788 243.952 559.295 241.832 548.772 243.578C542.375 244.618 536.294 246.911 529.893 247.537C519.06 248.615 509.461 244.219 498.672 246.638C489.616 248.646 481.533 253.223 475.643 259.678C465.729 270.72 463.099 290.645 478.529 321.071Z" fill="white"/>
</mask>
<g mask="url(#mask5_5_905)">
<path d="M570.209 242.722C570.209 242.722 591.018 252.529 576.653 269.245C562.288 285.962 548.53 274.668 514.064 269.06C479.599 263.453 459.441 278.765 459.441 278.765" stroke="#808080" stroke-width="1.64006" stroke-linecap="round" stroke-linejoin="round"/>
<path d="M462.497 296.885C462.497 296.885 469.028 285.415 490.553 281.876C512.078 278.336 513.353 281.307 513.353 281.307" stroke="#808080" stroke-width="1.64006" stroke-linecap="round" stroke-linejoin="round"/>
</g>
<path d="M478.529 321.071C478.529 321.071 481.997 307.188 490.729 302.133C499.461 297.078 507.846 298.076 502.599 291.373C497.352 284.67 494.475 277.933 505.657 274.64C516.839 271.347 538.776 276.493 551.576 280.648C564.376 284.803 589.114 286.029 595.365 269.953C599.219 260.047 587.621 252.287 579.162 248.322C569.788 243.952 559.295 241.832 548.772 243.578C542.375 244.618 536.294 246.911 529.893 247.537C519.06 248.615 509.461 244.219 498.672 246.638C489.616 248.646 481.533 253.223 475.643 259.678C465.729 270.72 463.099 290.645 478.529 321.071Z" stroke="#263238" stroke-width="1.64006" stroke-linecap="round" stroke-linejoin="round"/>
<path d="M487.501 315.943C487.501 315.943 476.973 294.934 467.957 305.997C458.94 317.061 475.571 330.813 487.942 328.009" fill="white"/>
<path d="M487.501 315.943C487.501 315.943 476.973 294.934 467.957 305.997C458.94 317.061 475.571 330.813 487.942 328.009" stroke="#263238" stroke-width="1.64006" stroke-linecap="round" stroke-linejoin="round"/>
<path d="M600.106 312.556C600.106 312.556 593.326 311.901 592.137 316.905C590.947 321.908 589.846 329.765 592.248 329.744C594.65 329.723 599.012 328.63 600.586 325.392C602.159 322.154 603.674 312.211 603.674 312.211L600.106 312.556Z" fill="white" stroke="#263238" stroke-width="1.64006" stroke-linecap="round" stroke-linejoin="round"/>
<path d="M610.852 310.679C610.852 310.679 601.231 309.336 600.106 312.556C598.981 315.775 597.444 326.846 598.631 327.135C599.819 327.424 606.985 324.58 606.985 324.58L610.852 310.679Z" fill="white" stroke="#263238" stroke-width="1.64006" stroke-linecap="round" stroke-linejoin="round"/>
<path d="M623.621 311.282C623.621 311.282 612.356 304.988 609.646 308.207C606.935 311.426 606.985 324.58 606.985 324.58C607.978 324.767 609.008 324.729 609.982 324.472C610.955 324.214 611.842 323.744 612.561 323.105C614.545 320.962 616.906 318.102 616.906 318.102C616.906 318.102 624.928 319.802 626.094 319.449C627.26 319.097 630.082 319.415 629.266 315.87C628.451 312.324 623.621 311.282 623.621 311.282Z" fill="white" stroke="#263238" stroke-width="1.64006" stroke-linecap="round" stroke-linejoin="round"/>
<path d="M638.842 317.556C633.782 314.5 629.639 310.388 626.775 305.576C622.723 298.15 620.724 298.495 618.734 301.737C616.744 304.978 619.174 308.125 620.8 310.95C622.426 313.775 629.258 320.478 629.258 320.478L638.842 317.556Z" fill="white" stroke="#263238" stroke-width="1.64006" stroke-linecap="round" stroke-linejoin="round"/>
<path d="M567.531 367.879C567.531 367.879 562.131 411.911 563.049 414.286C563.966 416.66 573.758 419.343 575.97 417.74C578.183 416.137 576.826 412.982 575.912 411.007C574.998 409.032 583.134 372.11 583.134 372.11L567.531 367.879Z" fill="#92E3A9" stroke="#263238" stroke-width="1.64006" stroke-linecap="round" stroke-linejoin="round"/>
<path d="M422.017 384.378L451.996 465.567C451.996 465.567 518.952 430.09 534.552 411.751C550.152 393.411 559.069 372.804 564.626 370.829C570.182 368.855 589.888 373.464 592.795 376.292C595.703 379.12 595.057 382.25 591.592 385.219C588.126 388.188 586.144 388.619 586.144 388.619C586.144 388.619 586.023 395.026 584.464 396.152C582.904 397.279 583.26 395.835 582.872 397.265C582.613 398.792 581.998 400.255 581.067 401.56C579.927 402.997 579.485 403.743 578.383 404.137C576.096 405.027 573.714 405.708 571.274 406.168C566.978 407.194 562.607 407.947 558.193 408.421C555.426 408.873 537.654 440.799 520.876 459.877C504.097 478.955 450.955 522.829 442.55 523.13C434.144 523.432 384.127 451.19 373.388 433.435" fill="white"/>
<mask id="mask6_5_905" style="mask-type:luminance" maskUnits="userSpaceOnUse" x="373" y="370" width="222" height="154">
<path d="M422.017 384.378L451.996 465.567C451.996 465.567 518.952 430.09 534.552 411.751C550.152 393.411 559.069 372.804 564.626 370.829C570.182 368.855 589.888 373.464 592.795 376.292C595.703 379.12 595.057 382.25 591.592 385.219C588.126 388.188 586.144 388.619 586.144 388.619C586.144 388.619 586.023 395.026 584.464 396.152C582.904 397.279 583.26 395.835 582.872 397.265C582.613 398.792 581.998 400.255 581.067 401.56C579.927 402.997 579.485 403.743 578.383 404.137C576.096 405.027 573.714 405.708 571.274 406.168C566.978 407.194 562.607 407.947 558.193 408.421C555.426 408.873 537.654 440.799 520.876 459.877C504.097 478.955 450.955 522.829 442.55 523.13C434.144 523.432 384.127 451.19 373.388 433.435" fill="white"/>
</mask>
<g mask="url(#mask6_5_905)">
<path opacity="0.2" d="M581.067 401.532C581.998 400.227 582.612 398.764 582.871 397.236C583.211 395.806 582.871 397.236 584.463 396.124C586.055 395.011 586.144 388.59 586.144 388.59C586.144 388.59 588.126 388.16 591.591 385.191C595.057 382.222 595.718 379.006 592.795 376.263C589.873 373.521 570.134 368.898 564.625 370.801C563.188 371.313 561.442 373.111 559.544 375.81C562.512 380.064 566.009 382.645 562.871 390.148C558.166 401.602 547.08 415.965 537.577 428.174C528.074 440.383 448.585 508.126 438.965 506.783C431.108 505.681 408.107 481.37 399.927 472.553C417.502 497.211 437.586 523.245 442.629 523.073C451.003 522.772 504.209 478.911 520.955 459.819C537.702 440.728 555.426 408.788 558.193 408.393C562.607 407.918 566.978 407.165 571.274 406.139C573.714 405.679 576.096 404.999 578.383 404.109C579.564 403.713 579.927 402.997 581.067 401.532Z" fill="black"/>
</g>
<path d="M422.017 384.378L451.996 465.567C451.996 465.567 518.952 430.09 534.552 411.751C550.152 393.411 559.069 372.804 564.626 370.829C570.182 368.855 589.888 373.464 592.795 376.292C595.703 379.12 595.057 382.25 591.592 385.219C588.126 388.188 586.144 388.619 586.144 388.619C586.144 388.619 586.023 395.026 584.464 396.152C582.904 397.279 583.26 395.835 582.872 397.265C582.613 398.792 581.998 400.255 581.067 401.56C579.927 402.997 579.485 403.743 578.383 404.137C576.096 405.027 573.714 405.708 571.274 406.168C566.978 407.194 562.607 407.947 558.193 408.421C555.426 408.873 537.654 440.799 520.876 459.877C504.097 478.955 450.955 522.829 442.55 523.13C434.144 523.432 384.127 451.19 373.388 433.435" stroke="#263238" stroke-width="1.64006" stroke-linecap="round" stroke-linejoin="round"/>
<path d="M451.996 465.567C451.996 465.567 444.328 465.919 437.984 484.236" stroke="#263238" stroke-width="1.64006" stroke-linecap="round" stroke-linejoin="round"/>
<path d="M571.273 406.139C573.713 405.679 576.095 404.999 578.382 404.109C579.564 403.713 579.974 402.996 581.066 401.532C581.997 400.227 582.611 398.764 582.871 397.236C583.21 395.806 584.247 395.312 585.791 394.186C587.334 393.06 586.095 388.591 586.095 388.591C586.095 388.591 588.077 388.16 591.542 385.191C595.008 382.222 595.668 379.006 592.746 376.264C589.824 373.521 570.085 368.899 564.577 370.801C559.068 372.704 550.873 391.707 536.533 409.422L550.102 419.149C554.275 412.835 557.249 408.558 558.24 408.392C562.638 407.916 566.993 407.163 571.273 406.139Z" fill="white"/>
<mask id="mask7_5_905" style="mask-type:luminance" maskUnits="userSpaceOnUse" x="536" y="370" width="59" height="50">
<path d="M571.273 406.139C573.713 405.679 576.095 404.999 578.382 404.109C579.564 403.713 579.974 402.996 581.066 401.532C581.997 400.227 582.611 398.764 582.871 397.236C583.21 395.806 584.247 395.312 585.791 394.186C587.334 393.06 586.095 388.591 586.095 388.591C586.095 388.591 588.077 388.16 591.542 385.191C595.008 382.222 595.668 379.006 592.746 376.264C589.824 373.521 570.085 368.899 564.577 370.801C559.068 372.704 550.873 391.707 536.533 409.422L550.102 419.149C554.275 412.835 557.249 408.558 558.24 408.392C562.638 407.916 566.993 407.163 571.273 406.139Z" fill="white"/>
</mask>
<g mask="url(#mask7_5_905)">
<path opacity="0.2" d="M581.067 401.532C581.998 400.227 582.612 398.764 582.872 397.236C583.211 395.806 582.872 397.236 584.463 396.124C586.055 395.011 586.144 388.59 586.144 388.59C586.144 388.59 588.126 388.16 591.591 385.191C595.057 382.222 595.718 379.006 592.795 376.263C589.873 373.521 570.134 368.898 564.625 370.801C563.188 371.313 561.442 373.111 559.544 375.81C562.512 380.064 566.009 382.645 562.871 390.148C558.166 401.602 547.08 415.965 537.577 428.174C528.074 440.383 448.585 508.126 438.965 506.783C431.108 505.681 408.108 481.37 399.927 472.553C417.502 497.211 437.586 523.245 442.629 523.073C451.003 522.772 504.209 478.911 520.955 459.819C537.702 440.728 555.426 408.788 558.193 408.393C562.607 407.918 566.978 407.165 571.274 406.139C573.714 405.679 576.096 404.999 578.383 404.109C579.565 403.713 579.927 402.997 581.067 401.532Z" fill="black"/>
</g>
<path d="M571.273 406.139C573.713 405.679 576.095 404.999 578.382 404.109C579.564 403.713 579.974 402.996 581.066 401.532C581.997 400.227 582.611 398.764 582.871 397.236C583.21 395.806 584.247 395.312 585.791 394.186C587.334 393.06 586.095 388.591 586.095 388.591C586.095 388.591 588.077 388.16 591.542 385.191C595.008 382.222 595.668 379.006 592.746 376.264C589.824 373.521 570.085 368.899 564.577 370.801C559.068 372.704 550.873 391.707 536.533 409.422L550.102 419.149C554.275 412.835 557.249 408.558 558.24 408.392C562.638 407.916 566.993 407.163 571.273 406.139Z" stroke="#263238" stroke-width="1.64006" stroke-linecap="round" stroke-linejoin="round"/>
<path d="M553.269 339.255C548.866 339.294 545.312 345.031 545.372 351.936C545.432 358.84 549.052 364.516 553.488 364.477L651.401 389.922L650.717 311.047L553.269 339.255Z" fill="#FFC700" stroke="#263238" stroke-width="1.64006" stroke-linecap="round" stroke-linejoin="round"/>
<path d="M608.137 328.279L570.11 338.382" stroke="#263238" stroke-width="1.64006" stroke-linecap="round" stroke-linejoin="round"/>
<path d="M620.857 324.902L612.9 327.025" stroke="#263238" stroke-width="1.64006" stroke-linecap="round" stroke-linejoin="round"/>
<path d="M565.745 335.638L553.269 339.255C548.865 339.294 545.312 345.031 545.372 351.936C545.432 358.84 549.052 364.516 553.488 364.477L564.804 367.418C562.107 362.442 560.785 356.962 560.949 351.434C561.113 345.906 562.757 340.49 565.745 335.638Z" fill="#263238" stroke="#263238" stroke-width="1.64006" stroke-linecap="round" stroke-linejoin="round"/>
<path d="M659.929 403.915C678.431 403.755 693.224 379.91 692.97 350.656C692.717 321.402 677.513 297.817 659.011 297.978C640.509 298.138 625.716 321.983 625.97 351.237C626.223 380.491 641.428 404.076 659.929 403.915Z" fill="#D6D6D6" stroke="#263238" stroke-width="1.64006" stroke-linecap="round" stroke-linejoin="round"/>
<path d="M659.368 339.192L627.387 331.865L624.776 352.146L628.542 372.715L659.572 362.702L660.574 339.752" fill="#D6D6D6"/>
<path d="M659.368 339.192L627.387 331.865L624.776 352.146L628.542 372.715L659.572 362.702L660.574 339.752" stroke="#263238" stroke-width="1.64006" stroke-linecap="round" stroke-linejoin="round"/>
<path d="M658.969 293.213C638.808 293.388 622.683 319.379 622.959 351.263C623.236 383.147 639.809 408.855 659.97 408.68C680.132 408.505 696.257 382.514 695.981 350.63C695.704 318.746 679.131 293.038 658.969 293.213ZM660.796 400.484C643.998 400.629 630.178 378.564 629.941 351.203C629.704 323.841 643.139 301.554 659.937 301.408C676.736 301.262 690.555 323.313 690.793 350.675C691.03 378.037 677.611 400.338 660.796 400.484Z" fill="#263238" stroke="#263238" stroke-width="1.64006" stroke-linecap="round" stroke-linejoin="round"/>
<path d="M659.573 362.702C663.676 362.666 666.957 357.374 666.901 350.882C666.845 344.39 663.472 339.156 659.369 339.192C655.265 339.227 651.984 344.519 652.04 351.011C652.097 357.503 655.469 362.737 659.573 362.702Z" fill="#FFC700" stroke="#263238" stroke-width="1.64006" stroke-linecap="round" stroke-linejoin="round"/>
<path d="M753.113 290.243L760.51 288.124" stroke="#263238" stroke-width="1.64006" stroke-linecap="round" stroke-linejoin="round"/>
<path d="M700.154 305.339L743.99 292.833" stroke="#263238" stroke-width="1.64006" stroke-linecap="round" stroke-linejoin="round"/>
<path d="M706.286 347.63L746.619 348.565" stroke="#263238" stroke-width="1.64006" stroke-linecap="round" stroke-linejoin="round"/>
<path d="M740.149 400.11L748.529 402.434" stroke="#263238" stroke-width="1.64006" stroke-linecap="round" stroke-linejoin="round"/>
<path d="M703.771 389.996L733.502 398.27" stroke="#263238" stroke-width="1.64006" stroke-linecap="round" stroke-linejoin="round"/>
<path d="M704.645 324.547L726.225 321.791" stroke="#263238" stroke-width="1.64006" stroke-linecap="round" stroke-linejoin="round"/>
<path d="M695.246 404.18L711.199 415.598" stroke="#263238" stroke-width="1.64006" stroke-linecap="round" stroke-linejoin="round"/>
</g>
<path d="M834.021 695.747L951.334 697.803C956.726 697.898 961.174 694.329 961.253 689.845L962.393 624.808C962.471 620.324 958.151 616.602 952.759 616.507L864.683 614.963L835.7 598.229L835.446 614.451C830.054 614.356 825.606 617.925 825.528 622.409L824.387 687.446C824.309 691.93 828.629 695.652 834.021 695.747Z" fill="#FFC700" fill-opacity="0.4"/>
<path opacity="0.2" d="M827.719 654.667C827.44 670.596 839.745 685.208 859.802 695.89L951.849 697.503C960.456 697.654 967.518 694.131 967.597 689.647L968.737 624.61C968.815 620.126 961.881 616.358 953.274 616.207L861.227 614.594C840.808 624.566 827.999 638.738 827.719 654.667Z" fill="#FFC700" fill-opacity="0.4"/>
<path d="M942.271 656.984C942.308 654.828 941.315 652.742 939.508 651.185C937.701 649.628 935.23 648.728 932.637 648.683C930.044 648.637 927.543 649.45 925.683 650.943C923.823 652.435 922.756 654.485 922.718 656.641C922.681 658.797 923.674 660.883 925.481 662.44C927.288 663.996 929.759 664.896 932.352 664.942C934.945 664.987 937.446 664.174 939.307 662.682C941.167 661.19 942.233 659.14 942.271 656.984Z" fill="#333333"/>
<path d="M903.166 656.298C903.204 654.142 902.21 652.056 900.404 650.5C898.597 648.943 896.125 648.043 893.533 647.997C890.94 647.952 888.438 648.765 886.578 650.257C884.718 651.75 883.652 653.799 883.614 655.955C883.576 658.112 884.57 660.197 886.377 661.754C888.183 663.311 890.655 664.211 893.248 664.256C895.84 664.302 898.342 663.489 900.202 661.997C902.062 660.504 903.128 658.454 903.166 656.298Z" fill="#333333"/>
<path d="M864.062 655.613C864.1 653.457 863.106 651.371 861.299 649.814C859.493 648.257 857.021 647.357 854.428 647.312C851.836 647.266 849.334 648.079 847.474 649.572C845.614 651.064 844.548 653.114 844.51 655.27C844.472 657.426 845.466 659.512 847.272 661.069C849.079 662.625 851.551 663.525 854.143 663.571C856.736 663.616 859.238 662.803 861.098 661.311C862.958 659.819 864.024 657.769 864.062 655.613Z" fill="#333333"/>
<path d="M1099.39 699.493L1082.65 680.107C1090.49 667.934 1092.39 653.156 1087.84 639.33C1087.42 638.028 1085.93 637.327 1084.56 637.727C1083.18 638.128 1082.39 639.531 1082.86 640.833C1087.15 653.757 1085.14 667.583 1077.3 678.855L1077.14 679.055C1076.61 679.957 1076.67 681.059 1077.35 681.86L1095.31 702.599C1095.31 702.599 1095.57 702.9 1095.63 702.9C1097.11 704.503 1097.11 706.757 1095.68 708.41C1095.63 708.46 1095.63 708.51 1095.57 708.51L1095.2 708.861C1093.51 710.213 1091.02 710.213 1089.27 708.761C1089.16 708.661 1089.11 708.61 1089.01 708.51L1067.08 691.578C1066.18 690.877 1064.91 690.827 1063.95 691.428L1063.74 691.578C1045.26 703 1020.53 700.696 1004.74 686.068C1004.64 685.918 1004.59 685.768 1004.48 685.667C986.049 668.335 986.049 640.032 1004.43 622.649C1022.8 605.266 1052.73 605.266 1071.1 622.649C1071.21 622.749 1071.37 622.849 1071.53 622.899C1071.58 622.95 1071.69 623.05 1071.74 623.1C1072.64 624.152 1074.34 624.302 1075.45 623.4C1076.56 622.549 1076.72 620.946 1075.77 619.894C1075.55 619.643 1075.24 619.343 1074.92 619.042C1054.53 599.806 1021.32 599.656 1000.77 618.892C1000.72 618.942 1000.61 618.992 1000.56 619.092C992.087 627.107 986.791 637.777 985.573 649.049C985.043 653.958 985.308 658.867 986.261 663.626C988.274 673.394 993.252 682.261 1000.72 689.324C1017.83 705.454 1044.68 708.41 1065.23 696.588L1085.56 712.317C1085.67 712.418 1085.83 712.568 1085.93 712.668C1087.79 714.171 1090.01 714.872 1092.24 714.872C1094.51 714.872 1096.79 714.121 1098.64 712.618L1099.54 711.816C1099.7 711.666 1099.81 711.516 1099.92 711.315C1102.72 707.859 1102.62 703.05 1099.6 699.694C1099.54 699.644 1099.44 699.543 1099.39 699.493Z" fill="black" fill-opacity="0.3"/>
<path d="M1114.85 606.068C1114.32 605.367 1113.42 604.966 1112.47 605.066L1095.47 606.769C1094.51 606.869 1093.72 607.42 1093.35 608.222C1092.98 609.023 1093.08 609.975 1093.61 610.676L1097.37 615.536L1037.63 656.262C1037 656.663 1036.63 657.364 1036.57 658.065L1034.99 677.352L1009.14 653.457C1008.61 652.956 1007.87 652.705 1007.13 652.756L999.554 653.256C998.124 653.357 997.012 654.509 997.118 655.911C997.224 657.264 998.495 658.316 999.925 658.216L1006.33 657.815L1035.36 684.615C1035.83 685.066 1036.52 685.317 1037.21 685.317C1037.53 685.317 1037.85 685.267 1038.11 685.166C1039.06 684.816 1039.7 684.014 1039.8 683.062L1041.76 659.669L1100.6 619.643L1103.83 623.851C1104.31 624.502 1105.11 624.853 1105.95 624.853C1106.06 624.853 1106.16 624.853 1106.22 624.853C1107.17 624.753 1107.97 624.202 1108.34 623.4L1115.22 608.623C1115.54 607.721 1115.43 606.819 1114.85 606.068ZM1105.32 617.389L1100.6 611.278L1108.55 610.476L1105.32 617.389Z" fill="black" fill-opacity="0.3"/>
<path d="M133.43 43.1567L16.1147 45.0738C10.7225 45.1619 6.39803 48.8793 6.47131 53.3633L7.53412 118.401C7.6074 122.885 12.051 126.459 17.4433 126.371L105.522 124.932L135.054 140.675L134.759 124.454C140.151 124.366 144.475 120.649 144.402 116.165L143.339 51.1267C143.266 46.6426 138.822 43.0686 133.43 43.1567Z" fill="#FFC700" fill-opacity="0.4"/>
<path opacity="0.2" d="M141.119 83.9995C140.859 68.0703 128.066 53.8833 107.659 43.8867L15.6106 45.3909C7.00315 45.5315 0.0646111 49.2916 0.137887 53.7757L1.2007 118.814C1.27398 123.298 8.33167 126.829 16.9391 126.688L108.988 125.184C129.057 114.526 141.38 99.9288 141.119 83.9995Z" fill="#FFC700" fill-opacity="0.4"/>
<path d="M26.5553 85.5628C26.5906 87.719 27.6543 89.77 29.5127 91.2647C31.371 92.7593 33.8716 93.5752 36.4645 93.5328C39.0573 93.4905 41.5299 92.5933 43.3384 91.0387C45.1469 89.4841 46.1431 87.3995 46.1079 85.2433C46.0727 83.0872 45.0089 81.0362 43.1506 79.5415C41.2922 78.0469 38.7916 77.231 36.1988 77.2733C33.6059 77.3157 31.1333 78.2129 29.3248 79.7675C27.5163 81.322 26.5201 83.4067 26.5553 85.5628Z" fill="#333333"/>
<path d="M65.6605 84.9238C65.6957 87.08 66.7595 89.131 68.6179 90.6256C70.4762 92.1203 72.9768 92.9362 75.5696 92.8938C78.1625 92.8514 80.6351 91.9543 82.4436 90.3997C84.2521 88.8451 85.2483 86.7604 85.2131 84.6043C85.1778 82.4481 84.1141 80.3971 82.2557 78.9025C80.3974 77.4078 77.8968 76.5919 75.3039 76.6343C72.7111 76.6767 70.2385 77.5738 68.43 79.1284C66.6215 80.683 65.6253 82.7677 65.6605 84.9238Z" fill="#333333"/>
<path d="M104.766 84.2848C104.801 86.4409 105.865 88.4919 107.723 89.9866C109.581 91.4812 112.082 92.2971 114.675 92.2548C117.268 92.2124 119.74 91.3152 121.549 89.7607C123.357 88.2061 124.353 86.1214 124.318 83.9653C124.283 81.8091 123.219 79.7581 121.361 78.2634C119.503 76.7688 117.002 75.9529 114.409 75.9953C111.816 76.0376 109.344 76.9348 107.535 78.4894C105.727 80.044 104.73 82.1286 104.766 84.2848Z" fill="#333333"/>
</svg>
