<svg width="15248" height="13232" viewBox="0 0 15248 13232" fill="none" xmlns="http://www.w3.org/2000/svg">
<g clip-path="url(#clip0_37_44)">
<path d="M4139.45 8623.04L8143.75 8624.62C8148.78 8624.62 8153.6 8622.62 8157.16 8619.06C8160.72 8615.5 8162.71 8610.68 8162.71 8605.65C8162.71 8600.62 8160.72 8595.8 8157.16 8592.24C8153.6 8588.68 8148.78 8586.69 8143.75 8586.69L4139.45 8585.11C4134.42 8585.11 4129.6 8587.11 4126.04 8590.67C4122.48 8594.22 4120.49 8599.05 4120.49 8604.08C4120.49 8609.11 4122.48 8613.93 4126.04 8617.49C4129.6 8621.05 4134.42 8623.04 4139.45 8623.04Z" fill="#CCCCCC"/>
<path d="M12703.1 3134.59H12630.6V1149.16C12630.6 844.384 12509.5 552.091 12294 336.581C12078.5 121.072 11786.2 0.000201193 11481.5 0H7274.9C7123.99 0 6974.56 29.7239 6835.14 87.4746C6695.72 145.225 6569.03 229.872 6462.33 336.581C6355.62 443.291 6270.97 569.973 6213.22 709.396C6155.47 848.818 6125.74 998.25 6125.74 1149.16V12041.6C6125.74 12346.4 6246.82 12638.7 6462.33 12854.2C6677.83 13069.7 6970.13 13190.7 7274.9 13190.7H11481.5C11786.2 13190.7 12078.5 13069.7 12294 12854.2C12509.5 12638.7 12630.6 12346.4 12630.6 12041.6V4547.86H12703.1L12703.1 3134.59Z" fill="#343434"/>
<path d="M11527.8 298.848H10978.8C11004 360.759 11013.7 427.931 11006.8 494.445C11000 560.959 10976.9 624.774 10939.6 680.267C10902.3 735.76 10852 781.229 10793 812.666C10733.9 844.104 10668.1 860.546 10601.2 860.543H8191.36C8124.5 860.54 8058.66 844.094 7999.65 812.654C7940.65 781.214 7890.28 735.745 7852.98 680.252C7815.69 624.76 7792.61 560.947 7785.79 494.436C7778.97 427.925 7788.61 360.756 7813.86 298.848H7301.01C7073.41 298.848 6855.13 389.263 6694.18 550.203C6533.24 711.144 6442.83 929.425 6442.83 1157.03V12033.6C6442.83 12261.2 6533.24 12479.5 6694.18 12640.5C6855.13 12801.4 7073.41 12891.8 7301.01 12891.8H11527.8C11755.4 12891.8 11973.7 12801.4 12134.6 12640.5C12295.6 12479.5 12386 12261.2 12386 12033.6V1157.01C12386 929.411 12295.6 711.133 12134.6 550.197C11973.7 389.26 11755.4 298.848 11527.8 298.848Z" fill="white"/>
<path d="M8135.88 2835.83C8112.97 2836.04 8090.28 2831.42 8069.28 2822.27C8048.28 2813.13 8029.44 2799.67 8013.98 2782.77C7995.64 2761.55 7981.89 2736.77 7973.59 2709.98C7965.29 2683.19 7962.62 2654.97 7965.75 2627.1C7970.11 2574.01 7992.36 2523.98 8028.85 2485.18C8046.38 2466.23 8067.6 2451.06 8091.2 2440.61C8114.79 2430.15 8140.28 2424.63 8166.09 2424.37C8190.09 2424.27 8213.84 2429.22 8235.81 2438.9C8257.77 2448.58 8277.44 2462.77 8293.56 2480.56C8311.84 2501.21 8325.64 2525.43 8334.09 2551.69C8342.54 2577.95 8345.46 2605.67 8342.65 2633.12C8339.24 2689.43 8314.95 2742.45 8274.52 2781.81C8236.89 2816.85 8187.29 2836.17 8135.88 2835.83ZM8166.09 2492.95C8098.97 2492.95 8040.98 2554.52 8034.06 2633.11C8031.77 2651.51 8033.3 2670.18 8038.55 2687.96C8043.79 2705.74 8052.65 2722.24 8064.56 2736.45C8073.57 2746.36 8084.59 2754.24 8096.89 2759.55C8109.19 2764.87 8122.48 2767.49 8135.88 2767.26C8198.64 2767.26 8265.8 2723.92 8274.34 2627.09C8276.31 2609.12 8274.55 2590.95 8269.15 2573.7C8263.75 2556.45 8254.84 2540.5 8242.98 2526.87C8233.26 2516.13 8221.4 2507.57 8208.15 2501.72C8194.9 2495.88 8180.57 2492.89 8166.09 2492.95Z" fill="url(#paint0_linear_37_44)"/>
<path d="M8138.11 3041.56C8085.06 3042.43 8032.44 3032 7983.73 3010.98C7935.02 2989.95 7891.34 2958.81 7855.58 2919.62C7819.83 2880.42 7792.82 2834.07 7776.34 2783.64C7759.86 2733.21 7754.3 2679.86 7760.02 2627.11C7771.25 2516.41 7822.72 2413.67 7904.66 2338.38C7986.6 2263.09 8093.32 2220.49 8204.58 2218.65C8328.03 2218.65 8429.6 2258.31 8498.32 2333.35C8563.48 2404.5 8593.99 2504.67 8584.23 2615.39C8575 2720.28 8530.5 2774.91 8494.79 2802.27C8479.02 2815.12 8460.81 2824.64 8441.26 2830.25C8421.7 2835.85 8401.21 2837.43 8381.03 2834.88C8324.59 2824.87 8262.16 2773.6 8271.98 2662.03L8290.16 2455.76C8291 2446.74 8295.38 2438.41 8302.34 2432.61C8309.3 2426.8 8318.28 2423.99 8327.31 2424.79C8336.34 2425.58 8344.68 2429.92 8350.52 2436.85C8356.36 2443.79 8359.22 2452.75 8358.47 2461.78L8340.29 2668.05C8335.41 2723.51 8355.12 2760.64 8393 2767.36C8414.82 2769.05 8436.43 2762.03 8453.08 2747.83C8477.86 2728.85 8508.88 2689.42 8515.92 2609.38C8524.09 2516.72 8500.51 2437.28 8447.75 2379.66C8392.37 2319.19 8308.28 2287.22 8204.58 2287.22C8110.46 2289.01 8020.23 2325.16 7950.93 2388.87C7881.62 2452.59 7838.01 2539.45 7828.33 2633.1C7823.44 2676.36 7827.86 2720.18 7841.28 2761.6C7854.7 2803.03 7876.81 2841.1 7906.14 2873.29C7935.48 2905.47 7971.34 2931.01 8011.35 2948.21C8051.35 2965.4 8094.57 2973.85 8138.11 2972.99C8191.81 2975.89 8245.45 2966.17 8294.72 2944.59C8303.1 2941.11 8312.51 2941.09 8320.9 2944.54C8329.29 2947.98 8335.97 2954.61 8339.48 2962.98C8343 2971.34 8343.06 2980.75 8339.64 2989.15C8336.23 2997.56 8329.63 3004.27 8321.29 3007.81C8263.61 3032.92 8200.94 3044.47 8138.11 3041.56Z" fill="url(#paint1_linear_37_44)"/>
<path d="M7776.08 7942.64C7769.29 7942.63 7762.67 7940.62 7757.03 7936.86C7751.39 7933.09 7746.99 7927.73 7744.4 7921.47C7741.8 7915.2 7741.12 7908.31 7742.45 7901.66C7743.77 7895.01 7747.04 7888.9 7751.83 7884.1L7974.7 7661.23C7981.15 7654.88 7989.85 7651.33 7998.9 7651.36C8007.95 7651.4 8016.62 7655.01 8023.02 7661.4C8029.42 7667.8 8033.03 7676.47 8033.06 7685.53C8033.09 7694.58 8029.55 7703.27 8023.19 7709.72L7800.32 7932.59C7797.14 7935.78 7793.36 7938.31 7789.2 7940.03C7785.04 7941.76 7780.58 7942.64 7776.08 7942.64ZM8341.83 7856.92C8335.05 7856.92 8328.42 7854.9 8322.78 7851.14C8317.14 7847.37 8312.75 7842.01 8310.15 7835.75C8307.56 7829.48 8306.88 7822.59 8308.2 7815.94C8309.53 7809.29 8312.79 7803.18 8317.59 7798.38L8506.17 7609.8C8512.62 7603.44 8521.31 7599.9 8530.36 7599.93C8539.41 7599.96 8548.08 7603.57 8554.48 7609.97C8560.88 7616.37 8564.5 7625.04 8564.53 7634.09C8564.56 7643.14 8561.01 7651.84 8554.66 7658.29L8366.08 7846.87C8362.9 7850.06 8359.12 7852.59 8354.96 7854.31C8350.8 7856.04 8346.33 7856.92 8341.83 7856.92ZM8238.97 7856.92C8234.46 7856.92 8230 7856.04 8225.84 7854.31C8221.68 7852.59 8217.9 7850.06 8214.72 7846.87L8077.57 7709.72C8074.35 7706.54 8071.79 7702.76 8070.03 7698.59C8068.28 7694.42 8067.37 7689.95 8067.35 7685.42C8067.34 7680.9 8068.22 7676.42 8069.94 7672.24C8071.66 7668.06 8074.2 7664.26 8077.4 7661.06C8080.6 7657.86 8084.4 7655.33 8088.58 7653.6C8092.76 7651.88 8097.24 7651 8101.76 7651.02C8106.29 7651.03 8110.76 7651.94 8114.93 7653.69C8119.1 7655.45 8122.88 7658.01 8126.06 7661.23L8263.21 7798.38C8268.01 7803.18 8271.27 7809.29 8272.6 7815.94C8273.92 7822.59 8273.24 7829.48 8270.64 7835.75C8268.05 7842.01 8263.65 7847.37 8258.01 7851.14C8252.38 7854.9 8245.75 7856.92 8238.97 7856.92Z" fill="url(#paint2_linear_37_44)"/>
<path d="M8581.85 7668.32C8564.9 7668.32 8548.32 7663.3 8534.23 7653.88C8520.13 7644.46 8509.14 7631.07 8502.65 7615.41C8496.17 7599.74 8494.47 7582.51 8497.78 7565.88C8501.08 7549.25 8509.25 7533.98 8521.24 7521.99C8533.22 7510 8548.5 7501.84 8565.13 7498.53C8581.76 7495.22 8598.99 7496.92 8614.65 7503.41C8630.32 7509.9 8643.7 7520.88 8653.12 7534.98C8662.54 7549.08 8667.57 7565.65 8667.57 7582.6C8667.55 7605.33 8658.51 7627.12 8642.44 7643.19C8626.36 7659.26 8604.58 7668.3 8581.85 7668.32ZM8581.85 7565.46C8578.46 7565.46 8575.14 7566.46 8572.33 7568.35C8569.51 7570.23 8567.31 7572.91 8566.01 7576.04C8564.71 7579.18 8564.37 7582.62 8565.04 7585.95C8565.7 7589.27 8567.33 7592.33 8569.73 7594.73C8572.12 7597.12 8575.18 7598.76 8578.51 7599.42C8581.83 7600.08 8585.28 7599.74 8588.41 7598.44C8591.54 7597.15 8594.22 7594.95 8596.1 7592.13C8597.99 7589.31 8598.99 7585.99 8598.99 7582.6C8598.99 7578.06 8597.18 7573.7 8593.97 7570.49C8590.75 7567.27 8586.4 7565.46 8581.85 7565.46Z" fill="url(#paint3_linear_37_44)"/>
<path d="M8290.4 7959.8C8273.44 7959.8 8256.87 7954.77 8242.77 7945.35C8228.68 7935.94 8217.69 7922.55 8211.2 7906.88C8204.71 7891.22 8203.02 7873.98 8206.32 7857.36C8209.63 7840.73 8217.8 7825.45 8229.78 7813.47C8241.77 7801.48 8257.05 7793.31 8273.67 7790.01C8290.3 7786.7 8307.54 7788.4 8323.2 7794.88C8338.86 7801.37 8352.25 7812.36 8361.67 7826.46C8371.09 7840.55 8376.12 7857.13 8376.12 7874.08C8376.09 7896.81 8367.05 7918.6 8350.98 7934.67C8334.91 7950.74 8313.12 7959.77 8290.4 7959.8ZM8290.4 7856.94C8287.01 7856.94 8283.69 7857.94 8280.87 7859.83C8278.05 7861.71 8275.86 7864.39 8274.56 7867.52C8273.26 7870.65 8272.92 7874.1 8273.58 7877.42C8274.24 7880.75 8275.88 7883.81 8278.27 7886.2C8280.67 7888.6 8283.73 7890.23 8287.05 7890.89C8290.38 7891.56 8293.83 7891.22 8296.96 7889.92C8300.09 7888.62 8302.77 7886.43 8304.65 7883.61C8306.54 7880.79 8307.54 7877.47 8307.54 7874.08C8307.54 7869.54 8305.73 7865.18 8302.51 7861.96C8299.3 7858.75 8294.94 7856.94 8290.4 7856.94Z" fill="url(#paint4_linear_37_44)"/>
<path d="M8050.38 7719.77C8033.43 7719.77 8016.85 7714.75 8002.76 7705.33C7988.66 7695.91 7977.67 7682.52 7971.19 7666.86C7964.7 7651.19 7963 7633.96 7966.31 7617.33C7969.61 7600.7 7977.78 7585.43 7989.77 7573.44C8001.76 7561.45 8017.03 7553.29 8033.66 7549.98C8050.29 7546.67 8067.52 7548.37 8083.18 7554.86C8098.85 7561.35 8112.24 7572.33 8121.66 7586.43C8131.07 7600.53 8136.1 7617.1 8136.1 7634.05C8136.08 7656.78 8127.04 7678.57 8110.97 7694.64C8094.9 7710.71 8073.11 7719.75 8050.38 7719.77ZM8050.38 7616.91C8046.99 7616.91 8043.68 7617.91 8040.86 7619.8C8038.04 7621.68 8035.84 7624.36 8034.54 7627.49C8033.24 7630.62 8032.9 7634.07 8033.57 7637.4C8034.23 7640.72 8035.86 7643.78 8038.26 7646.18C8040.66 7648.57 8043.71 7650.21 8047.04 7650.87C8050.36 7651.53 8053.81 7651.19 8056.94 7649.89C8060.07 7648.59 8062.75 7646.4 8064.64 7643.58C8066.52 7640.76 8067.53 7637.44 8067.53 7634.05C8067.52 7629.51 8065.71 7625.15 8062.5 7621.94C8059.28 7618.72 8054.93 7616.91 8050.38 7616.91Z" fill="url(#paint5_linear_37_44)"/>
<path d="M7724.64 8045.51C7707.69 8045.51 7691.12 8040.49 7677.02 8031.07C7662.92 8021.65 7651.93 8008.26 7645.45 7992.6C7638.96 7976.93 7637.26 7959.7 7640.57 7943.07C7643.88 7926.44 7652.04 7911.17 7664.03 7899.18C7676.02 7887.19 7691.29 7879.03 7707.92 7875.72C7724.55 7872.41 7741.78 7874.11 7757.45 7880.6C7773.11 7887.09 7786.5 7898.07 7795.92 7912.17C7805.34 7926.27 7810.36 7942.84 7810.36 7959.79C7810.34 7982.52 7801.3 8004.31 7785.23 8020.38C7769.16 8036.45 7747.37 8045.49 7724.64 8045.51ZM7724.64 7942.65C7721.25 7942.65 7717.94 7943.65 7715.12 7945.54C7712.3 7947.42 7710.1 7950.1 7708.8 7953.23C7707.51 7956.36 7707.17 7959.81 7707.83 7963.14C7708.49 7966.46 7710.12 7969.52 7712.52 7971.92C7714.92 7974.31 7717.97 7975.95 7721.3 7976.61C7724.62 7977.27 7728.07 7976.93 7731.2 7975.63C7734.34 7974.33 7737.01 7972.14 7738.9 7969.32C7740.78 7966.5 7741.79 7963.18 7741.79 7959.79C7741.78 7955.25 7739.97 7950.89 7736.76 7947.68C7733.55 7944.46 7729.19 7942.65 7724.64 7942.65Z" fill="url(#paint6_linear_37_44)"/>
<path d="M10978.7 10689.7H10258.7C10226.8 10689.6 10196.3 10677 10173.8 10654.5C10151.3 10632 10138.7 10601.5 10138.7 10569.7V10055.3C10138.7 10023.5 10151.3 9993.02 10173.8 9970.52C10196.3 9948.02 10226.8 9935.37 10258.7 9935.33H10978.7C11010.5 9935.37 11041 9948.02 11063.5 9970.52C11086 9993.02 11098.7 10023.5 11098.7 10055.3V10569.7C11098.7 10601.5 11086 10632 11063.5 10654.5C11041 10677 11010.5 10689.6 10978.7 10689.7ZM10258.7 10003.9C10245 10003.9 10232 10009.3 10222.3 10019C10212.7 10028.6 10207.2 10041.7 10207.2 10055.3V10569.7C10207.2 10583.3 10212.7 10596.4 10222.3 10606C10232 10615.7 10245 10621.1 10258.7 10621.1H10978.7C10992.4 10621.1 11005.4 10615.7 11015.1 10606C11024.7 10596.4 11030.1 10583.3 11030.2 10569.7V10055.3C11030.1 10041.7 11024.7 10028.6 11015.1 10019C11005.4 10009.3 10992.4 10003.9 10978.7 10003.9L10258.7 10003.9Z" fill="url(#paint7_linear_37_44)"/>
<path d="M10618.7 10381.1C10611.1 10381.1 10603.7 10378.6 10597.6 10373.9L10289 10133.8C10285.5 10131.1 10282.5 10127.6 10280.3 10123.7C10278.1 10119.8 10276.6 10115.5 10276.1 10111C10275.5 10106.6 10275.8 10102 10277 10097.7C10278.2 10093.3 10280.3 10089.3 10283 10085.7C10285.8 10082.2 10289.2 10079.2 10293.2 10077C10297.1 10074.8 10301.4 10073.3 10305.8 10072.8C10310.3 10072.2 10314.9 10072.5 10319.2 10073.7C10323.5 10074.9 10327.6 10077 10331.2 10079.7L10618.7 10303.4L10906.2 10079.7C10909.8 10077 10913.9 10074.9 10918.2 10073.7C10922.5 10072.5 10927.1 10072.2 10931.5 10072.8C10936 10073.3 10940.3 10074.8 10944.2 10077C10948.2 10079.2 10951.6 10082.2 10954.4 10085.7C10957.1 10089.3 10959.2 10093.3 10960.3 10097.7C10961.5 10102 10961.9 10106.6 10961.3 10111C10960.8 10115.5 10959.3 10119.8 10957.1 10123.7C10954.9 10127.6 10951.9 10131.1 10948.3 10133.8L10639.7 10373.9C10633.7 10378.6 10626.3 10381.1 10618.7 10381.1Z" fill="url(#paint8_linear_37_44)"/>
<path d="M14486.1 11164.4L10519.8 11165.9C10514.7 11165.9 10509.9 11163.9 10506.4 11160.4C10502.8 11156.8 10500.8 11152 10500.8 11147C10500.8 11141.9 10502.8 11137.1 10506.4 11133.5C10509.9 11130 10514.7 11128 10519.8 11128L14486.1 11126.4C14491.2 11126.4 14496 11128.4 14499.5 11132C14503.1 11135.5 14505.1 11140.4 14505.1 11145.4C14505.1 11150.4 14503.1 11155.2 14499.5 11158.8C14496 11162.4 14491.2 11164.4 14486.1 11164.4Z" fill="#CCCCCC"/>
<path d="M14391.3 6081.73L10387 6083.3C10382 6083.3 10377.2 6081.3 10373.6 6077.75C10370 6074.19 10368 6069.37 10368 6064.34C10368 6059.31 10370 6054.48 10373.6 6050.93C10377.2 6047.37 10382 6045.37 10387 6045.37L14391.3 6043.8C14396.3 6043.8 14401.2 6045.8 14404.7 6049.36C14408.3 6052.91 14410.3 6057.74 14410.3 6062.77C14410.3 6067.8 14408.3 6072.62 14404.7 6076.18C14401.2 6079.73 14396.3 6081.73 14391.3 6081.73Z" fill="#CCCCCC"/>
<path d="M4139.45 3483.52L8143.75 3485.1C8148.78 3485.1 8153.6 3483.1 8157.16 3479.54C8160.72 3475.98 8162.71 3471.16 8162.71 3466.13C8162.71 3461.1 8160.72 3456.28 8157.16 3452.72C8153.6 3449.16 8148.78 3447.17 8143.75 3447.17L4139.45 3445.59C4134.42 3445.59 4129.6 3447.59 4126.04 3451.15C4122.48 3454.7 4120.49 3459.53 4120.49 3464.56C4120.49 3469.59 4122.48 3474.41 4126.04 3477.97C4129.6 3481.53 4134.42 3483.52 4139.45 3483.52Z" fill="#CCCCCC"/>
<path d="M4097.41 3749.03C4244.05 3749.03 4362.92 3630.16 4362.92 3483.52C4362.92 3336.89 4244.05 3218.01 4097.41 3218.01C3950.78 3218.01 3831.9 3336.89 3831.9 3483.52C3831.9 3630.16 3950.78 3749.03 4097.41 3749.03Z" fill="url(#paint9_linear_37_44)"/>
<path d="M14543.5 6304.02C14690.1 6304.02 14809 6185.15 14809 6038.51C14809 5891.87 14690.1 5773 14543.5 5773C14396.9 5773 14278 5891.87 14278 6038.51C14278 6185.15 14396.9 6304.02 14543.5 6304.02Z" fill="url(#paint10_linear_37_44)"/>
<path d="M14543.5 11391C14690.1 11391 14809 11272.1 14809 11125.5C14809 10978.9 14690.1 10860 14543.5 10860C14396.9 10860 14278 10978.9 14278 11125.5C14278 11272.1 14396.9 11391 14543.5 11391Z" fill="url(#paint11_linear_37_44)"/>
<path d="M4096.51 8908.02C4243.15 8908.02 4362.02 8789.15 4362.02 8642.51C4362.02 8495.87 4243.15 8377 4096.51 8377C3949.87 8377 3831 8495.87 3831 8642.51C3831 8789.15 3949.87 8908.02 4096.51 8908.02Z" fill="url(#paint12_linear_37_44)"/>
<path d="M10618.7 11165.9C10449.9 11165.9 10284.9 11115.9 10144.6 11022.1C10004.2 10928.3 9894.83 10795.1 9830.23 10639.1C9765.64 10483.2 9748.74 10311.6 9781.67 10146C9814.6 9980.48 9895.88 9828.41 10015.2 9709.06C10134.6 9589.7 10286.7 9508.42 10452.2 9475.49C10617.8 9442.56 10789.3 9459.46 10945.3 9524.06C11101.2 9588.65 11234.5 9698.04 11328.3 9838.38C11422.1 9978.73 11472.1 10143.7 11472.1 10312.5C11471.9 10538.8 11381.9 10755.7 11221.9 10915.7C11061.9 11075.7 10845 11165.7 10618.7 11165.9ZM10618.7 9497.02C10457.4 9497.02 10299.7 9544.85 10165.6 9634.46C10031.5 9724.07 9927 9851.43 9865.28 10000.4C9803.55 10149.5 9787.41 10313.4 9818.87 10471.6C9850.34 10629.8 9928.01 10775.1 10042.1 10889.2C10156.1 11003.2 10301.4 11080.9 10459.6 11112.3C10617.8 11143.8 10781.8 11127.7 10930.8 11065.9C11079.8 11004.2 11207.1 10899.7 11296.8 10765.6C11386.4 10631.5 11434.2 10473.8 11434.2 10312.5C11433.9 10096.3 11348 9889.03 11195.1 9736.15C11042.2 9583.26 10834.9 9497.27 10618.7 9497.02Z" fill="#CCCCCC"/>
<path d="M8153.25 8624.63C7984.45 8624.63 7819.45 8574.58 7679.11 8480.81C7538.76 8387.03 7429.38 8253.74 7364.78 8097.8C7300.19 7941.86 7283.29 7770.26 7316.22 7604.71C7349.15 7439.17 7430.43 7287.1 7549.78 7167.75C7669.14 7048.39 7821.2 6967.11 7986.75 6934.18C8152.3 6901.25 8323.89 6918.15 8479.84 6982.75C8635.78 7047.34 8769.07 7156.73 8862.84 7297.07C8956.62 7437.42 9006.67 7602.42 9006.67 7771.21C9006.41 7997.47 8916.42 8214.4 8756.43 8374.39C8596.43 8534.38 8379.51 8624.38 8153.25 8624.63ZM8153.25 6955.71C7991.96 6955.71 7834.29 7003.54 7700.18 7093.15C7566.07 7182.76 7461.55 7310.12 7399.83 7459.13C7338.1 7608.14 7321.95 7772.11 7353.42 7930.3C7384.89 8088.5 7462.55 8233.8 7576.6 8347.85C7690.65 8461.9 7835.96 8539.57 7994.15 8571.03C8152.34 8602.5 8316.31 8586.35 8465.32 8524.63C8614.33 8462.9 8741.7 8358.38 8831.31 8224.27C8920.91 8090.17 8968.74 7932.5 8968.74 7771.21C8968.5 7555 8882.5 7347.72 8729.62 7194.84C8576.74 7041.95 8369.45 6955.96 8153.25 6955.71Z" fill="#CCCCCC"/>
<path d="M10448 6083.32C10279.2 6083.32 10114.2 6033.27 9973.87 5939.5C9833.53 5845.72 9724.14 5712.43 9659.55 5556.49C9594.96 5400.55 9578.06 5228.95 9610.98 5063.4C9643.91 4897.85 9725.2 4745.79 9844.55 4626.44C9963.9 4507.08 10116 4425.8 10281.5 4392.87C10447.1 4359.94 10618.7 4376.84 10774.6 4441.44C10930.5 4506.03 11063.8 4615.42 11157.6 4755.76C11251.4 4896.11 11301.4 5061.11 11301.4 5229.9C11301.2 5456.16 11211.2 5673.09 11051.2 5833.08C10891.2 5993.07 10674.3 6083.07 10448 6083.32ZM10448 4414.4C10286.7 4414.4 10129.1 4462.23 9994.95 4551.84C9860.84 4641.45 9756.32 4768.81 9694.59 4917.82C9632.87 5066.83 9616.72 5230.8 9648.19 5388.99C9679.65 5547.18 9757.32 5692.49 9871.37 5806.54C9985.42 5920.59 10130.7 5998.26 10288.9 6029.72C10447.1 6061.19 10611.1 6045.04 10760.1 5983.32C10909.1 5921.6 11036.5 5817.07 11126.1 5682.96C11215.7 5548.86 11263.5 5391.19 11263.5 5229.9C11263.3 5013.69 11177.3 4806.41 11024.4 4653.53C10871.5 4500.64 10664.2 4414.65 10448 4414.4Z" fill="#CCCCCC"/>
<path d="M8172.21 3483.53C8003.42 3483.53 7838.42 3433.47 7698.07 3339.7C7557.73 3245.92 7448.34 3112.63 7383.75 2956.69C7319.15 2800.75 7302.25 2629.15 7335.18 2463.6C7368.11 2298.06 7449.39 2145.99 7568.75 2026.64C7688.1 1907.28 7840.17 1826 8005.72 1793.07C8171.26 1760.14 8342.86 1777.04 8498.8 1841.64C8654.75 1906.23 8788.03 2015.62 8881.81 2155.96C8975.58 2296.31 9025.64 2461.31 9025.64 2630.1C9025.38 2856.36 8935.38 3073.29 8775.39 3233.28C8615.4 3393.27 8398.47 3483.27 8172.21 3483.53ZM8172.21 1814.6C8010.92 1814.6 7853.25 1862.43 7719.15 1952.04C7585.04 2041.65 7480.51 2169.01 7418.79 2318.02C7357.07 2467.04 7340.92 2631 7372.38 2789.19C7403.85 2947.39 7481.52 3092.69 7595.57 3206.74C7709.62 3320.79 7854.93 3398.46 8013.12 3429.93C8171.31 3461.39 8335.27 3445.24 8484.29 3383.52C8633.3 3321.8 8760.66 3217.27 8850.27 3083.16C8939.88 2949.06 8987.71 2791.39 8987.71 2630.1C8987.46 2413.89 8901.47 2206.61 8748.58 2053.73C8595.7 1900.84 8388.42 1814.85 8172.21 1814.6Z" fill="#CCCCCC"/>
<path d="M2816.35 9265.93C2793.02 9248.14 2773.7 9225.64 2759.64 9199.89C2745.58 9174.13 2737.11 9145.71 2734.76 9116.47C2734.24 9109.65 2734.08 9102.82 2734.28 9095.98L1851.11 8501.2C1822.21 8481.53 1800.43 8453.05 1789.03 8420.01C1777.63 8386.96 1777.21 8351.11 1787.83 8317.81L2209.93 7269.12C2228.1 7223.98 2263.41 7187.87 2308.14 7168.71C2352.86 7149.55 2403.36 7148.89 2448.58 7166.88C2493.79 7184.86 2530.03 7220.04 2549.37 7264.69C2568.7 7309.34 2569.56 7359.83 2551.75 7405.12L2210.95 8271.64L2898.65 8896.26C2907.72 8894.19 2916.93 8892.77 2926.21 8892C2979.32 8887.78 3032.03 8904.03 3073.54 8937.44C3115.05 8970.84 3142.21 9018.85 3149.44 9071.64C3156.68 9124.43 3143.45 9177.98 3112.46 9221.32C3081.47 9264.66 3035.07 9294.5 2982.79 9304.73C2969.37 9307.31 2955.74 9308.62 2942.07 9308.64C2896.6 9308.66 2852.39 9293.65 2816.35 9265.93Z" fill="#A0616A"/>
<path d="M1851.47 7886.61C1846.31 7874.54 1843.8 7861.5 1844.14 7848.37C1844.47 7835.25 1847.63 7822.35 1853.4 7810.56L2054.89 7398.72C2075.22 7334.71 2120.11 7281.37 2179.71 7250.4C2239.31 7219.43 2308.75 7213.35 2372.82 7233.51C2436.89 7253.66 2490.35 7298.4 2521.49 7357.91C2552.62 7417.42 2558.89 7486.85 2538.91 7550.98L2465.35 8005.04C2463.25 8017.99 2458.38 8030.35 2451.07 8041.25C2443.77 8052.16 2434.2 8061.37 2423.02 8068.24C2411.83 8075.12 2399.3 8079.5 2386.27 8081.09C2373.24 8082.69 2360.02 8081.46 2347.51 8077.48L1907.8 7937.75C1895.28 7933.78 1883.77 7927.15 1874.05 7918.33C1864.33 7909.5 1856.63 7898.68 1851.47 7886.61Z" fill="#FFC700"/>
<path d="M3241.27 12971.1H3473.78L3584.39 12074.3L3241.23 12074.3L3241.27 12971.1Z" fill="#A0616A"/>
<path d="M3181.96 12895.2L3639.85 12895.2H3639.87C3678.19 12895.2 3716.13 12902.8 3751.53 12917.4C3786.94 12932.1 3819.11 12953.6 3846.2 12980.7C3873.3 13007.8 3894.79 13039.9 3909.46 13075.3C3924.12 13110.7 3931.67 13148.7 3931.67 13187V13196.5L3181.97 13196.5L3181.96 12895.2Z" fill="#2F2E41"/>
<path d="M967.688 12806.4L1192.88 12864.3L1523.25 12023.2L1190.89 11937.8L967.688 12806.4Z" fill="#A0616A"/>
<path d="M929.145 12718.1L1372.62 12832.1L1372.64 12832.1C1409.76 12841.6 1444.63 12858.4 1475.27 12881.4C1505.9 12904.4 1531.71 12933.2 1551.21 12966.2C1570.71 12999.2 1583.52 13035.7 1588.91 13073.7C1594.3 13111.6 1592.16 13150.2 1582.62 13187.3L1580.26 13196.5L854.157 13009.9L929.145 12718.1Z" fill="#2F2E41"/>
<path d="M2598.48 6818.72C2855.74 6818.72 3064.28 6610.17 3064.28 6352.92C3064.28 6095.66 2855.74 5887.12 2598.48 5887.12C2341.23 5887.12 2132.68 6095.66 2132.68 6352.92C2132.68 6610.17 2341.23 6818.72 2598.48 6818.72Z" fill="#A0616A"/>
<path d="M2362.9 8290.38C2252.07 8176.31 2157.98 8047.11 2083.43 7906.64C2043.77 7829.62 2020.69 7745.15 2015.66 7658.66C2010.63 7572.18 2023.76 7485.61 2054.21 7404.51C2085.31 7321.6 2133.42 7246.13 2195.45 7182.94C2257.48 7119.75 2332.06 7070.26 2414.37 7037.63C2558.73 6979.05 2719.8 6976.63 2865.85 7030.84C3011.91 7085.06 3132.38 7191.98 3203.55 7330.57C3320.11 7558.67 3365.78 7781.68 3339.32 7993.44C3288.71 8398.26 3259.09 8607.51 3251.27 8615.32L3248.67 8617.93L2382.17 8656.44L2362.9 8290.38Z" fill="#FFC700"/>
<path d="M2414.36 8544.42L3189.79 8505.82C3209.37 8504.85 3228.56 8511.49 3243.35 8524.36C3258.14 8537.23 3267.37 8555.32 3269.12 8574.85L3625.82 12573.3C3626.77 12583.9 3625.47 12594.6 3622 12604.7C3618.53 12614.8 3612.97 12624 3605.69 12631.8C3598.4 12639.6 3589.56 12645.8 3579.73 12649.9C3569.9 12654.1 3559.31 12656.1 3548.65 12655.9L3245.7 12649.4C3229.04 12649.1 3212.96 12643.2 3199.95 12632.8C3186.93 12622.4 3177.7 12608 3173.69 12591.8L2594.95 10259.9C2591.16 10244.6 2582.73 10230.9 2570.82 10220.6C2558.91 10210.4 2544.1 10204.1 2528.45 10202.6C2512.8 10201.1 2497.08 10204.6 2483.46 10212.4C2469.84 10220.2 2458.99 10232.1 2452.42 10246.4L1355.67 12628.4C1348.23 12644.6 1335.32 12657.6 1319.22 12665.2C1303.12 12672.9 1284.86 12674.6 1267.62 12670.1L962.745 12590.5C943.874 12585.6 927.618 12573.7 917.357 12557.1C907.096 12540.5 903.621 12520.6 907.653 12501.5C1007.96 12028 1608.82 9316.26 2365.33 8565.67C2378.5 8552.79 2395.96 8545.22 2414.36 8544.42Z" fill="#2F2E41"/>
<path d="M3882.77 8993.36C3854.73 8984.72 3828.83 8970.26 3806.74 8950.94C3784.66 8931.62 3766.9 8907.86 3754.6 8881.22C3751.77 8875.01 3749.26 8868.66 3747.08 8862.18L2712.9 8608.75C2678.98 8600.27 2648.71 8581.05 2626.61 8553.97C2604.5 8526.88 2591.73 8493.38 2590.21 8458.45L2624.44 7328.55C2625.91 7279.92 2646.59 7233.85 2681.96 7200.43C2717.32 7167.01 2764.48 7148.96 2813.12 7150.24C2861.76 7151.52 2907.91 7172.01 2941.47 7207.24C2975.03 7242.47 2993.27 7289.56 2992.19 7338.2L2971.39 8269.08L3832.42 8617.99C3840.23 8612.93 3848.37 8608.41 3856.8 8604.47C3887.55 8590.22 3921.31 8583.66 3955.16 8585.37C3989.01 8587.08 4021.94 8597.01 4051.09 8614.29C4080.25 8631.57 4104.76 8655.69 4122.51 8684.56C4140.26 8713.44 4150.71 8746.2 4152.97 8780.01C4155.23 8813.83 4149.22 8847.69 4135.47 8878.66C4121.71 8909.64 4100.62 8936.8 4074.02 8957.81C4047.42 8978.81 4016.11 8993.02 3982.79 8999.22C3949.47 9005.41 3915.14 9003.4 3882.77 8993.36Z" fill="#A0616A"/>
<path d="M2514.14 7891.55C2505.21 7881.93 2498.47 7870.49 2494.37 7858.01C2490.27 7845.54 2488.91 7832.34 2490.37 7819.29L2541.63 7363.67C2539.25 7296.55 2563.59 7231.23 2609.3 7182.02C2655.01 7132.81 2718.37 7103.74 2785.48 7101.17C2852.6 7098.61 2917.99 7122.76 2967.32 7168.33C3016.66 7213.9 3045.91 7277.18 3048.66 7344.29L3132.08 7796.64C3134.46 7809.55 3134.03 7822.82 3130.82 7835.55C3127.61 7848.28 3121.69 7860.16 3113.47 7870.4C3105.25 7880.63 3094.92 7888.98 3083.19 7894.86C3071.45 7900.74 3058.59 7904.03 3045.47 7904.49L2584.38 7920.77C2571.26 7921.24 2558.19 7918.87 2546.07 7913.83C2533.94 7908.79 2523.05 7901.19 2514.14 7891.55Z" fill="#FFC700"/>
<path d="M1931.03 6967.87L1979.7 6810.57L2012.99 6987.11L2286.33 6979.87L2285.07 6805.82L2388.98 6977.59L2636.68 6922.84C2583.76 6852.33 2530.21 6780.72 2496.37 6697.6C2462.53 6614.49 2450.21 6517.02 2481.83 6432.88C2560.01 6224.87 2856.41 6283.08 3018.53 6281.31C3065.83 6280.8 3119.23 6277.39 3150.2 6238.72C3173.52 6209.61 3177.35 6167.95 3176.16 6129.45C3170.08 5931.17 3051.04 5742.02 2882.75 5663.19C2800.37 5625.26 2708.54 5612.82 2619.04 5627.47C2572.36 5634.85 2527.03 5649.12 2484.55 5669.83C2446.67 5688.33 2406.89 5732.4 2366.11 5731.21C2331.84 5730.2 2286.47 5694.51 2249.17 5688.41C2204.24 5681.47 2158.41 5683.07 2114.08 5693.12C2024.98 5712.98 1944.66 5761.05 1885.05 5830.17C1758.36 5977.38 1720.71 6194.31 1742.79 6394.02C1764.88 6593.72 1839.58 6781.54 1913.46 6966.11" fill="#2F2E41"/>
<path d="M15228.9 13231.5H18.965C13.9352 13231.5 9.11134 13229.5 5.55471 13226C1.99808 13222.4 0 13217.6 0 13212.6C0 13207.5 1.99808 13202.7 5.55471 13199.2C9.11134 13195.6 13.9352 13193.6 18.965 13193.6H15228.9C15233.9 13193.6 15238.8 13195.6 15242.3 13199.2C15245.9 13202.7 15247.9 13207.5 15247.9 13212.6C15247.9 13217.6 15245.9 13222.4 15242.3 13226C15238.8 13229.5 15233.9 13231.5 15228.9 13231.5Z" fill="url(#paint13_linear_37_44)"/>
<path d="M10172.9 5731.26C10164.4 5731.22 10155.9 5729.05 10148.4 5724.93C10140.9 5720.81 10134.5 5714.88 10129.9 5707.68C10125.2 5700.47 10122.4 5692.22 10121.8 5683.68C10121.1 5675.13 10122.6 5666.55 10126.1 5658.72L10185.4 5526.32C10103.7 5453.69 10051.6 5353.43 10039.2 5244.77C10026.8 5136.11 10054.9 5026.69 10118.2 4937.51C10181.5 4848.32 10275.5 4785.63 10382.2 4761.48C10488.8 4737.32 10600.7 4753.39 10696.2 4806.61C10791.8 4859.82 10864.3 4946.44 10899.9 5049.84C10935.5 5153.24 10931.7 5266.16 10889.2 5366.93C10846.7 5467.7 10768.5 5549.24 10669.6 5595.9C10570.7 5642.57 10458 5651.07 10353.2 5619.79L10201.8 5722.32C10193.3 5728.13 10183.2 5731.24 10172.9 5731.26ZM10479.1 4815.88C10400.2 4815.83 10323.3 4840.33 10259 4885.98C10194.6 4931.62 10146.1 4996.16 10120 5070.63C10094 5145.11 10091.8 5225.83 10113.7 5301.62C10135.6 5377.41 10180.6 5444.5 10242.3 5493.6L10261 5508.51L10197.2 5650.98L10343.7 5551.78L10358.1 5556.64C10410.4 5574.2 10465.9 5580.18 10520.7 5574.18C10575.5 5568.17 10628.3 5550.32 10675.5 5521.86C10722.8 5493.4 10763.2 5455.02 10794.1 5409.36C10825 5363.71 10845.7 5311.88 10854.6 5257.46C10863.4 5203.05 10860.4 5147.36 10845.6 5094.24C10830.8 5041.12 10804.7 4991.85 10769 4949.85C10733.3 4907.84 10688.8 4874.1 10638.8 4850.97C10588.8 4827.84 10534.3 4815.86 10479.1 4815.88Z" fill="url(#paint14_linear_37_44)"/>
<path d="M10479.1 5237.4C10513.2 5237.4 10540.8 5209.79 10540.8 5175.72C10540.8 5141.65 10513.2 5114.04 10479.1 5114.04C10445.1 5114.04 10417.5 5141.65 10417.5 5175.72C10417.5 5209.79 10445.1 5237.4 10479.1 5237.4Z" fill="url(#paint15_linear_37_44)"/>
<path d="M10304.4 5237.4C10338.4 5237.4 10366 5209.79 10366 5175.72C10366 5141.65 10338.4 5114.04 10304.4 5114.04C10270.3 5114.04 10242.7 5141.65 10242.7 5175.72C10242.7 5209.79 10270.3 5237.4 10304.4 5237.4Z" fill="url(#paint16_linear_37_44)"/>
<path d="M10653.9 5237.4C10688 5237.4 10715.6 5209.79 10715.6 5175.72C10715.6 5141.65 10688 5114.04 10653.9 5114.04C10619.8 5114.04 10592.2 5141.65 10592.2 5175.72C10592.2 5209.79 10619.8 5237.4 10653.9 5237.4Z" fill="url(#paint17_linear_37_44)"/>
</g>
<defs>
<linearGradient id="paint0_linear_37_44" x1="8154.08" y1="2424.37" x2="8154.08" y2="2835.84" gradientUnits="userSpaceOnUse">
<stop stop-color="#E050B0"/>
<stop offset="0.5" stop-color="#BA8FDB"/>
<stop offset="1" stop-color="#7ED7F7"/>
</linearGradient>
<linearGradient id="paint1_linear_37_44" x1="8171.93" y1="2218.65" x2="8171.93" y2="3042" gradientUnits="userSpaceOnUse">
<stop stop-color="#E050B0"/>
<stop offset="0.5" stop-color="#BA8FDB"/>
<stop offset="1" stop-color="#7ED7F7"/>
</linearGradient>
<linearGradient id="paint2_linear_37_44" x1="8153.16" y1="7599.93" x2="8153.16" y2="7942.64" gradientUnits="userSpaceOnUse">
<stop stop-color="#E050B0"/>
<stop offset="0.5" stop-color="#BA8FDB"/>
<stop offset="1" stop-color="#7ED7F7"/>
</linearGradient>
<linearGradient id="paint3_linear_37_44" x1="8581.85" y1="7496.88" x2="8581.85" y2="7668.32" gradientUnits="userSpaceOnUse">
<stop stop-color="#E050B0"/>
<stop offset="0.5" stop-color="#BA8FDB"/>
<stop offset="1" stop-color="#7ED7F7"/>
</linearGradient>
<linearGradient id="paint4_linear_37_44" x1="8290.4" y1="7788.36" x2="8290.4" y2="7959.8" gradientUnits="userSpaceOnUse">
<stop stop-color="#E050B0"/>
<stop offset="0.5" stop-color="#BA8FDB"/>
<stop offset="1" stop-color="#7ED7F7"/>
</linearGradient>
<linearGradient id="paint5_linear_37_44" x1="8050.38" y1="7548.33" x2="8050.38" y2="7719.77" gradientUnits="userSpaceOnUse">
<stop stop-color="#E050B0"/>
<stop offset="0.5" stop-color="#BA8FDB"/>
<stop offset="1" stop-color="#7ED7F7"/>
</linearGradient>
<linearGradient id="paint6_linear_37_44" x1="7724.64" y1="7874.07" x2="7724.64" y2="8045.51" gradientUnits="userSpaceOnUse">
<stop stop-color="#E050B0"/>
<stop offset="0.5" stop-color="#BA8FDB"/>
<stop offset="1" stop-color="#7ED7F7"/>
</linearGradient>
<linearGradient id="paint7_linear_37_44" x1="10618.7" y1="9935.33" x2="10618.7" y2="10689.7" gradientUnits="userSpaceOnUse">
<stop stop-color="#E050B0"/>
<stop offset="0.5" stop-color="#BA8FDB"/>
<stop offset="1" stop-color="#7ED7F7"/>
</linearGradient>
<linearGradient id="paint8_linear_37_44" x1="10618.7" y1="10072.5" x2="10618.7" y2="10381.1" gradientUnits="userSpaceOnUse">
<stop stop-color="#E050B0"/>
<stop offset="0.5" stop-color="#BA8FDB"/>
<stop offset="1" stop-color="#7ED7F7"/>
</linearGradient>
<linearGradient id="paint9_linear_37_44" x1="4097.41" y1="3218.01" x2="4097.41" y2="3749.03" gradientUnits="userSpaceOnUse">
<stop stop-color="#7ED7F7"/>
<stop offset="0.5" stop-color="#BA8FDB"/>
<stop offset="1" stop-color="#E050B0"/>
</linearGradient>
<linearGradient id="paint10_linear_37_44" x1="14543.5" y1="5773" x2="14543.5" y2="6304.02" gradientUnits="userSpaceOnUse">
<stop stop-color="#7ED7F7"/>
<stop offset="0.5" stop-color="#BA8FDB"/>
<stop offset="1" stop-color="#E050B0"/>
</linearGradient>
<linearGradient id="paint11_linear_37_44" x1="14543.5" y1="10860" x2="14543.5" y2="11391" gradientUnits="userSpaceOnUse">
<stop stop-color="#7ED7F7"/>
<stop offset="0.5" stop-color="#BA8FDB"/>
<stop offset="1" stop-color="#E050B0"/>
</linearGradient>
<linearGradient id="paint12_linear_37_44" x1="4096.51" y1="8377" x2="4096.51" y2="8908.02" gradientUnits="userSpaceOnUse">
<stop stop-color="#7ED7F7"/>
<stop offset="0.5" stop-color="#BA8FDB"/>
<stop offset="1" stop-color="#E050B0"/>
</linearGradient>
<linearGradient id="paint13_linear_37_44" x1="7623.93" y1="13193.6" x2="7623.93" y2="13231.5" gradientUnits="userSpaceOnUse">
<stop stop-color="#E050B0"/>
<stop offset="0.5" stop-color="#BA8FDB"/>
<stop offset="1" stop-color="#7ED7F7"/>
</linearGradient>
<linearGradient id="paint14_linear_37_44" x1="10480.2" y1="4750.51" x2="10480.2" y2="5731.26" gradientUnits="userSpaceOnUse">
<stop stop-color="#E050B0"/>
<stop offset="0.5" stop-color="#BA8FDB"/>
<stop offset="1" stop-color="#7ED7F7"/>
</linearGradient>
<linearGradient id="paint15_linear_37_44" x1="10479.1" y1="5114.04" x2="10479.1" y2="5237.4" gradientUnits="userSpaceOnUse">
<stop stop-color="#E050B0"/>
<stop offset="0.5" stop-color="#BA8FDB"/>
<stop offset="1" stop-color="#7ED7F7"/>
</linearGradient>
<linearGradient id="paint16_linear_37_44" x1="10304.4" y1="5114.04" x2="10304.4" y2="5237.4" gradientUnits="userSpaceOnUse">
<stop stop-color="#E050B0"/>
<stop offset="0.5" stop-color="#BA8FDB"/>
<stop offset="1" stop-color="#7ED7F7"/>
</linearGradient>
<linearGradient id="paint17_linear_37_44" x1="10653.9" y1="5114.04" x2="10653.9" y2="5237.4" gradientUnits="userSpaceOnUse">
<stop stop-color="#E050B0"/>
<stop offset="0.5" stop-color="#BA8FDB"/>
<stop offset="1" stop-color="#7ED7F7"/>
</linearGradient>
<clipPath id="clip0_37_44">
<rect width="15247.9" height="13231.6" fill="white"/>
</clipPath>
</defs>
</svg>
