<svg width="817" height="440" viewBox="0 0 817 440" fill="none" xmlns="http://www.w3.org/2000/svg">
<path d="M571 226C571 343.084 474.906 438 346.5 438C218.094 438 124 343.084 124 226C124 108.916 218.094 14 346.5 14C474.906 14 571 108.916 571 226Z" fill="#FEFEFE"/>
<path d="M148.78 185.766C148.78 185.766 141.591 255.001 197.602 311.876C253.613 368.752 339.637 387.21 409.045 403.866C478.452 420.523 537.315 393.494 553.122 339.757C568.929 286.02 517.671 260.43 497.427 192.54C477.183 124.65 482.627 104.465 426.597 55.0518C370.566 5.63846 271.203 12.466 211.569 69.7734C151.935 127.081 148.78 185.766 148.78 185.766Z" fill="#FFC700"/>
<path opacity="0.7" d="M148.19 183.502C148.19 183.502 141.051 251.711 196.635 307.74C252.218 363.769 337.591 381.948 406.472 398.354C475.354 414.759 533.773 388.127 549.464 335.185C565.155 282.244 514.286 257.036 494.2 190.154C474.113 123.271 479.517 103.385 423.913 54.7078C368.31 6.0303 269.698 12.7629 210.511 69.2247C151.325 125.686 148.19 183.502 148.19 183.502Z" fill="white"/>
<path d="M221.93 75.8702L357.492 253.476L519.238 126.104" stroke="#263238" stroke-linecap="round" stroke-linejoin="round"/>
<path d="M146 269L346.355 258.372L199.996 203.309" stroke="#263238" stroke-linecap="round" stroke-linejoin="round"/>
<path d="M374.664 53.3728L348.547 257.764L519.858 286.516" stroke="#263238" stroke-linecap="round" stroke-linejoin="round"/>
<path d="M192 402L335.089 253.67L485.785 360.476" stroke="#263238" stroke-linecap="round" stroke-linejoin="round"/>
<path d="M116.744 237.258C110.861 237.309 105.125 239.092 100.262 242.381C95.399 245.671 91.6267 250.319 89.4223 255.739C87.2179 261.158 86.6803 267.105 87.8777 272.827C89.0751 278.55 91.9536 283.791 96.1491 287.887C100.345 291.984 105.669 294.753 111.449 295.843C117.228 296.933 123.204 296.296 128.619 294.012C134.035 291.729 138.647 287.901 141.873 283.013C145.1 278.125 146.794 272.396 146.744 266.551C146.666 258.717 143.464 251.233 137.84 245.742C132.216 240.25 124.629 237.199 116.744 237.258Z" fill="#263238"/>
<path fill-rule="evenodd" clip-rule="evenodd" d="M135.206 265.888C134.865 261.638 132.926 257.672 129.775 254.779C126.623 251.886 122.49 250.279 118.198 250.278C113.907 250.277 109.773 251.882 106.619 254.774C103.465 257.665 101.524 261.631 101.181 265.881C101.183 266.123 101.185 266.365 101.187 266.619C101.211 269.677 102.08 272.67 103.7 275.27L100.706 284.295L110.116 281.234C112.713 282.614 115.625 283.303 118.57 283.234C121.514 283.164 124.391 282.339 126.919 280.838C129.448 279.337 131.542 277.212 132.999 274.668C134.456 272.125 135.226 269.25 135.234 266.324C135.22 266.179 135.219 266.034 135.206 265.888ZM118.266 280.57C115.467 280.597 112.722 279.808 110.37 278.301L104.888 280.092L106.634 274.833C104.837 272.451 103.855 269.561 103.832 266.584C103.828 266.127 103.848 265.67 103.893 265.215C104.171 261.64 105.797 258.301 108.446 255.865C111.094 253.429 114.571 252.077 118.18 252.077C121.789 252.078 125.264 253.433 127.911 255.87C130.558 258.307 132.182 261.647 132.457 265.222C132.46 265.585 132.463 265.948 132.466 266.324C132.483 270.076 131.003 273.682 128.351 276.354C125.699 279.026 122.091 280.546 118.314 280.581L118.266 280.57Z" fill="white"/>
<path fill-rule="evenodd" clip-rule="evenodd" d="M126.036 269.783C125.607 269.581 123.587 268.593 123.16 268.476C122.732 268.358 122.5 268.276 122.223 268.69C121.946 269.104 121.149 270.031 120.92 270.312C120.691 270.593 120.435 270.619 120.007 270.417C118.772 269.947 117.631 269.264 116.637 268.399C115.717 267.585 114.928 266.636 114.296 265.585C114.049 265.175 114.291 264.943 114.472 264.736C114.653 264.528 114.882 264.26 115.087 264.016L115.244 263.821C115.34 263.661 115.424 263.494 115.496 263.322C115.556 263.212 115.586 263.089 115.585 262.964C115.584 262.839 115.551 262.716 115.489 262.607C115.378 262.402 114.531 260.375 114.171 259.554C113.81 258.734 113.47 258.882 113.226 258.884C112.982 258.886 112.702 258.889 112.422 258.891C112.211 258.897 112.004 258.945 111.814 259.035C111.624 259.124 111.455 259.252 111.317 259.41C110.848 259.854 110.479 260.39 110.232 260.985C109.985 261.579 109.867 262.219 109.884 262.862C109.894 263.338 109.972 263.81 110.115 264.265C110.45 265.289 110.961 266.248 111.627 267.098C111.837 267.363 114.556 271.639 118.812 273.249C123.069 274.86 123.064 274.315 123.831 274.235C124.413 274.12 124.963 273.883 125.445 273.54C125.928 273.198 126.332 272.758 126.63 272.249C126.891 271.633 126.969 270.956 126.857 270.297C126.721 270.116 126.403 269.986 126.036 269.783Z" fill="white"/>
<path d="M202.386 25.2712C194.539 25.4919 187.093 28.6598 181.646 34.095C176.199 39.5301 173.184 46.7994 173.25 54.3425C173.315 61.8857 176.455 69.1016 181.996 74.4414C187.537 79.7813 195.036 82.8196 202.886 82.9043C206.875 82.9473 210.834 82.2249 214.531 80.7795C218.228 79.334 221.587 77.1945 224.414 74.4862C227.24 71.778 229.476 68.5554 230.991 65.0072C232.506 61.459 233.269 57.6566 233.236 53.8225C233.203 49.9884 232.374 46.1997 230.798 42.6783C229.221 39.1569 226.93 35.9736 224.057 33.3147C221.184 30.6559 217.788 28.575 214.066 27.1938C210.345 25.8127 206.374 25.159 202.386 25.2712Z" fill="#263238"/>
<path d="M222.934 44.5174C222.711 43.7041 222.266 42.963 221.645 42.3705C221.024 41.778 220.25 41.3557 219.402 41.1471C216.287 40.3712 203.864 40.4789 203.864 40.4789C203.864 40.4789 191.442 40.5866 188.353 41.4163C187.51 41.6443 186.744 42.0814 186.132 42.6837C185.521 43.286 185.085 44.0322 184.868 44.8474C183.823 50.9754 183.878 57.2292 185.028 63.3381C185.261 64.1484 185.711 64.8858 186.333 65.477C186.954 66.0683 187.726 66.4927 188.572 66.7083C191.675 67.4844 204.098 67.3767 204.098 67.3767C204.098 67.3767 216.52 67.269 219.622 66.4391C220.462 66.2093 221.225 65.7714 221.835 65.1693C222.444 64.5672 222.878 63.8219 223.094 63.0081C224.155 56.8814 224.101 50.6248 222.934 44.5174Z" fill="white"/>
<path d="M199.976 59.6424L199.878 48.2834L210.31 53.8729L199.976 59.6424Z" fill="#263238"/>
<path d="M192.245 378.271C186.066 378.324 180.039 380.009 174.927 383.112C169.815 386.215 165.848 390.597 163.527 395.704C161.207 400.811 160.636 406.413 161.889 411.801C163.141 417.19 166.16 422.124 170.564 425.979C174.967 429.834 180.557 432.437 186.628 433.458C192.698 434.48 198.976 433.874 204.667 431.718C210.358 429.561 215.207 425.951 218.6 421.344C221.994 416.737 223.78 411.34 223.732 405.835C223.668 398.452 220.315 391.401 214.41 386.232C208.505 381.063 200.532 378.199 192.245 378.271Z" fill="#263238"/>
<path d="M187.378 424L195.463 423.93L195.306 405.898L200.94 405.85L201.493 399.808L195.254 399.862L195.224 396.382C195.212 394.956 195.519 394.397 197.072 394.383L201.446 394.345L201.391 388.074L195.797 388.122C189.782 388.174 187.089 390.564 187.128 395.078L187.169 399.888L182.961 399.925L183.014 406.014L187.222 405.977L187.378 424Z" fill="white"/>
<path d="M505.761 338.294C499.283 338.35 492.964 340.176 487.605 343.543C482.245 346.909 478.085 351.664 475.651 357.207C473.217 362.749 472.619 368.829 473.931 374.678C475.243 380.527 478.407 385.883 483.023 390.067C487.639 394.251 493.499 397.076 499.863 398.184C506.226 399.292 512.806 398.633 518.772 396.292C524.737 393.95 529.819 390.031 533.374 385.029C536.93 380.028 538.8 374.169 538.747 368.194C538.669 360.189 535.153 352.546 528.969 346.941C522.785 341.335 514.439 338.226 505.761 338.294Z" fill="#263238"/>
<path d="M505.893 354.071C510.991 354.026 511.595 354.02 513.608 354.101C514.817 354.105 516.017 354.299 517.155 354.676C517.98 354.955 518.73 355.396 519.352 355.968C519.992 356.53 520.484 357.22 520.791 357.984C521.227 359.025 521.459 360.129 521.476 361.245C521.586 363.101 521.618 363.719 521.656 368.347C521.695 372.975 521.7 373.606 521.595 375.464C521.597 376.58 521.383 377.688 520.965 378.736C520.674 379.504 520.193 380.199 519.56 380.766C518.951 381.357 518.208 381.816 517.384 382.11C516.253 382.506 515.057 382.722 513.848 382.748C511.836 382.853 511.233 382.87 506.135 382.916C501.037 382.962 500.433 382.967 498.42 382.886C497.211 382.881 496.012 382.686 494.873 382.312C494.045 382.032 493.294 381.587 492.675 381.007C492.033 380.452 491.541 379.766 491.237 379.003C490.801 377.962 490.569 376.858 490.552 375.742C490.442 373.887 490.411 373.33 490.372 368.628C490.332 363.926 490.328 363.381 490.433 361.524C490.431 360.408 490.645 359.3 491.063 358.251C491.357 357.481 491.838 356.783 492.468 356.209C493.081 355.626 493.823 355.172 494.644 354.878C495.775 354.483 496.971 354.267 498.18 354.24C500.192 354.135 500.795 354.117 505.893 354.071ZM505.867 350.903C500.688 350.95 500.031 350.956 498.006 351.073C496.45 351.107 494.911 351.38 493.451 351.881C492.187 352.344 491.041 353.045 490.087 353.941C489.133 354.836 488.393 355.905 487.914 357.079C487.373 358.451 487.086 359.897 487.064 361.356C486.986 363.238 486.964 363.832 487.004 368.609C487.044 373.385 487.049 373.992 487.185 375.871C487.232 377.33 487.543 378.77 488.107 380.133C488.598 381.31 489.353 382.377 490.322 383.266C491.291 384.155 492.452 384.846 493.731 385.292C495.217 385.791 496.784 386.053 498.366 386.067C500.393 386.136 501.05 386.142 506.228 386.096C511.407 386.049 512.064 386.043 514.089 385.926C515.671 385.883 517.233 385.593 518.711 385.068C519.975 384.605 521.121 383.904 522.075 383.009C523.028 382.113 523.769 381.044 524.248 379.87C524.789 378.498 525.076 377.052 525.098 375.593C525.176 373.711 525.198 373.117 525.158 368.328C525.118 363.539 525.113 362.958 524.976 361.078C524.93 359.619 524.619 358.179 524.055 356.816C523.556 355.651 522.798 354.596 521.829 353.718C520.861 352.84 519.703 352.159 518.431 351.719C516.945 351.22 515.378 350.958 513.796 350.944C511.77 350.875 511.112 350.869 505.934 350.915" fill="white"/>
<path d="M505.939 359.454C503.998 359.469 502.105 360.015 500.498 361.022C498.892 362.03 497.644 363.454 496.914 365.114C496.184 366.774 496.004 368.596 496.397 370.348C496.79 372.1 497.737 373.705 499.12 374.958C500.503 376.212 502.259 377.058 504.165 377.39C506.072 377.721 508.043 377.523 509.83 376.821C511.617 376.119 513.139 374.944 514.203 373.445C515.267 371.945 515.825 370.19 515.808 368.4C515.788 366.004 514.737 363.715 512.886 362.038C511.035 360.36 508.536 359.431 505.939 359.454ZM506.063 374.303C504.805 374.315 503.573 373.982 502.522 373.347C501.471 372.712 500.648 371.803 500.158 370.735C499.668 369.668 499.532 368.49 499.768 367.35C500.004 366.21 500.6 365.159 501.483 364.331C502.365 363.502 503.494 362.934 504.725 362.696C505.957 362.459 507.236 362.564 508.402 362.997C509.568 363.431 510.567 364.174 511.274 365.132C511.981 366.09 512.363 367.221 512.373 368.381C512.386 369.936 511.728 371.434 510.545 372.545C509.362 373.656 507.75 374.288 506.063 374.303Z" fill="white"/>
<path d="M518.413 358.983C518.419 359.402 518.29 359.814 518.043 360.166C517.795 360.518 517.44 360.794 517.022 360.96C516.605 361.126 516.144 361.173 515.697 361.097C515.25 361.021 514.839 360.824 514.514 360.531C514.189 360.239 513.966 359.864 513.873 359.454C513.78 359.044 513.821 358.617 513.991 358.228C514.161 357.84 514.453 357.506 514.828 357.269C515.204 357.033 515.647 356.904 516.101 356.9C516.707 356.895 517.291 357.111 517.724 357.501C518.157 357.891 518.405 358.424 518.413 358.983Z" fill="white"/>
<path d="M534.681 130.646C526.161 130.72 517.961 127.4 511.885 121.417C505.808 115.433 502.353 107.276 502.279 98.7407C502.205 90.2051 505.518 81.9897 511.49 75.9018C517.462 69.814 525.603 66.3524 534.123 66.2785C542.642 66.2047 550.842 69.5246 556.919 75.508C562.995 81.4914 566.451 89.6481 566.525 98.1838C566.599 106.719 563.285 114.935 557.313 121.023C551.341 127.111 543.2 130.572 534.681 130.646Z" fill="#263238" stroke="#263238" stroke-linecap="round" stroke-linejoin="round"/>
<path d="M517.342 109.051C520.969 111.084 525.178 112.144 529.467 112.104C544.112 111.977 552.306 100.875 551.742 90.9896C553.263 89.9763 554.574 88.7344 555.616 87.3199C554.181 87.9005 552.658 88.2861 551.095 88.4638C552.734 87.5706 553.954 86.1782 554.528 84.5457C552.989 85.3886 551.3 85.9916 549.534 86.3287C548.335 85.2095 546.754 84.4745 545.037 84.2378C543.32 84.0011 541.561 84.2758 540.035 85.0195C538.508 85.7631 537.299 86.9341 536.594 88.3509C535.889 89.7677 535.727 91.3513 536.135 92.856C532.996 92.7453 529.92 92.047 527.106 90.8064C524.292 89.5658 521.805 87.8109 519.805 85.6557C518.809 87.212 518.516 89.0467 518.984 90.7864C519.453 92.5261 520.648 94.04 522.327 95.02C521.075 94.9967 519.848 94.7092 518.746 94.1812C518.746 95.8148 519.383 97.3965 520.548 98.6559C521.713 99.9152 523.334 100.774 525.133 101.085C523.977 101.378 522.761 101.427 521.58 101.229C522.094 102.623 523.085 103.838 524.415 104.704C525.745 105.569 527.346 106.041 528.994 106.053C525.703 108.382 521.515 109.46 517.342 109.051Z" fill="white"/>
<path d="M189.138 164.265C183.573 164.317 178.145 165.966 173.542 169.002C168.939 172.038 165.366 176.326 163.276 181.323C161.186 186.319 160.673 191.8 161.8 197.073C162.928 202.346 165.647 207.174 169.612 210.945C173.578 214.717 178.612 217.264 184.079 218.263C189.545 219.263 195.198 218.67 200.324 216.56C205.449 214.451 209.815 210.918 212.871 206.411C215.927 201.903 217.536 196.622 217.493 191.235C217.427 184.014 214.405 177.119 209.089 172.063C203.773 167.007 196.598 164.202 189.138 164.265Z" fill="#808080"/>
<path d="M181.092 184.44L174.901 184.498L175.056 203.847L181.247 203.789L181.092 184.44Z" fill="white"/>
<path d="M177.947 181.94C178.679 181.938 179.395 181.727 180.003 181.331C180.611 180.936 181.085 180.375 181.364 179.72C181.643 179.064 181.714 178.343 181.569 177.649C181.425 176.955 181.07 176.319 180.551 175.821C180.031 175.322 179.37 174.985 178.652 174.852C177.933 174.718 177.189 174.794 176.515 175.071C175.84 175.347 175.265 175.81 174.863 176.403C174.46 176.995 174.248 177.69 174.254 178.398C174.256 178.866 174.353 179.329 174.539 179.76C174.726 180.191 174.998 180.582 175.341 180.911C175.684 181.24 176.091 181.5 176.538 181.676C176.985 181.853 177.464 181.942 177.947 181.94Z" fill="white"/>
<path d="M191.066 193.548C191.044 190.82 192.317 189.196 194.799 189.173C197.281 189.15 198.17 190.696 198.192 193.48L198.273 203.628L204.435 203.57L204.337 191.359C204.296 186.186 201.239 183.699 196.975 183.739C195.771 183.735 194.586 184.034 193.536 184.606C192.486 185.179 191.607 186.005 190.985 187.004L190.964 184.418L185.021 184.474L185.176 203.822L191.119 203.766L191.066 193.548Z" fill="white"/>
<path d="M539.875 311.9C536.529 311.93 533.21 311.344 530.109 310.174C527.007 309.005 524.184 307.275 521.799 305.083C519.415 302.891 517.516 300.281 516.212 297.401C514.907 294.521 514.223 291.428 514.197 288.298C514.145 281.977 516.779 275.89 521.521 271.377C526.263 266.864 532.723 264.293 539.482 264.232C546.24 264.17 552.742 266.623 557.557 271.049C562.373 275.475 565.108 281.513 565.16 287.834C565.186 290.964 564.552 294.069 563.296 296.973C562.039 299.876 560.184 302.52 557.836 304.755C555.488 306.99 552.693 308.771 549.612 309.997C546.53 311.223 543.221 311.869 539.875 311.9Z" fill="#808080"/>
<path d="M536.008 297.133C536.741 296.997 537.432 296.705 538.027 296.28C538.535 295.916 538.964 295.463 539.29 294.946C539.821 294.147 540.092 293.221 540.07 292.281C540.087 291.417 539.837 290.567 539.349 289.833C538.852 289.142 538.121 288.628 537.273 288.374C537.789 288.144 538.25 287.82 538.629 287.42C539.203 286.71 539.489 285.833 539.437 284.946C539.452 284.034 539.154 283.143 538.587 282.403C538.019 281.788 537.301 281.309 536.494 281.008C535.687 280.706 534.814 280.59 533.948 280.669L525.31 280.748L525.447 297.432L533.461 297.359C534.316 297.368 535.17 297.292 536.008 297.133ZM528.888 283.612L532.774 283.576C533.489 283.55 534.204 283.632 534.891 283.819C535.207 283.942 535.472 284.158 535.646 284.433C535.821 284.708 535.895 285.029 535.859 285.348C535.893 285.632 535.845 285.92 535.719 286.181C535.594 286.442 535.396 286.667 535.145 286.832C534.571 287.131 533.92 287.277 533.263 287.254L528.919 287.294L528.888 283.612ZM528.978 294.527L528.941 290.071L533.337 290.031C533.945 290.001 534.553 290.089 535.123 290.288C535.491 290.437 535.801 290.689 536.009 291.009C536.217 291.33 536.313 291.703 536.285 292.077C536.335 292.495 536.251 292.919 536.043 293.292C535.835 293.666 535.513 293.973 535.117 294.174C534.546 294.4 533.929 294.507 533.31 294.488L528.978 294.527Z" fill="white"/>
<path d="M543.047 296.199C544.367 297.187 546.018 297.708 547.71 297.67C548.63 297.717 549.551 297.576 550.409 297.258C551.266 296.939 552.04 296.45 552.677 295.825C553.345 295.226 553.786 294.439 553.932 293.585L550.403 293.617C550.235 293.942 549.999 294.232 549.709 294.47C549.164 294.873 548.484 295.082 547.79 295.059C547.119 295.083 546.455 294.927 545.875 294.612C545.423 294.328 545.057 293.94 544.812 293.485C544.567 293.03 544.452 292.524 544.478 292.015L554.097 291.927C554.126 291.107 554.085 290.287 553.975 289.473C553.821 288.558 553.452 287.686 552.896 286.921C552.328 286.129 551.532 285.504 550.6 285.118C549.616 284.731 548.555 284.542 547.487 284.562C546.615 284.539 545.747 284.682 544.936 284.985C544.126 285.288 543.39 285.742 542.774 286.322C542.157 286.993 541.688 287.772 541.393 288.613C541.098 289.455 540.984 290.342 541.056 291.224C540.953 292.141 541.08 293.068 541.425 293.932C541.77 294.795 542.326 295.571 543.047 296.199ZM545.451 287.954C545.723 287.708 546.046 287.517 546.4 287.393C546.754 287.268 547.131 287.214 547.509 287.232C548.257 287.206 548.988 287.437 549.566 287.881C549.854 288.129 550.086 288.429 550.246 288.763C550.407 289.098 550.493 289.46 550.499 289.827L544.549 289.881C544.62 289.165 544.936 288.489 545.451 287.954Z" fill="white"/>
<path d="M551.118 281.467L543.346 281.537L543.36 283.23L551.132 283.159L551.118 281.467Z" fill="white"/>
<path d="M375.224 53.7325C367.326 53.8035 359.729 51.0551 354.103 46.0919C348.477 41.1288 345.283 34.3575 345.224 27.2676C345.164 20.1777 348.245 13.35 353.787 8.2865C359.329 3.22302 366.879 0.33852 374.776 0.267568C382.674 0.196615 390.271 2.94502 395.897 7.90816C401.523 12.8713 404.717 19.6426 404.776 26.7325C404.836 33.8224 401.755 40.6501 396.213 45.7136C390.671 50.7771 383.121 53.6616 375.224 53.7325Z" fill="#808080"/>
<path fill-rule="evenodd" clip-rule="evenodd" d="M392.347 34.1275C391.995 33.9556 391.618 33.8339 391.227 33.7664C389.386 33.2033 387.774 32.1397 386.601 30.715C385.905 29.9496 385.345 29.0871 384.941 28.1593C384.851 27.9911 384.803 27.8058 384.801 27.6176C384.799 27.4294 384.844 27.2433 384.932 27.0735C385.344 26.6254 385.891 26.3 386.503 26.1383C387.276 25.9236 387.996 25.5715 388.623 25.1021C388.755 25.0004 388.861 24.8726 388.933 24.7281C388.941 24.6872 388.941 24.6452 388.932 24.6044C389.005 24.4364 389.003 24.2487 388.927 24.0821C388.758 23.7971 388.496 23.5687 388.178 23.429C387.986 23.3252 387.771 23.2625 387.549 23.2454C387.328 23.2284 387.104 23.2575 386.896 23.3305C386.531 23.4662 386.153 23.5708 385.767 23.6431C385.342 23.7379 384.899 23.7419 384.472 23.6547C384.472 23.6547 384.471 23.5035 384.47 23.3936C384.464 22.6651 384.457 21.9228 384.451 21.1531C384.522 19.9609 384.483 18.7655 384.332 17.5801C383.846 15.5545 382.529 13.7829 380.657 12.6369C379.326 11.8104 377.781 11.3218 376.179 11.22C375.643 11.2248 375.122 11.2295 374.586 11.2343C372.67 11.1758 370.78 11.6644 369.173 12.6333C367.566 13.6022 366.322 15.0043 365.608 16.6486C365.11 18.0496 364.959 19.5357 365.168 20.9964C365.267 21.9462 365.3 22.9009 365.266 23.8548C364.774 23.938 364.271 23.9425 363.778 23.8682C363.42 23.8714 363.032 23.6824 362.599 23.5763C362.399 23.5452 362.195 23.5521 361.998 23.5964C361.801 23.6407 361.616 23.7216 361.455 23.834C361.281 23.9201 361.133 24.045 361.025 24.1972C360.917 24.3495 360.852 24.5243 360.837 24.7056L360.837 24.7881C360.887 25.0176 361.026 25.222 361.229 25.3619L361.633 25.6332C362.395 26.028 363.201 26.3434 364.038 26.5739C364.281 26.6448 364.504 26.7645 364.691 26.9244C364.878 27.0844 365.024 27.2806 365.118 27.4989C365.184 28.0948 365.038 28.6946 364.701 29.2072C363.877 30.7268 362.661 32.0362 361.159 33.0193C360.344 33.5367 359.441 33.9257 358.489 34.1705C358.115 34.2311 357.778 34.4149 357.54 34.6876L357.541 34.7839C357.502 34.9011 357.496 35.0254 357.523 35.1453C357.55 35.2652 357.609 35.3768 357.696 35.4698C357.806 35.591 357.944 35.6883 358.1 35.7548C358.878 36.1165 359.707 36.3773 360.563 36.53C361.072 36.5968 361.572 36.712 362.055 36.874L362.222 37.2574C362.374 37.6684 362.438 38.1352 362.606 38.6286C362.633 38.6975 362.679 38.7588 362.739 38.8064C362.8 38.854 362.872 38.8864 362.95 38.9004C363.137 38.9698 363.346 38.9679 363.531 38.8952C364.801 38.5972 366.123 38.5432 367.416 38.7366C368.748 39.1793 370.006 39.7927 371.153 40.5588C372.039 41.1178 373.069 41.4501 374.139 41.5217C374.963 41.5629 375.788 41.5555 376.611 41.4995C377.301 41.4302 377.967 41.2174 378.556 40.8771C379.875 40.1642 381.03 39.3291 382.32 38.7814C382.807 38.6718 383.307 38.6166 383.808 38.6168C384.877 38.5703 385.948 38.6066 387.01 38.7255C387.027 38.7318 387.044 38.7349 387.062 38.7348C387.08 38.7346 387.098 38.7311 387.114 38.7245C387.258 38.7073 387.389 38.6427 387.485 38.5425C387.535 38.4812 387.57 38.4105 387.588 38.3354C387.586 38.1842 387.587 38.2254 387.588 38.3354C387.594 38.3082 387.594 38.28 387.587 38.2529C387.697 37.7619 387.905 37.2939 388.201 36.8728C388.289 36.8002 388.393 36.7451 388.505 36.711C388.618 36.6769 388.736 36.6645 388.854 36.6745C389.722 36.54 390.57 36.3109 391.38 35.9919C391.78 35.8671 392.135 35.6398 392.401 35.3367C392.459 35.2613 392.498 35.1759 392.518 35.0858C392.539 34.9957 392.538 34.9029 392.518 34.8129C392.498 34.7229 392.458 34.6378 392.401 34.5627C392.343 34.4876 392.27 34.4242 392.185 34.3764L392.347 34.1275Z" fill="white"/>
<path d="M420.214 83.4329L263.938 84.7878C256.108 84.8557 249.809 90.5653 249.87 97.5407L252.433 393.248C252.494 400.224 258.89 405.823 266.72 405.755L422.996 404.401C430.826 404.333 437.125 398.623 437.064 391.648L434.501 95.94C434.44 88.9646 428.044 83.3651 420.214 83.4329Z" fill="#263238"/>
<mask id="mask0_5_906" style="mask-type:luminance" maskUnits="userSpaceOnUse" x="249" y="83" width="189" height="323">
<path d="M420.214 83.4329L263.938 84.7878C256.108 84.8557 249.809 90.5653 249.87 97.5407L252.433 393.248C252.494 400.224 258.89 405.823 266.72 405.755L422.996 404.401C430.826 404.333 437.125 398.623 437.064 391.648L434.501 95.94C434.44 88.9646 428.044 83.3651 420.214 83.4329Z" fill="white"/>
</mask>
<g mask="url(#mask0_5_906)">
<path opacity="0.2" d="M265.666 84.7728C261.447 84.8094 257.415 86.3373 254.455 89.0205C251.495 91.7036 249.85 95.3223 249.883 99.0802L252.42 391.7C252.435 393.774 252.963 395.819 253.964 397.689C254.966 399.559 256.418 401.21 258.216 402.523L363.181 83.9274L265.666 84.7728Z" fill="white"/>
<path d="M351.041 395.734C351.032 394.627 350.654 393.549 349.956 392.635C349.257 391.721 348.27 391.012 347.119 390.599C345.967 390.186 344.703 390.087 343.487 390.314C342.271 390.541 341.157 391.084 340.286 391.875C339.415 392.666 338.827 393.668 338.595 394.756C338.363 395.843 338.499 396.967 338.984 397.985C339.47 399.003 340.283 399.868 341.322 400.473C342.362 401.078 343.579 401.394 344.821 401.381C345.645 401.374 346.46 401.222 347.219 400.934C347.977 400.647 348.665 400.229 349.243 399.704C349.821 399.179 350.277 398.559 350.585 397.878C350.894 397.196 351.049 396.468 351.041 395.734Z" stroke="white" stroke-linecap="round" stroke-linejoin="round"/>
</g>
<path d="M420.214 83.4329L263.938 84.7878C256.108 84.8557 249.809 90.5653 249.87 97.5407L252.433 393.248C252.494 400.224 258.89 405.823 266.72 405.755L422.996 404.401C430.826 404.333 437.125 398.623 437.064 391.648L434.501 95.94C434.44 88.9646 428.044 83.3651 420.214 83.4329Z" stroke="#263238" stroke-linecap="round" stroke-linejoin="round"/>
<path d="M426.359 105.179L258.151 106.638L260.579 386.758L428.787 385.3L426.359 105.179Z" fill="#FFC700" stroke="#263238" stroke-linecap="round" stroke-linejoin="round"/>
<path d="M341.551 329.356C384.147 328.987 418.411 297.926 418.082 259.979C417.753 222.033 382.956 191.571 340.359 191.94C297.763 192.309 263.499 223.37 263.828 261.317C264.157 299.263 298.954 329.725 341.551 329.356Z" fill="#263238"/>
<path d="M421.514 138.843L264.262 140.206L264.538 172.103L421.791 170.739L421.514 138.843Z" fill="white"/>
<path d="M423.33 348.272L266.078 349.635L266.354 381.532L423.606 380.169L423.33 348.272Z" fill="white"/>
<path d="M423.234 337.182L265.981 338.545L265.993 339.928L423.246 338.565L423.234 337.182Z" fill="white"/>
<path d="M423.288 343.418L266.035 344.782L266.047 346.165L423.3 344.801L423.288 343.418Z" fill="white"/>
<path d="M420.662 108.134L406.719 108.255L406.778 115.066L420.721 114.945L420.662 108.134Z" stroke="#263238" stroke-width="0.821067" stroke-linecap="round" stroke-linejoin="round"/>
<path d="M417.596 108.161L406.719 108.255L406.778 115.066L417.655 114.971L417.596 108.161Z" fill="#263238" stroke="#263238" stroke-width="0.725073" stroke-linecap="round" stroke-linejoin="round"/>
<path d="M422.612 110.022L420.649 110.039L420.675 113.04L422.638 113.023L422.612 110.022Z" fill="#263238" stroke="#263238" stroke-width="0.725073" stroke-linecap="round" stroke-linejoin="round"/>
<path d="M264.541 111.601L261.983 111.624L262.017 115.529L264.575 115.507L264.541 111.601Z" fill="#263238" stroke="#263238" stroke-width="0.883086" stroke-linecap="round" stroke-linejoin="round"/>
<path d="M268.552 110.192L265.994 110.214L266.04 115.494L268.598 115.472L268.552 110.192Z" fill="#263238" stroke="#263238" stroke-width="0.883086" stroke-linecap="round" stroke-linejoin="round"/>
<path d="M272.551 108.54L269.993 108.562L270.053 115.46L272.611 115.437L272.551 108.54Z" fill="#263238" stroke="#263238" stroke-width="0.883086" stroke-linecap="round" stroke-linejoin="round"/>
<path d="M422.502 118.713L260.982 120.114L261.076 130.934L422.595 129.534L422.502 118.713Z" fill="#263238"/>
<mask id="mask1_5_906" style="mask-type:luminance" maskUnits="userSpaceOnUse" x="266" y="141" width="263" height="186">
<path d="M527.115 141.381L330.503 143.085L330.953 195.04C318.783 196.537 307.213 200.697 297.277 207.146C287.341 213.595 279.348 222.134 274.013 231.999C268.677 241.864 266.166 252.748 266.703 263.678C267.24 274.608 270.809 285.244 277.09 294.635C283.371 304.027 292.169 311.881 302.698 317.495C313.227 323.11 325.159 326.311 337.427 326.812C349.695 327.313 361.918 325.098 373.002 320.365C384.086 315.632 393.688 308.529 400.947 299.691L528.478 298.585L527.115 141.381Z" fill="white"/>
</mask>
<g mask="url(#mask1_5_906)">
<path d="M260.503 326.135C260.503 326.135 280.533 262.111 284.3 248.43C288.068 234.749 293.869 225.817 305.978 223.546C318.086 221.275 340.458 219.071 340.458 219.071C340.458 219.071 359.903 217.163 374.01 217.911C388.117 218.658 401.074 225.261 407.919 229.795C414.765 234.329 434.606 249.928 434.606 249.928L431.859 213.555L449.621 214.698C449.621 214.698 462.95 265.28 464.729 274.589C466.509 283.899 466.555 288.013 464.855 289.107C463.156 290.2 466.091 290.836 450.487 286.413C434.884 281.99 416.59 275.877 406.598 273.362C396.606 270.848 395.382 270.424 395.382 270.424C395.382 270.424 371.255 303.358 363.577 313.176C358.309 320.146 353.633 327.456 349.588 335.045" fill="white"/>
<mask id="mask2_5_906" style="mask-type:luminance" maskUnits="userSpaceOnUse" x="260" y="213" width="207" height="123">
<path d="M260.503 326.135C260.503 326.135 280.533 262.111 284.3 248.43C288.068 234.749 293.869 225.817 305.978 223.546C318.086 221.275 340.458 219.071 340.458 219.071C340.458 219.071 359.903 217.163 374.01 217.911C388.117 218.658 401.074 225.261 407.919 229.795C414.765 234.329 434.606 249.928 434.606 249.928L431.859 213.555L449.621 214.698C449.621 214.698 462.95 265.28 464.729 274.589C466.509 283.899 466.555 288.013 464.855 289.107C463.156 290.2 466.091 290.836 450.487 286.413C434.884 281.99 416.59 275.877 406.598 273.362C396.606 270.848 395.382 270.424 395.382 270.424C395.382 270.424 371.255 303.358 363.577 313.176C358.309 320.146 353.633 327.456 349.588 335.045" fill="white"/>
</mask>
<g mask="url(#mask2_5_906)">
<path opacity="0.2" d="M464.825 289.038C466.524 287.944 466.488 283.804 464.699 274.52C463.675 268.97 458.47 248.738 454.469 233.306C456.161 251.559 456.911 269.403 453.835 272.761C447.063 280.023 436.992 270.646 436.992 270.646L434.966 256.623C434.966 256.623 400.734 234.555 387.93 230.873C375.125 227.191 361.527 226.552 348.349 230.459C335.171 234.366 324.16 238.255 316.138 245.527C308.116 252.799 280.572 310.66 280.572 310.66L277.547 327.797L349.557 334.932C353.602 327.343 358.278 320.033 363.546 313.064C371.273 303.245 395.351 270.311 395.351 270.311C395.351 270.311 396.575 270.735 406.567 273.249C416.559 275.764 434.853 281.886 450.457 286.3C466.06 290.714 463.135 290.14 464.825 289.038Z" fill="black"/>
</g>
<path d="M260.503 326.135C260.503 326.135 280.533 262.111 284.3 248.43C288.068 234.749 293.869 225.817 305.978 223.546C318.086 221.275 340.458 219.071 340.458 219.071C340.458 219.071 359.903 217.163 374.01 217.911C388.117 218.658 401.074 225.261 407.919 229.795C414.765 234.329 434.606 249.928 434.606 249.928L431.859 213.555L449.621 214.698C449.621 214.698 462.95 265.28 464.729 274.589C466.509 283.899 466.555 288.013 464.855 289.107C463.156 290.2 466.091 290.836 450.487 286.413C434.884 281.99 416.59 275.877 406.598 273.362C396.606 270.848 395.382 270.424 395.382 270.424C395.382 270.424 371.255 303.358 363.577 313.176C358.309 320.146 353.633 327.456 349.588 335.045" stroke="#263238" stroke-linecap="round" stroke-linejoin="round"/>
<path d="M402.207 260.248L395.352 270.363L415.808 260.13" stroke="#263238" stroke-linecap="round" stroke-linejoin="round"/>
<path d="M434.576 249.867C434.576 249.867 435.708 267.838 436.943 270.646C438.178 273.454 443.55 274.703 443.55 274.703" fill="white"/>
<path d="M434.576 249.867C434.576 249.867 435.708 267.838 436.943 270.646C438.178 273.454 443.55 274.703 443.55 274.703" stroke="#263238" stroke-linecap="round" stroke-linejoin="round"/>
<path d="M327.409 250.248C327.409 250.248 324.802 255.882 326.129 255.87C327.457 255.859 336.053 252.835 340.037 252.801C344.021 252.766 348.381 258.931 348.381 258.931C348.381 258.931 359.923 251.15 363.583 252.005C365.376 252.523 367.024 253.375 368.418 254.503C368.651 254.681 368.935 254.796 369.237 254.835C369.54 254.874 369.85 254.836 370.13 254.726C370.41 254.615 370.649 254.436 370.82 254.209C370.99 253.983 371.086 253.718 371.095 253.445C371.149 251.853 371.189 249.678 371.165 246.911C371.109 240.414 364.657 222.741 353.04 221.955C341.423 221.168 339.495 228.57 334.622 237.477C329.748 246.383 327.409 250.248 327.409 250.248Z" fill="#263238"/>
<path d="M352.044 211.803C352.044 211.803 340.866 213.222 335.797 217.616C330.728 222.009 332.487 228.909 329.866 235.213C327.245 241.516 322.738 254.343 325.147 254.104C327.557 253.866 336.038 247.729 338.483 249.222C340.927 250.714 346.577 256.981 347.557 257.372C348.536 257.764 360.868 249.68 362.559 248.795C364.25 247.911 372.603 257.407 372.825 254.796C373.046 252.184 373.401 236.81 371.612 227.509C369.822 218.208 357.64 211.972 352.044 211.803Z" fill="white" stroke="#263238" stroke-linecap="round" stroke-linejoin="round"/>
<path d="M355.825 199.635C355.825 199.635 351.793 210.935 348.399 214.897C345.006 218.858 343.557 219.488 342.445 228.597C341.332 237.706 346.832 258.24 348.557 257.79C350.281 257.34 366.829 233.37 372.39 229.416C377.951 225.462 383.755 221.306 383.755 221.306C383.755 221.306 370.102 217.736 365.438 212.583C361.912 208.464 358.701 204.138 355.825 199.635Z" fill="white"/>
<mask id="mask3_5_906" style="mask-type:luminance" maskUnits="userSpaceOnUse" x="342" y="199" width="42" height="59">
<path d="M355.825 199.635C355.825 199.635 351.793 210.935 348.399 214.897C345.006 218.858 343.557 219.488 342.445 228.597C341.332 237.706 346.832 258.24 348.557 257.79C350.281 257.34 366.829 233.37 372.39 229.416C377.951 225.462 383.755 221.306 383.755 221.306C383.755 221.306 370.102 217.736 365.438 212.583C361.912 208.464 358.701 204.138 355.825 199.635Z" fill="white"/>
</mask>
<g mask="url(#mask3_5_906)">
<path opacity="0.2" d="M374.788 227.716C379.494 224.361 383.745 221.315 383.745 221.315C383.745 221.315 370.092 217.745 365.429 212.592C361.907 208.481 358.699 204.164 355.826 199.67C354.442 203.495 352.822 207.25 350.972 210.916C353.077 216.039 358.891 224.375 374.788 227.716Z" fill="black"/>
<path d="M365.429 212.557C361.907 208.446 358.699 204.129 355.825 199.635C355.825 199.635 354.472 203.431 352.68 207.387C354.227 211.28 357.314 217.064 362.782 220.444C367.203 223.019 372.097 224.885 377.243 225.955L383.745 221.306C383.745 221.306 370.092 217.71 365.429 212.557Z" fill="#263238"/>
</g>
<path d="M355.825 199.635C355.825 199.635 351.793 210.935 348.399 214.897C345.006 218.858 343.557 219.488 342.445 228.597C341.332 237.706 346.832 258.24 348.557 257.79C350.281 257.34 366.829 233.37 372.39 229.416C377.951 225.462 383.755 221.306 383.755 221.306C383.755 221.306 370.102 217.736 365.438 212.583C361.912 208.464 358.701 204.138 355.825 199.635Z" stroke="#263238" stroke-linecap="round" stroke-linejoin="round"/>
<path d="M407.375 170.377C407.375 170.377 406.778 184.901 407.298 189.655C407.817 194.409 409.842 202.681 405.525 210.469C401.208 218.258 397.61 223.326 393.491 224.657C389.372 225.989 375.972 223.513 365.209 216.456C354.445 209.399 352.374 194.689 350.624 189.937C348.874 185.186 350.686 168.92 361.587 163.624C370.414 159.483 380.689 158.54 390.263 160.992C396.127 162.672 407.375 170.377 407.375 170.377Z" fill="white"/>
<mask id="mask4_5_906" style="mask-type:luminance" maskUnits="userSpaceOnUse" x="350" y="159" width="59" height="67">
<path d="M407.375 170.377C407.375 170.377 406.778 184.901 407.298 189.655C407.817 194.409 409.842 202.681 405.525 210.469C401.208 218.258 397.61 223.326 393.491 224.657C389.372 225.989 375.972 223.513 365.209 216.456C354.445 209.399 352.374 194.689 350.624 189.937C348.874 185.186 350.686 168.92 361.587 163.624C370.414 159.483 380.689 158.54 390.263 160.992C396.127 162.672 407.375 170.377 407.375 170.377Z" fill="white"/>
</mask>
<g mask="url(#mask4_5_906)">
<path opacity="0.2" d="M361.626 163.624C360.072 164.39 358.666 165.375 357.462 166.539L363.127 170.056C363.127 170.056 370.306 163.548 386.584 172.506C394.983 177.131 402.195 177.825 407.221 177.408C407.304 173.545 407.433 170.377 407.433 170.377C407.433 170.377 396.185 162.645 390.331 160.956C380.743 158.509 370.456 159.464 361.626 163.624Z" fill="black"/>
</g>
<path d="M407.375 170.377C407.375 170.377 406.778 184.901 407.298 189.655C407.817 194.409 409.842 202.681 405.525 210.469C401.208 218.258 397.61 223.326 393.491 224.657C389.372 225.989 375.972 223.513 365.209 216.456C354.445 209.399 352.374 194.689 350.624 189.937C348.874 185.186 350.686 168.92 361.587 163.624C370.414 159.483 380.689 158.54 390.263 160.992C396.127 162.672 407.375 170.377 407.375 170.377Z" stroke="#263238" stroke-linecap="round" stroke-linejoin="round"/>
<path d="M384.579 190.156C384.592 191.696 383.929 192.954 383.1 192.961C382.27 192.969 381.585 191.722 381.572 190.182C381.558 188.643 382.221 187.376 383.051 187.368C383.881 187.361 384.566 188.608 384.579 190.156Z" fill="#263238"/>
<path d="M402.353 191.455C402.366 193.003 401.703 194.262 400.873 194.269C400.043 194.276 399.359 193.029 399.345 191.481C399.332 189.933 399.995 188.683 400.825 188.676C401.655 188.669 402.339 189.915 402.353 191.455Z" fill="#263238"/>
<path d="M397.552 187.365C397.552 187.365 392.969 191.519 394.195 193.239C395.421 194.96 398.261 195.909 397.404 198.431C396.547 200.952 390.14 201.973 387.923 198.513" stroke="#263238" stroke-linecap="round" stroke-linejoin="round"/>
<path d="M374.078 200.999C375.909 202.944 378.184 204.518 380.753 205.616C383.322 206.714 386.125 207.311 388.976 207.368C388.976 207.368 379.048 213.3 374.668 212.712C370.288 212.123 374.078 200.999 374.078 200.999Z" fill="#263238" stroke="#263238" stroke-linecap="round" stroke-linejoin="round"/>
<path d="M376.247 181.964C376.247 181.964 380.439 176.709 388.923 179.88" stroke="#263238" stroke-linecap="round" stroke-linejoin="round"/>
<path d="M399.204 181.931C399.204 181.931 404.545 180.788 406.528 185.347" stroke="#263238" stroke-linecap="round" stroke-linejoin="round"/>
<path d="M352.394 195.768C352.394 195.768 354.508 187.303 359.832 184.221C365.157 181.139 370.269 181.747 367.07 177.66C363.87 173.573 362.116 169.465 368.934 167.457C375.752 165.449 389.128 168.587 396.933 171.12C404.737 173.654 419.821 174.401 423.632 164.599C425.982 158.559 418.91 153.828 413.753 151.41C408.037 148.746 401.639 147.453 395.223 148.518C391.323 149.152 387.614 150.55 383.712 150.931C377.106 151.589 371.254 148.908 364.675 150.383C359.153 151.608 354.225 154.398 350.634 158.334C344.589 165.067 342.985 177.216 352.394 195.768Z" fill="#263238"/>
<mask id="mask5_5_906" style="mask-type:luminance" maskUnits="userSpaceOnUse" x="345" y="148" width="80" height="48">
<path d="M352.394 195.768C352.394 195.768 354.508 187.303 359.832 184.221C365.157 181.139 370.269 181.747 367.07 177.66C363.87 173.573 362.116 169.465 368.934 167.457C375.752 165.449 389.128 168.587 396.933 171.12C404.737 173.654 419.821 174.401 423.632 164.599C425.982 158.559 418.91 153.828 413.753 151.41C408.037 148.746 401.639 147.453 395.223 148.518C391.323 149.152 387.614 150.55 383.712 150.931C377.106 151.589 371.254 148.908 364.675 150.383C359.153 151.608 354.225 154.398 350.634 158.334C344.589 165.067 342.985 177.216 352.394 195.768Z" fill="white"/>
</mask>
<g mask="url(#mask5_5_906)">
<path d="M408.294 147.996C408.294 147.996 420.982 153.975 412.223 164.168C403.464 174.361 395.075 167.474 374.061 164.055C353.046 160.636 340.755 169.972 340.755 169.972" stroke="#808080" stroke-linecap="round" stroke-linejoin="round"/>
<path d="M342.618 181.021C342.618 181.021 346.6 174.027 359.725 171.869C372.849 169.711 373.627 171.522 373.627 171.522" stroke="#808080" stroke-linecap="round" stroke-linejoin="round"/>
</g>
<path d="M352.394 195.768C352.394 195.768 354.508 187.303 359.832 184.221C365.157 181.139 370.269 181.747 367.07 177.66C363.87 173.573 362.116 169.465 368.934 167.457C375.752 165.449 389.128 168.587 396.933 171.12C404.737 173.654 419.821 174.401 423.632 164.599C425.982 158.559 418.91 153.828 413.753 151.41C408.037 148.746 401.639 147.453 395.223 148.518C391.323 149.152 387.614 150.55 383.712 150.931C377.106 151.589 371.254 148.908 364.675 150.383C359.153 151.608 354.225 154.398 350.634 158.334C344.589 165.067 342.985 177.216 352.394 195.768Z" stroke="#263238" stroke-linecap="round" stroke-linejoin="round"/>
<path d="M357.864 192.641C357.864 192.641 351.445 179.831 345.947 186.577C340.45 193.323 350.59 201.707 358.133 199.998" fill="white"/>
<path d="M357.864 192.641C357.864 192.641 351.445 179.831 345.947 186.577C340.45 193.323 350.59 201.707 358.133 199.998" stroke="#263238" stroke-linecap="round" stroke-linejoin="round"/>
<path d="M426.523 190.576C426.523 190.576 422.389 190.176 421.664 193.227C420.938 196.278 420.267 201.069 421.731 201.056C423.196 201.043 425.856 200.376 426.815 198.402C427.775 196.428 428.699 190.365 428.699 190.365L426.523 190.576Z" fill="white" stroke="#263238" stroke-linecap="round" stroke-linejoin="round"/>
<path d="M433.075 189.431C433.075 189.431 427.209 188.612 426.523 190.576C425.837 192.539 424.9 199.289 425.624 199.465C426.348 199.641 430.717 197.907 430.717 197.907L433.075 189.431Z" fill="white" stroke="#263238" stroke-linecap="round" stroke-linejoin="round"/>
<path d="M440.861 189.799C440.861 189.799 433.992 185.961 432.339 187.924C430.687 189.887 430.717 197.907 430.717 197.907C431.323 198.021 431.951 197.998 432.544 197.841C433.138 197.684 433.679 197.398 434.117 197.008C435.327 195.701 436.766 193.958 436.766 193.958C436.766 193.958 441.658 194.994 442.369 194.779C443.08 194.564 444.8 194.758 444.303 192.596C443.805 190.434 440.861 189.799 440.861 189.799Z" fill="white" stroke="#263238" stroke-linecap="round" stroke-linejoin="round"/>
<path d="M450.141 193.624C447.056 191.761 444.53 189.254 442.784 186.32C440.313 181.792 439.094 182.002 437.881 183.979C436.668 185.955 438.149 187.874 439.141 189.596C440.132 191.319 444.298 195.406 444.298 195.406L450.141 193.624Z" fill="white" stroke="#263238" stroke-linecap="round" stroke-linejoin="round"/>
<path d="M406.661 224.308C406.661 224.308 403.368 251.156 403.928 252.604C404.487 254.051 410.458 255.687 411.807 254.71C413.155 253.733 412.328 251.809 411.771 250.604C411.214 249.4 416.174 226.888 416.174 226.888L406.661 224.308Z" fill="#92E3A9" stroke="#263238" stroke-linecap="round" stroke-linejoin="round"/>
<path d="M317.936 234.368L336.215 283.872C336.215 283.872 377.04 262.24 386.552 251.058C396.064 239.876 401.502 227.311 404.889 226.107C408.277 224.903 420.293 227.713 422.065 229.438C423.838 231.162 423.444 233.071 421.331 234.881C419.218 236.691 418.01 236.954 418.01 236.954C418.01 236.954 417.936 240.86 416.985 241.547C416.034 242.234 416.251 241.353 416.015 242.225C415.857 243.157 415.482 244.049 414.914 244.845C414.219 245.721 413.949 246.175 413.278 246.416C411.883 246.959 410.431 247.373 408.943 247.654C406.324 248.28 403.659 248.739 400.967 249.028C399.28 249.304 388.444 268.77 378.213 280.402C367.983 292.035 335.581 318.786 330.456 318.97C325.331 319.154 294.834 275.105 288.285 264.28" fill="white"/>
<mask id="mask6_5_906" style="mask-type:luminance" maskUnits="userSpaceOnUse" x="288" y="225" width="136" height="94">
<path d="M317.936 234.368L336.215 283.872C336.215 283.872 377.04 262.24 386.552 251.058C396.064 239.876 401.502 227.311 404.889 226.107C408.277 224.903 420.293 227.713 422.065 229.438C423.838 231.162 423.444 233.071 421.331 234.881C419.218 236.691 418.01 236.954 418.01 236.954C418.01 236.954 417.936 240.86 416.985 241.547C416.034 242.234 416.251 241.353 416.015 242.225C415.857 243.157 415.482 244.049 414.914 244.845C414.219 245.721 413.949 246.175 413.278 246.416C411.883 246.959 410.431 247.373 408.943 247.654C406.324 248.28 403.659 248.739 400.967 249.028C399.28 249.304 388.444 268.77 378.213 280.402C367.983 292.035 335.581 318.786 330.456 318.97C325.331 319.154 294.834 275.105 288.285 264.28" fill="white"/>
</mask>
<g mask="url(#mask6_5_906)">
<path opacity="0.2" d="M414.914 244.827C415.482 244.032 415.856 243.139 416.014 242.208C416.222 241.336 416.014 242.208 416.985 241.53C417.956 240.851 418.01 236.936 418.01 236.936C418.01 236.936 419.218 236.674 421.331 234.863C423.444 233.053 423.847 231.092 422.065 229.42C420.283 227.748 408.248 224.93 404.889 226.09C404.013 226.402 402.948 227.498 401.791 229.144C403.6 231.738 405.733 233.311 403.82 237.886C400.951 244.87 394.191 253.628 388.397 261.072C382.602 268.516 334.136 309.822 328.27 309.002C323.479 308.331 309.455 293.507 304.467 288.131C315.183 303.166 327.429 319.04 330.504 318.935C335.61 318.751 368.051 292.008 378.262 280.367C388.473 268.726 399.28 249.251 400.967 249.011C403.658 248.721 406.324 248.262 408.943 247.637C410.431 247.356 411.883 246.941 413.278 246.398C413.998 246.157 414.219 245.721 414.914 244.827Z" fill="black"/>
</g>
<path d="M317.936 234.368L336.215 283.872C336.215 283.872 377.04 262.24 386.552 251.058C396.064 239.876 401.502 227.311 404.889 226.107C408.277 224.903 420.293 227.713 422.065 229.438C423.838 231.162 423.444 233.071 421.331 234.881C419.218 236.691 418.01 236.954 418.01 236.954C418.01 236.954 417.936 240.86 416.985 241.547C416.034 242.234 416.251 241.353 416.015 242.225C415.857 243.157 415.482 244.049 414.914 244.845C414.219 245.721 413.949 246.175 413.278 246.416C411.883 246.959 410.431 247.373 408.943 247.654C406.324 248.28 403.659 248.739 400.967 249.028C399.28 249.304 388.444 268.77 378.213 280.402C367.983 292.035 335.581 318.786 330.456 318.97C325.331 319.154 294.834 275.105 288.285 264.28" stroke="#263238" stroke-linecap="round" stroke-linejoin="round"/>
<path d="M336.215 283.872C336.215 283.872 331.54 284.086 327.672 295.255" stroke="#263238" stroke-linecap="round" stroke-linejoin="round"/>
<path d="M408.942 247.637C410.43 247.356 411.883 246.941 413.277 246.398C413.997 246.157 414.248 245.72 414.914 244.827C415.481 244.032 415.856 243.139 416.014 242.208C416.221 241.336 416.853 241.035 417.794 240.348C418.736 239.662 417.98 236.937 417.98 236.937C417.98 236.937 419.188 236.674 421.301 234.864C423.414 233.053 423.817 231.093 422.035 229.42C420.253 227.748 408.218 224.93 404.859 226.09C401.501 227.25 396.504 238.837 387.761 249.638L396.034 255.569C398.578 251.719 400.392 249.111 400.996 249.01C403.678 248.72 406.333 248.261 408.942 247.637Z" fill="white"/>
<mask id="mask7_5_906" style="mask-type:luminance" maskUnits="userSpaceOnUse" x="387" y="225" width="37" height="31">
<path d="M408.942 247.637C410.43 247.356 411.883 246.941 413.277 246.398C413.997 246.157 414.248 245.72 414.914 244.827C415.481 244.032 415.856 243.139 416.014 242.208C416.221 241.336 416.853 241.035 417.794 240.348C418.736 239.662 417.98 236.937 417.98 236.937C417.98 236.937 419.188 236.674 421.301 234.864C423.414 233.053 423.817 231.093 422.035 229.42C420.253 227.748 408.218 224.93 404.859 226.09C401.501 227.25 396.504 238.837 387.761 249.638L396.034 255.569C398.578 251.719 400.392 249.111 400.996 249.01C403.678 248.72 406.333 248.261 408.942 247.637Z" fill="white"/>
</mask>
<g mask="url(#mask7_5_906)">
<path opacity="0.2" d="M414.914 244.827C415.482 244.032 415.856 243.139 416.014 242.208C416.222 241.336 416.014 242.208 416.985 241.53C417.956 240.851 418.01 236.937 418.01 236.937C418.01 236.937 419.218 236.674 421.331 234.863C423.444 233.053 423.847 231.092 422.065 229.42C420.283 227.748 408.248 224.93 404.889 226.09C404.013 226.402 402.948 227.498 401.791 229.144C403.6 231.738 405.733 233.311 403.82 237.886C400.951 244.87 394.191 253.628 388.397 261.072C382.602 268.516 334.136 309.822 328.27 309.003C323.479 308.331 309.455 293.507 304.467 288.131C315.183 303.166 327.429 319.04 330.504 318.935C335.61 318.751 368.051 292.008 378.262 280.367C388.473 268.726 399.28 249.251 400.967 249.011C403.658 248.721 406.324 248.262 408.943 247.637C410.431 247.356 411.883 246.941 413.278 246.398C413.998 246.157 414.219 245.721 414.914 244.827Z" fill="black"/>
</g>
<path d="M408.942 247.637C410.43 247.356 411.883 246.941 413.277 246.398C413.997 246.157 414.248 245.72 414.914 244.827C415.481 244.032 415.856 243.139 416.014 242.208C416.221 241.336 416.853 241.035 417.794 240.348C418.736 239.662 417.98 236.937 417.98 236.937C417.98 236.937 419.188 236.674 421.301 234.864C423.414 233.053 423.817 231.093 422.035 229.42C420.253 227.748 408.218 224.93 404.859 226.09C401.501 227.25 396.504 238.837 387.761 249.638L396.034 255.569C398.578 251.719 400.392 249.111 400.996 249.01C403.678 248.72 406.333 248.261 408.942 247.637Z" stroke="#263238" stroke-linecap="round" stroke-linejoin="round"/>
<path d="M397.965 206.855C395.28 206.879 393.113 210.377 393.15 214.587C393.186 218.797 395.394 222.257 398.098 222.234L457.799 237.748L457.382 189.656L397.965 206.855Z" fill="#FFC700" stroke="#263238" stroke-linecap="round" stroke-linejoin="round"/>
<path d="M431.42 200.163L408.233 206.323" stroke="#263238" stroke-linecap="round" stroke-linejoin="round"/>
<path d="M439.175 198.104L434.324 199.398" stroke="#263238" stroke-linecap="round" stroke-linejoin="round"/>
<path d="M405.572 204.649L397.965 206.855C395.28 206.879 393.113 210.377 393.15 214.587C393.186 218.797 395.394 222.257 398.098 222.234L404.998 224.027C403.353 220.993 402.548 217.652 402.647 214.281C402.747 210.91 403.75 207.608 405.572 204.649Z" fill="#263238" stroke="#263238" stroke-linecap="round" stroke-linejoin="round"/>
<path d="M462.999 246.281C474.28 246.183 483.3 231.644 483.145 213.807C482.991 195.97 473.72 181.589 462.439 181.687C451.158 181.785 442.138 196.324 442.293 214.161C442.447 231.998 451.718 246.378 462.999 246.281Z" fill="#D6D6D6" stroke="#263238" stroke-linecap="round" stroke-linejoin="round"/>
<path d="M462.657 206.816L443.157 202.349L441.565 214.715L443.861 227.257L462.781 221.151L463.392 207.158" fill="#D6D6D6"/>
<path d="M462.657 206.816L443.157 202.349L441.565 214.715L443.861 227.257L462.781 221.151L463.392 207.158" stroke="#263238" stroke-linecap="round" stroke-linejoin="round"/>
<path d="M462.414 178.782C450.121 178.888 440.289 194.736 440.457 214.177C440.626 233.618 450.731 249.292 463.024 249.186C475.317 249.079 485.15 233.232 484.981 213.791C484.812 194.35 474.707 178.675 462.414 178.782ZM463.528 244.188C453.285 244.277 444.859 230.823 444.714 214.14C444.57 197.457 452.762 183.867 463.004 183.779C473.246 183.69 481.673 197.135 481.817 213.818C481.962 230.502 473.78 244.099 463.528 244.188Z" fill="#263238" stroke="#263238" stroke-linecap="round" stroke-linejoin="round"/>
<path d="M462.782 221.151C465.284 221.129 467.284 217.903 467.25 213.945C467.216 209.986 465.159 206.795 462.657 206.816C460.155 206.838 458.155 210.065 458.189 214.023C458.223 217.982 460.279 221.173 462.782 221.151Z" fill="#FFC700" stroke="#263238" stroke-linecap="round" stroke-linejoin="round"/>
<path d="M519.816 176.971L524.326 175.679" stroke="#263238" stroke-linecap="round" stroke-linejoin="round"/>
<path d="M487.526 186.176L514.254 178.55" stroke="#263238" stroke-linecap="round" stroke-linejoin="round"/>
<path d="M491.264 211.962L515.857 212.531" stroke="#263238" stroke-linecap="round" stroke-linejoin="round"/>
<path d="M511.912 243.96L517.021 245.377" stroke="#263238" stroke-linecap="round" stroke-linejoin="round"/>
<path d="M489.731 237.794L507.859 242.838" stroke="#263238" stroke-linecap="round" stroke-linejoin="round"/>
<path d="M490.264 197.887L503.422 196.207" stroke="#263238" stroke-linecap="round" stroke-linejoin="round"/>
<path d="M484.533 246.442L494.26 253.404" stroke="#263238" stroke-linecap="round" stroke-linejoin="round"/>
</g>
<path d="M646.133 423.386L717.372 424.635C720.646 424.692 723.347 422.525 723.395 419.802L724.087 380.308C724.135 377.585 721.512 375.325 718.237 375.267L664.752 374.33L647.152 364.168L646.998 374.019C643.724 373.961 641.023 376.128 640.975 378.851L640.283 418.345C640.235 421.068 642.858 423.329 646.133 423.386Z" fill="#FFC700" fill-opacity="0.4"/>
<path opacity="0.2" d="M642.306 398.44C642.136 408.113 649.609 416.986 661.789 423.473L717.684 424.453C722.911 424.544 727.2 422.405 727.247 419.682L727.94 380.188C727.987 377.465 723.777 375.177 718.55 375.085L662.654 374.105C650.254 380.161 642.476 388.767 642.306 398.44Z" fill="#FFC700" fill-opacity="0.4"/>
<path d="M711.868 399.847C711.891 398.538 711.287 397.271 710.19 396.326C709.093 395.38 707.592 394.834 706.018 394.806C704.443 394.779 702.924 395.272 701.795 396.178C700.665 397.085 700.018 398.33 699.995 399.639C699.972 400.948 700.575 402.215 701.672 403.16C702.769 404.105 704.27 404.652 705.845 404.68C707.419 404.707 708.938 404.214 710.068 403.307C711.198 402.401 711.845 401.156 711.868 399.847Z" fill="#333333"/>
<path d="M688.122 399.431C688.145 398.121 687.541 396.855 686.444 395.909C685.347 394.964 683.846 394.417 682.272 394.39C680.697 394.362 679.178 394.856 678.048 395.762C676.919 396.669 676.271 397.913 676.248 399.223C676.225 400.532 676.829 401.799 677.926 402.744C679.023 403.689 680.524 404.236 682.098 404.263C683.673 404.291 685.192 403.797 686.322 402.891C687.451 401.985 688.099 400.74 688.122 399.431Z" fill="#333333"/>
<path d="M664.375 399.014C664.398 397.705 663.795 396.438 662.698 395.493C661.601 394.548 660.1 394.001 658.525 393.974C656.951 393.946 655.432 394.44 654.302 395.346C653.173 396.252 652.525 397.497 652.502 398.806C652.479 400.116 653.083 401.382 654.18 402.328C655.277 403.273 656.778 403.819 658.352 403.847C659.927 403.875 661.446 403.381 662.575 402.475C663.705 401.568 664.352 400.324 664.375 399.014Z" fill="#333333"/>
<path d="M807.277 425.661L797.114 413.889C801.874 406.497 803.032 397.523 800.266 389.127C800.009 388.336 799.108 387.91 798.272 388.153C797.436 388.397 796.953 389.249 797.243 390.039C799.848 397.888 798.626 406.284 793.866 413.128L793.769 413.25C793.448 413.797 793.48 414.467 793.898 414.953L804.801 427.547C804.801 427.547 804.961 427.73 804.994 427.73C805.894 428.703 805.894 430.072 805.026 431.076C804.994 431.106 804.994 431.137 804.961 431.137L804.736 431.35C803.707 432.171 802.196 432.171 801.134 431.289C801.07 431.228 801.038 431.198 800.973 431.137L787.659 420.855C787.112 420.429 786.34 420.398 785.761 420.764L785.633 420.855C774.409 427.791 759.389 426.391 749.806 417.509C749.741 417.417 749.709 417.326 749.645 417.265C738.453 406.74 738.453 389.553 749.613 378.997C760.772 368.441 778.943 368.441 790.103 378.997C790.167 379.058 790.264 379.119 790.36 379.149C790.393 379.18 790.457 379.24 790.489 379.271C791.036 379.91 792.065 380.001 792.74 379.453C793.416 378.936 793.512 377.963 792.933 377.324C792.805 377.172 792.612 376.989 792.419 376.807C780.037 365.126 759.872 365.034 747.393 376.716C747.361 376.746 747.297 376.776 747.265 376.837C742.119 381.704 738.903 388.184 738.163 395.028C737.842 398.009 738.002 400.991 738.581 403.88C739.803 409.812 742.827 415.197 747.361 419.486C757.749 429.281 774.055 431.076 786.533 423.897L798.883 433.449C798.947 433.509 799.044 433.601 799.108 433.662C800.234 434.574 801.585 435 802.935 435C804.318 435 805.701 434.544 806.827 433.631L807.373 433.144C807.47 433.053 807.534 432.962 807.599 432.84C809.303 430.741 809.239 427.821 807.406 425.783C807.373 425.752 807.309 425.692 807.277 425.661Z" fill="black" fill-opacity="0.3"/>
<path d="M816.668 368.928C816.346 368.502 815.8 368.259 815.221 368.32L804.897 369.354C804.318 369.415 803.836 369.749 803.611 370.236C803.386 370.723 803.45 371.301 803.771 371.727L806.055 374.677L769.777 399.409C769.391 399.652 769.166 400.078 769.134 400.504L768.169 412.216L752.475 397.705C752.153 397.401 751.703 397.249 751.253 397.279L746.654 397.584C745.785 397.644 745.11 398.344 745.174 399.196C745.239 400.017 746.011 400.656 746.879 400.595L750.77 400.352L768.394 416.626C768.684 416.9 769.102 417.052 769.52 417.052C769.713 417.052 769.906 417.022 770.067 416.961C770.646 416.748 771.032 416.261 771.096 415.683L772.286 401.477L808.017 377.172L809.979 379.727C810.268 380.123 810.75 380.335 811.265 380.335C811.329 380.335 811.394 380.335 811.426 380.335C812.005 380.275 812.487 379.94 812.712 379.453L816.893 370.479C817.086 369.932 817.022 369.384 816.668 368.928ZM810.879 375.803L808.017 372.092L812.841 371.605L810.879 375.803Z" fill="black" fill-opacity="0.3"/>
<path d="M81.0263 27.097L9.78577 28.2612C6.5113 28.3147 3.88524 30.5721 3.92974 33.295L4.57514 72.7898C4.61963 75.5127 7.31805 77.6831 10.5925 77.6296L64.0785 76.7556L82.0125 86.3157L81.833 76.4654C85.1075 76.4119 87.7335 74.1545 87.689 71.4316L87.0436 31.9368C86.9991 29.2139 84.3007 27.0435 81.0263 27.097Z" fill="#FFC700" fill-opacity="0.4"/>
<path opacity="0.2" d="M85.6955 51.8991C85.5374 42.2259 77.769 33.6108 65.3766 27.5403L9.47962 28.4537C4.2527 28.5392 0.0392294 30.8225 0.0837267 33.5454L0.729127 73.0402C0.773624 75.7631 5.05945 77.9076 10.2864 77.8221L66.1833 76.9087C78.3707 70.4365 85.8536 61.5722 85.6955 51.8991Z" fill="#FFC700" fill-opacity="0.4"/>
<path d="M16.1259 52.8484C16.1473 54.1577 16.7933 55.4032 17.9217 56.3108C19.0502 57.2185 20.5687 57.7139 22.1433 57.6882C23.7178 57.6625 25.2193 57.1177 26.3175 56.1736C27.4157 55.2296 28.0207 53.9637 27.9993 52.6544C27.9779 51.345 27.3319 50.0995 26.2034 49.1919C25.0749 48.2843 23.5564 47.7888 21.9819 47.8145C20.4074 47.8403 18.9059 48.3851 17.8076 49.3291C16.7094 50.2731 16.1045 51.5391 16.1259 52.8484Z" fill="#333333"/>
<path d="M39.8727 52.4603C39.8941 53.7697 40.5401 55.0151 41.6686 55.9228C42.797 56.8304 44.3156 57.3259 45.8901 57.3001C47.4646 57.2744 48.9661 56.7296 50.0643 55.7856C51.1626 54.8416 51.7675 53.5756 51.7461 52.2663C51.7247 50.957 51.0787 49.7115 49.9502 48.8038C48.8218 47.8962 47.3032 47.4007 45.7287 47.4265C44.1542 47.4522 42.6527 47.997 41.5545 48.941C40.4563 49.8851 39.8513 51.151 39.8727 52.4603Z" fill="#333333"/>
<path d="M63.6195 52.0723C63.6409 53.3816 64.2869 54.6271 65.4154 55.5347C66.5439 56.4424 68.0624 56.9378 69.6369 56.9121C71.2114 56.8864 72.7129 56.3416 73.8112 55.3975C74.9094 54.4535 75.5143 53.1876 75.4929 51.8782C75.4715 50.5689 74.8255 49.3234 73.6971 48.4158C72.5686 47.5081 71.0501 47.0127 69.4756 47.0384C67.901 47.0641 66.3995 47.6089 65.3013 48.553C64.2031 49.497 63.5981 50.7629 63.6195 52.0723Z" fill="#333333"/>
</svg>
