<svg width="620" height="634" viewBox="0 0 620 634" fill="none" xmlns="http://www.w3.org/2000/svg">
<path fill-rule="evenodd" clip-rule="evenodd" d="M310 66.6667C245.795 66.6667 193.75 111.438 193.75 166.667C193.75 221.895 245.795 266.667 310 266.667C374.205 266.667 426.25 221.895 426.25 166.667C426.25 111.438 374.205 66.6667 310 66.6667ZM116.25 166.667C116.25 74.6193 202.995 0 310 0C417.004 0 503.75 74.6193 503.75 166.667C503.75 258.713 417.004 333.333 310 333.333C202.995 333.333 116.25 258.713 116.25 166.667ZM133.923 457.547C93.0713 473.153 77.5 492.86 77.5 516.667C77.5 524.12 79.0407 528.34 81.2696 531.4C83.4997 534.46 88.8204 539.643 103.16 545.223C133.808 557.15 194.373 566.667 310 566.667C425.626 566.667 486.192 557.15 516.84 545.223C531.181 539.643 536.502 534.46 538.73 531.4C540.958 528.34 542.5 524.12 542.5 516.667C542.5 492.86 526.93 473.153 486.076 457.547C444.129 441.527 382.548 433.333 310 433.333C237.452 433.333 175.87 441.527 133.923 457.547ZM102.471 396.62C158.698 375.14 232.74 366.667 310 366.667C387.26 366.667 461.303 375.14 517.53 396.62C574.849 418.513 620 457.14 620 516.667C620 532.223 616.698 549.927 604.395 566.81C592.092 583.687 573.194 596.463 548.785 605.963C501.933 624.197 426.874 633.333 310 633.333C193.127 633.333 118.067 624.197 71.2151 605.963C46.8046 596.463 27.9066 583.687 15.6054 566.81C3.30305 549.927 0 532.223 0 516.667C0 457.14 45.15 418.513 102.471 396.62Z" fill="url(#paint0_linear_22_31)"/>
<defs>
<linearGradient id="paint0_linear_22_31" x1="310" y1="0" x2="310" y2="633.333" gradientUnits="userSpaceOnUse">
<stop stop-color="#7ED7F7"/>
<stop offset="0.5" stop-color="#BA8FDB"/>
<stop offset="1" stop-color="#E050B0"/>
</linearGradient>
</defs>
</svg>
