<svg width="564" height="667" viewBox="0 0 564 667" fill="none" xmlns="http://www.w3.org/2000/svg">
<path d="M282.333 281.667C355.971 281.667 415.667 221.971 415.667 148.333C415.667 74.6954 355.971 15 282.333 15C208.695 15 149 74.6954 149 148.333C149 221.971 208.695 281.667 282.333 281.667Z" stroke="url(#paint0_linear_20_17)" stroke-width="30"/>
<path d="M548.333 502C548.333 584.843 548.333 652 281.667 652C15 652 15 584.843 15 502C15 419.157 134.391 352 281.667 352C428.943 352 548.333 419.157 548.333 502Z" stroke="url(#paint1_linear_20_17)" stroke-width="30"/>
<defs>
<linearGradient id="paint0_linear_20_17" x1="282.333" y1="15" x2="282.333" y2="281.667" gradientUnits="userSpaceOnUse">
<stop stop-color="#E050B0"/>
<stop offset="0.5" stop-color="#BA8FDB"/>
<stop offset="1" stop-color="#7ED7F7"/>
</linearGradient>
<linearGradient id="paint1_linear_20_17" x1="281.667" y1="352" x2="281.667" y2="652" gradientUnits="userSpaceOnUse">
<stop stop-color="#E050B0"/>
<stop offset="0.5" stop-color="#BA8FDB"/>
<stop offset="1" stop-color="#7ED7F7"/>
</linearGradient>
</defs>
</svg>
