<svg width="1079" height="836" viewBox="0 0 1079 836" fill="none" xmlns="http://www.w3.org/2000/svg">
<path fill-rule="evenodd" clip-rule="evenodd" d="M1011.27 317.452L1037.37 343.924C1039.04 345.569 1040.37 347.537 1041.28 349.712C1042.19 351.887 1042.65 354.225 1042.65 356.586C1042.65 358.948 1042.19 361.285 1041.28 363.46C1040.37 365.635 1039.04 367.603 1037.37 369.248L1016.32 390.602C1022.19 401.73 1026.58 413.598 1029.37 425.897H1056.6C1061.21 425.897 1065.64 427.757 1068.9 431.066C1072.17 434.376 1074 438.865 1074 443.545V481.488C1074 486.168 1072.17 490.657 1068.9 493.966C1065.64 497.276 1061.21 499.135 1056.6 499.135H1026.85C1023.24 511.191 1018.06 522.705 1011.45 533.372L1030.76 552.872C1032.43 554.517 1033.76 556.486 1034.67 558.661C1035.57 560.836 1036.04 563.173 1036.04 565.535C1036.04 567.896 1035.57 570.234 1034.67 572.409C1033.76 574.584 1032.43 576.552 1030.76 578.197L1004.66 604.668C1003.06 606.399 1001.14 607.786 998.996 608.744C996.856 609.702 994.547 610.213 992.208 610.246C989.87 610.279 987.548 609.834 985.383 608.936C983.218 608.038 981.253 606.707 979.607 605.021L958.553 583.668C947.605 589.674 935.896 594.128 923.754 596.903V624.522C923.754 629.202 921.921 633.691 918.657 637.001C915.394 640.31 910.969 642.17 906.354 642.17H869.293C864.678 642.17 860.252 640.31 856.989 637.001C853.726 633.691 851.893 629.202 851.893 624.522V593.992C839.939 590.37 828.503 585.179 817.877 578.55L798.65 597.962C797.028 599.657 795.088 601.004 792.943 601.924C790.799 602.843 788.494 603.317 786.166 603.317C783.837 603.317 781.533 602.843 779.388 601.924C777.244 601.004 775.303 599.657 773.681 597.962L747.582 571.491C745.911 569.846 744.583 567.878 743.676 565.703C742.769 563.528 742.302 561.19 742.302 558.829C742.302 556.467 742.769 554.13 743.676 551.955C744.583 549.78 745.911 547.811 747.582 546.166L768.635 524.813C762.727 513.702 758.337 501.828 755.586 489.517H728.355C723.741 489.517 719.315 487.658 716.052 484.348C712.789 481.039 710.956 476.55 710.956 471.87V434.192C710.956 429.511 712.789 425.023 716.052 421.713C719.315 418.403 723.741 416.544 728.355 416.544H758.109C761.718 404.488 766.897 392.975 773.507 382.308L754.281 362.542C752.61 360.897 751.282 358.929 750.375 356.754C749.468 354.579 749.001 352.241 749.001 349.88C749.001 347.518 749.468 345.181 750.375 343.006C751.282 340.831 752.61 338.863 754.281 337.218L780.38 310.746C782.002 309.052 783.943 307.705 786.087 306.785C788.232 305.865 790.536 305.391 792.865 305.391C795.193 305.391 797.497 305.865 799.642 306.785C801.786 307.705 803.727 309.052 805.349 310.746L826.402 332.1C837.357 326.107 849.064 321.655 861.202 318.864V291.245C861.202 286.565 863.035 282.076 866.298 278.767C869.561 275.457 873.987 273.598 878.601 273.598H915.489C920.104 273.598 924.529 275.457 927.792 278.767C931.055 282.076 932.888 286.565 932.888 291.245V321.335C944.775 324.996 956.127 330.248 966.644 336.953L985.871 317.452C987.491 315.771 989.426 314.436 991.563 313.524C993.699 312.612 995.994 312.143 998.311 312.143C1000.63 312.143 1002.92 312.612 1005.06 313.524C1007.2 314.436 1009.13 315.771 1010.75 317.452H1011.27ZM389.061 472.664C384.043 472.214 379.401 469.776 376.144 465.877C372.886 461.979 371.276 456.935 371.662 451.839C371.411 449.305 371.666 446.745 372.412 444.312C373.158 441.88 374.379 439.625 376.003 437.681C377.627 435.738 379.62 434.146 381.864 433.001C384.107 431.855 386.555 431.18 389.061 431.015H607.166C612.176 431.487 616.804 433.932 620.057 437.825C623.31 441.718 624.929 446.749 624.566 451.839C624.804 454.372 624.54 456.927 623.79 459.354C623.039 461.782 621.817 464.032 620.196 465.973C618.574 467.913 616.586 469.505 614.348 470.654C612.11 471.804 609.668 472.487 607.166 472.664H389.061ZM244.992 410.897H318.419C319.334 410.846 320.25 410.991 321.107 411.323C321.964 411.656 322.742 412.167 323.39 412.825C324.039 413.483 324.543 414.272 324.871 415.141C325.198 416.01 325.342 416.939 325.291 417.868V492.429C325.318 493.34 325.156 494.246 324.816 495.089C324.477 495.933 323.967 496.695 323.32 497.326C322.672 497.958 321.902 498.445 321.058 498.757C320.214 499.068 319.315 499.197 318.419 499.135H244.992C244.081 499.199 243.166 499.066 242.31 498.744C241.453 498.422 240.674 497.919 240.024 497.268C239.373 496.617 238.867 495.833 238.539 494.968C238.211 494.103 238.068 493.178 238.119 492.253V417.603C238.069 416.674 238.212 415.745 238.54 414.876C238.867 414.007 239.372 413.218 240.02 412.56C240.669 411.903 241.447 411.391 242.303 411.059C243.16 410.726 244.076 410.581 244.992 410.632V410.897ZM244.992 594.874H318.419C319.334 594.823 320.25 594.968 321.107 595.301C321.964 595.633 322.742 596.145 323.39 596.802C324.039 597.46 324.543 598.249 324.871 599.118C325.198 599.987 325.342 600.916 325.291 601.845V676.318C325.342 677.247 325.198 678.176 324.871 679.045C324.543 679.914 324.039 680.703 323.39 681.36C322.742 682.018 321.964 682.53 321.107 682.862C320.25 683.194 319.334 683.34 318.419 683.289H244.992C244.076 683.34 243.16 683.194 242.303 682.862C241.447 682.53 240.669 682.018 240.02 681.36C239.372 680.703 238.867 679.914 238.54 679.045C238.212 678.176 238.069 677.247 238.119 676.318V601.58C238.069 600.651 238.212 599.722 238.54 598.853C238.867 597.984 239.372 597.195 240.02 596.538C240.669 595.88 241.447 595.368 242.303 595.036C243.16 594.704 244.076 594.558 244.992 594.609V594.874ZM389.061 656.641C384.059 656.191 379.431 653.765 376.176 649.886C372.921 646.007 371.3 640.985 371.662 635.905C371.411 633.37 371.666 630.81 372.412 628.378C373.158 625.945 374.379 623.69 376.003 621.747C377.627 619.803 379.62 618.211 381.864 617.066C384.107 615.921 386.555 615.246 389.061 615.081H537.829C542.847 615.53 547.489 617.969 550.746 621.867C554.004 625.766 555.614 630.81 555.228 635.905C555.467 638.433 555.202 640.983 554.45 643.405C553.699 645.827 552.475 648.072 550.853 650.006C549.23 651.939 547.241 653.523 545.004 654.663C542.767 655.803 540.327 656.475 537.829 656.641H389.061ZM266.22 315.335C263.82 317.056 260.872 317.802 257.957 317.426C255.042 317.051 252.371 315.58 250.473 313.305L248.82 311.893L226.896 289.04C224.878 286.414 223.966 283.085 224.357 279.78C224.748 276.474 226.411 273.459 228.984 271.392C231.557 268.957 234.908 267.546 238.424 267.416C241.94 267.287 245.384 268.447 248.124 270.686L259.782 283.216L302.498 243.244C303.885 242.279 305.456 241.619 307.11 241.305C308.763 240.991 310.463 241.031 312.101 241.421C313.738 241.811 315.277 242.544 316.62 243.572C317.962 244.6 319.079 245.901 319.898 247.391C322.207 250.172 323.354 253.758 323.094 257.384C322.834 261.011 321.188 264.391 318.506 266.803L266.307 315.511L266.22 315.335ZM388.017 297.687C378.448 297.687 372.097 287.981 372.097 276.863C372.097 265.745 378.448 256.038 388.017 256.038H640.313C645.323 256.51 649.951 258.955 653.204 262.848C656.457 266.741 658.076 271.773 657.712 276.863C657.951 279.395 657.687 281.95 656.936 284.378C656.186 286.805 654.963 289.055 653.342 290.996C651.72 292.937 649.732 294.529 647.494 295.678C645.257 296.827 642.815 297.51 640.313 297.687H388.017ZM35.6737 625.493C61.1643 598.315 71.5171 594.874 105.794 588.521V31.4715C25.8429 39.413 35.0647 114.504 35.5867 184.301C35.5867 193.654 35.5867 198.595 35.5867 200.889V625.493H35.6737ZM135.722 111.68H885.909C888.663 111.665 891.391 112.212 893.932 113.289C896.473 114.365 898.774 115.948 900.699 117.945C902.652 119.91 904.203 122.246 905.263 124.82C906.323 127.395 906.871 130.156 906.876 132.946V194.713H868.162V146.181H135.722V603.786C135.733 606.89 134.639 609.893 132.641 612.243C130.643 614.594 127.875 616.134 124.847 616.581C10.7052 634.493 5.22428 771.792 121.541 791.469H868.162V733.849H907.05V809.735C907.031 815.367 904.809 820.762 900.873 824.735C898.936 826.716 896.633 828.289 894.095 829.364C891.556 830.439 888.834 830.995 886.083 831H120.497C89.1778 831 45.7655 806.117 27.5829 779.822C9.40021 753.527 3.74531 721.32 5.22428 683.024V184.653C5.22428 99.3269 4.35429 7.11772 121.541 5H123.107C126.484 5.04652 129.705 6.44573 132.069 8.89232C134.432 11.3389 135.745 14.6343 135.722 18.0593V111.68ZM892.608 384.425C906.959 384.425 920.987 388.741 932.919 396.828C944.85 404.914 954.15 416.407 959.642 429.854C965.134 443.301 966.57 458.098 963.771 472.373C960.971 486.648 954.061 499.761 943.914 510.053C933.766 520.345 920.838 527.353 906.763 530.193C892.689 533.032 878.1 531.575 864.842 526.005C851.584 520.435 840.252 511.003 832.28 498.901C824.307 486.799 820.052 472.571 820.052 458.016C820.052 448.352 821.928 438.783 825.575 429.854C829.221 420.926 834.565 412.813 841.303 405.98C848.04 399.146 856.039 393.725 864.842 390.027C873.645 386.329 883.08 384.425 892.608 384.425Z" fill="url(#paint0_linear_28_99)" stroke="url(#paint1_linear_28_99)" stroke-width="10"/>
<defs>
<linearGradient id="paint0_linear_28_99" x1="539.5" y1="5" x2="539.5" y2="831" gradientUnits="userSpaceOnUse">
<stop stop-color="#E050B0"/>
<stop offset="0.5" stop-color="#E050B0" stop-opacity="0.729412"/>
<stop offset="1" stop-color="#7ED7F7"/>
</linearGradient>
<linearGradient id="paint1_linear_28_99" x1="539.5" y1="5" x2="539.5" y2="831" gradientUnits="userSpaceOnUse">
<stop stop-color="#E050B0"/>
<stop offset="0.5" stop-color="#BA8FDB"/>
<stop offset="1" stop-color="#7ED7F7"/>
</linearGradient>
</defs>
</svg>
