<svg width="89" height="89" viewBox="0 0 89 89" fill="none" xmlns="http://www.w3.org/2000/svg">
<path d="M44.5 89C69.0797 89 89 69.0763 89 44.5C89 19.9237 69.0797 0 44.5 0C19.9237 0 0 19.9237 0 44.5C0 69.0763 19.9237 89 44.5 89ZM44.5 3.55986C67.0741 3.55986 85.4401 21.9259 85.4401 44.5C85.4401 67.0741 67.0741 85.4401 44.5 85.4401C21.9225 85.4401 3.55986 67.0741 3.55986 44.5C3.55986 21.9259 21.9225 3.55986 44.5 3.55986Z" fill="url(#paint0_linear_113_10)"/>
<path d="M32.2597 67.7338C32.6398 67.9315 33.0667 68.022 33.4944 67.9955C33.9221 67.969 34.3345 67.8265 34.6873 67.5834L65.239 46.4322C65.5511 46.216 65.8063 45.9272 65.9825 45.5908C66.1587 45.2544 66.2507 44.8802 66.2507 44.5004C66.2507 44.1207 66.1587 43.7465 65.9825 43.4101C65.8063 43.0736 65.5511 42.7849 65.239 42.5686L34.6873 21.4175C34.3348 21.1736 33.9222 21.0307 33.4942 21.0044C33.0663 20.9781 32.6393 21.0694 32.2595 21.2684C31.8797 21.4674 31.5616 21.7664 31.3396 22.1332C31.1176 22.5 31.0001 22.9206 31 23.3493V65.6516C30.9999 66.0805 31.1173 66.5014 31.3393 66.8684C31.5614 67.2354 31.8797 67.5347 32.2597 67.7338Z" fill="url(#paint1_linear_113_10)"/>
<defs>
<linearGradient id="paint0_linear_113_10" x1="44.5" y1="0" x2="44.5" y2="89" gradientUnits="userSpaceOnUse">
<stop stop-color="#FFA000" stop-opacity="0.6"/>
<stop offset="0.5" stop-color="#FFB300" stop-opacity="0.8"/>
<stop offset="1" stop-color="#FFCA28"/>
</linearGradient>
<linearGradient id="paint1_linear_113_10" x1="48.6254" y1="21" x2="48.6254" y2="68" gradientUnits="userSpaceOnUse">
<stop stop-color="#FFCA28"/>
<stop offset="0.5" stop-color="#FFB300" stop-opacity="0.8"/>
<stop offset="1" stop-color="#FFA000" stop-opacity="0.6"/>
</linearGradient>
</defs>
</svg>
