<svg width="620" height="620" viewBox="0 0 620 620" fill="none" xmlns="http://www.w3.org/2000/svg">
<path d="M0 620H137.778V482.222H0V620ZM241.111 620H378.889V482.222H241.111V620ZM482.222 620H620V482.222H482.222V620ZM0 378.889H137.778V241.111H0V378.889ZM241.111 378.889H378.889V241.111H241.111V378.889ZM482.222 378.889H620V241.111H482.222V378.889ZM0 137.778H137.778V0H0V137.778ZM241.111 137.778H378.889V0H241.111V137.778ZM482.222 0V137.778H620V0H482.222Z" fill="url(#paint0_linear_23_58)"/>
<defs>
<linearGradient id="paint0_linear_23_58" x1="310" y1="0" x2="310" y2="620" gradientUnits="userSpaceOnUse">
<stop stop-color="#7ED7F7"/>
<stop offset="0.5" stop-color="#BA8FDB"/>
<stop offset="1" stop-color="#E050B0" stop-opacity="0.878431"/>
</linearGradient>
</defs>
</svg>
