<svg width="874" height="502" viewBox="0 0 874 502" fill="none" xmlns="http://www.w3.org/2000/svg">
<path d="M525.095 127.452C525.079 130.241 524.98 133.028 524.799 135.809C524.709 137.184 524.571 138.555 524.433 139.926C523.964 144.575 525.002 136.094 524.318 140.692C523.461 146.457 522.067 152.122 520.351 157.665C519.96 158.93 519.524 160.179 519.09 161.427C518.832 162.168 517.208 166.354 518.889 162.163C517.915 164.592 516.815 166.963 515.678 169.31C513.227 174.366 510.322 179.167 507.164 183.763C504.686 187.37 509.374 180.88 506.74 184.357C505.968 185.376 505.162 186.366 504.356 187.356C502.745 189.334 501.037 191.221 499.299 193.074C497.56 194.928 495.729 196.684 493.871 198.404C492.942 199.264 491.984 200.09 491.026 200.916C489.594 202.113 489.738 202.003 491.458 200.585C490.797 201.108 490.131 201.623 489.459 202.129C485.43 205.203 481.147 207.895 476.746 210.333C474.531 211.561 472.256 212.661 469.963 213.717C473.913 211.897 469.973 213.644 469.266 213.928C467.691 214.56 466.092 215.12 464.492 215.671C459.628 217.342 454.627 218.537 449.588 219.437C445.233 220.214 453.267 219.006 448.861 219.558C447.562 219.721 446.258 219.832 444.954 219.943C441.874 220.207 438.78 220.267 435.691 220.246C433.052 220.229 430.415 220.056 427.785 219.831C426.484 219.712 425.187 219.567 423.892 219.395C428.313 219.949 423.965 219.348 423.185 219.208C417.733 218.235 412.384 216.7 407.154 214.828C405.96 214.401 404.781 213.928 403.603 213.455C399.596 211.847 406.853 214.993 402.932 213.187C400.641 212.131 398.406 210.946 396.194 209.72C391.427 207.078 386.908 203.963 382.587 200.584C385.995 203.25 382.643 200.59 382.06 200.089C381.107 199.258 380.168 198.409 379.244 197.543C377.385 195.823 375.614 194.001 373.877 192.147C372.137 190.293 370.493 188.343 368.882 186.366C368.076 185.376 367.304 184.357 366.531 183.338C369.293 186.982 365.92 182.359 365.437 181.638C362.566 177.353 360.061 172.806 357.798 168.138C357.23 166.965 356.701 165.77 356.173 164.576C355.852 163.851 354.235 159.7 355.864 163.899C354.75 161.025 353.801 158.084 352.922 155.122C351.393 149.969 350.319 144.676 349.526 139.345C350.217 143.986 349.557 139.387 349.473 138.559C349.343 137.185 349.237 135.807 349.156 134.428C348.944 131.174 348.925 127.909 348.983 124.649C349.032 121.875 349.228 119.107 349.473 116.346C349.547 115.524 350.163 110.9 349.526 115.56C349.71 114.213 349.941 112.875 350.173 111.537C351.163 105.815 352.683 100.206 354.52 94.7263C354.94 93.4753 355.403 92.2403 355.865 91.0063C354.288 95.2173 355.859 91.0653 356.174 90.3293C357.201 87.9303 358.353 85.5913 359.542 83.2773C360.726 80.9713 362.027 78.7343 363.363 76.5243C364.031 75.4213 364.735 74.3443 365.438 73.2683C365.91 72.5473 369.257 67.8843 366.532 71.5683C369.575 67.4543 372.957 63.6303 376.515 60.0113C378.295 58.2003 380.164 56.4903 382.06 54.8173C382.632 54.3133 385.972 51.6093 382.587 54.3213C383.902 53.2673 385.259 52.2703 386.62 51.2823C390.723 48.3053 395.071 45.7193 399.53 43.3893C400.655 42.8108 401.789 42.2537 402.933 41.7183C406.833 39.8623 399.615 43.1093 403.604 41.4503C406.348 40.3083 409.155 39.3443 411.979 38.4533C414.425 37.6823 416.908 37.0543 419.399 36.4743C420.654 36.1823 421.92 35.9393 423.186 35.6963C423.955 35.5483 428.316 34.8973 423.893 35.5093C429.563 34.7243 435.297 34.5403 441.007 34.7283C443.633 34.8143 446.251 35.0553 448.861 35.3473C453.273 35.8413 445.225 34.7473 449.588 35.4683C450.861 35.6783 452.126 35.9383 453.39 36.1983C458.8 37.3103 464.096 38.9783 469.267 40.9773C469.97 41.2493 473.942 42.9613 469.964 41.1883C471.118 41.7023 472.254 42.2603 473.389 42.8183C475.652 43.9293 477.855 45.1693 480.036 46.4483C482.208 47.7233 484.315 49.1193 486.395 50.5533C487.433 51.2693 488.446 52.0233 489.459 52.7773C490.066 53.2293 493.417 55.9343 490.059 53.1773C493.962 56.3833 497.592 59.9473 501.027 63.6963C502.746 65.5713 504.368 67.5413 505.957 69.5393C506.435 70.1413 509.001 73.6613 506.427 70.0943C507.176 71.1343 507.892 72.2013 508.607 73.2683C511.477 77.5533 513.983 82.0993 516.245 86.7673C516.815 87.9413 517.343 89.1353 517.872 90.3303C518.193 91.0553 519.809 95.2063 518.18 91.0073C519.134 93.4683 519.961 95.9833 520.743 98.5103C522.33 103.635 523.463 108.904 524.318 114.215C525.055 118.803 523.909 110.338 524.433 114.981C524.586 116.35 524.693 117.724 524.799 119.097C525.014 121.875 525.078 124.665 525.095 127.452C525.152 136.991 532.607 144.952 541.703 144.952C550.714 144.952 558.368 136.992 558.311 127.452C558.021 78.3673 530.616 31.8363 487.878 11.4953C443.199 -9.76972 391.236 -1.01572 354.837 33.4843C319.828 66.6693 306.995 121.464 322.07 168.229C329.376 190.89 342.722 211.521 360.499 226.477C379.763 242.683 402.01 251.962 426.482 254.702C460.238 258.482 494.239 245.088 519.208 221.42C544.192 197.738 558.101 162.633 558.31 127.452C558.367 117.912 550.713 109.952 541.702 109.952C532.607 109.952 525.152 117.914 525.095 127.452Z" fill="url(#paint0_linear_26_79)"/>
<path d="M556.932 250.858C559.257 252.42 561.541 254.048 563.782 255.739C564.224 256.072 567.869 259.023 564.809 256.502C565.892 257.395 566.947 258.323 568.003 259.252C572.573 263.273 576.813 267.698 580.815 272.34C582.663 274.485 584.413 276.721 586.128 278.984C583.708 275.79 586.527 279.604 586.849 280.069C587.657 281.245 588.446 282.435 589.216 283.638C592.598 288.855 595.548 294.368 598.206 300.026C598.816 301.343 599.406 302.669 599.975 304.005C601.902 308.468 598.727 300.681 600.472 305.237C601.52 307.976 602.441 310.767 603.317 313.573C605.24 319.73 606.641 326.057 607.703 332.437C607.802 333.033 608.472 338.039 607.947 333.786C608.134 335.301 608.273 336.821 608.41 338.342C608.69 341.413 608.821 344.497 608.904 347.58C608.947 349.173 608.937 350.767 608.937 352.359V441.58C608.937 442.712 608.903 443.272 608.851 444.398C608.635 449.054 609.544 440.672 608.771 445.204C608.544 446.536 608.197 447.841 607.85 449.142C607.644 449.913 606.106 454.124 607.774 449.971C606.796 452.406 605.5 454.682 604.116 456.877C601.793 460.563 606.38 454.115 603.65 457.468C602.57 458.794 601.359 459.994 600.137 461.17C597.039 464.148 603 459.102 599.576 461.662C598.557 462.424 597.473 463.085 596.393 463.744C595.305 464.407 594.162 464.962 593.022 465.515C596.863 463.652 593.004 465.339 592.235 465.595C591.01 466.002 589.753 466.284 588.498 466.566C584.223 467.526 592.143 466.273 587.734 466.65C586.82 466.728 585.889 466.741 584.972 466.741H288.988C287.815 466.741 287.491 466.71 286.323 466.65C281.905 466.423 289.859 467.38 285.559 466.566C284.295 466.327 283.057 465.961 281.822 465.595C281.01 465.34 280.205 465.058 279.41 464.749C281.415 465.701 281.575 465.771 279.892 464.96C277.618 463.856 275.501 462.424 273.465 460.9C276.85 463.432 273.603 460.864 273.003 460.286C272.084 459.403 271.244 458.433 270.407 457.467C267.581 454.203 272.37 460.484 269.94 456.876C269.217 455.802 268.59 454.66 267.964 453.522C267.334 452.376 266.808 451.171 266.284 449.97C268.118 454.168 266.11 448.776 265.861 447.844C265.513 446.534 265.284 445.195 265.056 443.859C265.827 448.378 265.184 443.904 265.142 443.002C265.115 442.418 265.12 441.826 265.12 441.239V355.453C265.12 350.758 265.142 346.078 265.418 341.387C265.508 339.854 265.648 338.324 265.787 336.796C265.841 336.202 266.479 331.147 265.908 335.396C266.309 332.405 266.854 329.436 267.444 326.481C268.707 320.165 270.498 313.975 272.605 307.918C273.086 306.533 273.612 305.166 274.136 303.798C272.665 307.633 274.464 303.119 274.693 302.59C275.846 299.925 277.121 297.32 278.436 294.74C281.27 289.178 284.553 283.883 288.091 278.793C290.811 274.879 285.994 281.528 288.867 277.743C289.726 276.61 290.62 275.507 291.514 274.403C293.301 272.197 295.187 270.083 297.102 268.003C299.018 265.922 301.027 263.938 303.065 261.99C304.089 261.021 305.128 260.07 306.181 259.136C306.706 258.664 311.333 254.832 308.203 257.349C310.763 255.29 313.424 253.378 316.122 251.527C323.693 246.332 326.822 236.113 322.08 227.584C317.673 219.656 306.951 216.095 299.357 221.306C257.811 249.812 231.903 298.455 231.903 350.922V428.314C231.903 442.962 232.242 456.408 238.688 470.027C248.017 489.736 268.956 501.743 289.465 501.743H584.876C609.003 501.743 630.017 485.695 638.621 462.233C642.945 450.443 642.154 437.674 642.154 425.286V350.696C642.154 323.598 635.169 296.791 622.309 273.357C610.536 251.904 593.464 233.926 573.699 220.637C566.059 215.501 555.414 218.93 550.976 226.915C546.265 235.386 549.315 245.737 556.932 250.858ZM786.181 224.762C786.157 227.528 786.007 230.291 785.733 233.042C786.196 228.397 785.692 232.908 785.545 233.76C785.315 235.083 785.015 236.391 784.715 237.698C784.122 240.285 783.323 242.815 782.46 245.313C781 249.537 783.952 241.912 782.207 245.997C781.526 247.591 780.748 249.137 779.958 250.672C778.779 252.966 777.423 255.154 776.016 257.298C773.623 260.941 778.256 254.446 775.624 257.894C774.852 258.906 774.027 259.873 773.205 260.838C771.559 262.771 769.767 264.559 767.935 266.292C767.017 267.159 766.057 267.974 765.096 268.788C768.543 265.866 764.163 269.347 763.448 269.849C761.383 271.297 759.209 272.565 757.008 273.767C755.902 274.371 754.765 274.912 753.628 275.451C757.552 273.589 753.673 275.347 752.937 275.63C750.558 276.543 748.111 277.243 745.652 277.869C744.408 278.185 743.148 278.428 741.89 278.67C740.004 278.983 740.197 278.967 742.47 278.626C741.609 278.73 740.744 278.816 739.878 278.887C737.249 279.125 734.603 279.124 731.966 279.045C730.657 279.005 729.351 278.887 728.047 278.769C723.643 278.371 731.666 279.415 727.335 278.67C724.818 278.238 722.34 277.582 719.888 276.854C718.674 276.494 717.48 276.062 716.288 275.63C715.499 275.336 714.716 275.027 713.938 274.702C715.974 275.634 716.148 275.704 714.459 274.911C712.192 273.835 710.014 272.564 707.874 271.235C706.809 270.572 705.778 269.849 704.748 269.128C704.122 268.689 700.758 266.035 704.129 268.789C699.905 265.339 696.172 261.261 692.829 256.882C695.492 260.369 692.944 256.895 692.507 256.229C691.803 255.158 691.154 254.046 690.507 252.936C689.205 250.705 688.08 248.365 687.019 245.998C685.201 241.947 688.3 249.509 686.765 245.314C686.312 244.077 685.925 242.814 685.539 241.552C684.627 238.572 683.983 235.509 683.45 232.431C682.662 227.882 683.818 236.312 683.356 231.681C683.219 230.308 683.157 228.929 683.094 227.551C682.969 224.772 683.069 221.988 683.244 219.215C683.298 218.378 683.879 213.768 683.242 218.434C683.425 217.095 683.68 215.769 683.934 214.444C684.52 211.39 685.377 208.401 686.335 205.456C686.584 204.693 688.208 200.541 686.506 204.728C686.997 203.521 687.551 202.343 688.103 201.167C689.204 198.825 690.486 196.582 691.823 194.382C692.489 193.285 693.21 192.228 693.932 191.172C691.463 194.788 693.89 191.271 694.392 190.636C696.234 188.31 698.271 186.164 700.374 184.102C701.277 183.217 702.223 182.384 703.169 181.553C704.595 180.35 704.448 180.466 702.732 181.9C703.395 181.387 704.068 180.887 704.749 180.4C707.128 178.665 709.651 177.161 712.217 175.759C713.324 175.155 714.461 174.615 715.598 174.076C711.511 176.015 716.649 173.766 717.479 173.466C720.688 172.305 724.001 171.498 727.335 170.856C731.652 170.025 723.652 171.245 728.047 170.758C729.787 170.565 731.538 170.495 733.287 170.442C736.354 170.35 739.423 170.563 742.471 170.901C738.063 170.413 742.344 170.943 743.154 171.099C744.826 171.42 746.475 171.858 748.118 172.311C749.747 172.76 751.345 173.321 752.937 173.896C753.726 174.19 754.509 174.5 755.287 174.824C753.25 173.892 753.077 173.823 754.766 174.616C757.409 175.87 759.937 177.377 762.406 178.975C763.458 179.657 764.476 180.399 765.492 181.141C766.966 182.281 766.833 182.147 765.096 180.739C765.741 181.276 766.377 181.824 767.004 182.385C769.211 184.327 771.248 186.473 773.205 188.689C774.324 189.957 775.367 191.297 776.396 192.646C773.623 189.014 776.927 193.629 777.403 194.383C779.008 196.924 780.39 199.612 781.675 202.343C782.019 203.077 783.633 207.184 782.01 202.981C782.642 204.618 783.171 206.295 783.687 207.976C784.599 210.956 785.243 214.019 785.775 217.097C786.073 219.085 786.057 218.881 785.734 216.485C785.832 217.394 785.914 218.304 785.981 219.217C786.131 221.059 786.165 222.912 786.181 224.762C786.267 234.3 793.67 242.262 802.789 242.262C811.777 242.262 819.483 234.302 819.397 224.762C819.166 199.271 808.871 174.401 790.49 157.634C770.625 139.513 745.508 132.99 719.776 136.886C696.11 140.469 675.154 156.937 662.476 177.813C649.328 199.46 646.454 227.803 653.898 252.119C660.103 272.386 673.111 289.346 690.057 300.772C707.814 312.745 728.935 315.744 749.45 312.637C789.743 306.535 819.019 266.522 819.397 224.762C819.483 215.222 811.777 207.262 802.789 207.262C793.67 207.262 786.267 215.224 786.181 224.762Z" fill="url(#paint1_linear_26_79)"/>
<path d="M809.782 310.399C810.934 311.179 812.075 311.978 813.202 312.796C813.669 313.135 817.275 316.064 814.211 313.516C816.353 315.298 818.37 317.242 820.337 319.233C822.305 321.224 824.133 323.364 825.908 325.546C826.28 326.004 829.034 329.806 826.695 326.522C827.789 328.059 828.801 329.661 829.799 331.269C831.302 333.693 832.633 336.228 833.903 338.793C834.54 340.081 835.117 341.402 835.693 342.723C834.045 338.947 835.914 343.362 836.125 343.945C837.123 346.697 837.922 349.523 838.651 352.365C839.019 353.801 839.318 355.254 839.617 356.706C839.775 357.477 840.709 363.818 840.176 359.462C841.731 372.151 840.783 385.507 840.783 398.257V429.354C840.783 430.275 840.74 431.193 840.655 432.109C840.986 429.703 840.965 429.48 840.595 431.441C840.411 432.309 838.893 436.347 840.601 432.23C840.105 433.424 839.453 434.538 838.803 435.644C836.65 439.317 841.107 432.976 838.354 436.156C837.795 436.803 834.661 439.478 838.018 436.81C837.032 437.593 835.949 438.227 834.872 438.856C831.26 440.967 838.186 437.711 834.229 439.077C833.386 439.368 829.285 440.059 833.646 439.493C832.854 439.596 831.795 439.628 831 439.628H683.282C674.228 439.628 666.674 447.588 666.674 457.128C666.674 466.668 674.228 474.628 683.282 474.628H822.581C834.285 474.628 845.88 474.11 855.763 466.252C866.953 457.356 874 444.296 874 429.267V373.091C874 351.072 868.765 329.57 856.966 311.204C848.923 298.688 838.607 288.337 826.549 280.181C818.923 275.022 808.256 278.492 803.827 286.458C799.104 294.946 802.179 305.256 809.782 310.399ZM191.005 224.762C190.981 227.528 190.831 230.291 190.557 233.042C191.021 228.397 190.517 232.908 190.369 233.76C190.14 235.083 189.839 236.391 189.54 237.698C188.947 240.285 188.148 242.815 187.284 245.313C185.824 249.537 188.777 241.912 187.031 245.997C186.35 247.591 185.572 249.137 184.783 250.672C183.603 252.966 182.248 255.154 180.84 257.298C178.447 260.941 183.081 254.446 180.449 257.894C179.676 258.906 178.852 259.873 178.029 260.838C176.384 262.771 174.592 264.559 172.759 266.292C171.842 267.159 170.881 267.974 169.921 268.788C173.368 265.866 168.987 269.347 168.272 269.849C166.206 271.297 164.033 272.565 161.832 273.767C160.726 274.371 159.589 274.912 158.453 275.451C162.376 273.589 158.497 275.347 157.761 275.63C155.383 276.543 152.936 277.243 150.477 277.869C149.233 278.185 147.974 278.428 146.715 278.67C144.829 278.983 145.022 278.967 147.296 278.626C146.433 278.73 145.569 278.816 144.703 278.887C142.073 279.125 139.428 279.124 136.792 279.045C135.483 279.005 134.177 278.887 132.872 278.769C128.468 278.371 136.49 279.415 132.16 278.67C129.643 278.238 127.166 277.582 124.714 276.854C123.5 276.494 122.306 276.062 121.114 275.63C120.325 275.337 119.541 275.027 118.764 274.702C120.8 275.634 120.975 275.704 119.285 274.911C117.017 273.835 114.839 272.564 112.7 271.235C111.634 270.572 110.604 269.849 109.575 269.128C108.949 268.689 105.583 266.035 108.954 268.789C104.731 265.339 100.999 261.261 97.6543 256.882C100.317 260.369 97.771 256.895 97.3335 256.229C96.6293 255.158 95.9811 254.046 95.3339 252.936C94.0318 250.705 92.9063 248.365 91.8453 245.998C90.0279 241.947 93.1264 249.509 91.5919 245.314C91.1392 244.077 90.7529 242.814 90.3667 241.552C89.4546 238.572 88.8103 235.509 88.2769 232.431C87.4883 227.882 88.6461 236.312 88.183 231.681C88.0463 230.308 87.9837 228.929 87.922 227.551C87.7957 224.772 87.8963 221.988 88.0719 219.215C88.1251 218.378 88.7059 213.768 88.07 218.434C88.2522 217.095 88.5066 215.769 88.7619 214.444C89.3474 211.39 90.2044 208.401 91.1629 205.456C91.4116 204.693 93.0353 200.541 91.3328 204.728C91.8234 203.521 92.3777 202.343 92.93 201.167C94.0318 198.825 95.313 196.582 96.6483 194.382C97.3145 193.285 98.0367 192.228 98.758 191.172C96.2896 194.788 98.7153 191.271 99.2183 190.636C101.06 188.31 103.098 186.164 105.201 184.102C106.103 183.217 107.05 182.384 107.996 181.553C109.421 180.35 109.275 180.466 107.558 181.9C108.222 181.387 108.895 180.887 109.576 180.4C111.955 178.665 114.478 177.161 117.044 175.759C118.15 175.155 119.287 174.615 120.423 174.076C116.337 176.015 121.476 173.766 122.304 173.466C125.513 172.305 128.827 171.498 132.161 170.856C136.477 170.025 128.478 171.245 132.873 170.758C134.613 170.565 136.364 170.495 138.112 170.442C141.18 170.35 144.248 170.563 147.297 170.901C142.889 170.413 147.17 170.943 147.978 171.099C149.651 171.42 151.3 171.858 152.944 172.311C154.572 172.76 156.171 173.321 157.763 173.896C158.552 174.19 159.336 174.499 160.114 174.824C158.077 173.892 157.902 173.823 159.593 174.616C162.237 175.87 164.765 177.377 167.231 178.975C168.285 179.657 169.302 180.399 170.319 181.141C171.791 182.281 171.66 182.147 169.923 180.739C170.568 181.276 171.203 181.825 171.829 182.385C174.037 184.327 176.074 186.473 178.031 188.689C179.151 189.957 180.193 191.297 181.224 192.646C178.451 189.014 181.754 193.629 182.231 194.383C183.836 196.924 185.217 199.612 186.501 202.343C186.847 203.077 188.458 207.184 186.836 202.981C187.468 204.618 187.998 206.295 188.512 207.976C189.424 210.956 190.069 214.019 190.602 217.097C190.898 219.085 190.883 218.881 190.559 216.485C190.658 217.394 190.741 218.304 190.807 219.217C190.954 221.059 190.987 222.912 191.005 224.762C191.091 234.3 198.494 242.262 207.613 242.262C216.601 242.262 224.307 234.302 224.221 224.762C223.99 199.271 213.695 174.401 195.315 157.634C175.45 139.513 150.332 132.99 124.6 136.886C100.935 140.469 79.9786 156.937 67.3005 177.813C54.1536 199.46 51.28 227.803 58.7241 252.119C64.9289 272.386 77.9353 289.346 94.8821 300.772C112.638 312.745 133.76 315.744 154.275 312.637C194.568 306.535 223.844 266.522 224.222 224.762C224.308 215.222 216.602 207.262 207.614 207.262C198.493 207.262 191.091 215.224 191.005 224.762ZM190.777 439.625H43.663C42.2765 439.625 38.2099 438.976 42.2832 439.719C41.0371 439.492 39.8318 439.076 38.6341 438.662C42.4891 439.993 38.9881 438.739 38.1027 438.222C37.3245 437.767 34.2828 435.147 37.4744 437.938C36.737 437.293 33.3243 433.051 35.9474 436.712C35.2034 435.673 34.6027 434.532 34.0057 433.398C32.0023 429.593 35.0924 436.889 33.796 432.721C33.5198 431.833 32.864 427.51 33.4012 432.107C33.3101 431.326 33.2731 430.112 33.2731 429.33V370.15C33.2731 367.057 33.4486 363.978 33.7267 360.901C34.1832 355.849 33.1459 364.508 33.926 359.536C34.1585 358.052 34.4632 356.582 34.7678 355.112C35.3714 352.203 36.1847 349.345 37.0644 346.518C37.501 345.115 38.0049 343.737 38.5079 342.359C37.0834 346.259 39.3383 340.528 39.6562 339.835C40.8625 337.209 42.2537 334.682 43.7001 332.196C44.4213 330.958 45.1995 329.757 45.9777 328.557C46.2871 328.079 49.0621 324.231 46.6696 327.447C50.3461 322.506 54.6215 318.086 59.1939 314.074C62.7139 310.984 56.4939 316.127 60.2008 313.284C61.315 312.43 62.469 311.633 63.6211 310.837C71.1773 305.62 74.3309 295.441 69.5791 286.894C65.1813 278.984 54.4364 275.382 46.8565 280.617C24.9197 295.763 8.8014 318.776 2.73711 345.809C-0.617712 360.76 0.0551495 376.146 0.0551495 391.373V429.155C0.0551495 454.259 19.8367 474.626 43.5283 474.626H190.774C199.828 474.626 207.382 466.666 207.382 457.126C207.382 447.586 199.83 439.625 190.777 439.625Z" fill="url(#paint2_linear_26_79)"/>
<defs>
<linearGradient id="paint0_linear_26_79" x1="437.078" y1="0" x2="437.078" y2="255.336" gradientUnits="userSpaceOnUse">
<stop stop-color="#E050B0"/>
<stop offset="0.5" stop-color="#BA8FDB"/>
<stop offset="1" stop-color="#7ED7F7"/>
</linearGradient>
<linearGradient id="paint1_linear_26_79" x1="525.65" y1="135.801" x2="525.65" y2="501.743" gradientUnits="userSpaceOnUse">
<stop stop-color="#E050B0"/>
<stop offset="0.5" stop-color="#BA8FDB"/>
<stop offset="1" stop-color="#7ED7F7"/>
</linearGradient>
<linearGradient id="paint2_linear_26_79" x1="437" y1="135.801" x2="437" y2="474.628" gradientUnits="userSpaceOnUse">
<stop stop-color="#E050B0"/>
<stop offset="0.5" stop-color="#BA8FDB"/>
<stop offset="1" stop-color="#7ED7F7"/>
</linearGradient>
</defs>
</svg>
