<svg width="182" height="182" viewBox="0 0 182 182" fill="none" xmlns="http://www.w3.org/2000/svg">
<path d="M143.193 32.0842L61.4528 31.5358C43.3952 31.4146 28.6607 45.6131 28.5424 63.249L28.0068 143.08C27.8885 160.716 42.4312 175.111 60.4888 175.232L142.229 175.781C160.287 175.902 175.021 161.703 175.14 144.067L175.675 64.2361C175.794 46.6002 161.251 32.2053 143.193 32.0842Z" fill="#333333" stroke="#333333" stroke-width="10.855"/>
<path d="M128.328 6.05399L41.0456 6.05399C21.7636 6.05399 6.13249 21.6851 6.13249 40.9671L6.13249 128.25C6.13249 147.532 21.7636 163.163 41.0456 163.163L128.328 163.163C147.61 163.163 163.241 147.532 163.241 128.25L163.241 40.9671C163.241 21.6851 147.61 6.05399 128.328 6.05399Z" fill="white" stroke="#333333" stroke-width="11.6377"/>
</svg>
