<svg width="264" height="264" viewBox="0 0 264 264" fill="none" xmlns="http://www.w3.org/2000/svg">
<g clip-path="url(#clip0_25_20)">
<path d="M60.5051 216.428C93.956 216.289 120.256 189.057 120.117 155.607C119.978 122.156 92.3918 95.1485 58.9409 95.2875C58.6063 95.2889 58.1017 95.3364 57.7671 95.3434C70.9494 84.7564 87.535 78.3408 105.718 78.2653C114.084 78.2305 120.788 71.4193 120.753 63.0594C120.718 54.6995 115.308 47.9387 106.942 47.9735C47.5664 48.226 0.852091 96.7257 1.09891 156.101C1.09896 156.113 1.09901 156.124 1.09908 156.141C1.23806 189.575 27.0656 216.567 60.5051 216.428Z" fill="#FFC700" fill-opacity="0.8"/>
<path d="M202.379 215.838C235.83 215.699 262.175 188.467 262.036 155.017C261.897 121.566 234.334 94.5584 200.878 94.6975C200.543 94.6989 200.05 94.7463 199.715 94.7534C212.897 84.1663 229.489 77.7508 247.672 77.6752C256.037 77.6404 262.747 70.8292 262.712 62.4693C262.677 54.1095 257.182 47.349 248.816 47.3838C189.441 47.6363 142.641 96.1363 142.888 155.512C142.888 155.523 142.888 155.535 142.888 155.552C143.027 188.985 168.94 215.977 202.379 215.838Z" fill="#FFC700" fill-opacity="0.8"/>
</g>
<defs>
<clipPath id="clip0_25_20">
<rect width="262" height="262" fill="white" transform="translate(263.543 262.454) rotate(179.762)"/>
</clipPath>
</defs>
</svg>
