<svg width="1440" height="117" viewBox="0 0 1440 117" fill="none" xmlns="http://www.w3.org/2000/svg">
<path fill-rule="evenodd" clip-rule="evenodd" d="M1442 100.33L1381.92 76.6436C1321.83 52.9569 1201.67 5.94794 1081.5 0.481776C961.333 -4.61998 841.167 32.1855 721 45.3043C600.833 58.4231 480.667 47.8552 360.5 47.8552C240.333 47.8552 120.167 58.4231 60.0833 63.5248L0 68.6266V116H60.0833C120.167 116 240.333 116 360.5 116C480.667 116 600.833 116 721 116C841.167 116 961.333 116 1081.5 116C1201.67 116 1321.83 116 1381.92 116H1442V100.33Z" fill="#CED4DA" fill-opacity="0.4"/>
<path fill-rule="evenodd" clip-rule="evenodd" d="M0 101.33L60.0833 77.6436C120.167 53.9569 240.333 6.94794 360.5 1.48178C480.667 -3.61998 600.833 33.1855 721 46.3043C841.167 59.4231 961.333 48.8552 1081.5 48.8552C1201.67 48.8552 1321.83 59.4231 1381.92 64.5248L1442 69.6266V117H1381.92C1321.83 117 1201.67 117 1081.5 117C961.333 117 841.167 117 721 117C600.833 117 480.667 117 360.5 117C240.333 117 120.167 117 60.0833 117H0V101.33Z" fill="#303035"/>
</svg>
