<svg width="1594" height="896" viewBox="0 0 1594 896" fill="none" xmlns="http://www.w3.org/2000/svg">
<g opacity="0.4">
<path d="M10.0707 553.173C7.37443 573.116 8.96756 593.351 14.7598 612.731C20.6975 631.726 31.685 649.423 47.3339 661.34C51.1527 664.303 55.2471 666.952 59.57 669.259C63.8222 671.442 68.291 673.25 72.916 674.657C81.9293 677.409 91.4275 678.575 100.912 678.095C119.752 677.152 137.87 670.634 154.351 661.213C155.322 660.627 156.488 660.016 157.348 659.456L159.706 657.826C161.26 656.655 162.814 655.534 164.312 654.236C167.439 651.671 170.334 648.878 172.969 645.884C178.758 639.437 183.877 632.506 188.257 625.182C197.893 609.056 206.238 592.308 213.229 575.071C228.212 539.423 241.391 501.229 256.208 462.754C259.907 453.129 263.755 443.462 267.75 433.752C271.663 424.025 275.908 414.298 280.319 404.521C289.22 384.152 299.803 364.437 311.978 345.548C315.308 340.456 318.887 335.567 323.077 330.551C325.13 328.004 327.377 325.458 329.763 323.064C332.15 320.671 334.647 318.354 337.199 316.164C347.059 307.864 358.136 300.87 370.106 295.386C392.831 284.743 415.444 278.988 437.253 273.055C459.061 267.122 480.453 261.852 501.069 254.798C521.351 248.075 540.739 239.268 558.864 228.546C576.495 218.061 592.075 204.925 604.951 189.689C617.576 174.412 627.536 157.657 632.004 140.622C634.238 132.515 635.173 124.151 634.778 115.796C634.322 108.305 632.296 100.965 628.813 94.1779C625.652 88.1768 621.173 82.8399 615.658 78.502C610.144 74.1641 603.712 70.9187 596.766 68.9696C589.71 66.883 582.343 65.8178 574.93 65.8122C567.013 65.7859 559.121 66.6409 551.428 68.3585C549.431 68.7913 547.433 69.3261 545.435 69.8608L538.332 71.8214C533.643 73.1964 528.954 74.6224 524.459 76.2011C515.247 79.333 506.202 82.8214 497.212 86.7936C479.26 94.6872 461.336 104.618 441.442 115.261C420.497 126.737 398.667 136.796 376.127 145.358C352.732 153.839 328.499 160.226 303.765 164.43C300.713 165.016 297.661 165.398 294.609 165.882L286.285 167.104C281.762 167.791 277.156 168.606 272.578 169.65C263.385 171.509 254.3 173.795 245.359 176.5C209.566 187.296 177.353 204.509 152.825 228.571C140.193 240.86 129.278 254.546 120.334 269.312C115.591 277.043 111.374 285.037 107.71 293.247C103.831 301.753 100.442 310.439 97.5547 319.27C94.7801 328.259 92.0054 337.502 90.0355 347C89.0088 351.43 87.9545 357.185 86.8724 362.532C85.7903 367.879 84.4585 373.227 83.0711 378.497C77.5926 399.405 70.5278 419.936 61.9285 439.939C53.6046 459.724 43.8934 478.72 34.1822 497.358C29.2988 506.678 24.4432 515.946 19.9483 525.368C15.3197 534.191 11.9977 543.542 10.0707 553.173ZM1.46931 552.333C2.19478 546.954 3.47691 541.651 5.2983 536.495C6.96308 531.402 8.93306 526.539 10.8476 521.676C14.732 511.949 18.783 502.375 22.3623 492.699C25.9415 483.023 29.2433 473.321 32.018 463.518C34.7926 453.715 36.9291 443.81 38.7048 433.93C42.0118 414.284 43.1922 394.385 42.2286 374.525C42.0344 369.611 41.6182 364.696 41.2297 359.808C40.8413 354.919 40.1476 350.412 39.6482 344.53C38.6175 333.387 38.2563 322.2 38.5661 311.02C39.0979 287.746 43.2653 264.662 50.9409 242.474C59.0303 219.3 71.3901 197.571 87.4828 178.231C103.876 158.817 123.458 141.86 145.528 127.967C167.188 114.35 190.742 103.465 215.56 95.6038C227.787 91.6764 240.269 88.4533 252.934 85.9534C259.26 84.6802 265.669 83.6362 272.19 82.745L287.95 80.6316C307.344 77.9566 326.456 73.7741 345.079 68.1293C364.412 62.086 383.268 54.8289 401.515 46.4094C420.938 37.752 442.33 27.7705 465.498 19.4696C477.181 15.2708 489.09 11.6248 501.18 8.54597C507.229 7.0182 513.333 5.66866 519.437 4.42097L528.621 2.71495C532.089 2.1293 535.558 1.62005 539.081 1.21264C553.467 -0.538194 568.052 -0.392429 582.393 1.64551C597.294 3.69977 611.69 8.12912 624.928 14.7335C638.453 21.5086 650.345 30.7243 659.889 41.8261C669.29 52.7794 676.043 65.4434 679.7 78.9765C683.118 91.7768 683.889 105.052 681.975 118.113C680.239 130.286 676.595 142.164 671.154 153.379C660.666 174.04 646.338 192.866 628.813 209.016C620.493 216.915 611.593 224.283 602.176 231.067C592.823 237.724 583.059 243.879 572.932 249.502C532.616 271.858 488.444 284.641 448.074 300.835C427.874 308.805 408.424 317.845 393.136 329.023C385.97 334.232 379.662 340.364 374.407 347.229C373.214 348.858 372.104 350.488 371.078 352.143C370.051 353.798 369.135 355.428 368.164 357.236C366.277 360.852 364.446 364.875 362.615 369.051C359.174 377.428 356.15 386.569 353.348 395.914C350.545 405.259 347.798 414.833 345.024 424.509L336.95 453.868C334.175 463.722 331.4 473.652 328.459 483.608C316.473 523.356 302.544 563.69 281.291 603.081C270.384 623.549 256.88 642.763 241.059 660.321C236.813 664.803 232.402 669.233 227.546 673.511C222.718 677.9 217.563 681.975 212.119 685.708C206.489 689.642 200.534 693.167 194.306 696.25C191.121 697.802 187.852 699.204 184.512 700.451L179.406 702.284C177.769 702.845 176.326 703.227 174.773 703.71C162.472 707.385 149.773 709.827 136.899 710.993C123.833 712.203 110.645 711.663 97.7489 709.389C84.9175 707.12 72.6167 702.811 61.4013 696.657C55.9115 693.717 50.7369 690.306 45.9466 686.472C41.2059 682.751 36.8327 678.652 32.8781 674.224C18.0232 657.026 8.05954 636.708 3.88324 615.099C-0.292561 594.401 -1.10603 573.25 1.46931 552.333Z" fill="#E0E0E0"/>
<path d="M1190.19 828.134C1168.92 830.357 1148.18 834.439 1128.52 840.274C1108.67 845.904 1089.56 852.646 1070.34 859.575C1060.66 862.977 1051 866.519 1041 869.813C1030.85 873.298 1020.4 876.396 1009.72 879.092C998.224 882.007 986.225 883.96 974.001 884.907C959.981 885.975 945.779 884.918 932.463 881.814C928.949 880.963 925.482 879.849 922.107 878.813C918.733 877.777 915.591 876.308 912.357 874.978C909.122 873.648 906.353 872.009 903.444 870.447C900.535 868.885 898.068 867.137 895.415 865.436C885.659 858.751 877.413 851.161 870.934 842.903C864.613 834.809 859.814 826.228 856.646 817.355C853.693 809.01 851.786 800.516 850.945 791.961C849.667 776.295 850.103 760.587 852.248 744.963L854.878 723.141C855.32 719.584 855.622 716.074 855.971 712.579L856.437 707.367L856.739 702.233C857.107 695.572 856.96 688.903 856.297 682.252C855.736 675.942 854.358 669.676 852.178 663.523C849.703 657.086 846.37 650.808 842.218 644.764C838.006 638.393 833.166 631.959 827.93 625.526C817.458 612.597 805.59 599.714 794.001 586.383L785.414 576.3C782.621 572.867 779.852 569.434 777.222 565.892C771.717 558.771 767.049 551.377 763.26 543.777C759.224 535.864 757.111 527.574 757 519.218C757.067 510.702 760.034 502.306 765.68 494.66C768.442 490.989 771.731 487.503 775.5 484.252L781.248 479.612C783.203 478.066 785.251 476.813 787.252 475.406C795.461 469.927 804.411 464.962 813.99 460.575C823.725 456.246 834.066 452.553 844.871 449.548C847.594 448.852 850.27 448.002 853.062 447.398L861.417 445.512C867.048 444.445 872.726 443.377 878.497 442.604C901.661 439.417 925.409 438.537 948.962 439.991C960.737 440.628 972.446 441.717 984.031 443.254C995.667 444.692 1007.07 446.702 1018.4 448.898C1024.01 450.074 1029.71 451.156 1035.23 452.486L1043.58 454.42L1051.84 456.507C1062.83 459.343 1073.62 462.436 1084.24 465.786C1089.54 467.488 1094.78 469.235 1100.04 470.983C1105.3 472.73 1110.42 474.648 1115.54 476.55C1120.65 478.452 1125.77 480.37 1130.78 482.396C1135.78 484.422 1140.83 486.417 1145.72 488.582L1173.95 500.722C1178.6 502.702 1183.25 504.557 1187.91 506.491L1194.89 509.352L1201.87 512.12C1238.95 526.82 1277.35 540 1316.85 551.587C1336.68 557.433 1356.72 563.047 1377.91 569.403C1388.48 572.496 1399.35 576.099 1410.49 580.228C1422.42 584.673 1433.69 589.851 1444.17 595.693C1455.32 601.978 1465.21 609.187 1473.6 617.143C1481.56 624.74 1488.3 632.873 1493.69 641.408C1496.48 645.491 1498.6 649.512 1500.83 653.564C1501.9 655.574 1502.81 657.569 1503.79 659.564C1504.76 661.559 1505.74 663.539 1506.53 665.75L1509.05 672.076L1510.26 675.246L1511.19 678.54C1512.57 682.92 1513.55 687.351 1514.14 691.809C1514.47 694.067 1514.79 696.325 1515.03 698.583V708.821C1515.03 709.965 1514.75 711.14 1514.61 712.3L1513.54 719.244C1513.03 721.548 1512.21 723.884 1511.51 726.126L1510.42 729.544C1510 730.673 1509.42 731.802 1508.91 732.915C1507.86 735.142 1506.84 737.385 1505.7 739.565C1504.56 741.746 1502.93 743.849 1501.51 745.952C1495.76 754.122 1488.17 761.663 1479 768.315L1475.75 770.758C1474.61 771.532 1473.42 772.305 1472.26 773.001C1469.93 774.47 1467.6 775.955 1465.27 777.347C1460.29 779.929 1455.5 782.682 1450.29 784.863C1440.31 789.337 1429.77 793.242 1418.8 796.539C1408.19 799.676 1397.31 802.407 1386.22 804.72C1364.74 809.16 1342.86 812.703 1320.71 815.329C1315.25 815.963 1309.8 816.705 1304.43 817.247C1299.05 817.788 1293.56 818.53 1288.14 819.041C1282.71 819.551 1277.22 820.139 1271.85 820.68L1255.56 822.226L1190.19 828.134ZM1188.98 823.402C1210.55 821.329 1231.96 818.762 1253.07 815.36L1260.98 814.107L1268.84 812.715C1274.08 811.834 1279.27 810.767 1284.44 809.731C1294.81 807.72 1305.01 805.369 1315.06 802.864C1334.99 797.968 1354.21 791.886 1372.49 784.693C1381.35 781.2 1389.9 777.369 1398.09 773.217C1405.86 769.201 1413.13 764.774 1419.83 759.979C1423.25 757.737 1425.92 755.185 1428.9 752.834L1432.79 749.107C1433.42 748.489 1434.09 747.886 1434.7 747.252L1436.3 745.334C1440.67 740.468 1443.99 735.221 1446.17 729.745C1446.63 728.4 1447.1 727.085 1447.66 725.786L1448.57 721.734C1448.71 721.054 1448.91 720.404 1449.01 719.724L1449.12 717.651C1449.12 716.259 1449.4 714.914 1449.43 713.538L1449.19 709.331C1449.19 708.635 1449.19 707.955 1449.08 707.243L1448.68 705.094L1447.98 700.825L1446.7 696.464C1444.86 690.441 1442.35 684.517 1439.19 678.741C1438.54 677.272 1437.58 675.648 1436.67 674.102C1435.77 672.555 1434.91 671.008 1433.95 669.462C1431.97 666.539 1430.13 663.508 1428.02 660.802C1424.25 655.562 1419.72 650.583 1414.47 645.94C1409.62 641.722 1404.03 637.905 1397.81 634.573C1385.27 627.799 1368.02 621.876 1348.59 615.783C1338.94 612.69 1328.88 609.689 1318.67 606.503C1308.45 603.318 1298.14 600.024 1287.86 596.683C1246.28 582.999 1206.22 567.376 1167.96 549.932L1160.77 546.7L1153.79 543.375C1149.14 541.148 1144.32 538.967 1139.67 536.694L1112.49 523.363C1103.83 519.141 1095.03 515.058 1086.21 510.991L1072.86 505.099C1068.36 503.212 1063.87 501.294 1059.34 499.423C1050.24 495.804 1041.14 492.123 1031.81 488.845L1024.83 486.324L1017.84 483.927C1013.19 482.288 1008.4 480.834 1003.63 479.365C984.734 473.54 965.041 468.941 944.82 465.632C934.861 464.081 924.753 462.991 914.567 462.369C904.506 461.73 894.376 461.73 884.315 462.369C864.176 463.477 844.657 467.539 827.162 474.261C818.447 477.693 810.324 481.748 802.937 486.355C801.145 487.546 799.213 488.69 797.491 489.897L792.651 493.546C789.696 496.044 787.101 498.721 784.902 501.542C780.553 507.139 778.37 513.368 778.549 519.667C778.877 526.313 780.972 532.868 784.739 539.029C788.715 545.57 793.543 551.867 799.167 557.85C804.892 563.943 811.175 569.944 817.9 575.821C831.234 587.621 845.825 599.142 860.16 611.39C867.304 617.577 874.309 623.948 880.964 630.784C887.977 637.842 894.066 645.287 899.162 653.038C909.727 669.663 913.799 686.489 915.452 702.666C918.64 734.957 912.426 764.665 913.334 791.296C913.753 804.581 915.94 816.845 921.758 827.701C924.68 833.164 928.628 838.361 933.51 843.166C937.625 847.471 943.046 851.158 949.427 853.992C956.403 856.86 964.261 858.647 972.419 859.219C982.049 859.895 991.77 859.749 1001.34 858.786C1011.7 857.803 1021.97 856.424 1032.09 854.657C1042.37 852.785 1052.75 850.729 1063.04 848.471C1083.7 843.986 1104.23 838.867 1125.08 834.32C1145.9 829.479 1167.31 825.826 1189.07 823.402H1188.98Z" fill="#E0E0E0"/>
<path d="M1065.01 116.969C1074.07 114.877 1083.26 113.349 1092.53 112.396C1096.95 111.866 1101.24 111.56 1105.56 111.197C1109.89 110.835 1114.12 110.751 1118.32 110.668C1126.73 110.389 1134.92 110.668 1143.12 110.835C1175.59 112.034 1206.62 116.606 1237.28 120.984L1248.13 122.489L1252.94 123.131L1257.87 123.493C1261.16 123.772 1264.58 123.688 1267.97 123.772C1271.35 123.855 1274.86 123.493 1278.4 123.242C1281.94 122.991 1285.42 122.657 1289.01 122.127C1292.61 121.597 1296.12 121.151 1299.75 120.482C1306.88 119.143 1314.2 117.694 1321.4 115.853C1350.55 108.772 1379.36 98.2326 1411.54 91.4574C1428.52 87.7229 1446.05 86.4995 1463.45 87.8329C1477.61 89.1166 1491.4 92.7236 1504.18 98.4835C1506.33 99.4594 1508.54 100.379 1510.62 101.272L1516.67 104.589C1524.67 109.175 1532.24 114.38 1539.29 120.147C1542.86 122.935 1546.24 126.448 1549.69 129.71C1553.14 132.973 1555.89 136.653 1558.97 140.194C1562.06 143.735 1564.36 147.527 1567.02 151.346C1568.38 153.242 1569.43 155.166 1570.52 156.923L1573.85 162.722L1575.48 165.677L1576.84 168.633L1579.5 174.599C1581.34 178.524 1582.91 182.546 1584.22 186.644C1589.6 202.475 1592.79 218.868 1593.72 235.436C1594.53 251.432 1593.58 267.463 1590.87 283.28C1588.11 298.854 1583.63 314.128 1577.51 328.866C1575.97 332.518 1574.33 336.143 1572.67 339.712C1571.01 343.281 1569.04 346.822 1567.2 350.307C1565.35 353.792 1563.36 357.277 1561.15 360.679C1558.94 364.08 1557.04 367.454 1554.71 370.772C1545.79 383.927 1535.73 396.394 1524.62 408.049C1513.79 419.572 1501.96 430.267 1489.25 440.028C1476.94 449.631 1463.69 458.154 1449.66 465.484C1435.76 472.699 1420.78 478.006 1405.22 481.237C1389.22 484.323 1372.66 483.96 1356.84 480.177C1340.91 476.219 1325.65 470.262 1311.48 462.473C1283.33 446.904 1256.99 428.714 1232.86 408.188C1220.77 398.151 1209.43 387.695 1198.66 376.961C1197.64 375.941 1196.51 375.008 1195.31 374.173L1192.5 371.915C1190.32 370.548 1188.66 369.127 1186.45 367.732L1183.42 365.725C1182.31 365.084 1181.16 364.498 1180.1 363.829C1178.01 362.491 1175.41 361.376 1173.23 360.065C1162.48 354.659 1151.37 349.873 1139.97 345.734L1120.08 338.513L1109.43 334.693L1098.34 330.455C1090.81 327.667 1082.88 324.126 1074.84 320.446C1066.23 316.378 1057.91 311.805 1049.93 306.756C1040.91 301.059 1032.56 294.519 1025.01 287.239C1016.81 279.263 1009.82 270.296 1004.24 260.585L1002.06 256.905L1000.22 253.141C999.037 250.603 997.797 248.066 996.708 245.501C994.729 240.451 993.093 235.293 991.81 230.055L990.086 222.36L989.028 214.888C988.378 210.022 988.035 205.125 988 200.222C988 198.94 988 197.964 988 196.486C988 194.506 988 192.583 988.272 190.659C988.51 186.599 989.148 182.568 990.177 178.614C990.389 177.638 990.661 176.607 990.933 175.603L991.991 172.536C992.717 170.529 993.533 168.521 994.35 166.542C996.175 162.674 998.329 158.945 1000.79 155.389C1002.03 153.688 1003.3 152.043 1004.63 150.426C1005.3 149.618 1005.96 148.781 1006.63 148.056L1008.71 145.909C1010.07 144.543 1011.49 143.121 1012.98 141.839C1014.46 140.556 1015.79 139.497 1017.27 138.326C1018.75 137.155 1020.29 136.123 1021.65 135.119L1025.92 132.331C1027.34 131.495 1028.94 130.547 1030.21 129.822L1034.35 127.703C1044.1 123.059 1054.38 119.457 1065.01 116.969Z" fill="#E0E0E0"/>
<path d="M297.223 770.541C296.394 772.718 295.428 774.847 294.331 776.911C293.824 777.905 293.288 778.842 292.76 779.794C292.231 780.745 291.657 781.638 291.087 782.526C289.971 784.315 288.768 785.983 287.588 787.667C282.8 794.264 277.513 800.087 272.317 805.862L270.487 807.913L269.681 808.825L268.917 809.801C268.399 810.449 267.939 811.172 267.448 811.866C266.957 812.559 266.543 813.341 266.101 814.113C265.659 814.885 265.242 815.656 264.85 816.479C264.458 817.303 264.06 818.096 263.693 818.945C262.974 820.619 262.254 822.345 261.632 824.102C259.034 831.163 257.203 838.638 254.119 846.286C252.523 850.347 250.329 854.168 247.619 857.607C245.374 860.377 242.695 862.746 239.71 864.603C239.207 864.914 238.706 865.245 238.229 865.555L236.693 866.351C234.619 867.377 232.478 868.226 230.292 868.889C229.213 869.242 228.008 869.457 226.847 869.719C225.685 869.981 224.534 870.04 223.366 870.188C222.197 870.335 221.086 870.284 219.919 870.305C219.334 870.323 218.785 870.275 218.267 870.256L216.594 870.139L215.751 870.066L214.945 869.937L213.33 869.657C212.257 869.49 211.199 869.256 210.162 868.957C206.113 867.865 202.252 866.239 198.672 864.117C195.226 862.052 192.02 859.614 189.103 856.84C186.246 854.087 183.69 851.02 181.475 847.686C180.93 846.854 180.403 846.008 179.892 845.163C179.381 844.318 178.918 843.414 178.45 842.542C177.982 841.671 177.534 840.769 177.134 839.833C176.734 838.898 176.298 838.03 175.932 837.082C174.438 833.386 173.247 829.548 172.371 825.606C171.485 821.739 170.91 817.78 170.653 813.768C170.372 809.863 170.448 805.912 170.881 801.967C171.321 798.062 172.308 794.201 173.81 790.507C175.403 786.743 177.792 783.345 180.791 780.577C183.841 777.813 187.214 775.466 190.816 773.603C197.993 769.915 205.462 766.969 213.109 764.812C216.89 763.695 220.652 762.794 224.392 762.052C224.748 761.981 225.099 761.877 225.442 761.742L226.305 761.472C226.894 761.21 227.422 761.062 228.021 760.797L228.862 760.448C229.152 760.304 229.434 760.147 229.722 760.02C230.292 759.772 230.887 759.386 231.465 759.116C234.094 757.631 236.643 755.986 239.097 754.19L243.382 751.055L245.664 749.371L248.098 747.652C249.731 746.473 251.575 745.318 253.466 744.156C255.517 742.931 257.632 741.836 259.798 740.879C262.244 739.798 264.773 738.973 267.345 738.416C270.153 737.822 272.997 737.62 275.8 737.814L276.871 737.874L277.913 738.016C278.606 738.125 279.308 738.221 279.994 738.353C281.322 738.646 282.626 739.026 283.896 739.491L285.74 740.207L287.444 741.031C288.548 741.575 289.616 742.188 290.642 742.866C290.91 743.045 291.113 743.181 291.421 743.388C291.833 743.664 292.234 743.933 292.597 744.259C293.409 744.876 294.16 745.572 294.839 746.339C295.013 746.519 295.19 746.72 295.361 746.917L295.852 747.566C296.169 747.997 296.473 748.448 296.771 748.895C297.322 749.815 297.797 750.785 298.194 751.794C298.375 752.29 298.54 752.785 298.691 753.288C298.767 753.539 298.848 753.795 298.906 754.035L299.062 754.769C299.156 755.244 299.254 755.738 299.314 756.226C299.374 756.714 299.409 757.139 299.446 757.611C299.483 758.084 299.482 758.549 299.501 758.973L299.486 760.25C299.462 760.663 299.435 761.129 299.409 761.495L299.271 762.654C298.877 765.333 298.19 767.979 297.223 770.541Z" fill="#E0E0E0"/>
<path d="M706.315 641.969C708.419 652.344 709.29 662.874 708.915 673.398C708.586 693.521 703.237 711.93 697.413 729.903C691.608 747.803 684.199 765.297 675.25 782.234C666.138 799.238 654.637 815.241 640.999 829.893C626.825 845.196 610.303 858.815 591.874 870.387C571.231 882.683 547.499 890.714 522.565 893.842C509.346 895.535 495.925 895.765 482.636 894.527C469.807 893.308 457.271 890.441 445.454 886.024C434.928 882.019 425.073 876.845 416.148 870.636C408.206 865.027 400.67 859.015 393.582 852.632C389.922 849.221 386.624 845.541 383.728 841.636C381.057 837.541 378.779 833.27 376.914 828.865C373.362 819.755 370.907 810.362 369.588 800.83C366.418 781.103 366.159 761.117 368.818 741.335C371.348 722.353 378.604 704.046 390.102 687.634C401.3 672.166 416.021 658.758 433.402 648.198C450.729 637.483 471.097 629.789 490.988 622.781C510.88 615.772 530.808 609.542 549.38 602.066C567.953 594.59 586.013 586.305 608.652 580.262C614.696 578.652 620.901 577.515 627.188 576.866C634.491 576.041 641.897 576.135 649.168 577.147C658.986 578.808 668.134 582.595 675.726 588.142C677.598 589.548 679.383 591.035 681.075 592.597C682.65 594.123 684.225 595.712 685.727 597.332C688.328 600.328 690.667 603.482 692.724 606.77C694.637 609.801 696.349 612.921 697.852 616.115C699.134 619.012 700.563 622.344 701.516 624.992L703.018 629.384L704.226 633.652C705.179 636.517 705.728 639.196 706.315 641.969Z" fill="#E0E0E0"/>
<path d="M1532.97 526.054C1533.48 528.591 1533.69 531.166 1533.6 533.739C1533.52 538.66 1532.21 543.161 1530.79 547.556C1529.37 551.932 1527.56 556.21 1525.37 560.351C1523.14 564.509 1520.33 568.422 1517 572.004C1513.53 575.746 1509.49 579.076 1504.98 581.906C1499.94 584.912 1494.13 586.876 1488.04 587.641C1484.81 588.055 1481.52 588.111 1478.27 587.809C1475.14 587.51 1472.07 586.809 1469.18 585.729C1466.61 584.75 1464.2 583.485 1462.02 581.967C1460.08 580.595 1458.23 579.125 1456.5 577.564C1455.6 576.73 1454.8 575.831 1454.09 574.876C1453.44 573.875 1452.88 572.83 1452.42 571.753C1451.56 569.526 1450.96 567.229 1450.63 564.898C1449.86 560.075 1449.79 555.188 1450.44 550.351C1451.06 545.709 1452.84 541.233 1455.65 537.22C1458.39 533.438 1461.99 530.16 1466.24 527.578C1470.47 524.958 1475.45 523.076 1480.32 521.363C1485.18 519.649 1490.05 518.126 1494.59 516.298C1499.14 514.47 1503.55 512.444 1509.09 510.966C1510.57 510.572 1512.08 510.295 1513.62 510.136C1515.41 509.934 1517.22 509.957 1518.99 510.204C1521.39 510.611 1523.63 511.537 1525.49 512.893C1525.95 513.237 1526.38 513.6 1526.8 513.982C1527.18 514.355 1527.57 514.744 1527.93 515.14C1528.57 515.872 1529.14 516.644 1529.64 517.448C1530.11 518.189 1530.53 518.952 1530.9 519.733C1531.21 520.441 1531.56 521.256 1531.79 521.903L1532.16 522.977L1532.46 524.021C1532.69 524.721 1532.82 525.376 1532.97 526.054Z" fill="#E0E0E0"/>
<path d="M825.965 134.624C824.788 131.344 824.003 127.957 823.622 124.511C822.768 117.942 823.622 111.693 824.651 105.563C825.677 99.4577 827.243 93.4082 829.334 87.4674C831.475 81.4968 834.437 75.7389 838.157 70.3194C842.019 64.6623 846.722 59.4421 852.141 54.7982C858.243 49.8133 865.549 46.0705 873.479 43.8673C877.682 42.6882 882.02 41.9756 886.384 41.7476C890.599 41.5352 894.799 41.8735 898.838 42.7509C902.44 43.555 905.88 44.7721 909.069 46.3703C911.91 47.8197 914.639 49.4199 917.24 51.162C918.589 52.0989 919.833 53.1406 920.958 54.2749C922.019 55.4816 922.961 56.7643 923.775 58.1105C925.361 60.9086 926.605 63.8511 927.488 66.8926C929.457 73.1666 930.495 79.6634 930.577 86.2321C930.664 92.5343 929.187 98.8409 926.245 104.732C923.355 110.301 919.225 115.367 914.097 119.632C908.994 123.944 902.762 127.418 896.651 130.645C890.541 133.872 884.381 136.848 878.72 140.165C873.059 143.481 867.603 147.038 860.556 150.081C858.674 150.892 856.718 151.557 854.712 152.067C852.385 152.683 849.98 153.004 847.576 153.02C844.316 152.945 841.171 152.146 838.446 150.7C837.772 150.332 837.123 149.932 836.5 149.504C835.917 149.082 835.331 148.639 834.767 148.183C833.781 147.331 832.872 146.414 832.049 145.441C831.284 144.545 830.581 143.61 829.941 142.642C829.387 141.759 828.765 140.741 828.33 139.924L827.634 138.565L827.038 137.233C826.593 136.345 826.287 135.499 825.965 134.624Z" fill="#E0E0E0"/>
</g>
<path d="M857.701 775.067L864.96 776.408L866.588 784.043L868.197 776.408L875.456 775.049L868.233 773.297L866.588 766.055L864.925 773.297L857.701 775.067Z" fill="#455A64"/>
<path d="M695.332 506.33L702.591 507.671L704.201 515.323L705.828 507.671L713.087 506.33L705.863 504.559L704.201 497.336L702.556 504.559L695.332 506.33Z" fill="#455A64"/>
<path d="M1098.55 503.165L1105.8 504.506L1107.43 512.158L1109.06 504.506L1116.32 503.165L1109.08 501.395L1107.43 494.171L1105.77 501.395L1098.55 503.165Z" fill="#455A64"/>
<path d="M1177 707.999L1181.06 708.75L1181.97 713.023L1182.87 708.75L1186.93 707.999L1182.89 707.015L1181.97 702.975L1181.04 707.015L1177 707.999Z" fill="#455A64"/>
<path d="M1121.47 211.505L1125.51 212.256L1126.42 216.53L1127.33 212.256L1131.39 211.505L1127.35 210.522L1126.42 206.481L1125.51 210.522L1121.47 211.505Z" fill="#455A64"/>
<path d="M1201.39 338.668L1205.45 339.419L1206.34 343.693L1207.26 339.419L1211.32 338.668L1207.27 337.685L1206.34 333.644L1205.43 337.685L1201.39 338.668Z" fill="#455A64"/>
<path d="M581.991 396.01L586.049 396.76L586.943 401.034L587.855 396.76L591.914 396.01L587.873 395.026L586.943 390.985L586.032 395.026L581.991 396.01Z" fill="#455A64"/>
<path d="M478.5 729.169L482.559 729.92L483.471 734.193L484.383 729.92L488.441 729.169L484.4 728.167L483.471 724.144L482.541 728.167L478.5 729.169Z" fill="#455A64"/>
<path d="M1151.43 623.837L1155.48 624.588L1156.39 628.861L1157.3 624.588L1161.36 623.819L1157.32 622.836L1156.39 618.795L1155.46 622.836L1151.43 623.837Z" fill="#455A64"/>
<path d="M598.261 753.843L602.32 754.594L603.231 758.867L604.125 754.594L608.184 753.843L604.143 752.86L603.231 748.819L602.302 752.86L598.261 753.843Z" fill="#455A64"/>
<path d="M741.141 228.849L745.199 229.582L746.111 233.873L747.023 229.582L751.064 228.831L747.023 227.848L746.111 223.807L745.182 227.848L741.141 228.849Z" fill="#455A64"/>
<path d="M981.307 348.735L985.365 349.486L986.277 353.759L987.171 349.486L991.23 348.717L987.189 347.733L986.277 343.692L985.348 347.733L981.307 348.735Z" fill="#455A64"/>
<path d="M658.981 670.308L663.04 671.059L663.934 675.332L664.846 671.059L668.905 670.308L664.864 669.324L663.934 665.283L663.022 669.324L658.981 670.308Z" fill="#455A64"/>
<path d="M483.471 802.566C483.784 802.566 484.084 802.691 484.306 802.912C484.527 803.133 484.651 803.434 484.651 803.747C484.651 804.06 484.527 804.36 484.306 804.581C484.084 804.802 483.784 804.927 483.471 804.927C483.158 804.927 482.858 804.802 482.637 804.581C482.415 804.36 482.291 804.06 482.291 803.747C482.291 803.434 482.415 803.133 482.637 802.912C482.858 802.691 483.158 802.566 483.471 802.566Z" fill="#455A64"/>
<path d="M1069.33 659.419C1069.64 659.419 1069.94 659.543 1070.16 659.764C1070.39 659.986 1070.51 660.286 1070.51 660.599C1070.51 660.912 1070.39 661.212 1070.16 661.433C1069.94 661.655 1069.64 661.779 1069.33 661.779C1069.02 661.779 1068.72 661.655 1068.5 661.433C1068.27 661.212 1068.15 660.912 1068.15 660.599C1068.15 660.286 1068.27 659.986 1068.5 659.764C1068.72 659.543 1069.02 659.419 1069.33 659.419Z" fill="#455A64"/>
<path d="M1080.45 491.292C1080.74 491.328 1081 491.466 1081.19 491.682C1081.38 491.898 1081.49 492.176 1081.49 492.464C1081.49 492.751 1081.38 493.029 1081.19 493.245C1081 493.461 1080.74 493.599 1080.45 493.635C1080.16 493.599 1079.9 493.461 1079.71 493.245C1079.52 493.029 1079.42 492.751 1079.42 492.464C1079.42 492.176 1079.52 491.898 1079.71 491.682C1079.9 491.466 1080.16 491.328 1080.45 491.292Z" fill="#455A64"/>
<path d="M998.202 404.592C998.515 404.592 998.815 404.716 999.036 404.938C999.258 405.159 999.382 405.459 999.382 405.772C999.382 406.085 999.258 406.385 999.036 406.607C998.815 406.828 998.515 406.952 998.202 406.952C997.889 406.952 997.589 406.828 997.368 406.607C997.146 406.385 997.022 406.085 997.022 405.772C997.022 405.459 997.146 405.159 997.368 404.938C997.589 404.716 997.889 404.592 998.202 404.592Z" fill="#455A64"/>
<path d="M635.183 818.48C635.469 818.515 635.732 818.654 635.922 818.869C636.113 819.085 636.218 819.363 636.218 819.651C636.218 819.939 636.113 820.217 635.922 820.432C635.732 820.648 635.469 820.787 635.183 820.822C634.897 820.787 634.634 820.648 634.444 820.432C634.253 820.217 634.148 819.939 634.148 819.651C634.148 819.363 634.253 819.085 634.444 818.869C634.634 818.654 634.897 818.515 635.183 818.48Z" fill="#455A64"/>
<path d="M586.944 750.321C587.229 750.356 587.492 750.495 587.683 750.711C587.874 750.926 587.979 751.204 587.979 751.492C587.979 751.78 587.874 752.058 587.683 752.274C587.492 752.489 587.229 752.628 586.944 752.663C586.658 752.628 586.395 752.489 586.205 752.274C586.014 752.058 585.909 751.78 585.909 751.492C585.909 751.204 586.014 750.926 586.205 750.711C586.395 750.495 586.658 750.356 586.944 750.321Z" fill="#455A64"/>
<path d="M708.152 719.102C708.465 719.102 708.765 719.227 708.986 719.448C709.208 719.669 709.332 719.969 709.332 720.282C709.332 720.595 709.208 720.896 708.986 721.117C708.765 721.338 708.465 721.463 708.152 721.463C707.839 721.463 707.539 721.338 707.317 721.117C707.096 720.896 706.972 720.595 706.972 720.282C706.972 719.969 707.096 719.669 707.317 719.448C707.539 719.227 707.839 719.102 708.152 719.102Z" fill="#455A64"/>
<path d="M930.795 750.321C931.081 750.356 931.344 750.495 931.535 750.711C931.725 750.926 931.83 751.204 931.83 751.492C931.83 751.78 931.725 752.058 931.535 752.274C931.344 752.489 931.081 752.628 930.795 752.663C930.51 752.628 930.247 752.489 930.056 752.274C929.865 752.058 929.76 751.78 929.76 751.492C929.76 751.204 929.865 750.926 930.056 750.711C930.247 750.495 930.51 750.356 930.795 750.321Z" fill="#455A64"/>
<path d="M1125.29 674.831C1125.58 674.867 1125.84 675.005 1126.03 675.221C1126.22 675.437 1126.33 675.715 1126.33 676.002C1126.33 676.29 1126.22 676.568 1126.03 676.784C1125.84 677 1125.58 677.138 1125.29 677.174C1125.01 677.138 1124.74 677 1124.55 676.784C1124.36 676.568 1124.26 676.29 1124.26 676.002C1124.26 675.715 1124.36 675.437 1124.55 675.221C1124.74 675.005 1125.01 674.867 1125.29 674.831Z" fill="#455A64"/>
<path d="M1076.09 544.754C1076.4 544.754 1076.7 544.878 1076.92 545.099C1077.14 545.321 1077.27 545.621 1077.27 545.934C1077.27 546.247 1077.14 546.547 1076.92 546.768C1076.7 546.99 1076.4 547.114 1076.09 547.114C1075.77 547.114 1075.47 546.99 1075.25 546.768C1075.03 546.547 1074.91 546.247 1074.91 545.934C1074.91 545.621 1075.03 545.321 1075.25 545.099C1075.47 544.878 1075.77 544.754 1076.09 544.754Z" fill="#455A64"/>
<path d="M876.386 747.979C876.585 748.008 876.768 748.108 876.899 748.261C877.031 748.413 877.104 748.608 877.104 748.81C877.104 749.012 877.031 749.207 876.899 749.359C876.768 749.512 876.585 749.612 876.386 749.642C876.186 749.612 876.004 749.512 875.872 749.359C875.74 749.207 875.667 749.012 875.667 748.81C875.667 748.608 875.74 748.413 875.872 748.261C876.004 748.108 876.186 748.008 876.386 747.979Z" fill="#455A64"/>
<path d="M619.396 232.049C619.596 232.079 619.778 232.179 619.91 232.331C620.042 232.484 620.114 232.679 620.114 232.881C620.114 233.082 620.042 233.277 619.91 233.43C619.778 233.583 619.596 233.683 619.396 233.712C619.197 233.683 619.014 233.583 618.883 233.43C618.751 233.277 618.678 233.082 618.678 232.881C618.678 232.679 618.751 232.484 618.883 232.331C619.014 232.179 619.197 232.079 619.396 232.049Z" fill="#455A64"/>
<path d="M942.13 650.89C942.33 650.919 942.512 651.019 942.644 651.172C942.776 651.325 942.848 651.52 942.848 651.721C942.848 651.923 942.776 652.118 942.644 652.271C942.512 652.423 942.33 652.523 942.13 652.553C941.931 652.523 941.748 652.423 941.616 652.271C941.485 652.118 941.412 651.923 941.412 651.721C941.412 651.52 941.485 651.325 941.616 651.172C941.748 651.019 941.931 650.919 942.13 650.89Z" fill="#455A64"/>
<path d="M621.487 758.027C621.686 758.057 621.869 758.157 622 758.309C622.132 758.462 622.205 758.657 622.205 758.859C622.205 759.06 622.132 759.255 622 759.408C621.869 759.561 621.686 759.661 621.487 759.69C621.287 759.661 621.105 759.561 620.973 759.408C620.841 759.255 620.769 759.06 620.769 758.859C620.769 758.657 620.841 758.462 620.973 758.309C621.105 758.157 621.287 758.057 621.487 758.027Z" fill="#455A64"/>
<path d="M834.206 557.341C834.406 557.371 834.588 557.471 834.72 557.624C834.852 557.776 834.925 557.971 834.925 558.173C834.925 558.375 834.852 558.569 834.72 558.722C834.588 558.875 834.406 558.975 834.206 559.004C834.007 558.975 833.824 558.875 833.693 558.722C833.561 558.569 833.488 558.375 833.488 558.173C833.488 557.971 833.561 557.776 833.693 557.624C833.824 557.471 834.007 557.371 834.206 557.341Z" fill="#455A64"/>
<path d="M1014.12 566.907C1014.71 566.907 1015.29 567.145 1015.71 567.567C1016.13 567.99 1016.37 568.563 1016.37 569.16C1016.37 569.758 1016.13 570.331 1015.71 570.753C1015.29 571.176 1014.71 571.413 1014.12 571.413C1013.52 571.413 1012.95 571.176 1012.52 570.753C1012.1 570.331 1011.86 569.758 1011.86 569.16C1011.86 568.563 1012.1 567.99 1012.52 567.567C1012.95 567.145 1013.52 566.907 1014.12 566.907Z" fill="#455A64"/>
<path d="M698.139 256.187L705.38 257.528L707.007 265.181L708.634 257.528L715.894 256.187L708.67 254.417L707.007 247.194L705.362 254.417L698.139 256.187Z" fill="#455A64"/>
<path d="M1003.26 317.605L1010.52 318.946L1012.15 326.599L1013.76 318.946L1021.02 317.605L1013.79 315.835L1012.15 308.612L1010.49 315.835L1003.26 317.605Z" fill="#455A64"/>
<path d="M474.603 501.055L481.844 502.396L483.471 510.049L485.098 502.396L492.357 501.055L485.134 499.285L483.471 492.061L481.826 499.285L474.603 501.055Z" fill="#455A64"/>
<path d="M1117.55 136.641L1124.81 137.982L1126.42 145.635L1128.05 137.982L1135.31 136.623L1128.08 134.871L1126.42 127.648L1124.78 134.871L1117.55 136.641Z" fill="#455A64"/>
<path d="M856.646 153.896L860.705 154.646L861.617 158.92L862.529 154.646L866.588 153.896L862.547 152.912L861.617 148.871L860.687 152.912L856.646 153.896Z" fill="#455A64"/>
<path d="M483.471 296.739L487.53 297.49L488.442 301.764L489.336 297.49L493.395 296.739L489.354 295.756L488.442 291.715L487.512 295.756L483.471 296.739Z" fill="#455A64"/>
<path d="M557.978 289.641C558.291 289.641 558.591 289.765 558.812 289.987C559.034 290.208 559.158 290.508 559.158 290.821C559.158 291.134 559.034 291.434 558.812 291.656C558.591 291.877 558.291 292.001 557.978 292.001C557.665 292.001 557.365 291.877 557.143 291.656C556.922 291.434 556.798 291.134 556.798 290.821C556.798 290.508 556.922 290.208 557.143 289.987C557.365 289.765 557.665 289.641 557.978 289.641Z" fill="#455A64"/>
<path d="M468.559 710.86C468.872 710.86 469.173 710.984 469.394 711.205C469.615 711.427 469.74 711.727 469.74 712.04C469.74 712.353 469.615 712.653 469.394 712.874C469.173 713.095 468.872 713.22 468.559 713.22C468.247 713.22 467.946 713.095 467.725 712.874C467.504 712.653 467.379 712.353 467.379 712.04C467.379 711.727 467.504 711.427 467.725 711.205C467.946 710.984 468.247 710.86 468.559 710.86Z" fill="#455A64"/>
<path d="M565.022 670.308C565.308 670.343 565.571 670.482 565.761 670.697C565.952 670.913 566.057 671.191 566.057 671.479C566.057 671.767 565.952 672.045 565.761 672.26C565.571 672.476 565.308 672.615 565.022 672.65C564.736 672.615 564.473 672.476 564.283 672.26C564.092 672.045 563.987 671.767 563.987 671.479C563.987 671.191 564.092 670.913 564.283 670.697C564.473 670.482 564.736 670.343 565.022 670.308Z" fill="#455A64"/>
<path d="M469.705 372.569C469.99 372.604 470.253 372.743 470.444 372.958C470.634 373.174 470.74 373.452 470.74 373.74C470.74 374.028 470.634 374.306 470.444 374.521C470.253 374.737 469.99 374.876 469.705 374.911C469.419 374.876 469.156 374.737 468.965 374.521C468.775 374.306 468.669 374.028 468.669 373.74C468.669 373.452 468.775 373.174 468.965 372.958C469.156 372.743 469.419 372.604 469.705 372.569Z" fill="#455A64"/>
<path d="M565.023 195.753C565.336 195.753 565.636 195.877 565.857 196.098C566.079 196.32 566.203 196.62 566.203 196.933C566.203 197.246 566.079 197.546 565.857 197.767C565.636 197.989 565.336 198.113 565.023 198.113C564.71 198.113 564.41 197.989 564.188 197.767C563.967 197.546 563.843 197.246 563.843 196.933C563.843 196.62 563.967 196.32 564.188 196.098C564.41 195.877 564.71 195.753 565.023 195.753Z" fill="#455A64"/>
<path d="M719.005 135.461C719.291 135.497 719.554 135.635 719.745 135.851C719.935 136.067 720.04 136.345 720.04 136.632C720.04 136.92 719.935 137.198 719.745 137.414C719.554 137.63 719.291 137.768 719.005 137.804C718.72 137.768 718.457 137.63 718.266 137.414C718.075 137.198 717.97 136.92 717.97 136.632C717.97 136.345 718.075 136.067 718.266 135.851C718.457 135.635 718.72 135.497 719.005 135.461Z" fill="#455A64"/>
<path d="M671.767 555.929C671.966 555.958 672.149 556.058 672.281 556.211C672.413 556.364 672.485 556.559 672.485 556.76C672.485 556.962 672.413 557.157 672.281 557.31C672.149 557.462 671.966 557.562 671.767 557.592C671.567 557.562 671.385 557.462 671.253 557.31C671.121 557.157 671.049 556.962 671.049 556.76C671.049 556.559 671.121 556.364 671.253 556.211C671.385 556.058 671.567 555.958 671.767 555.929Z" fill="#455A64"/>
<path d="M670.961 770.186C671.161 770.215 671.343 770.315 671.475 770.468C671.607 770.62 671.679 770.815 671.679 771.017C671.679 771.219 671.607 771.414 671.475 771.566C671.343 771.719 671.161 771.819 670.961 771.848C670.762 771.819 670.579 771.719 670.448 771.566C670.316 771.414 670.243 771.219 670.243 771.017C670.243 770.815 670.316 770.62 670.448 770.468C670.579 770.315 670.762 770.215 670.961 770.186Z" fill="#455A64"/>
<path d="M1095.9 281.345L1099.96 282.096L1100.85 286.369L1101.76 282.096L1105.82 281.345L1101.78 280.361L1100.85 276.32L1099.94 280.361L1095.9 281.345Z" fill="#455A64"/>
<path d="M1186.68 493.67L1190.73 494.421L1191.65 498.695L1192.56 494.421L1196.6 493.652L1192.58 492.669L1191.65 488.628L1190.72 492.669L1186.68 493.67Z" fill="#455A64"/>
<path d="M1084.58 285.385C1084.87 285.421 1085.13 285.559 1085.32 285.775C1085.51 285.991 1085.62 286.269 1085.62 286.557C1085.62 286.845 1085.51 287.122 1085.32 287.338C1085.13 287.554 1084.87 287.692 1084.58 287.728C1084.3 287.692 1084.03 287.554 1083.84 287.338C1083.65 287.122 1083.55 286.845 1083.55 286.557C1083.55 286.269 1083.65 285.991 1083.84 285.775C1084.03 285.559 1084.3 285.421 1084.58 285.385Z" fill="#455A64"/>
<path d="M964.481 167.842C964.681 167.872 964.863 167.972 964.995 168.124C965.127 168.277 965.199 168.472 965.199 168.674C965.199 168.875 965.127 169.07 964.995 169.223C964.863 169.376 964.681 169.476 964.481 169.505C964.282 169.476 964.099 169.376 963.968 169.223C963.836 169.07 963.763 168.875 963.763 168.674C963.763 168.472 963.836 168.277 963.968 168.124C964.099 167.972 964.282 167.872 964.481 167.842Z" fill="#455A64"/>
<path d="M787.558 847.374C787.758 847.403 787.94 847.503 788.072 847.656C788.204 847.809 788.276 848.003 788.276 848.205C788.276 848.407 788.204 848.602 788.072 848.754C787.94 848.907 787.758 849.007 787.558 849.037C787.358 849.007 787.176 848.907 787.044 848.754C786.912 848.602 786.84 848.407 786.84 848.205C786.84 848.003 786.912 847.809 787.044 847.656C787.176 847.503 787.358 847.403 787.558 847.374Z" fill="#455A64"/>
<path d="M1168.6 305.25C1168.8 305.28 1168.98 305.38 1169.11 305.532C1169.24 305.685 1169.32 305.88 1169.32 306.082C1169.32 306.283 1169.24 306.478 1169.11 306.631C1168.98 306.784 1168.8 306.884 1168.6 306.913C1168.4 306.884 1168.22 306.784 1168.09 306.631C1167.95 306.478 1167.88 306.283 1167.88 306.082C1167.88 305.88 1167.95 305.685 1168.09 305.532C1168.22 305.38 1168.4 305.28 1168.6 305.25Z" fill="#455A64"/>
<path d="M1001.24 264.359C1001.44 264.388 1001.62 264.488 1001.76 264.641C1001.89 264.793 1001.96 264.988 1001.96 265.19C1001.96 265.392 1001.89 265.587 1001.76 265.739C1001.62 265.892 1001.44 265.992 1001.24 266.021C1001.04 265.992 1000.86 265.892 1000.73 265.739C1000.6 265.587 1000.52 265.392 1000.52 265.19C1000.52 264.988 1000.6 264.793 1000.73 264.641C1000.86 264.488 1001.04 264.388 1001.24 264.359Z" fill="#455A64"/>
<path d="M1003.64 136.981C1003.84 137.01 1004.02 137.11 1004.15 137.263C1004.28 137.416 1004.36 137.611 1004.36 137.812C1004.36 138.014 1004.28 138.209 1004.15 138.362C1004.02 138.514 1003.84 138.615 1003.64 138.644C1003.44 138.615 1003.26 138.514 1003.12 138.362C1002.99 138.209 1002.92 138.014 1002.92 137.812C1002.92 137.611 1002.99 137.416 1003.12 137.263C1003.26 137.11 1003.44 137.01 1003.64 136.981Z" fill="#455A64"/>
<path d="M770.608 526.373C771.205 526.373 771.778 526.611 772.201 527.033C772.623 527.455 772.861 528.029 772.861 528.626C772.861 529.224 772.623 529.797 772.201 530.219C771.778 530.642 771.205 530.879 770.608 530.879C770.01 530.879 769.437 530.642 769.015 530.219C768.592 529.797 768.355 529.224 768.355 528.626C768.355 528.029 768.592 527.455 769.015 527.033C769.437 526.611 770.01 526.373 770.608 526.373Z" fill="#455A64"/>
<path d="M1078.27 410.993C1078.84 411.043 1079.36 411.303 1079.74 411.722C1080.13 412.141 1080.34 412.687 1080.34 413.255C1080.34 413.822 1080.13 414.369 1079.74 414.788C1079.36 415.206 1078.84 415.466 1078.27 415.517C1077.71 415.466 1077.18 415.206 1076.8 414.788C1076.41 414.369 1076.2 413.822 1076.2 413.255C1076.2 412.687 1076.41 412.141 1076.8 411.722C1077.18 411.303 1077.71 411.043 1078.27 410.993Z" fill="#455A64"/>
<path d="M568.849 413.246C569.447 413.246 570.02 413.483 570.442 413.906C570.865 414.328 571.102 414.901 571.102 415.499C571.102 416.096 570.865 416.669 570.442 417.092C570.02 417.514 569.447 417.752 568.849 417.752C568.252 417.752 567.679 417.514 567.256 417.092C566.834 416.669 566.596 416.096 566.596 415.499C566.596 414.901 566.834 414.328 567.256 413.906C567.679 413.483 568.252 413.246 568.849 413.246Z" fill="#455A64"/>
<path d="M1189.11 426.853C1189.7 426.853 1190.28 427.09 1190.7 427.513C1191.12 427.935 1191.36 428.508 1191.36 429.106C1191.36 429.703 1191.12 430.276 1190.7 430.699C1190.28 431.121 1189.7 431.358 1189.11 431.358C1188.51 431.358 1187.94 431.121 1187.51 430.699C1187.09 430.276 1186.85 429.703 1186.85 429.106C1186.85 428.508 1187.09 427.935 1187.51 427.513C1187.94 427.09 1188.51 426.853 1189.11 426.853Z" fill="#455A64"/>
<path d="M537.433 633.171C538.031 633.171 538.604 633.408 539.026 633.831C539.449 634.253 539.686 634.826 539.686 635.424C539.686 636.021 539.449 636.594 539.026 637.017C538.604 637.439 538.031 637.677 537.433 637.677C536.836 637.677 536.263 637.439 535.84 637.017C535.418 636.594 535.18 636.021 535.18 635.424C535.18 634.826 535.418 634.253 535.84 633.831C536.263 633.408 536.836 633.171 537.433 633.171Z" fill="#455A64"/>
<path d="M651.133 193.089L655.174 193.822L656.086 198.113L656.997 193.822L661.056 193.071L657.015 192.088L656.086 188.047L655.174 192.088L651.133 193.089Z" fill="#455A64"/>
<path d="M872.309 618.205L876.35 618.956L877.262 623.229L878.174 618.956L882.232 618.205L878.192 617.204L877.262 613.163L876.35 617.204L872.309 618.205Z" fill="#455A64"/>
<path d="M1003.26 813.652C1003.58 813.652 1003.88 813.776 1004.1 813.998C1004.32 814.219 1004.44 814.519 1004.44 814.832C1004.44 815.145 1004.32 815.445 1004.1 815.667C1003.88 815.888 1003.58 816.012 1003.26 816.012C1002.95 816.012 1002.65 815.888 1002.43 815.667C1002.21 815.445 1002.08 815.145 1002.08 814.832C1002.08 814.519 1002.21 814.219 1002.43 813.998C1002.65 813.776 1002.95 813.652 1003.26 813.652Z" fill="#455A64"/>
<path d="M925.324 802.566C925.637 802.566 925.937 802.691 926.158 802.912C926.379 803.133 926.504 803.434 926.504 803.747C926.504 804.06 926.379 804.36 926.158 804.581C925.937 804.802 925.637 804.927 925.324 804.927C925.011 804.927 924.71 804.802 924.489 804.581C924.268 804.36 924.144 804.06 924.144 803.747C924.144 803.434 924.268 803.133 924.489 802.912C924.71 802.691 925.011 802.566 925.324 802.566Z" fill="#455A64"/>
<path d="M950.409 488.342L954.45 489.093L955.362 493.366L956.274 489.093L960.333 488.342L956.292 487.359L955.362 483.318L954.432 487.359L950.409 488.342Z" fill="#455A64"/>
<path d="M1089.43 732.101L1093.49 732.852L1094.4 737.125L1095.29 732.852L1099.35 732.101L1095.31 731.118L1094.4 727.077L1093.47 731.118L1089.43 732.101Z" fill="#455A64"/>
<path d="M1126.42 834.59L1130.48 835.341L1131.39 839.614L1132.3 835.341L1136.34 834.59L1132.32 833.588L1131.39 829.547L1130.46 833.588L1126.42 834.59Z" fill="#455A64"/>
<path d="M967.52 262.839C967.806 262.874 968.069 263.013 968.26 263.229C968.45 263.444 968.556 263.722 968.556 264.01C968.556 264.298 968.45 264.576 968.26 264.792C968.069 265.007 967.806 265.146 967.52 265.181C967.235 265.146 966.972 265.007 966.781 264.792C966.591 264.576 966.485 264.298 966.485 264.01C966.485 263.722 966.591 263.444 966.781 263.229C966.972 263.013 967.235 262.874 967.52 262.839Z" fill="#455A64"/>
<path d="M1099.35 786.081C1099.55 786.11 1099.73 786.21 1099.86 786.363C1100 786.516 1100.07 786.711 1100.07 786.912C1100.07 787.114 1100 787.309 1099.86 787.462C1099.73 787.614 1099.55 787.714 1099.35 787.744C1099.15 787.714 1098.97 787.614 1098.84 787.462C1098.7 787.309 1098.63 787.114 1098.63 786.912C1098.63 786.711 1098.7 786.516 1098.84 786.363C1098.97 786.21 1099.15 786.11 1099.35 786.081Z" fill="#455A64"/>
<path d="M513.562 526.373L517.621 527.124L518.533 531.397L519.427 527.124L523.486 526.373L519.445 525.372L518.533 521.349L517.603 525.372L513.562 526.373Z" fill="#455A64"/>
<path d="M466.664 613.503C466.95 613.538 467.213 613.677 467.403 613.892C467.594 614.108 467.699 614.386 467.699 614.674C467.699 614.962 467.594 615.24 467.403 615.455C467.213 615.671 466.95 615.81 466.664 615.845C466.378 615.81 466.115 615.671 465.925 615.455C465.734 615.24 465.629 614.962 465.629 614.674C465.629 614.386 465.734 614.108 465.925 613.892C466.115 613.677 466.378 613.538 466.664 613.503Z" fill="#455A64"/>
<path d="M757.179 427.925C757.492 427.925 757.792 428.05 758.014 428.271C758.235 428.492 758.359 428.793 758.359 429.106C758.359 429.418 758.235 429.719 758.014 429.94C757.792 430.161 757.492 430.286 757.179 430.286C756.866 430.286 756.566 430.161 756.345 429.94C756.123 429.719 755.999 429.418 755.999 429.106C755.999 428.793 756.123 428.492 756.345 428.271C756.566 428.05 756.866 427.925 757.179 427.925Z" fill="#455A64"/>
<path d="M670.961 297.776C671.161 297.806 671.343 297.906 671.475 298.059C671.607 298.211 671.679 298.406 671.679 298.608C671.679 298.81 671.607 299.005 671.475 299.157C671.343 299.31 671.161 299.41 670.961 299.439C670.762 299.41 670.579 299.31 670.448 299.157C670.316 299.005 670.243 298.81 670.243 298.608C670.243 298.406 670.316 298.211 670.448 298.059C670.579 297.906 670.762 297.806 670.961 297.776Z" fill="#455A64"/>
<path d="M535.252 151.643C535.849 151.643 536.422 151.88 536.845 152.303C537.267 152.725 537.505 153.298 537.505 153.896C537.505 154.493 537.267 155.066 536.845 155.489C536.422 155.911 535.849 156.149 535.252 156.149C534.654 156.149 534.081 155.911 533.659 155.489C533.236 155.066 532.999 154.493 532.999 153.896C532.999 153.298 533.236 152.725 533.659 152.303C534.081 151.88 534.654 151.643 535.252 151.643Z" fill="#455A64"/>
<path d="M1069.67 201.975C1070.27 201.975 1070.84 202.212 1071.26 202.635C1071.68 203.057 1071.92 203.63 1071.92 204.228C1071.92 204.825 1071.68 205.399 1071.26 205.821C1070.84 206.244 1070.27 206.481 1069.67 206.481C1069.07 206.481 1068.5 206.244 1068.08 205.821C1067.65 205.399 1067.42 204.825 1067.42 204.228C1067.42 203.63 1067.65 203.057 1068.08 202.635C1068.5 202.212 1069.07 201.975 1069.67 201.975Z" fill="#455A64"/>
<path d="M234.706 415.251L226.868 413.814L225.1 405.555L223.355 413.818L215.52 415.276L223.34 417.177L225.126 424.972L226.911 417.172L234.706 415.251Z" fill="#455A64"/>
<path d="M149.718 194.246L145.335 193.441L144.345 188.83L143.386 193.444L139.006 194.26L143.369 195.316L144.359 199.677L145.357 195.314L149.718 194.246Z" fill="#455A64"/>
<path d="M210.38 730.129L206.016 729.324L205.026 724.712L204.048 729.326L199.667 730.143L204.031 731.198L205.04 735.559L206.019 731.196L210.38 730.129Z" fill="#455A64"/>
<path d="M123.92 592.971L119.537 592.167L118.566 587.555L117.588 592.169L113.207 592.986L117.571 594.041L118.58 598.402L119.559 594.039L123.92 592.971Z" fill="#455A64"/>
<path d="M177.44 285.062L173.077 284.257L172.086 279.645L171.108 284.259L166.728 285.095L171.091 286.151L172.101 290.512L173.099 286.148L177.44 285.062Z" fill="#455A64"/>
<path d="M361.485 581.79L357.103 580.985L356.112 576.373L355.154 580.987L350.773 581.823L355.137 582.879L356.127 587.24L357.125 582.876L361.485 581.79Z" fill="#455A64"/>
<path d="M266.021 246.534C265.683 246.535 265.359 246.401 265.119 246.162C264.88 245.924 264.745 245.6 264.745 245.262C264.745 244.924 264.878 244.6 265.117 244.361C265.355 244.121 265.679 243.987 266.017 243.986C266.355 243.986 266.679 244.12 266.918 244.358C267.158 244.597 267.292 244.921 267.293 245.259C267.293 245.596 267.159 245.921 266.921 246.16C266.682 246.399 266.358 246.534 266.021 246.534Z" fill="#455A64"/>
<path d="M254.257 428.042C253.948 428.004 253.664 427.855 253.458 427.622C253.252 427.389 253.138 427.09 253.138 426.779C253.137 426.468 253.25 426.168 253.456 425.935C253.661 425.702 253.945 425.552 254.253 425.513C254.562 425.551 254.846 425.7 255.052 425.933C255.258 426.165 255.372 426.465 255.372 426.776C255.373 427.087 255.26 427.387 255.054 427.62C254.849 427.853 254.565 428.003 254.257 428.042Z" fill="#455A64"/>
<path d="M343.167 521.516C342.829 521.517 342.505 521.383 342.266 521.144C342.027 520.906 341.892 520.582 341.891 520.244C341.891 519.906 342.025 519.582 342.263 519.343C342.502 519.103 342.826 518.969 343.164 518.968C343.502 518.968 343.826 519.102 344.065 519.34C344.304 519.579 344.439 519.903 344.439 520.241C344.44 520.578 344.306 520.903 344.067 521.142C343.829 521.381 343.505 521.516 343.167 521.516Z" fill="#455A64"/>
<path d="M415.437 148.207C415.129 148.17 414.845 148.02 414.639 147.788C414.433 147.555 414.319 147.255 414.318 146.945C414.318 146.634 414.431 146.334 414.636 146.101C414.842 145.867 415.126 145.718 415.434 145.679C415.742 145.717 416.026 145.866 416.233 146.098C416.439 146.331 416.553 146.631 416.553 146.942C416.553 147.252 416.44 147.553 416.235 147.786C416.029 148.019 415.746 148.169 415.437 148.207Z" fill="#455A64"/>
<path d="M205.586 229.977C205.278 229.939 204.994 229.79 204.788 229.557C204.582 229.324 204.468 229.025 204.467 228.714C204.467 228.403 204.58 228.103 204.785 227.87C204.991 227.637 205.275 227.487 205.583 227.448C205.891 227.486 206.175 227.635 206.381 227.868C206.588 228.1 206.702 228.4 206.702 228.711C206.702 229.022 206.589 229.322 206.384 229.555C206.178 229.788 205.895 229.938 205.586 229.977Z" fill="#455A64"/>
<path d="M258.889 370.324C258.551 370.324 258.227 370.191 257.988 369.952C257.749 369.713 257.614 369.39 257.614 369.052C257.613 368.714 257.747 368.39 257.986 368.151C258.224 367.911 258.548 367.777 258.886 367.776C259.224 367.776 259.548 367.91 259.787 368.148C260.026 368.387 260.161 368.711 260.161 369.048C260.162 369.386 260.028 369.71 259.789 369.95C259.551 370.189 259.227 370.324 258.889 370.324Z" fill="#455A64"/>
<path d="M403.344 255.559C403.129 255.528 402.932 255.42 402.789 255.255C402.646 255.091 402.568 254.88 402.568 254.662C402.567 254.445 402.645 254.234 402.787 254.069C402.93 253.904 403.126 253.796 403.342 253.764C403.557 253.795 403.754 253.903 403.897 254.068C404.039 254.232 404.118 254.443 404.118 254.66C404.118 254.878 404.04 255.089 403.898 255.254C403.756 255.419 403.559 255.527 403.344 255.559Z" fill="#455A64"/>
<path d="M325.756 346.321C325.111 346.322 324.492 346.066 324.035 345.611C323.578 345.155 323.321 344.537 323.32 343.892C323.319 343.247 323.575 342.628 324.03 342.171C324.486 341.715 325.104 341.458 325.749 341.457C326.394 341.456 327.013 341.711 327.47 342.167C327.926 342.622 328.183 343.241 328.184 343.886C328.185 344.531 327.93 345.149 327.474 345.606C327.019 346.063 326.401 346.32 325.756 346.321Z" fill="#455A64"/>
<path d="M337.829 615.425L329.991 613.988L328.223 605.729L326.497 613.992L318.663 615.45L326.463 617.351L328.249 625.146L330.034 617.346L337.829 615.425Z" fill="#455A64"/>
<path d="M214.713 810.938L206.875 809.501L205.127 801.242L203.381 809.505L195.547 810.983L203.347 812.864L205.153 820.659L206.918 812.859L214.713 810.938Z" fill="#455A64"/>
<path d="M237.881 654.701L233.499 653.896L232.527 649.284L231.549 653.899L227.169 654.715L231.532 655.771L232.542 660.132L233.52 655.768L237.881 654.701Z" fill="#455A64"/>
<path d="M139.584 425.626L135.201 424.822L134.211 420.21L133.232 424.824L128.871 425.66L133.216 426.716L134.225 431.077L135.223 426.713L139.584 425.626Z" fill="#455A64"/>
<path d="M250.092 650.322C249.784 650.285 249.5 650.135 249.294 649.903C249.087 649.67 248.973 649.37 248.973 649.06C248.973 648.749 249.086 648.449 249.291 648.216C249.497 647.983 249.78 647.833 250.089 647.794C250.397 647.832 250.681 647.981 250.887 648.214C251.093 648.446 251.207 648.746 251.208 649.057C251.208 649.367 251.095 649.668 250.89 649.901C250.684 650.134 250.4 650.284 250.092 650.322Z" fill="#455A64"/>
<path d="M379.907 777.038C379.692 777.007 379.495 776.899 379.352 776.734C379.21 776.57 379.131 776.359 379.131 776.141C379.131 775.924 379.209 775.713 379.351 775.548C379.493 775.383 379.69 775.275 379.905 775.243C380.121 775.274 380.318 775.382 380.46 775.547C380.603 775.711 380.681 775.922 380.681 776.139C380.682 776.357 380.604 776.568 380.462 776.733C380.32 776.898 380.123 777.006 379.907 777.038Z" fill="#455A64"/>
<path d="M159.367 628.999C159.151 628.967 158.954 628.86 158.812 628.695C158.669 628.53 158.591 628.32 158.591 628.102C158.59 627.885 158.668 627.674 158.81 627.509C158.952 627.344 159.149 627.236 159.364 627.204C159.58 627.235 159.777 627.343 159.919 627.508C160.062 627.672 160.141 627.883 160.141 628.1C160.141 628.318 160.063 628.529 159.921 628.694C159.779 628.859 159.582 628.967 159.367 628.999Z" fill="#455A64"/>
<path d="M340.085 672.902C339.87 672.87 339.673 672.762 339.53 672.598C339.388 672.433 339.309 672.223 339.309 672.005C339.308 671.787 339.387 671.577 339.529 671.412C339.671 671.247 339.867 671.138 340.083 671.106C340.298 671.138 340.495 671.246 340.638 671.41C340.78 671.575 340.859 671.785 340.859 672.003C340.859 672.221 340.781 672.431 340.639 672.596C340.497 672.761 340.301 672.87 340.085 672.902Z" fill="#455A64"/>
<path d="M337.683 810.408C337.467 810.377 337.27 810.269 337.128 810.105C336.985 809.94 336.907 809.73 336.906 809.512C336.906 809.294 336.984 809.084 337.126 808.919C337.268 808.754 337.465 808.645 337.68 808.613C337.896 808.645 338.093 808.753 338.235 808.917C338.378 809.082 338.457 809.292 338.457 809.51C338.457 809.728 338.379 809.938 338.237 810.103C338.095 810.268 337.898 810.376 337.683 810.408Z" fill="#455A64"/>
<path d="M256.725 514.721C256.115 514.668 255.547 514.388 255.133 513.936C254.719 513.485 254.489 512.895 254.488 512.282C254.487 511.67 254.715 511.079 255.128 510.627C255.541 510.174 256.108 509.893 256.718 509.838C257.329 509.891 257.897 510.171 258.311 510.623C258.725 511.074 258.955 511.664 258.956 512.276C258.957 512.889 258.728 513.48 258.315 513.932C257.902 514.384 257.335 514.666 256.725 514.721Z" fill="#455A64"/>
<path d="M137.054 497.759C136.409 497.76 135.79 497.504 135.334 497.049C134.877 496.594 134.62 495.975 134.619 495.33C134.618 494.685 134.874 494.066 135.329 493.61C135.785 493.153 136.403 492.896 137.048 492.895C137.693 492.894 138.312 493.15 138.769 493.605C139.225 494.061 139.482 494.679 139.483 495.324C139.484 495.969 139.229 496.588 138.773 497.044C138.318 497.501 137.699 497.758 137.054 497.759Z" fill="#455A64"/>
<path d="M337.119 79.9457C336.781 79.9462 336.457 79.8124 336.217 79.5738C335.978 79.3352 335.844 79.0114 335.843 78.6735C335.843 78.3357 335.976 78.0115 336.215 77.7723C336.454 77.533 336.777 77.3984 337.115 77.3979C337.453 77.3975 337.777 77.5313 338.017 77.7699C338.256 78.0085 338.39 78.3323 338.391 78.6701C338.391 79.008 338.258 79.3322 338.019 79.5714C337.78 79.8107 337.457 79.9453 337.119 79.9457Z" fill="#455A64"/>
<path d="M421.27 91.8011C420.932 91.8015 420.608 91.6677 420.368 91.4291C420.129 91.1905 419.994 90.8667 419.994 90.5289C419.994 90.191 420.127 89.8668 420.366 89.6276C420.605 89.3883 420.928 89.2537 421.266 89.2533C421.604 89.2528 421.928 89.3866 422.167 89.6252C422.407 89.8637 422.541 90.1876 422.542 90.5255C422.542 90.8633 422.408 91.1875 422.17 91.4267C421.931 91.6659 421.607 91.8006 421.27 91.8011Z" fill="#455A64"/>
<path d="M394.639 431.04L390.276 430.235L389.286 425.623L388.307 430.238L383.927 431.054L388.291 432.11L389.3 436.471L390.298 432.107L394.639 431.04Z" fill="#455A64"/>
<path d="M244.222 168.103L239.84 167.298L238.849 162.686L237.89 167.3L233.51 168.117L237.874 169.173L238.864 173.534L239.862 169.17L244.222 168.103Z" fill="#455A64"/>
<path d="M204.14 57.5201L199.758 56.7152L198.767 52.1035L197.789 56.7179L193.428 57.5343L197.772 58.6094L198.782 62.9702L199.78 58.6068L204.14 57.5201Z" fill="#455A64"/>
<path d="M376.491 674.494C376.182 674.456 375.898 674.307 375.692 674.074C375.486 673.842 375.372 673.542 375.372 673.231C375.371 672.92 375.484 672.62 375.69 672.387C375.895 672.154 376.179 672.004 376.487 671.965C376.796 672.003 377.08 672.152 377.286 672.385C377.492 672.617 377.606 672.917 377.606 673.228C377.607 673.539 377.493 673.839 377.288 674.072C377.082 674.305 376.799 674.455 376.491 674.494Z" fill="#455A64"/>
<path d="M233.433 109.846C233.217 109.815 233.02 109.707 232.878 109.542C232.735 109.378 232.657 109.167 232.656 108.95C232.656 108.732 232.734 108.521 232.876 108.356C233.018 108.192 233.215 108.083 233.43 108.051C233.646 108.083 233.843 108.19 233.985 108.355C234.128 108.52 234.207 108.73 234.207 108.948C234.207 109.165 234.129 109.376 233.987 109.541C233.845 109.706 233.648 109.814 233.433 109.846Z" fill="#455A64"/>
<path d="M266.309 740.342C265.664 740.343 265.045 740.088 264.588 739.632C264.131 739.177 263.874 738.558 263.874 737.913C263.873 737.268 264.128 736.649 264.584 736.193C265.039 735.736 265.657 735.479 266.302 735.478C266.947 735.477 267.566 735.733 268.023 736.188C268.48 736.644 268.737 737.262 268.737 737.907C268.738 738.552 268.483 739.171 268.027 739.627C267.572 740.084 266.954 740.341 266.309 740.342Z" fill="#455A64"/>
<path d="M1263.7 430.179L1270.96 431.52L1272.57 439.173L1274.2 431.52L1281.46 430.179L1274.23 428.409L1272.57 421.185L1270.93 428.409L1263.7 430.179Z" fill="#455A64"/>
<path d="M1150.36 319.859L1154.42 320.61L1155.31 324.883L1156.23 320.61L1160.29 319.859L1156.24 318.875L1155.31 314.835L1154.4 318.875L1150.36 319.859Z" fill="#455A64"/>
<path d="M1046.87 653.018L1050.93 653.769L1051.84 658.042L1052.75 653.769L1056.81 653.018L1052.77 652.017L1051.84 647.994L1050.91 652.017L1046.87 653.018Z" fill="#455A64"/>
<path d="M1166.63 677.693L1170.69 678.443L1171.6 682.717L1172.5 678.443L1176.56 677.693L1172.51 676.709L1171.6 672.668L1170.67 676.709L1166.63 677.693Z" fill="#455A64"/>
<path d="M1309.51 152.698L1313.57 153.431L1314.48 157.722L1315.39 153.431L1319.44 152.68L1315.39 151.697L1314.48 147.656L1313.55 151.697L1309.51 152.698Z" fill="#455A64"/>
<path d="M1227.35 594.157L1231.41 594.908L1232.31 599.181L1233.22 594.908L1237.28 594.157L1233.24 593.173L1232.31 589.133L1231.39 593.173L1227.35 594.157Z" fill="#455A64"/>
<path d="M1051.84 726.416C1052.16 726.416 1052.46 726.54 1052.68 726.761C1052.9 726.983 1053.02 727.283 1053.02 727.596C1053.02 727.909 1052.9 728.209 1052.68 728.43C1052.46 728.652 1052.16 728.776 1051.84 728.776C1051.53 728.776 1051.23 728.652 1051.01 728.43C1050.79 728.209 1050.66 727.909 1050.66 727.596C1050.66 727.283 1050.79 726.983 1051.01 726.761C1051.23 726.54 1051.53 726.416 1051.84 726.416Z" fill="#455A64"/>
<path d="M1203.55 742.329C1203.84 742.364 1204.1 742.503 1204.29 742.719C1204.48 742.934 1204.59 743.212 1204.59 743.5C1204.59 743.788 1204.48 744.066 1204.29 744.282C1204.1 744.497 1203.84 744.636 1203.55 744.671C1203.27 744.636 1203.01 744.497 1202.81 744.282C1202.62 744.066 1202.52 743.788 1202.52 743.5C1202.52 743.212 1202.62 742.934 1202.81 742.719C1203.01 742.503 1203.27 742.364 1203.55 742.329Z" fill="#455A64"/>
<path d="M1155.31 674.17C1155.6 674.206 1155.86 674.344 1156.05 674.56C1156.24 674.776 1156.35 675.054 1156.35 675.342C1156.35 675.629 1156.24 675.907 1156.05 676.123C1155.86 676.339 1155.6 676.477 1155.31 676.513C1155.03 676.477 1154.77 676.339 1154.58 676.123C1154.39 675.907 1154.28 675.629 1154.28 675.342C1154.28 675.054 1154.39 674.776 1154.58 674.56C1154.77 674.344 1155.03 674.206 1155.31 674.17Z" fill="#455A64"/>
<path d="M1276.52 642.952C1276.84 642.952 1277.14 643.076 1277.36 643.297C1277.58 643.519 1277.7 643.819 1277.7 644.132C1277.7 644.445 1277.58 644.745 1277.36 644.966C1277.14 645.187 1276.84 645.312 1276.52 645.312C1276.21 645.312 1275.91 645.187 1275.69 644.966C1275.47 644.745 1275.34 644.445 1275.34 644.132C1275.34 643.819 1275.47 643.519 1275.69 643.297C1275.91 643.076 1276.21 642.952 1276.52 642.952Z" fill="#455A64"/>
<path d="M1187.77 155.899C1187.97 155.928 1188.15 156.028 1188.28 156.181C1188.41 156.333 1188.49 156.528 1188.49 156.73C1188.49 156.932 1188.41 157.127 1188.28 157.279C1188.15 157.432 1187.97 157.532 1187.77 157.562C1187.57 157.532 1187.39 157.432 1187.25 157.279C1187.12 157.127 1187.05 156.932 1187.05 156.73C1187.05 156.528 1187.12 156.333 1187.25 156.181C1187.39 156.028 1187.57 155.928 1187.77 155.899Z" fill="#455A64"/>
<path d="M1189.86 681.877C1190.06 681.906 1190.24 682.006 1190.37 682.159C1190.5 682.311 1190.58 682.506 1190.58 682.708C1190.58 682.91 1190.5 683.105 1190.37 683.257C1190.24 683.41 1190.06 683.51 1189.86 683.539C1189.66 683.51 1189.48 683.41 1189.34 683.257C1189.21 683.105 1189.14 682.91 1189.14 682.708C1189.14 682.506 1189.21 682.311 1189.34 682.159C1189.48 682.006 1189.66 681.906 1189.86 681.877Z" fill="#455A64"/>
<path d="M1266.51 180.037L1273.75 181.378L1275.38 189.031L1277.01 181.378L1284.26 180.037L1277.04 178.267L1275.38 171.043L1273.73 178.267L1266.51 180.037Z" fill="#455A64"/>
<path d="M1042.97 424.904L1050.22 426.245L1051.84 433.898L1053.47 426.245L1060.73 424.904L1053.5 423.134L1051.84 415.911L1050.2 423.134L1042.97 424.904Z" fill="#455A64"/>
<path d="M1051.84 220.589L1055.9 221.34L1056.81 225.613L1057.71 221.34L1061.77 220.589L1057.72 219.605L1056.81 215.564L1055.88 219.605L1051.84 220.589Z" fill="#455A64"/>
<path d="M1126.35 213.49C1126.66 213.49 1126.96 213.615 1127.18 213.836C1127.4 214.057 1127.53 214.358 1127.53 214.671C1127.53 214.984 1127.4 215.284 1127.18 215.505C1126.96 215.726 1126.66 215.851 1126.35 215.851C1126.04 215.851 1125.74 215.726 1125.51 215.505C1125.29 215.284 1125.17 214.984 1125.17 214.671C1125.17 214.358 1125.29 214.057 1125.51 213.836C1125.74 213.615 1126.04 213.49 1126.35 213.49Z" fill="#455A64"/>
<path d="M1036.93 634.709C1037.24 634.709 1037.54 634.833 1037.77 635.055C1037.99 635.276 1038.11 635.576 1038.11 635.889C1038.11 636.202 1037.99 636.502 1037.77 636.723C1037.54 636.945 1037.24 637.069 1036.93 637.069C1036.62 637.069 1036.32 636.945 1036.1 636.723C1035.87 636.502 1035.75 636.202 1035.75 635.889C1035.75 635.576 1035.87 635.276 1036.1 635.055C1036.32 634.833 1036.62 634.709 1036.93 634.709Z" fill="#455A64"/>
<path d="M1133.39 594.157C1133.68 594.192 1133.94 594.331 1134.13 594.547C1134.32 594.762 1134.43 595.04 1134.43 595.328C1134.43 595.616 1134.32 595.894 1134.13 596.11C1133.94 596.325 1133.68 596.464 1133.39 596.499C1133.11 596.464 1132.84 596.325 1132.65 596.11C1132.46 595.894 1132.36 595.616 1132.36 595.328C1132.36 595.04 1132.46 594.762 1132.65 594.547C1132.84 594.331 1133.11 594.192 1133.39 594.157Z" fill="#455A64"/>
<path d="M1038.08 296.418C1038.36 296.453 1038.62 296.592 1038.81 296.808C1039.01 297.023 1039.11 297.301 1039.11 297.589C1039.11 297.877 1039.01 298.155 1038.81 298.371C1038.62 298.586 1038.36 298.725 1038.08 298.76C1037.79 298.725 1037.53 298.586 1037.34 298.371C1037.15 298.155 1037.04 297.877 1037.04 297.589C1037.04 297.301 1037.15 297.023 1037.34 296.808C1037.53 296.592 1037.79 296.453 1038.08 296.418Z" fill="#455A64"/>
<path d="M1133.39 119.602C1133.71 119.602 1134.01 119.727 1134.23 119.948C1134.45 120.169 1134.57 120.469 1134.57 120.782C1134.57 121.095 1134.45 121.396 1134.23 121.617C1134.01 121.838 1133.71 121.962 1133.39 121.962C1133.08 121.962 1132.78 121.838 1132.56 121.617C1132.34 121.396 1132.21 121.095 1132.21 120.782C1132.21 120.469 1132.34 120.169 1132.56 119.948C1132.78 119.727 1133.08 119.602 1133.39 119.602Z" fill="#455A64"/>
<path d="M1287.38 59.3105C1287.66 59.3459 1287.93 59.4845 1288.12 59.7002C1288.31 59.9159 1288.41 60.1938 1288.41 60.4817C1288.41 60.7696 1288.31 61.0475 1288.12 61.2632C1287.93 61.4789 1287.66 61.6175 1287.38 61.6528C1287.09 61.6175 1286.83 61.4789 1286.64 61.2632C1286.45 61.0475 1286.34 60.7696 1286.34 60.4817C1286.34 60.1938 1286.45 59.9159 1286.64 59.7002C1286.83 59.4845 1287.09 59.3459 1287.38 59.3105Z" fill="#455A64"/>
<path d="M1240.14 479.778C1240.34 479.807 1240.52 479.908 1240.65 480.06C1240.78 480.213 1240.86 480.408 1240.86 480.61C1240.86 480.811 1240.78 481.006 1240.65 481.159C1240.52 481.311 1240.34 481.412 1240.14 481.441C1239.94 481.412 1239.76 481.311 1239.62 481.159C1239.49 481.006 1239.42 480.811 1239.42 480.61C1239.42 480.408 1239.49 480.213 1239.62 480.06C1239.76 479.908 1239.94 479.807 1240.14 479.778Z" fill="#455A64"/>
<path d="M1239.33 694.035C1239.53 694.064 1239.71 694.164 1239.85 694.317C1239.98 694.47 1240.05 694.665 1240.05 694.866C1240.05 695.068 1239.98 695.263 1239.85 695.416C1239.71 695.568 1239.53 695.668 1239.33 695.698C1239.13 695.668 1238.95 695.568 1238.82 695.416C1238.69 695.263 1238.61 695.068 1238.61 694.866C1238.61 694.665 1238.69 694.47 1238.82 694.317C1238.95 694.164 1239.13 694.064 1239.33 694.035Z" fill="#455A64"/>
<path d="M1355.93 771.223C1356.13 771.252 1356.31 771.353 1356.44 771.505C1356.57 771.658 1356.65 771.853 1356.65 772.055C1356.65 772.256 1356.57 772.451 1356.44 772.604C1356.31 772.757 1356.13 772.857 1355.93 772.886C1355.73 772.857 1355.55 772.757 1355.42 772.604C1355.28 772.451 1355.21 772.256 1355.21 772.055C1355.21 771.853 1355.28 771.658 1355.42 771.505C1355.55 771.353 1355.73 771.252 1355.93 771.223Z" fill="#455A64"/>
<path d="M1338.98 450.223C1339.58 450.223 1340.15 450.46 1340.57 450.882C1340.99 451.305 1341.23 451.878 1341.23 452.475C1341.23 453.073 1340.99 453.646 1340.57 454.068C1340.15 454.491 1339.58 454.728 1338.98 454.728C1338.38 454.728 1337.81 454.491 1337.39 454.068C1336.96 453.646 1336.73 453.073 1336.73 452.475C1336.73 451.878 1336.96 451.305 1337.39 450.882C1337.81 450.46 1338.38 450.223 1338.98 450.223Z" fill="#455A64"/>
<path d="M1137.22 337.095C1137.82 337.095 1138.39 337.333 1138.81 337.755C1139.24 338.178 1139.47 338.751 1139.47 339.348C1139.47 339.946 1139.24 340.519 1138.81 340.941C1138.39 341.364 1137.82 341.601 1137.22 341.601C1136.62 341.601 1136.05 341.364 1135.63 340.941C1135.2 340.519 1134.97 339.946 1134.97 339.348C1134.97 338.751 1135.2 338.178 1135.63 337.755C1136.05 337.333 1136.62 337.095 1137.22 337.095Z" fill="#455A64"/>
<path d="M1105.8 557.02C1106.4 557.02 1106.97 557.258 1107.4 557.68C1107.82 558.103 1108.06 558.676 1108.06 559.273C1108.06 559.871 1107.82 560.444 1107.4 560.866C1106.97 561.289 1106.4 561.526 1105.8 561.526C1105.21 561.526 1104.63 561.289 1104.21 560.866C1103.79 560.444 1103.55 559.871 1103.55 559.273C1103.55 558.676 1103.79 558.103 1104.21 557.68C1104.63 557.258 1105.21 557.02 1105.8 557.02Z" fill="#455A64"/>
<path d="M1219.5 116.938L1223.54 117.671L1224.46 121.962L1225.37 117.671L1229.43 116.92L1225.39 115.937L1224.46 111.896L1223.54 115.937L1219.5 116.938Z" fill="#455A64"/>
<path d="M1081.93 450.222L1085.99 450.973L1086.9 455.247L1087.8 450.973L1091.86 450.222L1087.82 449.221L1086.9 445.198L1085.97 449.221L1081.93 450.222Z" fill="#455A64"/>
<path d="M1035.04 537.352C1035.32 537.387 1035.58 537.526 1035.77 537.742C1035.96 537.957 1036.07 538.235 1036.07 538.523C1036.07 538.811 1035.96 539.089 1035.77 539.305C1035.58 539.52 1035.32 539.659 1035.04 539.694C1034.75 539.659 1034.49 539.52 1034.3 539.305C1034.11 539.089 1034 538.811 1034 538.523C1034 538.235 1034.11 537.957 1034.3 537.742C1034.49 537.526 1034.75 537.387 1035.04 537.352Z" fill="#455A64"/>
<path d="M1325.55 351.775C1325.86 351.775 1326.16 351.899 1326.38 352.12C1326.61 352.342 1326.73 352.642 1326.73 352.955C1326.73 353.268 1326.61 353.568 1326.38 353.789C1326.16 354.011 1325.86 354.135 1325.55 354.135C1325.24 354.135 1324.94 354.011 1324.72 353.789C1324.49 353.568 1324.37 353.268 1324.37 352.955C1324.37 352.642 1324.49 352.342 1324.72 352.12C1324.94 351.899 1325.24 351.775 1325.55 351.775Z" fill="#455A64"/>
<path d="M1239.33 221.626C1239.53 221.655 1239.71 221.755 1239.85 221.908C1239.98 222.061 1240.05 222.255 1240.05 222.457C1240.05 222.659 1239.98 222.854 1239.85 223.006C1239.71 223.159 1239.53 223.259 1239.33 223.289C1239.13 223.259 1238.95 223.159 1238.82 223.006C1238.69 222.854 1238.61 222.659 1238.61 222.457C1238.61 222.255 1238.69 222.061 1238.82 221.908C1238.95 221.755 1239.13 221.655 1239.33 221.626Z" fill="#455A64"/>
<path d="M1103.62 75.4922C1104.22 75.4922 1104.79 75.7295 1105.22 76.152C1105.64 76.5745 1105.88 77.1476 1105.88 77.7451C1105.88 78.3426 1105.64 78.9156 1105.22 79.3381C1104.79 79.7606 1104.22 79.998 1103.62 79.998C1103.03 79.998 1102.45 79.7606 1102.03 79.3381C1101.61 78.9156 1101.37 78.3426 1101.37 77.7451C1101.37 77.1476 1101.61 76.5745 1102.03 76.152C1102.45 75.7295 1103.03 75.4922 1103.62 75.4922Z" fill="#455A64"/>
<path d="M1426.07 698.916L1433.33 700.257L1434.96 707.892L1436.57 700.257L1443.83 698.898L1436.6 697.146L1434.96 689.905L1433.3 697.146L1426.07 698.916Z" fill="#455A64"/>
<path d="M1444.76 671.828C1444.96 671.857 1445.14 671.958 1445.27 672.11C1445.4 672.263 1445.47 672.458 1445.47 672.659C1445.47 672.861 1445.4 673.056 1445.27 673.209C1445.14 673.361 1444.96 673.462 1444.76 673.491C1444.56 673.462 1444.37 673.361 1444.24 673.209C1444.11 673.056 1444.04 672.861 1444.04 672.659C1444.04 672.458 1444.11 672.263 1444.24 672.11C1444.37 671.958 1444.56 671.857 1444.76 671.828Z" fill="#455A64"/>
<path d="M1402.58 481.191C1402.78 481.22 1402.96 481.32 1403.09 481.473C1403.22 481.626 1403.3 481.821 1403.3 482.022C1403.3 482.224 1403.22 482.419 1403.09 482.572C1402.96 482.724 1402.78 482.824 1402.58 482.854C1402.38 482.824 1402.2 482.724 1402.06 482.572C1401.93 482.419 1401.86 482.224 1401.86 482.022C1401.86 481.821 1401.93 481.626 1402.06 481.473C1402.2 481.32 1402.38 481.22 1402.58 481.191Z" fill="#455A64"/>
<path d="M1425.02 77.745L1429.08 78.496L1429.99 82.7693L1430.9 78.496L1434.96 77.745L1430.92 76.7616L1429.99 72.7207L1429.06 76.7616L1425.02 77.745Z" fill="#455A64"/>
<path d="M1440.68 542.055L1444.72 542.805L1445.63 547.079L1446.54 542.805L1450.6 542.055L1446.56 541.053L1445.63 537.012L1444.72 541.053L1440.68 542.055Z" fill="#455A64"/>
<path d="M686.919 384.555L692.139 355.289C692.852 351.271 691.941 347.134 689.607 343.786C687.273 340.439 683.706 338.154 679.689 337.434C675.667 336.722 671.528 337.635 668.179 339.974C664.831 342.313 662.549 345.886 661.834 349.907L656.614 379.15C655.901 383.171 656.811 387.31 659.144 390.661C661.478 394.013 665.045 396.302 669.064 397.028C673.085 397.74 677.225 396.826 680.573 394.487C683.921 392.148 686.204 388.576 686.919 384.555Z" fill="#A6A6A6"/>
<path d="M1041.34 391.345L1037.09 361.918C1036.81 359.917 1036.13 357.992 1035.09 356.254C1034.06 354.516 1032.69 352.999 1031.07 351.789C1029.45 350.579 1027.61 349.701 1025.65 349.203C1023.69 348.706 1021.66 348.599 1019.65 348.89C1017.65 349.179 1015.73 349.859 1013.99 350.892C1012.25 351.925 1010.74 353.29 1009.53 354.91C1008.32 356.529 1007.44 358.372 1006.94 360.331C1006.44 362.291 1006.34 364.329 1006.63 366.33L1010.85 395.734C1011.44 399.779 1013.61 403.424 1016.89 405.871C1020.16 408.318 1024.27 409.366 1028.32 408.785C1032.35 408.196 1035.99 406.029 1038.44 402.76C1040.88 399.49 1041.93 395.385 1041.34 391.345Z" fill="#A6A6A6"/>
<path d="M737.506 277.031L749.171 266.128C752.155 263.342 753.911 259.486 754.054 255.407C754.197 251.327 752.715 247.357 749.933 244.369C747.143 241.384 743.283 239.628 739.2 239.485C735.116 239.342 731.143 240.824 728.151 243.607L716.487 254.51C715.008 255.889 713.816 257.546 712.979 259.387C712.141 261.227 711.675 263.215 711.606 265.236C711.537 267.257 711.868 269.271 712.578 271.164C713.289 273.058 714.366 274.792 715.747 276.269C718.533 279.252 722.389 281.008 726.469 281.151C730.549 281.294 734.518 279.812 737.506 277.031Z" fill="#A6A6A6"/>
<path d="M753.835 519.704L742.956 508.155C741.576 506.674 739.918 505.48 738.076 504.64C736.235 503.8 734.246 503.331 732.223 503.26C730.2 503.19 728.183 503.518 726.287 504.227C724.391 504.936 722.654 506.012 721.174 507.393C718.193 510.182 716.441 514.039 716.303 518.119C716.164 522.199 717.65 526.166 720.435 529.151L731.314 540.839C734.107 543.821 737.969 545.574 742.052 545.712C746.136 545.851 750.107 544.364 753.096 541.578C754.589 540.196 755.793 538.531 756.639 536.68C757.485 534.829 757.956 532.829 758.025 530.795C758.094 528.761 757.759 526.734 757.04 524.831C756.321 522.927 755.231 521.184 753.835 519.704Z" fill="#A6A6A6"/>
<path d="M1018.7 307.235L997.671 277.069C996.095 274.808 992.985 274.253 990.725 275.829L973.652 287.73C971.391 289.306 970.836 292.416 972.412 294.676L993.441 324.843C995.017 327.103 998.127 327.659 1000.39 326.083L1017.46 314.181C1019.72 312.606 1020.28 309.496 1018.7 307.235Z" fill="#A6A6A6"/>
<path d="M909.774 574.193L924.788 568.765C926.689 568.079 928.436 567.024 929.929 565.662C931.422 564.3 932.632 562.658 933.49 560.828C934.348 558.998 934.837 557.017 934.929 554.999C935.022 552.98 934.715 550.962 934.028 549.062C933.341 547.161 932.287 545.415 930.925 543.921C929.563 542.428 927.92 541.218 926.09 540.36C924.261 539.502 922.28 539.013 920.261 538.921C918.242 538.829 916.225 539.135 914.325 539.823L899.31 545.251C895.474 546.647 892.347 549.508 890.615 553.205C888.884 556.903 888.688 561.136 890.071 564.977C891.472 568.804 894.331 571.921 898.022 573.648C901.714 575.374 905.939 575.571 909.774 574.193Z" fill="#A6A6A6"/>
<path d="M880.065 569.544C976.739 552.724 1041.47 460.719 1024.65 364.044C1007.83 267.37 915.828 202.636 819.154 219.456C722.479 236.276 657.745 328.281 674.565 424.956C691.385 521.63 783.391 586.365 880.065 569.544Z" fill="#A6A6A6"/>
<path opacity="0.2" d="M832.764 260.053C838.02 266.793 840.968 275.046 841.172 283.59C841.455 292.336 839.347 300.993 835.074 308.629C830.764 316.585 823.562 322.581 814.955 325.376C806.723 327.943 797.849 327.526 789.894 324.198C797.755 324.434 805.57 322.903 812.761 319.717C816.089 318.186 819.123 316.083 821.723 313.503C824.352 310.973 826.572 308.051 828.306 304.841C829.184 303.224 830.062 301.515 830.847 299.806C831.633 298.096 832.302 296.318 832.788 294.516C833.963 290.924 834.737 287.214 835.097 283.452C835.845 275.575 835.053 267.627 832.764 260.053Z" fill="black"/>
<path opacity="0.2" d="M786.173 304.957C782.129 300.557 779.766 294.873 779.498 288.903C779.105 282.764 780.501 276.642 783.517 271.279C785.027 268.47 787.081 265.99 789.56 263.983C792.038 261.977 794.892 260.484 797.953 259.591C803.753 257.903 809.979 258.507 815.347 261.278C810.06 261.567 804.885 262.91 800.125 265.227C795.957 267.47 792.537 270.882 790.285 275.044C785.259 284.163 783.794 294.821 786.173 304.957Z" fill="black"/>
<path opacity="0.2" d="M850.388 500.948C852.6 504.595 853.421 508.918 852.698 513.121C852.011 517.465 850.012 521.495 846.97 524.671C845.425 526.351 843.556 527.702 841.477 528.643C839.397 529.583 837.148 530.094 834.866 530.145C830.584 530.248 826.414 528.768 823.155 525.987C826.875 526.57 830.669 526.484 834.358 525.733C837.621 524.972 840.576 523.241 842.835 520.767C845.251 518.245 847.143 515.27 848.402 512.013C849.71 508.47 850.382 504.725 850.388 500.948Z" fill="black"/>
<path opacity="0.2" d="M826.182 519.843C824.331 517.438 823.501 514.401 823.872 511.389C824.257 508.25 825.642 505.318 827.822 503.027C828.944 501.816 830.306 500.851 831.821 500.195C833.336 499.539 834.971 499.205 836.622 499.216C838.137 499.23 839.633 499.553 841.019 500.165C842.405 500.776 843.652 501.664 844.683 502.773C842.136 502.676 839.588 502.972 837.13 503.651C835.151 504.277 833.368 505.408 831.956 506.931C828.665 510.483 826.635 515.021 826.182 519.843Z" fill="black"/>
<path opacity="0.2" d="M741.338 454.543C743.461 454.837 745.502 455.561 747.337 456.668C749.171 457.776 750.761 459.246 752.01 460.988C753.373 462.871 754.344 465.009 754.868 467.274C755.392 469.539 755.457 471.886 755.059 474.177C754.648 476.526 753.7 478.749 752.29 480.672C750.88 482.595 749.045 484.166 746.928 485.264C743.207 487.32 738.892 488.029 734.709 487.274C737.802 485.243 740.695 482.923 743.348 480.344C745.459 478.332 746.882 475.705 747.413 472.837C747.918 469.86 747.672 466.803 746.697 463.944C745.443 460.536 743.632 457.359 741.338 454.543Z" fill="black"/>
<path opacity="0.2" d="M733.139 481.268C731.573 481.286 730.023 480.941 728.613 480.26C727.202 479.578 725.968 478.579 725.009 477.341C723.945 475.999 723.176 474.447 722.754 472.787C722.332 471.127 722.266 469.397 722.56 467.709C722.864 465.957 723.585 464.303 724.663 462.888C725.74 461.473 727.142 460.338 728.75 459.579C730.121 458.898 731.612 458.497 733.139 458.398C734.666 458.298 736.197 458.504 737.643 459.001C735.751 460.712 733.976 462.548 732.331 464.499C731.211 465.814 730.476 467.412 730.206 469.118C729.9 470.904 729.947 472.733 730.344 474.5C730.944 476.879 731.886 479.159 733.139 481.268Z" fill="black"/>
<path opacity="0.2" d="M941.835 275.622C943.229 277.258 944.275 279.16 944.91 281.213C945.546 283.266 945.757 285.427 945.531 287.564C945.301 289.875 944.61 292.116 943.5 294.155C942.389 296.195 940.88 297.99 939.063 299.436C937.192 300.913 935.008 301.942 932.677 302.442C930.347 302.943 927.932 302.902 925.62 302.324C921.473 301.384 917.778 299.042 915.156 295.695C918.811 296.229 922.508 296.415 926.197 296.249C929.108 296.163 931.916 295.152 934.213 293.362C936.581 291.476 938.433 289.02 939.594 286.224C940.928 282.84 941.685 279.256 941.835 275.622Z" fill="black"/>
<path opacity="0.2" d="M917.95 290.173C916.769 289.144 915.842 287.856 915.241 286.41C914.64 284.964 914.381 283.398 914.485 281.835C914.587 280.121 915.051 278.448 915.848 276.927C916.644 275.406 917.754 274.071 919.105 273.011C920.491 271.902 922.123 271.143 923.863 270.797C925.604 270.451 927.402 270.529 929.107 271.025C932.091 271.852 934.624 273.829 936.152 276.522C933.601 276.539 931.054 276.732 928.529 277.1C926.842 277.33 925.247 278.008 923.91 279.063C922.486 280.189 921.301 281.587 920.422 283.175C919.274 285.38 918.441 287.736 917.95 290.173Z" fill="black"/>
<path d="M898.272 428.141C905.905 426.704 912.941 423.035 918.489 417.599C924.037 412.163 927.848 405.203 929.44 397.6C931.032 389.998 930.333 382.094 927.433 374.888C924.532 367.683 919.56 361.499 913.144 357.12C906.729 352.741 899.159 350.363 891.392 350.286C883.625 350.21 876.01 352.439 869.51 356.691C863.009 360.943 857.916 367.027 854.874 374.175C851.833 381.322 850.979 389.21 852.421 396.843C854.354 407.072 860.269 416.115 868.867 421.984C877.465 427.853 888.041 430.067 898.272 428.141Z" fill="#A6A6A6"/>
<path opacity="0.1" d="M898.272 428.141C905.905 426.704 912.941 423.035 918.489 417.599C924.037 412.163 927.848 405.203 929.44 397.6C931.032 389.998 930.333 382.094 927.433 374.888C924.532 367.683 919.56 361.499 913.144 357.12C906.729 352.741 899.159 350.363 891.392 350.286C883.625 350.21 876.01 352.439 869.51 356.691C863.009 360.943 857.916 367.027 854.874 374.175C851.833 381.322 850.979 389.21 852.421 396.843C854.354 407.072 860.269 416.115 868.867 421.984C877.465 427.853 888.041 430.067 898.272 428.141Z" fill="black"/>
<path opacity="0.2" d="M895.384 363.766C900.886 362.706 906.561 362.968 911.942 364.53C917.323 366.092 922.257 368.91 926.336 372.751C923.517 366.772 919.234 361.602 913.884 357.72C908.534 353.837 902.291 351.368 895.732 350.541C889.174 349.714 882.513 350.555 876.367 352.988C870.221 355.421 864.788 359.366 860.573 364.458C856.357 369.549 853.495 375.623 852.252 382.115C851.009 388.607 851.425 395.308 853.462 401.597C855.498 407.886 859.089 413.559 863.902 418.09C868.715 422.621 874.594 425.864 880.994 427.518C875.435 423.392 871.195 417.74 868.788 411.25C866.381 404.76 865.911 397.71 867.435 390.957C868.959 384.205 872.412 378.04 877.374 373.213C882.335 368.386 888.592 365.104 895.384 363.766Z" fill="black"/>
<path opacity="0.2" d="M939.202 363.766C945.331 372.228 948.703 382.375 948.857 392.823C949.085 403.482 946.461 414.008 941.258 423.314C936.036 432.966 927.342 440.273 916.935 443.756C906.925 446.969 896.121 446.7 886.283 442.994C896.027 443.608 905.779 441.939 914.764 438.12C916.85 437.118 918.878 436 920.839 434.77C922.728 433.475 924.498 432.014 926.128 430.405C929.473 427.244 932.296 423.571 934.49 419.525C935.599 417.47 936.684 415.345 937.654 413.196C938.624 411.048 939.456 408.831 939.964 406.567C941.408 402.067 942.337 397.417 942.736 392.708C943.555 382.92 942.352 373.069 939.202 363.766Z" fill="black"/>
<path d="M983.019 351.501C985.727 350.434 988.057 348.587 989.713 346.194C991.37 343.801 992.278 340.97 992.323 338.06C992.369 335.15 991.548 332.292 989.966 329.849C988.385 327.405 986.113 325.487 983.439 324.337C980.766 323.187 977.811 322.857 974.949 323.389C972.088 323.921 969.449 325.291 967.367 327.325C965.286 329.359 963.855 331.966 963.257 334.814C962.659 337.663 962.921 340.624 964.009 343.324C964.719 345.11 965.774 346.738 967.114 348.116C968.454 349.494 970.053 350.594 971.819 351.354C973.584 352.113 975.482 352.517 977.404 352.542C979.326 352.568 981.234 352.214 983.019 351.501Z" fill="#A6A6A6"/>
<path opacity="0.1" d="M983.019 351.501C985.727 350.434 988.057 348.587 989.713 346.194C991.37 343.801 992.278 340.97 992.323 338.06C992.369 335.15 991.548 332.292 989.966 329.849C988.385 327.405 986.113 325.487 983.439 324.337C980.766 323.187 977.811 322.857 974.949 323.389C972.088 323.921 969.449 325.291 967.367 327.325C965.286 329.359 963.855 331.966 963.257 334.814C962.659 337.663 962.921 340.624 964.009 343.324C964.719 345.11 965.774 346.738 967.114 348.116C968.454 349.494 970.053 350.594 971.819 351.354C973.584 352.113 975.482 352.517 977.404 352.542C979.326 352.568 981.234 352.214 983.019 351.501Z" fill="black"/>
<path opacity="0.2" d="M977.383 328.148C979.32 327.364 981.416 327.054 983.497 327.243C985.578 327.432 987.584 328.114 989.348 329.233C987.888 327.258 985.954 325.683 983.724 324.652C981.494 323.622 979.04 323.17 976.589 323.339C974.139 323.507 971.77 324.29 969.702 325.616C967.634 326.941 965.933 328.766 964.756 330.923C963.58 333.079 962.966 335.497 962.97 337.953C962.975 340.41 963.598 342.825 964.783 344.977C965.967 347.129 967.675 348.948 969.748 350.265C971.821 351.583 974.193 352.357 976.644 352.516C974.315 351.401 972.36 349.633 971.016 347.427C969.673 345.221 969 342.673 969.078 340.091C969.156 337.51 969.983 335.007 971.457 332.886C972.932 330.766 974.991 329.12 977.383 328.148Z" fill="black"/>
<path opacity="0.2" d="M993.437 325.052C996.45 327.613 998.549 331.082 999.42 334.939C1000.34 338.885 1000.16 343.009 998.889 346.857C997.639 350.876 994.871 354.248 991.174 356.258C987.637 358.15 983.538 358.708 979.625 357.829C983.18 357.181 986.553 355.771 989.511 353.695C992.177 351.664 994.147 348.855 995.147 345.656C996.251 342.282 996.669 338.72 996.375 335.182C996.081 331.643 995.083 328.199 993.437 325.052Z" fill="black"/>
<path d="M954.724 487.158C958.219 484.997 960.995 481.848 962.701 478.11C964.408 474.371 964.968 470.211 964.311 466.154C963.654 462.098 961.81 458.327 959.011 455.318C956.212 452.309 952.584 450.197 948.586 449.249C944.587 448.301 940.397 448.559 936.545 449.992C932.694 451.424 929.353 453.965 926.944 457.295C924.536 460.625 923.169 464.594 923.016 468.7C922.862 472.807 923.929 476.867 926.082 480.367C927.514 482.696 929.392 484.72 931.607 486.322C933.823 487.925 936.333 489.074 938.994 489.705C941.654 490.336 944.413 490.436 947.112 489.999C949.812 489.562 952.398 488.596 954.724 487.158Z" fill="#A6A6A6"/>
<path opacity="0.1" d="M954.724 487.158C958.219 484.997 960.995 481.848 962.701 478.11C964.408 474.371 964.968 470.211 964.311 466.154C963.654 462.098 961.81 458.327 959.011 455.318C956.212 452.309 952.584 450.197 948.586 449.249C944.587 448.301 940.397 448.559 936.545 449.992C932.694 451.424 929.353 453.965 926.944 457.295C924.536 460.625 923.169 464.594 923.016 468.7C922.862 472.807 923.929 476.867 926.082 480.367C927.514 482.696 929.392 484.72 931.607 486.322C933.823 487.925 936.333 489.074 938.994 489.705C941.654 490.336 944.413 490.436 947.112 489.999C949.812 489.562 952.398 488.596 954.724 487.158Z" fill="black"/>
<path opacity="0.2" d="M941.073 455.836C943.596 454.271 946.455 453.326 949.415 453.081C952.374 452.836 955.35 453.298 958.096 454.427C955.57 452.017 952.478 450.281 949.105 449.381C945.731 448.48 942.185 448.444 938.794 449.275C935.403 450.106 932.276 451.778 929.701 454.137C927.126 456.495 925.187 459.464 924.063 462.77C922.938 466.075 922.664 469.611 923.266 473.05C923.868 476.49 925.327 479.722 927.507 482.449C929.688 485.176 932.52 487.31 935.743 488.653C938.965 489.997 942.474 490.508 945.946 490.138C942.415 489.144 939.248 487.147 936.829 484.389C934.41 481.631 932.843 478.231 932.317 474.601C931.792 470.97 932.33 467.265 933.868 463.935C935.406 460.604 937.876 457.791 940.98 455.836H941.073Z" fill="black"/>
<path opacity="0.2" d="M962.764 447.567C967.367 450.627 970.929 455.019 972.973 460.156C975.088 465.371 975.782 471.054 974.983 476.625C974.217 482.365 971.324 487.608 966.875 491.315C962.539 494.795 957.166 496.73 951.607 496.813C956.572 495.324 961.109 492.671 964.842 489.075C968.307 485.547 970.515 480.977 971.125 476.07C971.884 471.084 971.545 465.991 970.132 461.149C968.66 456.153 966.149 451.524 962.764 447.567Z" fill="black"/>
<path d="M761.597 375.615C762.059 391.646 747.738 405.089 729.652 405.643C711.566 406.198 696.482 393.609 695.997 377.625C695.512 361.64 709.856 348.151 727.92 347.597C745.983 347.042 761.158 359.562 761.597 375.615Z" fill="#A6A6A6"/>
<path opacity="0.1" d="M761.597 375.615C762.059 391.646 747.738 405.089 729.652 405.643C711.566 406.198 696.482 393.609 695.997 377.625C695.512 361.64 709.856 348.151 727.92 347.597C745.983 347.042 761.158 359.562 761.597 375.615Z" fill="black"/>
<path opacity="0.2" d="M708.654 384.069C708.856 388.354 710.139 392.519 712.385 396.174C714.631 399.829 717.765 402.857 721.497 404.973C707.222 402.202 696.366 391.114 695.973 377.555C695.488 361.525 709.832 348.082 727.918 347.527C733.868 347.222 739.791 348.515 745.072 351.273C750.352 354.031 754.798 358.154 757.946 363.211C752.102 358.782 744.901 356.521 737.573 356.813C721.22 357.298 708.215 369.517 708.654 384.069Z" fill="black"/>
<path opacity="0.2" d="M757.693 351.293C761.517 352.853 764.993 355.157 767.92 358.071C770.846 360.986 773.164 364.453 774.74 368.27C776.44 372.258 777.229 376.574 777.05 380.905C776.874 385.234 775.927 389.497 774.255 393.494C772.357 397.412 769.749 400.945 766.563 403.911C763.462 406.758 759.93 409.097 756.099 410.841C748.755 414.263 740.704 415.894 732.608 415.599C739.883 413.154 746.857 409.892 753.397 405.875C759.523 402.253 764.479 396.944 767.672 390.583C769.067 387.396 769.932 384.002 770.235 380.536C770.656 377.057 770.413 373.53 769.519 370.141C767.392 362.887 763.299 356.364 757.693 351.293Z" fill="black"/>
<path d="M328.76 478.56V442.16L514.92 204H571.08L386.48 442.16L359.96 433.84H650.64V478.56H328.76ZM531.04 568V478.56L532.6 433.84V354.8H581.48V568H531.04Z" fill="#333333"/>
<path d="M1149.32 575V231.8L1171.68 256.24H1067.16V211H1200.8V575H1149.32Z" fill="#333333"/>
<path d="M390.6 710.64C383.24 710.64 377.453 708.533 373.24 704.32C369.027 700.107 366.92 693.947 366.92 685.84V654H374.92V685.52C374.92 691.76 376.28 696.32 379 699.2C381.773 702.08 385.667 703.52 390.68 703.52C395.747 703.52 399.64 702.08 402.36 699.2C405.133 696.32 406.52 691.76 406.52 685.52V654H414.28V685.84C414.28 693.947 412.173 700.107 407.96 704.32C403.8 708.533 398.013 710.64 390.6 710.64ZM452.201 667.2C455.668 667.2 458.708 667.867 461.321 669.2C463.988 670.533 466.068 672.56 467.561 675.28C469.055 678 469.801 681.44 469.801 685.6V710H462.121V686.48C462.121 682.373 461.108 679.28 459.081 677.2C457.108 675.12 454.308 674.08 450.681 674.08C447.961 674.08 445.588 674.613 443.561 675.68C441.535 676.747 439.961 678.32 438.841 680.4C437.775 682.48 437.241 685.067 437.241 688.16V710H429.561V667.6H436.921V679.04L435.721 676C437.108 673.227 439.241 671.067 442.121 669.52C445.001 667.973 448.361 667.2 452.201 667.2ZM510.334 710V701.04L509.934 699.36V684.08C509.934 680.827 508.974 678.32 507.054 676.56C505.188 674.747 502.361 673.84 498.574 673.84C496.068 673.84 493.614 674.267 491.214 675.12C488.814 675.92 486.788 677.013 485.134 678.4L481.934 672.64C484.121 670.88 486.734 669.547 489.774 668.64C492.868 667.68 496.094 667.2 499.454 667.2C505.268 667.2 509.748 668.613 512.894 671.44C516.041 674.267 517.614 678.587 517.614 684.4V710H510.334ZM496.414 710.48C493.268 710.48 490.494 709.947 488.094 708.88C485.748 707.813 483.934 706.347 482.654 704.48C481.374 702.56 480.734 700.4 480.734 698C480.734 695.707 481.268 693.627 482.334 691.76C483.454 689.893 485.241 688.4 487.694 687.28C490.201 686.16 493.561 685.6 497.774 685.6H511.214V691.12H498.094C494.254 691.12 491.668 691.76 490.334 693.04C489.001 694.32 488.334 695.867 488.334 697.68C488.334 699.76 489.161 701.44 490.814 702.72C492.468 703.947 494.761 704.56 497.694 704.56C500.574 704.56 503.081 703.92 505.214 702.64C507.401 701.36 508.974 699.493 509.934 697.04L511.454 702.32C510.441 704.827 508.654 706.827 506.094 708.32C503.534 709.76 500.308 710.48 496.414 710.48ZM549.667 710.48C546.04 710.48 542.84 709.813 540.067 708.48C537.347 707.147 535.214 705.12 533.667 702.4C532.174 699.627 531.427 696.16 531.427 692V667.6H539.107V691.12C539.107 695.28 540.094 698.4 542.067 700.48C544.094 702.56 546.92 703.6 550.547 703.6C553.214 703.6 555.534 703.067 557.507 702C559.48 700.88 561 699.28 562.067 697.2C563.134 695.067 563.667 692.507 563.667 689.52V667.6H571.347V710H564.067V698.56L565.267 701.6C563.88 704.427 561.8 706.613 559.027 708.16C556.254 709.707 553.134 710.48 549.667 710.48ZM600.528 710.48C596.261 710.48 592.954 709.333 590.608 707.04C588.261 704.747 587.088 701.467 587.088 697.2V658.32H594.768V696.88C594.768 699.173 595.328 700.933 596.448 702.16C597.621 703.387 599.274 704 601.408 704C603.808 704 605.808 703.333 607.408 702L609.808 707.52C608.634 708.533 607.221 709.28 605.568 709.76C603.968 710.24 602.288 710.48 600.528 710.48ZM579.888 673.92V667.6H606.928V673.92H579.888ZM641.733 667.2C645.199 667.2 648.239 667.867 650.853 669.2C653.519 670.533 655.599 672.56 657.093 675.28C658.586 678 659.333 681.44 659.333 685.6V710H651.653V686.48C651.653 682.373 650.639 679.28 648.613 677.2C646.639 675.12 643.839 674.08 640.213 674.08C637.493 674.08 635.119 674.613 633.093 675.68C631.066 676.747 629.493 678.32 628.373 680.4C627.306 682.48 626.773 685.067 626.773 688.16V710H619.093V650.64H626.773V679.04L625.253 676C626.639 673.227 628.773 671.067 631.653 669.52C634.533 667.973 637.893 667.2 641.733 667.2ZM691.706 710.48C687.439 710.48 683.652 709.547 680.346 707.68C677.039 705.813 674.426 703.253 672.506 700C670.586 696.693 669.626 692.96 669.626 688.8C669.626 684.587 670.586 680.853 672.506 677.6C674.426 674.347 677.039 671.813 680.346 670C683.652 668.133 687.439 667.2 691.706 667.2C695.919 667.2 699.679 668.133 702.986 670C706.346 671.813 708.959 674.347 710.826 677.6C712.746 680.8 713.706 684.533 713.706 688.8C713.706 693.013 712.746 696.747 710.826 700C708.959 703.253 706.346 705.813 702.986 707.68C699.679 709.547 695.919 710.48 691.706 710.48ZM691.706 703.76C694.426 703.76 696.852 703.147 698.986 701.92C701.172 700.693 702.879 698.96 704.106 696.72C705.332 694.427 705.946 691.787 705.946 688.8C705.946 685.76 705.332 683.147 704.106 680.96C702.879 678.72 701.172 676.987 698.986 675.76C696.852 674.533 694.426 673.92 691.706 673.92C688.986 673.92 686.559 674.533 684.426 675.76C682.292 676.987 680.586 678.72 679.306 680.96C678.026 683.147 677.386 685.76 677.386 688.8C677.386 691.787 678.026 694.427 679.306 696.72C680.586 698.96 682.292 700.693 684.426 701.92C686.559 703.147 688.986 703.76 691.706 703.76ZM724.327 710V667.6H731.687V679.12L730.967 676.24C732.14 673.307 734.114 671.067 736.887 669.52C739.66 667.973 743.074 667.2 747.127 667.2V674.64C746.807 674.587 746.487 674.56 746.167 674.56C745.9 674.56 745.634 674.56 745.367 674.56C741.26 674.56 738.007 675.787 735.607 678.24C733.207 680.693 732.007 684.24 732.007 688.88V710H724.327ZM756.593 710V667.6H764.273V710H756.593ZM760.433 659.44C758.939 659.44 757.686 658.96 756.673 658C755.713 657.04 755.233 655.867 755.233 654.48C755.233 653.04 755.713 651.84 756.673 650.88C757.686 649.92 758.939 649.44 760.433 649.44C761.926 649.44 763.153 649.92 764.113 650.88C765.126 651.787 765.633 652.933 765.633 654.32C765.633 655.76 765.153 656.987 764.193 658C763.233 658.96 761.979 659.44 760.433 659.44ZM774.856 710V705.04L802.056 671.28L803.576 673.92H775.336V667.6H809.736V672.64L782.536 706.32L780.776 703.68H810.376V710H774.856ZM838.91 710.48C834.377 710.48 830.377 709.547 826.91 707.68C823.497 705.813 820.83 703.253 818.91 700C817.043 696.747 816.11 693.013 816.11 688.8C816.11 684.587 817.017 680.853 818.83 677.6C820.697 674.347 823.23 671.813 826.43 670C829.683 668.133 833.337 667.2 837.39 667.2C841.497 667.2 845.123 668.107 848.27 669.92C851.417 671.733 853.87 674.293 855.63 677.6C857.443 680.853 858.35 684.667 858.35 689.04C858.35 689.36 858.323 689.733 858.27 690.16C858.27 690.587 858.243 690.987 858.19 691.36H822.11V685.84H854.19L851.07 687.76C851.123 685.04 850.563 682.613 849.39 680.48C848.217 678.347 846.59 676.693 844.51 675.52C842.483 674.293 840.11 673.68 837.39 673.68C834.723 673.68 832.35 674.293 830.27 675.52C828.19 676.693 826.563 678.373 825.39 680.56C824.217 682.693 823.63 685.147 823.63 687.92V689.2C823.63 692.027 824.27 694.56 825.55 696.8C826.883 698.987 828.723 700.693 831.07 701.92C833.417 703.147 836.11 703.76 839.15 703.76C841.657 703.76 843.923 703.333 845.95 702.48C848.03 701.627 849.843 700.347 851.39 698.64L855.63 703.6C853.71 705.84 851.31 707.547 848.43 708.72C845.603 709.893 842.43 710.48 838.91 710.48ZM886.534 710.48C882.428 710.48 878.748 709.573 875.494 707.76C872.294 705.947 869.761 703.413 867.894 700.16C866.028 696.907 865.094 693.12 865.094 688.8C865.094 684.48 866.028 680.72 867.894 677.52C869.761 674.267 872.294 671.733 875.494 669.92C878.748 668.107 882.428 667.2 886.534 667.2C890.108 667.2 893.334 668 896.214 669.6C899.094 671.2 901.388 673.6 903.094 676.8C904.854 680 905.734 684 905.734 688.8C905.734 693.6 904.881 697.6 903.174 700.8C901.521 704 899.254 706.427 896.374 708.08C893.494 709.68 890.214 710.48 886.534 710.48ZM887.174 703.76C889.841 703.76 892.241 703.147 894.374 701.92C896.561 700.693 898.268 698.96 899.494 696.72C900.774 694.427 901.414 691.787 901.414 688.8C901.414 685.76 900.774 683.147 899.494 680.96C898.268 678.72 896.561 676.987 894.374 675.76C892.241 674.533 889.841 673.92 887.174 673.92C884.454 673.92 882.028 674.533 879.894 675.76C877.761 676.987 876.054 678.72 874.774 680.96C873.494 683.147 872.854 685.76 872.854 688.8C872.854 691.787 873.494 694.427 874.774 696.72C876.054 698.96 877.761 700.693 879.894 701.92C882.028 703.147 884.454 703.76 887.174 703.76ZM901.654 710V698.56L902.134 688.72L901.334 678.88V650.64H909.014V710H901.654ZM937.67 710L963.03 654H970.95L996.39 710H987.99L965.35 658.48H968.55L945.91 710H937.67ZM948.47 696L950.63 689.6H982.15L984.47 696H948.47ZM1021.71 710.48C1017.39 710.48 1013.53 709.547 1010.11 707.68C1006.75 705.813 1004.11 703.253 1002.19 700C1000.27 696.747 999.313 693.013 999.313 688.8C999.313 684.587 1000.27 680.853 1002.19 677.6C1004.11 674.347 1006.75 671.813 1010.11 670C1013.53 668.133 1017.39 667.2 1021.71 667.2C1025.55 667.2 1028.97 667.973 1031.95 669.52C1034.99 671.013 1037.34 673.253 1038.99 676.24L1033.15 680C1031.77 677.92 1030.06 676.4 1028.03 675.44C1026.06 674.427 1023.93 673.92 1021.63 673.92C1018.86 673.92 1016.38 674.533 1014.19 675.76C1012.01 676.987 1010.27 678.72 1008.99 680.96C1007.71 683.147 1007.07 685.76 1007.07 688.8C1007.07 691.84 1007.71 694.48 1008.99 696.72C1010.27 698.96 1012.01 700.693 1014.19 701.92C1016.38 703.147 1018.86 703.76 1021.63 703.76C1023.93 703.76 1026.06 703.28 1028.03 702.32C1030.06 701.307 1031.77 699.76 1033.15 697.68L1038.99 701.36C1037.34 704.293 1034.99 706.56 1031.95 708.16C1028.97 709.707 1025.55 710.48 1021.71 710.48ZM1066.79 710.48C1062.47 710.48 1058.6 709.547 1055.19 707.68C1051.83 705.813 1049.19 703.253 1047.27 700C1045.35 696.747 1044.39 693.013 1044.39 688.8C1044.39 684.587 1045.35 680.853 1047.27 677.6C1049.19 674.347 1051.83 671.813 1055.19 670C1058.6 668.133 1062.47 667.2 1066.79 667.2C1070.63 667.2 1074.04 667.973 1077.03 669.52C1080.07 671.013 1082.42 673.253 1084.07 676.24L1078.23 680C1076.84 677.92 1075.14 676.4 1073.11 675.44C1071.14 674.427 1069 673.92 1066.71 673.92C1063.94 673.92 1061.46 674.533 1059.27 675.76C1057.08 676.987 1055.35 678.72 1054.07 680.96C1052.79 683.147 1052.15 685.76 1052.15 688.8C1052.15 691.84 1052.79 694.48 1054.07 696.72C1055.35 698.96 1057.08 700.693 1059.27 701.92C1061.46 703.147 1063.94 703.76 1066.71 703.76C1069 703.76 1071.14 703.28 1073.11 702.32C1075.14 701.307 1076.84 699.76 1078.23 697.68L1084.07 701.36C1082.42 704.293 1080.07 706.56 1077.03 708.16C1074.04 709.707 1070.63 710.48 1066.79 710.48ZM1112.27 710.48C1107.74 710.48 1103.74 709.547 1100.27 707.68C1096.86 705.813 1094.19 703.253 1092.27 700C1090.4 696.747 1089.47 693.013 1089.47 688.8C1089.47 684.587 1090.38 680.853 1092.19 677.6C1094.06 674.347 1096.59 671.813 1099.79 670C1103.04 668.133 1106.7 667.2 1110.75 667.2C1114.86 667.2 1118.48 668.107 1121.63 669.92C1124.78 671.733 1127.23 674.293 1128.99 677.6C1130.8 680.853 1131.71 684.667 1131.71 689.04C1131.71 689.36 1131.68 689.733 1131.63 690.16C1131.63 690.587 1131.6 690.987 1131.55 691.36H1095.47V685.84H1127.55L1124.43 687.76C1124.48 685.04 1123.92 682.613 1122.75 680.48C1121.58 678.347 1119.95 676.693 1117.87 675.52C1115.84 674.293 1113.47 673.68 1110.75 673.68C1108.08 673.68 1105.71 674.293 1103.63 675.52C1101.55 676.693 1099.92 678.373 1098.75 680.56C1097.58 682.693 1096.99 685.147 1096.99 687.92V689.2C1096.99 692.027 1097.63 694.56 1098.91 696.8C1100.24 698.987 1102.08 700.693 1104.43 701.92C1106.78 703.147 1109.47 703.76 1112.51 703.76C1115.02 703.76 1117.28 703.333 1119.31 702.48C1121.39 701.627 1123.2 700.347 1124.75 698.64L1128.99 703.6C1127.07 705.84 1124.67 707.547 1121.79 708.72C1118.96 709.893 1115.79 710.48 1112.27 710.48ZM1154.53 710.48C1151.01 710.48 1147.65 710 1144.45 709.04C1141.31 708.08 1138.83 706.907 1137.01 705.52L1140.21 699.44C1142.03 700.667 1144.27 701.707 1146.93 702.56C1149.6 703.413 1152.32 703.84 1155.09 703.84C1158.67 703.84 1161.23 703.333 1162.77 702.32C1164.37 701.307 1165.17 699.893 1165.17 698.08C1165.17 696.747 1164.69 695.707 1163.73 694.96C1162.77 694.213 1161.49 693.653 1159.89 693.28C1158.35 692.907 1156.61 692.587 1154.69 692.32C1152.77 692 1150.85 691.627 1148.93 691.2C1147.01 690.72 1145.25 690.08 1143.65 689.28C1142.05 688.427 1140.77 687.28 1139.81 685.84C1138.85 684.347 1138.37 682.373 1138.37 679.92C1138.37 677.36 1139.09 675.12 1140.53 673.2C1141.97 671.28 1144 669.813 1146.61 668.8C1149.28 667.733 1152.43 667.2 1156.05 667.2C1158.83 667.2 1161.63 667.547 1164.45 668.24C1167.33 668.88 1169.68 669.813 1171.49 671.04L1168.21 677.12C1166.29 675.84 1164.29 674.96 1162.21 674.48C1160.13 674 1158.05 673.76 1155.97 673.76C1152.61 673.76 1150.11 674.32 1148.45 675.44C1146.8 676.507 1145.97 677.893 1145.97 679.6C1145.97 681.04 1146.45 682.16 1147.41 682.96C1148.43 683.707 1149.71 684.293 1151.25 684.72C1152.85 685.147 1154.61 685.52 1156.53 685.84C1158.45 686.107 1160.37 686.48 1162.29 686.96C1164.21 687.387 1165.95 688 1167.49 688.8C1169.09 689.6 1170.37 690.72 1171.33 692.16C1172.35 693.6 1172.85 695.52 1172.85 697.92C1172.85 700.48 1172.11 702.693 1170.61 704.56C1169.12 706.427 1167.01 707.893 1164.29 708.96C1161.57 709.973 1158.32 710.48 1154.53 710.48ZM1194.61 710.48C1191.09 710.48 1187.73 710 1184.53 709.04C1181.39 708.08 1178.91 706.907 1177.09 705.52L1180.29 699.44C1182.11 700.667 1184.35 701.707 1187.01 702.56C1189.68 703.413 1192.4 703.84 1195.17 703.84C1198.75 703.84 1201.31 703.333 1202.85 702.32C1204.45 701.307 1205.25 699.893 1205.25 698.08C1205.25 696.747 1204.77 695.707 1203.81 694.96C1202.85 694.213 1201.57 693.653 1199.97 693.28C1198.43 692.907 1196.69 692.587 1194.77 692.32C1192.85 692 1190.93 691.627 1189.01 691.2C1187.09 690.72 1185.33 690.08 1183.73 689.28C1182.13 688.427 1180.85 687.28 1179.89 685.84C1178.93 684.347 1178.45 682.373 1178.45 679.92C1178.45 677.36 1179.17 675.12 1180.61 673.2C1182.05 671.28 1184.08 669.813 1186.69 668.8C1189.36 667.733 1192.51 667.2 1196.13 667.2C1198.91 667.2 1201.71 667.547 1204.53 668.24C1207.41 668.88 1209.76 669.813 1211.57 671.04L1208.29 677.12C1206.37 675.84 1204.37 674.96 1202.29 674.48C1200.21 674 1198.13 673.76 1196.05 673.76C1192.69 673.76 1190.19 674.32 1188.53 675.44C1186.88 676.507 1186.05 677.893 1186.05 679.6C1186.05 681.04 1186.53 682.16 1187.49 682.96C1188.51 683.707 1189.79 684.293 1191.33 684.72C1192.93 685.147 1194.69 685.52 1196.61 685.84C1198.53 686.107 1200.45 686.48 1202.37 686.96C1204.29 687.387 1206.03 688 1207.57 688.8C1209.17 689.6 1210.45 690.72 1211.41 692.16C1212.43 693.6 1212.93 695.52 1212.93 697.92C1212.93 700.48 1212.19 702.693 1210.69 704.56C1209.2 706.427 1207.09 707.893 1204.37 708.96C1201.65 709.973 1198.4 710.48 1194.61 710.48Z" fill="#333333"/>
</svg>
