<svg width="1440" height="764" viewBox="0 0 1440 764" fill="none" xmlns="http://www.w3.org/2000/svg">
<path d="M704.233 779.692H1150.29M0.675889 22.0457L0.675846 935.303M60.1505 22.0457L60.1504 935.303M119.625 22.0457L119.625 935.303M179.1 22.0457L179.1 935.303M238.574 22.0457L238.574 935.303M298.049 22.0457L298.049 935.303M357.523 22.0457L357.523 935.303M416.998 22.0457L416.998 935.303M476.472 22.0457L476.472 935.303M0 898.951H1843.71M535.947 22.0457L535.947 935.303M0 842.829H1843.71M595.422 22.0457L595.422 935.303M0 786.707H1843.71M654.896 22.0457V935.303M0 730.585H1843.71M714.371 22.0457L714.371 935.303M0 674.463H1843.71M773.845 22.0457L773.845 935.303M0 618.341H1843.71M833.32 22.0457L833.32 935.303M0 562.219H1843.71M892.794 22.0457L892.794 935.303M0 506.097H1843.71M952.269 22.0457L952.269 935.303M0 449.976H1843.71M1011.74 22.0457L1011.74 935.303M0 393.854H1843.71M1071.22 22.0457L1071.22 935.303M0 337.732H1843.71M1130.69 22.0457L1130.69 935.303M0 281.61H921.856H1843.71M1190.17 22.0457V935.303M0 225.488H1843.71M1249.64 22.0457L1249.64 935.303M0 169.366H1843.71M1309.12 22.0457L1309.12 935.303M0 113.244H1843.71M1368.59 22.0457L1368.59 935.303M0 57.1219H1843.71M1428.07 22.0457V935.303M0 1L1843.71 1M1487.54 22.0457V935.303M1547.01 22.0457V935.303M1606.49 22.0457V935.303M1665.96 22.0457V935.303M1725.44 22.0457V935.303M1784.91 22.0457V935.303M1844.39 22.0457V935.303" stroke="url(#paint0_radial_1099_63575)" stroke-width="1.27463"/>
<defs>
<radialGradient id="paint0_radial_1099_63575" cx="0" cy="0" r="1" gradientUnits="userSpaceOnUse" gradientTransform="translate(922.194 412.705) rotate(90) scale(522.598 1031.65)">
<stop stop-color="#F1F1F1" stop-opacity="0.1"/>
<stop offset="0.72" stop-color="#F1F1F1" stop-opacity="0"/>
</radialGradient>
</defs>
</svg>
