<svg width="1204" height="424" viewBox="0 0 1204 424" fill="none" xmlns="http://www.w3.org/2000/svg">
<path d="M383.992 592.605H738.055M-174.464 -159.119L-174.464 747M-127.255 -159.119L-127.255 747M-80.0465 -159.119L-80.0466 747M-32.838 -159.119L-32.8381 747M14.3705 -159.119L14.3704 747M61.579 -159.119L61.5789 747M108.787 -159.119L108.787 747M155.996 -159.119L155.996 747M203.204 -159.119L203.204 747M-175 710.932H1288.46M250.413 -159.119L250.413 747M-175 655.249H1288.46M297.621 -159.119L297.621 747M-175 599.566H1288.46M344.83 -159.119V747M-175 543.883H1288.46M392.038 -159.119L392.038 747M-175 488.199H1288.46M439.247 -159.119L439.247 747M-175 432.516H1288.46M486.455 -159.119L486.455 747M-175 376.833H1288.46M533.664 -159.119L533.664 747M-175 321.149H1288.46M580.872 -159.119L580.872 747M-175 265.466H1288.46M628.081 -159.119L628.081 747M-175 209.783H1288.46M675.289 -159.119L675.289 747M-175 154.1H1288.46M722.498 -159.119L722.498 747M-175 98.4164H556.732H1288.46M769.706 -159.119V747M-175 42.7331H1288.46M816.915 -159.119L816.915 747M-175 -12.9502H1288.46M864.123 -159.119L864.123 747M-175 -68.6334H1288.46M911.332 -159.119L911.332 747M-175 -124.317H1288.46M958.54 -159.119V747M-175 -180L1288.46 -180M1005.75 -159.119V747M1052.96 -159.119V747M1100.17 -159.119V747M1147.37 -159.119V747M1194.58 -159.119V747M1241.79 -159.119V747M1289 -159.119V747" stroke="url(#paint0_radial_1345_7793)" stroke-width="0.607507"/>
<defs>
<radialGradient id="paint0_radial_1345_7793" cx="0" cy="0" r="1" gradientUnits="userSpaceOnUse" gradientTransform="translate(557 228.487) rotate(90) scale(518.513 818.881)">
<stop stop-color="#F1F1F1" stop-opacity="0.1"/>
<stop offset="0.72" stop-color="#F1F1F1" stop-opacity="0"/>
</radialGradient>
</defs>
</svg>
