<svg width="583" height="579" viewBox="0 0 583 579" fill="none" xmlns="http://www.w3.org/2000/svg">
<path d="M544.154 5.22687C545.897 5.17143 548.661 4.8101 550.131 5.88874C551.904 7.1893 551.995 10.6232 552.32 12.6234C554.455 14.3404 556.769 15.6983 559.117 17.0936C561.6 16.9628 564.937 16.4192 566.86 18.3638C569.531 21.0613 565.938 28.2674 566.205 31.9022C566.507 36.0109 568.568 38.4121 571.581 40.9656C571.438 43.0977 571.015 45.2406 570.68 47.3513C570.121 47.4732 569.567 47.5536 569.001 47.6327C555.571 49.5101 562.441 57.834 557.522 63.9625C556.968 64.6537 556.159 65.1232 555.255 65.1625C552.68 65.2743 550.432 63.4399 548.561 61.9192C545.347 62.0771 542.075 62.8135 538.9 63.3398C537.558 65.3924 536.444 66.984 534.322 68.2656C532.678 67.8623 531.033 67.0906 529.448 66.4859L528.04 60.5643C525.759 58.7365 523.523 56.8156 520.95 55.4039C518.505 55.4633 515.55 55.7651 513.363 54.4951C512.489 53.9877 511.819 53.3047 511.593 52.2953C510.943 49.3663 512.978 46.8175 514.463 44.5148C514.018 41.7024 513.483 38.9448 512.83 36.1733C511.106 34.8561 509.216 33.7228 508.536 31.5593C508.124 30.2463 508.032 29.0494 508.771 27.8404C510.302 25.3364 513.027 24.9317 515.642 24.4031C517.749 22.2971 519.35 19.8189 520.86 17.2702C520.841 15.011 520.872 12.7524 520.952 10.4945C522.385 9.18127 524.093 7.66528 526.164 7.73865C528.465 7.82004 529.995 9.79367 531.441 11.3381C534.215 10.3477 537.288 9.90774 540.173 9.3397C541.466 7.93568 542.793 6.56474 544.154 5.22687Z" fill="#74A6F7"/>
<path d="M537.896 28.4386C539.586 28.4309 541.349 28.3759 542.959 28.975C544.839 29.6739 546.476 31.4141 547.283 33.2225C547.4 33.4813 547.503 33.7454 547.592 34.015C547.68 34.2847 547.755 34.5583 547.815 34.8358C547.876 35.1134 547.921 35.3934 547.952 35.6756C547.982 35.958 547.997 36.2412 547.997 36.5251C547.997 36.8091 547.982 37.0923 547.953 37.3747C547.923 37.6571 547.878 37.9371 547.819 38.2147C547.759 38.4924 547.685 38.7662 547.597 39.036C547.508 39.3058 547.406 39.5702 547.29 39.8292C546.187 42.2799 544.2 43.6978 541.747 44.614C540.208 44.6603 538.718 44.6505 537.244 44.142C535.165 43.4252 533.382 41.7598 532.493 39.7527C532.378 39.4959 532.276 39.2339 532.187 38.9667C532.1 38.6993 532.026 38.4281 531.965 38.153C531.906 37.8781 531.861 37.6007 531.829 37.3209C531.798 37.0412 531.781 36.7606 531.78 36.4791C531.778 36.1977 531.791 35.9169 531.819 35.6367C531.846 35.3566 531.887 35.0787 531.944 34.8028C532 34.5271 532.071 34.255 532.156 33.9866C532.241 33.7181 532.339 33.4549 532.451 33.1967C533.574 30.5953 535.441 29.5104 537.896 28.4386Z" fill="#F6FAFF"/>
<path d="M538.987 31.3475C540.718 31.4172 542.469 32.1302 543.611 33.4704C544.441 34.4441 544.767 35.6698 544.624 36.9333C544.371 39.1824 543.099 40.1988 541.387 41.4523C540.982 41.4726 540.577 41.4888 540.172 41.4631C538.76 41.3739 537.284 40.6402 536.362 39.5653C535.503 38.5636 535.282 37.2472 535.482 35.9705C535.841 33.6684 537.248 32.6421 538.987 31.3475Z" fill="#0B78EB" fill-opacity="0.2"/>
<path d="M537.759 17.1059C539.806 16.8388 541.675 16.8557 543.694 17.2975C544.347 17.4436 544.991 17.6216 545.626 17.8315C546.261 18.0412 546.884 18.2817 547.495 18.553C548.107 18.8244 548.703 19.1251 549.284 19.4554C549.866 19.7856 550.43 20.1437 550.977 20.5296C551.523 20.9155 552.049 21.3275 552.554 21.7654C553.059 22.2033 553.542 22.665 554.002 23.1506C554.462 23.6362 554.897 24.1433 555.307 24.6718C555.717 25.2004 556.099 25.7478 556.454 26.3141C559.022 30.3688 560.159 35.6509 559.064 40.3657C557.869 45.511 554.243 50.4342 549.736 53.1397C545.866 55.4618 540.592 56.754 536.142 55.5528C534.224 55.0354 532.655 54.3474 531.604 52.609L531.829 51.7412C534.105 50.8452 539.784 52.5227 543.211 51.9549C548.315 51.1093 551.19 48.5781 554.117 44.5066C554.678 43.3568 555.256 42.1316 555.557 40.8818C556.61 36.4865 556.112 31.6318 553.681 27.7684C551.408 24.1586 547.749 21.8772 543.614 20.996C539.321 20.0805 534.563 20.7385 530.868 23.1812C521.988 29.0524 525.452 35.3485 523.804 43.2755L523.247 43.5564C521.81 42.1281 521.125 39.825 520.767 37.8617C520.049 33.9419 522.063 28.6636 524.283 25.4572C527.569 20.7127 532.164 18.1317 537.759 17.1059Z" fill="#F6FAFF"/>
<path d="M11.4921 257.718C16.3031 260.752 20.6523 266.151 24.2494 270.522C25.6654 272.242 35.4227 285.912 36.2627 286.144C37.7364 286.553 38.996 285.075 40.5011 286.099C41.0833 289.582 40.6737 293.282 41.4283 296.7C42.0802 299.65 43.309 302.651 44.3271 305.498C50.0875 321.605 59.7144 333.931 73.5958 343.827C77.0462 346.286 80.8401 348.798 84.7611 350.421C84.2928 351.614 83.937 351.635 82.8008 352.145C72.8699 356.607 64.6795 362.662 56.0578 369.214C52.7186 371.75 49.1099 375.067 45.4358 377.011C44.651 376.084 44.302 375.863 43.1322 375.533C42.0676 375.801 41.6005 375.918 41.0134 376.899C40.3994 377.926 40.652 379.006 41.0026 380.071C41.1448 380.504 41.1212 380.433 41.2726 380.775C37.1785 381.495 22.9344 393.904 16.7154 395.809C12.9632 384.365 10.9974 372.583 9.42102 360.683C8.53962 354.028 7.31027 347.311 6.80826 340.621C5.36634 321.409 6.64547 301.795 7.8336 282.6C8.32303 274.691 12.4195 265.463 11.4921 257.718Z" fill="#F6FAFF"/>
<path d="M36.2253 330.225C37.1009 330.349 37.5865 330.539 38.3359 331.007C40.4924 334.689 39.7953 340.73 39.7902 344.91C38.5121 344.967 38.1079 345.156 37.0274 344.419C35.067 340.552 36.0641 334.447 36.2253 330.225Z" fill="#FEF7F6"/>
<path d="M36.0679 307.753C37.1309 307.753 37.7889 307.713 38.6984 308.361C40.3681 311.82 39.6527 318.471 38.5872 322.115C37.4417 321.895 37.0953 321.886 36.1845 321.109C34.5302 317.573 34.8827 311.428 36.0679 307.753Z" fill="#FEF7F6"/>
<path d="M37.8757 352.56C38.839 352.731 39.5861 352.677 40.2474 353.504C42.431 356.227 42.4231 364.305 41.7202 367.586C41.2884 367.516 40.7291 367.456 40.3124 367.29C39.4759 366.957 39.0488 366.234 38.6959 365.448C37.0863 361.862 36.4414 356.272 37.8757 352.56Z" fill="#FEF7F6"/>
<path d="M121.117 64.835C130.373 53.0195 146.778 42.729 159.722 35.2512C220.576 0.0930522 296.506 -8.23155 364.503 7.89062C375.238 10.4356 386.265 13.23 396.648 16.9605C404.227 19.6838 411.107 23.3719 418.966 25.4575C418.103 27.4568 409.553 30.6536 407.251 32.0428C407.899 35.2186 409.846 41.2135 408.136 44.1014C407.359 45.4137 405.813 46.3407 404.327 46.5856C402.805 46.836 401.027 46.7141 399.467 46.7583C383.769 46.3997 368.085 44.6013 352.402 43.8091C308.215 41.2843 263.993 39.9565 219.736 39.8257C207.312 39.7899 194.904 40.2257 182.513 41.1333C177.393 41.487 172.066 41.57 167.058 42.7361C162.702 43.7503 159.032 45.5674 155.788 48.679C151.802 52.5038 149.046 57.838 148.684 63.3895C148.413 65.1629 148.322 66.867 148.282 68.6564C147.004 70.6546 147.753 78.5893 147.732 81.27C138.846 75.9547 129.805 70.4543 121.117 64.835Z" fill="#F6FAFF"/>
<path d="M72.956 441.691C78.9618 439.596 85.5801 438.887 91.7828 437.457C104.2 434.594 116.691 430.821 129.308 429.029C136.129 428.061 142.915 428.019 149.779 427.713L150.598 462.676C150.721 469.747 150.059 487.162 151.805 493.053C152.572 494.183 152.972 494.431 152.881 495.829L152.026 497.095C151.931 501.153 152.148 505.233 152.284 509.291C152.56 517.492 152.162 526.641 158.293 532.966C159.914 534.638 162.321 536.666 164.53 537.452C171.847 540.06 182.45 539.135 190.247 539.17C245.03 539.621 299.809 539.4 354.587 538.508C372.716 538.128 390.748 537.908 408.868 537.066C419.191 536.645 429.512 536.165 439.829 535.625C448.772 535.137 456.975 534.98 465.733 532.699C461.23 538.03 456.077 541.977 449.998 545.378C437.493 552.377 422.996 557.806 409.42 562.323C347.795 582.828 284.73 583.144 221.617 570.229C210.73 568 199.8 565.674 189.103 562.641C183.268 561.045 177.491 559.263 171.771 557.296C166.049 555.329 160.398 553.182 154.815 550.853C149.233 548.524 143.73 546.018 138.308 543.335C132.885 540.653 127.554 537.8 122.315 534.777C117.177 531.857 111.961 529.027 107.084 525.68C99.0637 520.177 91.6498 513.635 84.5089 507.048C67.655 491.502 54.8662 477.099 42.6422 457.596C38.8113 451.485 36.4551 444.681 32.9314 438.454L32.7412 438.124C42.7213 440.711 51.3841 443.879 61.9755 442.966C63.3804 442.845 65.3471 442.851 66.5703 442.178C66.7579 442.075 66.9383 441.96 67.1223 441.851C67.0447 440.379 67.0522 439.31 67.899 438.101L68.8272 438.045C70.5139 438.845 71.7078 440.344 72.956 441.691Z" fill="#F6FAFF"/>
<path d="M118.368 481.864C121.713 482.169 127.869 485.139 130.291 487.528C131.149 488.374 130.875 489.207 130.773 490.274C130.391 490.234 130.008 490.197 129.631 490.131C126.525 489.593 119.951 487.794 118.309 484.866C117.694 483.773 118.083 482.98 118.368 481.864Z" fill="#FEF7F6"/>
<path d="M98.757 470.494C98.8438 470.494 98.9308 470.491 99.0176 470.494C99.1616 470.499 99.305 470.515 99.4487 470.524C102.391 470.699 108.385 475.191 110.415 477.53C111.283 478.531 111.22 478.957 111.122 480.178C110.728 480.15 110.338 480.108 109.949 480.035C106.569 479.385 100.369 476.428 98.6176 473.336C97.9878 472.225 98.3817 471.584 98.757 470.494Z" fill="#FEF7F6"/>
<path d="M152.026 497.095C149.111 496.688 145.502 496.531 142.849 495.226C141.554 494.59 140.639 494.056 140.12 492.676C140.449 492.059 140.363 491.989 141.062 491.672C144.265 490.216 148.773 491.97 151.806 493.053C152.573 494.183 152.973 494.431 152.882 495.829L152.026 497.095Z" fill="#FEF7F6"/>
<path d="M81.7621 455.14C85.1474 455.871 89.3399 460.623 91.5212 463.224C92.6821 464.609 92.905 465.079 92.766 466.85C92.6914 466.85 92.6166 466.849 92.542 466.849C91.8865 466.859 91.2039 466.88 90.5639 466.709C87.6425 465.93 84.2982 462.571 82.6625 460.087C81.462 458.264 81.299 457.268 81.7621 455.14Z" fill="#FEF7F6"/>
<path d="M67.1226 441.851C67.0451 440.379 67.0526 439.31 67.8994 438.101L68.8276 438.045C70.5143 438.845 71.7082 440.344 72.9564 441.691C74.542 443.895 76.5766 446.262 76.6759 449.097C76.1312 450.16 76.1625 450.092 75.0301 450.496C71.4605 449.638 70.1518 443.834 67.1226 441.851Z" fill="#FEF7F6"/>
<path d="M488.239 72.2902C495.282 78.2332 500.788 84.98 507.279 91.42C509.31 93.4359 512.13 94.7837 513.929 96.9802C528.528 114.795 542.811 138.019 552.432 158.926C566.832 190.218 578.021 230.268 580.91 264.613C586.367 329.465 577.845 396.576 546.357 454.286C539.433 466.976 531.466 479.612 522.1 490.657C513.095 501.277 486.776 526.592 472.919 528.164C477.249 522.699 482.002 518.376 483.862 511.317C486.274 502.169 484.954 474.152 484.868 462.872L484.439 397.249C484.412 394.468 484.584 391.696 484.737 388.92C485.771 386.793 487.796 385.31 488.697 383.093C491.502 376.199 492.956 368.281 494.764 361.055L503.941 324.606L525.838 237.844C529.63 222.819 532.926 207.474 537.384 192.637C523.534 199.17 510.054 206.833 496.491 213.966C491.695 216.487 485.971 220.44 480.818 221.786C477.878 224.426 467.352 229.648 463.389 231.178L462.697 230.967L462.536 230.644C461.424 198.558 462.95 166.349 461.487 134.219C463.878 131.124 469.237 129.581 472.774 128.149C472.225 124.058 471.843 119.955 471.453 115.846C472.901 114.81 474.43 113.914 475.953 112.996C477.24 110.058 479.6 107.223 481.632 104.747C485.476 104.787 489.3 104.686 493.141 104.546C494.626 100.292 496.086 96.0297 497.523 91.7587C494.657 89.2284 491.647 86.9255 488.605 84.6153C488.636 80.4989 488.115 76.4021 488.239 72.2902Z" fill="#F6FAFF"/>
<path d="M500.227 123.866L501.001 124.352L501.141 125.482C500.442 127.345 499.048 128.707 497.752 130.181C497.199 129.965 497.157 129.74 496.821 129.269C497.033 126.859 498.547 125.414 500.227 123.866Z" fill="#F6FAFF"/>
<path d="M471.453 115.846C472.901 114.81 474.43 113.913 475.953 112.996C476.012 116.634 477.656 142.839 477.293 143.702C477.132 144.086 476.819 144.387 476.582 144.73C474.395 145.908 471.052 146.517 469.377 148.246L469.431 149.027C471.888 149.216 475.233 147.533 477.543 146.595C477.909 156.94 478.753 167.253 479.298 177.589C479.927 192.317 480.433 207.05 480.818 221.786C477.878 224.426 467.352 229.648 463.389 231.178L462.697 230.967L462.536 230.644C461.424 198.558 462.95 166.349 461.487 134.219C463.878 131.124 469.237 129.581 472.774 128.149C472.225 124.058 471.843 119.955 471.453 115.846Z" fill="#0B78EB"/>
<path d="M30.4231 195.58C28.1634 183.952 25.61 172.273 24.5692 160.453C22.4443 136.322 23.1583 111.76 22.4575 87.5344C22.0381 73.0378 20.1763 58.5759 19.8359 44.0847C19.7838 41.873 19.7601 38.9668 20.5709 36.8805C20.9815 35.8241 22.0462 35.089 23.0776 34.7255C29.4792 32.4698 39.5346 36.0359 45.9785 37.6812C72.0424 44.3357 97.0319 52.6206 121.117 64.8351C129.805 70.4544 138.846 75.9548 147.732 81.2701C147.753 78.5894 147.004 70.6547 148.282 68.6565C148.703 91.3023 148.153 114.039 148.108 136.69C148.071 155.027 148.644 173.498 148.031 191.819L148.019 198.073C149.405 208.95 148.352 223.386 148.359 234.724C148.374 252.216 148.501 269.707 148.74 287.198C148.813 296.307 148.628 305.465 148.869 314.569C148.739 325.87 148.744 337.172 148.885 348.473C148.977 354.508 149.365 360.578 149.196 366.611C149.339 374.896 149.61 383.219 149.507 391.505L149.36 392.133C150.513 402.723 149.753 416.697 149.779 427.713C142.915 428.019 136.129 428.061 129.308 429.029C116.691 430.821 104.2 434.594 91.7828 437.457C85.5801 438.887 78.9618 439.596 72.956 441.691C71.7078 440.344 70.5139 438.845 68.8273 438.045L67.899 438.101C67.0522 439.31 67.0447 440.379 67.1223 441.851C66.9383 441.96 66.7579 442.075 66.5703 442.178C65.3471 442.851 63.3804 442.845 61.9755 442.966C51.3841 443.879 42.7213 440.711 32.7412 438.124C23.1964 430.092 8.71968 418.017 4.05644 406.124C3.52962 404.779 3.03285 403.006 3.72473 401.636C4.756 399.595 14.1868 396.788 16.7152 395.809C22.9342 393.904 37.1783 381.495 41.2724 380.775C41.121 380.433 41.1446 380.505 41.0024 380.071C40.6518 379.006 40.3992 377.926 41.0132 376.899C41.6003 375.918 42.0674 375.801 43.132 375.533C44.3018 375.863 44.6508 376.084 45.4356 377.011C49.1096 375.067 52.7184 371.75 56.0576 369.214C64.6793 362.662 72.8697 356.608 82.8006 352.145C83.9368 351.635 84.2926 351.614 84.7609 350.421C80.8399 348.798 77.046 346.286 73.5956 343.827C59.7142 333.932 50.0873 321.605 44.3269 305.498C43.3088 302.651 42.0799 299.65 41.4281 296.7C40.6735 293.282 41.0831 289.582 40.5009 286.099C38.9957 285.075 37.7362 286.553 36.2625 286.144C35.4225 285.912 25.6652 272.242 24.2491 270.522C20.6521 266.151 16.3029 260.752 11.4919 257.718C8.33592 255.205 0.467783 249.198 0.0218426 245.067C-0.0815637 244.109 0.18167 243.199 0.822545 242.475C3.36316 239.601 11.3492 238.82 15.076 238.56C17.3908 234.232 18.1309 228.518 19.519 223.819C22.2963 214.419 25.7709 204.205 30.4231 195.58Z" fill="url(#paint0_linear_3267_1298)"/>
<path d="M136.899 119.961C137.435 120.009 137.95 120.182 138.469 120.32L138.7 121.102C137.793 122.46 136.53 123.187 135.197 124.074C134.616 124.064 134.216 123.899 133.671 123.71L133.594 122.925C134.429 121.629 135.673 120.856 136.899 119.961Z" fill="#F6FAFF"/>
<path d="M107.484 145.616L108.254 145.81L108.736 146.639C108.101 149.93 103.865 153.583 101.334 155.584C100.825 155.427 100.561 155.171 100.15 154.842L100.158 153.747C101.786 150.46 104.81 148.042 107.484 145.616Z" fill="#F6FAFF"/>
<path d="M92.6443 162.284C93.5019 162.744 93.4174 162.751 93.7148 163.691C92.7606 167.533 88.7393 171.515 85.8084 174.015C85.289 173.569 85.1525 173.281 84.8479 172.682C85.3936 168.638 89.796 164.867 92.6443 162.284Z" fill="#FEF7F6"/>
<path d="M79.2688 179.781C80.0426 180.474 80.0201 180.584 80.2435 181.613C79.5724 185.093 75.9598 190.179 73.171 192.342C72.3107 191.713 72.3081 191.639 71.9802 190.618C72.626 186.63 76.4337 182.469 79.2688 179.781Z" fill="#FEF7F6"/>
<path d="M48.1761 240.726C48.8313 240.929 49.1468 241.121 49.701 241.502C50.7038 245.446 48.0713 250.663 46.4365 254.15L45.3075 254.123C44.6538 253.662 44.4854 253.556 44.3366 252.709C43.7232 249.22 46.1288 243.46 48.1761 240.726Z" fill="#FEF7F6"/>
<path d="M66.8215 198.946L67.8883 199.639C68.0152 200.109 68.1426 200.544 68.1227 201.037C67.9782 204.604 64.3103 210.275 61.8655 212.698C61.1593 212.048 60.6917 211.711 60.6376 210.696C60.4531 207.243 64.5695 201.379 66.8215 198.946Z" fill="#FEF7F6"/>
<path d="M41.2132 263.114L43.414 263.247L44.0113 263.94C44.7728 267.935 42.8278 272.452 41.7047 276.254C40.5524 276.396 40.4631 276.539 39.4689 275.847C38.3176 272.576 39.8357 266.232 41.2132 263.114Z" fill="#FEF7F6"/>
<path d="M51.3092 233.079C50.5986 230.824 52.0685 226.225 53.181 224.102C53.8218 222.88 54.9031 221.143 56.2786 220.691C56.5974 220.586 56.7768 220.583 57.1296 220.537C57.71 221.009 57.8472 220.932 57.9775 221.732C58.4356 224.537 55.1142 230.553 53.3425 232.71C53.2003 232.883 53.051 233.049 52.9051 233.219L51.3092 233.079Z" fill="#FEF7F6"/>
<path d="M30.4233 195.58L30.791 195.073C34.7758 204.869 42.2539 225.798 49.859 233.023C50.5377 233.192 50.6097 233.292 51.3093 233.079L52.9053 233.219C51.9353 233.83 50.9458 234.368 49.8165 234.621C47.0188 235.252 16.6402 239.032 15.4398 238.705C15.3139 238.672 15.1974 238.609 15.0762 238.56C17.3909 234.232 18.131 228.518 19.5191 223.819C22.2964 214.418 25.771 204.205 30.4233 195.58Z" fill="#F6FAFF"/>
<path d="M148.019 198.073C147.568 201.512 147.804 205.264 147.753 208.75C147.126 208.39 147.009 207.472 146.77 206.796L146.192 206.691L145.362 207.643L144.302 207.327L144.768 207.97C141.931 204.434 140.384 198.184 138.466 194.013C135.216 187.069 131.781 180.219 128.16 173.461C120.912 159.716 113.033 146.342 104.523 133.341C96.0122 120.34 86.9073 107.769 77.2086 95.6283C72.6397 89.9542 68.2238 84.0962 63.4266 78.6138C60.0175 74.7175 56.1259 71.2522 52.9998 67.1131C52.2248 66.0871 51.2608 64.8155 51.2197 63.5208C51.6016 63.5117 51.7016 63.4848 52.1182 63.6165C59.0161 65.7966 89.1236 101.605 94.3187 108.301C101.561 117.636 108.939 127.499 114.941 137.708C118.192 135.451 120.885 131.896 124.237 129.994L125.075 130.299L125.245 131.19C123.938 134.615 119.566 137.764 116.908 140.211C123.696 150.453 130.26 161.424 136.047 172.252C139.292 178.326 142.045 186.09 146.12 191.418L146.995 191.014C147.035 190.366 147.084 189.821 147.289 189.203L148.031 191.819L148.019 198.073Z" fill="#F6FAFF"/>
<path d="M145.245 363.283C137.835 348.235 131.325 332.69 123.968 317.589C110.962 290.892 100.925 276.751 72.6925 264.971C65.6971 262.111 58.5335 259.764 51.2018 257.93C48.3974 257.255 38.4816 256.23 36.7347 255.283L36.9494 254.75C39.2585 254.088 42.1721 254.679 44.5551 254.906C47.8452 255.198 51.1139 255.646 54.3614 256.249C57.609 256.852 60.8206 257.608 63.9962 258.516C67.1718 259.425 70.2971 260.481 73.3723 261.687C76.4474 262.893 79.4583 264.242 82.4052 265.734C110.399 279.949 120.237 299.486 132.773 327.016C137.444 337.273 142.487 347.834 145.985 358.553C149.103 361.945 148.061 362.732 149.196 366.611C149.339 374.896 149.61 383.219 149.507 391.505L149.36 392.132C150.513 402.723 149.753 416.697 149.779 427.713C142.915 428.019 136.129 428.061 129.308 429.029C116.691 430.821 104.2 434.594 91.7828 437.457C85.5802 438.887 78.9619 439.596 72.9561 441.691C71.7079 440.344 70.514 438.845 68.8273 438.045L67.8991 438.101C67.0523 439.31 67.0448 440.379 67.1224 441.851C66.9384 441.96 66.758 442.075 66.5704 442.178C65.3472 442.85 63.3805 442.845 61.9756 442.966C51.3841 443.879 42.7214 440.711 32.7413 438.124C23.1965 430.092 8.71977 418.017 4.05652 406.124C3.52971 404.779 3.03294 403.006 3.72482 401.636C4.75609 399.594 14.1869 396.787 16.7152 395.809C22.9343 393.904 37.1783 381.495 41.2725 380.775C41.1211 380.433 41.1446 380.504 41.0025 380.071C40.6519 379.006 40.3993 377.926 41.0133 376.899C41.6004 375.918 42.0674 375.801 43.1321 375.533C44.3019 375.863 44.6509 376.084 45.4357 377.011C49.1097 375.067 52.7185 371.75 56.0577 369.214C64.6794 362.662 72.8698 356.607 82.8006 352.145C83.9369 351.635 84.2927 351.614 84.761 350.421C84.943 350.429 85.1248 350.44 85.307 350.443C88.8003 350.506 92.9879 348.351 96.6098 347.89C112.962 345.809 126.665 351.673 138.223 362.959C141.484 366.143 145.032 371.809 148.256 374.008C148.342 372.108 148.225 370.253 148.384 368.342L147.634 368.854C146.642 367.156 145.783 365.18 145.245 363.283Z" fill="#0B78EB" fill-opacity="0.2"/>
<path d="M48.3062 397.069C48.6464 397.191 48.8052 397.229 49.1301 397.449C51.3231 398.943 53.9921 405.801 54.4283 408.52C54.6396 409.839 54.3266 410.162 53.5911 411.156L51.7168 410.749C49.1497 408.538 47.8117 403.816 47.2716 400.566C46.9956 398.905 47.4019 398.361 48.3062 397.069Z" fill="#FEF7F6"/>
<path d="M41.2722 380.775C41.1208 380.433 41.1444 380.505 41.0022 380.071C40.6516 379.006 40.399 377.926 41.013 376.899C41.6001 375.918 42.0672 375.801 43.1318 375.533C44.3016 375.863 44.6506 376.084 45.4354 377.011C45.4439 377.158 45.4506 377.303 45.4611 377.449C45.7044 380.857 47.9114 386.073 46.4769 389.181C45.5208 389.61 45.4081 389.511 44.3674 389.282C42.4743 387.416 41.8918 383.275 41.2722 380.775Z" fill="#FEF7F6"/>
<path d="M55.911 418.117L57.556 418.396C60.2322 420.171 62.1519 423.984 63.2916 426.901C64.0995 428.969 64.2773 429.823 63.3763 431.878C62.9508 431.85 62.33 431.848 61.9143 431.692C59.3066 430.718 56.6423 424.361 55.7766 421.9C55.2467 420.395 55.2158 419.56 55.911 418.117Z" fill="#FEF7F6"/>
<path d="M149.36 392.132L148.946 396.19C146.649 396.134 141.674 390.683 139.313 389.271C137.493 388.183 135.395 387.537 133.453 386.7C127.479 384.125 122.576 382.44 115.938 382.579C107.191 382.763 97.0014 386.571 89.311 390.704C85.7089 392.639 76.3559 400.335 73.0493 400.435L72.9297 399.537C75.1748 394.973 85.9835 388.62 90.6604 386.145C107.393 377.285 121.563 375.565 138.703 384.621C141.402 386.048 145.795 389.701 148.345 390.382C148.543 390.435 148.742 390.476 148.939 390.525L149.507 391.505L149.36 392.132Z" fill="#F6FAFF"/>
<path d="M444.666 32.2162C446.444 29.3647 448.316 25.8345 451.836 24.9522C455.511 24.0308 461.16 26.6447 464.683 27.7874C465.025 31.6992 465.064 35.5947 465.319 39.5042C469.963 42.1785 473.551 45.5895 477.446 49.2042C481.071 48.8575 484.746 48.3631 488.386 48.2681C490.566 51.7658 494.926 57.3032 493.95 61.6472C492.839 66.596 486.028 66.0779 488.24 72.2902C488.115 76.4021 488.636 80.4989 488.605 84.6153C491.647 86.9255 494.657 89.2284 497.523 91.7587C496.086 96.0297 494.626 100.292 493.141 104.547C489.3 104.686 485.476 104.787 481.632 104.747C479.6 107.223 477.24 110.058 475.953 112.996C474.43 113.914 472.901 114.81 471.453 115.846C471.843 119.955 472.225 124.058 472.774 128.149C469.237 129.581 463.878 131.124 461.487 134.219C462.95 166.349 461.424 198.558 462.536 230.644L462.697 230.967L463.389 231.178C467.352 229.648 477.878 224.426 480.818 221.786C485.971 220.44 491.695 216.487 496.491 213.966C510.054 206.833 523.534 199.17 537.384 192.637C532.926 207.474 529.63 222.819 525.838 237.844L503.941 324.606L494.763 361.055C492.956 368.281 491.502 376.199 488.697 383.093C487.796 385.31 485.771 386.793 484.737 388.92C484.584 391.696 484.412 394.468 484.439 397.249L484.868 462.872C484.954 474.152 486.274 502.169 483.862 511.317C482.002 518.376 477.249 522.699 472.919 528.164C471.261 529.96 468.756 530.914 466.774 532.32L465.733 532.699C456.975 534.98 448.772 535.137 439.829 535.625C429.512 536.165 419.191 536.645 408.868 537.066C390.748 537.908 372.716 538.128 354.587 538.508C299.809 539.4 245.03 539.621 190.247 539.17C182.45 539.135 171.847 540.06 164.53 537.452C162.321 536.666 159.914 534.638 158.293 532.966C152.162 526.641 152.56 517.492 152.284 509.291C152.148 505.233 151.931 501.153 152.026 497.095L152.881 495.829C152.972 494.431 152.572 494.183 151.805 493.053C150.059 487.162 150.721 469.747 150.598 462.676L149.779 427.713C149.753 416.697 150.513 402.723 149.36 392.133L149.507 391.505C149.61 383.219 149.339 374.896 149.196 366.611C149.365 360.578 148.978 354.508 148.885 348.473C148.744 337.172 148.739 325.87 148.869 314.569C148.628 305.465 148.813 296.307 148.74 287.198C148.501 269.707 148.374 252.216 148.359 234.724C148.352 223.386 149.405 208.95 148.019 198.073L148.031 191.819C148.644 173.498 148.071 155.027 148.108 136.69C148.153 114.039 148.703 91.3023 148.282 68.6565C148.322 66.8671 148.413 65.163 148.684 63.3895C149.046 57.8381 151.802 52.5039 155.788 48.6791C159.032 45.5675 162.702 43.7504 167.058 42.7362C172.066 41.5701 177.393 41.4871 182.513 41.1334C194.904 40.2258 207.312 39.7899 219.736 39.8258C263.993 39.9566 308.215 41.2844 352.402 43.8092C368.085 44.6014 383.769 46.3998 399.467 46.7584C401.027 46.7142 402.805 46.8361 404.327 46.5857C405.813 46.3408 407.359 45.4138 408.136 44.1015C409.846 41.2136 407.899 35.2186 407.251 32.0429C409.553 30.6537 418.103 27.4569 418.966 25.4576C422.306 25.6892 426.842 30.7502 429.424 32.8466C434.51 32.521 439.569 32.2536 444.666 32.2162Z" fill="#B8CDFA"/>
<path d="M358.508 425.172C359.35 425.331 359.402 425.373 360.008 425.984C360 426.124 360.012 426.265 359.986 426.403C359.441 429.235 354.435 432.753 352.253 434.396L351.048 434.047L350.684 433.214C351.734 430.117 356.042 427.25 358.508 425.172Z" fill="#F6FAFF"/>
<path d="M261.739 482.573L263.032 482.451C263.876 482.88 264.187 483.21 264.733 483.946L264.615 484.707C262.269 487.511 257.177 488.365 253.743 488.994C253.558 488.997 253.371 489.01 253.186 489.003C252.162 488.971 251.722 488.94 251.02 488.208C251.072 488.077 251.105 487.939 251.173 487.817C252.686 485.113 258.859 483.495 261.739 482.573Z" fill="#FEF7F6"/>
<path d="M284.239 473.491C284.976 473.78 285.264 474.412 285.668 475.05L285.411 476.078C282.957 479.1 277.867 480.574 274.34 482.038C274.166 481.939 273.98 481.855 273.816 481.738C272.994 481.16 272.889 480.548 272.763 479.621C274.194 476.791 281.252 474.753 284.239 473.491Z" fill="#FEF7F6"/>
<path d="M402.921 369.865C404.61 369.362 429.141 377.434 432.91 378.534L430.627 382.346C425.922 382.429 399.001 383.39 396.709 381.413C396.641 381.355 396.589 381.282 396.529 381.215C398.634 377.417 400.764 373.633 402.921 369.865Z" fill="#FEF7F6"/>
<path d="M201.879 360.752C203.718 360.625 205.392 360.735 207.138 361.381C210.392 362.585 213.042 364.793 214.408 368.057C215.645 371.009 215.624 374.527 214.247 377.428C212.419 381.285 209.482 382.99 205.666 384.351C203.22 384.424 201.074 384.373 198.803 383.285C198.423 383.105 198.054 382.906 197.695 382.688C197.336 382.469 196.989 382.233 196.654 381.979C196.32 381.725 195.999 381.454 195.692 381.166C195.386 380.88 195.095 380.578 194.819 380.26C194.544 379.943 194.285 379.613 194.043 379.27C193.802 378.925 193.579 378.569 193.374 378.202C193.169 377.835 192.983 377.459 192.817 377.074C192.651 376.687 192.506 376.294 192.38 375.893C191.495 373.028 191.723 369.837 193.154 367.187C195.028 363.715 198.246 361.881 201.879 360.752Z" fill="#FEF7F6"/>
<path d="M200.966 397.436C203.5 397.14 205.713 397.172 208.115 398.171C208.486 398.322 208.847 398.492 209.2 398.681C209.554 398.87 209.897 399.076 210.229 399.299C210.562 399.523 210.882 399.763 211.189 400.019C211.498 400.274 211.792 400.545 212.072 400.831C212.352 401.117 212.618 401.416 212.868 401.729C213.118 402.041 213.352 402.365 213.569 402.702C213.786 403.038 213.986 403.385 214.168 403.741C214.35 404.098 214.514 404.463 214.658 404.836C214.796 405.192 214.915 405.553 215.017 405.921C215.118 406.289 215.201 406.661 215.265 407.036C215.33 407.412 215.376 407.79 215.403 408.169C215.429 408.55 215.438 408.931 215.427 409.312C215.417 409.692 215.387 410.072 215.34 410.45C215.292 410.829 215.226 411.204 215.141 411.575C215.056 411.947 214.952 412.313 214.831 412.674C214.709 413.035 214.57 413.39 214.414 413.738C212.814 417.243 209.892 419.16 206.421 420.44C203.775 420.948 201.436 420.845 198.929 419.761C196.058 418.519 193.892 416.199 192.754 413.299C192.609 412.917 192.483 412.529 192.375 412.134C192.268 411.741 192.181 411.342 192.113 410.938C192.047 410.535 192 410.13 191.972 409.722C191.945 409.314 191.939 408.906 191.953 408.498C191.966 408.089 191.999 407.682 192.054 407.277C192.108 406.871 192.182 406.47 192.276 406.071C192.369 405.674 192.482 405.282 192.615 404.896C192.749 404.509 192.901 404.13 193.071 403.759C194.723 400.246 197.457 398.636 200.966 397.436Z" fill="#FEF7F6"/>
<path d="M202.536 324.541C204.702 324.424 206.994 324.831 208.962 325.755C211.668 327.025 213.745 329.269 214.716 332.104C215.797 335.268 215.549 338.908 213.937 341.851C211.967 345.444 208.884 347.049 205.149 348.246C204.804 348.248 204.46 348.243 204.115 348.23C200.625 348.129 197.518 347.175 195.126 344.49C192.091 341.083 191.968 337.118 192.125 332.798C192.543 332.033 192.969 331.268 193.455 330.543C195.767 327.083 198.461 325.31 202.536 324.541Z" fill="#FEF7F6"/>
<path d="M201.444 288.235C203.226 288.101 205.095 288.071 206.823 288.588C210.005 289.542 212.758 291.699 214.232 294.705C214.402 295.05 214.555 295.402 214.69 295.762C214.825 296.121 214.942 296.486 215.041 296.857C215.14 297.229 215.221 297.604 215.284 297.984C215.345 298.362 215.389 298.743 215.413 299.126C215.437 299.51 215.443 299.894 215.429 300.277C215.416 300.661 215.384 301.044 215.333 301.425C215.28 301.806 215.21 302.183 215.121 302.557C215.033 302.931 214.926 303.299 214.802 303.662C213.375 307.841 210.223 309.896 206.471 311.697C204.482 311.937 202.653 311.952 200.72 311.379C197.483 310.42 194.718 308.536 193.165 305.456C192.982 305.088 192.818 304.712 192.674 304.328C192.531 303.942 192.407 303.551 192.304 303.154C192.2 302.757 192.117 302.355 192.056 301.949C191.993 301.542 191.952 301.134 191.933 300.724C191.914 300.314 191.915 299.904 191.937 299.493C191.96 299.083 192.004 298.675 192.07 298.27C192.135 297.865 192.22 297.464 192.326 297.067C192.434 296.67 192.561 296.28 192.707 295.896C194.314 291.73 197.598 289.979 201.444 288.235Z" fill="#FEF7F6"/>
<path d="M352.905 120.564C373.749 119.756 394.687 121.841 415.513 121.023C415.593 124.455 415.459 127.939 415.675 131.361C418.633 132.339 426.902 136.266 429.656 135.028C433.054 133.503 433.763 127.027 437.798 126.784C437.897 130.695 437.735 134.514 437.454 138.415C430.002 139.019 422.172 138.447 414.683 138.448C394.079 138.346 373.479 138.021 352.882 137.475C352.559 131.873 352.655 126.17 352.905 120.564Z" fill="#FEF7F6"/>
<path d="M229.904 326.869C237.334 325.937 245.5 326.527 253.008 326.504C262.885 326.473 273.078 325.926 282.917 326.691C282.117 328.23 281.567 329.874 282.049 331.619C282.508 333.282 283.811 334.111 285.277 334.834C294.391 339.331 308.489 341.6 318.569 344.978C310.601 347.081 301.224 346.269 292.999 346.274H264.718C253.773 346.269 240.691 347.149 229.994 345.865C229.175 339.736 229.397 333.021 229.904 326.869Z" fill="#FEF7F6"/>
<path d="M352.961 155.636C361.733 155.22 370.577 155.588 379.352 155.678L437.412 156.676C437.427 159.967 438.075 171.25 436.601 173.559C421.011 173.494 405.421 173.338 389.833 173.091C377.359 172.93 364.922 172.967 352.463 172.273C352.266 168.921 351.422 158.119 352.961 155.636Z" fill="#FEF7F6"/>
<path d="M351.843 190.396C371.273 190.404 390.702 190.618 410.127 191.038C418.987 191.225 427.864 191.117 436.714 191.596C436.985 197.176 436.901 202.771 436.88 208.356C408.5 208.535 380.168 207.742 351.797 207.358C351.28 201.739 351.622 196.02 351.843 190.396Z" fill="#FEF7F6"/>
<path d="M229.622 290.366L311.076 290.394C320.954 290.389 341.235 289.095 349.74 291.168C338.706 297.049 324.573 305.39 313.406 310.102C308.342 308.668 294.215 309.661 288.031 309.666C268.589 309.773 249.147 309.711 229.704 309.481C229.444 303.116 229.575 296.735 229.622 290.366Z" fill="#FEF7F6"/>
<path d="M360.222 363.109C364.501 369.207 368.705 375.357 372.833 381.56C371.715 382.192 370.32 382.367 369.051 382.436C361.782 382.84 354.381 382.557 347.093 382.559L306.246 382.564L259.039 382.553C249.325 382.548 239.556 382.735 229.855 382.316C229.231 376.077 229.615 369.6 229.729 363.332C261.238 362.792 292.748 362.653 324.26 362.915C332.187 362.893 340.113 362.918 348.04 362.992C352.056 363.032 356.232 363.444 360.222 363.109Z" fill="#FEF7F6"/>
<path d="M192.571 252.586C201.799 252.195 211.1 252.396 220.333 252.392L266.912 252.384C295.008 252.384 323.301 251.647 351.375 252.536C351.595 258.841 351.935 265.283 351.258 271.573C342.608 272.305 333.712 271.966 325.034 271.959L282.693 271.923L225.427 271.924C214.485 271.93 203.46 272.235 192.529 271.774C192.407 265.378 192.421 258.982 192.571 252.586Z" fill="#FEF7F6"/>
<path d="M293.24 470.522L293.257 471.79C291.399 473.112 279.931 472.707 277.43 472.276C275.488 471.94 273.365 471.188 272.281 469.422C271.72 468.508 271.463 467.439 271.341 466.388C271.016 463.631 271.439 442.239 272.085 440.068C272.331 439.24 272.646 438.417 273.46 438.022C276.417 436.59 352.173 436.646 361.549 436.981C363.137 437.039 365.338 437.074 366.795 437.781C367.867 438.3 368.197 439.97 368.445 441.041C369.509 445.621 369.797 467.484 367.575 471.175C367.168 471.851 366.899 471.794 366.164 471.923C361.336 472.77 300.782 472.849 297.18 471.712C296.335 471.926 295.367 472.29 294.494 472.124C293.93 472.017 293.533 471.002 293.24 470.522Z" fill="#0B78EB"/>
<path d="M342.124 439.617L343.043 440.01L343.399 440.982C342.11 444.459 336.863 447.541 333.811 449.373C332.967 448.459 332.859 448.541 332.91 447.226C334.732 443.92 339.058 441.67 342.124 439.617Z" fill="#F6FAFF"/>
<path d="M323.93 452.751C324.779 453.455 324.831 453.485 325.097 454.548C324.007 457.701 318.214 460.405 315.35 461.806C315.215 461.757 315.072 461.726 314.946 461.656C314.043 461.167 314.033 460.992 313.835 460.052C315.224 456.891 321.03 454.375 323.93 452.751Z" fill="#F6FAFF"/>
<path d="M293.24 470.522C295.926 468.019 301.084 464.843 304.899 464.732C305.086 464.726 305.273 464.753 305.46 464.763L306.213 466.021C303.675 468.749 300.496 470.16 297.18 471.712C296.335 471.926 295.367 472.29 294.494 472.124C293.93 472.017 293.533 471.002 293.24 470.522Z" fill="#F6FAFF"/>
<path d="M385.148 399.441L386.334 399.57C401.536 399.435 416.738 399.461 431.941 399.647C432.255 405.818 432.5 412.508 431.52 418.629C417.181 419.034 402.748 418.737 388.4 418.744L303.107 418.671L256.068 418.704C247.443 418.712 238.419 419.259 229.846 418.36C229.154 412.211 229.507 405.741 229.652 399.565L385.148 399.441Z" fill="#FEF7F6"/>
<path d="M444.666 32.2162C446.444 29.3647 448.316 25.8345 451.836 24.9522C455.511 24.0308 461.16 26.6447 464.683 27.7874C465.026 31.6992 465.064 35.5947 465.319 39.5042C469.964 42.1785 473.551 45.5895 477.447 49.2042C481.071 48.8575 484.746 48.3631 488.386 48.2681C490.566 51.7658 494.926 57.3032 493.95 61.6472C492.839 66.596 486.028 66.0779 488.24 72.2902C488.116 76.4022 488.636 80.4989 488.605 84.6153C491.648 86.9255 494.657 89.2284 497.523 91.7587C496.087 96.0297 494.626 100.292 493.141 104.547C489.3 104.686 485.476 104.787 481.632 104.747C479.6 107.223 477.24 110.058 475.953 112.996C474.43 113.914 472.902 114.81 471.454 115.846C471.843 119.955 472.226 124.058 472.774 128.149C469.237 129.581 463.878 131.124 461.487 134.219C458.114 132.325 454.847 128.742 451.904 126.146C447.272 126.527 442.437 127.147 437.798 126.784C433.763 127.027 433.053 133.503 429.656 135.028C426.901 136.266 418.632 132.339 415.675 131.361C415.459 127.939 415.593 124.455 415.513 121.023C411.715 116.977 407.37 113.423 403.032 109.974C399.342 110.09 395.541 110.801 391.845 111.115C389.827 106.996 387.756 103.012 385.492 99.0202C387.81 95.8181 390.94 93.3337 393.128 89.9971C392.613 84.6869 392.17 79.3555 391.371 74.0792C388.699 72.1595 385.789 70.6355 383.149 68.6357C383.944 63.8977 385.796 59.0702 387.259 54.5038L398.781 54.6054C400.381 52.673 402.917 50.4113 402.933 47.8302C401.913 46.8131 400.851 46.9368 399.467 46.7584C401.027 46.7142 402.805 46.8361 404.327 46.5857C405.813 46.3408 407.359 45.4138 408.136 44.1015C409.846 41.2136 407.899 35.2186 407.251 32.0429C409.553 30.6537 418.103 27.4569 418.966 25.4576C422.306 25.6892 426.842 30.7502 429.424 32.8466C434.51 32.521 439.569 32.2536 444.666 32.2162Z" fill="#74A6F7"/>
<path d="M437.139 66.8833C440.128 66.6772 443.251 66.7797 446 68.0871C449.312 69.6611 451.819 72.6595 452.951 76.1315C453.083 76.5279 453.196 76.9301 453.288 77.338C453.378 77.746 453.448 78.1576 453.497 78.5727C453.547 78.988 453.575 79.4046 453.581 79.8227C453.587 80.2407 453.571 80.658 453.534 81.0744C453.497 81.4908 453.438 81.9043 453.359 82.3148C453.279 82.7252 453.178 83.1305 453.057 83.5305C452.936 83.9305 452.794 84.3232 452.633 84.7086C452.47 85.0941 452.288 85.4702 452.088 85.8369C450.254 89.2059 447.181 91.4456 443.55 92.4971C440.608 92.6729 437.742 92.6573 434.994 91.4573C431.771 90.0508 429.129 87.465 427.857 84.164C426.613 80.9361 426.767 77.1123 428.299 74.0089C430.157 70.2407 433.295 68.2506 437.139 66.8833Z" fill="#F6FAFF"/>
<path d="M437.045 69.9067C438.718 69.7464 440.58 69.6484 442.222 70.0515C445.032 70.7415 447.621 72.5845 449.043 75.123C449.207 75.411 449.356 75.7067 449.49 76.0102C449.623 76.3137 449.74 76.6233 449.841 76.9389C449.943 77.2546 450.028 77.5746 450.096 77.8991C450.164 78.2235 450.215 78.5506 450.25 78.8804C450.284 79.2102 450.301 79.5408 450.301 79.8723C450.301 80.2039 450.283 80.5345 450.248 80.8643C450.214 81.194 450.163 81.521 450.094 81.8455C450.026 82.1699 449.941 82.4899 449.839 82.8055C448.732 86.151 446.177 87.8862 443.239 89.4587C441.873 89.5936 440.468 89.7587 439.104 89.5515C436.271 89.1216 433.474 87.3697 431.881 84.9864C430.4 82.7702 429.827 80.0009 430.491 77.4037C431.448 73.672 433.937 71.7742 437.045 69.9067Z" fill="#0B78EB" fill-opacity="0.2"/>
<path d="M438.465 46.8764C441.744 46.6093 445.192 46.9623 448.381 47.7433C449.45 48.007 450.503 48.3227 451.541 48.6904C452.58 49.0579 453.597 49.4756 454.594 49.9435C455.591 50.4112 456.562 50.9269 457.508 51.4904C458.453 52.0539 459.369 52.6625 460.255 53.3162C461.142 53.9701 461.993 54.6658 462.811 55.4034C463.628 56.1411 464.407 56.9172 465.148 57.7316C465.89 58.546 466.589 59.395 467.246 60.2783C467.904 61.1616 468.516 62.0751 469.083 63.0188C469.369 63.4896 469.642 63.9673 469.904 64.4518C470.165 64.9365 470.414 65.4273 470.652 65.9245C470.888 66.4217 471.112 66.9246 471.323 67.4331C471.533 67.9415 471.732 68.455 471.918 68.9736C472.103 69.4921 472.275 70.015 472.434 70.5423C472.592 71.0695 472.738 71.6003 472.87 72.135C473.002 72.6695 473.12 73.207 473.225 73.7475C473.33 74.2881 473.421 74.831 473.499 75.3762C473.576 75.9214 473.639 76.4682 473.69 77.0165C473.738 77.5649 473.774 78.1142 473.796 78.6644C473.818 79.2145 473.826 79.7649 473.82 80.3156C473.815 80.8662 473.795 81.4163 473.761 81.9659C473.727 82.5154 473.68 83.0638 473.618 83.611C473.557 84.1582 473.482 84.7035 473.393 85.247C473.304 85.7903 473.202 86.3311 473.085 86.8693C472.969 87.4075 472.839 87.9424 472.696 88.474C470.519 96.7769 464.743 103.968 457.291 108.175C456.808 108.45 456.318 108.712 455.82 108.962C455.323 109.212 454.82 109.45 454.311 109.675C453.804 109.9 453.29 110.113 452.771 110.312C452.251 110.511 451.727 110.698 451.199 110.871C450.67 111.045 450.138 111.205 449.602 111.352C449.065 111.499 448.525 111.632 447.981 111.753C447.438 111.873 446.893 111.979 446.344 112.072C445.796 112.165 445.246 112.244 444.694 112.31C444.142 112.375 443.588 112.427 443.033 112.465C442.477 112.503 441.922 112.527 441.366 112.538C440.81 112.548 440.254 112.545 439.698 112.527C439.142 112.51 438.586 112.479 438.032 112.434C437.477 112.389 436.925 112.33 436.374 112.258C435.822 112.185 435.273 112.099 434.725 112C434.178 111.9 433.634 111.786 433.092 111.659C432.551 111.533 432.013 111.392 431.478 111.239C429.132 110.539 423.979 108.434 422.795 106.228C423.23 105.642 423.344 105.106 424.147 105.046C426.224 104.893 429.37 106.969 431.408 107.647C435.695 109.074 441.059 109.665 445.513 108.813C454.671 107.063 461.005 103.042 466.289 95.3392C469.965 89.1298 471.574 82.2066 470.29 75.0483C470.11 74.0695 469.882 73.1018 469.607 72.1453C469.333 71.1888 469.012 70.248 468.645 69.3229C468.278 68.3977 467.867 67.4927 467.412 66.608C466.955 65.7231 466.457 64.8626 465.918 64.0265C465.378 63.1904 464.799 62.3826 464.18 61.6032C463.561 60.8238 462.905 60.0765 462.213 59.3613C461.521 58.6462 460.795 57.9665 460.037 57.3223C459.278 56.6782 458.489 56.0726 457.672 55.5056C456.866 54.9352 456.034 54.4059 455.176 53.9176C454.318 53.4295 453.437 52.9848 452.535 52.5835C451.632 52.1821 450.712 51.8261 449.775 51.5157C448.838 51.2052 447.887 50.9417 446.924 50.725C445.961 50.5084 444.99 50.3397 444.009 50.2189C443.03 50.0983 442.046 50.0261 441.059 50.0025C440.071 49.979 439.086 50.0041 438.102 50.0778C437.116 50.1516 436.138 50.2737 435.165 50.4441C421.892 52.8299 411.63 62.5983 410.505 76.3517C410.295 78.9137 411.604 85.4761 410.262 87.3844C409.244 87.5359 409.228 87.4133 408.339 86.8618C407.67 85.7002 407.406 84.5949 407.27 83.2686C407.151 82.1747 407.087 81.0775 407.076 79.9771C407.066 78.8768 407.109 77.7786 407.207 76.6826C407.305 75.5866 407.457 74.4981 407.663 73.4171C407.869 72.3361 408.128 71.2679 408.44 70.2127C408.751 69.1573 409.114 68.1199 409.529 67.1005C409.943 66.0811 410.407 65.0848 410.921 64.1114C411.434 63.1378 411.994 62.1921 412.601 61.2741C413.208 60.3561 413.858 59.4702 414.552 58.6167C420.669 51.1129 429.071 47.831 438.465 46.8764Z" fill="#F6FAFF"/>
<path d="M254.415 91.8741L255.027 91.8079C271.563 90.181 290.424 97.6935 302.983 108.187C303.859 108.925 304.716 109.685 305.554 110.465C306.393 111.245 307.212 112.046 308.012 112.866C308.812 113.686 309.591 114.526 310.349 115.384C311.107 116.242 311.844 117.119 312.561 118.013C313.276 118.908 313.969 119.819 314.641 120.748C315.312 121.676 315.959 122.62 316.583 123.58C317.209 124.54 317.81 125.515 318.388 126.504C318.964 127.494 319.517 128.497 320.045 129.513C320.573 130.53 321.075 131.559 321.553 132.6C322.031 133.641 322.484 134.693 322.91 135.756C323.336 136.819 323.736 137.892 324.11 138.975C324.484 140.058 324.831 141.149 325.151 142.249C325.471 143.349 325.765 144.456 326.031 145.57C326.298 146.684 326.537 147.804 326.749 148.929C326.96 150.055 327.143 151.185 327.299 152.32C327.457 153.455 327.585 154.593 327.686 155.734C329.341 174.721 323.305 193.012 311.032 207.543C298.484 222.401 281.422 229.94 262.269 231.554C261.72 231.61 261.171 231.655 260.62 231.688C259.508 231.748 258.394 231.78 257.28 231.784C256.166 231.789 255.052 231.766 253.939 231.716C252.825 231.667 251.714 231.591 250.606 231.488C249.496 231.383 248.39 231.252 247.287 231.095C246.184 230.937 245.086 230.753 243.993 230.541C242.898 230.33 241.81 230.092 240.728 229.828C239.645 229.564 238.57 229.273 237.502 228.957C236.433 228.641 235.373 228.299 234.321 227.929C233.271 227.561 232.229 227.168 231.196 226.749C230.163 226.329 229.142 225.886 228.132 225.418C227.122 224.948 226.122 224.455 225.135 223.938C224.149 223.421 223.175 222.88 222.214 222.314C221.255 221.749 220.309 221.161 219.378 220.551C218.446 219.94 217.53 219.306 216.628 218.651C215.727 217.995 214.843 217.318 213.975 216.619C213.108 215.921 212.258 215.201 211.425 214.46C198.155 202.749 189.339 185.454 188.19 167.769C186.941 148.547 192.429 129.821 205.346 115.295C217.925 101.15 235.598 93.0072 254.415 91.8741Z" fill="#FEF7F6"/>
<path d="M254.67 118.844C261.097 118.314 267.041 119.206 272.595 122.655C278.597 126.38 283.161 132.584 284.707 139.496C286.358 146.881 285.111 154.335 281.027 160.707C276.532 167.72 270.021 171.421 262.031 173.183C255.386 173.821 248.614 172.366 242.981 168.724C242.246 168.244 241.537 167.729 240.854 167.178C240.171 166.627 239.517 166.045 238.892 165.43C238.267 164.814 237.674 164.168 237.114 163.492C236.554 162.817 236.029 162.116 235.538 161.388C235.048 160.66 234.595 159.91 234.179 159.137C233.765 158.364 233.389 157.572 233.053 156.762C232.716 155.951 232.422 155.126 232.169 154.286C231.915 153.446 231.704 152.596 231.535 151.734C230.101 144.472 231.406 136.465 235.612 130.313C240.237 123.546 246.815 120.376 254.67 118.844Z" fill="#0B78EB"/>
<path d="M256.194 183.533C259.341 183.245 262.555 183.142 265.71 183.407C281.453 184.735 292.964 193.8 302.826 205.36C291.722 216.228 278.686 222.288 263.292 224.026C262.881 224.065 262.47 224.102 262.058 224.136C244.866 225.552 228.569 218.902 215.628 207.95C216.013 207.395 216.407 206.845 216.808 206.301C226.429 193.313 240.419 185.87 256.194 183.533Z" fill="#0B78EB"/>
<path d="M503.941 324.606L525.838 237.844C527.008 233.208 528.131 228.541 529.255 223.868C531.683 213.779 534.117 203.663 537.048 193.762C536.695 193.93 536.342 194.098 535.989 194.267M503.941 324.606L480.818 221.786M503.941 324.606L494.764 361.055L503.941 324.606ZM535.989 194.267C536.099 193.891 536.21 193.516 536.322 193.14C527.017 197.573 517.875 202.499 508.756 207.411C504.667 209.614 500.583 211.814 496.491 213.966C495.136 214.678 493.707 215.504 492.238 216.354C488.506 218.512 484.515 220.82 480.818 221.786M535.989 194.267C533.149 203.952 530.768 213.848 528.399 223.692C527.276 228.359 526.156 233.014 524.991 237.63L503.094 324.392L503.094 324.393L493.917 360.841L493.916 360.843C493.465 362.645 493.039 364.476 492.611 366.316C491.303 371.935 489.978 377.628 487.888 382.764L487.888 382.764C487.493 383.735 486.844 384.567 486.091 385.487C486.04 385.549 485.989 385.612 485.937 385.675C485.306 386.443 484.613 387.287 484.093 388.262M535.989 194.267L484.093 388.262M480.818 221.786L481.039 222.631C481.106 222.614 481.173 222.596 481.24 222.577C481.296 222.53 481.349 222.483 481.401 222.436L480.818 221.786ZM461.174 386.24L461.417 386.437L461.194 386.713C461.29 386.736 461.386 386.76 461.482 386.784C461.496 386.788 461.51 386.791 461.524 386.795L461.637 386.701L461.34 386.151L461.174 386.24ZM461.174 386.24L460.571 386.566L460.547 386.673C460.538 386.647 460.529 386.62 460.52 386.593C460.494 386.518 460.466 386.441 460.437 386.364C460.414 386.305 460.39 386.246 460.365 386.186L460.25 385.914L459.994 385.768C459.872 385.698 459.741 385.628 459.601 385.556M461.174 386.24L460.788 385.928L460.727 385.879L460.429 385.638L459.627 385.455L459.601 385.556M459.601 385.556C459.472 385.49 459.334 385.423 459.189 385.356L458.889 385.288L459.422 386.275M459.601 385.556L459.422 386.275M459.422 386.275L459.392 386.396C459.389 386.407 459.387 386.418 459.384 386.428C459.444 386.46 459.501 386.492 459.556 386.523L459.502 386.424L459.422 386.275ZM459.977 388.677C459.972 388.246 459.939 387.836 459.845 387.412L460.06 387.586C460.015 387.949 459.991 388.311 459.977 388.677ZM459.977 388.677C459.964 388.981 459.959 389.287 459.953 389.597C459.951 389.684 459.95 389.772 459.948 389.86L459.952 389.737C459.967 389.361 459.98 389.013 459.977 388.677ZM385.671 398.619C385.657 398.596 385.643 398.573 385.629 398.55C385.616 398.57 385.602 398.59 385.588 398.61M385.671 398.619L385.588 398.61M385.671 398.619C385.717 398.694 385.762 398.769 385.807 398.843C385.837 398.892 385.866 398.941 385.896 398.99L385.404 399.286M385.671 398.619L386.428 398.702L386.399 398.972C386.356 399.035 386.312 399.098 386.269 399.161L386.334 399.57L385.434 399.472L385.406 399.298L385.404 399.286M385.588 398.61C385.575 398.629 385.563 398.647 385.55 398.666L385.352 398.953L385.404 399.286M385.588 398.61L385.242 398.573L385.148 399.441L385.404 399.286M484.093 388.262C484.044 388.353 483.997 388.445 483.952 388.538L484.737 388.92L484.35 388.138C484.264 388.18 484.178 388.222 484.093 388.262ZM462.933 231.952C463.067 231.712 463.174 231.445 463.283 231.146L462.697 230.967L462.536 230.644C462.467 230.837 462.407 231 462.35 231.14C462.257 231.371 462.174 231.538 462.075 231.678L462.082 231.693L462.442 231.802L462.933 231.952ZM459.803 386.98L459.857 387.081L459.785 387.17C459.729 386.968 459.659 386.762 459.57 386.548L459.803 386.98ZM432.91 378.534L433.155 377.696C433.154 377.696 433.154 377.696 433.153 377.695C433.152 377.695 433.151 377.695 433.15 377.695L432.91 378.534ZM285.277 334.835L285.663 334.051C285.663 334.051 285.663 334.051 285.663 334.051L285.277 334.835ZM350.148 291.94C350.149 291.94 350.15 291.939 350.15 291.939L349.74 291.168L350.147 291.941L350.148 291.94ZM424.411 251.844L424.817 252.617L424.818 252.617L424.411 251.844ZM313.745 310.907C313.762 310.9 313.778 310.894 313.794 310.887C313.809 310.878 313.824 310.869 313.839 310.861L313.406 310.103L313.745 310.907ZM283.389 327.426C283.455 327.384 283.521 327.341 283.587 327.299C283.621 327.231 283.656 327.163 283.692 327.094L282.917 326.691L283.389 327.426ZM318.847 344.15C318.841 344.148 318.836 344.146 318.831 344.144C318.826 344.143 318.821 344.141 318.816 344.14L318.569 344.978L318.847 344.15ZM360.971 362.66C360.965 362.651 360.96 362.642 360.954 362.633C360.949 362.624 360.943 362.616 360.937 362.607L360.222 363.109L360.971 362.66ZM373.56 381.076C373.557 381.071 373.554 381.067 373.551 381.062C373.548 381.058 373.545 381.053 373.542 381.049L372.833 381.56L373.56 381.076ZM395.791 380.749C395.787 380.756 395.782 380.763 395.777 380.77C395.773 380.778 395.769 380.785 395.765 380.792L396.529 381.215L395.791 380.749Z" fill="#0B78EB" stroke="#FEFEFE" stroke-width="1.74673"/>
<path d="M385.154 363.32C392.741 365.326 395.836 365.952 403.494 367.686C400.761 372.238 401.795 372.705 399.128 377.293C394.465 384.322 390.823 393.165 385.881 400.001C383.858 397.659 385.098 368.934 385.154 363.32Z" fill="#130E8B"/>
<path d="M148.684 63.3895C149.046 57.8381 151.802 52.5039 155.788 48.6791C159.032 45.5675 162.702 43.7503 167.058 42.7362C172.066 41.5701 177.393 41.4871 182.513 41.1334C194.904 40.2258 207.312 39.7899 219.736 39.8258C263.993 39.9565 308.215 41.2844 352.402 43.8092C368.085 44.6013 383.769 46.3998 399.467 46.7584C400.851 46.9367 401.913 46.813 402.933 47.8302C402.917 50.4113 400.381 52.673 398.781 54.6054L387.259 54.5037C385.796 59.0702 383.944 63.8976 383.149 68.6356C380.323 68.3315 368.178 68.3976 366.88 67.1624L366.625 65.4975L365.879 65.1588C364.999 65.6692 364.629 66.3913 364.117 67.2323C361.083 67.8129 339.691 66.077 334.412 65.8461C292.943 64.0316 251.028 62.5219 209.535 63.985C201.53 64.2674 191.722 63.7423 183.98 65.9292C179.36 67.2344 175.166 70.9441 172.499 74.8316C169.702 78.9088 168.654 83.0916 168.268 87.956C167.543 97.0968 167.987 106.553 167.924 115.729L167.54 165.652C166.894 210.807 166.604 255.964 166.67 301.123L167.599 409.691C167.765 423.876 167.879 438.033 168.536 452.209C168.817 458.304 168.785 464.826 169.984 470.814C171.294 477.368 174.569 482.983 180.249 486.665C192.237 494.438 224.579 488.931 229.137 491.715C231.458 490.72 238.974 488.896 241.366 489.78C242.131 490.063 242.426 490.789 242.723 491.516C242.782 491.665 242.835 491.817 242.89 491.967C245.463 490.982 251.072 491.86 253.879 491.939C292.708 492.759 331.533 492.621 370.356 491.525C387.216 491.123 403.918 490.479 420.718 488.957C426.727 488.412 433.097 488.143 438.971 486.73C443.314 485.686 446.936 483.665 450.156 480.561C453.796 477.053 456.32 472.746 457.48 467.827C460.009 457.114 458.798 444.723 458.961 433.694L459.948 389.86C459.97 388.747 459.969 387.694 460.239 386.608L460.868 387.116L460.571 386.566C468.737 388.422 476.342 393.079 484.737 388.92C484.584 391.696 484.412 394.468 484.439 397.249L484.868 462.872C484.954 474.152 486.274 502.169 483.862 511.317C482.002 518.376 477.249 522.699 472.919 528.164C471.261 529.96 468.756 530.914 466.774 532.32L465.733 532.699C456.975 534.98 448.772 535.137 439.829 535.625C429.512 536.165 419.191 536.645 408.868 537.066C390.748 537.908 372.716 538.128 354.587 538.508C299.809 539.4 245.03 539.621 190.247 539.17C182.45 539.135 171.847 540.059 164.53 537.452C162.321 536.666 159.914 534.638 158.293 532.966C152.162 526.641 152.56 517.492 152.284 509.291C152.148 505.233 151.931 501.153 152.026 497.095L152.881 495.829C152.972 494.431 152.572 494.183 151.805 493.053C150.059 487.162 150.721 469.747 150.598 462.676L149.779 427.713C149.753 416.697 150.513 402.723 149.36 392.132L149.507 391.505C149.61 383.219 149.339 374.896 149.196 366.611C149.365 360.578 148.978 354.508 148.885 348.473C148.744 337.172 148.739 325.87 148.869 314.569C148.628 305.465 148.813 296.307 148.74 287.198C148.501 269.707 148.374 252.216 148.359 234.724C148.352 223.386 149.405 208.949 148.019 198.073L148.031 191.819C148.644 173.498 148.071 155.027 148.108 136.69C148.153 114.039 148.703 91.3022 148.282 68.6564C148.322 66.8671 148.413 65.163 148.684 63.3895Z" fill="#0B78EB"/>
<path d="M229.137 491.715C231.458 490.72 238.974 488.896 241.366 489.78C242.131 490.063 242.426 490.79 242.723 491.516C242.782 491.665 242.835 491.817 242.89 491.967C242.581 492.145 242.277 492.332 241.958 492.489C238.745 494.07 233.387 496.238 229.912 495.079C228.973 493.902 229.173 493.148 229.137 491.715Z" fill="#FEF7F6"/>
<path d="M218.158 494.077C218.401 494 218.653 493.904 218.915 493.918C219.816 493.968 220.059 494.171 220.572 494.814C220.588 495.67 220.602 496.227 219.989 496.896C217.802 499.282 212.134 499.275 209.112 499.544C207.97 499.544 207.619 499.42 206.682 498.763C206.279 497.658 206.427 497.591 206.819 496.534C209.661 494.054 214.516 494.438 218.158 494.077Z" fill="#FEF7F6"/>
<path d="M190.494 496.292C192.083 496.166 194.494 495.703 195.991 496.273C197.103 496.694 197.746 497.181 198.261 498.243C198.048 498.919 197.989 499.097 197.463 499.584C195.488 501.41 192.848 500.919 190.344 500.863C187.729 500.936 185.8 501.17 183.636 499.462L183.519 498.379C183.591 498.302 183.662 498.225 183.736 498.15C185.739 496.107 187.819 496.327 190.494 496.292Z" fill="#FEF7F6"/>
<path d="M161.466 495.176C165.383 495.195 171.41 494.397 174.616 496.797C175.43 497.974 175.304 499.209 175.316 500.578C171.328 500.487 165.746 501.396 162.327 499.05C161.332 497.834 161.477 496.666 161.466 495.176Z" fill="#FEF7F6"/>
<path d="M148.684 63.3894L149.393 63.0689C149.856 64.2155 149.119 65.9879 148.75 67.1809L149.488 69.4855L149.086 67.8244C150.677 72.4218 149.711 91.157 149.711 97.0293L149.72 179.772V210.018C149.687 214.2 148.958 218.803 149.29 222.908L149.412 222.076C150.455 237.051 149.304 252.158 149.316 267.143C149.327 279.254 151.942 304.473 148.869 314.569C148.628 305.465 148.813 296.307 148.74 287.198C148.501 269.707 148.374 252.216 148.359 234.724C148.352 223.386 149.405 208.949 148.019 198.073L148.031 191.819C148.644 173.498 148.071 155.027 148.108 136.69C148.153 114.038 148.703 91.3022 148.282 68.6564C148.322 66.867 148.413 65.1629 148.684 63.3894Z" fill="#0B78EB"/>
<line x1="535.15" y1="196.216" x2="384.931" y2="363.902" stroke="white" stroke-width="1.74673"/>
<line x1="355.751" y1="355.681" x2="533.918" y2="196.729" stroke="white" stroke-width="1.74673"/>
<line x1="385.154" y1="363.32" x2="385.154" y2="400.001" stroke="white" stroke-width="1.74673"/>
<defs>
<linearGradient id="paint0_linear_3267_1298" x1="35.1283" y1="329.693" x2="138.108" y2="71.0599" gradientUnits="userSpaceOnUse">
<stop stop-color="#8EB1FA"/>
<stop offset="1" stop-color="#CBD9FB"/>
</linearGradient>
</defs>
</svg>
