<svg width="291" height="125" viewBox="0 0 291 125" fill="none" xmlns="http://www.w3.org/2000/svg">
<path d="M97.1549 53.8836V70.4508H92.7675V42.7466L106.063 56.5987L119.391 42.7466V70.4508H114.904V53.8836L106.046 63.1444L97.1549 53.8836ZM140.389 42.7466C144.062 42.7466 147.195 44.1041 149.771 46.8192C152.405 49.5343 153.718 52.7941 153.718 56.5987C153.718 60.4552 152.405 63.715 149.771 66.3782C147.195 69.0933 144.062 70.4508 140.389 70.4508C136.708 70.4508 133.584 69.0933 130.999 66.3782C128.399 63.6891 127.094 60.4292 127.094 56.5987C127.094 52.7941 128.399 49.5343 130.999 46.8192C133.559 44.1041 136.683 42.7466 140.389 42.7466ZM140.381 47.364C137.954 47.364 135.86 48.2719 134.099 50.079C132.387 51.8949 131.531 54.0652 131.531 56.5987C131.531 59.1322 132.387 61.3199 134.099 63.153C135.86 64.9429 137.954 65.8334 140.381 65.8334C142.807 65.8334 144.893 64.9429 146.63 63.153C148.366 61.3199 149.23 59.1322 149.23 56.5987C149.23 54.0652 148.366 51.8949 146.63 50.079C144.893 48.2719 142.807 47.364 140.381 47.364ZM174.707 47.364H165.808V56.5555L174.707 56.5987C175.912 56.5987 176.943 56.1491 177.815 55.2411C178.688 54.3332 179.12 53.2438 179.12 51.964C179.12 50.7102 178.688 49.6294 177.815 48.7215C176.943 47.8136 175.912 47.364 174.707 47.364ZM178.455 70.4508L173.32 61.216H165.808V70.4508H161.42V42.7466H174.707C177.134 42.7466 179.219 43.6545 180.956 45.4616C182.693 47.2689 183.557 49.4392 183.557 51.964C183.557 53.8836 183.033 55.6303 181.986 57.1953C180.964 58.7431 179.66 59.8413 178.073 60.5071L183.557 70.4508H178.455ZM208.959 42.7466V47.364H195.647V54.316H208.959V58.8814H195.647V65.8334H208.959V70.4508H191.26V42.7466L208.959 42.7466ZM224.381 58.8814C222.238 58.8814 220.41 58.0946 218.906 56.5295C217.401 54.9644 216.645 53.0536 216.645 50.7967C216.645 48.5918 217.401 46.7068 218.906 45.1331C220.385 43.5421 222.213 42.7466 224.381 42.7466H238.782V47.364H224.365C223.908 47.364 223.476 47.4505 223.069 47.6234C222.653 47.7963 222.296 48.047 221.988 48.367C221.681 48.6869 221.448 49.0588 221.282 49.4824C221.116 49.9061 221.033 50.3471 221.033 50.7967C221.033 51.7565 221.349 52.5866 221.988 53.2784C222.628 53.9701 223.426 54.316 224.365 54.316H230.996C233.148 54.316 234.976 55.1028 236.48 56.6765C238.017 58.2416 238.782 60.1439 238.782 62.3834C238.782 64.597 238.017 66.4992 236.48 68.0903C234.976 69.664 233.156 70.4508 231.004 70.4508H216.645V65.8334H231.012C231.469 65.8334 231.902 65.7469 232.317 65.5741C232.724 65.4011 233.081 65.159 233.389 64.8477C233.696 64.5365 233.929 64.1732 234.095 63.741C234.261 63.3172 234.345 62.859 234.345 62.3747C234.345 61.4408 234.012 60.6194 233.347 59.9277C232.708 59.2273 231.935 58.8814 231.012 58.8814H224.381Z" fill="#003E71"/>
<path d="M100.298 75.7887V83.438H99.3313V77.7341L96.8882 83.438H96.2083L93.7544 77.7232V83.438H92.7877V75.7887H93.8289L96.5483 82.1116L99.2678 75.7887H100.298ZM105.291 83.5154C104.604 83.5154 103.977 83.3478 103.411 83.0125C102.844 82.6771 102.396 82.2093 102.067 81.6085C101.738 81.008 101.573 80.3319 101.573 79.5802C101.573 78.8285 101.738 78.1524 102.067 77.5518C102.396 76.9511 102.844 76.4832 103.411 76.1479C103.977 75.8127 104.604 75.645 105.291 75.645C105.985 75.645 106.615 75.8127 107.182 76.1479C107.748 76.4832 108.194 76.9494 108.52 77.5463C108.846 78.1432 109.009 78.8212 109.009 79.5802C109.009 80.3392 108.846 81.0172 108.52 81.6141C108.194 82.211 107.748 82.6771 107.182 83.0125C106.615 83.3478 105.985 83.5154 105.291 83.5154ZM105.291 82.6421C105.808 82.6421 106.273 82.5169 106.688 82.2664C107.102 82.0158 107.428 81.6583 107.665 81.1941C107.902 80.7297 108.021 80.1919 108.021 79.5802C108.021 78.9612 107.902 78.4214 107.665 77.9608C107.428 77.5003 107.104 77.1446 106.693 76.894C106.282 76.6436 105.815 76.5182 105.291 76.5182C104.767 76.5182 104.299 76.6436 103.889 76.894C103.478 77.1446 103.154 77.5003 102.917 77.9608C102.679 78.4214 102.561 78.9612 102.561 79.5802C102.561 80.1919 102.679 80.7297 102.917 81.1941C103.154 81.6583 103.48 82.0158 103.894 82.2664C104.308 82.5169 104.774 82.6421 105.291 82.6421ZM114.182 83.438L112.419 80.2876H111.25V83.438H110.283V75.7335H112.674C113.233 75.7335 113.706 75.8329 114.092 76.0319C114.478 76.2308 114.766 76.4998 114.957 76.8388C115.149 77.1778 115.244 77.5647 115.244 77.9995C115.244 78.5301 115.097 78.9981 114.804 79.4033C114.51 79.8086 114.069 80.0777 113.481 80.2103L115.34 83.438H114.182ZM111.25 79.4808H112.674C113.198 79.4808 113.591 79.3462 113.853 79.0773C114.115 78.8083 114.246 78.4491 114.246 77.9995C114.246 77.5426 114.116 77.1888 113.858 76.9382C113.6 76.6877 113.205 76.5625 112.674 76.5625H111.25V79.4808ZM117.709 76.5513V79.1269H120.407V79.9561H117.709V82.609H120.726V83.438H116.742V75.7223H120.726V76.5513H117.709Z" fill="#2B2A29"/>
<path d="M129.585 75.7336V76.5514H127.567V83.4381H126.6V76.5514H124.571V75.7336H129.585ZM136.479 75.7336V83.4381H135.513V79.9451H131.742V83.4381H130.775V75.7336H131.742V79.1161H135.513V75.7336H136.479ZM142.503 81.7248H139.273L138.678 83.4381H137.659L140.336 75.7778H141.451L144.117 83.4381H143.097L142.503 81.7248ZM142.226 80.9067L140.888 77.0158L139.549 80.9067H142.226ZM151.107 83.4381H150.14L146.252 77.3031V83.4381H145.286V75.7224H146.252L150.14 81.8463V75.7224H151.107V83.4381Z" fill="#2B2A29"/>
<path d="M156.352 80.8539C154.905 86.7401 154.427 87.8178 153.298 87.8178C152.846 87.8178 152.541 87.6797 152.235 87.348C152.143 87.3619 152.023 87.5138 152.01 87.6383C152.315 88.0941 153.125 88.4396 153.895 88.4396C154.958 88.4396 155.661 87.6106 156.445 85.4412C156.777 84.5156 157.6 81.7381 158.197 79.5412C158.344 78.9748 158.622 78.3391 159.193 77.2889C158.848 77.0403 158.556 76.916 158.304 76.916C157.613 76.916 157.016 78.1319 156.352 80.8539ZM158.516 75.8244C158.516 75.9902 158.702 76.1699 158.914 76.2113C159.034 75.921 159.99 74.6914 160.415 74.2907C160.149 73.8762 159.22 73.3235 158.808 73.3235C158.609 73.8485 158.397 74.788 158.397 75.1197C158.397 75.2993 158.463 75.4927 158.556 75.5895C158.529 75.7001 158.516 75.783 158.516 75.8244ZM162.805 83.1337C163.217 83.424 163.828 83.6726 164.067 83.6726C164.067 83.6726 164.12 83.6589 164.12 83.6174C164.12 83.4377 163.828 83.1337 163.828 82.3462C163.828 80.8954 164.85 79.3478 165.501 77.7312C165.341 77.5238 164.704 77.2889 164.239 77.2889C163.642 77.8832 163.363 78.6845 163.203 79.1406C162.911 79.9558 162.261 80.7986 161.902 81.3098C161.172 82.3462 160.814 82.8022 160.548 82.9128C160.521 82.8851 160.455 82.8022 160.455 82.6639C160.455 82.1804 160.84 80.9231 161.013 80.5085C161.809 78.5465 162.54 77.4963 162.699 77.3166C162.433 76.9989 161.823 76.8883 161.517 76.8883C160.402 77.7312 159.459 80.0664 159.14 81.4618C159.061 81.8487 159.034 82.125 159.034 82.6363C159.18 83.2857 159.924 83.6864 160.482 83.7141C160.601 83.7003 160.827 83.5344 161.052 83.2857C161.345 82.9265 162.301 81.5032 162.447 81.5172C162.407 81.6415 162.38 81.8073 162.38 82.0146C162.38 82.3324 162.473 82.8436 162.805 83.1337ZM170.334 77.9384C170.228 77.5101 169.205 76.4324 168.807 76.3219C167.878 76.5291 167.054 77.593 167.054 78.574C167.054 79.3478 167.466 80.1493 167.466 81.0888C165.926 81.1994 164.731 82.3876 164.731 83.7969C164.877 84.3082 165.487 84.8333 165.992 84.8748C167.413 84.7228 168.276 83.7278 168.276 82.1942C168.276 81.973 168.263 81.8349 168.263 81.6967C168.263 81.4895 168.329 81.4618 169.152 81.2683C169.179 81.2408 169.205 81.1579 169.205 81.0888C169.205 81.0197 169.205 81.0059 169.192 80.9783C168.913 80.9783 168.634 80.992 168.263 81.0059C168.249 80.9783 168.249 80.9506 168.249 80.84C168.249 79.0714 168.634 78.1181 169.338 78.1181C169.524 78.1181 169.657 78.3116 169.657 78.574C169.657 78.7951 169.444 79.2097 169.444 79.3203C169.458 79.4446 169.511 79.5135 169.617 79.5275C169.896 79.5275 170.294 78.6431 170.334 77.9384ZM165.952 84.2392C165.78 84.1147 165.687 83.949 165.687 83.7418C165.687 83.1062 166.829 81.9041 167.519 81.8073C167.519 82.7607 166.802 83.8798 165.952 84.2392ZM171.887 78.1456C171.21 79.8452 170.719 81.7106 170.719 82.6087C170.719 83.258 171.728 84.0458 172.605 84.0733C172.897 84.0458 173.853 83.3825 174.052 83.0646C174.039 83.0094 173.999 82.9265 173.959 82.8574C173.587 83.1614 173.096 83.3825 172.565 83.4515C172.286 83.4101 172.127 83.1891 172.127 82.7745C172.127 81.6415 172.658 79.8452 173.534 78.0767C174.145 78.0627 174.689 77.9661 175.114 77.8003C175.114 77.6483 175.048 77.4963 174.968 77.4134C174.596 77.4549 174.225 77.4686 173.879 77.4686C174.317 76.6948 174.649 76.1559 175.18 75.4652C175.008 75.2578 174.158 74.9677 173.8 74.9677C173.508 75.1335 172.737 76.3219 172.206 77.4134C171.848 77.3995 171.423 77.3581 170.958 77.3306C170.958 77.5792 171.051 78.0352 171.131 78.1456H171.887Z" fill="#E12323"/>
<path d="M181.995 83.4381L180.231 80.2877H179.063V83.4381H178.096V75.7336H180.486C181.046 75.7336 181.519 75.833 181.904 76.032C182.29 76.2309 182.579 76.4999 182.77 76.8389C182.961 77.1779 183.057 77.5648 183.057 77.9996C183.057 78.5301 182.91 78.9982 182.616 79.4034C182.322 79.8087 181.882 80.0777 181.294 80.2104L183.153 83.4381H181.995ZM179.063 79.4808H180.486C181.01 79.4808 181.403 79.3462 181.666 79.0774C181.928 78.8084 182.059 78.4492 182.059 77.9996C182.059 77.5427 181.929 77.1889 181.671 76.9383C181.412 76.6877 181.017 76.5626 180.486 76.5626H179.063V79.4808ZM185.521 76.5514V79.127H188.22V79.9562H185.521V82.6091H188.538V83.4381H184.555V75.7224H188.538V76.5514H185.521ZM194.381 81.7248H191.152L190.557 83.4381H189.537L192.214 75.7778H193.329L195.996 83.4381H194.976L194.381 81.7248ZM194.105 80.9067L192.766 77.0158L191.428 80.9067H194.105ZM198.131 82.6201H200.723V83.4381H197.164V75.7336H198.131V82.6201Z" fill="#2B2A29"/>
<path d="M205.559 76.5512V79.1269H208.258V79.956H205.559V82.609H208.576V83.438H204.593V75.7222H208.576V76.5512H205.559ZM212.39 83.5153C211.901 83.5153 211.464 83.4251 211.078 83.2445C210.692 83.0639 210.389 82.8134 210.17 82.4928C209.95 82.1723 209.837 81.8019 209.83 81.3819H210.86C210.895 81.743 211.039 82.0471 211.29 82.2938C211.542 82.5407 211.908 82.6642 212.39 82.6642C212.85 82.6642 213.213 82.5444 213.479 82.3049C213.744 82.0653 213.877 81.7577 213.877 81.3819C213.877 81.0871 213.799 80.8477 213.643 80.6635C213.487 80.4791 213.293 80.3391 213.059 80.2433C212.825 80.1476 212.51 80.0443 212.114 79.9339C211.625 79.8012 211.234 79.6686 210.94 79.5359C210.646 79.4032 210.394 79.1951 210.186 78.9113C209.977 78.6276 209.872 78.2463 209.872 77.7673C209.872 77.3472 209.975 76.9751 210.18 76.6508C210.386 76.3266 210.674 76.0761 211.046 75.8992C211.418 75.7222 211.844 75.6338 212.326 75.6338C213.02 75.6338 213.588 75.8144 214.031 76.1755C214.474 76.5366 214.723 77.0156 214.78 77.6125H213.718C213.682 77.3177 213.533 77.0579 213.271 76.8331C213.009 76.6084 212.662 76.496 212.23 76.496C211.827 76.496 211.498 76.6047 211.243 76.8222C210.988 77.0395 210.86 77.3435 210.86 77.7341C210.86 78.0142 210.936 78.2427 211.088 78.4194C211.241 78.5963 211.428 78.7307 211.651 78.8228C211.875 78.915 212.188 79.0201 212.592 79.138C213.08 79.278 213.473 79.4161 213.771 79.5524C214.068 79.6887 214.323 79.8989 214.536 80.1826C214.748 80.4662 214.854 80.8514 214.854 81.3377C214.854 81.7134 214.759 82.0673 214.567 82.399C214.376 82.7305 214.093 82.9995 213.718 83.2058C213.342 83.4122 212.9 83.5153 212.39 83.5153ZM220.835 75.7334V76.5512H218.817V83.438H217.85V76.5512H215.821V75.7334H220.835ZM226.401 81.7246H223.172L222.577 83.438H221.557L224.234 75.7776H225.35L228.016 83.438H226.996L226.401 81.7246ZM226.125 80.9066L224.787 77.0156L223.448 80.9066H226.125ZM233.742 75.7334V76.5512H231.723V83.438H230.757V76.5512H228.728V75.7334H233.742ZM235.898 76.5512V79.1269H238.596V79.956H235.898V82.609H238.915V83.438H234.931V75.7222H238.915V76.5512H235.898Z" fill="#2B2A29"/>
<path d="M52.9619 59.2748V84.2903H46V45.1672L63.0529 59.2748V67.9814L52.9619 59.2748Z" fill="#003E71"/>
<path fill-rule="evenodd" clip-rule="evenodd" d="M73.9158 58.821L73.8435 84.3991H67.0525V58.821H73.9158Z" fill="#E12323"/>
<path fill-rule="evenodd" clip-rule="evenodd" d="M63.2981 76.7024V84.3989L56.4124 84.3989V76.7024L63.2981 76.7024Z" fill="#E12323"/>
<path fill-rule="evenodd" clip-rule="evenodd" d="M84.2562 42.0684H77.5207L77.6927 84.5168H84.3117L84.2562 42.0684Z" fill="#E12323"/>
<path d="M63.2189 69.9114V76.7024" stroke="#E12323" stroke-width="0.169521"/>
<path d="M67.2791 69.9114H63.1549" stroke="#E12323" stroke-width="0.169521"/>
<path d="M73.843 52.0286V58.8196" stroke="#E12323" stroke-width="0.169521"/>
<path d="M77.741 52.0945L73.8432 52.0944" stroke="#E12323" stroke-width="0.169521"/>
<path fill-rule="evenodd" clip-rule="evenodd" d="M241.126 40.2938H241.595C241.754 40.2938 241.873 40.2541 241.954 40.1746C242.034 40.0952 242.074 39.9888 242.074 39.8545C242.074 39.7201 242.034 39.6161 241.955 39.5401C241.875 39.4642 241.755 39.4268 241.594 39.4268H241.125V40.2938H241.126ZM242.045 41.6657L241.45 40.6315H241.126V41.6657H240.702V39.0809H241.595C241.794 39.0809 241.962 39.116 242.099 39.1849C242.237 39.2538 242.339 39.3473 242.407 39.4642C242.475 39.581 242.51 39.7107 242.51 39.8545C242.51 40.0227 242.461 40.1758 242.363 40.3137C242.265 40.4516 242.114 40.5451 241.911 40.5941L242.55 41.6657H242.044H242.045ZM241.627 38C242.938 38 244 39.0622 244 40.3733C244 41.6844 242.938 42.7466 241.627 42.7466C240.315 42.7466 239.253 41.6844 239.253 40.3733C239.253 39.0622 240.315 38 241.627 38Z" fill="#003E71"/>
</svg>
