<svg width="291" height="125" viewBox="0 0 291 125" fill="none" xmlns="http://www.w3.org/2000/svg">
<path d="M39.1914 37.0013C41.653 36.9723 43.6325 37.4311 45.9941 38.1162C44.4066 40.0553 42.6285 41.8624 40.9544 43.7149L31.1367 54.555C29.3219 56.5579 27.4605 58.5304 25.7064 60.5969C27.5993 62.0385 29.2793 62.8278 31.5968 61.9366C32.2854 61.6718 32.9458 61.1033 33.4956 60.5815C35.0258 59.1295 36.4222 57.3822 37.8513 55.8039L46.2642 46.5178C47.3189 45.3464 48.7458 43.4719 49.9465 42.6053C50.2948 42.3542 50.6783 42.2232 51.0948 42.2166C51.9195 42.2038 52.5723 42.7141 53.1308 43.3358C56.4924 47.0777 58.2172 52.3524 58.2191 57.5602C58.2207 62.7071 56.6188 67.3545 53.5605 71.2399C52.1848 72.9879 50.5969 74.5875 49.1124 76.2258L41.4875 84.6466C40.8498 85.3473 40.2038 86.0409 39.5946 86.7722C39.1811 86.1291 38.6777 85.5568 38.2685 84.9075C37.1575 83.1459 36.547 80.8999 36.4842 78.7651C36.4174 76.4935 36.8907 74.2874 37.9329 72.3234C39.2189 69.9003 41.3964 67.9482 43.1832 65.9706L49.56 58.9239C50.874 57.4758 52.219 56.0488 53.4885 54.5535C51.7586 53.1214 49.9247 52.2843 47.7577 53.1306C47.1054 53.3856 46.476 53.8468 45.947 54.3321C44.3664 55.782 42.8948 57.6288 41.4317 59.2451L32.7779 68.7949C31.7965 69.8754 30.7874 71.283 29.6443 72.1466C29.2136 72.472 28.7424 72.6764 28.2179 72.7047C27.4039 72.7487 26.6921 72.3585 26.1069 71.7612C22.9976 68.5877 21.1176 63.0682 20.9793 58.4657C20.8109 52.8706 22.5146 47.5418 26.011 43.4436C29.499 39.3558 34.1279 37.1625 39.1914 37.0013Z" fill="url(#paint0_linear_2759_35696)"/>
<path d="M80.7894 66.9154C80.7894 66.3977 80.7089 65.9376 80.5478 65.535C80.3983 65.1323 80.128 64.7642 79.7368 64.4306C79.3457 64.097 78.7936 63.7749 78.0804 63.4644C77.3787 63.1423 76.4814 62.8144 75.3886 62.4808C74.1922 62.1127 73.0879 61.7043 72.0756 61.2557C71.0748 60.7956 70.2006 60.2664 69.4529 59.6683C68.7051 59.0586 68.1242 58.3626 67.7101 57.5804C67.296 56.7867 67.0889 55.8721 67.0889 54.8368C67.0889 53.813 67.3017 52.8813 67.7274 52.0415C68.1645 51.2018 68.7799 50.4771 69.5736 49.8674C70.3789 49.2462 71.3279 48.7688 72.4207 48.4352C73.5135 48.0901 74.7214 47.9176 76.0443 47.9176C77.9078 47.9176 79.5125 48.2627 80.8584 48.9529C82.2158 49.6431 83.2569 50.5691 83.9816 51.7309C84.7178 52.8928 85.0859 54.1754 85.0859 55.5788H80.7894C80.7894 54.7506 80.6111 54.0201 80.2545 53.3874C79.9094 52.7432 79.3802 52.2371 78.667 51.869C77.9653 51.5009 77.0738 51.3168 75.9925 51.3168C74.9687 51.3168 74.1175 51.4721 73.4388 51.7827C72.7601 52.0933 72.2539 52.5132 71.9203 53.0423C71.5867 53.5715 71.4199 54.1697 71.4199 54.8368C71.4199 55.3085 71.5292 55.7399 71.7478 56.131C71.9663 56.5106 72.2999 56.8672 72.7486 57.2008C73.1972 57.5229 73.7609 57.8277 74.4396 58.1153C75.1183 58.4029 75.9177 58.679 76.838 58.9435C78.2299 59.3577 79.4435 59.8178 80.4788 60.3239C81.5141 60.8186 82.3769 61.3822 83.0671 62.0149C83.7573 62.6476 84.2749 63.3666 84.62 64.1718C84.9651 64.9655 85.1377 65.8686 85.1377 66.8808C85.1377 67.9392 84.9249 68.8939 84.4992 69.7452C84.0736 70.5849 83.4639 71.3039 82.6702 71.9021C81.888 72.4887 80.9447 72.9431 79.8404 73.2652C78.7476 73.5758 77.5282 73.7311 76.1823 73.7311C74.9745 73.7311 73.7839 73.57 72.6105 73.2479C71.4487 72.9259 70.3904 72.437 69.4356 71.7813C68.4808 71.1141 67.7216 70.2858 67.1579 69.2965C66.5943 68.2958 66.3124 67.1282 66.3124 65.7938H70.6435C70.6435 66.6105 70.7815 67.3065 71.0576 67.8816C71.3452 68.4568 71.742 68.9284 72.2482 69.2965C72.7543 69.6532 73.341 69.9177 74.0082 70.0903C74.6869 70.2628 75.4116 70.3491 76.1823 70.3491C77.1946 70.3491 78.0401 70.2053 78.7188 69.9177C79.409 69.6301 79.9267 69.2275 80.2718 68.7099C80.6169 68.1922 80.7894 67.5941 80.7894 66.9154ZM99.7872 68.986V54.7161H103.963V73.386H100.029L99.7872 68.986ZM100.374 65.1036L101.771 65.0691C101.771 66.3229 101.633 67.479 101.357 68.5373C101.081 69.5841 100.656 70.4986 100.081 71.2809C99.5053 72.0516 98.7691 72.6555 97.8719 73.0927C96.9746 73.5183 95.899 73.7311 94.6452 73.7311C93.7364 73.7311 92.9024 73.5988 92.1432 73.3342C91.384 73.0696 90.7283 72.6613 90.1761 72.1091C89.6355 71.557 89.2156 70.838 88.9165 69.9522C88.6174 69.0665 88.4679 68.0082 88.4679 66.7773V54.7161H92.6263V66.8118C92.6263 67.4905 92.7069 68.0599 92.8679 68.5201C93.029 68.9687 93.2475 69.3311 93.5236 69.6071C93.7997 69.8832 94.1218 70.0788 94.4899 70.1938C94.858 70.3088 95.2491 70.3664 95.6632 70.3664C96.8481 70.3664 97.7798 70.1363 98.4585 69.6762C99.1487 69.2045 99.6376 68.5718 99.9252 67.7781C100.224 66.9844 100.374 66.0929 100.374 65.1036ZM112.401 58.3051V80.5641H108.242V54.7161H112.073L112.401 58.3051ZM124.565 63.8785V64.2408C124.565 65.5982 124.404 66.8578 124.082 68.0197C123.772 69.17 123.306 70.1766 122.685 71.0393C122.075 71.8906 121.321 72.552 120.424 73.0236C119.527 73.4953 118.492 73.7311 117.318 73.7311C116.156 73.7311 115.138 73.5183 114.264 73.0927C113.401 72.6555 112.671 72.0401 112.073 71.2464C111.475 70.4526 110.991 69.5209 110.623 68.4511C110.267 67.3697 110.014 66.1849 109.864 64.8965V63.4989C110.014 62.13 110.267 60.8876 110.623 59.7718C110.991 58.656 111.475 57.6954 112.073 56.8902C112.671 56.085 113.401 55.4638 114.264 55.0267C115.127 54.5895 116.133 54.371 117.284 54.371C118.457 54.371 119.498 54.601 120.407 55.0612C121.316 55.5098 122.081 56.154 122.702 56.9937C123.323 57.822 123.789 58.8228 124.099 59.9961C124.41 61.1579 124.565 62.4521 124.565 63.8785ZM120.407 64.2408V63.8785C120.407 63.0157 120.326 62.2162 120.165 61.48C120.004 60.7323 119.751 60.0766 119.406 59.513C119.061 58.9493 118.618 58.5122 118.077 58.2016C117.548 57.8795 116.91 57.7184 116.162 57.7184C115.426 57.7184 114.793 57.845 114.264 58.098C113.735 58.3396 113.292 58.679 112.935 59.1161C112.579 59.5532 112.303 60.0651 112.107 60.6518C111.912 61.227 111.774 61.8539 111.693 62.5326V65.8801C111.831 66.7083 112.067 67.4675 112.401 68.1577C112.734 68.8479 113.206 69.4001 113.815 69.8142C114.437 70.2168 115.23 70.4181 116.197 70.4181C116.944 70.4181 117.583 70.2571 118.112 69.935C118.641 69.6129 119.073 69.17 119.406 68.6063C119.751 68.0312 120.004 67.3697 120.165 66.622C120.326 65.8743 120.407 65.0806 120.407 64.2408ZM136.333 73.7311C134.953 73.7311 133.705 73.5068 132.589 73.0581C131.485 72.598 130.541 71.9596 129.759 71.1428C128.988 70.3261 128.396 69.3656 127.982 68.2612C127.568 67.1569 127.361 65.9663 127.361 64.6895V63.9993C127.361 62.5383 127.573 61.2154 127.999 60.0306C128.425 58.8458 129.017 57.8335 129.776 56.9937C130.536 56.1425 131.433 55.4925 132.468 55.0439C133.503 54.5953 134.625 54.371 135.833 54.371C137.167 54.371 138.335 54.5953 139.336 55.0439C140.336 55.4925 141.165 56.1252 141.82 56.942C142.488 57.7472 142.982 58.7077 143.304 59.8235C143.638 60.9394 143.805 62.1702 143.805 63.5161V65.2934H129.38V62.3083H139.698V61.9804C139.675 61.2327 139.525 60.531 139.249 59.8753C138.985 59.2196 138.576 58.6905 138.024 58.2878C137.472 57.8852 136.736 57.6839 135.816 57.6839C135.125 57.6839 134.51 57.8335 133.969 58.1326C133.44 58.4201 132.997 58.84 132.641 59.3922C132.284 59.9443 132.008 60.6115 131.812 61.3938C131.628 62.1645 131.536 63.033 131.536 63.9993V64.6895C131.536 65.5062 131.646 66.2654 131.864 66.9671C132.094 67.6573 132.428 68.2612 132.865 68.7789C133.302 69.2965 133.831 69.7049 134.452 70.004C135.074 70.2916 135.781 70.4354 136.575 70.4354C137.576 70.4354 138.467 70.2341 139.249 69.8315C140.032 69.4288 140.71 68.8594 141.285 68.1232L143.477 70.2456C143.074 70.8322 142.551 71.3959 141.907 71.9366C141.262 72.4657 140.474 72.8971 139.543 73.2307C138.622 73.5643 137.553 73.7311 136.333 73.7311ZM151.224 58.2706V73.386H147.066V54.7161H151.035L151.224 58.2706ZM156.936 54.5953L156.901 58.4604C156.648 58.4144 156.372 58.3799 156.073 58.3569C155.785 58.3339 155.498 58.3224 155.21 58.3224C154.497 58.3224 153.87 58.4259 153.329 58.6329C152.789 58.8285 152.334 59.1161 151.966 59.4957C151.61 59.8638 151.334 60.3124 151.138 60.8416C150.943 61.3707 150.828 61.9632 150.793 62.6189L149.844 62.6879C149.844 61.5145 149.959 60.4275 150.189 59.4267C150.419 58.4259 150.764 57.5459 151.224 56.7867C151.696 56.0274 152.283 55.435 152.984 55.0094C153.698 54.5838 154.52 54.371 155.452 54.371C155.705 54.371 155.975 54.394 156.263 54.44C156.562 54.486 156.786 54.5378 156.936 54.5953ZM169.739 51.6102L162.233 73.386H157.695L167.151 48.2627H170.05L169.739 51.6102ZM176.02 73.386L168.497 51.6102L168.169 48.2627H171.085L180.575 73.386H176.02ZM175.657 64.0683V67.502H161.991V64.0683H175.657ZM187.149 58.2706V73.386H182.991V54.7161H186.959L187.149 58.2706ZM192.861 54.5953L192.826 58.4604C192.573 58.4144 192.297 58.3799 191.998 58.3569C191.71 58.3339 191.423 58.3224 191.135 58.3224C190.422 58.3224 189.795 58.4259 189.254 58.6329C188.714 58.8285 188.259 59.1161 187.891 59.4957C187.535 59.8638 187.259 60.3124 187.063 60.8416C186.867 61.3707 186.752 61.9632 186.718 62.6189L185.769 62.6879C185.769 61.5145 185.884 60.4275 186.114 59.4267C186.344 58.4259 186.689 57.5459 187.149 56.7867C187.621 56.0274 188.208 55.435 188.909 55.0094C189.623 54.5838 190.445 54.371 191.377 54.371C191.63 54.371 191.9 54.394 192.188 54.44C192.487 54.486 192.711 54.5378 192.861 54.5953ZM203.352 73.7311C201.971 73.7311 200.723 73.5068 199.607 73.0581C198.503 72.598 197.56 71.9596 196.778 71.1428C196.007 70.3261 195.414 69.3656 195 68.2612C194.586 67.1569 194.379 65.9663 194.379 64.6895V63.9993C194.379 62.5383 194.592 61.2154 195.018 60.0306C195.443 58.8458 196.036 57.8335 196.795 56.9937C197.554 56.1425 198.451 55.4925 199.487 55.0439C200.522 54.5953 201.644 54.371 202.851 54.371C204.186 54.371 205.353 54.5953 206.354 55.0439C207.355 55.4925 208.183 56.1252 208.839 56.942C209.506 57.7472 210.001 58.7077 210.323 59.8235C210.656 60.9394 210.823 62.1702 210.823 63.5161V65.2934H196.398V62.3083H206.716V61.9804C206.693 61.2327 206.544 60.531 206.268 59.8753C206.003 59.2196 205.595 58.6905 205.043 58.2878C204.491 57.8852 203.754 57.6839 202.834 57.6839C202.144 57.6839 201.528 57.8335 200.988 58.1326C200.459 58.4201 200.016 58.84 199.659 59.3922C199.303 59.9443 199.027 60.6115 198.831 61.3938C198.647 62.1645 198.555 63.033 198.555 63.9993V64.6895C198.555 65.5062 198.664 66.2654 198.883 66.9671C199.113 67.6573 199.446 68.2612 199.884 68.7789C200.321 69.2965 200.85 69.7049 201.471 70.004C202.092 70.2916 202.8 70.4354 203.593 70.4354C204.594 70.4354 205.486 70.2341 206.268 69.8315C207.05 69.4288 207.729 68.8594 208.304 68.1232L210.495 70.2456C210.093 70.8322 209.569 71.3959 208.925 71.9366C208.281 72.4657 207.493 72.8971 206.561 73.2307C205.641 73.5643 204.571 73.7311 203.352 73.7311ZM224.593 69.6416V60.7381C224.593 60.0709 224.472 59.4957 224.23 59.0126C223.989 58.5294 223.621 58.1556 223.126 57.891C222.643 57.6264 222.033 57.4941 221.297 57.4941C220.618 57.4941 220.032 57.6092 219.537 57.8392C219.042 58.0693 218.657 58.3799 218.381 58.771C218.105 59.1621 217.967 59.605 217.967 60.0996H213.826C213.826 59.3634 214.004 58.6502 214.36 57.96C214.717 57.2698 215.235 56.6544 215.913 56.1137C216.592 55.5731 217.403 55.1474 218.346 54.8368C219.29 54.5263 220.348 54.371 221.521 54.371C222.925 54.371 224.167 54.6068 225.248 55.0784C226.341 55.5501 227.198 56.2633 227.819 57.218C228.452 58.1613 228.768 59.3462 228.768 60.7726V69.0722C228.768 69.9235 228.826 70.6885 228.941 71.3671C229.067 72.0343 229.246 72.6153 229.476 73.1099V73.386H225.214C225.018 72.9374 224.863 72.3679 224.748 71.6777C224.644 70.976 224.593 70.2973 224.593 69.6416ZM225.197 62.0322L225.231 64.6032H222.246C221.475 64.6032 220.797 64.678 220.21 64.8275C219.623 64.9655 219.134 65.1726 218.743 65.4487C218.352 65.7248 218.059 66.0584 217.863 66.4495C217.668 66.8406 217.57 67.2835 217.57 67.7781C217.57 68.2728 217.685 68.7271 217.915 69.1413C218.145 69.5439 218.479 69.8602 218.916 70.0903C219.364 70.3203 219.905 70.4354 220.538 70.4354C221.389 70.4354 222.131 70.2628 222.764 69.9177C223.408 69.5611 223.914 69.1297 224.282 68.6236C224.65 68.106 224.846 67.6171 224.869 67.1569L226.215 69.0032C226.077 69.4748 225.841 69.981 225.507 70.5217C225.174 71.0623 224.736 71.58 224.196 72.0746C223.667 72.5577 223.028 72.9546 222.28 73.2652C221.544 73.5758 220.693 73.7311 219.727 73.7311C218.507 73.7311 217.42 73.4895 216.466 73.0064C215.511 72.5117 214.763 71.8503 214.222 71.022C213.682 70.1823 213.411 69.2333 213.411 68.175C213.411 67.1857 213.595 66.3114 213.964 65.5522C214.343 64.7815 214.895 64.1373 215.62 63.6196C216.356 63.102 217.254 62.7109 218.312 62.4463C219.37 62.1702 220.578 62.0322 221.935 62.0322H225.197ZM233.289 71.3154C233.289 70.6712 233.508 70.1305 233.945 69.6934C234.382 69.2448 234.974 69.0205 235.722 69.0205C236.481 69.0205 237.074 69.2448 237.499 69.6934C237.937 70.1305 238.155 70.6712 238.155 71.3154C238.155 71.9596 237.937 72.5002 237.499 72.9374C237.074 73.3745 236.481 73.593 235.722 73.593C234.974 73.593 234.382 73.3745 233.945 72.9374C233.508 72.5002 233.289 71.9596 233.289 71.3154Z" fill="#0168A2"/>
<path d="M253.478 69.6416V60.7381C253.478 60.0709 253.357 59.4957 253.115 59.0126C252.874 58.5294 252.506 58.1556 252.011 57.891C251.528 57.6264 250.918 57.4941 250.182 57.4941C249.503 57.4941 248.917 57.6092 248.422 57.8392C247.927 58.0693 247.542 58.3799 247.266 58.771C246.99 59.1621 246.852 59.605 246.852 60.0996H242.71C242.71 59.3634 242.889 58.6502 243.245 57.96C243.602 57.2698 244.12 56.6544 244.798 56.1137C245.477 55.5731 246.288 55.1474 247.231 54.8368C248.175 54.5263 249.233 54.371 250.406 54.371C251.81 54.371 253.052 54.6068 254.133 55.0784C255.226 55.5501 256.083 56.2633 256.704 57.218C257.337 58.1613 257.653 59.3462 257.653 60.7726V69.0722C257.653 69.9235 257.711 70.6885 257.826 71.3671C257.952 72.0343 258.131 72.6153 258.361 73.1099V73.386H254.099C253.903 72.9374 253.748 72.3679 253.633 71.6777C253.529 70.976 253.478 70.2973 253.478 69.6416ZM254.082 62.0322L254.116 64.6032H251.131C250.36 64.6032 249.681 64.678 249.095 64.8275C248.508 64.9655 248.019 65.1726 247.628 65.4487C247.237 65.7248 246.944 66.0584 246.748 66.4495C246.553 66.8406 246.455 67.2835 246.455 67.7781C246.455 68.2728 246.57 68.7271 246.8 69.1413C247.03 69.5439 247.364 69.8602 247.801 70.0903C248.249 70.3203 248.79 70.4354 249.423 70.4354C250.274 70.4354 251.016 70.2628 251.649 69.9177C252.293 69.5611 252.799 69.1297 253.167 68.6236C253.535 68.106 253.731 67.6171 253.754 67.1569L255.1 69.0032C254.962 69.4748 254.726 69.981 254.392 70.5217C254.059 71.0623 253.621 71.58 253.081 72.0746C252.552 72.5577 251.913 72.9546 251.165 73.2652C250.429 73.5758 249.578 73.7311 248.612 73.7311C247.392 73.7311 246.305 73.4895 245.35 73.0064C244.396 72.5117 243.648 71.8503 243.107 71.022C242.567 70.1823 242.296 69.2333 242.296 68.175C242.296 67.1857 242.48 66.3114 242.849 65.5522C243.228 64.7815 243.78 64.1373 244.505 63.6196C245.241 63.102 246.138 62.7109 247.197 62.4463C248.255 62.1702 249.463 62.0322 250.82 62.0322H254.082ZM266.453 54.7161V73.386H262.278V54.7161H266.453ZM262.002 49.8156C262.002 49.183 262.209 48.6596 262.623 48.2454C263.048 47.8198 263.635 47.607 264.383 47.607C265.119 47.607 265.7 47.8198 266.126 48.2454C266.551 48.6596 266.764 49.183 266.764 49.8156C266.764 50.4368 266.551 50.9545 266.126 51.3686C265.7 51.7827 265.119 51.9898 264.383 51.9898C263.635 51.9898 263.048 51.7827 262.623 51.3686C262.209 50.9545 262.002 50.4368 262.002 49.8156Z" fill="#931602"/>
<defs>
<linearGradient id="paint0_linear_2759_35696" x1="39.5935" y1="37" x2="39.5935" y2="86.7722" gradientUnits="userSpaceOnUse">
<stop offset="0.473512" stop-color="#0179BD"/>
<stop offset="1" stop-color="#003757"/>
</linearGradient>
</defs>
</svg>
