<svg width="291" height="125" viewBox="0 0 291 125" fill="none" xmlns="http://www.w3.org/2000/svg">
<path d="M45.7798 37.0013C48.2414 36.9723 50.2209 37.4311 52.5825 38.1162C50.995 40.0553 49.2168 41.8624 47.5428 43.7149L37.7251 54.555C35.9103 56.5579 34.0489 58.5304 32.2948 60.5969C34.1877 62.0385 35.8677 62.8278 38.1851 61.9366C38.8738 61.6718 39.5342 61.1033 40.084 60.5815C41.6141 59.1295 43.0106 57.3822 44.4396 55.8039L52.8526 46.5178C53.9073 45.3464 55.3342 43.4719 56.5349 42.6053C56.8832 42.3542 57.2667 42.2232 57.6831 42.2166C58.5079 42.2038 59.1607 42.7141 59.7192 43.3358C63.0808 47.0777 64.8055 52.3524 64.8074 57.5602C64.8091 62.7071 63.2072 67.3545 60.1488 71.2399C58.7731 72.9879 57.1853 74.5875 55.7007 76.2258L48.0759 84.6466C47.4382 85.3473 46.7921 86.0409 46.183 86.7722C45.7695 86.1291 45.266 85.5568 44.8569 84.9075C43.7459 83.1459 43.1354 80.8999 43.0726 78.7651C43.0057 76.4935 43.479 74.2874 44.5213 72.3234C45.8073 69.9003 47.9848 67.9482 49.7715 65.9706L56.1484 58.9239C57.4624 57.4758 58.8074 56.0488 60.0769 54.5535C58.347 53.1214 56.5131 52.2843 54.3461 53.1306C53.6938 53.3856 53.0644 53.8468 52.5353 54.3321C50.9548 55.782 49.4832 57.6288 48.0201 59.2451L39.3662 68.7949C38.3849 69.8754 37.3757 71.283 36.2326 72.1466C35.8019 72.472 35.3308 72.6764 34.8063 72.7047C33.9923 72.7487 33.2805 72.3585 32.6953 71.7612C29.586 68.5877 27.706 63.0682 27.5677 58.4657C27.3993 52.8706 29.103 47.5418 32.5993 43.4436C36.0874 39.3558 40.7163 37.1625 45.7798 37.0013Z" fill="url(#paint0_linear_2759_35696)"/>
<path d="M99.7354 66.9154C99.7354 66.3977 99.6549 65.9376 99.4939 65.535C99.3443 65.1323 99.074 64.7642 98.6829 64.4306C98.2918 64.097 97.7396 63.7749 97.0264 63.4644C96.3247 63.1423 95.4274 62.8144 94.3346 62.4808C93.1383 62.1127 92.034 61.7043 91.0217 61.2557C90.0209 60.7956 89.1466 60.2664 88.3989 59.6683C87.6512 59.0586 87.0703 58.3626 86.6561 57.5804C86.242 56.7867 86.035 55.8721 86.035 54.8368C86.035 53.813 86.2478 52.8813 86.6734 52.0415C87.1105 51.2018 87.726 50.4771 88.5197 49.8674C89.3249 49.2462 90.2739 48.7688 91.3668 48.4352C92.4596 48.0901 93.6674 47.9176 94.9903 47.9176C96.8539 47.9176 98.4586 48.2627 99.8045 48.9529C101.162 49.6431 102.203 50.5691 102.928 51.7309C103.664 52.8928 104.032 54.1754 104.032 55.5788H99.7354C99.7354 54.7506 99.5571 54.0201 99.2005 53.3874C98.8554 52.7432 98.3263 52.2371 97.6131 51.869C96.9114 51.5009 96.0199 51.3168 94.9386 51.3168C93.9148 51.3168 93.0635 51.4721 92.3848 51.7827C91.7061 52.0933 91.2 52.5132 90.8664 53.0423C90.5328 53.5715 90.366 54.1697 90.366 54.8368C90.366 55.3085 90.4753 55.7399 90.6938 56.131C90.9124 56.5106 91.246 56.8672 91.6946 57.2008C92.1432 57.5229 92.7069 57.8277 93.3856 58.1153C94.0643 58.4029 94.8638 58.679 95.784 58.9435C97.176 59.3577 98.3896 59.8178 99.4249 60.3239C100.46 60.8186 101.323 61.3822 102.013 62.0149C102.703 62.6476 103.221 63.3666 103.566 64.1718C103.911 64.9655 104.084 65.8686 104.084 66.8808C104.084 67.9392 103.871 68.8939 103.445 69.7452C103.02 70.5849 102.41 71.3039 101.616 71.9021C100.834 72.4887 99.8907 72.9431 98.7864 73.2652C97.6936 73.5758 96.4742 73.7311 95.1284 73.7311C93.9205 73.7311 92.7299 73.57 91.5566 73.2479C90.3947 72.9259 89.3364 72.437 88.3816 71.7813C87.4269 71.1141 86.6676 70.2858 86.104 69.2965C85.5403 68.2958 85.2585 67.1282 85.2585 65.7938H89.5895C89.5895 66.6105 89.7275 67.3065 90.0036 67.8816C90.2912 68.4568 90.6881 68.9284 91.1942 69.2965C91.7004 69.6532 92.287 69.9177 92.9542 70.0903C93.6329 70.2628 94.3576 70.3491 95.1284 70.3491C96.1407 70.3491 96.9861 70.2053 97.6648 69.9177C98.355 69.6301 98.8727 69.2275 99.2178 68.7099C99.5629 68.1922 99.7354 67.5941 99.7354 66.9154ZM118.733 68.986V54.7161H122.909V73.386H118.975L118.733 68.986ZM119.32 65.1036L120.718 65.0691C120.718 66.3229 120.58 67.479 120.303 68.5373C120.027 69.5841 119.602 70.4986 119.027 71.2809C118.451 72.0516 117.715 72.6555 116.818 73.0927C115.921 73.5183 114.845 73.7311 113.591 73.7311C112.682 73.7311 111.848 73.5988 111.089 73.3342C110.33 73.0696 109.674 72.6613 109.122 72.1091C108.582 71.557 108.162 70.838 107.863 69.9522C107.563 69.0665 107.414 68.0082 107.414 66.7773V54.7161H111.572V66.8118C111.572 67.4905 111.653 68.0599 111.814 68.5201C111.975 68.9687 112.194 69.3311 112.47 69.6071C112.746 69.8832 113.068 70.0788 113.436 70.1938C113.804 70.3088 114.195 70.3664 114.609 70.3664C115.794 70.3664 116.726 70.1363 117.405 69.6762C118.095 69.2045 118.584 68.5718 118.871 67.7781C119.17 66.9844 119.32 66.0929 119.32 65.1036ZM131.347 58.3051V80.5641H127.188V54.7161H131.019L131.347 58.3051ZM143.511 63.8785V64.2408C143.511 65.5982 143.35 66.8578 143.028 68.0197C142.718 69.17 142.252 70.1766 141.631 71.0393C141.021 71.8906 140.267 72.552 139.37 73.0236C138.473 73.4953 137.438 73.7311 136.264 73.7311C135.102 73.7311 134.084 73.5183 133.21 73.0927C132.347 72.6555 131.617 72.0401 131.019 71.2464C130.421 70.4526 129.937 69.5209 129.569 68.4511C129.213 67.3697 128.96 66.1849 128.81 64.8965V63.4989C128.96 62.13 129.213 60.8876 129.569 59.7718C129.937 58.656 130.421 57.6954 131.019 56.8902C131.617 56.085 132.347 55.4638 133.21 55.0267C134.073 54.5895 135.079 54.371 136.23 54.371C137.403 54.371 138.444 54.601 139.353 55.0612C140.262 55.5098 141.027 56.154 141.648 56.9937C142.269 57.822 142.735 58.8228 143.046 59.9961C143.356 61.1579 143.511 62.4521 143.511 63.8785ZM139.353 64.2408V63.8785C139.353 63.0157 139.272 62.2162 139.111 61.48C138.95 60.7323 138.697 60.0766 138.352 59.513C138.007 58.9493 137.564 58.5122 137.024 58.2016C136.494 57.8795 135.856 57.7184 135.108 57.7184C134.372 57.7184 133.739 57.845 133.21 58.098C132.681 58.3396 132.238 58.679 131.882 59.1161C131.525 59.5532 131.249 60.0651 131.053 60.6518C130.858 61.227 130.72 61.8539 130.639 62.5326V65.8801C130.777 66.7083 131.013 67.4675 131.347 68.1577C131.68 68.8479 132.152 69.4001 132.762 69.8142C133.383 70.2168 134.176 70.4181 135.143 70.4181C135.89 70.4181 136.529 70.2571 137.058 69.935C137.587 69.6129 138.019 69.17 138.352 68.6063C138.697 68.0312 138.95 67.3697 139.111 66.622C139.272 65.8743 139.353 65.0806 139.353 64.2408ZM155.279 73.7311C153.899 73.7311 152.651 73.5068 151.535 73.0581C150.431 72.598 149.487 71.9596 148.705 71.1428C147.934 70.3261 147.342 69.3656 146.928 68.2612C146.514 67.1569 146.307 65.9663 146.307 64.6895V63.9993C146.307 62.5383 146.52 61.2154 146.945 60.0306C147.371 58.8458 147.963 57.8335 148.722 56.9937C149.482 56.1425 150.379 55.4925 151.414 55.0439C152.45 54.5953 153.571 54.371 154.779 54.371C156.113 54.371 157.281 54.5953 158.282 55.0439C159.282 55.4925 160.111 56.1252 160.766 56.942C161.434 57.7472 161.928 58.7077 162.25 59.8235C162.584 60.9394 162.751 62.1702 162.751 63.5161V65.2934H148.326V62.3083H158.644V61.9804C158.621 61.2327 158.472 60.531 158.195 59.8753C157.931 59.2196 157.522 58.6905 156.97 58.2878C156.418 57.8852 155.682 57.6839 154.762 57.6839C154.071 57.6839 153.456 57.8335 152.915 58.1326C152.386 58.4201 151.943 58.84 151.587 59.3922C151.23 59.9443 150.954 60.6115 150.759 61.3938C150.574 62.1645 150.482 63.033 150.482 63.9993V64.6895C150.482 65.5062 150.592 66.2654 150.81 66.9671C151.04 67.6573 151.374 68.2612 151.811 68.7789C152.248 69.2965 152.777 69.7049 153.399 70.004C154.02 70.2916 154.727 70.4354 155.521 70.4354C156.522 70.4354 157.413 70.2341 158.195 69.8315C158.978 69.4288 159.656 68.8594 160.232 68.1232L162.423 70.2456C162.02 70.8322 161.497 71.3959 160.853 71.9366C160.209 72.4657 159.421 72.8971 158.489 73.2307C157.569 73.5643 156.499 73.7311 155.279 73.7311ZM170.17 58.2706V73.386H166.012V54.7161H169.981L170.17 58.2706ZM175.882 54.5953L175.847 58.4604C175.594 58.4144 175.318 58.3799 175.019 58.3569C174.731 58.3339 174.444 58.3224 174.156 58.3224C173.443 58.3224 172.816 58.4259 172.276 58.6329C171.735 58.8285 171.28 59.1161 170.912 59.4957C170.556 59.8638 170.28 60.3124 170.084 60.8416C169.889 61.3707 169.774 61.9632 169.739 62.6189L168.79 62.6879C168.79 61.5145 168.905 60.4275 169.135 59.4267C169.365 58.4259 169.71 57.5459 170.17 56.7867C170.642 56.0274 171.229 55.435 171.93 55.0094C172.644 54.5838 173.466 54.371 174.398 54.371C174.651 54.371 174.921 54.394 175.209 54.44C175.508 54.486 175.732 54.5378 175.882 54.5953ZM188.685 51.6102L181.179 73.386H176.641L186.097 48.2627H188.996L188.685 51.6102ZM194.966 73.386L187.443 51.6102L187.115 48.2627H190.031L199.521 73.386H194.966ZM194.604 64.0683V67.502H180.938V64.0683H194.604ZM206.095 58.2706V73.386H201.937V54.7161H205.906L206.095 58.2706ZM211.807 54.5953L211.772 58.4604C211.519 58.4144 211.243 58.3799 210.944 58.3569C210.656 58.3339 210.369 58.3224 210.081 58.3224C209.368 58.3224 208.741 58.4259 208.2 58.6329C207.66 58.8285 207.205 59.1161 206.837 59.4957C206.481 59.8638 206.205 60.3124 206.009 60.8416C205.814 61.3707 205.698 61.9632 205.664 62.6189L204.715 62.6879C204.715 61.5145 204.83 60.4275 205.06 59.4267C205.29 58.4259 205.635 57.5459 206.095 56.7867C206.567 56.0274 207.154 55.435 207.855 55.0094C208.569 54.5838 209.391 54.371 210.323 54.371C210.576 54.371 210.846 54.394 211.134 54.44C211.433 54.486 211.657 54.5378 211.807 54.5953ZM222.298 73.7311C220.917 73.7311 219.669 73.5068 218.553 73.0581C217.449 72.598 216.506 71.9596 215.724 71.1428C214.953 70.3261 214.361 69.3656 213.946 68.2612C213.532 67.1569 213.325 65.9663 213.325 64.6895V63.9993C213.325 62.5383 213.538 61.2154 213.964 60.0306C214.389 58.8458 214.982 57.8335 215.741 56.9937C216.5 56.1425 217.397 55.4925 218.433 55.0439C219.468 54.5953 220.59 54.371 221.797 54.371C223.132 54.371 224.299 54.5953 225.3 55.0439C226.301 55.4925 227.129 56.1252 227.785 56.942C228.452 57.7472 228.947 58.7077 229.269 59.8235C229.602 60.9394 229.769 62.1702 229.769 63.5161V65.2934H215.344V62.3083H225.663V61.9804C225.64 61.2327 225.49 60.531 225.214 59.8753C224.949 59.2196 224.541 58.6905 223.989 58.2878C223.437 57.8852 222.7 57.6839 221.78 57.6839C221.09 57.6839 220.475 57.8335 219.934 58.1326C219.405 58.4201 218.962 58.84 218.605 59.3922C218.249 59.9443 217.973 60.6115 217.777 61.3938C217.593 62.1645 217.501 63.033 217.501 63.9993V64.6895C217.501 65.5062 217.61 66.2654 217.829 66.9671C218.059 67.6573 218.392 68.2612 218.83 68.7789C219.267 69.2965 219.796 69.7049 220.417 70.004C221.038 70.2916 221.746 70.4354 222.539 70.4354C223.54 70.4354 224.432 70.2341 225.214 69.8315C225.996 69.4288 226.675 68.8594 227.25 68.1232L229.441 70.2456C229.039 70.8322 228.515 71.3959 227.871 71.9366C227.227 72.4657 226.439 72.8971 225.507 73.2307C224.587 73.5643 223.517 73.7311 222.298 73.7311ZM243.539 69.6416V60.7381C243.539 60.0709 243.418 59.4957 243.176 59.0126C242.935 58.5294 242.567 58.1556 242.072 57.891C241.589 57.6264 240.979 57.4941 240.243 57.4941C239.564 57.4941 238.978 57.6092 238.483 57.8392C237.988 58.0693 237.603 58.3799 237.327 58.771C237.051 59.1621 236.913 59.605 236.913 60.0996H232.772C232.772 59.3634 232.95 58.6502 233.306 57.96C233.663 57.2698 234.181 56.6544 234.859 56.1137C235.538 55.5731 236.349 55.1474 237.292 54.8368C238.236 54.5263 239.294 54.371 240.467 54.371C241.871 54.371 243.113 54.6068 244.194 55.0784C245.287 55.5501 246.144 56.2633 246.765 57.218C247.398 58.1613 247.714 59.3462 247.714 60.7726V69.0722C247.714 69.9235 247.772 70.6885 247.887 71.3671C248.014 72.0343 248.192 72.6153 248.422 73.1099V73.386H244.16C243.964 72.9374 243.809 72.3679 243.694 71.6777C243.59 70.976 243.539 70.2973 243.539 69.6416ZM244.143 62.0322L244.177 64.6032H241.192C240.421 64.6032 239.743 64.678 239.156 64.8275C238.569 64.9655 238.08 65.1726 237.689 65.4487C237.298 65.7248 237.005 66.0584 236.809 66.4495C236.614 66.8406 236.516 67.2835 236.516 67.7781C236.516 68.2728 236.631 68.7271 236.861 69.1413C237.091 69.5439 237.425 69.8602 237.862 70.0903C238.31 70.3203 238.851 70.4354 239.484 70.4354C240.335 70.4354 241.077 70.2628 241.71 69.9177C242.354 69.5611 242.86 69.1297 243.228 68.6236C243.596 68.106 243.792 67.6171 243.815 67.1569L245.161 69.0032C245.023 69.4748 244.787 69.981 244.453 70.5217C244.12 71.0623 243.683 71.58 243.142 72.0746C242.613 72.5577 241.974 72.9546 241.227 73.2652C240.49 73.5758 239.639 73.7311 238.673 73.7311C237.453 73.7311 236.366 73.4895 235.412 73.0064C234.457 72.5117 233.709 71.8503 233.168 71.022C232.628 70.1823 232.357 69.2333 232.357 68.175C232.357 67.1857 232.542 66.3114 232.91 65.5522C233.289 64.7815 233.841 64.1373 234.566 63.6196C235.302 63.102 236.2 62.7109 237.258 62.4463C238.316 62.1702 239.524 62.0322 240.881 62.0322H244.143Z" fill="#0168A2"/>
<defs>
<linearGradient id="paint0_linear_2759_35696" x1="46.1819" y1="37" x2="46.1819" y2="86.7722" gradientUnits="userSpaceOnUse">
<stop offset="0.473512" stop-color="#0179BD"/>
<stop offset="1" stop-color="#003757"/>
</linearGradient>
</defs>
</svg>
