<svg width="291" height="125" viewBox="0 0 291 125" fill="none" xmlns="http://www.w3.org/2000/svg">
<g clip-path="url(#clip0_2755_35474)">
<path d="M100.866 75.5216C100.866 76.0904 100.834 76.6624 100.74 77.2214C100.504 78.6465 99.4186 79.435 98.0131 79.1054C97.1355 78.8986 96.2611 78.5722 95.4709 78.1424C92.9708 76.7722 90.4998 75.3407 88.0418 73.8962C87.407 73.5214 87.0022 73.5569 86.4614 74.103C82.6108 77.9905 78.7407 81.8618 74.8416 85.7041C71.5221 88.9776 67.474 90.7646 62.8461 91.0328C56.4663 91.4012 51.0482 89.1779 46.9742 84.2499C42.4338 78.7531 41.4914 72.484 43.7292 65.7464C44.6975 62.8316 46.4625 60.4177 48.6356 58.272C51.6862 55.2602 54.724 52.2355 57.7617 49.2141C61.3629 45.6271 64.9155 41.9917 68.5718 38.4597C73.6207 33.5898 79.6799 31.9935 86.4484 33.606C94.9981 35.6418 100.714 42.9838 100.808 51.7443C100.895 59.6692 100.885 67.5964 100.866 75.5216ZM66.9169 71.0557C66.9169 68.6644 65.0451 66.8677 62.5514 66.8548C60.3169 66.8451 58.4288 68.8034 58.445 71.1171C58.4612 73.3921 60.346 75.2987 62.5709 75.2987C65.0386 75.2987 66.9169 73.4632 66.9137 71.059L66.9169 71.0557ZM85.0073 53.0434C85.0267 50.7232 83.2034 48.8554 80.8782 48.8166C78.5335 48.7778 76.5807 50.6359 76.5483 52.9335C76.5127 55.3022 78.4039 57.2411 80.7616 57.2605C83.0642 57.2799 84.9911 55.3668 85.0105 53.0434H85.0073ZM75.9621 62.0302C75.9686 59.7294 74.0967 57.8551 71.7844 57.8422C69.3976 57.8292 67.4902 59.71 67.4966 62.0657C67.5064 64.3892 69.4106 66.2699 71.7488 66.2667C74.0579 66.2634 75.9556 64.3536 75.9621 62.0269V62.0302Z" fill="#EC7A34"/>
<path d="M39.6363 76.8146C39.1829 76.4042 38.7036 76.0035 38.2567 75.564C35.5655 72.9078 32.8808 70.245 30.196 67.579C27.9161 65.317 25.5553 63.1196 24.208 60.1046C21.3096 53.6093 21.682 47.3208 25.5747 41.3652C28.5476 36.8152 32.8581 34.0976 38.2146 33.2703C44.0471 32.3687 49.3389 33.7873 53.8015 37.733C55.641 39.3616 57.3121 41.1777 59.0576 42.9131C59.1192 42.9745 59.158 43.0617 59.239 43.1877C59.0415 43.401 58.8536 43.624 58.6496 43.8276C54.799 47.6504 50.9484 51.4733 47.0913 55.2864C45.158 57.1995 43.3314 59.1901 42.0457 61.6202C40.2387 65.0294 39.2606 68.6357 39.3675 72.5038C39.4064 73.9289 39.5424 75.3508 39.6395 76.8146H39.6363Z" fill="url(#paint0_linear_2755_35474)"/>
</g>
<path d="M134.874 47.8438H124.813V73.948H118.741V47.8438H108.681V42.4812H134.874V47.8438ZM149.824 55.8657C148.022 55.8657 146.412 56.2202 144.993 56.9293C143.575 57.6089 142.556 58.5987 141.935 59.8987V73.948H135.997V50.7246H141.448V55.6884C142.275 54.0929 143.324 52.8372 144.595 51.9212C145.865 51.0053 147.209 50.503 148.628 50.4144C148.953 50.4144 149.204 50.4144 149.381 50.4144C149.558 50.4144 149.706 50.4291 149.824 50.4587V55.8657ZM152.914 65.2614V50.7246H158.853V63.9761C158.853 65.7489 159.178 67.0933 159.828 68.0092C160.478 68.8956 161.438 69.3388 162.709 69.3388C163.477 69.3388 164.23 69.191 164.969 68.8956C165.737 68.5706 166.432 68.0978 167.052 67.4774C167.702 66.8569 168.249 66.0739 168.692 65.1284V50.7246H174.631V67.3001C174.631 67.9206 174.734 68.3637 174.941 68.6297C175.177 68.8956 175.547 69.0581 176.049 69.1172V73.948C175.458 74.0366 174.956 74.0957 174.542 74.1253C174.158 74.1844 173.803 74.2139 173.478 74.2139C172.415 74.2139 171.543 73.9775 170.864 73.5048C170.213 73.0025 169.829 72.323 169.711 71.4661L169.578 69.6047C168.544 71.1706 167.215 72.3673 165.59 73.1946C163.964 73.9923 162.177 74.3912 160.227 74.3912C157.834 74.3912 156.017 73.623 154.776 72.0866C153.535 70.5206 152.914 68.2456 152.914 65.2614ZM180.488 41.5948H186.427V66.5023C186.427 67.566 186.604 68.2899 186.959 68.674C187.313 69.0285 187.801 69.2058 188.421 69.2058C188.894 69.2058 189.382 69.1467 189.884 69.0285C190.386 68.9104 190.829 68.7626 191.213 68.5853L192.011 73.1059C191.213 73.49 190.283 73.7855 189.219 73.9923C188.155 74.1991 187.195 74.3026 186.338 74.3026C184.477 74.3026 183.029 73.815 181.995 72.84C180.99 71.8354 180.488 70.4172 180.488 68.5853V41.5948ZM205.324 74.3912C203.433 74.3912 201.734 74.081 200.227 73.4605C198.72 72.8105 197.435 71.9241 196.371 70.8013C195.337 69.6786 194.54 68.3933 193.978 66.9455C193.417 65.4978 193.136 63.9761 193.136 62.3806C193.136 60.7556 193.417 59.2192 193.978 57.7714C194.54 56.3236 195.337 55.0384 196.371 53.9156C197.435 52.7929 198.72 51.9212 200.227 51.3008C201.734 50.6507 203.433 50.3257 205.324 50.3257C207.215 50.3257 208.899 50.6507 210.376 51.3008C211.883 51.9212 213.168 52.7929 214.232 53.9156C215.296 55.0384 216.094 56.3236 216.625 57.7714C217.187 59.2192 217.467 60.7556 217.467 62.3806C217.467 63.9761 217.187 65.4978 216.625 66.9455C216.094 68.3933 215.296 69.6786 214.232 70.8013C213.198 71.9241 211.928 72.8105 210.421 73.4605C208.914 74.081 207.215 74.3912 205.324 74.3912ZM199.252 62.3806C199.252 63.7398 199.518 64.9512 200.05 66.0148C200.582 67.0489 201.306 67.8615 202.222 68.4524C203.138 69.0433 204.172 69.3388 205.324 69.3388C206.447 69.3388 207.466 69.0433 208.382 68.4524C209.298 67.8319 210.022 67.0046 210.554 65.9705C211.115 64.9068 211.396 63.6954 211.396 62.3363C211.396 61.0067 211.115 59.8101 210.554 58.7464C210.022 57.6828 209.298 56.8555 208.382 56.2645C207.466 55.6736 206.447 55.3782 205.324 55.3782C204.172 55.3782 203.138 55.6884 202.222 56.3089C201.306 56.8998 200.582 57.7271 200.05 58.7907C199.518 59.8249 199.252 61.0215 199.252 62.3806ZM220.867 73.948V67.566H225.742V73.948H220.867ZM229.359 67.0785C229.359 65.5716 229.773 64.2568 230.6 63.1341C231.457 61.9817 232.639 61.0954 234.145 60.4749C235.652 59.8544 237.381 59.5442 239.331 59.5442C240.306 59.5442 241.296 59.618 242.3 59.7658C243.305 59.9135 244.176 60.1499 244.915 60.4749V59.2339C244.915 57.7566 244.472 56.6191 243.585 55.8213C242.729 55.0236 241.443 54.6247 239.73 54.6247C238.459 54.6247 237.248 54.8463 236.095 55.2895C234.943 55.7327 233.732 56.3827 232.461 57.2396L230.556 53.3395C232.092 52.3349 233.658 51.5815 235.253 51.0792C236.878 50.5769 238.577 50.3257 240.35 50.3257C243.659 50.3257 246.23 51.153 248.062 52.8076C249.923 54.4622 250.854 56.8259 250.854 59.8987V67.3001C250.854 67.9206 250.957 68.3637 251.164 68.6297C251.4 68.8956 251.77 69.0581 252.272 69.1172V73.948C251.74 74.0366 251.253 74.1105 250.81 74.1696C250.396 74.2287 250.041 74.2582 249.746 74.2582C248.564 74.2582 247.663 73.9923 247.042 73.4605C246.451 72.9287 246.082 72.2786 245.934 71.5104L245.801 70.3138C244.797 71.6138 243.541 72.6184 242.034 73.3275C240.527 74.0366 238.991 74.3912 237.425 74.3912C235.889 74.3912 234.5 74.081 233.259 73.4605C232.048 72.8105 231.087 71.9389 230.378 70.8456C229.699 69.7229 229.359 68.4672 229.359 67.0785ZM243.807 68.2751C244.132 67.9206 244.398 67.566 244.605 67.2114C244.812 66.8569 244.915 66.5319 244.915 66.2364V63.8875C244.206 63.592 243.438 63.3704 242.61 63.2227C241.783 63.0454 241 62.9568 240.262 62.9568C238.725 62.9568 237.455 63.2966 236.45 63.9761C235.475 64.6261 234.988 65.4978 234.988 66.591C234.988 67.1819 235.15 67.7433 235.475 68.2751C235.8 68.8069 236.273 69.2354 236.893 69.5604C237.514 69.8854 238.252 70.0479 239.109 70.0479C239.996 70.0479 240.867 69.8854 241.724 69.5604C242.581 69.2058 243.275 68.7774 243.807 68.2751ZM256.403 73.948V50.7246H262.342V73.948H256.403ZM256.403 47.4893V41.5948H262.342V47.4893H256.403Z" fill="#343434"/>
<path d="M145.32 83.4944V91.1118H144.326V83.4944H145.32ZM147.768 83.4944V84.321H141.882V83.4944H147.768ZM149.719 83.0759V91.1118H148.752V83.0759H149.719ZM149.489 88.0669L149.086 88.0513C149.09 87.6641 149.147 87.3066 149.259 86.9787C149.371 86.6474 149.528 86.3597 149.73 86.1155C149.932 85.8714 150.173 85.683 150.452 85.5505C150.734 85.4145 151.047 85.3464 151.388 85.3464C151.667 85.3464 151.919 85.3848 152.142 85.4615C152.365 85.5348 152.555 85.6534 152.712 85.8173C152.872 85.9812 152.995 86.194 153.078 86.4556C153.162 86.7137 153.204 87.0293 153.204 87.4025V91.1118H152.231V87.3921C152.231 87.0956 152.187 86.8584 152.1 86.6805C152.013 86.4992 151.885 86.3684 151.718 86.2882C151.551 86.2045 151.345 86.1626 151.101 86.1626C150.86 86.1626 150.64 86.2132 150.441 86.3143C150.246 86.4155 150.077 86.555 149.934 86.7329C149.794 86.9107 149.685 87.1148 149.604 87.345C149.528 87.5717 149.489 87.8123 149.489 88.0669ZM157.002 91.2165C156.608 91.2165 156.25 91.1502 155.93 91.0176C155.612 90.8816 155.338 90.6915 155.108 90.4474C154.881 90.2032 154.707 89.9137 154.585 89.5789C154.463 89.2441 154.402 88.8779 154.402 88.4803V88.2605C154.402 87.8001 154.47 87.3903 154.606 87.0311C154.742 86.6683 154.927 86.3614 155.16 86.1103C155.394 85.8592 155.659 85.6691 155.956 85.54C156.252 85.411 156.559 85.3464 156.876 85.3464C157.281 85.3464 157.63 85.4162 157.923 85.5557C158.219 85.6952 158.462 85.8905 158.65 86.1417C158.838 86.3893 158.978 86.6823 159.069 87.0206C159.159 87.3554 159.205 87.7217 159.205 88.1193V88.5535H154.977V87.7635H158.237V87.6903C158.223 87.4391 158.17 87.195 158.08 86.9578C157.993 86.7206 157.853 86.5253 157.661 86.3719C157.469 86.2184 157.208 86.1417 156.876 86.1417C156.657 86.1417 156.454 86.1888 156.27 86.2829C156.085 86.3736 155.926 86.5096 155.794 86.691C155.661 86.8724 155.558 87.0938 155.485 87.3554C155.412 87.617 155.375 87.9187 155.375 88.2605V88.4803C155.375 88.7488 155.412 89.0017 155.485 89.2389C155.562 89.4725 155.671 89.6783 155.814 89.8562C155.961 90.0341 156.137 90.1736 156.343 90.2747C156.552 90.3759 156.789 90.4265 157.054 90.4265C157.396 90.4265 157.686 90.3567 157.923 90.2172C158.16 90.0777 158.368 89.8911 158.545 89.6574L159.131 90.123C159.009 90.3079 158.854 90.484 158.666 90.6514C158.477 90.8188 158.245 90.9549 157.97 91.0595C157.698 91.1641 157.375 91.2165 157.002 91.2165ZM164.149 83.4944V91.1118H163.139V83.4944H164.149ZM167.34 86.9212V87.7478H163.929V86.9212H167.34ZM167.858 83.4944V84.321H163.929V83.4944H167.858ZM172.263 89.8039V85.4511H173.236V91.1118H172.31L172.263 89.8039ZM172.446 88.611L172.849 88.6006C172.849 88.9773 172.809 89.3261 172.729 89.6469C172.652 89.9643 172.526 90.2399 172.352 90.4735C172.178 90.7072 171.949 90.8903 171.667 91.0229C171.384 91.1519 171.041 91.2165 170.636 91.2165C170.36 91.2165 170.108 91.1763 169.877 91.0961C169.651 91.0159 169.455 90.8921 169.291 90.7247C169.127 90.5573 169 90.3393 168.909 90.0707C168.822 89.8021 168.779 89.4795 168.779 89.1028V85.4511H169.747V89.1133C169.747 89.3679 169.774 89.5789 169.83 89.7463C169.89 89.9103 169.968 90.0411 170.066 90.1387C170.167 90.2329 170.278 90.2992 170.401 90.3375C170.526 90.3759 170.655 90.3951 170.788 90.3951C171.199 90.3951 171.525 90.3166 171.766 90.1596C172.007 89.9992 172.179 89.7847 172.284 89.5161C172.392 89.2441 172.446 88.9424 172.446 88.611ZM177.081 85.4511V86.194H174.021V85.4511H177.081ZM175.057 84.0751H176.025V89.7097C176.025 89.9015 176.054 90.0463 176.114 90.1439C176.173 90.2416 176.25 90.3061 176.344 90.3375C176.438 90.3689 176.539 90.3846 176.647 90.3846C176.727 90.3846 176.811 90.3776 176.898 90.3637C176.989 90.3462 177.057 90.3323 177.102 90.3218L177.108 91.1118C177.031 91.1362 176.93 91.1589 176.804 91.1798C176.682 91.2042 176.534 91.2165 176.359 91.2165C176.122 91.2165 175.904 91.1694 175.705 91.0752C175.507 90.981 175.348 90.8241 175.229 90.6043C175.114 90.3811 175.057 90.0812 175.057 89.7045V84.0751ZM181.68 89.8039V85.4511H182.653V91.1118H181.727L181.68 89.8039ZM181.863 88.611L182.266 88.6006C182.266 88.9773 182.226 89.3261 182.146 89.6469C182.069 89.9643 181.943 90.2399 181.769 90.4735C181.595 90.7072 181.366 90.8903 181.084 91.0229C180.801 91.1519 180.458 91.2165 180.053 91.2165C179.778 91.2165 179.525 91.1763 179.294 91.0961C179.068 91.0159 178.872 90.8921 178.708 90.7247C178.545 90.5573 178.417 90.3393 178.327 90.0707C178.239 89.8021 178.196 89.4795 178.196 89.1028V85.4511H179.164V89.1133C179.164 89.3679 179.192 89.5789 179.247 89.7463C179.307 89.9103 179.385 90.0411 179.483 90.1387C179.584 90.2329 179.696 90.2992 179.818 90.3375C179.943 90.3759 180.072 90.3951 180.205 90.3951C180.616 90.3951 180.942 90.3166 181.183 90.1596C181.424 89.9992 181.596 89.7847 181.701 89.5161C181.809 89.2441 181.863 88.9424 181.863 88.611ZM185.096 86.3405V91.1118H184.129V85.4511H185.07L185.096 86.3405ZM186.865 85.4197L186.86 86.3195C186.779 86.3021 186.703 86.2916 186.629 86.2882C186.56 86.2812 186.479 86.2777 186.389 86.2777C186.165 86.2777 185.968 86.3126 185.797 86.3823C185.627 86.4521 185.482 86.5497 185.363 86.6753C185.245 86.8009 185.151 86.9508 185.081 87.1252C185.014 87.2961 184.971 87.4845 184.95 87.6903L184.678 87.8472C184.678 87.5054 184.711 87.1845 184.777 86.8846C184.847 86.5846 184.953 86.3195 185.096 86.0894C185.239 85.8557 185.421 85.6743 185.641 85.5453C185.864 85.4127 186.129 85.3464 186.436 85.3464C186.506 85.3464 186.586 85.3552 186.676 85.3726C186.767 85.3866 186.83 85.4023 186.865 85.4197ZM190.004 91.2165C189.61 91.2165 189.252 91.1502 188.931 91.0176C188.614 90.8816 188.34 90.6915 188.11 90.4474C187.883 90.2032 187.709 89.9137 187.587 89.5789C187.465 89.2441 187.404 88.8779 187.404 88.4803V88.2605C187.404 87.8001 187.472 87.3903 187.608 87.0311C187.744 86.6683 187.929 86.3614 188.162 86.1103C188.396 85.8592 188.661 85.6691 188.957 85.54C189.254 85.411 189.561 85.3464 189.878 85.3464C190.283 85.3464 190.632 85.4162 190.925 85.5557C191.221 85.6952 191.463 85.8905 191.652 86.1417C191.84 86.3893 191.98 86.6823 192.07 87.0206C192.161 87.3554 192.206 87.7217 192.206 88.1193V88.5535H187.979V87.7635H191.238V87.6903C191.225 87.4391 191.172 87.195 191.082 86.9578C190.994 86.7206 190.855 86.5253 190.663 86.3719C190.471 86.2184 190.21 86.1417 189.878 86.1417C189.659 86.1417 189.456 86.1888 189.271 86.2829C189.087 86.3736 188.928 86.5096 188.795 86.691C188.663 86.8724 188.56 87.0938 188.487 87.3554C188.413 87.617 188.377 87.9187 188.377 88.2605V88.4803C188.377 88.7488 188.413 89.0017 188.487 89.2389C188.563 89.4725 188.673 89.6783 188.816 89.8562C188.963 90.0341 189.139 90.1736 189.345 90.2747C189.554 90.3759 189.791 90.4265 190.056 90.4265C190.398 90.4265 190.687 90.3567 190.925 90.2172C191.162 90.0777 191.369 89.8911 191.547 89.6574L192.133 90.123C192.011 90.3079 191.856 90.484 191.667 90.6514C191.479 90.8188 191.247 90.9549 190.972 91.0595C190.7 91.1641 190.377 91.2165 190.004 91.2165ZM195.738 88.3442V88.2239C195.738 87.8158 195.797 87.4374 195.916 87.0886C196.034 86.7363 196.205 86.4312 196.428 86.1731C196.652 85.9115 196.922 85.7092 197.239 85.5662C197.557 85.4197 197.912 85.3464 198.307 85.3464C198.704 85.3464 199.062 85.4197 199.379 85.5662C199.7 85.7092 199.972 85.9115 200.195 86.1731C200.422 86.4312 200.595 86.7363 200.713 87.0886C200.832 87.4374 200.891 87.8158 200.891 88.2239V88.3442C200.891 88.7523 200.832 89.1307 200.713 89.4795C200.595 89.8283 200.422 90.1335 200.195 90.3951C199.972 90.6532 199.702 90.8555 199.384 91.002C199.07 91.145 198.715 91.2165 198.317 91.2165C197.919 91.2165 197.562 91.145 197.245 91.002C196.927 90.8555 196.655 90.6532 196.428 90.3951C196.205 90.1335 196.034 89.8283 195.916 89.4795C195.797 89.1307 195.738 88.7523 195.738 88.3442ZM196.706 88.2239V88.3442C196.706 88.6267 196.739 88.8936 196.805 89.1447C196.871 89.3923 196.971 89.6121 197.103 89.8039C197.239 89.9957 197.408 90.1474 197.611 90.259C197.813 90.3672 198.048 90.4212 198.317 90.4212C198.582 90.4212 198.814 90.3672 199.013 90.259C199.215 90.1474 199.383 89.9957 199.515 89.8039C199.648 89.6121 199.747 89.3923 199.813 89.1447C199.883 88.8936 199.918 88.6267 199.918 88.3442V88.2239C199.918 87.9449 199.883 87.6815 199.813 87.4339C199.747 87.1828 199.646 86.9613 199.51 86.7695C199.377 86.5742 199.21 86.4207 199.008 86.3091C198.809 86.1975 198.575 86.1417 198.307 86.1417C198.041 86.1417 197.808 86.1975 197.606 86.3091C197.407 86.4207 197.239 86.5742 197.103 86.7695C196.971 86.9613 196.871 87.1828 196.805 87.4339C196.739 87.6815 196.706 87.9449 196.706 88.2239ZM203.549 91.1118H202.581V84.8547C202.581 84.4466 202.654 84.103 202.801 83.824C202.951 83.5415 203.165 83.3287 203.444 83.1857C203.723 83.0393 204.054 82.966 204.438 82.966C204.55 82.966 204.661 82.973 204.773 82.9869C204.888 83.0009 205 83.0218 205.108 83.0497L205.056 83.8397C204.982 83.8223 204.899 83.8101 204.804 83.8031C204.714 83.7961 204.623 83.7926 204.532 83.7926C204.327 83.7926 204.149 83.8345 203.999 83.9182C203.852 83.9984 203.741 84.117 203.664 84.2739C203.587 84.4309 203.549 84.6245 203.549 84.8547V91.1118ZM204.752 85.4511V86.194H201.686V85.4511H204.752ZM210.695 91.1118H209.105L209.115 90.2904H210.695C211.239 90.2904 211.693 90.1771 212.056 89.9504C212.418 89.7202 212.69 89.3993 212.872 88.9877C213.057 88.5727 213.149 88.0879 213.149 87.5333V87.0677C213.149 86.6317 213.097 86.2446 212.992 85.9062C212.887 85.5644 212.734 85.2767 212.532 85.043C212.329 84.8058 212.082 84.6262 211.789 84.5041C211.499 84.3821 211.166 84.321 210.789 84.321H209.073V83.4944H210.789C211.288 83.4944 211.743 83.5781 212.155 83.7455C212.567 83.9095 212.921 84.1484 213.217 84.4623C213.517 84.7727 213.747 85.1494 213.908 85.5923C214.068 86.0318 214.148 86.5271 214.148 87.0782V87.5333C214.148 88.0844 214.068 88.5814 213.908 89.0244C213.747 89.4638 213.515 89.8388 213.212 90.1492C212.912 90.4596 212.549 90.6985 212.124 90.8659C211.702 91.0299 211.225 91.1118 210.695 91.1118ZM209.644 83.4944V91.1118H208.634V83.4944H209.644ZM218.857 90.1439V87.2299C218.857 87.0066 218.811 86.8131 218.721 86.6491C218.634 86.4817 218.501 86.3527 218.323 86.262C218.145 86.1713 217.926 86.126 217.664 86.126C217.42 86.126 217.205 86.1678 217.02 86.2515C216.839 86.3352 216.696 86.4451 216.591 86.5811C216.49 86.7172 216.44 86.8636 216.44 87.0206H215.472C215.472 86.8183 215.524 86.6178 215.629 86.419C215.733 86.2201 215.883 86.0405 216.079 85.8801C216.278 85.7162 216.515 85.5871 216.79 85.4929C217.069 85.3953 217.38 85.3464 217.722 85.3464C218.133 85.3464 218.496 85.4162 218.81 85.5557C219.127 85.6952 219.375 85.9062 219.553 86.1888C219.734 86.4678 219.825 86.8183 219.825 87.2403V89.8771C219.825 90.0655 219.84 90.266 219.872 90.4788C219.907 90.6915 219.957 90.8746 220.023 91.0281V91.1118H219.014C218.965 91.0002 218.927 90.852 218.899 90.6671C218.871 90.4788 218.857 90.3044 218.857 90.1439ZM219.024 87.6798L219.035 88.3599H218.056C217.781 88.3599 217.535 88.3826 217.319 88.4279C217.102 88.4698 216.921 88.5343 216.775 88.6215C216.628 88.7087 216.516 88.8186 216.44 88.9511C216.363 89.0802 216.325 89.2319 216.325 89.4063C216.325 89.5842 216.365 89.7463 216.445 89.8928C216.525 90.0393 216.646 90.1562 216.806 90.2433C216.97 90.3271 217.17 90.3689 217.408 90.3689C217.704 90.3689 217.966 90.3061 218.192 90.1806C218.419 90.055 218.599 89.9015 218.731 89.7202C218.867 89.5388 218.941 89.3627 218.951 89.1918L219.364 89.6574C219.34 89.8039 219.274 89.9661 219.165 90.1439C219.057 90.3218 218.913 90.4927 218.731 90.6567C218.553 90.8171 218.341 90.9514 218.093 91.0595C217.849 91.1641 217.573 91.2165 217.266 91.2165C216.883 91.2165 216.546 91.1415 216.257 90.9915C215.971 90.8415 215.747 90.641 215.587 90.3898C215.43 90.1352 215.352 89.851 215.352 89.5371C215.352 89.2336 215.411 88.9668 215.529 88.7366C215.648 88.5029 215.819 88.3094 216.042 88.1559C216.265 87.9989 216.534 87.8803 216.848 87.8001C217.162 87.7199 217.512 87.6798 217.899 87.6798H219.024ZM223.717 85.4511V86.194H220.657V85.4511H223.717ZM221.692 84.0751H222.66V89.7097C222.66 89.9015 222.69 90.0463 222.749 90.1439C222.809 90.2416 222.885 90.3061 222.979 90.3375C223.074 90.3689 223.175 90.3846 223.283 90.3846C223.363 90.3846 223.447 90.3776 223.534 90.3637C223.625 90.3462 223.693 90.3323 223.738 90.3218L223.743 91.1118C223.667 91.1362 223.565 91.1589 223.44 91.1798C223.318 91.2042 223.17 91.2165 222.995 91.2165C222.758 91.2165 222.54 91.1694 222.341 91.0752C222.142 90.981 221.984 90.8241 221.865 90.6043C221.75 90.3811 221.692 90.0812 221.692 89.7045V84.0751ZM225.904 85.4511V91.1118H224.931V85.4511H225.904ZM224.858 83.9496C224.858 83.7926 224.905 83.6601 224.999 83.552C225.097 83.4438 225.24 83.3898 225.428 83.3898C225.613 83.3898 225.754 83.4438 225.852 83.552C225.953 83.6601 226.003 83.7926 226.003 83.9496C226.003 84.0996 225.953 84.2286 225.852 84.3367C225.754 84.4414 225.613 84.4937 225.428 84.4937C225.24 84.4937 225.097 84.4414 224.999 84.3367C224.905 84.2286 224.858 84.0996 224.858 83.9496ZM228.426 86.6596V91.1118H227.458V85.4511H228.373L228.426 86.6596ZM228.195 88.0669L227.793 88.0513C227.796 87.6641 227.854 87.3066 227.965 86.9787C228.077 86.6474 228.234 86.3597 228.436 86.1155C228.638 85.8714 228.879 85.683 229.158 85.5505C229.441 85.4145 229.753 85.3464 230.095 85.3464C230.374 85.3464 230.625 85.3848 230.848 85.4615C231.071 85.5348 231.261 85.6534 231.418 85.8173C231.579 85.9812 231.701 86.194 231.784 86.4556C231.868 86.7137 231.91 87.0293 231.91 87.4025V91.1118H230.937V87.3921C230.937 87.0956 230.893 86.8584 230.806 86.6805C230.719 86.4992 230.592 86.3684 230.424 86.2882C230.257 86.2045 230.051 86.1626 229.807 86.1626C229.566 86.1626 229.346 86.2132 229.148 86.3143C228.952 86.4155 228.783 86.555 228.64 86.7329C228.501 86.9107 228.391 87.1148 228.311 87.345C228.234 87.5717 228.195 87.8123 228.195 88.0669ZM237.048 85.4511H237.926V90.9915C237.926 91.4902 237.825 91.9158 237.623 92.268C237.421 92.6203 237.138 92.8871 236.775 93.0685C236.416 93.2533 236.001 93.3458 235.53 93.3458C235.335 93.3458 235.105 93.3144 234.84 93.2516C234.578 93.1923 234.32 93.0894 234.065 92.9429C233.814 92.7999 233.603 92.6063 233.432 92.3622L233.94 91.7867C234.177 92.0727 234.425 92.2715 234.683 92.3831C234.944 92.4947 235.202 92.5505 235.457 92.5505C235.764 92.5505 236.029 92.493 236.252 92.3779C236.476 92.2628 236.648 92.0919 236.77 91.8652C236.896 91.642 236.959 91.3664 236.959 91.0386V86.6962L237.048 85.4511ZM233.15 88.3442V88.2344C233.15 87.8019 233.2 87.4095 233.302 87.0572C233.406 86.7015 233.554 86.3963 233.746 86.1417C233.942 85.8871 234.177 85.6917 234.453 85.5557C234.728 85.4162 235.039 85.3464 235.384 85.3464C235.74 85.3464 236.05 85.4092 236.315 85.5348C236.584 85.6569 236.81 85.8365 236.995 86.0737C237.184 86.3073 237.332 86.5899 237.44 86.9212C237.548 87.2525 237.623 87.6275 237.665 88.046V88.5273C237.627 88.9424 237.552 89.3156 237.44 89.6469C237.332 89.9783 237.184 90.2608 236.995 90.4945C236.81 90.7282 236.584 90.9078 236.315 91.0333C236.047 91.1554 235.733 91.2165 235.373 91.2165C235.035 91.2165 234.728 91.145 234.453 91.002C234.181 90.8589 233.947 90.6584 233.752 90.4003C233.556 90.1422 233.406 89.8388 233.302 89.49C233.2 89.1377 233.15 88.7558 233.15 88.3442ZM234.118 88.2344V88.3442C234.118 88.6267 234.146 88.8918 234.201 89.1395C234.261 89.3871 234.35 89.6051 234.468 89.7934C234.59 89.9818 234.746 90.13 234.934 90.2381C235.122 90.3428 235.347 90.3951 235.609 90.3951C235.93 90.3951 236.195 90.3271 236.404 90.191C236.613 90.055 236.779 89.8754 236.901 89.6522C237.027 89.4289 237.124 89.1865 237.194 88.925V87.6641C237.156 87.4723 237.096 87.2874 237.016 87.1095C236.939 86.9282 236.838 86.7677 236.713 86.6282C236.591 86.4852 236.439 86.3719 236.258 86.2882C236.076 86.2045 235.863 86.1626 235.619 86.1626C235.354 86.1626 235.126 86.2184 234.934 86.33C234.746 86.4381 234.59 86.5881 234.468 86.7799C234.35 86.9683 234.261 87.188 234.201 87.4391C234.146 87.6868 234.118 87.9518 234.118 88.2344Z" fill="#5F5F5F"/>
<defs>
<linearGradient id="paint0_linear_2755_35474" x1="57.0897" y1="33.009" x2="13.7674" y2="61.6392" gradientUnits="userSpaceOnUse">
<stop offset="0.106775" stop-color="#FFA235"/>
<stop offset="1" stop-color="#D06F39"/>
</linearGradient>
<clipPath id="clip0_2755_35474">
<rect width="78.5695" height="58.0731" fill="white" transform="translate(22.3054 33)"/>
</clipPath>
</defs>
</svg>
