<svg width="81" height="81" viewBox="0 0 81 81" fill="none" xmlns="http://www.w3.org/2000/svg">
<path fill-rule="evenodd" clip-rule="evenodd" d="M40.5 81C32.4898 81 24.6595 78.6248 17.9993 74.1746C11.3391 69.7244 6.14823 63.3991 3.08288 55.9987C0.017529 48.5983 -0.784481 40.4551 0.778221 32.5989C2.34092 24.7426 6.1981 17.5262 11.8621 11.8622C17.5262 6.19817 24.7427 2.34092 32.5989 0.778215C40.4551 -0.784487 48.5983 0.0175481 55.9988 3.0829C63.3992 6.14825 69.7244 11.3393 74.1746 17.9994C78.6248 24.6596 81 32.4899 81 40.5C81 51.2413 76.7331 61.5426 69.1379 69.1379C61.5426 76.7331 51.2413 81 40.5 81ZM40.5 6.75002C33.8249 6.75002 27.2996 8.72942 21.7494 12.4379C16.1993 16.1464 11.8736 21.4175 9.31913 27.5845C6.76467 33.7515 6.0962 40.5375 7.39845 47.0843C8.7007 53.6312 11.9152 59.6449 16.6352 64.3649C21.3552 69.0849 27.3687 72.2993 33.9156 73.6016C40.4625 74.9038 47.2486 74.2354 53.4156 71.681C59.5826 69.1265 64.8536 64.8007 68.5621 59.2505C72.2706 53.7004 74.25 47.1752 74.25 40.5C74.25 31.549 70.6941 22.9645 64.3648 16.6352C58.0354 10.3058 49.4511 6.75002 40.5 6.75002ZM40.2299 55.1239C40.1101 55.6243 39.853 56.0813 39.4875 56.4435C39.1727 56.7604 38.7913 57.0032 38.371 57.1544C37.9508 57.3056 37.5019 57.3614 37.0574 57.3177C36.3557 57.3666 35.6584 57.1741 35.0813 56.7719C34.5042 56.3698 34.082 55.7823 33.8849 55.107L24.3674 45.5963C23.8536 45.0173 23.5804 44.264 23.6034 43.4903C23.6263 42.7166 23.9437 41.9808 24.4908 41.4333C25.0379 40.8857 25.7735 40.5677 26.5472 40.5442C27.3209 40.5206 28.0743 40.7934 28.6537 41.3067L36.0112 48.6777L51.0638 21.9915C51.2799 21.596 51.573 21.2479 51.9258 20.9675C52.2787 20.6872 52.6842 20.4803 53.1183 20.3592C53.5525 20.2381 54.0063 20.2052 54.4534 20.2624C54.9004 20.3195 55.3316 20.4657 55.7213 20.6921C56.5049 21.1757 57.0698 21.945 57.2965 22.8375C57.5232 23.7299 57.3941 24.6756 56.9362 25.4745L40.2299 55.1239Z" fill="#0B78EB"/>
</svg>
