<svg width="127" height="127" viewBox="0 0 127 127" fill="none" xmlns="http://www.w3.org/2000/svg">
<path d="M50.2709 93.632V65.118C50.2709 64.3747 51.0532 63.8912 51.7181 64.2236L80.232 78.4806C80.9691 78.8491 80.9691 79.9009 80.232 80.2694L51.7181 94.5264C51.0532 94.8588 50.2709 94.3753 50.2709 93.632Z" stroke="#121212" stroke-width="5"/>
<path d="M66.1458 18.5205H31.1041C29.9996 18.5205 29.1041 19.4159 29.1041 20.5205V106.479C29.1041 107.583 29.9996 108.479 31.1041 108.479H95.8958C97.0004 108.479 97.8958 107.583 97.8958 106.479V50.2705M66.1458 18.5205H71.0232C71.2885 18.5205 71.5428 18.6259 71.7304 18.8134L97.6029 44.6859C97.7904 44.8735 97.8958 45.1278 97.8958 45.3931V50.2705M66.1458 18.5205V48.2705C66.1458 49.3751 67.0412 50.2705 68.1458 50.2705H97.8958" stroke="#121212" stroke-width="5"/>
</svg>
