<svg width="127" height="127" viewBox="0 0 127 127" fill="none" xmlns="http://www.w3.org/2000/svg">
<path d="M22 25.293C22 23.4743 23.4743 22 25.293 22H101.478C103.296 22 104.771 23.4743 104.771 25.293V101.478C104.771 103.296 103.296 104.771 101.478 104.771H25.293C23.4743 104.771 22 103.296 22 101.478V25.293Z" stroke="#121212" stroke-width="4.11624"/>
<path d="M22 70.7812L42.3868 50.395C43.1131 49.6686 44.32 49.7774 44.9047 50.622L62.3698 75.8484C62.917 76.6388 64.0221 76.7942 64.7661 76.1855L86.192 58.6557C86.8467 58.1201 87.8008 58.1677 88.3989 58.7658L104.771 75.1376" stroke="#121212" stroke-width="4.11624"/>
<circle cx="73.5345" cy="43.5345" r="6.53453" fill="#121212"/>
</svg>
