<svg width="24" height="25" viewBox="0 0 24 25" fill="none" xmlns="http://www.w3.org/2000/svg">
<g clip-path="url(#clip0_1331_59581)">
<path fill-rule="evenodd" clip-rule="evenodd" d="M8.80005 11.3C8.80005 11.5204 8.97925 11.7 9.20005 11.7C9.42085 11.7 9.60005 11.5204 9.60005 11.3C9.60005 11.0796 9.42085 10.9 9.20005 10.9C8.97925 10.9 8.80005 11.0796 8.80005 11.3ZM9.60005 18.5C9.60005 18.2796 9.42085 18.1 9.20005 18.1C8.97925 18.1 8.80005 18.2796 8.80005 18.5C8.80005 18.7204 8.97925 18.9 9.20005 18.9C9.42085 18.9 9.60005 18.7204 9.60005 18.5ZM6.40005 11.3C6.40005 11.0796 6.22085 10.9 6.00005 10.9C5.77925 10.9 5.60005 11.0796 5.60005 11.3C5.60005 11.5204 5.77925 11.7 6.00005 11.7C6.22085 11.7 6.40005 11.5204 6.40005 11.3ZM6.40005 16.1C6.40005 15.8796 6.22085 15.7 6.00005 15.7C5.77925 15.7 5.60005 15.8796 5.60005 16.1C5.60005 16.3204 5.77925 16.5 6.00005 16.5C6.22085 16.5 6.40005 16.3204 6.40005 16.1ZM8.80005 7.3C8.80005 7.5204 8.97925 7.7 9.20005 7.7C9.42085 7.7 9.60005 7.5204 9.60005 7.3C9.60005 7.0796 9.42085 6.9 9.20005 6.9C8.97925 6.9 8.80005 7.0796 8.80005 7.3ZM6.40005 7.7V10.1736C6.73925 10.2944 7.00565 10.5612 7.12605 10.9H8.07405C8.23965 10.4352 8.67925 10.1 9.20005 10.1C9.86165 10.1 10.4 10.6384 10.4 11.3C10.4 11.8208 10.0644 12.2604 9.60005 12.4264V17.3736C10.0644 17.5396 10.4 17.9792 10.4 18.5C10.4 19.0208 10.0644 19.4604 9.60005 19.6264V20.9C9.60005 21.1208 9.42125 21.3 9.20005 21.3C8.97885 21.3 8.80005 21.1208 8.80005 20.9V19.626C8.39165 19.4808 8.08725 19.1232 8.01885 18.684L6.51725 17.1828C6.51605 17.182 6.51605 17.1804 6.51485 17.1792C6.35845 17.2544 6.18525 17.3 6.00005 17.3C5.33845 17.3 4.80005 16.7616 4.80005 16.1C4.80005 15.4384 5.33845 14.9 6.00005 14.9C6.66165 14.9 7.20005 15.4384 7.20005 16.1C7.20005 16.2848 7.15445 16.4584 7.07925 16.6148C7.08045 16.616 7.08165 16.6164 7.08285 16.6172L8.24565 17.7804C8.38605 17.5948 8.57725 17.4532 8.80005 17.3736V12.426C8.46085 12.3056 8.19445 12.0388 8.07405 11.7H7.12605C6.96045 12.1648 6.52085 12.5 6.00005 12.5C5.33845 12.5 4.80005 11.9616 4.80005 11.3C4.80005 10.7792 5.13565 10.3396 5.60005 10.1736V7.3C5.60005 7.0792 5.77885 6.9 6.00005 6.9H8.07405C8.19445 6.5612 8.46085 6.2944 8.80005 6.1736V4.9C8.80005 4.6792 8.97885 4.5 9.20005 4.5C9.42125 4.5 9.60005 4.6792 9.60005 4.9V6.1736C10.0644 6.3396 10.4 6.7792 10.4 7.3C10.4 7.9616 9.86165 8.5 9.20005 8.5C8.67925 8.5 8.23965 8.1648 8.07405 7.7H6.40005ZM22.2532 15.398C22.8488 14.8744 23.2 14.1168 23.2 13.3C23.2 12.444 22.8196 11.6576 22.166 11.1296C22.32 10.8084 22.4 10.4584 22.4 10.1C22.4 9.2744 21.9668 8.514 21.2832 8.08C21.4896 7.7204 21.6 7.3148 21.6 6.9C21.6 5.868 20.9444 4.9708 19.9956 4.6396C19.9984 4.5928 20 4.5464 20 4.5C20 3.1764 18.9236 2.1 17.6 2.1C17.2772 2.1 16.9628 2.1656 16.6692 2.292C16.3252 1.2504 15.336 0.5 14.2 0.5C12.5168 0.5 11.7684 2.0184 11.608 2.8216C11.6052 2.8348 11.6088 2.8476 11.608 2.8612C11.6068 2.8748 11.6 2.886 11.6 2.9V21.676C11.5096 22.8116 10.5452 23.7 9.40005 23.7C8.25885 23.7 7.29725 22.8084 7.21045 21.6696C7.19445 21.4612 7.00885 21.3 6.80005 21.3C6.67525 21.3 6.55765 21.3584 6.48165 21.4576C6.17125 21.866 5.70405 22.1 5.20005 22.1C4.31765 22.1 3.60005 21.3824 3.60005 20.5C3.60005 20.1368 3.72645 19.7896 3.96645 19.4956C4.07445 19.3632 4.08645 19.1764 3.99565 19.0312C3.90525 18.886 3.73405 18.814 3.56525 18.8536C3.43125 18.8848 3.31165 18.9 3.20005 18.9C2.31765 18.9 1.60005 18.1824 1.60005 17.3C1.60005 16.6404 2.01885 16.0404 2.64165 15.8068C2.79005 15.7512 2.89165 15.6136 2.90085 15.456C2.91005 15.298 2.82525 15.1492 2.68525 15.0768C2.01565 14.7316 1.60005 14.0504 1.60005 13.3C1.60005 12.5944 1.96285 11.9544 2.57085 11.588C2.66565 11.5308 2.73245 11.4368 2.75565 11.3284C2.77845 11.2196 2.75525 11.1068 2.69165 11.016C2.50085 10.7436 2.40005 10.4272 2.40005 10.1C2.40005 9.4356 2.82325 8.8344 3.45245 8.6036C3.57685 8.558 3.67085 8.4536 3.70325 8.3252C3.73525 8.1964 3.70125 8.06 3.61285 7.9612C3.34645 7.664 3.20005 7.2872 3.20005 6.9C3.20005 6.1248 3.75565 5.4644 4.52045 5.3292C4.62765 5.31 4.72325 5.248 4.78365 5.1572C4.84405 5.0664 4.86485 4.9548 4.84165 4.8484C4.81365 4.7236 4.80005 4.6096 4.80005 4.5C4.80005 3.6176 5.51765 2.9 6.40005 2.9C6.74645 2.9 7.08045 3.0156 7.36645 3.2344C7.48285 3.3232 7.63845 3.3416 7.77165 3.2824C7.90565 3.2228 7.99605 3.0952 8.00845 2.9496C8.08445 2.0248 8.87165 1.3 9.80005 1.3C10.2456 1.3 10.614 1.4432 10.926 1.7376C11.0872 1.8892 11.3404 1.8816 11.4916 1.7208C11.6432 1.56 11.636 1.3072 11.4752 1.1556C11.014 0.7204 10.4504 0.5 9.80005 0.5C8.66405 0.5 7.67485 1.2504 7.33085 2.292C7.03725 2.1656 6.72285 2.1 6.40005 2.1C5.07645 2.1 4.00005 3.1764 4.00005 4.5C4.00005 4.5464 4.00165 4.5928 4.00445 4.6396C3.05565 4.9708 2.40005 5.868 2.40005 6.9C2.40005 7.3148 2.51045 7.7204 2.71685 8.08C2.03325 8.514 1.60005 9.2744 1.60005 10.1C1.60005 10.4584 1.68005 10.8084 1.83405 11.1296C1.18045 11.6576 0.800049 12.444 0.800049 13.3C0.800049 14.1168 1.15125 14.8744 1.74685 15.398C1.16245 15.8448 0.800049 16.5464 0.800049 17.3C0.800049 18.5372 1.74125 19.5588 2.94525 19.6864C2.84925 19.9456 2.80005 20.2192 2.80005 20.5C2.80005 21.8236 3.87645 22.9 5.20005 22.9C5.69685 22.9 6.16965 22.7492 6.56645 22.4728C6.97445 23.6544 8.10205 24.5 9.40005 24.5C10.9632 24.5 12.2804 23.2832 12.3988 21.7304C12.3992 21.7252 12.3968 21.7204 12.3968 21.7152C12.3972 21.7096 12.4 21.7056 12.4 21.7V2.944C12.4592 2.6984 12.854 1.3 14.2 1.3C15.1284 1.3 15.9156 2.0248 15.9916 2.9496C16.004 3.0952 16.0944 3.2228 16.2284 3.2824C16.3616 3.3416 16.5172 3.3232 16.6336 3.2344C16.9196 3.0156 17.2536 2.9 17.6 2.9C18.4824 2.9 19.2 3.6176 19.2 4.5C19.2 4.6096 19.1864 4.7236 19.1584 4.8484C19.1352 4.9548 19.156 5.0664 19.2164 5.1572C19.2768 5.248 19.3724 5.31 19.4797 5.3292C20.2444 5.4644 20.8 6.1248 20.8 6.9C20.8 7.2872 20.6536 7.664 20.3872 7.9612C20.2988 8.06 20.2648 8.1964 20.2969 8.3252C20.3292 8.4536 20.4232 8.558 20.5476 8.6036C21.1768 8.8344 21.6 9.4356 21.6 10.1C21.6 10.4272 21.4992 10.7436 21.3084 11.016C21.2448 11.1068 21.2216 11.2196 21.2444 11.3284C21.2676 11.4368 21.3344 11.5308 21.4293 11.588C22.0373 11.9544 22.4 12.5944 22.4 13.3C22.4 14.0504 21.9844 14.7316 21.3148 15.0768C21.1748 15.1492 21.09 15.298 21.0992 15.456C21.1084 15.6136 21.21 15.7512 21.3584 15.8068C21.9812 16.0404 22.4 16.6404 22.4 17.3C22.4 18.1824 21.6824 18.9 20.8 18.9C20.6884 18.9 20.5688 18.8848 20.4349 18.8536C20.2668 18.814 20.0952 18.886 20.0044 19.0312C19.9137 19.1764 19.9256 19.3632 20.0336 19.4956C20.2736 19.7896 20.4 20.1368 20.4 20.5C20.4 21.3824 19.6824 22.1 18.8 22.1C18.2944 22.1 17.828 21.8632 17.5208 21.45C17.4176 21.312 17.238 21.2556 17.0744 21.3092C17.0152 21.3288 16.9632 21.3612 16.9212 21.4024C16.8468 21.4688 16.7976 21.5632 16.7896 21.6696C16.7028 22.8084 15.7412 23.7 14.6 23.7C14.0972 23.7 13.6228 23.5348 13.228 23.2224C13.054 23.0852 12.8032 23.1148 12.666 23.2876C12.5288 23.4608 12.5584 23.7124 12.7312 23.8496C13.2612 24.2688 13.9252 24.5 14.6 24.5C15.8988 24.5 17.0272 23.6528 17.4344 22.47C17.83 22.7484 18.302 22.9 18.8 22.9C20.1236 22.9 21.2 21.8236 21.2 20.5C21.2 20.2192 21.1509 19.9456 21.0548 19.6864C22.2589 19.5588 23.2 18.5372 23.2 17.3C23.2 16.5464 22.8376 15.8448 22.2532 15.398ZM15.2 18.5C15.2 18.7208 15.3788 18.9 15.6 18.9C16.1832 18.9 16.8 19.5168 16.8 20.1C16.8 20.3208 16.9788 20.5 17.2 20.5C17.4212 20.5 17.6 20.3208 17.6 20.1C17.6 19.072 16.628 18.1 15.6 18.1C15.3788 18.1 15.2 18.2792 15.2 18.5ZM18.8 7.7C18.2168 7.7 17.6 7.0832 17.6 6.5C17.6 6.2792 17.4212 6.1 17.2 6.1C16.9788 6.1 16.8 6.2792 16.8 6.5C16.8 7.528 17.772 8.5 18.8 8.5C19.0212 8.5 19.2 8.3208 19.2 8.1C19.2 7.8792 19.0212 7.7 18.8 7.7ZM14 16.5C14.2212 16.5 14.4 16.3208 14.4 16.1C14.4 15.5168 15.0168 14.9 15.6 14.9C15.8212 14.9 16 14.7208 16 14.5C16 14.2792 15.8212 14.1 15.6 14.1C14.572 14.1 13.6 15.072 13.6 16.1C13.6 16.3208 13.7788 16.5 14 16.5ZM15.6 11.7C15.8212 11.7 16 11.5208 16 11.3C16 11.0792 15.8212 10.9 15.6 10.9C15.0168 10.9 14.4 10.2832 14.4 9.7C14.4 9.4792 14.2212 9.3 14 9.3C13.7788 9.3 13.6 9.4792 13.6 9.7C13.6 10.728 14.572 11.7 15.6 11.7ZM19.6 10.1C19.3788 10.1 19.2 10.2792 19.2 10.5C19.2 11.0832 18.5832 11.7 18 11.7C17.7788 11.7 17.6 11.8792 17.6 12.1C17.6 12.3208 17.7788 12.5 18 12.5C19.028 12.5 20 11.528 20 10.5C20 10.2792 19.8212 10.1 19.6 10.1ZM18 14.9C17.7788 14.9 17.6 15.0792 17.6 15.3C17.6 15.5208 17.7788 15.7 18 15.7C18.5832 15.7 19.2 16.3168 19.2 16.9C19.2 17.1208 19.3788 17.3 19.6 17.3C19.8212 17.3 20 17.1208 20 16.9C20 15.872 19.028 14.9 18 14.9ZM13.6 6.1C13.6 5.072 14.572 4.1 15.6 4.1C15.8212 4.1 16 4.2792 16 4.5C16 4.7208 15.8212 4.9 15.6 4.9C15.0168 4.9 14.4 5.5168 14.4 6.1C14.4 6.3208 14.2212 6.5 14 6.5C13.7788 6.5 13.6 6.3208 13.6 6.1Z" fill="#F8F9FA"/>
</g>
<defs>
<clipPath id="clip0_1331_59581">
<rect width="24" height="24" fill="white" transform="translate(0 0.5)"/>
</clipPath>
</defs>
</svg>
