<svg width="52" height="69" viewBox="0 0 52 69" fill="none" xmlns="http://www.w3.org/2000/svg">
<path d="M51.4686 12.2545H41.665V22.0581H51.4686V12.2545Z" fill="#FF6767"/>
<path d="M51.4686 26.9598H41.665V36.7634H51.4686V26.9598Z" fill="#FF6767"/>
<path d="M36.7635 12.2545H26.96V22.0581H36.7635V12.2545Z" fill="#FF6767"/>
<path d="M36.7635 26.9598H26.96V36.7634H36.7635V26.9598Z" fill="#FF6767"/>
<path d="M20.8326 58.8214C22.863 58.8214 24.5089 57.1755 24.5089 55.1451C24.5089 53.1147 22.863 51.4688 20.8326 51.4688C18.8022 51.4688 17.1562 53.1147 17.1562 55.1451C17.1562 57.1755 18.8022 58.8214 20.8326 58.8214Z" fill="#FF6767"/>
<path d="M36.7634 68.625H4.90179C3.60221 68.6235 2.35629 68.1066 1.43735 67.1877C0.518408 66.2687 0.00149194 65.0228 0 63.7232V4.90179C0.00149194 3.60221 0.518408 2.35629 1.43735 1.43735C2.35629 0.518408 3.60221 0.00149194 4.90179 0H36.7634V4.90179H4.90179V63.7232H36.7634V44.1161H41.6652V63.7232C41.6637 65.0228 41.1468 66.2687 40.2278 67.1877C39.3089 68.1066 38.063 68.6235 36.7634 68.625Z" fill="#FF6767"/>
</svg>
