<svg width="108" height="108" viewBox="0 0 108 108" fill="none" xmlns="http://www.w3.org/2000/svg">
<path fill-rule="evenodd" clip-rule="evenodd" d="M20.205 33.8785C21.9385 33.4858 23.7105 33.2881 25.488 33.289C39.564 33.289 50.9715 45.511 50.9715 60.5815C50.9715 75.6565 39.564 87.8785 25.488 87.8785C11.412 87.8785 0 75.661 0 60.5815C0 60.1405 0.009 59.695 0.0315 59.254H0C0 36.5065 17.28 17.998 38.52 17.998V27.16C31.6305 27.16 25.2765 29.671 20.205 33.8785ZM77.238 33.8785C78.939 33.4915 80.703 33.289 82.512 33.289C96.588 33.289 108 45.511 108 60.5815C108 75.6565 96.588 87.8785 82.512 87.8785C68.436 87.8785 57.0285 75.661 57.0285 60.5815C57.0285 60.1405 57.0375 59.695 57.06 59.254H57.0285C57.0285 36.5065 74.3085 17.998 95.5485 17.998V27.16C88.6545 27.16 82.3095 29.671 77.238 33.8785Z" fill="#27AAE1" fill-opacity="0.1"/>
</svg>
