<svg width="55" height="87" viewBox="0 0 55 87" fill="none" xmlns="http://www.w3.org/2000/svg">
<path d="M15.1397 60.4528C15.1397 50.8145 9.18211 42.7513 5.98078 36.7766C4.19285 33.4445 3.25771 29.7215 3.25879 25.94C3.25879 13.2717 14.8315 3 27.4999 3" stroke="#0B78EB" stroke-width="5.13583"/>
<path d="M39.8602 60.4528C39.8602 50.8145 45.8178 42.7513 49.0191 36.7766C50.807 33.4445 51.7422 29.7215 51.7411 25.94C51.7411 13.2717 40.1684 3 27.5 3" stroke="#0B78EB" stroke-width="5.13583"/>
<path d="M41.6577 59.9221H14.2666C12.0825 59.9221 10.312 61.6926 10.312 63.8766C10.312 66.0607 12.0825 67.8312 14.2666 67.8312H41.6577C43.8417 67.8312 45.6123 66.0607 45.6123 63.8766C45.6123 61.6926 43.8417 59.9221 41.6577 59.9221Z" stroke="#0B78EB" stroke-width="5.13583"/>
<path d="M39.4837 67.8312H16.4238C14.2398 67.8312 12.4692 69.6017 12.4692 71.7858C12.4692 73.9698 14.2398 75.7403 16.4238 75.7403H39.4837C41.6677 75.7403 43.4383 73.9698 43.4383 71.7858C43.4383 69.6017 41.6677 67.8312 39.4837 67.8312Z" stroke="#0B78EB" stroke-width="5.13583"/>
<path d="M33.9714 75.7404V77.3325C34.0614 78.1732 33.9735 79.0234 33.7134 79.8278C33.4533 80.6323 33.0269 81.373 32.4618 82.0019C31.8966 82.6307 31.2055 83.1336 30.4333 83.4779C29.6611 83.8221 28.8251 84 27.9796 84C27.1342 84 26.2982 83.8221 25.526 83.4779C24.7538 83.1336 24.0627 82.6307 23.4975 82.0019C22.9324 81.373 22.506 80.6323 22.2459 79.8278C21.9858 79.0234 21.8979 78.1732 21.9879 77.3325V75.7404" stroke="#0B78EB" stroke-width="5.13583"/>
<path d="M11.8701 24.8444C12.0649 21.1364 13.7226 17.6571 16.4795 15.1698C19.2364 12.6825 22.8673 11.3904 26.5757 11.5768" stroke="#0B78EB" stroke-width="5.13583"/>
</svg>
