<svg width="81" height="57" viewBox="0 0 81 57" fill="none" xmlns="http://www.w3.org/2000/svg">
<path d="M47.466 29.9025C45.0191 29.9025 43.0346 31.7419 43.0346 34.0099V52.0763C43.0346 54.3443 45.0225 56.1836 47.4694 56.1836C49.9196 56.1836 51.9041 54.3443 51.9041 52.0729V34.0099C51.9041 31.7419 49.9163 29.9025 47.466 29.9025ZM61.4115 13.4055C58.9612 13.4055 56.9767 15.2449 56.9767 17.5163V51.9514C56.9767 54.2194 58.968 56.0588 61.4115 56.0588C63.8617 56.0588 65.8463 54.2194 65.8463 51.9514V17.5163C65.8463 15.2449 63.8617 13.4055 61.4115 13.4055ZM33.5272 23.6486C31.0804 23.6486 29.0959 25.488 29.0959 27.7594V52.0763C29.0959 54.3443 31.0837 56.1836 33.534 56.1836C35.9809 56.1836 37.9654 54.3443 37.9654 52.0729V27.756C37.9654 25.488 35.9775 23.6486 33.5272 23.6486ZM19.5885 38.4919C17.1383 38.4919 15.1504 40.3346 15.1504 42.6026L15.1537 52.0763C15.1537 54.3443 17.1383 56.1836 19.5885 56.1836C22.0387 56.1836 24.0233 54.3443 24.0199 52.0729V42.6026C24.0199 40.3312 22.0387 38.4919 19.5885 38.4919ZM81 8.85263V39.7778C81 44.6614 76.7138 48.6338 71.4454 48.6338H69.8119V45.6064H71.4454C74.9115 45.6064 77.733 42.9908 77.733 39.7778V8.85263C77.733 5.63963 74.9115 3.02738 71.4454 3.02738H9.55463C6.0885 3.02738 3.267 5.63963 3.267 8.85263V39.7778C3.267 42.9908 6.0885 45.6064 9.55463 45.6064H11.1881V48.6338H9.55125C4.28625 48.6304 0 44.658 0 39.7744V8.85263C0 3.97238 4.28625 2.149e-06 9.55125 2.149e-06H71.4488C76.7138 -0.00337285 81 3.969 81 8.85263Z" fill="#FBE735"/>
</svg>
