<svg width="1728" height="483" viewBox="0 0 1728 483" fill="none" xmlns="http://www.w3.org/2000/svg">
<g opacity="0.8">
<path d="M-15.5295 154.105C101.137 146.602 183.475 122.739 237.434 102.079C292 81.187 331.298 58.2684 403.108 45.9465C482.311 32.2556 534.061 38.3892 554.53 41.8393C582.908 46.6311 581.145 49.8895 627.569 61.0066C716.748 82.3644 733.689 72.8629 773.647 87.0193C839.899 110.486 820.142 146.096 889.44 185.594C939.623 214.208 1022.71 236.976 1097.87 221.19C1168.64 206.322 1176.61 168.987 1251.07 163.688C1281.66 161.512 1307.1 166.345 1357.96 176.01C1423.14 188.332 1466.91 203.529 1484.44 208.869C1536.37 224.709 1620.19 234.676 1757 203.392" stroke="#B6D9FF" stroke-width="0.90655" stroke-miterlimit="10"/>
<path d="M-16.3143 166.18C96.5397 159.705 180.909 138.1 239.767 116.688C287.581 99.0538 324.047 79.7222 374.301 65.908C385.293 62.896 396.872 59.9799 409.342 57.4607C487.921 41.6067 539.476 44.2216 560.996 45.8235C589.855 47.9592 589.855 50.3962 635.353 61.1984C667.419 68.7968 690.257 73.1368 707.947 75.9846C738.017 80.8175 753.07 81.146 776.799 90.4422C785.653 93.8823 793.962 98.095 801.561 102.997C836.709 125.655 835.212 154.379 893.519 184.827C944.272 211.333 1026.81 231.377 1100.68 215.7C1106.54 214.456 1112.3 212.984 1117.96 211.292C1175.07 194.192 1187.9 164.113 1253.35 159.39C1260.25 158.884 1267.18 158.733 1274.1 158.938C1297.37 159.568 1321.42 164.031 1359.51 171.26C1422.61 183.308 1465.7 198.217 1485.03 204.118C1499.18 208.4 1513.78 211.761 1528.67 214.167C1580.19 222.601 1653.02 223.477 1755.47 201.955" stroke="#B6D9FF" stroke-width="0.90655" stroke-miterlimit="10"/>
<path d="M-17.0982 179.324C91.9258 173.847 178.415 154.68 242.101 132.254C292.676 114.456 330.834 94.125 380.162 79.6126C391.421 76.2857 403.089 72.9177 415.613 70.0289C493.569 51.998 544.856 49.8211 567.516 50.8617C596.714 52.2308 598.655 51.9706 643.156 62.4442C674.313 69.7962 697.062 74.766 714.413 78.2572C743.647 84.1032 757.702 85.2806 779.899 94.9327C788.357 98.6499 796.306 103.012 803.628 107.953C837.582 130.461 839.256 157.459 897.634 185.17C948.957 209.553 1030.94 226.872 1103.53 211.306C1109.68 209.936 1115.36 208.567 1120.69 206.924C1179.6 189.51 1192.64 160.827 1255.69 156.268C1262.53 155.75 1269.41 155.581 1276.28 155.762C1299.94 156.295 1323.95 160.635 1361.11 167.796C1422.14 179.515 1464.52 194.178 1485.67 200.503C1499.71 204.746 1514.18 208.116 1528.92 210.58C1579.98 219.205 1652.46 221.026 1753.9 201.64" stroke="#B6D9FF" stroke-width="0.90655" stroke-miterlimit="10"/>
<path d="M-17.8628 193.357C87.331 188.934 175.886 172.026 244.454 148.779C297.719 130.707 337.623 109.445 385.989 94.2207C397.533 90.5789 409.308 86.7728 421.849 83.5007C499.181 63.3202 550.113 59.0897 574.002 56.7897C603.556 53.9557 607.421 54.4348 650.942 64.5798C681.226 71.658 703.886 77.2713 720.988 81.406C749.366 88.2514 762.46 90.3051 783.125 100.299C791.122 104.3 798.666 108.811 805.678 113.785C838.438 136.129 843.391 161.388 901.697 186.347C953.661 208.608 1035.02 223.217 1106.33 207.746C1112.42 206.377 1118.07 205.008 1123.36 203.406C1184.04 185.608 1197.34 158.376 1257.95 153.845C1264.74 153.314 1271.57 153.127 1278.4 153.283C1302.45 153.708 1326.5 157.952 1362.68 164.975C1421.61 176.352 1463.31 190.755 1486.26 197.615C1500.22 201.793 1514.56 205.166 1529.17 207.705C1579.77 216.522 1651.91 219.301 1752.32 202.037" stroke="#B6D9FF" stroke-width="0.90655" stroke-miterlimit="10"/>
<path d="M-18.6476 207.417C82.7339 204.022 173.32 189.4 246.786 165.318C302.759 146.958 344.391 124.752 391.831 108.843C403.642 104.886 415.506 100.628 428.101 96.9863C504.81 74.6975 555.278 67.1127 580.503 62.759C610.306 57.6112 616.132 56.9404 658.744 66.7568C688.226 73.6022 710.69 79.8179 727.507 84.555C755.03 92.3862 767.144 95.3434 786.294 105.666C793.817 109.94 800.959 114.597 807.672 119.604C839.257 141.756 847.487 165.29 905.74 187.579C958.346 207.705 1039.06 219.616 1109.11 204.255C1115.13 202.886 1120.74 201.517 1126.01 199.942C1188.47 181.774 1202.01 156.131 1260.19 151.545C1266.94 151.021 1273.72 150.816 1280.5 150.929C1304.91 151.257 1328.88 155.392 1364.23 162.278C1421.09 173.341 1462.1 187.497 1486.84 194.849C1500.7 198.987 1514.92 202.368 1529.4 204.967C1579.55 213.989 1651.36 217.699 1750.75 202.584" stroke="#B6D9FF" stroke-width="0.90655" stroke-miterlimit="10"/>
<path d="M-19.3961 216.481C78.1731 214.112 170.808 201.79 249.155 176.873C307.818 158.212 351.196 135.02 397.709 118.481C409.77 114.196 421.759 109.541 434.389 105.488C510.439 81.091 560.497 70.2204 586.987 63.7172C617.058 56.3515 624.949 54.4211 666.528 63.9226C689.49 69.1887 712.028 75.4883 734.027 82.7887C760.748 91.592 771.847 95.4802 789.429 106.063C797.107 110.704 803.2 115.647 809.791 120.452C840.2 142.358 851.726 164.263 909.872 183.814C963.173 201.79 1043.21 211.018 1111.98 195.766C1117.94 194.397 1123.52 193.028 1128.76 191.481C1193.01 172.985 1206.78 148.697 1262.54 144.247C1269.24 143.722 1275.96 143.503 1282.69 143.59C1307.49 143.85 1331.43 147.834 1365.81 154.543C1420.59 165.249 1460.92 179.186 1487.45 187.031C1501.22 191.125 1515.33 194.51 1529.69 197.163C1579.37 206.39 1650.83 211.059 1749.2 198.066" stroke="#B6D9FF" stroke-width="0.90655" stroke-miterlimit="10"/>
<path d="M-20.2153 222.942C73.5239 221.573 168.207 211.538 251.454 185.813C312.806 166.851 357.895 142.645 403.517 125.573C415.845 120.945 427.923 115.879 440.607 111.444C516.086 84.9791 565.753 70.8363 593.49 62.1563C623.774 52.6411 633.714 49.3827 674.331 58.5556C697.09 63.6962 719.236 70.3192 740.529 78.3527C766.378 88.1006 776.532 92.9472 792.583 103.9C799.709 108.733 805.32 113.881 811.858 118.741C841.109 140.509 855.949 160.526 913.952 177.489C967.983 193.288 1047.33 199.86 1114.81 184.704C1120.71 183.335 1126.23 181.966 1131.47 180.446C1197.52 161.662 1211.58 138.771 1264.84 134.485C1271.49 133.947 1278.17 133.709 1284.85 133.774C1310 133.938 1333.94 137.799 1367.38 144.425C1420.08 154.816 1459.71 168.494 1488.06 176.859C1501.73 180.901 1515.72 184.289 1529.94 187.004C1579.18 196.437 1650.29 202.064 1747.65 191.18" stroke="#B6D9FF" stroke-width="0.90655" stroke-miterlimit="10"/>
<path d="M-20.9809 229.501C68.9282 229.186 165.625 221.382 253.806 194.849C317.83 175.572 364.611 150.326 409.343 132.638C421.938 127.641 434.14 122.164 446.86 117.372C521.734 88.8679 571.044 71.5078 599.974 60.5551C630.668 48.9452 642.479 44.3176 682.116 53.162C704.71 58.2487 726.49 65.2658 747.05 74.0817C771.99 84.7469 781.218 90.6066 795.754 101.833C802.274 106.871 807.44 112.184 813.907 117.14C842.018 138.675 860.224 156.912 918.05 171.26C972.829 184.855 1051.43 188.784 1117.57 173.752C1123.41 172.383 1128.9 171.013 1134.1 169.507C1201.96 150.34 1216.17 128.886 1267.09 124.629C1273.68 124.089 1280.3 123.834 1286.93 123.862C1312.48 123.862 1336.38 127.668 1368.88 134.185C1419.51 144.22 1458.43 157.678 1488.59 166.523C1502.17 170.531 1516.04 173.932 1530.13 176.709C1578.91 186.292 1649.69 192.878 1746.01 184.157" stroke="#B6D9FF" stroke-width="0.90655" stroke-miterlimit="10"/>
<path d="M-21.7648 236.086C64.3321 236.798 163.059 231.253 256.139 203.913C322.854 184.321 371.327 158.021 415.186 139.798C428.012 134.472 440.358 128.626 453.095 123.369C527.381 92.8244 576.37 72.247 606.476 59.0215C637.545 45.3306 651.244 39.3066 689.919 47.8224C712.341 52.8503 733.758 60.221 753.57 69.7278C777.744 81.324 785.885 88.1969 798.907 99.6973C804.839 104.955 809.596 110.404 815.973 115.456C842.944 136.772 864.482 153.188 922.129 164.962C977.692 176.312 1055.52 177.653 1120.44 162.717C1126.23 161.347 1131.68 159.978 1136.85 158.513C1206.52 139.059 1220.93 118.974 1269.44 114.798C1275.98 114.258 1282.56 113.984 1289.14 113.977C1315.06 113.854 1339.02 117.578 1370.53 123.958C1419.06 133.664 1457.31 146.89 1489.27 156.227C1502.75 160.207 1516.5 163.63 1530.45 166.482C1578.78 176.312 1649.22 183.801 1744.53 177.215" stroke="#B6D9FF" stroke-width="0.90655" stroke-miterlimit="10"/>
<path d="M-22.5486 242.644C59.736 244.342 160.53 241.042 258.509 212.907C327.985 192.987 378.043 165.619 421.065 146.89C434.141 141.194 446.611 134.978 459.383 129.338C533.064 96.7945 581.75 73.0134 613.015 57.4468C644.528 41.7433 660.062 34.2681 697.758 42.4553C720.023 47.4658 741.082 55.2248 760.108 65.4286C783.445 77.9147 790.57 85.8555 802.078 97.616C807.423 103.092 811.716 108.665 818.111 113.826C843.978 134.91 868.882 149.422 926.316 158.705C982.663 167.782 1059.71 166.563 1123.36 151.736C1129.08 150.367 1134.49 148.998 1139.64 147.629C1211.11 127.873 1225.74 109.157 1271.81 105.091C1278.31 104.522 1284.86 104.23 1291.4 104.215C1317.7 104.078 1341.57 107.597 1372.23 113.799C1418.67 123.177 1456.22 136.17 1490 146C1502.2 149.559 1515.72 153.078 1530.85 156.227C1578.71 166.249 1648.81 174.696 1743.09 170.233" stroke="#B6D9FF" stroke-width="0.90655" stroke-miterlimit="10"/>
<path d="M-23.3344 249.01C55.0488 251.748 157.891 250.708 260.805 221.792C332.882 201.544 384.668 173.08 426.87 153.858C440.178 147.793 452.79 141.221 465.599 135.17C538.744 100.628 587.164 73.6567 619.461 55.7626C651.42 37.9644 668.771 29.1201 705.505 36.9787C727.64 41.9764 748.364 50.1118 766.608 60.9652C789.143 74.3549 795.111 83.3772 805.212 95.3705C809.968 101.066 813.834 106.775 820.087 112.032C844.849 132.856 873.102 145.548 930.304 152.284C987.506 159.02 1063.72 155.296 1126.08 140.578C1131.75 139.209 1137.13 137.84 1142.24 136.471C1215.53 116.413 1230.37 99.067 1274.07 95.0967C1280.51 94.5184 1286.98 94.2122 1293.47 94.1794C1320.19 93.9192 1343.99 97.342 1373.63 103.462C1418.01 112.498 1454.85 125.271 1490.44 135.581C1502.59 139.113 1516 142.618 1530.95 145.835C1578.36 156.049 1648.12 165.441 1741.37 163.127" stroke="#B6D9FF" stroke-width="0.90655" stroke-miterlimit="10"/>
<path d="M-24.098 255.294C50.5263 259.087 155.31 260.251 263.159 230.569C337.979 210.032 391.315 180.405 432.698 160.745C446.255 154.297 459.01 147.383 471.89 140.92C544.465 104.366 592.635 74.2457 625.948 53.942C658.424 34.1997 677.61 23.822 713.239 31.3657C736.896 36.3766 758.38 46.7406 773.077 56.3653C794.828 70.6313 799.799 80.7626 808.332 92.9886C812.465 98.903 815.921 104.749 822.084 110.116C845.76 130.652 877.309 141.454 934.315 145.712C992.265 150.08 1067.74 143.891 1128.83 129.283C1134.42 127.914 1139.77 126.545 1144.86 125.176C1219.95 104.804 1234.99 88.8265 1276.23 84.9657C1282.62 84.3788 1289.05 84.0543 1295.48 83.9936C1322.54 83.5966 1346.34 86.9372 1375.15 92.9338C1417.44 101.641 1453.53 114.182 1490.94 124.984C1503.04 128.475 1516.35 131.994 1531.1 135.252C1578.05 145.671 1647.48 156.008 1739.7 155.789" stroke="#B6D9FF" stroke-width="0.90655" stroke-miterlimit="10"/>
<path d="M-24.8829 261.497C45.9292 266.33 152.655 269.547 265.491 239.249C342.859 218.22 397.941 187.634 438.54 167.495C452.311 160.649 465.262 153.407 478.106 146.534C550.183 108.049 598.121 74.6703 632.449 52.0666C665.459 30.3254 686.284 18.4965 721.094 25.6979C743.914 30.4623 765.291 41.374 779.649 51.7106C800.617 66.8528 804.394 78.0794 811.537 90.5518C815.1 96.6853 818.111 102.641 824.203 108.117C846.792 128.435 881.69 137.252 938.482 139.155C997.27 141.112 1071.93 132.501 1131.73 117.988C1137.28 116.628 1142.58 115.259 1147.64 113.881C1224.56 93.2352 1239.79 78.5996 1278.61 74.8483C1284.95 74.2456 1291.32 73.9029 1297.71 73.8215C1325.14 73.3149 1348.94 76.5597 1376.82 82.4194C1417.01 90.7845 1452.44 103.161 1491.69 114.401C1503.73 117.879 1516.91 121.37 1531.5 124.683C1578 135.307 1647.08 146.589 1738.29 148.533" stroke="#B6D9FF" stroke-width="0.90655" stroke-miterlimit="10"/>
<path d="M-25.6667 267.603C41.3153 273.449 150.09 278.925 267.825 247.833C347.883 226.489 404.586 194.726 444.383 174.19C458.367 166.975 471.461 159.376 484.359 152.093C555.919 111.65 603.715 75.0676 638.934 50.0816C672.514 26.3279 695.049 12.9929 728.807 19.8794C750.808 24.3838 772.096 35.8568 786.081 46.9327C806.3 62.9511 808.883 75.3003 814.584 88.0055C817.469 94.3718 820.159 100.451 826.145 106.023C847.79 126.066 886.019 134.281 942.58 132.433C1002.04 130.488 1076.05 120.946 1134.58 106.543C1140.07 105.183 1145.33 103.814 1150.37 102.436C1229.14 81.5981 1244.53 68.2084 1280.93 64.5666C1287.22 63.9591 1293.54 63.6026 1299.88 63.4987C1327.69 62.8963 1351.54 66.0179 1378.41 71.7133C1416.44 79.8183 1451.25 92.0443 1492.3 103.695C1504.28 107.145 1517.36 110.637 1531.75 114.005C1577.8 124.834 1646.55 137.06 1736.73 141.14" stroke="#B6D9FF" stroke-width="0.90655" stroke-miterlimit="10"/>
<path d="M-26.5231 273.64C36.6466 280.486 147.452 288.249 270.086 256.349C352.834 234.69 411.051 201.763 450.136 180.761C464.387 173.149 477.623 165.236 490.521 157.487C561.6 115.045 609.129 75.341 645.363 47.9592C679.585 22.2203 703.866 7.46145 736.68 14.0057C757.843 18.2499 779.042 30.2705 792.67 42.0858C812.142 58.953 813.478 72.4249 817.842 85.3491C820.087 91.9481 822.42 98.1364 828.317 103.832C848.803 123.602 890.204 128.475 946.658 125.628C1006.91 122.629 1080.12 109.308 1137.38 95.0149C1142.72 93.6458 1148.07 92.2767 1153.04 90.9076C1233.61 69.7551 1249.23 57.7208 1283.21 54.2023C1289.44 53.5781 1295.72 53.2034 1302 53.0796C1330.18 52.3677 1353.95 55.3934 1379.96 60.9793C1416 68.6872 1450.04 80.612 1492.88 92.8243C1504.84 96.2471 1517.82 99.6698 1532.07 103.161C1577.66 114.114 1646.09 127.353 1735.16 133.569" stroke="#B6D9FF" stroke-width="0.90655" stroke-miterlimit="10"/>
<path d="M-27.2162 279.609C32.1235 287.509 144.942 297.503 272.511 264.81C358.019 242.836 417.698 208.677 455.998 187.305C470.392 179.282 483.896 171.068 496.793 162.935C567.499 118.686 614.724 75.5873 651.778 45.8506C686.552 18.0443 712.436 1.86165 744.413 8.10471C764.739 12.0888 785.885 24.657 799.139 37.1979C817.88 54.9961 817.933 69.5085 820.961 82.6792C822.511 89.5246 824.524 95.8088 830.314 101.614C849.767 121.11 894.446 123.903 950.686 118.796C1011.66 113.319 1084.19 97.6433 1140.14 83.4459C1145.49 82.0768 1150.71 80.7077 1155.68 79.4481C1238.07 57.9807 1253.87 47.2607 1285.44 43.8517C1291.67 43.2365 1297.93 42.8709 1304.21 42.7564C1330.35 42 1356.46 44.5438 1381.53 50.2864C1415.48 57.6658 1448.83 69.3579 1493.49 82.0631C1505.39 85.4447 1518.25 88.9085 1532.27 92.4134C1597.82 108.532 1665.21 119.815 1733.54 126.107" stroke="#B6D9FF" stroke-width="0.90655" stroke-miterlimit="10"/>
<path d="M-28 285.538C27.5274 294.464 142.377 306.718 274.844 273.216C362.972 250.927 424.236 215.618 461.895 193.809C629.047 96.9179 681.956 -11.2952 752.269 2.13563C771.758 5.85956 792.85 18.9755 805.712 32.2557C833.182 60.5959 815.867 82.0906 832.434 99.3412C873.051 141.646 1055.75 94.3988 1158.44 67.8521C1258.55 41.9625 1262.26 33.6247 1306.3 32.2557C1383.17 29.8324 1423.12 53.5587 1532.54 81.543C1597.59 98.1017 1664.33 110.466 1732.06 118.508" stroke="#B6D9FF" stroke-width="0.90655" stroke-miterlimit="10"/>
<path d="M-28 289.453C29.006 299.215 140.292 310.401 266.935 278.336C354.35 256.143 413.012 220.492 453.433 197.56C614.903 106.064 665.264 6.96863 736.895 15.813C764.882 19.2631 793.296 26.177 812.054 36.7738C848.912 57.6113 835.213 76.2447 856.59 92.9065C903.389 129.407 1073.8 88.4296 1171.57 64.0735C1266.8 40.2649 1270.65 33.529 1317.2 34.8981C1394.55 37.1708 1432.69 58.1727 1535.76 85.0343C1600.07 101.784 1666.29 113.844 1733.54 121.055" stroke="#B6D9FF" stroke-width="0.90655" stroke-miterlimit="10"/>
<path d="M-28 293.533C67.0686 310.353 166.306 306.921 259.025 283.607C345.728 261.524 401.683 225.503 444.972 201.462C600.544 115.127 649.249 23.6716 721.54 29.6409C758.219 32.6802 792.708 33.4469 818.396 41.4561C862.469 55.147 853.883 70.344 880.747 86.6362C932.07 117.728 1091.85 82.611 1184.71 60.4454C1274.91 38.7179 1278.92 33.4469 1328.12 37.6911C1405.75 44.3723 1442.26 63.0741 1538.99 88.6898C1602.53 105.62 1668.21 117.376 1734.95 123.766" stroke="#B6D9FF" stroke-width="0.90655" stroke-miterlimit="10"/>
<path d="M-28 300.789C64.3003 317.81 160.939 314.786 251.133 292.054C337.105 270.067 390.37 233.676 436.51 208.54C585.865 127.188 633.75 53.0384 706.166 46.6447C751.468 42.647 791.532 44.2899 824.756 49.3007C874.957 56.8581 872.035 67.6329 904.921 83.528C959.361 109.842 1109.93 80.1053 1197.84 59.9934C1283.14 40.4838 1287.11 36.4176 1339.02 43.6464C1416.91 54.4896 1451.8 71.1241 1542.23 95.5076C1605.01 112.637 1670.18 124.096 1736.41 129.653" stroke="#B6D9FF" stroke-width="0.90655" stroke-miterlimit="10"/>
<path d="M-28 311.838C61.5249 329.051 155.563 326.422 243.224 304.253C328.483 282.348 379.04 245.588 428.048 219.37C571.079 142.851 618.465 75.7792 690.81 67.4004C744.556 61.1847 792.013 51.6832 831.098 60.8972C884.879 73.575 886.892 74.4512 929.077 84.1717C979.83 113.758 1127.99 81.3103 1210.99 63.2931C1291.33 45.9056 1295.29 43.0305 1349.94 53.3672C1428.02 68.1397 1461.33 82.9806 1545.45 106.077C1607.48 123.401 1672.14 134.559 1737.85 139.278" stroke="#B6D9FF" stroke-width="0.90655" stroke-miterlimit="10"/>
<path d="M-28 323.146C58.7455 340.563 150.189 338.367 235.35 316.821C319.897 295.025 367.728 257.854 419.622 230.568C556.186 158.746 603.038 98.136 675.365 88.525C737.715 80.2557 789.59 67.1398 837.475 72.8763C899.22 80.2694 904.689 77.3669 953.269 85.1981C1006.52 111.526 1146.04 82.7748 1224.05 66.9618C1299.44 51.6964 1303.39 49.8755 1360.77 63.4569C1439.16 81.967 1470.78 95.2335 1548.61 117.016C1609.88 134.536 1674.04 145.392 1739.22 149.272" stroke="#B6D9FF" stroke-width="0.90655" stroke-miterlimit="10"/>
<path d="M-28 334.674C55.946 352.26 144.77 350.475 227.405 329.54C311.239 307.84 356.309 270.258 411.124 241.918C541.169 174.682 587.486 120.206 660.08 109.801C730.856 99.6558 788.094 91.3317 843.782 84.9928C912.545 77.1616 922.414 80.4064 977.389 86.3619C1033.22 109.513 1164.08 84.4452 1237.27 70.7817C1307.7 57.6384 1311.66 56.7895 1371.76 73.6978C1450.29 95.795 1480.34 107.692 1551.83 128.119C1612.36 145.828 1676.02 156.385 1740.66 159.43" stroke="#B6D9FF" stroke-width="0.90655" stroke-miterlimit="10"/>
<path d="M-28 346.353C38.3229 361.098 127.876 366.068 219.513 342.423C302.688 320.956 344.926 282.799 402.662 253.432C526.062 190.673 571.899 142.125 644.706 131.241C724.087 119.384 787.221 107.788 850.141 97.2736C925.496 84.6643 941.885 75.861 1001.56 87.69C1063.4 99.9434 1182.13 86.3209 1250.39 74.7658C1315.88 63.7309 1319.87 63.813 1382.67 84.0893C1461.58 109.65 1489.84 120.343 1555.14 139.373C1595.74 151.202 1656.99 166.673 1742.2 169.74" stroke="#B6D9FF" stroke-width="0.90655" stroke-miterlimit="10"/>
<path d="M-28 358.236C39.8727 373.789 125.791 377.719 211.603 355.498C294.066 334.14 333.507 295.491 394.2 265.138C510.867 206.774 556.044 164.017 629.35 152.873C717.353 139.483 786.508 124.519 856.483 109.746C938.625 92.3997 959.13 79.2017 1025.72 89.2097C1089.19 98.7934 1200.16 88.2788 1263.54 78.9415C1324.11 70.0151 1328.24 70.8365 1393.59 94.6861C1472.9 123.615 1499.3 133.24 1558.37 150.819C1598.38 162.73 1658.72 178.201 1743.64 180.254" stroke="#B6D9FF" stroke-width="0.90655" stroke-miterlimit="10"/>
<path d="M-28 370.257C41.476 386.686 123.707 389.506 203.694 368.723C285.444 347.475 322.052 308.319 385.739 276.994C495.618 222.943 540.189 185.922 613.976 174.655C710.69 159.882 785.885 141.44 862.825 122.369C951.897 100.299 976.392 83.0076 1049.88 90.8799C1115.08 97.8623 1218.19 90.4555 1276.67 83.2677C1332.22 76.4223 1336.62 77.9967 1404.49 105.433C1484.3 137.675 1508.74 146.328 1561.59 162.415C1601.03 174.422 1660.43 189.947 1745.08 190.906" stroke="#B6D9FF" stroke-width="0.90655" stroke-miterlimit="10"/>
<path d="M-28 382.456C42.9546 399.665 121.641 401.459 195.784 382.113C276.822 360.961 310.562 321.257 377.277 289.015C480.297 239.208 523.052 201.243 598.62 196.601C705.756 190.016 785.315 158.541 869.167 135.157C965.24 108.377 997.431 73.5474 1074.03 92.7147C1138.02 108.774 1236.14 92.7147 1289.82 87.7586C1340.37 83.0352 1345.04 85.2668 1415.41 116.332C1495.77 151.832 1518.14 159.636 1564.82 174.176C1603.67 186.292 1662.16 201.831 1746.52 201.736" stroke="#B6D9FF" stroke-width="0.90655" stroke-miterlimit="10"/>
<path d="M-28 395.051C44.5045 413.096 119.556 413.78 187.892 395.982C268.199 374.926 299.036 334.62 368.815 301.515C465.013 255.883 507.179 224.613 583.246 219.027C699.04 210.498 784.816 176.133 875.527 148.423C978.672 116.934 1013.36 79.8178 1098.21 95.0284C1165.51 107.104 1254.22 95.5486 1302.95 92.7283C1348.53 90.0859 1353.61 92.961 1426.31 127.722C1507.31 166.44 1527.55 173.464 1568.06 186.415C1606.31 198.655 1663.88 214.18 1747.99 213.03" stroke="#B6D9FF" stroke-width="0.90655" stroke-miterlimit="10"/>
<path d="M-28 408.441C46.0365 427.321 117.454 426.952 179.983 410.495C259.577 389.534 287.457 348.571 360.353 314.659C449.532 273.161 491.289 248.627 567.89 242.097C692.377 231.486 784.353 194.384 881.869 162.347C992.175 126.107 1029.73 87.4851 1122.36 97.9998C1192.8 105.995 1272.22 98.9581 1316.09 98.342C1356.67 97.767 1362.22 101.272 1437.23 139.757C1518.91 181.665 1536.99 187.99 1571.28 199.313C1608.93 211.717 1665.7 227.187 1749.43 224.983" stroke="#B6D9FF" stroke-width="0.90655" stroke-miterlimit="10"/>
<path d="M-28 422.064C47.5863 441.779 115.37 440.327 172.073 425.322C250.955 404.444 275.824 362.741 351.891 328.117C434.105 290.686 475.345 272.929 552.517 265.481C685.626 252.639 783.925 212.935 888.211 176.572C1005.79 135.595 1046.51 96.0282 1146.52 101.272C1219.91 105.119 1290.23 102.641 1329.22 104.27C1364.78 105.735 1370.87 109.842 1448.13 152.106C1530.6 197.19 1546.26 202.941 1574.51 212.524C1611.51 225.134 1667.32 240.522 1750.87 237.25" stroke="#B6D9FF" stroke-width="0.90655" stroke-miterlimit="10"/>
<path d="M-28 436.891C49.1362 457.427 113.232 454.826 164.164 441.341C242.28 420.421 264.102 377.993 343.429 342.766C418.642 309.36 459.383 298.407 537.161 290.056C678.821 274.845 783.533 232.691 894.481 191.988C1019.18 146.274 1064.06 111.978 1170.6 105.735C1246.53 101.299 1308.15 107.515 1342.3 111.389C1372.89 114.867 1379.53 119.604 1458.98 165.633C1542.25 213.907 1555.5 219.027 1577.66 226.9C1613.97 239.81 1668.98 255.021 1752.24 250.695" stroke="#B6D9FF" stroke-width="0.90655" stroke-miterlimit="10"/>
<path d="M-28 451.567C50.6682 472.939 111.148 469.27 156.272 457.222C233.657 436.398 252.273 392.957 334.968 357.278C403.161 327.856 443.386 323.735 521.787 314.494C671.98 296.792 783.159 252.296 900.912 207.28C1032.9 156.802 1082 119.658 1194.85 110.075C1273.23 103.448 1326.27 112.169 1355.5 118.371C1381.13 123.848 1388.38 129.187 1469.96 179.036C1554.11 230.459 1564.84 235.073 1580.98 241.165C1616.46 254.555 1670.78 269.382 1753.77 264.002" stroke="#B6D9FF" stroke-width="0.90655" stroke-miterlimit="10"/>
<path d="M-28 466.258C52.1647 488.451 109.171 483.727 148.362 473.103C224.964 452.375 240.32 407.702 326.506 371.79C387.68 346.298 427.371 349.064 506.431 338.932C665.068 318.601 782.803 271.847 907.254 222.559C1046.53 167.33 1099.99 127.284 1219.01 114.401C1300.15 105.625 1344.37 116.756 1368.65 125.354C1389.36 132.692 1397.15 138.757 1480.88 192.439C1565.94 247.025 1574.05 251.173 1584.2 255.418C1618.53 269.779 1672.49 283.758 1755.22 277.323" stroke="#B6D9FF" stroke-width="0.90655" stroke-miterlimit="10"/>
</g>
</svg>
