<svg width="40" height="40" viewBox="0 0 40 40" fill="none" xmlns="http://www.w3.org/2000/svg">
<path fill-rule="evenodd" clip-rule="evenodd" d="M11.5746 17.767C11.1676 17.7745 10.7715 17.8901 10.4711 18.1906C10.3515 18.3102 10.2637 18.4462 10.1976 18.591C10.1955 18.5938 10.1934 18.5967 10.1914 18.5995L2.54246 35.8688C2.49129 35.9842 2.47624 36.1123 2.49927 36.2364C2.52231 36.3604 2.58236 36.4746 2.67153 36.5639C2.76069 36.6532 2.87479 36.7134 2.99883 36.7366C3.12286 36.7599 3.25102 36.745 3.36645 36.694L20.5881 29.0646C20.5947 29.0611 20.6012 29.0574 20.6076 29.0536C20.7661 28.9864 20.9151 28.8938 21.0446 28.7643C21.4452 28.3637 21.5178 27.793 21.4426 27.2543C21.3674 26.7156 21.1529 26.1427 20.8335 25.5233C20.1945 24.2847 19.1223 22.8649 17.7463 21.4889C16.3703 20.1129 14.9517 19.042 13.7131 18.403C13.0938 18.0835 12.5208 17.8678 11.9821 17.7926C11.8475 17.7738 11.7102 17.7645 11.5746 17.767ZM11.6063 19.0146C11.662 19.0146 11.7285 19.0192 11.809 19.0304C12.1308 19.0753 12.6021 19.2366 13.1396 19.5138C14.2144 20.0683 15.563 21.073 16.8627 22.3727C18.1624 23.6724 19.1683 25.0222 19.7228 26.0971C20.0001 26.6345 20.1601 27.1046 20.205 27.4264C20.2499 27.7483 20.1877 27.8539 20.161 27.8805C20.1344 27.9072 20.0287 27.9706 19.7069 27.9257C19.3851 27.8808 18.9138 27.7208 18.3764 27.4435C17.3015 26.889 15.9517 25.8831 14.652 24.5834C13.3523 23.2837 12.3476 21.9351 11.7931 20.8603C11.5159 20.3228 11.3559 19.8515 11.3109 19.5297C11.2783 19.2958 11.3023 19.1779 11.328 19.1195L11.3342 19.1073V19.1061C11.3417 19.0921 11.3494 19.08 11.355 19.0743C11.375 19.0544 11.4394 19.0144 11.6063 19.0146ZM10.4857 21.0226C10.5468 21.1574 10.6116 21.2933 10.6835 21.4328C11.3225 22.6714 12.3922 24.0912 13.7682 25.4672C15.1442 26.8432 16.5652 27.9141 17.8039 28.5531C17.9425 28.6246 18.0776 28.6889 18.2116 28.7497L13.3935 30.8835C12.3711 30.283 11.1985 29.3577 10.1146 28.2748C9.40984 27.5692 8.76772 26.8221 8.23721 26.0983L10.4857 21.0226ZM7.66104 27.4008C8.13435 27.9958 8.66312 28.5889 9.23086 29.1574C10.1361 30.062 11.0924 30.8639 12.0189 31.4926L4.34072 34.8947L7.66104 27.4008Z" fill="#07A7D5"/>
<path fill-rule="evenodd" clip-rule="evenodd" d="M33.5178 16.3395C30.1095 16.0442 27.2722 17.2573 25.2011 18.7333C22.4397 20.7014 20.9372 23.1511 20.9372 23.1511C20.8941 23.221 20.8652 23.2988 20.8521 23.3799C20.8391 23.4611 20.8422 23.544 20.8613 23.6239C20.8803 23.7038 20.9149 23.7792 20.9632 23.8458C21.0114 23.9123 21.0722 23.9687 21.1423 24.0117C21.2834 24.0984 21.4533 24.1255 21.6144 24.087C21.7755 24.0485 21.9148 23.9477 22.0016 23.8066C22.0016 23.8066 23.3888 21.5598 25.9262 19.7514C28.4636 17.943 32.0482 16.588 36.6623 18.3513C36.817 18.4105 36.989 18.4058 37.1403 18.3382C37.2916 18.2707 37.4099 18.1459 37.4692 17.9912C37.5284 17.8364 37.5237 17.6645 37.4561 17.5132C37.3886 17.3619 37.2638 17.2436 37.1091 17.1843C35.8533 16.7044 34.6538 16.438 33.5178 16.3395Z" fill="#07A7D5"/>
<path fill-rule="evenodd" clip-rule="evenodd" d="M27.7417 5.03392C27.5768 5.01864 27.4125 5.06945 27.285 5.17519C27.1575 5.28094 27.0772 5.43297 27.0618 5.59788C27.0618 5.59788 26.8105 8.22606 25.3345 10.9702C23.8584 13.7143 21.2426 16.5157 16.3244 16.9748C16.1595 16.9903 16.0075 17.0706 15.9018 17.1981C15.796 17.3256 15.7452 17.4898 15.7605 17.6548C15.7759 17.8197 15.8562 17.9717 15.9837 18.0775C16.1112 18.1832 16.2755 18.234 16.4404 18.2187C21.7944 17.7189 24.8292 14.5487 26.4355 11.5622C28.0419 8.57582 28.3056 5.71385 28.3056 5.71385C28.3209 5.54892 28.2701 5.38467 28.1644 5.25718C28.0586 5.12969 27.9066 5.04939 27.7417 5.03392Z" fill="#07A7D5"/>
<path fill-rule="evenodd" clip-rule="evenodd" d="M13.8828 9.75195C12.8547 9.75195 12.0078 10.5988 12.0078 11.627C12.0078 12.6551 12.8547 13.502 13.8828 13.502C14.9109 13.502 15.7578 12.6551 15.7578 11.627C15.7578 10.5988 14.9109 9.75195 13.8828 9.75195ZM13.8828 11.002C14.2354 11.002 14.5078 11.2744 14.5078 11.627C14.5078 11.9795 14.2354 12.252 13.8828 12.252C13.5302 12.252 13.2578 11.9795 13.2578 11.627C13.2578 11.2744 13.5302 11.002 13.8828 11.002Z" fill="#07A7D5"/>
<path fill-rule="evenodd" clip-rule="evenodd" d="M34.6421 4.84473C33.4011 4.84473 32.3813 5.8645 32.3813 7.10547C32.3813 8.34644 33.4011 9.36621 34.6421 9.36621C35.8831 9.36621 36.9028 8.34644 36.9028 7.10547C36.9028 5.8645 35.8831 4.84473 34.6421 4.84473ZM34.6421 6.09473C35.2075 6.09473 35.6528 6.54005 35.6528 7.10547C35.6528 7.67089 35.2075 8.11621 34.6421 8.11621C34.0767 8.11621 33.6313 7.67089 33.6313 7.10547C33.6313 6.54005 34.0767 6.09473 34.6421 6.09473Z" fill="#07A7D5"/>
<path fill-rule="evenodd" clip-rule="evenodd" d="M35.6357 28.6094C34.6076 28.6094 33.7607 29.4562 33.7607 30.4844C33.7607 31.5125 34.6076 32.3594 35.6357 32.3594C36.6639 32.3594 37.5107 31.5125 37.5107 30.4844C37.5107 29.4562 36.6639 28.6094 35.6357 28.6094ZM35.6357 29.8594C35.9883 29.8594 36.2607 30.1318 36.2607 30.4844C36.2607 30.837 35.9883 31.1094 35.6357 31.1094C35.2832 31.1094 35.0107 30.837 35.0107 30.4844C35.0107 30.1318 35.2832 29.8594 35.6357 29.8594Z" fill="#07A7D5"/>
<path fill-rule="evenodd" clip-rule="evenodd" d="M22.0337 4.89746C21.8679 4.89746 21.709 4.96331 21.5918 5.08052C21.4745 5.19773 21.4087 5.3567 21.4087 5.52246V6.38916H20.542C20.3762 6.38916 20.2173 6.45501 20.1001 6.57222C19.9828 6.68943 19.917 6.8484 19.917 7.01416C19.917 7.17992 19.9828 7.33889 20.1001 7.4561C20.2173 7.57331 20.3762 7.63916 20.542 7.63916H21.4087V8.50586C21.4087 8.67162 21.4745 8.83059 21.5918 8.9478C21.709 9.06501 21.8679 9.13086 22.0337 9.13086C22.1995 9.13086 22.3584 9.06501 22.4756 8.9478C22.5929 8.83059 22.6587 8.67162 22.6587 8.50586V7.63916H23.5254C23.6912 7.63916 23.8501 7.57331 23.9673 7.4561C24.0845 7.33889 24.1504 7.17992 24.1504 7.01416C24.1504 6.8484 24.0845 6.68943 23.9673 6.57222C23.8501 6.45501 23.6912 6.38916 23.5254 6.38916H22.6587V5.52246C22.6587 5.3567 22.5929 5.19773 22.4756 5.08052C22.3584 4.96331 22.1995 4.89746 22.0337 4.89746Z" fill="#07A7D5"/>
<path fill-rule="evenodd" clip-rule="evenodd" d="M29.6469 11.2432C29.4811 11.2432 29.3222 11.3091 29.205 11.4263C29.0878 11.5435 29.022 11.7024 29.022 11.8682C29.022 12.0339 29.0878 12.1929 29.205 12.3101L29.8178 12.9229L29.205 13.5356C29.0878 13.6529 29.022 13.8118 29.022 13.9775C29.022 14.1433 29.0878 14.3022 29.205 14.4194C29.3222 14.5366 29.4811 14.6024 29.6469 14.6024C29.8126 14.6024 29.9716 14.5366 30.0888 14.4194L30.7016 13.8066L31.3144 14.4194C31.4316 14.5366 31.5905 14.6024 31.7563 14.6024C31.922 14.6024 32.0809 14.5366 32.1981 14.4194C32.3153 14.3022 32.3812 14.1433 32.3812 13.9775C32.3812 13.8118 32.3153 13.6529 32.1981 13.5356L31.5854 12.9229L32.1981 12.3101C32.3153 12.1929 32.3812 12.0339 32.3812 11.8682C32.3812 11.7024 32.3153 11.5435 32.1981 11.4263C32.081 11.3091 31.922 11.2432 31.7563 11.2432C31.5905 11.2432 31.4315 11.3091 31.3144 11.4263L30.7016 12.0391L30.0888 11.4263C29.9716 11.3091 29.8126 11.2432 29.6469 11.2432Z" fill="#07A7D5"/>
<path fill-rule="evenodd" clip-rule="evenodd" d="M30.2646 22.6123C30.0989 22.6123 29.9399 22.6782 29.8227 22.7954C29.7055 22.9126 29.6396 23.0715 29.6396 23.2373V24.104H28.7729C28.6072 24.104 28.4482 24.1699 28.331 24.2871C28.2138 24.4043 28.1479 24.5632 28.1479 24.729C28.1479 24.8948 28.2138 25.0537 28.331 25.1709C28.4482 25.2882 28.6072 25.354 28.7729 25.354H29.6396V26.2207C29.6396 26.3865 29.7055 26.5454 29.8227 26.6626C29.9399 26.7799 30.0989 26.8457 30.2646 26.8457C30.4304 26.8457 30.5894 26.7799 30.7066 26.6626C30.8238 26.5454 30.8896 26.3865 30.8896 26.2207V25.354H31.7563C31.9221 25.354 32.0811 25.2882 32.1983 25.1709C32.3155 25.0537 32.3813 24.8948 32.3813 24.729C32.3813 24.5632 32.3155 24.4043 32.1983 24.2871C32.0811 24.1699 31.9221 24.104 31.7563 24.104H30.8896V23.2373C30.8896 23.0715 30.8238 22.9126 30.7066 22.7954C30.5894 22.6782 30.4304 22.6123 30.2646 22.6123Z" fill="#07A7D5"/>
<path fill-rule="evenodd" clip-rule="evenodd" d="M24.4516 28.2547C24.3701 28.2654 24.2916 28.292 24.2204 28.3331C24.1493 28.3742 24.0869 28.4289 24.0369 28.494C23.9869 28.5592 23.9503 28.6336 23.929 28.713C23.9078 28.7924 23.9025 28.8752 23.9133 28.9566C23.9351 29.1209 24.0214 29.2698 24.153 29.3705C24.2846 29.4712 24.4509 29.5156 24.6152 29.4937C24.7897 29.4706 24.968 29.4706 25.1425 29.4937C25.3441 29.5204 25.5321 29.5782 25.6894 29.6634C25.8451 29.7477 25.9767 29.8634 26.0617 29.9905C26.1451 30.1153 26.1894 30.2645 26.1874 30.3909C26.1856 30.5135 26.1346 30.639 26.0678 30.712C26.0219 30.7622 25.9466 30.8164 25.8505 30.8572C25.7528 30.8988 25.6308 30.9293 25.4892 30.9512C25.2052 30.9953 24.8386 30.9927 24.4101 31.0782C23.7155 31.2168 23.081 31.5813 22.6108 32.1109C22.1405 32.6405 21.8545 33.314 21.799 34.0201C21.7435 34.7262 21.9214 35.4352 22.3032 36.0318C22.6849 36.6284 23.255 37.0877 23.9194 37.3331C24.5838 37.5785 25.3154 37.6005 25.9933 37.3953C26.6713 37.1902 27.2672 36.7668 27.684 36.1942C28.1009 35.6215 28.3208 34.9235 28.3078 34.2154C28.2947 33.5073 28.0497 32.8179 27.612 32.2611C27.5613 32.1965 27.4983 32.1426 27.4268 32.1024C27.3552 32.0622 27.2764 32.0365 27.1949 32.0268C27.1134 32.017 27.0308 32.0234 26.9518 32.0456C26.8727 32.0678 26.7988 32.1053 26.7343 32.1561C26.6698 32.2068 26.6159 32.2698 26.5757 32.3413C26.5355 32.4129 26.5098 32.4917 26.5 32.5732C26.4903 32.6547 26.4967 32.7373 26.5189 32.8163C26.5411 32.8954 26.5786 32.9692 26.6293 33.0338C26.8946 33.3713 27.0499 33.8093 27.0578 34.2386C27.0657 34.6679 26.926 35.111 26.6733 35.4581C26.4206 35.8052 26.0418 36.0747 25.6308 36.199C25.2198 36.3234 24.7555 36.3088 24.3527 36.16C23.95 36.0112 23.5868 35.7196 23.3554 35.358C23.124 34.9963 23.0117 34.5458 23.0453 34.1177C23.079 33.6897 23.2608 33.2621 23.5458 32.941C23.8309 32.6199 24.2344 32.389 24.6555 32.305C24.9199 32.2522 25.2667 32.2509 25.6808 32.1866C25.8884 32.1544 26.1126 32.1039 26.34 32.0071C26.569 31.9098 26.7981 31.7672 26.9907 31.5567C27.2856 31.2343 27.4307 30.8238 27.4374 30.4105C27.4439 30.001 27.315 29.6168 27.1005 29.296C26.8877 28.9775 26.6007 28.7345 26.2851 28.5635C25.9711 28.3934 25.6358 28.2983 25.3061 28.2547C25.0224 28.2172 24.7353 28.2172 24.4516 28.2547Z" fill="#07A7D5"/>
<path fill-rule="evenodd" clip-rule="evenodd" d="M8.13825 2.56968C7.77964 2.47524 7.40387 2.47713 7.04572 2.57334C6.68757 2.66956 6.36147 2.85633 6.09846 3.11778C6.04009 3.17567 5.99371 3.24451 5.96199 3.32035C5.93026 3.3962 5.91381 3.47755 5.91358 3.55976C5.91334 3.64197 5.92934 3.72342 5.96063 3.79944C5.99193 3.87546 6.03792 3.94457 6.09596 4.00279C6.21284 4.12029 6.3716 4.18656 6.53734 4.18702C6.70307 4.18748 6.86222 4.12209 6.97975 4.00523C7.08573 3.89987 7.22604 3.81939 7.37037 3.78062C7.5147 3.74185 7.67629 3.74134 7.82081 3.7794C7.96533 3.81746 8.10492 3.89673 8.21144 4.00157C8.31795 4.10641 8.40058 4.24586 8.44093 4.38975C8.51252 4.64509 8.46468 5.03089 8.43843 5.52989C8.4253 5.78072 8.42355 6.06398 8.48968 6.36729C8.55671 6.67452 8.69289 6.99618 8.95111 7.26329C9.16778 7.48743 9.44286 7.64161 9.747 7.71007C10.0512 7.77852 10.3658 7.75751 10.6576 7.64781C10.9495 7.53811 11.2002 7.34668 11.384 7.09483C11.5677 6.84298 11.6725 6.54683 11.6879 6.23546C11.692 6.15346 11.6799 6.07145 11.6523 5.99412C11.6248 5.91679 11.5822 5.84566 11.5271 5.78478C11.472 5.72391 11.4054 5.67449 11.3312 5.63934C11.257 5.60419 11.1767 5.58401 11.0947 5.57994C11.0127 5.57583 10.9307 5.58792 10.8533 5.61551C10.776 5.6431 10.7048 5.68566 10.644 5.74076C10.5831 5.79585 10.5337 5.8624 10.4985 5.9366C10.4634 6.0108 10.4432 6.0912 10.4391 6.1732C10.436 6.23624 10.4104 6.30776 10.3732 6.35875C10.336 6.40974 10.276 6.45495 10.217 6.47716C10.1579 6.49937 10.0832 6.50444 10.0217 6.49059C9.9601 6.47673 9.89463 6.43953 9.85076 6.39415C9.79633 6.33787 9.74045 6.23342 9.7116 6.10118C9.68192 5.96503 9.67559 5.79416 9.68597 5.59581C9.70691 5.19646 9.81573 4.66247 9.64446 4.05162C9.54435 3.69454 9.35213 3.3706 9.08784 3.11046C8.82354 2.85032 8.49688 2.66413 8.13825 2.56968Z" fill="#07A7D5"/>
</svg>
