<svg width="176" height="164" viewBox="0 0 176 164" fill="none" xmlns="http://www.w3.org/2000/svg">
<path d="M166.827 0H17.84C12.9633 0 9 3.66693 9 8.17509V30.8145H123.493C132.043 30.8145 139 37.2455 139 45.1525V123.258H144.287H164.167C170.518 123.258 175.667 118.109 175.667 111.758V8.17509C175.667 3.66693 171.703 0 166.827 0Z" fill="#D3E5FF"/>
<path d="M147.827 20.6207H8.84C3.96333 20.6207 0 24.2877 0 28.7958V163.643L31.38 134.634H147.827C152.703 134.634 156.667 130.968 156.667 126.459V28.7958C156.667 24.2877 152.703 20.6207 147.827 20.6207ZM36.6667 51.4353H76.6667C78.51 51.4353 80 52.8158 80 54.5167C80 56.2177 78.51 57.5982 76.6667 57.5982H36.6667C34.8233 57.5982 33.3333 56.2177 33.3333 54.5167C33.3333 52.8158 34.8233 51.4353 36.6667 51.4353ZM120 100.739H36.6667C34.8233 100.739 33.3333 99.358 33.3333 97.6571C33.3333 95.9561 34.8233 94.5756 36.6667 94.5756H120C121.843 94.5756 123.333 95.9561 123.333 97.6571C123.333 99.358 121.843 100.739 120 100.739ZM120 79.1683H36.6667C34.8233 79.1683 33.3333 77.7878 33.3333 76.0869C33.3333 74.3859 34.8233 73.0054 36.6667 73.0054H120C121.843 73.0054 123.333 74.3859 123.333 76.0869C123.333 77.7878 121.843 79.1683 120 79.1683Z" fill="url(#paint0_linear_79_122)"/>
<defs>
<linearGradient id="paint0_linear_79_122" x1="-66" y1="-72" x2="228.77" y2="167.728" gradientUnits="userSpaceOnUse">
<stop offset="0.08874" stop-color="#00FFA9"/>
<stop offset="0.863787" stop-color="#3C6CF0"/>
<stop offset="0.908785" stop-color="#1A3276"/>
</linearGradient>
</defs>
</svg>
