<svg width="67" height="67" viewBox="0 0 67 67" fill="none" xmlns="http://www.w3.org/2000/svg">
<path d="M16.6523 27.4563C16.6523 25.6084 18.1512 24.0964 20.0038 24.0964C21.8563 24.0964 23.372 25.6084 23.372 27.4563C23.372 29.3042 21.8563 30.8161 20.0038 30.8161C18.1512 30.8161 16.6523 29.3042 16.6523 27.4563Z" fill="#FF6767"/>
<path d="M33.4432 24.0964C31.5906 24.0964 30.0918 25.6084 30.0918 27.4563C30.0918 29.3042 31.5906 30.8161 33.4432 30.8161C35.2959 30.8161 36.8115 29.3042 36.8115 27.4563C36.8115 25.6084 35.2959 24.0964 33.4432 24.0964Z" fill="#FF6767"/>
<path d="M43.5303 27.4563C43.5303 25.6084 45.0291 24.0964 46.8817 24.0964C48.7343 24.0964 50.25 25.6084 50.25 27.4563C50.25 29.3042 48.7343 30.8161 46.8817 30.8161C45.0291 30.8161 43.5303 29.3042 43.5303 27.4563Z" fill="#FF6767"/>
<path fill-rule="evenodd" clip-rule="evenodd" d="M60.3 0H6.7C3.015 0 0 3.015 0 6.7V67L13.4 53.6H60.3C63.985 53.6 67 50.585 67 46.9V6.7C67 3.015 63.985 0 60.3 0ZM63.0329 48.4868H12.7829L3.96711 57.3026V4.84868H63.0329V48.4868Z" fill="#FF6767"/>
</svg>
