<svg width="16" height="16" viewBox="0 0 16 16" fill="none" xmlns="http://www.w3.org/2000/svg">
<path d="M13.5556 0C14.9056 0 16 1.09442 16 2.44444V13.5556C16 14.9056 14.9056 16 13.5556 16H2.44444C1.09442 16 0 14.9056 0 13.5556V2.44444C0 1.09442 1.09442 0 2.44444 0H13.5556ZM13.5556 1.33333H2.44444C1.83079 1.33333 1.33333 1.83079 1.33333 2.44444V13.5556C1.33333 14.1692 1.83079 14.6667 2.44444 14.6667H13.5556C14.1692 14.6667 14.6667 14.1692 14.6667 13.5556V2.44444C14.6667 1.83079 14.1692 1.33333 13.5556 1.33333ZM6.22222 10.1683L11.973 4.41748C12.2334 4.15714 12.6555 4.15714 12.9158 4.41748C13.1525 4.65417 13.174 5.02453 12.9804 5.28552L12.9158 5.36029L6.69363 11.5825C6.45694 11.8192 6.08658 11.8407 5.82559 11.6471L5.75082 11.5825L3.08415 8.91585C2.8238 8.6555 2.8238 8.23339 3.08415 7.97304C3.32083 7.73636 3.6912 7.71484 3.95219 7.90849L4.02696 7.97304L6.22222 10.1683Z" fill="#0B78EB" fill-opacity="0.7"/>
</svg>
