<svg width="46" height="46" viewBox="0 0 46 46" fill="none" xmlns="http://www.w3.org/2000/svg">
<path d="M23 40.25C20.7347 40.25 18.4916 39.8038 16.3987 38.9369C14.3058 38.07 12.4042 36.7994 10.8024 35.1976C9.2006 33.5958 7.92997 31.6942 7.06308 29.6013C6.19618 27.5084 5.75 25.2653 5.75 23C5.75 20.7347 6.19618 18.4916 7.06308 16.3987C7.92997 14.3058 9.2006 12.4042 10.8024 10.8024C12.4042 9.2006 14.3058 7.92997 16.3987 7.06308C18.4916 6.19618 20.7347 5.75 23 5.75C25.2653 5.75 27.5084 6.19619 29.6013 7.06308C31.6942 7.92997 33.5958 9.2006 35.1976 10.8024C36.7994 12.4042 38.07 14.3058 38.9369 16.3987C39.8038 18.4916 40.25 20.7347 40.25 23C40.25 25.2653 39.8038 27.5084 38.9369 29.6013C38.07 31.6942 36.7994 33.5958 35.1976 35.1976C33.5958 36.7994 31.6942 38.07 29.6013 38.9369C27.5084 39.8038 25.2653 40.25 23 40.25L23 40.25Z" stroke="#454545" stroke-width="2" stroke-linecap="round"/>
<path d="M17.25 17.25L28.75 28.75" stroke="#454545" stroke-width="2" stroke-linecap="round"/>
<path d="M28.75 17.25L17.25 28.75" stroke="#454545" stroke-width="2" stroke-linecap="round"/>
</svg>
