<svg width="24" height="25" viewBox="0 0 24 25" fill="none" xmlns="http://www.w3.org/2000/svg">
<path d="M11.9776 16.9369C11.9967 16.9518 12.0183 16.9632 12.0413 16.9707C12.0636 16.9821 12.0877 16.9897 12.1126 16.9932C12.212 16.9932 12.3074 16.9537 12.3777 16.8833C12.4481 16.813 12.4876 16.7176 12.4876 16.6182C12.4876 16.5187 12.4481 16.4233 12.3777 16.353C12.3074 16.2827 12.212 16.2432 12.1126 16.2432C12.0877 16.2466 12.0636 16.2542 12.0413 16.2657C12.0183 16.2732 11.9967 16.2846 11.9776 16.2994L11.9176 16.3444C11.8824 16.3793 11.8545 16.4208 11.8355 16.4664C11.8164 16.5121 11.8066 16.5612 11.8066 16.6107C11.8066 16.6602 11.8164 16.7092 11.8355 16.7549C11.8545 16.8006 11.8824 16.8421 11.9176 16.8769L11.9776 16.9369Z" fill="#F8F9FA"/>
<path d="M21.0262 14.184C20.7453 14.1854 20.4725 14.2779 20.2486 14.4476C20.0248 14.6173 19.8621 14.8551 19.785 15.1252H18.8212V13.6252H21.3487C21.4033 13.6244 21.4571 13.6116 21.5062 13.5877C23.8125 11.034 21.8812 6.71774 18.5062 6.53774C17.7968 5.66298 16.8308 5.03286 15.7443 4.73618C14.6578 4.43949 13.5055 4.49119 12.45 4.88399C10.695 0.578988 4.52998 1.64774 4.24498 6.27524C3.5268 6.49042 2.87595 6.88649 2.35482 7.42548C1.8337 7.96447 1.45979 8.6283 1.26893 9.35332C1.07808 10.0783 1.07668 10.8402 1.26489 11.5659C1.45309 12.2917 1.82458 12.9568 2.34373 13.4977C2.37887 13.5377 2.42212 13.5698 2.47062 13.5918C2.51911 13.6138 2.57173 13.6252 2.62498 13.6252H5.18998V15.1252H4.21498C4.12498 14.8262 3.93046 14.5695 3.66691 14.402C3.40335 14.2345 3.08836 14.1674 2.77941 14.2129C2.47047 14.2583 2.18818 14.4134 1.98408 14.6498C1.77998 14.8861 1.66768 15.188 1.66768 15.5002C1.66768 15.8125 1.77998 16.1144 1.98408 16.3507C2.18818 16.5871 2.47047 16.7421 2.77941 16.7876C3.08836 16.8331 3.40335 16.766 3.66691 16.5985C3.93046 16.431 4.12498 16.1743 4.21498 15.8752H5.54248C5.59308 15.8765 5.64343 15.8676 5.69048 15.8489C5.73752 15.8302 5.7803 15.8022 5.81623 15.7665C5.85143 15.731 5.87919 15.6888 5.89787 15.6425C5.91654 15.5961 5.92576 15.5465 5.92498 15.4965V13.6252H8.12248V18.5002H6.05998C5.96998 18.2012 5.77546 17.9445 5.51191 17.777C5.24835 17.6095 4.93336 17.5424 4.62441 17.5879C4.31547 17.6333 4.03318 17.7884 3.82908 18.0248C3.62498 18.2611 3.51268 18.563 3.51268 18.8752C3.51268 19.1875 3.62498 19.4894 3.82908 19.7257C4.03318 19.9621 4.31547 20.1171 4.62441 20.1626C4.93336 20.2081 5.24835 20.141 5.51191 19.9735C5.77546 19.806 5.96998 19.5493 6.05998 19.2502H8.50123C8.60068 19.2502 8.69607 19.2107 8.76639 19.1404C8.83672 19.0701 8.87623 18.9747 8.87623 18.8752V13.6252H11.8087V15.5002C11.8087 15.5997 11.8482 15.6951 11.9186 15.7654C11.9889 15.8357 12.0843 15.8752 12.1837 15.8752C12.2832 15.8752 12.3786 15.8357 12.4489 15.7654C12.5192 15.6951 12.5587 15.5997 12.5587 15.5002V13.6252H15.1237V18.8752C15.1237 18.9747 15.1632 19.0701 15.2336 19.1404C15.3039 19.2107 15.3993 19.2502 15.4987 19.2502H17.925C18.015 19.5493 18.2095 19.806 18.473 19.9735C18.7366 20.141 19.0516 20.2081 19.3605 20.1626C19.6695 20.1171 19.9518 19.9621 20.1559 19.7257C20.36 19.4894 20.4723 19.1875 20.4723 18.8752C20.4723 18.563 20.36 18.2611 20.1559 18.0248C19.9518 17.7884 19.6695 17.6333 19.3605 17.5879C19.0516 17.5424 18.7366 17.6095 18.473 17.777C18.2095 17.9445 18.015 18.2012 17.925 18.5002H15.8737V13.6252H18.0712V15.5002C18.0704 15.5502 18.0797 15.5999 18.0983 15.6462C18.117 15.6926 18.1448 15.7348 18.18 15.7702C18.2159 15.8059 18.2587 15.8339 18.3057 15.8526C18.3528 15.8713 18.4031 15.8803 18.4537 15.879H19.7812C19.8514 16.1096 19.9842 16.3161 20.1649 16.4757C20.3455 16.6352 20.5669 16.7414 20.8044 16.7825C21.0419 16.8235 21.2862 16.7978 21.5099 16.7082C21.7336 16.6186 21.9281 16.4686 22.0716 16.275C22.2151 16.0814 22.302 15.8517 22.3226 15.6115C22.3432 15.3714 22.2968 15.1303 22.1884 14.915C22.08 14.6997 21.9139 14.5188 21.7087 14.3924C21.5035 14.266 21.2672 14.199 21.0262 14.199V14.184ZM2.97373 16.059C2.82454 16.059 2.68147 15.9997 2.57598 15.8942C2.47049 15.7887 2.41123 15.6457 2.41123 15.4965C2.41123 15.3473 2.47049 15.2042 2.57598 15.0987C2.68147 14.9933 2.82454 14.934 2.97373 14.934C3.12241 14.934 3.26501 14.9931 3.37015 15.0982C3.47528 15.2033 3.53435 15.3459 3.53435 15.4946C3.53435 15.6433 3.47528 15.7859 3.37015 15.891C3.26501 15.9962 3.12241 16.0552 2.97373 16.0552V16.059ZM4.81498 19.434C4.66579 19.434 4.52272 19.3747 4.41723 19.2692C4.31174 19.1637 4.25248 19.0207 4.25248 18.8715C4.25248 18.7223 4.31174 18.5792 4.41723 18.4737C4.52272 18.3683 4.66579 18.309 4.81498 18.309C4.96317 18.309 5.10529 18.3679 5.21007 18.4726C5.31486 18.5774 5.37373 18.7196 5.37373 18.8677C5.37373 19.0159 5.31486 19.1581 5.21007 19.2628C5.10529 19.3676 4.96317 19.4265 4.81498 19.4265V19.434ZM19.1662 18.309C19.3154 18.309 19.4585 18.3683 19.564 18.4737C19.6695 18.5792 19.7287 18.7223 19.7287 18.8715C19.7287 19.0207 19.6695 19.1637 19.564 19.2692C19.4585 19.3747 19.3154 19.434 19.1662 19.434C19.018 19.434 18.8759 19.3751 18.7711 19.2703C18.6663 19.1656 18.6075 19.0234 18.6075 18.8752C18.6075 18.7271 18.6663 18.5849 18.7711 18.4801C18.8759 18.3754 19.018 18.3165 19.1662 18.3165V18.309ZM1.87498 10.4602C1.87048 9.63962 2.14766 8.84231 2.66022 8.20144C3.17277 7.56057 3.88969 7.11495 4.69123 6.93899C4.78861 6.91993 4.87447 6.86305 4.92999 6.78082C4.98552 6.69858 5.00619 6.59769 4.98748 6.50024C4.9674 5.64411 5.261 4.81017 5.813 4.15545C6.365 3.50073 7.13731 3.0704 7.98452 2.94548C8.83173 2.82057 9.69538 3.00969 10.4128 3.47723C11.1303 3.94478 11.6521 4.65849 11.88 5.48399C11.8953 5.53592 11.9216 5.58393 11.9572 5.62471C11.9928 5.66549 12.0368 5.69808 12.0862 5.72024C12.1356 5.74308 12.1893 5.75492 12.2437 5.75492C12.2981 5.75492 12.3519 5.74308 12.4012 5.72024C13.0093 5.4315 13.6744 5.28285 14.3475 5.28524C15.0622 5.28524 15.7672 5.45121 16.4069 5.77007C17.0466 6.08894 17.6035 6.55199 18.0337 7.12274C18.0679 7.16713 18.1115 7.20331 18.1615 7.22862C18.2115 7.25393 18.2665 7.26772 18.3225 7.26899C21.0562 7.30274 22.7175 10.6065 21.1537 12.8677H2.77873C2.19043 12.2044 1.86849 11.3468 1.87498 10.4602ZM21.0262 16.044C20.877 16.044 20.734 15.9847 20.6285 15.8792C20.523 15.7737 20.4637 15.6307 20.4637 15.4815C20.4637 15.3323 20.523 15.1892 20.6285 15.0837C20.734 14.9783 20.877 14.919 21.0262 14.919C21.1754 14.919 21.3185 14.9783 21.424 15.0837C21.5295 15.1892 21.5887 15.3323 21.5887 15.4815C21.5887 15.6307 21.5295 15.7737 21.424 15.8792C21.3185 15.9847 21.1754 16.044 21.0262 16.044Z" fill="#F8F9FA"/>
<path d="M15.9824 19.82C15.7025 19.8205 15.4301 19.9112 15.2059 20.0787C14.9816 20.2463 14.8173 20.4817 14.7374 20.75H12.5587V17.75C12.5587 17.6505 12.5192 17.5552 12.4488 17.4848C12.3785 17.4145 12.2831 17.375 12.1837 17.375C12.0842 17.375 11.9888 17.4145 11.9185 17.4848C11.8482 17.5552 11.8087 17.6505 11.8087 17.75V20.75H9.74993C9.65994 20.451 9.46541 20.1943 9.20186 20.0268C8.93831 19.8593 8.62331 19.7921 8.31437 19.8376C8.00542 19.8831 7.72313 20.0382 7.51904 20.2745C7.31494 20.5109 7.20264 20.8127 7.20264 21.125C7.20264 21.4373 7.31494 21.7391 7.51904 21.9755C7.72313 22.2118 8.00542 22.3669 8.31437 22.4124C8.62331 22.4579 8.93831 22.3907 9.20186 22.2232C9.46541 22.0557 9.65994 21.799 9.74993 21.5H14.7412C14.8114 21.7307 14.9443 21.9374 15.1252 22.097C15.306 22.2565 15.5276 22.3627 15.7653 22.4036C16.003 22.4445 16.2474 22.4186 16.4712 22.3287C16.695 22.2388 16.8894 22.0885 17.0327 21.8945C17.176 21.7005 17.2626 21.4705 17.2828 21.2302C17.303 20.9899 17.256 20.7487 17.147 20.5335C17.0381 20.3183 16.8715 20.1377 16.6659 20.0117C16.4602 19.8857 16.2236 19.8193 15.9824 19.82ZM8.50118 21.6763C8.36235 21.6648 8.23289 21.6016 8.13852 21.4991C8.04415 21.3966 7.99176 21.2624 7.99176 21.1231C7.99176 20.9838 8.04415 20.8496 8.13852 20.7471C8.23289 20.6447 8.36235 20.5814 8.50118 20.57C8.64002 20.5814 8.76947 20.6447 8.86384 20.7471C8.95821 20.8496 9.0106 20.9838 9.0106 21.1231C9.0106 21.2624 8.95821 21.3966 8.86384 21.4991C8.76947 21.6016 8.64002 21.6648 8.50118 21.6763ZM15.9824 21.6763C15.8436 21.6648 15.7141 21.6016 15.6198 21.4991C15.5254 21.3966 15.473 21.2624 15.473 21.1231C15.473 20.9838 15.5254 20.8496 15.6198 20.7471C15.7141 20.6447 15.8436 20.5814 15.9824 20.57C16.1213 20.5814 16.2507 20.6447 16.3451 20.7471C16.4395 20.8496 16.4918 20.9838 16.4918 21.1231C16.4918 21.2624 16.4395 21.3966 16.3451 21.4991C16.2507 21.6016 16.1213 21.6648 15.9824 21.6763Z" fill="#F8F9FA"/>
</svg>
