<svg width="78" height="68" viewBox="0 0 78 68" fill="none" xmlns="http://www.w3.org/2000/svg">
<path d="M37.7267 20.6479C37.7267 19.9657 37.1738 19.4129 36.4918 19.4129C35.8098 19.4129 35.2568 19.9657 35.2568 20.6479C35.2568 22.9848 36.8652 24.953 39.0329 25.5046V26.1736C39.0329 26.8558 39.5859 27.4085 40.2679 27.4085C40.9499 27.4085 41.5028 26.8558 41.5028 26.1736V25.5046C43.6707 24.953 45.2789 22.9848 45.2789 20.6479C45.2789 18.311 43.6705 16.3427 41.5028 15.7913V10.8766C42.281 11.3114 42.809 12.1424 42.809 13.0957C42.809 13.7778 43.362 14.3306 44.044 14.3306C44.726 14.3306 45.2789 13.7778 45.2789 13.0957C45.2789 10.7587 43.6705 8.7905 41.5028 8.2389V7.5699C41.5028 6.88772 40.9499 6.33496 40.2679 6.33496C39.5859 6.33496 39.0329 6.88772 39.0329 7.5699V8.2389C36.8651 8.7905 35.2568 10.7587 35.2568 13.0957C35.2568 15.4326 36.8652 17.4008 39.0329 17.9524V22.8669C38.2548 22.4319 37.7267 21.6009 37.7267 20.6479ZM42.8092 20.6479C42.8092 21.6009 42.2811 22.4321 41.503 22.8669V18.4289C42.2811 18.8638 42.8092 19.6946 42.8092 20.6479ZM37.7267 13.0955C37.7267 12.1424 38.2548 11.3113 39.0329 10.8764V15.3144C38.2548 14.8797 37.7267 14.0485 37.7267 13.0955Z" fill="#FF6767"/>
<path d="M74.4119 42.487C71.8044 39.4181 68.1577 37.5483 64.1428 37.2214C62.9947 37.1286 61.8557 37.1645 60.7351 37.3289C59.7631 33.0768 57.5112 29.2167 54.277 26.2626C56.0835 23.5765 57.1389 20.3451 57.1389 16.8717C57.1389 7.56867 49.5704 0 40.2674 0C30.9644 0 23.3962 7.56883 23.3962 16.8718C23.3962 20.113 24.3157 23.143 25.9063 25.7163C23.5747 27.6925 21.6732 30.1525 20.3612 32.9028C19.8166 32.805 19.2682 32.7337 18.7188 32.6886C9.20304 31.9186 0.831989 39.0281 0.0574383 48.543C-0.715137 58.0584 6.39677 66.4299 15.9122 67.2047C18.3565 67.4027 27.0268 67.4502 34.7743 67.4502C37.4671 67.4502 40.0494 67.4446 42.2188 67.4373C42.4374 67.4367 64.132 67.3576 65.2559 67.1831C68.5438 66.6703 71.6183 65.0382 73.9131 62.5876C76.2394 60.1034 77.6728 56.8659 77.9492 53.4714C78.2757 49.457 77.0196 45.5562 74.4119 42.487ZM40.2676 4.9399C46.8468 4.9399 52.1994 10.2926 52.1994 16.8718C52.1994 23.4511 46.8468 28.8036 40.2676 28.8036C33.6883 28.8036 28.3358 23.4511 28.3358 16.8718C28.3358 10.2926 33.6885 4.9399 40.2676 4.9399ZM73.0256 53.0704C72.6443 57.7548 69.1748 61.5342 64.5779 62.2891C62.2083 62.4161 21.8865 62.733 16.3121 62.281C9.51193 61.7273 4.42878 55.7438 4.98088 48.9431C5.53446 42.1431 11.5191 37.0589 18.3178 37.612C19.2496 37.6881 20.1795 37.8723 21.0813 38.1593C22.353 38.5631 23.7171 37.8847 24.1602 36.6252C25.1306 33.8659 26.8494 31.3904 29.085 29.4934C32.0643 32.136 35.9814 33.7435 40.2676 33.7435C44.3193 33.7435 48.0416 32.3075 50.9534 29.9184C53.978 32.6851 55.8854 36.4783 56.2641 40.5887C56.3339 41.3474 56.7503 42.0316 57.3922 42.4424C58.034 42.8531 58.8295 42.9446 59.5477 42.6905C60.8979 42.2125 62.3092 42.0293 63.7429 42.1454C66.4421 42.365 68.8942 43.6225 70.6475 45.6858C72.4006 47.749 73.2453 50.3717 73.0256 53.0704Z" fill="#FF6767"/>
<path d="M47.4764 43.3302H45.2303V36.7055C45.2303 35.7963 44.4931 35.059 43.5837 35.059H36.9509C36.0415 35.059 35.3043 35.7963 35.3043 36.7055V43.3302H33.0582C32.4699 43.3302 31.9264 43.6441 31.6323 44.1535C31.3381 44.663 31.3381 45.2906 31.6323 45.8001L38.8414 58.2864C39.1354 58.7959 39.679 59.1097 40.2673 59.1097C40.8556 59.1097 41.3992 58.7959 41.6932 58.2864L48.9023 45.8001C49.1965 45.2906 49.1965 44.663 48.9023 44.1535C48.6082 43.6442 48.0647 43.3302 47.4764 43.3302ZM40.2673 54.17L35.9103 46.6234H36.9509C37.8603 46.6234 38.5975 45.886 38.5975 44.9768V38.3521H41.9371V44.9768C41.9371 45.886 42.6743 46.6234 43.5837 46.6234H44.6243L40.2673 54.17Z" fill="#FF6767"/>
</svg>
