<svg width="40" height="40" viewBox="0 0 40 40" fill="none" xmlns="http://www.w3.org/2000/svg">
<g clip-path="url(#clip0_1100_64365)">
<path d="M33.1702 21.9354C33.5848 19.2809 33.1749 16.563 31.9959 14.1489C30.8168 11.7347 28.9253 9.74043 26.5768 8.4354C26.5768 8.4004 26.5868 8.36874 26.5868 8.33374C26.5868 6.58684 25.8929 4.9115 24.6577 3.67626C23.4224 2.44102 21.7471 1.74707 20.0002 1.74707C18.2533 1.74707 16.5779 2.44102 15.3427 3.67626C14.1075 4.9115 13.4135 6.58684 13.4135 8.33374C13.4135 8.36707 13.4235 8.4004 13.4235 8.43374C11.0747 9.73887 9.18305 11.7334 8.00396 14.1479C6.82487 16.5624 6.41516 19.2806 6.83017 21.9354C5.77663 22.1801 4.7997 22.6808 3.9859 23.3932C3.17211 24.1056 2.54658 25.0078 2.16472 26.0197C1.78287 27.0316 1.65648 28.1221 1.79676 29.1945C1.93703 30.267 2.33964 31.2883 2.96891 32.168C3.59818 33.0476 4.43469 33.7585 5.40434 34.2377C6.37399 34.7168 7.44685 34.9494 8.52788 34.9149C9.6089 34.8804 10.6647 34.5798 11.6018 34.0397C12.5389 33.4996 13.3283 32.7368 13.9002 31.8187C15.7809 32.8091 17.8746 33.3267 20.0002 33.3267C22.1258 33.3267 24.2194 32.8091 26.1002 31.8187C26.6723 32.7359 27.4616 33.4979 28.3984 34.0372C29.3352 34.5765 30.3906 34.8766 31.471 34.9108C32.5514 34.945 33.6236 34.7122 34.5926 34.2332C35.5616 33.7542 36.3976 33.0436 37.0265 32.1645C37.6555 31.2853 38.0579 30.2646 38.1983 29.1928C38.3386 28.121 38.2126 27.0311 37.8312 26.0196C37.4499 25.0082 36.8251 24.1063 36.0121 23.3939C35.1991 22.6815 34.223 22.1806 33.1702 21.9354ZM20.0002 3.41874C20.9719 3.41874 21.9217 3.70686 22.7297 4.24667C23.5377 4.78648 24.1674 5.55374 24.5393 6.45143C24.9113 7.34913 25.0087 8.33695 24.8192 9.29C24.6298 10.243 24.162 11.1185 23.475 11.8057C22.788 12.4929 21.9127 12.961 20.9597 13.1508C20.0068 13.3406 19.0189 13.2435 18.1211 12.8719C17.2233 12.5003 16.4558 11.8708 15.9157 11.063C15.3756 10.2552 15.0872 9.30543 15.0868 8.33374C15.0882 7.03105 15.6062 5.78209 16.5274 4.86095C17.4485 3.93981 18.6975 3.42006 20.0002 3.41874ZM8.33351 33.2487C7.36181 33.2487 6.41194 32.9606 5.60398 32.4208C4.79602 31.881 4.16627 31.1137 3.79434 30.216C3.42241 29.3183 3.32501 28.3305 3.51446 27.3775C3.70391 26.4244 4.17169 25.5489 4.85867 24.8617C5.54564 24.1745 6.42096 23.7065 7.37394 23.5167C8.32693 23.3269 9.31478 23.424 10.2126 23.7956C11.1104 24.1672 11.8779 24.7967 12.418 25.6045C12.9581 26.4123 13.2465 27.362 13.2468 28.3337C13.2455 29.6364 12.7274 30.8854 11.8063 31.8065C10.8852 32.7277 9.6362 33.2474 8.33351 33.2487ZM14.5835 30.3154C14.7979 29.6763 14.9115 29.0078 14.9202 28.3337C14.9171 26.6131 14.2408 24.9621 13.0361 23.7336C11.8313 22.5052 10.1937 21.797 8.47351 21.7604C8.38085 21.1782 8.33182 20.5899 8.32684 20.0004C8.32732 18.0444 8.8212 16.1201 9.76277 14.4057C10.7043 12.6912 12.0632 11.242 13.7135 10.1921C14.107 11.5553 14.933 12.7537 16.0669 13.6066C17.2008 14.4595 18.5813 14.9207 20.0002 14.9207C21.4191 14.9207 22.7995 14.4595 23.9334 13.6066C25.0674 12.7537 25.8933 11.5553 26.2868 10.1921C27.9372 11.242 29.296 12.6912 30.2376 14.4057C31.1791 16.1201 31.673 18.0444 31.6735 20.0004C31.6685 20.5899 31.6195 21.1782 31.5268 21.7604C29.8066 21.797 28.169 22.5052 26.9643 23.7336C25.7595 24.9621 25.0833 26.6131 25.0802 28.3337C25.089 29.0072 25.2026 29.6752 25.4168 30.3137C23.7403 31.1723 21.8837 31.6201 20.0002 31.6201C18.1166 31.6201 16.26 31.174 14.5835 30.3154ZM31.6668 33.2471C30.6951 33.2471 29.7451 32.9589 28.9371 32.419C28.1291 31.8791 27.4994 31.1118 27.1275 30.214C26.7556 29.3162 26.6583 28.3283 26.8479 27.3752C27.0375 26.4221 27.5054 25.5466 28.1926 24.8595C28.8797 24.1723 29.7552 23.7044 30.7083 23.5148C31.6614 23.3252 32.6493 23.4225 33.5471 23.7944C34.4449 24.1663 35.2122 24.796 35.7521 25.604C36.292 26.412 36.5802 27.362 36.5802 28.3337C36.5788 29.6364 36.0608 30.8854 35.1396 31.8065C34.2185 32.7277 32.9695 33.2457 31.6668 33.2471Z" fill="#07A7D5"/>
</g>
<defs>
<clipPath id="clip0_1100_64365">
<rect width="40" height="40" fill="white"/>
</clipPath>
</defs>
</svg>
