<svg width="82" height="82" viewBox="0 0 82 82" fill="none" xmlns="http://www.w3.org/2000/svg">
<path d="M40.8333 36.75C46.2482 36.75 51.4412 38.901 55.2701 42.7299C59.099 46.5588 61.25 51.7518 61.25 57.1667V81.6667H53.0833V57.1667C53.0835 54.0421 51.8897 51.0355 49.7461 48.7621C47.6025 46.4887 44.6712 45.1204 41.552 44.9371L40.8333 44.9167C37.7087 44.9165 34.7021 46.1103 32.4288 48.2539C30.1554 50.3975 28.7871 53.3288 28.6038 56.448L28.5833 57.1667V81.6667H20.4167V57.1667C20.4167 51.7518 22.5677 46.5588 26.3966 42.7299C30.2254 38.901 35.4185 36.75 40.8333 36.75ZM14.2917 49C15.4309 49 16.5375 49.1348 17.5992 49.3838C16.901 51.4623 16.4876 53.6257 16.3701 55.8151L16.3333 57.1667V57.5178C15.864 57.3499 15.3758 57.2402 14.8797 57.1912L14.2917 57.1667C12.7691 57.1667 11.3011 57.7339 10.174 58.7576C9.04684 59.7813 8.34142 61.1881 8.19525 62.7037L8.16667 63.2917V81.6667H0V63.2917C0 59.5013 1.50572 55.8661 4.18593 53.1859C6.86614 50.5057 10.5013 49 14.2917 49ZM67.375 49C71.1654 49 74.8005 50.5057 77.4807 53.1859C80.1609 55.8661 81.6667 59.5013 81.6667 63.2917V81.6667H73.5V63.2917C73.4999 61.7691 72.9328 60.3011 71.9091 59.174C70.8854 58.0468 69.4786 57.3414 67.963 57.1953L67.375 57.1667C66.6604 57.1667 65.9744 57.2892 65.3333 57.5137V57.1667C65.3333 54.4472 64.8923 51.8338 64.0716 49.392C65.1292 49.1348 66.2357 49 67.375 49ZM14.2917 24.5C16.9991 24.5 19.5956 25.5755 21.51 27.49C23.4245 29.4044 24.5 32.0009 24.5 34.7083C24.5 37.4158 23.4245 40.0123 21.51 41.9267C19.5956 43.8412 16.9991 44.9167 14.2917 44.9167C11.5842 44.9167 8.98772 43.8412 7.07329 41.9267C5.15885 40.0123 4.08333 37.4158 4.08333 34.7083C4.08333 32.0009 5.15885 29.4044 7.07329 27.49C8.98772 25.5755 11.5842 24.5 14.2917 24.5ZM67.375 24.5C70.0824 24.5 72.6789 25.5755 74.5934 27.49C76.5078 29.4044 77.5833 32.0009 77.5833 34.7083C77.5833 37.4158 76.5078 40.0123 74.5934 41.9267C72.6789 43.8412 70.0824 44.9167 67.375 44.9167C64.6676 44.9167 62.0711 43.8412 60.1566 41.9267C58.2422 40.0123 57.1667 37.4158 57.1667 34.7083C57.1667 32.0009 58.2422 29.4044 60.1566 27.49C62.0711 25.5755 64.6676 24.5 67.375 24.5ZM14.2917 32.6667C13.7502 32.6667 13.2309 32.8818 12.848 33.2647C12.4651 33.6475 12.25 34.1669 12.25 34.7083C12.25 35.2498 12.4651 35.7691 12.848 36.152C13.2309 36.5349 13.7502 36.75 14.2917 36.75C14.8332 36.75 15.3525 36.5349 15.7353 36.152C16.1182 35.7691 16.3333 35.2498 16.3333 34.7083C16.3333 34.1669 16.1182 33.6475 15.7353 33.2647C15.3525 32.8818 14.8332 32.6667 14.2917 32.6667ZM67.375 32.6667C66.8335 32.6667 66.3142 32.8818 65.9313 33.2647C65.5484 33.6475 65.3333 34.1669 65.3333 34.7083C65.3333 35.2498 65.5484 35.7691 65.9313 36.152C66.3142 36.5349 66.8335 36.75 67.375 36.75C67.9165 36.75 68.4358 36.5349 68.8187 36.152C69.2016 35.7691 69.4167 35.2498 69.4167 34.7083C69.4167 34.1669 69.2016 33.6475 68.8187 33.2647C68.4358 32.8818 67.9165 32.6667 67.375 32.6667ZM40.8333 0C45.1652 0 49.3197 1.72083 52.3827 4.78392C55.4458 7.84702 57.1667 12.0015 57.1667 16.3333C57.1667 20.6652 55.4458 24.8197 52.3827 27.8827C49.3197 30.9458 45.1652 32.6667 40.8333 32.6667C36.5015 32.6667 32.347 30.9458 29.2839 27.8827C26.2208 24.8197 24.5 20.6652 24.5 16.3333C24.5 12.0015 26.2208 7.84702 29.2839 4.78392C32.347 1.72083 36.5015 0 40.8333 0ZM40.8333 8.16667C38.6674 8.16667 36.5902 9.02708 35.0586 10.5586C33.5271 12.0902 32.6667 14.1674 32.6667 16.3333C32.6667 18.4993 33.5271 20.5765 35.0586 22.108C36.5902 23.6396 38.6674 24.5 40.8333 24.5C42.9993 24.5 45.0765 23.6396 46.608 22.108C48.1396 20.5765 49 18.4993 49 16.3333C49 14.1674 48.1396 12.0902 46.608 10.5586C45.0765 9.02708 42.9993 8.16667 40.8333 8.16667Z" fill="#0B78EB"/>
</svg>
