<svg width="81" height="81" viewBox="0 0 81 81" fill="none" xmlns="http://www.w3.org/2000/svg">
<path d="M70.132 77.8864H67.0858C66.7029 77.8864 66.3357 77.7343 66.0649 77.4636C65.7942 77.1928 65.6421 76.8256 65.6421 76.4427C65.6421 76.0598 65.7942 75.6926 66.0649 75.4219C66.3357 75.1511 66.7029 74.999 67.0858 74.999H70.132C71.1374 75.0009 72.1332 74.8043 73.0624 74.4205C73.9916 74.0366 74.8359 73.4731 75.5468 72.7622C76.2577 72.0513 76.8212 71.207 77.2051 70.2778C77.5889 69.3486 77.7855 68.3528 77.7836 67.3474C77.778 65.5879 77.1683 63.8837 76.0567 62.5198C74.9451 61.156 73.3989 60.2151 71.6768 59.8546C71.2939 59.778 70.9571 59.5525 70.7405 59.2276C70.5239 58.9027 70.4452 58.505 70.5218 58.1222C70.5984 57.7393 70.8239 57.4025 71.1488 57.1859C71.4737 56.9693 71.8713 56.8906 72.2542 56.9672C74.8831 57.4211 77.242 58.8551 78.8551 60.9799C80.4682 63.1047 81.2155 65.7621 80.9463 68.4163C80.677 71.0704 79.4112 73.5237 77.4043 75.2812C75.3973 77.0387 72.7985 77.9697 70.132 77.8864Z" fill="#FBE735"/>
<path d="M48.9094 77.8864H45.8776C43.2677 77.8856 40.7509 76.9165 38.8146 75.1666C36.8783 73.4167 35.6601 71.0105 35.3959 68.414C35.1318 65.8175 35.8405 63.2154 37.3848 61.1114C38.9291 59.0074 41.1991 57.5513 43.7554 57.0249C44.1383 56.9484 44.5359 57.027 44.8608 57.2436C45.1857 57.4602 45.4112 57.797 45.4878 58.1799C45.5644 58.5628 45.4857 58.9604 45.2691 59.2853C45.0525 59.6102 44.7157 59.8358 44.3328 59.9123C42.6166 60.2633 41.0732 61.1936 39.9614 62.5473C38.8495 63.9009 38.2368 65.5957 38.226 67.3474C38.2298 69.3756 39.0372 71.3196 40.4713 72.7537C41.9054 74.1878 43.8494 74.9952 45.8776 74.999H48.9094C49.2923 74.999 49.6595 75.1511 49.9302 75.4219C50.201 75.6926 50.3531 76.0598 50.3531 76.4427C50.3531 76.8256 50.201 77.1928 49.9302 77.4636C49.6595 77.7343 49.2923 77.8864 48.9094 77.8864Z" fill="#FBE735"/>
<path d="M58.0051 80.9182C54.4156 80.9277 50.9219 79.7614 48.0579 77.5977C47.9063 77.4839 47.7785 77.3414 47.6819 77.1783C47.5853 77.0152 47.5218 76.8346 47.495 76.6469C47.4682 76.4592 47.4786 76.2681 47.5256 76.0844C47.5727 75.9008 47.6555 75.7282 47.7692 75.5765C47.883 75.4248 48.0255 75.2971 48.1886 75.2005C48.3518 75.1039 48.5323 75.0404 48.72 75.0135C48.9077 74.9867 49.0988 74.9971 49.2825 75.0442C49.4661 75.0913 49.6387 75.174 49.7904 75.2878C52.1603 77.0716 55.0461 78.0362 58.0123 78.0362C60.9785 78.0362 63.8642 77.0716 66.2342 75.2878C66.5405 75.058 66.9255 74.9594 67.3045 75.0135C67.6836 75.0677 68.0256 75.2702 68.2553 75.5765C68.4851 75.8828 68.5837 76.2679 68.5296 76.6469C68.4754 77.0259 68.2729 77.368 67.9666 77.5977C65.0987 79.7644 61.5994 80.9309 58.0051 80.9182Z" fill="#FBE735"/>
<path d="M72.0086 59.8835C71.7252 59.8833 71.4481 59.7997 71.212 59.6431C70.9758 59.4865 70.7909 59.2638 70.6804 59.0029C69.6357 56.5148 67.8795 54.3906 65.6322 52.8968C63.3849 51.403 60.7465 50.6062 58.048 50.6062C55.3495 50.6062 52.7111 51.403 50.4638 52.8968C48.2164 54.3906 46.4603 56.5148 45.4156 59.0029C45.3379 59.1801 45.226 59.3403 45.0863 59.4744C44.9467 59.6084 44.782 59.7136 44.6017 59.784C44.4214 59.8544 44.229 59.8885 44.0354 59.8846C43.8419 59.8806 43.6511 59.8385 43.4738 59.7608C43.2966 59.6831 43.1363 59.5712 43.0023 59.4315C42.8683 59.2919 42.7631 59.1272 42.6927 58.9469C42.6223 58.7666 42.5881 58.5742 42.5921 58.3806C42.5961 58.1871 42.6381 57.9963 42.7159 57.819C43.9825 54.8101 46.1087 52.2418 48.8284 50.4359C51.548 48.6299 54.74 47.6666 58.0047 47.6666C61.2693 47.6666 64.4614 48.6299 67.181 50.4359C69.9006 52.2418 72.0269 54.8101 73.2935 57.819C73.4425 58.1713 73.4456 58.5683 73.3022 58.9229C73.1587 59.2775 72.8804 59.5607 72.5283 59.7103C72.3692 59.8039 72.1921 59.8629 72.0086 59.8835Z" fill="#FBE735"/>
<path d="M31.123 70.668H30.5744C27.9645 70.6672 25.4477 69.6981 23.5114 67.9482C21.575 66.1983 20.3569 63.7921 20.0927 61.1956C19.8286 58.5991 20.5373 55.997 22.0815 53.893C23.6258 51.789 25.8959 50.3329 28.4521 49.8065C28.6417 49.7686 28.8369 49.7684 29.0266 49.8059C29.2163 49.8435 29.3967 49.918 29.5576 50.0252C29.7184 50.1325 29.8566 50.2704 29.9642 50.431C30.0718 50.5917 30.1467 50.7719 30.1846 50.9615C30.2225 51.1511 30.2227 51.3463 30.1852 51.536C30.1477 51.7256 30.0732 51.9061 29.9659 52.0669C29.8587 52.2278 29.7208 52.366 29.5601 52.4736C29.3995 52.5811 29.2192 52.656 29.0296 52.6939C27.3134 53.0449 25.77 53.9752 24.6582 55.3289C23.5463 56.6826 22.9336 58.3773 22.9228 60.129C22.9266 62.1572 23.734 64.1012 25.1681 65.5353C26.6022 66.9694 28.5462 67.7768 30.5744 67.7806H31.123C31.5059 67.7806 31.8731 67.9327 32.1438 68.2035C32.4146 68.4742 32.5667 68.8414 32.5667 69.2243C32.5667 69.6072 32.4146 69.9744 32.1438 70.2452C31.8731 70.5159 31.5059 70.668 31.123 70.668Z" fill="#FBE735"/>
<path d="M28.6979 52.6649C28.504 52.6684 28.3117 52.629 28.1349 52.5494C27.9571 52.4716 27.7969 52.3588 27.6638 52.2177C27.5306 52.0767 27.4273 51.9102 27.3599 51.7283C27.2925 51.5463 27.2625 51.3527 27.2716 51.1589C27.2807 50.9652 27.3288 50.7752 27.413 50.6004C28.3621 48.3428 29.7998 46.3235 31.6225 44.6879C33.4453 43.0523 35.6079 41.8409 37.9548 41.141C40.3017 40.4411 42.7745 40.2699 45.1955 40.6399C47.6164 41.01 49.9252 41.9119 51.9559 43.2809C52.2814 43.4934 52.5091 43.8264 52.589 44.2068C52.6688 44.5872 52.5943 44.9838 52.3818 45.3093C52.1693 45.6347 51.8362 45.8624 51.4558 45.9423C51.0754 46.0222 50.6789 45.9477 50.3534 45.7351C48.0995 44.1951 45.4316 43.3746 42.7018 43.3819C40.0133 43.389 37.3868 44.1903 35.1521 45.6852C32.9175 47.1801 31.1743 49.302 30.1416 51.7843C30.0241 52.0642 29.8214 52.3 29.5622 52.4581C29.303 52.6162 29.0006 52.6886 28.6979 52.6649Z" fill="#FBE735"/>
<path d="M15.7043 60.4466C15.4266 60.446 15.1549 60.3653 14.9219 60.2142C14.6889 60.0632 14.5044 59.8481 14.3905 59.5948L0.632064 28.714C0.243939 27.8486 0.0301681 26.9152 0.00296894 25.9671C-0.0242302 25.019 0.135676 24.0749 0.473548 23.1886C0.81142 22.3024 1.32063 21.4914 1.97208 20.8021C2.62353 20.1127 3.40445 19.5585 4.27019 19.1711L34.4724 5.7014C34.6468 5.60952 34.8381 5.55431 35.0346 5.53918C35.2311 5.52404 35.4286 5.5493 35.615 5.61339C35.8014 5.67749 35.9727 5.77907 36.1183 5.91187C36.2639 6.04467 36.3808 6.20588 36.4618 6.38557C36.5427 6.56526 36.586 6.75962 36.589 6.95668C36.592 7.15375 36.5546 7.34934 36.4792 7.5314C36.4037 7.71347 36.2918 7.87815 36.1502 8.01532C36.0087 8.15248 35.8406 8.25921 35.6563 8.32894L5.45403 21.7987C4.92747 22.0298 4.45221 22.3635 4.05598 22.7802C3.65974 23.197 3.35047 23.6885 3.1462 24.226C2.94193 24.7636 2.84676 25.3364 2.86623 25.9112C2.8857 26.4859 3.01942 27.051 3.2596 27.5735L17.0614 58.4543C17.2176 58.8028 17.2294 59.199 17.0941 59.5562C16.9588 59.9134 16.6875 60.2024 16.3395 60.3599C16.137 60.4361 15.9199 60.4657 15.7043 60.4466Z" fill="#FBE735"/>
<path d="M19.5591 43.5553C18.7805 43.5543 18.0165 43.3435 17.3476 42.9449C16.6787 42.5464 16.1297 41.9749 15.7582 41.2906C15.3867 40.6064 15.2065 39.8346 15.2366 39.0566C15.2668 38.2785 15.5061 37.523 15.9294 36.8695C16.3527 36.216 16.9443 35.6887 17.642 35.3431C18.3398 34.9975 19.1177 34.8464 19.8941 34.9056C20.6704 34.9649 21.4165 35.2323 22.0537 35.6798C22.6908 36.1273 23.1956 36.7383 23.5148 37.4484C23.755 37.9709 23.8887 38.536 23.9082 39.1107C23.9277 39.6855 23.8325 40.2583 23.6282 40.7959C23.424 41.3334 23.1147 41.8249 22.7185 42.2417C22.3222 42.6584 21.847 42.9921 21.3204 43.2232C20.762 43.4527 20.1627 43.5657 19.5591 43.5553ZM19.5591 37.7805C19.3564 37.7825 19.1558 37.8217 18.9672 37.896C18.7918 37.9726 18.6335 38.0833 18.5013 38.2217C18.3691 38.36 18.2658 38.5233 18.1973 38.702C18.1288 38.8806 18.0965 39.0711 18.1022 39.2624C18.108 39.4537 18.1517 39.6419 18.2309 39.8161C18.3089 39.9902 18.4205 40.1471 18.5595 40.2777C18.6984 40.4084 18.8619 40.5102 19.0405 40.5773C19.219 40.6445 19.4091 40.6755 19.5997 40.6688C19.7903 40.662 19.9777 40.6175 20.151 40.5379C20.4989 40.3804 20.7703 40.0914 20.9056 39.7342C21.0409 39.377 21.0291 38.9808 20.8729 38.6323C20.759 38.379 20.5745 38.1639 20.3415 38.0128C20.1085 37.8617 19.8368 37.781 19.5591 37.7805Z" fill="#FBE735"/>
<path d="M21.2048 38.3002C20.9426 38.2972 20.6863 38.2228 20.4632 38.0851C20.2401 37.9474 20.0587 37.7515 19.9385 37.5185C19.8183 37.2855 19.7638 37.0242 19.7809 36.7626C19.798 36.501 19.8859 36.249 20.0354 36.0336L25.3193 28.483C25.546 28.1907 25.8762 27.9965 26.2418 27.9405C26.6075 27.8845 26.9806 27.971 27.2844 28.1821C27.5881 28.3932 27.7992 28.7129 27.8741 29.0751C27.9491 29.4374 27.8821 29.8146 27.687 30.1288L22.4031 37.6794C22.269 37.8727 22.0898 38.0302 21.8809 38.1384C21.6721 38.2466 21.44 38.3022 21.2048 38.3002Z" fill="#FBE735"/>
<path d="M22.6196 40.8843H22.3164C22.1268 40.8711 21.9417 40.8206 21.7716 40.7358C21.6015 40.651 21.4498 40.5335 21.3251 40.39C21.2005 40.2466 21.1053 40.08 21.045 39.8998C20.9847 39.7195 20.9605 39.5292 20.9737 39.3396C20.987 39.15 21.0375 38.9649 21.1223 38.7948C21.2071 38.6247 21.3246 38.473 21.4681 38.3483C21.6115 38.2237 21.7781 38.1285 21.9583 38.0682C22.1386 38.0079 22.3289 37.9837 22.5185 37.9969H22.7206C23.1035 38.0103 23.4654 38.1753 23.7267 38.4555C23.988 38.7357 24.1272 39.1083 24.1138 39.4912C24.1004 39.8741 23.9354 40.236 23.6552 40.4972C23.375 40.7585 23.0025 40.8977 22.6196 40.8843Z" fill="#FBE735"/>
<path d="M19.4434 51.6977C19.1036 51.7039 18.7725 51.59 18.5084 51.3761C18.2443 51.1622 18.0642 50.862 17.9997 50.5283C17.7395 49.1902 17.8544 47.8061 18.3317 46.5293L34.2991 4.66191C34.6354 3.7738 35.1437 2.96078 35.7948 2.26945C36.4459 1.57812 37.227 1.02206 38.0934 0.633127C38.9597 0.244198 39.8944 0.0300459 40.8436 0.00294093C41.7929 -0.024164 42.7382 0.136312 43.6254 0.475172L76.0365 12.9199C77.824 13.6021 79.2676 14.9662 80.0499 16.7123C80.8323 18.4583 80.8894 20.4436 80.2088 22.2318L70.6515 47.2078C70.4951 47.5369 70.2201 47.7947 69.8816 47.9295C69.5431 48.0643 69.1661 48.0661 68.8263 47.9346C68.4865 47.803 68.209 47.5479 68.0495 47.2203C67.89 46.8927 67.8602 46.5169 67.9662 46.1683L77.509 21.2067C77.7133 20.6741 77.8102 20.1064 77.7944 19.5362C77.7786 18.966 77.6503 18.4045 77.4169 17.884C77.1835 17.3635 76.8495 16.8943 76.4343 16.5032C76.019 16.1121 75.5306 15.8069 74.997 15.6052L42.6292 3.23264C42.0966 3.02844 41.5289 2.93146 40.9587 2.94727C40.3885 2.96309 39.827 3.09139 39.3065 3.3248C38.786 3.55822 38.3168 3.89215 37.9257 4.30742C37.5346 4.7227 37.2294 5.21113 37.0277 5.74468L36.3635 7.52044L21.0603 47.5543C20.7694 48.3284 20.6995 49.1681 20.8582 49.9797C20.9302 50.3549 20.8507 50.7433 20.6369 51.0599C20.4231 51.3765 20.0926 51.5955 19.7177 51.6688L19.4434 51.6977Z" fill="#FBE735"/>
<path d="M40.2472 29.8689C39.7192 29.8654 39.196 29.7676 38.7024 29.5801C37.6941 29.1923 36.8671 28.4415 36.3838 27.4753C35.9005 26.509 35.7958 25.397 36.0902 24.3575C36.3846 23.318 37.0569 22.4261 37.9751 21.8568C38.8933 21.2875 39.9912 21.0819 41.0531 21.2804C42.1151 21.4789 43.0646 22.0672 43.7152 22.9297C44.3658 23.7922 44.6705 24.8668 44.5695 25.9424C44.4686 27.0181 43.9693 28.0172 43.1696 28.7436C42.3699 29.4701 41.3276 29.8714 40.2472 29.8689ZM40.2472 24.0941C39.9133 24.0998 39.5917 24.2211 39.3372 24.4374C39.0827 24.6536 38.9111 24.9514 38.8515 25.2799C38.7919 25.6085 38.8481 25.9476 39.0104 26.2395C39.1728 26.5313 39.4313 26.7578 39.7419 26.8804C39.923 26.9619 40.1189 27.0051 40.3174 27.0074C40.516 27.0097 40.7129 26.9711 40.8958 26.8938C41.0787 26.8166 41.2437 26.7025 41.3805 26.5586C41.5173 26.4147 41.623 26.2441 41.6909 26.0575C41.7605 25.8794 41.7939 25.6893 41.7894 25.4981C41.7849 25.307 41.7425 25.1187 41.6646 24.9441C41.5867 24.7695 41.4748 24.6121 41.3356 24.481C41.1964 24.35 41.0325 24.2479 40.8535 24.1807C40.6587 24.1138 40.453 24.0844 40.2472 24.0941Z" fill="#FBE735"/>
<path d="M65.1656 25.4657C64.3284 25.4655 63.5092 25.2226 62.8072 24.7666C62.1051 24.3105 61.5503 23.6607 61.2099 22.8959C60.8718 22.1154 60.771 21.2527 60.9201 20.4154C61.0691 19.578 61.4614 18.8031 62.048 18.1872C62.6346 17.5713 63.3896 17.1418 64.2187 16.9522C65.0478 16.7626 65.9144 16.8214 66.7104 17.1211C67.5098 17.4276 68.2005 17.9643 68.6951 18.6632C69.1896 19.3621 69.466 20.1919 69.4892 21.0478C69.5123 21.9037 69.2813 22.7473 68.8253 23.4719C68.3692 24.1966 67.7086 24.7698 66.9269 25.1192C66.3696 25.3536 65.7702 25.4715 65.1656 25.4657ZM65.1656 19.6909C64.9629 19.6929 64.7623 19.7321 64.5737 19.8064C64.399 19.8838 64.2414 19.9951 64.1101 20.1339C63.9787 20.2727 63.8762 20.4362 63.8085 20.6148C63.6719 20.9728 63.6719 21.3685 63.8085 21.7265C63.8865 21.9006 63.9982 22.0575 64.1371 22.1881C64.2761 22.3188 64.4396 22.4206 64.6181 22.4878C64.7966 22.5549 64.9867 22.5859 65.1773 22.5792C65.3679 22.5724 65.5553 22.528 65.7287 22.4483C66.0733 22.2923 66.3428 22.0071 66.4794 21.6543C66.5467 21.477 66.5785 21.2883 66.5728 21.0987C66.5672 20.9092 66.5242 20.7226 66.4465 20.5497C66.3687 20.3767 66.2577 20.2208 66.1196 20.0908C65.9816 19.9608 65.8193 19.8592 65.642 19.7919C65.4901 19.7315 65.329 19.6973 65.1656 19.6909Z" fill="#FBE735"/>
<path d="M43.1346 26.4763C42.7517 26.5088 42.3716 26.3879 42.0778 26.1402C41.7841 25.8925 41.6007 25.5382 41.5682 25.1553C41.5357 24.7724 41.6565 24.3923 41.9043 24.0985C42.152 23.8047 42.5063 23.6214 42.8892 23.5889L62.076 20.2828C62.2656 20.2506 62.4597 20.256 62.6471 20.2988C62.8346 20.3415 63.0119 20.4208 63.1687 20.5321C63.3256 20.6434 63.459 20.7844 63.5613 20.9473C63.6636 21.1101 63.7329 21.2915 63.7651 21.4811C63.7973 21.6707 63.7919 21.8647 63.7491 22.0522C63.7064 22.2397 63.6271 22.417 63.5158 22.5738C63.4045 22.7307 63.2635 22.8641 63.1006 22.9664C62.9378 23.0687 62.7564 23.138 62.5668 23.1702L43.38 26.4474C43.3007 26.472 43.2175 26.4818 43.1346 26.4763Z" fill="#FBE735"/>
<path d="M51.0608 39.3686C50.8558 39.3683 50.6532 39.3244 50.4665 39.2398C50.2798 39.1551 50.1133 39.0317 49.978 38.8777L41.0848 28.6707C40.8321 28.3817 40.7046 28.004 40.7303 27.6209C40.756 27.2378 40.9329 26.8806 41.222 26.6279C41.5111 26.3752 41.8887 26.2477 42.2718 26.2734C42.6549 26.2991 43.0121 26.476 43.2648 26.7651L52.158 36.972C52.4086 37.2612 52.5342 37.638 52.5071 38.0197C52.4801 38.4014 52.3026 38.7568 52.0136 39.0076C51.7504 39.2398 51.4117 39.3681 51.0608 39.3686Z" fill="#FBE735"/>
</svg>
