<svg width="72" height="72" viewBox="0 0 72 72" fill="none" xmlns="http://www.w3.org/2000/svg">
<path d="M67.9358 2.32264C67.0532 2.32264 66.2414 2.61285 65.5737 3.09255C64.8559 1.9383 63.5856 1.16132 62.1292 1.16132C61.2466 1.16132 60.4348 1.45153 59.767 1.93123C59.0496 0.776978 57.7792 0 56.3228 0C54.0816 0 52.2582 1.82319 52.2582 4.06463V17.3857C49.4583 15.8656 46.4657 15.0967 43.3337 15.0967C36.8781 15.0967 32.1899 17.9976 29.3946 20.4317C28.3611 21.3306 27.8083 22.6336 27.8768 24.0061C27.9465 25.3881 28.634 26.6424 29.7651 27.4423C31.4512 28.6348 33.7297 28.5119 35.3044 27.145C36.9291 25.7352 39.6395 24.0558 43.3337 24.0558C48.0056 24.0558 51.1376 27.4642 52.2582 28.9148V40.7636C51.1376 42.2141 48.0056 45.6213 43.3337 45.6213C39.6385 45.6213 36.9279 43.942 35.3044 42.5346C33.7285 41.1642 31.4488 41.0457 29.7651 42.2361C28.634 43.0362 27.9453 44.2905 27.8768 45.6722C27.8083 47.045 28.3611 48.3478 29.3946 49.2467C32.1911 51.6796 36.8781 54.5804 43.3337 54.5804C45.1825 54.5804 47.0057 54.3041 48.7745 53.7583V72H68.5165V49.6205C70.6811 48.1039 72.0004 45.613 72.0004 42.9674V6.38654C72.0004 4.14584 70.1772 2.32264 67.9358 2.32264ZM69.6778 42.9679C69.6778 45.0189 68.564 46.9406 66.7711 47.9837L66.1938 48.3192V69.6778H51.0969V50.377L49.4954 51.0343C47.5154 51.8471 45.4424 52.2583 43.3334 52.2583C37.5966 52.2583 33.4149 49.6686 30.9191 47.4947C30.4267 47.065 30.1631 46.4436 30.1955 45.7876C30.2292 45.1211 30.5601 44.516 31.1059 44.1305C31.9141 43.5569 33.0152 43.6208 33.7814 44.2873C35.7034 45.9549 38.9213 47.942 43.3332 47.942C49.4615 47.942 53.3227 43.263 54.3597 41.8278L54.5804 41.5259V28.1524L54.3597 27.8481C53.3227 26.4139 49.4612 21.7327 43.3332 21.7327C38.9237 21.7327 35.7046 23.7208 33.7814 25.3896C33.0162 26.0539 31.9163 26.1178 31.1059 25.5452C30.5601 25.1596 30.2292 24.5546 30.1955 23.8881C30.1631 23.233 30.4267 22.6107 30.9191 22.181C33.4159 20.0093 37.5966 17.4196 43.3334 17.4196C46.6769 17.4196 49.8495 18.4265 52.7655 20.4134L54.5806 21.6513V4.06463C54.5806 3.10426 55.3622 2.32264 56.3226 2.32264C57.283 2.32264 58.0646 3.10426 58.0646 4.06463V5.22595V27.8712H60.3872V5.22595C60.3872 4.26558 61.1688 3.48397 62.1292 3.48397C63.0896 3.48397 63.8712 4.26558 63.8712 5.22595V6.38727V27.8712H66.1938V6.38703C66.1938 5.42666 66.9754 4.64504 67.9358 4.64504C68.8962 4.64504 69.6778 5.42666 69.6778 6.38703V42.9679Z" fill="#FF51CE"/>
<path d="M1 29.769L1.22436 29.6709C1.22488 29.6706 1.22539 29.6704 1.2259 29.6702C1.22594 29.6702 1.22597 29.6701 1.226 29.6701C1.94581 29.3539 2.70702 29.1936 3.48372 29.1936C6.59789 29.1936 9.12901 31.7248 9.12901 34.8389C9.12901 37.9531 6.59789 40.4842 3.48372 40.4842C2.70666 40.4842 1.94549 40.3236 1.226 40.0077L1 29.769ZM1 29.769V24.3873C1 23.0188 2.11551 21.9033 3.48397 21.9033H7.06646H8.25424L8.05183 20.7329C7.99569 20.4083 7.96769 20.0776 7.96769 19.742C7.96769 16.4516 10.645 13.7743 13.9354 13.7743C17.2258 13.7743 19.9031 16.4516 19.9031 19.742C19.9031 20.078 19.8752 20.4085 19.819 20.7323L19.6158 21.9033H20.8043H24.3873C25.7557 21.9033 26.8712 23.0188 26.8712 24.3873V27.9698V29.1575L28.0416 28.9551C28.3662 28.899 28.6969 28.871 29.0326 28.871C32.323 28.871 35.0002 31.5483 35.0002 34.8387C35.0002 38.1291 32.323 40.8064 29.0326 40.8064C28.6965 40.8064 28.366 40.7785 28.0423 40.7223L26.8712 40.5191V41.7076V45.2901C26.8712 46.6591 25.7556 47.7745 24.3873 47.7745H19.0055L19.1038 47.5499C19.1039 47.5496 19.104 47.5494 19.1041 47.5492C19.4202 46.8295 19.5809 46.0681 19.5809 45.2908C19.5809 42.1766 17.0498 39.6455 13.9356 39.6455C10.8215 39.6455 8.29033 42.1766 8.29033 45.2908C8.29033 46.0678 8.45072 46.8293 8.76722 47.5494C8.76733 47.5497 8.76744 47.5499 8.76755 47.5502L8.86572 47.7745M1 29.769L8.86572 47.7745M1 39.9088L1.22468 40.0071L1 39.9088ZM1 39.9088V45.2906C1 46.659 2.11551 47.7745 3.48397 47.7745H8.86572M1 39.9088L8.86572 47.7745" stroke="#FF51CE" stroke-width="2"/>
</svg>
