<svg width="42" height="42" viewBox="0 0 42 42" fill="none" xmlns="http://www.w3.org/2000/svg">
<path d="M41 21C41 32.0457 32.0457 41 21 41C9.95431 41 1 32.0457 1 21C1 9.95431 9.95431 1 21 1C32.0457 1 41 9.95431 41 21Z" fill="white" fill-opacity="0.8" stroke="black" stroke-opacity="0.31"/>
<path d="M13.5738 27.2794L13.8567 27.5623L13.5738 27.2795C13.2972 27.5561 13.2972 28.0046 13.5738 28.2813C13.8505 28.5579 14.299 28.5579 14.5757 28.2813L28.2823 14.5747C28.5589 14.298 28.5589 13.8495 28.2823 13.5729C28.0056 13.2962 27.5571 13.2962 27.2804 13.5729L27.5633 13.8557L27.2804 13.5729L13.5738 27.2794Z" fill="black" stroke="black" stroke-width="0.8" stroke-linecap="round" stroke-linejoin="round"/>
<path d="M14.5753 13.5731L14.2937 13.8547L14.5753 13.5731L28.2819 27.2797L27.999 27.5625L28.2819 27.2797C28.5585 27.5563 28.5585 28.0049 28.2819 28.2815C28.0052 28.5582 27.5567 28.5582 27.28 28.2815L13.5735 14.5749C13.2968 14.2983 13.2968 13.8498 13.5735 13.5731C13.8501 13.2965 14.2986 13.2965 14.5753 13.5731Z" fill="black" stroke="black" stroke-width="0.8" stroke-linecap="round" stroke-linejoin="round"/>
</svg>
