<svg width="24" height="25" viewBox="0 0 24 25" fill="none" xmlns="http://www.w3.org/2000/svg">
<path fill-rule="evenodd" clip-rule="evenodd" d="M20.4226 12.4948C20.7155 12.7877 20.7155 13.2626 20.4226 13.5555L19.7874 14.1907C19.4945 14.4836 19.0196 14.4836 18.7268 14.1907C18.4339 13.8978 18.4339 13.4229 18.7268 13.13L19.3619 12.4948C19.6548 12.2019 20.1297 12.2019 20.4226 12.4948Z" fill="#F8F9FA" fill-opacity="0.9"/>
<path fill-rule="evenodd" clip-rule="evenodd" d="M13.6909 19.2265C13.9838 19.5194 13.9838 19.9943 13.6909 20.2872L13.0557 20.9224C12.7628 21.2152 12.288 21.2152 11.9951 20.9224C11.7022 20.6295 11.7022 20.1546 11.9951 19.8617L12.6303 19.2265C12.9231 18.9336 13.398 18.9336 13.6909 19.2265Z" fill="#F8F9FA" fill-opacity="0.9"/>
<path fill-rule="evenodd" clip-rule="evenodd" d="M16.2088 10.7494C16.623 10.7494 16.9588 11.0852 16.9588 11.4994V12.3977C16.9588 12.8119 16.623 13.1477 16.2088 13.1477C15.7946 13.1477 15.4588 12.8119 15.4588 12.3977V11.4994C15.4588 11.0852 15.7946 10.7494 16.2088 10.7494Z" fill="#F8F9FA" fill-opacity="0.9"/>
<path fill-rule="evenodd" clip-rule="evenodd" d="M11.9951 12.4948C12.288 12.2019 12.7628 12.2019 13.0557 12.4948L13.6909 13.13C13.9838 13.4229 13.9838 13.8978 13.6909 14.1907C13.398 14.4836 12.9231 14.4836 12.6303 14.1907L11.9951 13.5555C11.7022 13.2626 11.7022 12.7877 11.9951 12.4948Z" fill="#F8F9FA" fill-opacity="0.9"/>
<path fill-rule="evenodd" clip-rule="evenodd" d="M10.2497 16.7086C10.2497 16.2944 10.5855 15.9586 10.9997 15.9586H11.898C12.3122 15.9586 12.648 16.2944 12.648 16.7086C12.648 17.1228 12.3122 17.4586 11.898 17.4586H10.9997C10.5855 17.4586 10.2497 17.1228 10.2497 16.7086Z" fill="#F8F9FA" fill-opacity="0.9"/>
<path fill-rule="evenodd" clip-rule="evenodd" d="M15.0787 15.5785C15.4278 15.2293 15.9442 15.1074 16.4126 15.2636L20.8625 16.7469C21.3454 16.9078 21.6904 17.3352 21.7459 17.8412C21.8015 18.3472 21.5574 18.8392 21.1209 19.1011L19.6228 20C19.5725 20.0302 19.5305 20.0722 19.5003 20.1225L18.6014 21.6206C18.3395 22.0571 17.8475 22.3012 17.3415 22.2457C16.8355 22.1901 16.4081 21.8451 16.2471 21.3622L14.7638 16.9123C14.6077 16.444 14.7296 15.9276 15.0787 15.5785ZM16.3112 16.8109L19.9827 18.0348L18.851 18.7138C18.5897 18.8706 18.3709 19.0894 18.2141 19.3507L17.535 20.4825L16.3112 16.8109Z" fill="#F8F9FA" fill-opacity="0.9"/>
<path fill-rule="evenodd" clip-rule="evenodd" d="M18.4933 18.9931C18.7862 18.7002 19.2611 18.7002 19.554 18.9931L21.2501 20.6892C21.543 20.9821 21.543 21.4569 21.2501 21.7498C20.9572 22.0427 20.4823 22.0427 20.1894 21.7498L18.4933 20.0537C18.2004 19.7608 18.2004 19.286 18.4933 18.9931Z" fill="#F8F9FA" fill-opacity="0.9"/>
<path fill-rule="evenodd" clip-rule="evenodd" d="M2.24634 7.49776C2.24634 7.08355 2.58212 6.74776 2.99634 6.74776H21.0038C21.4181 6.74776 21.7538 7.08355 21.7538 7.49776C21.7538 7.91197 21.4181 8.24776 21.0038 8.24776H2.99634C2.58212 8.24776 2.24634 7.91197 2.24634 7.49776Z" fill="#F8F9FA" fill-opacity="0.9"/>
<path fill-rule="evenodd" clip-rule="evenodd" d="M5.99759 4.24609C4.75426 4.24609 3.74634 5.25401 3.74634 6.49734V14.5007C3.74634 15.744 4.75426 16.7519 5.99759 16.7519H6.998C7.41222 16.7519 7.748 17.0877 7.748 17.5019C7.748 17.9161 7.41222 18.2519 6.998 18.2519H5.99759C3.92583 18.2519 2.24634 16.5724 2.24634 14.5007V6.49734C2.24634 4.42559 3.92583 2.74609 5.99759 2.74609H18.0026C20.0743 2.74609 21.7538 4.42559 21.7538 6.49734V9.49859C21.7538 9.91281 21.4181 10.2486 21.0038 10.2486C20.5896 10.2486 20.2538 9.91281 20.2538 9.49859V6.49734C20.2538 5.25401 19.2459 4.24609 18.0026 4.24609H5.99759Z" fill="#F8F9FA" fill-opacity="0.9"/>
</svg>
