<svg width="81" height="73" viewBox="0 0 81 73" fill="none" xmlns="http://www.w3.org/2000/svg">
<path fill-rule="evenodd" clip-rule="evenodd" d="M14.1511 24.3105C14.1511 21.6456 15.8533 19.38 18.229 18.5396V10.078H6.075C4.95777 10.078 4.05 10.9858 4.05 12.103V60.703C4.05 61.8202 4.95777 62.728 6.075 62.728H32.3312C33.4496 62.728 34.3562 63.6346 34.3562 64.753C34.3562 65.8714 33.4496 66.778 32.3312 66.778H6.075C2.72103 66.778 0 64.057 0 60.703V12.103C0 8.74895 2.72103 6.02802 6.075 6.02802H18.229V2.025C18.229 0.906613 19.1356 0 20.2541 0C21.3725 0 22.2791 0.906613 22.2791 2.025V6.02802H40.5041C41.6225 6.02802 42.5291 6.93463 42.5291 8.05296L42.5284 8.10541L42.5291 8.15786V42.7189C44.9246 43.55 46.6443 45.8267 46.6443 48.5056C46.6443 51.1844 44.9248 53.4585 42.5291 54.2888V62.728H74.925C76.0422 62.728 76.95 61.8202 76.95 60.703V12.103C76.95 10.9858 76.0422 10.078 74.925 10.078H48.6041C47.4856 10.078 46.5791 9.17137 46.5791 8.05296C46.5791 6.93463 47.4856 6.02802 48.6041 6.02802H58.729V2.06145C58.729 0.943063 59.6356 0.0364503 60.7541 0.0364503C61.8725 0.0364503 62.779 0.943063 62.779 2.06145V6.02802H74.925C78.279 6.02802 81 8.74895 81 12.103V60.703C81 64.057 78.279 66.778 74.925 66.778H42.5291V70.6291C42.5291 71.7475 41.6225 72.6541 40.5041 72.6541C39.3856 72.6541 38.4791 71.7475 38.4791 70.6291V54.2764C36.1033 53.4362 34.4011 51.1707 34.4011 48.5056C34.4011 45.8405 36.1033 43.5725 38.4791 42.7313V10.078H22.2791V18.5275C24.6748 19.3575 26.3943 21.6318 26.3943 24.3105C26.3943 26.9893 24.6746 29.266 22.2791 30.0973V56.5582C22.2791 57.6766 21.3725 58.5832 20.2541 58.5832C19.1356 58.5832 18.229 57.6766 18.229 56.5582V30.085C15.8533 29.2436 14.1511 26.9756 14.1511 24.3105ZM20.333 26.3833C20.3069 26.3822 20.2806 26.3816 20.2541 26.3816C20.2332 26.3816 20.2123 26.382 20.1917 26.3827C19.0862 26.3409 18.2011 25.4293 18.2011 24.3105C18.2011 23.1668 19.1273 22.2409 20.2707 22.2409C21.4176 22.2409 22.3443 23.1663 22.3443 24.3105C22.3443 25.4352 21.4498 26.3503 20.333 26.3833ZM58.729 42.235C56.3533 41.3936 54.6511 39.1256 54.6511 36.4605C54.6511 33.7956 56.3533 31.53 58.729 30.6896V16.2566C58.729 15.1382 59.6356 14.2316 60.7541 14.2316C61.8725 14.2316 62.779 15.1382 62.779 16.2566V30.6775C65.1748 31.5075 66.8943 33.7818 66.8943 36.4605C66.8943 39.1393 65.1746 41.416 62.779 42.2473V56.5582C62.779 57.6766 61.8725 58.5832 60.7541 58.5832C59.6356 58.5832 58.729 57.6766 58.729 56.5582V42.235ZM62.8443 36.4605C62.8443 35.3163 61.9176 34.3909 60.7707 34.3909C59.6273 34.3909 58.7011 35.3168 58.7011 36.4605C58.7011 37.6058 59.6288 38.5341 60.7707 38.5341C61.9162 38.5341 62.8443 37.606 62.8443 36.4605ZM42.5943 48.5056C42.5943 47.36 41.6662 46.432 40.5207 46.432C39.3788 46.432 38.4511 47.3604 38.4511 48.5056C38.4511 49.6495 39.3773 50.5751 40.5207 50.5751C41.6676 50.5751 42.5943 49.6499 42.5943 48.5056Z" fill="#0B78EB"/>
</svg>
