<svg width="50" height="51" viewBox="0 0 50 51" fill="none" xmlns="http://www.w3.org/2000/svg">
<path d="M29.3471 6.46762H28.3471V6.51749L28.3521 6.56712L29.3471 6.46762ZM29.3471 6.4676H30.3471V6.41772L30.3421 6.36809L29.3471 6.4676ZM29.6639 9.63559L28.6689 9.7351V9.7351L29.6639 9.63559ZM32.9204 10.9845L32.2872 10.2105L32.9204 10.9845ZM35.3845 8.96844L36.0178 9.7424L35.3845 8.96844ZM36.768 8.17057L36.7182 9.16933L36.768 8.17057ZM38.0652 9.10215L37.3581 9.80925L38.0652 9.10215ZM41.3981 12.435L42.1052 11.7279L41.3981 12.435ZM42.3296 13.7322L43.3284 13.6824L43.3284 13.6824L42.3296 13.7322ZM41.5318 15.1157L40.7578 14.4825L41.5318 15.1157ZM39.5157 17.5798L40.2896 18.2131L39.5157 17.5798ZM40.8646 20.8364L40.9641 19.8413L40.8646 20.8364ZM44.0327 21.1532L44.1322 20.1582H44.1322L44.0327 21.1532ZM45.5751 21.5673L44.8337 22.2383L44.8337 22.2383L45.5751 21.5673ZM45.5751 29.4326L44.8337 28.7616L44.8337 28.7616L45.5751 29.4326ZM44.0327 29.8467L44.1322 30.8418H44.1322L44.0327 29.8467ZM40.8654 30.1635L40.7659 29.1684L40.8654 30.1635ZM38.1861 30.9613L37.2622 30.5786L37.2622 30.5786L38.1861 30.9613ZM39.5164 33.42L38.7425 34.0532L39.5164 33.42ZM41.5319 35.8833L40.7579 36.5165L41.5319 35.8833ZM42.3297 37.2668L43.3285 37.3166V37.3166L42.3297 37.2668ZM36.7681 42.8284L36.8179 43.8272L36.8179 43.8272L36.7681 42.8284ZM35.3846 42.0306L36.0179 41.2566L35.3846 42.0306ZM32.9205 40.0145L32.2873 40.7884L32.9205 40.0145ZM30.4618 38.6841L30.0792 37.7602L30.0791 37.7602L30.4618 38.6841ZM29.664 41.3634L28.6689 41.2639L29.664 41.3634ZM29.3471 44.5323L30.3421 44.6318V44.6318L29.3471 44.5323ZM28.933 46.0747L28.262 45.3333L28.262 45.3333L28.933 46.0747ZM21.0676 46.0747L21.7387 45.3333L21.7386 45.3333L21.0676 46.0747ZM20.6536 44.5323L19.6585 44.6318V44.6318L20.6536 44.5323ZM20.3368 41.3642L19.3417 41.4637L20.3368 41.3642ZM19.5389 38.6849L19.9216 37.761L19.9216 37.761L19.5389 38.6849ZM17.0802 40.0153L17.7134 40.7893L17.0802 40.0153ZM14.616 42.0315L15.2492 42.8055L14.616 42.0315ZM13.2325 42.8294L13.1827 43.8281L13.1827 43.8281L13.2325 42.8294ZM11.9353 41.8978L11.2282 42.6049H11.2282L11.9353 41.8978ZM8.60242 38.5649L9.30953 37.8578H9.30953L8.60242 38.5649ZM7.67085 37.2677L6.67209 37.3175L7.67085 37.2677ZM8.46872 35.8842L9.24268 36.5175L8.46872 35.8842ZM10.4849 33.4201L11.2588 34.0533H11.2588L10.4849 33.4201ZM9.13595 30.1635L9.23546 29.1685H9.23545L9.13595 30.1635ZM5.96798 29.8467L6.06749 28.8517L6.01786 28.8467H5.96798V29.8467ZM5.96797 29.8467L5.86846 30.8418L5.91809 30.8467H5.96797V29.8467ZM4.42554 29.4326L5.16699 28.7616H5.16699L4.42554 29.4326ZM4.42554 21.5673L5.16699 22.2383H5.16699L4.42554 21.5673ZM5.96797 21.1532V20.1532H5.91809L5.86846 20.1582L5.96797 21.1532ZM5.96799 21.1532V22.1532H6.01786L6.06749 22.1482L5.96799 21.1532ZM9.13673 20.8363L9.23624 21.8314H9.23624L9.13673 20.8363ZM11.816 20.0385L10.8921 19.6558V19.6558L11.816 20.0385ZM10.4856 17.5798L9.71169 18.213L10.4856 17.5798ZM8.46882 15.1148L9.24277 14.4815L8.46882 15.1148ZM8.60252 12.4341L7.89541 11.727L8.60252 12.4341ZM14.6161 8.9675L15.2493 8.19354V8.19354L14.6161 8.9675ZM17.0803 10.9837L17.7135 10.2097L17.0803 10.9837ZM20.3368 9.63478L21.3319 9.73428V9.73428L20.3368 9.63478ZM20.6536 6.46762L21.6486 6.56712L21.6536 6.51749V6.46762H20.6536ZM20.6536 6.4676L19.6585 6.36809L19.6536 6.41772V6.4676H20.6536ZM21.0676 4.92517L21.7387 5.66663V5.66663L21.0676 4.92517ZM28.933 4.92517L28.262 5.66663V5.66663L28.933 4.92517ZM30.3471 6.46762V6.4676H28.3471V6.46762H30.3471ZM30.6589 9.53609L30.3421 6.36811L28.3521 6.56712L28.6689 9.7351L30.6589 9.53609ZM30.8444 11.391C31.0183 11.463 30.9738 11.6046 30.8866 11.258C30.799 10.9099 30.744 10.3867 30.6589 9.53609L28.6689 9.7351C28.7472 10.5181 28.8147 11.22 28.947 11.7459C29.0797 12.2733 29.3524 12.9378 30.0791 13.2388L30.8444 11.391ZM32.2872 10.2105C31.6256 10.7518 31.2168 11.0829 30.9087 11.2672C30.6019 11.4506 30.6705 11.319 30.8444 11.391L30.0791 13.2388C30.8058 13.5398 31.4684 13.2627 31.9351 12.9837C32.4006 12.7053 32.9447 12.2567 33.5537 11.7585L32.2872 10.2105ZM34.7513 8.19449L32.2872 10.2105L33.5537 11.7585L36.0178 9.7424L34.7513 8.19449ZM36.8178 7.17181C36.343 7.14813 35.9586 7.31861 35.6525 7.50949C35.3706 7.68527 35.0635 7.93906 34.7513 8.19449L36.0178 9.7424C36.3713 9.45312 36.5635 9.29838 36.7107 9.20659C36.8337 9.12992 36.8081 9.17382 36.7182 9.16933L36.8178 7.17181ZM38.7723 8.39504C38.4871 8.10982 38.2067 7.82672 37.9437 7.62377C37.6581 7.40337 37.2926 7.19549 36.8178 7.17181L36.7182 9.16933C36.6283 9.16485 36.6072 9.11862 36.7219 9.20715C36.8592 9.31313 37.0351 9.48622 37.3581 9.80925L38.7723 8.39504ZM42.1052 11.7279L38.7723 8.39504L37.3581 9.80925L40.691 13.1421L42.1052 11.7279ZM43.3284 13.6824C43.3047 13.2077 43.0968 12.8421 42.8764 12.5565C42.6735 12.2935 42.3904 12.0131 42.1052 11.7279L40.691 13.1421C41.014 13.4651 41.1871 13.641 41.2931 13.7783C41.3816 13.8931 41.3354 13.872 41.3309 13.782L43.3284 13.6824ZM42.3057 15.7489C42.5612 15.4368 42.8149 15.1296 42.9907 14.8477C43.1816 14.5416 43.3521 14.1572 43.3284 13.6824L41.3309 13.782C41.3264 13.6921 41.3703 13.6665 41.2936 13.7895C41.2018 13.9367 41.0471 14.1289 40.7578 14.4825L42.3057 15.7489ZM40.2896 18.2131L42.3057 15.7489L40.7578 14.4825L38.7417 16.9466L40.2896 18.2131ZM39.1092 19.6559C39.1812 19.8297 39.0496 19.8984 39.233 19.5916C39.4172 19.2835 39.7483 18.8747 40.2896 18.2131L38.7417 16.9466C38.2434 17.5556 37.7948 18.0997 37.5165 18.5651C37.2374 19.0318 36.9604 19.6945 37.2614 20.4212L39.1092 19.6559ZM40.9641 19.8413C40.1135 19.7563 39.5903 19.7013 39.2422 19.6137C38.8955 19.5265 39.0371 19.482 39.1092 19.6559L37.2614 20.4212C37.5624 21.1479 38.2269 21.4206 38.7542 21.5533C39.2802 21.6856 39.9821 21.7531 40.7651 21.8314L40.9641 19.8413ZM44.1322 20.1582L40.9641 19.8413L40.7651 21.8314L43.9332 22.1482L44.1322 20.1582ZM46.3166 20.8963C45.9976 20.5438 45.6052 20.3925 45.2538 20.311C44.9302 20.236 44.5335 20.1983 44.1322 20.1582L43.9332 22.1482C44.3877 22.1937 44.6331 22.2202 44.802 22.2594C44.9432 22.2921 44.8941 22.305 44.8337 22.2383L46.3166 20.8963ZM46.8337 23.1433C46.8337 22.7399 46.8356 22.3415 46.7931 22.012C46.747 21.6542 46.6355 21.2487 46.3166 20.8963L44.8337 22.2383C44.7733 22.1715 44.791 22.1239 44.8095 22.2677C44.8317 22.4397 44.8337 22.6864 44.8337 23.1433H46.8337ZM46.8337 27.8566V23.1433H44.8337V27.8566H46.8337ZM46.3166 30.1037C46.6355 29.7512 46.747 29.3457 46.7931 28.9879C46.8356 28.6584 46.8337 28.26 46.8337 27.8566H44.8337C44.8337 28.3135 44.8317 28.5602 44.8095 28.7323C44.791 28.876 44.7733 28.8284 44.8337 28.7616L46.3166 30.1037ZM44.1322 30.8418C44.5335 30.8016 44.9302 30.7639 45.2538 30.6889C45.6052 30.6074 45.9976 30.4561 46.3166 30.1036L44.8337 28.7616C44.8941 28.6949 44.9432 28.7078 44.802 28.7406C44.6331 28.7797 44.3877 28.8062 43.9332 28.8517L44.1322 30.8418ZM40.9649 31.1585L44.1322 30.8418L43.9332 28.8517L40.7659 29.1684L40.9649 31.1585ZM39.1099 31.344C39.0379 31.5179 38.8963 31.4733 39.243 31.3861C39.5911 31.2985 40.1143 31.2436 40.9649 31.1585L40.7659 29.1684C39.9829 29.2467 39.281 29.3142 38.755 29.4466C38.2277 29.5792 37.5632 29.8519 37.2622 30.5786L39.1099 31.344ZM40.2904 32.7868C39.7491 32.1252 39.418 31.7163 39.2338 31.4083C39.0503 31.1015 39.182 31.1701 39.1099 31.344L37.2622 30.5786C36.9612 31.3053 37.2382 31.968 37.5173 32.4347C37.7956 32.9002 38.2442 33.4442 38.7425 34.0532L40.2904 32.7868ZM42.3058 35.2501L40.2904 32.7868L38.7425 34.0532L40.7579 36.5165L42.3058 35.2501ZM43.3285 37.3166C43.3522 36.8418 43.1817 36.4574 42.9908 36.1513C42.815 35.8694 42.5613 35.5622 42.3058 35.2501L40.7579 36.5165C41.0472 36.8701 41.2019 37.0623 41.2937 37.2095C41.3704 37.3325 41.3265 37.3069 41.331 37.217L43.3285 37.3166ZM42.1053 39.2711C42.3905 38.9859 42.6736 38.7055 42.8765 38.4425C43.0969 38.1569 43.3048 37.7913 43.3285 37.3166L41.331 37.217C41.3355 37.127 41.3817 37.1059 41.2932 37.2207C41.1872 37.358 41.0141 37.5338 40.6911 37.8569L42.1053 39.2711ZM38.7724 42.604L42.1053 39.2711L40.6911 37.8569L37.3582 41.1897L38.7724 42.604ZM36.8179 43.8272C37.2927 43.8035 37.6582 43.5956 37.9438 43.3752C38.2068 43.1723 38.4872 42.8892 38.7724 42.604L37.3582 41.1897C37.0352 41.5128 36.8593 41.6859 36.722 41.7918C36.6073 41.8804 36.6283 41.8342 36.7183 41.8297L36.8179 43.8272ZM34.7514 42.8045C35.0636 43.0599 35.3707 43.3137 35.6526 43.4895C35.9587 43.6804 36.3431 43.8509 36.8179 43.8272L36.7183 41.8297C36.8082 41.8252 36.8338 41.8691 36.7108 41.7924C36.5636 41.7006 36.3714 41.5459 36.0179 41.2566L34.7514 42.8045ZM32.2873 40.7884L34.7514 42.8045L36.0179 41.2566L33.5538 39.2405L32.2873 40.7884ZM30.8445 39.608C30.6706 39.68 30.602 39.5484 30.9088 39.7318C31.2168 39.9161 31.6257 40.2471 32.2873 40.7884L33.5538 39.2405C32.9448 38.7423 32.4007 38.2937 31.9352 38.0153C31.4685 37.7363 30.8059 37.4592 30.0792 37.7602L30.8445 39.608ZM30.659 41.4629C30.7441 40.6123 30.7991 40.0891 30.8866 39.741C30.9739 39.3943 31.0184 39.536 30.8445 39.608L30.0791 37.7602C29.3524 38.0612 29.0797 38.7257 28.9471 39.2531C28.8148 39.779 28.7472 40.4809 28.6689 41.2639L30.659 41.4629ZM30.3421 44.6318L30.659 41.4629L28.6689 41.2639L28.3521 44.4328L30.3421 44.6318ZM29.604 46.8162C29.9565 46.4972 30.1078 46.1049 30.1892 45.7534C30.2643 45.4298 30.302 45.0332 30.3421 44.6318L28.3521 44.4328C28.3066 44.8874 28.2801 45.1327 28.2409 45.3017C28.2082 45.4428 28.1953 45.3937 28.262 45.3333L29.604 46.8162ZM27.357 47.3333C27.7604 47.3333 28.1588 47.3352 28.4883 47.2928C28.8461 47.2467 29.2516 47.1352 29.604 46.8162L28.262 45.3333C28.3288 45.2729 28.3764 45.2907 28.2326 45.3092C28.0606 45.3314 27.8139 45.3333 27.357 45.3333V47.3333ZM22.6436 47.3333H27.357V45.3333H22.6436V47.3333ZM20.3966 46.8162C20.7491 47.1352 21.1546 47.2467 21.5124 47.2928C21.8419 47.3352 22.2403 47.3333 22.6436 47.3333V45.3333C22.1868 45.3333 21.9401 45.3314 21.768 45.3092C21.6243 45.2907 21.6719 45.2729 21.7387 45.3333L20.3966 46.8162ZM19.6585 44.6318C19.6987 45.0332 19.7364 45.4298 19.8114 45.7534C19.8929 46.1049 20.0442 46.4972 20.3966 46.8162L21.7386 45.3333C21.8054 45.3937 21.7925 45.4428 21.7597 45.3017C21.7205 45.1327 21.6941 44.8874 21.6486 44.4328L19.6585 44.6318ZM19.3417 41.4637L19.6585 44.6318L21.6486 44.4328L21.3318 41.2647L19.3417 41.4637ZM19.1562 39.6088C18.9823 39.5368 19.0269 39.3952 19.1141 39.7418C19.2017 40.0899 19.2567 40.6131 19.3417 41.4637L21.3318 41.2647C21.2535 40.4817 21.186 39.7798 21.0537 39.2539C20.921 38.7265 20.6483 38.0621 19.9216 37.761L19.1562 39.6088ZM17.7134 40.7893C18.375 40.248 18.7839 39.9169 19.0919 39.7327C19.3988 39.5492 19.3301 39.6808 19.1562 39.6088L19.9216 37.761C19.1949 37.46 18.5322 37.7371 18.0655 38.0162C17.6001 38.2945 17.056 38.7431 16.447 39.2414L17.7134 40.7893ZM15.2492 42.8055L17.7134 40.7893L16.447 39.2414L13.9827 41.2575L15.2492 42.8055ZM13.1827 43.8281C13.6574 43.8518 14.0419 43.6813 14.348 43.4905C14.6299 43.3147 14.937 43.0609 15.2492 42.8055L13.9827 41.2575C13.6292 41.5468 13.437 41.7016 13.2898 41.7933C13.1668 41.87 13.1924 41.8261 13.2823 41.8306L13.1827 43.8281ZM11.2282 42.6049C11.5134 42.8901 11.7937 43.1732 12.0568 43.3762C12.3424 43.5966 12.7079 43.8045 13.1827 43.8281L13.2823 41.8306C13.3722 41.8351 13.3933 41.8813 13.2786 41.7928C13.1413 41.6868 12.9654 41.5137 12.6424 41.1907L11.2282 42.6049ZM7.89531 39.272L11.2282 42.6049L12.6424 41.1907L9.30953 37.8578L7.89531 39.272ZM6.67209 37.3175C6.69577 37.7923 6.90365 38.1579 7.12404 38.4435C7.327 38.7065 7.61009 38.9868 7.89531 39.272L9.30953 37.8578C8.9865 37.5348 8.8134 37.3589 8.70743 37.2216C8.61889 37.1069 8.66512 37.128 8.6696 37.2179L6.67209 37.3175ZM7.69476 35.251C7.43934 35.5632 7.18554 35.8703 7.00977 36.1522C6.81888 36.4583 6.64841 36.8428 6.67209 37.3175L8.6696 37.2179C8.67409 37.3078 8.63019 37.3334 8.70687 37.2104C8.79865 37.0632 8.95339 36.8711 9.24268 36.5175L7.69476 35.251ZM9.7109 32.7868L7.69476 35.251L9.24268 36.5175L11.2588 34.0533L9.7109 32.7868ZM10.8914 31.344C10.8193 31.1702 10.951 31.1015 10.7675 31.4083C10.5833 31.7164 10.2522 32.1252 9.7109 32.7868L11.2588 34.0533C11.7571 33.4443 12.2057 32.9002 12.484 32.4348C12.7631 31.9681 13.0401 31.3054 12.7391 30.5787L10.8914 31.344ZM9.03645 31.1586C9.88702 31.2436 10.4102 31.2986 10.7583 31.3862C11.105 31.4734 10.9634 31.5179 10.8914 31.344L12.7391 30.5787C12.4381 29.852 11.7736 29.5793 11.2463 29.4466C10.7203 29.3143 10.0184 29.2468 9.23546 29.1685L9.03645 31.1586ZM5.86848 30.8418L9.03645 31.1586L9.23545 29.1685L6.06749 28.8517L5.86848 30.8418ZM5.96797 30.8467H5.96798V28.8467H5.96797V30.8467ZM3.68409 30.1036C4.00304 30.4561 4.39543 30.6074 4.74686 30.6889C5.07048 30.7639 5.4671 30.8016 5.86846 30.8418L6.06747 28.8517C5.61291 28.8062 5.36759 28.7797 5.19862 28.7406C5.05745 28.7078 5.10658 28.6949 5.16699 28.7616L3.68409 30.1036ZM3.16699 27.8566C3.16699 28.26 3.16505 28.6584 3.20751 28.9879C3.25363 29.3457 3.36513 29.7512 3.68409 30.1036L5.16699 28.7616C5.22741 28.8284 5.20963 28.876 5.19111 28.7323C5.16893 28.5602 5.16699 28.3135 5.16699 27.8566H3.16699ZM3.16699 23.1433V27.8566H5.16699V23.1433H3.16699ZM3.68409 20.8963C3.36513 21.2487 3.25363 21.6542 3.20751 22.012C3.16505 22.3415 3.16699 22.7399 3.16699 23.1433H5.16699C5.16699 22.6864 5.16893 22.4397 5.19111 22.2677C5.20963 22.1239 5.22741 22.1715 5.16699 22.2383L3.68409 20.8963ZM5.86846 20.1582C5.4671 20.1983 5.07048 20.236 4.74686 20.311C4.39543 20.3925 4.00305 20.5438 3.68409 20.8963L5.16699 22.2383C5.10658 22.305 5.05745 22.2921 5.19862 22.2593C5.36759 22.2202 5.61291 22.1937 6.06747 22.1482L5.86846 20.1582ZM5.96799 20.1532H5.96797V22.1532H5.96799V20.1532ZM9.03723 19.8413L5.86848 20.1582L6.06749 22.1482L9.23624 21.8314L9.03723 19.8413ZM10.8921 19.6558C10.9642 19.4819 11.1058 19.5264 10.7591 19.6137C10.411 19.7012 9.8878 19.7562 9.03723 19.8413L9.23624 21.8314C10.0192 21.7531 10.7211 21.6855 11.2471 21.5532C11.7744 21.4206 12.4389 21.1479 12.7399 20.4212L10.8921 19.6558ZM9.71169 18.213C10.253 18.8746 10.5841 19.2835 10.7683 19.5915C10.9518 19.8983 10.8201 19.8297 10.8921 19.6558L12.7399 20.4212C13.0409 19.6945 12.7639 19.0318 12.4848 18.5651C12.2065 18.0996 11.7579 17.5555 11.2596 16.9465L9.71169 18.213ZM7.69486 15.748L9.71169 18.213L11.2596 16.9465L9.24277 14.4815L7.69486 15.748ZM6.67218 13.6815C6.64851 14.1562 6.81898 14.5407 7.00986 14.8468C7.18564 15.1287 7.43943 15.4358 7.69486 15.748L9.24277 14.4815C8.95349 14.1279 8.79875 13.9358 8.70697 13.7886C8.63029 13.6656 8.67419 13.6912 8.6697 13.7811L6.67218 13.6815ZM7.89541 11.727C7.61019 12.0122 7.3271 12.2925 7.12414 12.5555C6.90375 12.8411 6.69586 13.2067 6.67218 13.6815L8.6697 13.7811C8.66522 13.871 8.61899 13.8921 8.70752 13.7774C8.8135 13.64 8.98659 13.4642 9.30962 13.1412L7.89541 11.727ZM11.2283 8.3941L7.89541 11.727L9.30962 13.1412L12.6425 9.80831L11.2283 8.3941ZM13.1828 7.17087C12.708 7.19455 12.3425 7.40243 12.0569 7.62283C11.7938 7.82578 11.5135 8.10887 11.2283 8.3941L12.6425 9.80831C12.9655 9.48528 13.1414 9.31218 13.2787 9.20621C13.3934 9.11768 13.3723 9.1639 13.2824 9.16839L13.1828 7.17087ZM15.2493 8.19354C14.9371 7.93812 14.63 7.68432 14.3481 7.50855C14.042 7.31767 13.6575 7.14719 13.1828 7.17087L13.2824 9.16839C13.1925 9.17287 13.1669 9.12897 13.2899 9.20565C13.4371 9.29743 13.6293 9.45217 13.9828 9.74146L15.2493 8.19354ZM17.7135 10.2097L15.2493 8.19354L13.9828 9.74146L16.4471 11.7576L17.7135 10.2097ZM19.1563 11.3902C19.3302 11.3182 19.3988 11.4498 19.092 11.2663C18.784 11.0821 18.3751 10.751 17.7135 10.2097L16.4471 11.7576C17.0561 12.2559 17.6001 12.7045 18.0656 12.9828C18.5323 13.2619 19.195 13.539 19.9217 13.2379L19.1563 11.3902ZM19.3418 9.53527C19.2568 10.3858 19.2018 10.9091 19.1142 11.2572C19.027 11.6038 18.9824 11.4622 19.1563 11.3902L19.9217 13.2379C20.6484 12.9369 20.9211 12.2724 21.0538 11.7451C21.1861 11.2192 21.2536 10.5172 21.3319 9.73428L19.3418 9.53527ZM19.6585 6.36812L19.3418 9.53528L21.3319 9.73428L21.6486 6.56712L19.6585 6.36812ZM19.6536 6.4676V6.46762H21.6536V6.4676H19.6536ZM20.3966 4.18372C20.0442 4.50268 19.8929 4.89506 19.8114 5.24649C19.7364 5.57011 19.6987 5.96674 19.6585 6.36809L21.6486 6.56711C21.6941 6.11254 21.7205 5.86723 21.7597 5.69825C21.7925 5.55709 21.8054 5.60621 21.7387 5.66663L20.3966 4.18372ZM22.6436 3.66663C22.2403 3.66663 21.8419 3.66468 21.5124 3.70715C21.1546 3.75326 20.7491 3.86476 20.3966 4.18372L21.7387 5.66663C21.6719 5.72704 21.6243 5.70926 21.768 5.69074C21.9401 5.66857 22.1868 5.66663 22.6436 5.66663V3.66663ZM27.357 3.66663H22.6436V5.66663H27.357V3.66663ZM29.604 4.18372C29.2516 3.86476 28.8461 3.75326 28.4883 3.70715C28.1588 3.66468 27.7604 3.66663 27.357 3.66663V5.66663C27.8139 5.66663 28.0606 5.66857 28.2326 5.69074C28.3764 5.70926 28.3288 5.72704 28.262 5.66663L29.604 4.18372ZM30.3421 6.36809C30.302 5.96674 30.2643 5.57011 30.1892 5.24649C30.1078 4.89506 29.9565 4.50268 29.604 4.18372L28.262 5.66663C28.1953 5.60621 28.2082 5.55709 28.2409 5.69825C28.2801 5.86723 28.3066 6.11254 28.3521 6.56711L30.3421 6.36809ZM32.3337 25.5C32.3337 29.55 29.0504 32.8333 25.0003 32.8333V34.8333C30.155 34.8333 34.3337 30.6546 34.3337 25.5H32.3337ZM25.0003 18.1666C29.0504 18.1666 32.3337 21.4499 32.3337 25.5H34.3337C34.3337 20.3453 30.155 16.1666 25.0003 16.1666V18.1666ZM17.667 25.5C17.667 21.4499 20.9502 18.1666 25.0003 18.1666V16.1666C19.8457 16.1666 15.667 20.3453 15.667 25.5H17.667ZM25.0003 32.8333C20.9502 32.8333 17.667 29.55 17.667 25.5H15.667C15.667 30.6546 19.8457 34.8333 25.0003 34.8333V32.8333Z" fill="#0B78EB"/>
</svg>
