<svg width="72" height="72" viewBox="0 0 72 72" fill="none" xmlns="http://www.w3.org/2000/svg">
<path d="M71.75 10.2471C71.7548 7.58088 70.7184 5.01812 68.8615 3.10481C67.0046 1.19151 64.4739 0.0789093 61.8088 0.00403802C59.1436 -0.0708333 56.5545 0.897944 54.5931 2.70398C52.6317 4.51002 51.453 7.01055 51.3081 9.67286L19.4401 16.0453C18.6949 14.4967 17.5713 13.161 16.1733 12.1616C14.7753 11.1621 13.1479 10.5312 11.4415 10.327C9.73509 10.1229 8.00479 10.3522 6.41046 10.9937C4.81614 11.6353 3.40924 12.6683 2.31978 13.9974C1.23032 15.3265 0.493451 16.9087 0.17727 18.598C-0.13891 20.2872 -0.0242013 22.0288 0.510797 23.662C1.0458 25.2951 1.98382 26.7671 3.23819 27.9418C4.49255 29.1165 6.02279 29.9561 7.68748 30.383V51.6112C5.93928 52.0596 4.34083 52.9625 3.05441 54.2283C1.76799 55.4941 0.839396 57.0777 0.362912 58.8185C-0.113573 60.5592 -0.120985 62.395 0.341429 64.1395C0.803842 65.884 1.71961 67.4752 2.99578 68.7513C4.27194 70.0275 5.86304 70.9433 7.60756 71.4057C9.35208 71.8681 11.1879 71.8607 12.9286 71.3842C14.6693 70.9077 16.253 69.9791 17.5188 68.6927C18.7846 67.4063 19.6875 65.8078 20.1358 64.0596H41.3641C41.7901 65.7257 42.6294 67.2574 43.8042 68.5132C44.9791 69.769 46.4516 70.7082 48.0857 71.2441C49.7197 71.78 51.4625 71.8952 53.1528 71.579C54.8432 71.2629 56.4266 70.5257 57.7565 69.4355C59.0864 68.3453 60.12 66.9374 60.7616 65.3419C61.4033 63.7464 61.6322 62.0149 61.4274 60.3075C61.2225 58.6001 60.5904 56.9719 59.5895 55.5735C58.5887 54.1751 57.2514 53.0516 55.7013 52.307L62.0742 20.4395C64.6832 20.2965 67.1387 19.1612 68.9377 17.2662C70.7366 15.3712 71.7428 12.86 71.75 10.2471ZM61.5 5.12212C62.5136 5.12212 63.5045 5.4227 64.3473 5.98584C65.1901 6.54898 65.847 7.3494 66.2349 8.28587C66.6228 9.22234 66.7243 10.2528 66.5265 11.247C66.3288 12.2411 65.8406 13.1543 65.1239 13.871C64.4072 14.5878 63.494 15.0759 62.4998 15.2736C61.5057 15.4714 60.4752 15.3699 59.5387 14.982C58.6023 14.5941 57.8018 13.9372 57.2387 13.0944C56.6756 12.2516 56.375 11.2607 56.375 10.2471C56.3765 8.88836 56.917 7.58571 57.8778 6.62492C58.8386 5.66413 60.1412 5.12368 61.5 5.12212ZM5.12498 20.4971C5.12498 19.4835 5.42555 18.4926 5.9887 17.6498C6.55184 16.807 7.35225 16.1501 8.28872 15.7622C9.2252 15.3743 10.2557 15.2728 11.2498 15.4706C12.244 15.6683 13.1572 16.1565 13.8739 16.8732C14.5906 17.5899 15.0788 18.5031 15.2765 19.4973C15.4743 20.4914 15.3728 21.5219 14.9849 22.4584C14.597 23.3948 13.9401 24.1953 13.0973 24.7584C12.2545 25.3215 11.2636 25.6221 10.25 25.6221C8.89122 25.6206 7.58856 25.0801 6.62778 24.1193C5.66699 23.1585 5.12654 21.8559 5.12498 20.4971ZM10.25 66.6221C9.23635 66.6221 8.24548 66.3215 7.40268 65.7584C6.55988 65.1953 5.90299 64.3948 5.51509 63.4584C5.1272 62.5219 5.0257 61.4914 5.22345 60.4973C5.4212 59.5031 5.90931 58.5899 6.62606 57.8732C7.3428 57.1565 8.25599 56.6683 9.25014 56.4706C10.2443 56.2728 11.2748 56.3743 12.2112 56.7622C13.1477 57.1501 13.9481 57.807 14.5113 58.6498C15.0744 59.4926 15.375 60.4835 15.375 61.4971C15.3734 62.8559 14.833 64.1585 13.8722 65.1193C12.9114 66.0801 11.6087 66.6206 10.25 66.6221ZM41.3641 58.9346H20.1358C19.6768 57.1729 18.7561 55.5656 17.4688 54.2783C16.1815 52.991 14.5742 52.0703 12.8125 51.6112V30.383C14.9062 29.8385 16.7731 28.6435 18.1442 26.9701C19.5152 25.2967 20.3197 23.2313 20.4418 21.0714L52.3098 14.699C53.3148 16.7641 54.9834 18.4325 57.0487 19.4373L50.6757 51.3048C48.5158 51.427 46.4504 52.2316 44.777 53.6028C43.1036 54.9739 41.9086 56.8409 41.3641 58.9346ZM51.25 66.6221C50.2364 66.6221 49.2455 66.3215 48.4027 65.7584C47.5599 65.1953 46.903 64.3948 46.5151 63.4584C46.1272 62.5219 46.0257 61.4914 46.2235 60.4973C46.4212 59.5031 46.9093 58.5899 47.6261 57.8732C48.3428 57.1565 49.256 56.6683 50.2501 56.4706C51.2443 56.2728 52.2748 56.3743 53.2112 56.7622C54.1477 57.1501 54.9481 57.807 55.5113 58.6498C56.0744 59.4926 56.375 60.4835 56.375 61.4971C56.3734 62.8559 55.833 64.1585 54.8722 65.1193C53.9114 66.0801 52.6087 66.6206 51.25 66.6221Z" fill="#75F982"/>
</svg>
