<svg width="40" height="40" viewBox="0 0 40 40" fill="none" xmlns="http://www.w3.org/2000/svg">
<path d="M15.9275 21.6961C15.7583 21.4577 15.4281 21.4017 15.1896 21.5708C14.533 22.0367 13.7585 22.2829 12.95 22.2829C10.8131 22.2829 9.07455 20.5444 9.07455 18.4075C9.07455 16.2705 10.8131 14.5321 12.95 14.5321C13.2131 14.5321 13.4761 14.5586 13.7317 14.6108C14.0182 14.6694 14.2978 14.4846 14.3563 14.1984C14.4149 13.912 14.2301 13.6324 13.9438 13.5738C13.6185 13.5073 13.2842 13.4736 12.95 13.4736C10.2295 13.4736 8.01611 15.687 8.01611 18.4075C8.01611 21.1282 10.2295 23.3415 12.95 23.3415C13.9792 23.3415 14.9654 23.0277 15.8021 22.4341C16.0405 22.2649 16.0967 21.9346 15.9275 21.6961Z" fill="#07A7D5" stroke="#07A7D5"/>
<path d="M29.0283 24.1331C28.8033 23.9461 28.4699 23.977 28.2829 24.2017C28.096 24.4264 28.1268 24.7601 28.3516 24.947C28.9389 25.4352 29.438 26.0132 29.8354 26.6649C29.9351 26.8285 30.1094 26.9187 30.2878 26.9187C30.3816 26.9187 30.4768 26.8937 30.5628 26.8413C30.8123 26.6891 30.8913 26.3634 30.7391 26.1138C30.2809 25.3624 29.7053 24.696 29.0283 24.1331Z" fill="#07A7D5" stroke="#07A7D5"/>
<path d="M27.2719 13.4736C26.9378 13.4736 26.6034 13.5074 26.2781 13.5738C25.9918 13.6324 25.8071 13.912 25.8656 14.1984C25.9242 14.4846 26.203 14.6699 26.4901 14.6108C26.7458 14.5586 27.0088 14.5321 27.2719 14.5321C29.4089 14.5321 31.1473 16.2706 31.1473 18.4075C31.1473 20.5445 29.4088 22.2829 27.2719 22.2829C26.4634 22.2829 25.6889 22.0367 25.0323 21.5708C24.794 21.4019 24.4637 21.458 24.2944 21.6961C24.1253 21.9346 24.1814 22.2649 24.4198 22.4339C25.2565 23.0276 26.2426 23.3414 27.2719 23.3414C29.9925 23.3414 32.2058 21.128 32.2058 18.4074C32.2059 15.687 29.9925 13.4736 27.2719 13.4736Z" fill="#07A7D5" stroke="#07A7D5"/>
<path d="M21.8813 23.0764C21.6566 22.8895 21.3229 22.9203 21.136 23.145C20.9491 23.3697 20.9798 23.7034 21.2046 23.8903C22.9412 25.3343 23.9373 27.458 23.9373 29.7166V30.6411C23.9373 30.9334 24.1742 31.1703 24.4666 31.1703C24.7588 31.1703 24.9957 30.9334 24.9957 30.6411V29.7166C24.9957 27.1425 23.8606 24.7222 21.8813 23.0764Z" fill="#07A7D5" stroke="#07A7D5"/>
<path d="M18.1189 23.0764C16.1396 24.7222 15.0044 27.1425 15.0044 29.7166V30.6411C15.0044 30.9334 15.2413 31.1703 15.5336 31.1703C15.8259 31.1703 16.0628 30.9334 16.0628 30.6411V29.7166C16.0628 27.458 17.0589 25.3343 18.7956 23.8903C19.0203 23.7035 19.051 23.3697 18.8642 23.145C18.6773 22.9203 18.3438 22.8895 18.1189 23.0764Z" fill="#07A7D5" stroke="#07A7D5"/>
<path d="M25.3222 16.8111C25.3222 13.8765 22.9349 11.4893 20.0005 11.4893C17.066 11.4893 14.6787 13.8766 14.6787 16.8111C14.6787 19.7455 17.0661 22.1328 20.0005 22.1328C22.935 22.1328 25.3222 19.7454 25.3222 16.8111ZM20.0005 21.0743C17.6496 21.0743 15.7371 19.1618 15.7371 16.8111C15.7371 14.4602 17.6496 12.5478 20.0005 12.5478C22.3513 12.5478 24.2637 14.4602 24.2637 16.8111C24.2637 19.1618 22.3513 21.0743 20.0005 21.0743Z" fill="#07A7D5" stroke="#07A7D5"/>
<path d="M35.4829 18.4075C35.4829 9.87035 28.5375 2.9248 20.0003 2.9248H20.0002C11.4634 2.9248 4.51813 9.86988 4.51766 18.4066C4.51766 18.4069 4.51758 18.4072 4.51758 18.4075C4.51758 18.4078 4.51766 18.4081 4.51766 18.4084C4.51789 22.3692 6.01383 25.9868 8.46938 28.7275C8.36945 29.235 8.31586 29.7519 8.31586 30.2692V36.5455C8.31586 36.8377 8.55281 37.0747 8.84508 37.0747H13.1014C13.3938 37.0747 13.6306 36.8377 13.6306 36.5455C13.6306 36.2533 13.3937 36.0163 13.1014 36.0163H9.3743V30.2692C9.3743 30.0736 9.38547 29.878 9.40203 29.683C10.9918 31.1782 12.8962 32.3421 15.0045 33.0629V36.5455C15.0045 36.8377 15.2415 37.0747 15.5337 37.0747H24.4667C24.759 37.0747 24.9959 36.8377 24.9959 36.5455V33.0629C27.1954 32.3111 29.1727 31.0768 30.8026 29.4874C30.832 29.7468 30.8474 30.008 30.8474 30.2692V36.0163H27.1203C26.828 36.0163 26.5912 36.2533 26.5912 36.5455C26.5912 36.8377 26.828 37.0747 27.1203 37.0747H31.3766C31.6689 37.0747 31.9059 36.8377 31.9059 36.5455V30.2692C31.9059 29.6827 31.8388 29.0966 31.7106 28.5248C34.06 25.8093 35.4829 22.2715 35.4829 18.4075ZM23.9374 36.0163H16.063V33.3822C17.3207 33.7132 18.6402 33.8902 20.0002 33.8902H20.0003C21.3604 33.8902 22.6798 33.7132 23.9375 33.3822V36.0163H23.9374ZM20.5295 32.821V31.8507C20.5295 31.5586 20.2926 31.3215 20.0002 31.3215C19.7079 31.3215 19.471 31.5586 19.471 31.8507V32.821C11.9375 32.5477 5.86008 26.4703 5.58688 18.9367H6.55703C6.8493 18.9367 7.08625 18.6998 7.08625 18.4075C7.08625 18.1152 6.8493 17.8783 6.55703 17.8783H5.5868C5.86 10.3448 11.9375 4.2673 19.4709 3.99402V4.96418C19.4709 5.25645 19.7079 5.4934 20.0002 5.4934C20.2925 5.4934 20.5294 5.25645 20.5294 4.96418V3.99402C28.0629 4.26723 34.1405 10.3447 34.4136 17.8783H33.4434C33.1512 17.8783 32.9143 18.1152 32.9143 18.4075C32.9143 18.6998 33.1512 18.9367 33.4434 18.9367H34.4136C34.1405 26.4703 28.063 32.5479 20.5295 32.821Z" fill="#07A7D5" stroke="#07A7D5"/>
<path d="M11.1937 24.133C10.4645 24.7393 9.85466 25.4634 9.3813 26.2852C9.23536 26.5384 9.32247 26.862 9.57567 27.0079C9.65887 27.0559 9.74973 27.0786 9.83934 27.0786C10.0225 27.0786 10.2004 26.9834 10.2984 26.8134C10.709 26.1007 11.2379 25.4727 11.8705 24.9468C12.0952 24.7599 12.126 24.4262 11.9391 24.2015C11.7522 23.9769 11.4185 23.9462 11.1937 24.133Z" fill="#07A7D5" stroke="#07A7D5"/>
</svg>
