<svg width="24" height="25" viewBox="0 0 24 25" fill="none" xmlns="http://www.w3.org/2000/svg">
<path d="M9.91099 2.89034C10.1418 2.89034 10.3288 2.70327 10.3288 2.47251C10.3288 2.24176 10.1418 2.05469 9.91099 2.05469C9.68023 2.05469 9.49316 2.24176 9.49316 2.47251C9.49316 2.70327 9.68023 2.89034 9.91099 2.89034Z" fill="#F8F9FA"/>
<path d="M9.91099 8.73995C10.1418 8.73995 10.3288 8.55288 10.3288 8.32212C10.3288 8.09136 10.1418 7.9043 9.91099 7.9043C9.68023 7.9043 9.49316 8.09136 9.49316 8.32212C9.49316 8.55288 9.68023 8.73995 9.91099 8.73995Z" fill="#F8F9FA"/>
<path d="M21.6102 16.2605C21.841 16.2605 22.028 16.0734 22.028 15.8426C22.028 15.6119 21.841 15.4248 21.6102 15.4248C21.3795 15.4248 21.1924 15.6119 21.1924 15.8426C21.1924 16.0734 21.3795 16.2605 21.6102 16.2605Z" fill="#F8F9FA"/>
<path d="M21.6102 22.1101C21.841 22.1101 22.028 21.923 22.028 21.6922C22.028 21.4615 21.841 21.2744 21.6102 21.2744C21.3795 21.2744 21.1924 21.4615 21.1924 21.6922C21.1924 21.923 21.3795 22.1101 21.6102 22.1101Z" fill="#F8F9FA"/>
<path d="M12 5.27994H0.300836C0.13454 5.27994 0 5.1454 0 4.97911V0.800836C0 0.63454 0.13454 0.5 0.300836 0.5H12C12.1663 0.5 12.3008 0.63454 12.3008 0.800836V4.97911C12.3008 5.1454 12.1663 5.27994 12 5.27994ZM0.601671 4.67827H11.6992V1.10167H0.601671V4.67827ZM6.98607 2.17131H1.97214V2.77298H6.98607V2.17131ZM12 11.1295H0.300836C0.13454 11.1295 0 10.995 0 10.8287V6.65042C0 6.48412 0.13454 6.34958 0.300836 6.34958H12C12.1663 6.34958 12.3008 6.48412 12.3008 6.65042V10.8287C12.3008 10.995 12.1663 11.1295 12 11.1295ZM0.601671 10.5279H11.6992V6.95125H0.601671V10.5279ZM6.98607 8.02089H1.97214V8.62256H6.98607V8.02089ZM23.6992 18.6504H12C11.8337 18.6504 11.6992 18.5159 11.6992 18.3496V14.1713C11.6992 14.005 11.8337 13.8705 12 13.8705H23.6992C23.8655 13.8705 24 14.005 24 14.1713V18.3496C24 18.5159 23.8655 18.6504 23.6992 18.6504ZM12.3008 18.0487H23.3983V14.4721H12.3008V18.0487ZM18.6852 15.5418H13.6713V16.1443H18.6852V15.5418ZM23.6992 24.5H12C11.8337 24.5 11.6992 24.3655 11.6992 24.1992V20.0209C11.6992 19.8546 11.8337 19.7201 12 19.7201H23.6992C23.8655 19.7201 24 19.8546 24 20.0209V24.1992C24 24.3655 23.8655 24.5 23.6992 24.5ZM12.3008 23.8983H23.3983V20.3217H12.3008V23.8983ZM18.6852 21.3914H13.6713V21.9939H18.6852V21.3914ZM22.3287 5.81476C22.3287 5.64847 22.1941 5.51393 22.0279 5.51393H13.6713V6.1156H21.727V12.5H22.3295L22.3287 5.81476ZM10.3287 18.8844H2.27298V12.5H1.67131V19.1852C1.67131 19.3515 1.80585 19.4861 1.97214 19.4861H10.3287V18.8844Z" fill="#F8F9FA"/>
</svg>
