<svg width="64" height="60" viewBox="0 0 64 60" fill="none" xmlns="http://www.w3.org/2000/svg">
<path d="M37.0834 59.8795C36.7302 59.8096 36.3596 59.6217 36.1374 59.3324C35.8486 58.957 35.7979 58.4614 35.7735 58.0036C35.6639 55.9403 35.7661 53.8159 35.7642 51.7472V38.7206L35.7607 31.0603C35.7585 29.7819 35.6417 28.3704 35.8053 27.1079C35.8664 26.636 36.0374 26.3528 36.4223 26.0621C36.6667 25.8776 36.9223 25.7772 37.2264 25.7476C38.2228 25.6504 39.2563 25.6996 40.2571 25.699L45.4272 25.6978L50.7176 25.6923C51.847 25.6917 53.005 25.6367 54.1272 25.7783C54.9549 26.37 62.2971 33.7981 62.9113 34.74C63.0028 34.9173 63.0078 35.0688 63.0111 35.2652C63.1119 41.0047 63.0171 46.763 63.0163 52.5044C63.016 53.4154 63.1291 57.9721 62.9785 58.4888C62.9657 58.5321 62.9506 58.5746 62.9333 58.6165C63.036 58.9543 63.1023 59.6192 62.933 59.9376C62.9176 59.9663 62.9105 59.9754 62.8933 60H61.5209H37.1894L37.0834 59.8795ZM38.4302 28.4156C38.5617 30.443 38.4582 32.5335 38.4576 34.5702L38.4527 46.4365L38.4497 53.8143C38.4505 54.8943 38.5719 56.1589 38.4368 57.2102L53.45 57.2011L57.9689 57.2014C58.6749 57.2006 59.4579 57.263 60.1544 57.177C60.2237 57.0795 60.2448 57.0107 60.2486 56.8932C60.2971 55.4124 60.2494 53.9154 60.2494 52.4329L60.2491 43.3748L60.2513 39.128C60.2533 38.365 60.3294 37.5129 60.2037 36.7611L60.199 36.7337C59.4576 36.768 58.7124 36.7321 57.9705 36.7296C56.2541 36.7241 54.3316 36.8713 52.959 35.6269C52.2637 34.9965 52.0691 34.18 52.0281 33.2784C51.9738 32.0921 51.9141 29.5502 52.0516 28.4362L43.0308 28.4252C41.5064 28.4252 39.9513 28.4882 38.4302 28.4156ZM54.5796 28.8584C54.5883 29.8019 54.5905 30.7455 54.5861 31.6891C54.5779 32.2562 54.5034 32.8762 54.5744 33.437C54.5998 33.6378 54.6554 33.8666 54.802 34.0159C55.0286 34.2463 55.4286 34.2595 55.7305 34.2521C57.1343 34.2184 58.5483 34.171 59.9508 34.2762C59.6437 33.7556 57.6661 31.9995 57.0938 31.4214C56.5927 30.9154 55.0639 29.1203 54.5796 28.8584Z" fill="#FBE735"/>
<path d="M61.5829 59.87C61.7563 59.8385 61.9273 59.8021 62.0846 59.7193C62.5366 59.481 62.7846 59.0939 62.9333 58.6163C63.0361 58.9541 63.1024 59.6191 62.9331 59.9374C62.9177 59.9662 62.9106 59.9752 62.8933 59.9999H61.521L61.5829 59.87Z" fill="#FDFCFD"/>
<path d="M0 0H23.1245H25.655L26.1182 0.142289C31.9123 0.127928 42.783 1.45445 47.08 5.75529C47.7564 6.4323 48.329 7.25082 48.5816 8.18375C48.9668 9.6071 48.7797 11.7307 48.7797 13.2456L48.7784 20.4645C47.769 20.4579 46.7597 20.46 45.7504 20.4711C45.7233 18.4147 45.5789 15.7359 45.7466 13.7342C40.8249 17.3452 31.2822 18.2929 25.2961 18.35C23.4767 18.3672 21.6594 18.3138 19.8442 18.1897C18.029 18.0656 16.2214 17.8713 14.4213 17.6068C11.3381 17.1338 5.47025 15.7752 3.02526 13.7346C3.08767 14.6804 3.05082 15.6412 3.04808 16.589L3.03258 21.4244C3.02942 22.3237 2.8846 23.4798 3.11655 24.3391C3.24044 24.798 3.65921 25.2337 4.00981 25.5395C5.15236 26.5362 6.71789 27.1647 8.136 27.671C15.0927 30.1542 23.0786 30.2819 30.3792 29.7564C30.437 29.7523 30.494 29.7466 30.5515 29.7397L30.56 32.7871C22.7648 33.4474 9.52871 33.0203 3.01496 28.4696C3.08011 29.3479 3.04255 30.2436 3.03885 31.1244L3.02071 35.6537C3.01981 36.3688 2.98718 37.1058 3.04331 37.8178C3.36537 38.3159 3.67756 38.7351 4.1337 39.1175C6.09559 40.7619 9.85581 41.7726 12.3269 42.3022C16.6351 43.2255 21.1186 43.5537 25.5193 43.4737C26.3907 43.4581 27.2657 43.4392 28.1353 43.3775C28.9274 43.3214 29.7326 43.2132 30.526 43.2403C30.518 44.2534 30.5196 45.2666 30.531 46.2797C21.9651 46.7641 10.483 46.6318 3.03934 41.9638L3.02236 48.0249C3.02058 48.9518 2.87855 50.386 3.09959 51.2367C3.19249 51.594 3.50512 51.9636 3.76236 52.2208C4.54227 53.0005 5.61893 53.5033 6.61723 53.9477C12.058 56.3696 18.8791 56.9471 24.7765 56.9205C26.7047 56.9118 28.5964 56.6995 30.5156 56.6419L30.526 59.6833C28.3189 59.7956 26.0973 59.9112 23.8871 59.8896C17.2096 59.8238 6.77825 58.8756 1.62985 54.2301C1.05093 53.7077 0.634397 53.1931 0.304934 52.4833C0.201263 52.26 0.123594 51.9811 0 51.7745V8.71496V0ZM21.9376 3.11233C16.8288 3.24904 10.3234 4.0503 5.75041 6.41214C5.00652 6.79636 4.22753 7.23027 3.64715 7.84348C3.29636 8.21408 3.02477 8.67644 3.04699 9.20238C3.07504 9.86633 3.55367 10.4723 4.03255 10.8965C5.08833 11.8316 6.57334 12.4419 7.8932 12.9187C13.828 15.0627 20.4525 15.4668 26.7137 15.2762C31.2838 15.1763 41.8159 13.911 45.0504 10.5585C45.3945 10.2018 45.6896 9.74608 45.6855 9.23397C45.6808 8.63893 45.3293 8.11512 44.9134 7.71679C44.0921 6.93003 42.9362 6.36849 41.8959 5.91997C36.2027 3.46521 28.7926 2.9323 22.6386 3.09066C22.4049 3.0967 22.1712 3.10393 21.9376 3.11233ZM0 0V8.71496C0.115667 8.52082 0.150647 8.25266 0.230335 8.03608C0.531197 7.21838 0.894578 6.52641 1.50701 5.89874C5.89992 1.39638 16.5249 0.204349 22.5875 0.137918L23.1245 0H0ZM23.1245 0L22.5875 0.137918L26.1182 0.142289L25.655 0H23.1245Z" fill="#FBE735"/>
</svg>
