<svg width="31" height="31" viewBox="0 0 31 31" fill="none" xmlns="http://www.w3.org/2000/svg">
<path d="M15.0103 0.0118159C15.5995 -0.0169799 16.1963 0.0101159 16.7838 0.0579318C16.8874 0.0664684 16.991 0.0760516 17.0945 0.0866813C17.198 0.0973134 17.3014 0.108991 17.4046 0.121714C17.5079 0.134437 17.611 0.148202 17.714 0.163011C17.8169 0.17782 17.9197 0.19367 18.0224 0.21056C18.1251 0.227448 18.2275 0.245373 18.3298 0.264335C18.4321 0.283297 18.5342 0.303292 18.6361 0.324321C18.738 0.345348 18.8396 0.367404 18.9411 0.390491C19.0425 0.413575 19.1437 0.437683 19.2447 0.462815C19.3456 0.487947 19.4463 0.514097 19.5467 0.541266C19.6472 0.568436 19.7473 0.596619 19.8471 0.625814C19.947 0.655009 20.0465 0.685211 20.1458 0.716421C20.245 0.74763 20.3439 0.77984 20.4425 0.81305C20.5411 0.846261 20.6394 0.880465 20.7373 0.915664C20.8351 0.950863 20.9327 0.987047 21.0298 1.02422C21.127 1.06139 21.2238 1.09954 21.3202 1.13867C21.4166 1.1778 21.5126 1.2179 21.6082 1.25897C21.7037 1.30005 21.7989 1.34208 21.8936 1.38509C21.9884 1.42807 22.0827 1.47201 22.1765 1.51691C22.2703 1.56182 22.3637 1.60767 22.4566 1.65448C22.5495 1.70128 22.642 1.74901 22.7339 1.79767C22.8259 1.84633 22.9173 1.89592 23.0083 1.94643C23.0992 1.99694 23.1896 2.04836 23.2796 2.10071C23.3695 2.15307 23.4588 2.20633 23.5477 2.26047C23.6365 2.31462 23.7247 2.36966 23.8125 2.42558C23.9002 2.48154 23.9873 2.53836 24.0739 2.59604C24.1604 2.65375 24.2464 2.71233 24.3318 2.77177C24.4172 2.83122 24.5019 2.89152 24.5861 2.95267C24.6703 3.01383 24.7538 3.07583 24.8367 3.13867C24.9196 3.20151 25.0019 3.26519 25.0835 3.32969C25.1651 3.3942 25.2461 3.45952 25.3264 3.52567C25.4066 3.59184 25.4863 3.65879 25.5652 3.72652C25.6442 3.79428 25.7224 3.86284 25.8 3.93219C25.8949 4.01628 25.9888 4.10152 26.0816 4.18793C26.1745 4.27434 26.2662 4.36187 26.3569 4.45052C26.4476 4.53919 26.5372 4.62896 26.6256 4.71984C26.7141 4.81071 26.8014 4.90267 26.8876 4.99571C26.9738 5.08873 27.0589 5.1828 27.1427 5.27793C27.2266 5.37306 27.3093 5.46921 27.3908 5.56639C27.4723 5.66356 27.5526 5.76172 27.6317 5.86087C27.7108 5.96001 27.7887 6.06012 27.8653 6.16119C27.9419 6.26226 28.0172 6.36426 28.0913 6.46718C28.1654 6.5701 28.2383 6.67393 28.3098 6.77866C28.3813 6.88339 28.4516 6.98897 28.5205 7.09541C28.5894 7.20188 28.657 7.30917 28.7233 7.4173C28.7896 7.52542 28.8546 7.63435 28.9182 7.74407C28.9818 7.85378 29.044 7.96427 29.1049 8.07554C29.1658 8.1868 29.2252 8.2988 29.2834 8.41154C29.3415 8.52427 29.3982 8.6377 29.4535 8.75181C29.5088 8.86595 29.5627 8.98074 29.6152 9.09618C29.6677 9.21165 29.7187 9.32774 29.7683 9.44444C29.818 9.56117 29.8661 9.67848 29.9128 9.79637C29.9596 9.91428 30.0048 10.0327 30.0487 10.1518C30.0924 10.2708 30.1348 10.3903 30.1756 10.5104C30.2165 10.6305 30.2558 10.751 30.2937 10.872C30.3316 10.9931 30.368 11.1146 30.4029 11.2365C30.4378 11.3584 30.4711 11.4808 30.503 11.6036C30.5349 11.7263 30.5652 11.8494 30.5941 11.9729C30.6229 12.0964 30.6502 12.2203 30.676 12.3445C30.7017 12.4686 30.726 12.5931 30.7487 12.7179C30.7714 12.8427 30.7925 12.9677 30.8121 13.093C30.8318 13.2183 30.8498 13.3438 30.8664 13.4696C30.8829 13.5953 30.8979 13.7213 30.9113 13.8474C30.9247 13.9735 30.9366 14.0997 30.9468 14.2261C30.9572 14.3526 30.9659 14.4791 30.9731 14.6057C30.9806 14.7325 30.9865 14.8593 30.9909 14.9862C30.9952 15.1132 30.998 15.2401 30.9993 15.3671C31.0005 15.4941 31.0002 15.6211 30.9983 15.7481C30.9964 15.8751 30.9929 16.002 30.9879 16.1289C30.9829 16.2559 30.9763 16.3827 30.9681 16.5094C30.9599 16.6361 30.9502 16.7628 30.9389 16.8893C30.9277 17.0158 30.9148 17.1421 30.9004 17.2683C30.886 17.3945 30.8701 17.5205 30.8526 17.6462C30.835 17.772 30.816 17.8976 30.7953 18.0229C30.7747 18.1482 30.7526 18.2733 30.7289 18.3981C30.7052 18.5228 30.68 18.6473 30.6532 18.7714C30.6265 18.8956 30.5982 19.0194 30.5684 19.1428C30.5386 19.2663 30.5072 19.3894 30.4744 19.512C30.4415 19.6347 30.4071 19.757 30.3713 19.8788C30.3354 20.0006 30.298 20.122 30.2592 20.2429C30.2203 20.3638 30.18 20.4842 30.1381 20.6041C30.0963 20.7241 30.053 20.8435 30.0082 20.9623C29.9634 21.0812 29.9172 21.1994 29.8695 21.3171C29.8218 21.4348 29.7726 21.5519 29.7221 21.6684C29.6715 21.7849 29.6195 21.9008 29.566 22.016C29.5126 22.1312 29.4577 22.2457 29.4014 22.3596C29.3452 22.4734 29.2875 22.5866 29.2284 22.699C29.1694 22.8115 29.1089 22.9231 29.0471 23.0341C28.9853 23.145 28.9221 23.2552 28.8576 23.3645C28.7931 23.4739 28.7272 23.5825 28.66 23.6903C28.5928 23.798 28.5242 23.9049 28.4544 24.011C28.3845 24.1171 28.3134 24.2223 28.2409 24.3266C28.1685 24.4309 28.0947 24.5343 28.0197 24.6368C27.9447 24.7393 27.8685 24.8408 27.791 24.9414C27.7135 25.0421 27.6348 25.1417 27.5548 25.2404C27.4748 25.339 27.3937 25.4367 27.3113 25.5334C27.2289 25.63 27.1454 25.7257 27.0606 25.8203C26.9933 25.8957 26.9252 25.9705 26.8564 26.0447C26.7876 26.1188 26.718 26.1923 26.6478 26.265C26.5775 26.3378 26.5066 26.4099 26.4349 26.4813C26.3633 26.5527 26.2909 26.6234 26.2179 26.6934C26.1449 26.7633 26.0711 26.8326 25.9968 26.9011C25.9224 26.9697 25.8473 27.0375 25.7716 27.1046C25.6959 27.1717 25.6196 27.238 25.5425 27.3036C25.4655 27.3692 25.3879 27.434 25.3097 27.4981C25.2314 27.5622 25.1525 27.6255 25.073 27.688C24.9935 27.7505 24.9134 27.8123 24.8327 27.8733C24.752 27.9342 24.6707 27.9944 24.5888 28.0538C24.5069 28.1132 24.4244 28.1717 24.3414 28.2295C24.2584 28.2873 24.1748 28.3443 24.0906 28.4004C24.0065 28.4566 23.9218 28.5119 23.8366 28.5664C23.7514 28.6209 23.6657 28.6745 23.5794 28.7273C23.4931 28.7801 23.4064 28.8321 23.3191 28.8832C23.2318 28.9344 23.144 28.9846 23.0558 29.0341C22.9675 29.0835 22.8788 29.132 22.7896 29.1797C22.7003 29.2274 22.6107 29.2742 22.5206 29.3201C22.4304 29.366 22.3399 29.4111 22.2489 29.4552C22.1579 29.4994 22.0665 29.5427 21.9746 29.5851C21.8828 29.6275 21.7905 29.6689 21.6979 29.7095C21.6052 29.7501 21.5122 29.7898 21.4187 29.8285C21.3253 29.8673 21.2315 29.9051 21.1374 29.9421C21.0432 29.979 20.9487 30.015 20.8538 30.0501C20.7589 30.0852 20.6637 30.1193 20.5682 30.1526C20.4727 30.1858 20.3768 30.2181 20.2806 30.2494C20.1844 30.2808 20.088 30.3112 19.9912 30.3407C19.8945 30.3702 19.7974 30.3987 19.7001 30.4263C19.6028 30.4539 19.5052 30.4805 19.4074 30.5062C19.3095 30.5319 19.2115 30.5566 19.1131 30.5803C19.0148 30.6041 18.9163 30.6269 18.8175 30.6488C17.8959 30.8468 16.9781 30.9386 16.039 30.9925C15.1405 31.005 14.2534 30.9757 13.3619 30.8543C13.2651 30.8408 13.1685 30.8264 13.072 30.811C12.9754 30.7957 12.8791 30.7795 12.7829 30.7623C12.6867 30.7452 12.5907 30.7271 12.4948 30.7081C12.399 30.6891 12.3033 30.6692 12.2079 30.6484C12.1124 30.6277 12.0171 30.606 11.9221 30.5834C11.827 30.5608 11.7321 30.5373 11.6375 30.5129C11.5429 30.4885 11.4485 30.4633 11.3544 30.4371C11.2602 30.4109 11.1664 30.3839 11.0727 30.3559C10.9791 30.328 10.8857 30.2991 10.7926 30.2694C10.6995 30.2397 10.6068 30.2091 10.5143 30.1776C10.4217 30.1461 10.3296 30.1138 10.2377 30.0806C10.1458 30.0474 10.0542 30.0133 9.96294 29.9783C9.87171 29.9434 9.78081 29.9076 9.69024 29.8709C9.59967 29.8342 9.50946 29.7967 9.4196 29.7583C9.32974 29.7199 9.24026 29.6807 9.15114 29.6406C9.06202 29.6005 8.97329 29.5596 8.88495 29.5179C8.79662 29.4761 8.70868 29.4335 8.62112 29.3901C8.5336 29.3467 8.44648 29.3024 8.35979 29.2573C8.27309 29.2123 8.18684 29.1664 8.10102 29.1197C8.01518 29.073 7.9298 29.0255 7.84489 28.9772C7.75995 28.9288 7.67547 28.8797 7.59146 28.8298C7.50747 28.7799 7.42396 28.7292 7.34092 28.6776C7.25789 28.6262 7.17534 28.5739 7.09327 28.5208C7.01123 28.4678 6.92971 28.4139 6.84869 28.3593C6.76765 28.3047 6.68714 28.2493 6.60717 28.1932C6.52717 28.1371 6.44772 28.0802 6.36882 28.0225C6.28992 27.9649 6.21157 27.9066 6.13378 27.8474C6.05597 27.7883 5.97873 27.7285 5.90206 27.6679C5.82539 27.6073 5.74931 27.546 5.6738 27.484C5.59832 27.422 5.52341 27.3592 5.44907 27.2958C5.37475 27.2323 5.30105 27.1682 5.22797 27.1034C5.15486 27.0385 5.08237 26.973 5.0105 26.9068C4.91684 26.8207 4.82425 26.7334 4.73274 26.6449C4.64122 26.5565 4.5508 26.4669 4.46149 26.3763C4.37218 26.2856 4.284 26.1939 4.19695 26.1011C4.1099 26.0082 4.024 25.9144 3.93925 25.8194C3.8545 25.7245 3.77094 25.6285 3.68857 25.5315C3.60617 25.4345 3.525 25.3365 3.44505 25.2375C3.36508 25.1385 3.28633 25.0385 3.20881 24.9376C3.1313 24.8367 3.05505 24.7348 2.98004 24.632C2.90504 24.5292 2.83131 24.4254 2.75887 24.3208C2.68643 24.2162 2.61527 24.1107 2.5454 24.0043C2.47555 23.8979 2.40702 23.7907 2.3398 23.6827C2.27259 23.5746 2.20672 23.4657 2.14219 23.356C2.07766 23.2464 2.01448 23.1359 1.95266 23.0247C1.89084 22.9134 1.8304 22.8014 1.77133 22.6887C1.71227 22.576 1.65461 22.4625 1.59835 22.3484C1.54206 22.2343 1.4872 22.1194 1.43377 22.0039C1.38031 21.8884 1.32829 21.7723 1.27771 21.6555C1.22713 21.5387 1.17799 21.4214 1.13029 21.3034C1.0826 21.1854 1.03636 21.0668 0.991575 20.9477C0.946797 20.8286 0.903489 20.7089 0.861652 20.5888C0.819818 20.4686 0.779468 20.3479 0.740603 20.2267C0.701738 20.1055 0.664369 19.9839 0.628496 19.8618C0.592625 19.7397 0.558261 19.6171 0.525405 19.4942C0.492549 19.3712 0.46121 19.2479 0.431387 19.1242C0.401565 19.0005 0.373271 18.8764 0.346504 18.752C0.319735 18.6276 0.294502 18.5029 0.270805 18.3778C0.247105 18.2528 0.224948 18.1275 0.204332 18.0019C0.183717 17.8763 0.16465 17.7505 0.147133 17.6245C0.129613 17.4984 0.113648 17.3721 0.0992384 17.2457C0.0848263 17.1193 0.0719716 16.9927 0.0606742 16.8659C0.0493793 16.7391 0.0396442 16.6123 0.0314688 16.4853C0.0232957 16.3583 0.0166859 16.2312 0.0116395 16.104C0.00675465 15.9781 0.00340705 15.8522 0.00159662 15.7262C-0.000213807 15.6003 -0.000484538 15.4743 0.000784186 15.3483C0.00205291 15.2223 0.00485878 15.0964 0.0092019 14.9705C0.0135474 14.8446 0.019429 14.7188 0.0268465 14.593C0.034264 14.4672 0.0432176 14.3416 0.0537071 14.2161C0.0641943 14.0905 0.0762137 13.9651 0.0897658 13.8399C0.103315 13.7146 0.118394 13.5895 0.135002 13.4647C0.151609 13.3398 0.169738 13.2151 0.189389 13.0907C0.20904 12.9662 0.230208 12.842 0.252893 12.7181C0.275578 12.5942 0.299774 12.4706 0.325481 12.3473C0.351186 12.2239 0.378393 12.1009 0.407104 11.9783C0.435814 11.8556 0.466017 11.7333 0.497714 11.6114C0.529413 11.4894 0.562595 11.3679 0.597259 11.2468C0.631926 11.1257 0.668066 11.005 0.705681 10.8848C0.743296 10.7645 0.782374 10.6448 0.822913 10.5255C0.863453 10.4062 0.905443 10.2874 0.948884 10.1692C0.992325 10.0509 1.0372 9.93323 1.08352 9.81608C1.12984 9.6989 1.17758 9.58231 1.22674 9.46632C1.2759 9.35033 1.32647 9.23496 1.37846 9.1202C1.43044 9.00545 1.48382 8.89135 1.53858 8.7779C1.59337 8.66445 1.64952 8.55168 1.70704 8.43958C1.76456 8.32751 1.82345 8.21615 1.8837 8.10551C1.94393 7.99486 2.00551 7.88497 2.06845 7.77582C2.13139 7.6667 2.19564 7.55834 2.26122 7.45076C2.32679 7.34321 2.39367 7.23646 2.46186 7.13052C2.53005 7.02458 2.59952 6.91949 2.67027 6.81526C2.74101 6.71103 2.81302 6.60767 2.88631 6.50517C2.95959 6.4027 3.03409 6.30114 3.10984 6.2005C3.1856 6.09983 3.26258 6.00011 3.34077 5.90132C3.41896 5.80255 3.49835 5.70475 3.57894 5.60791C3.65953 5.51107 3.74129 5.41522 3.82421 5.32038C3.90713 5.22553 3.9912 5.13172 4.07642 5.03894C4.16328 4.94388 4.25131 4.84993 4.3405 4.75708C4.42971 4.66423 4.52007 4.57251 4.61157 4.48191C4.70306 4.39132 4.79567 4.30188 4.8894 4.21359C4.98313 4.12533 5.07795 4.03823 5.17387 3.95229C5.26976 3.86638 5.36672 3.78168 5.46475 3.69819C5.56275 3.6147 5.66179 3.53245 5.76186 3.45143C5.86193 3.37039 5.96301 3.29062 6.06507 3.21212C6.16712 3.13362 6.27014 3.05642 6.37413 2.98051C6.47812 2.90457 6.58304 2.82995 6.68889 2.75663C6.79476 2.68333 6.90152 2.61137 7.00917 2.54073C7.11682 2.47007 7.22533 2.40078 7.33469 2.33285C7.44407 2.26493 7.55429 2.19837 7.66534 2.13317C7.77637 2.068 7.8882 2.00422 8.00084 1.94183C8.11348 1.87944 8.22688 1.81846 8.34104 1.7589C8.45518 1.69933 8.57005 1.64121 8.68567 1.58452C8.80128 1.52783 8.91758 1.47259 9.03456 1.4188C9.15155 1.36501 9.26919 1.31269 9.38749 1.26185C9.50578 1.211 9.62469 1.16163 9.74419 1.11375C9.86372 1.06587 9.98383 1.01949 10.1045 0.974603C10.2252 0.92972 10.3464 0.88635 10.4682 0.844494C10.5899 0.802636 10.7122 0.762304 10.835 0.723498C10.9578 0.684695 11.081 0.64743 11.2047 0.611701C11.3284 0.575973 11.4525 0.541794 11.5771 0.509166C11.7017 0.476538 11.8266 0.445469 11.9519 0.415958C12.0772 0.386449 12.2029 0.358509 12.329 0.332136C12.455 0.305764 12.5813 0.280969 12.708 0.257752C12.8346 0.234535 12.9615 0.212902 13.0887 0.192851C13.2159 0.172801 13.3433 0.154342 13.471 0.137473C13.5986 0.120607 13.7265 0.105334 13.8545 0.0916565C13.9825 0.0779809 14.1107 0.0659042 14.239 0.0554265C14.3674 0.0449512 14.4958 0.0360784 14.6244 0.0288082C14.7529 0.021538 14.8816 0.0158739 15.0103 0.0118159ZM15.0152 1.66517C14.9015 1.66921 14.7879 1.67464 14.6744 1.68146C14.5608 1.6883 14.4474 1.69654 14.3341 1.70619C14.2207 1.71581 14.1075 1.72684 13.9945 1.73926C13.8814 1.75169 13.7685 1.76551 13.6558 1.78074C13.5431 1.79595 13.4306 1.81256 13.3183 1.83057C13.206 1.84855 13.0939 1.86793 12.9821 1.88869C12.8702 1.90946 12.7587 1.9316 12.6474 1.95512C12.5361 1.97862 12.4251 2.0035 12.3145 2.02975C12.2038 2.05603 12.0935 2.08365 11.9835 2.11261C11.8735 2.14159 11.7639 2.17193 11.6547 2.20363C11.5454 2.2353 11.4366 2.26832 11.3282 2.3027C11.2198 2.33708 11.1118 2.37279 11.0042 2.40983C10.8967 2.44685 10.7896 2.48521 10.683 2.52491C10.5764 2.56458 10.4703 2.60557 10.3648 2.64786C10.2592 2.69017 10.1541 2.73377 10.0497 2.77865C9.94514 2.82356 9.8412 2.86973 9.73785 2.91718C9.63448 2.96465 9.53171 3.01338 9.42954 3.06337C9.32738 3.11336 9.22585 3.1646 9.12494 3.21711C9.02406 3.26962 8.92384 3.32336 8.82426 3.37834C8.72469 3.43332 8.6258 3.48952 8.52761 3.54694C8.42944 3.60437 8.33198 3.66299 8.23523 3.72282C8.13851 3.78264 8.04254 3.84364 7.94731 3.90582C7.85209 3.96802 7.75763 4.03139 7.66395 4.09592C7.57029 4.16044 7.47744 4.22611 7.3854 4.29292C7.29336 4.35976 7.20215 4.42771 7.11177 4.49678C7.02142 4.56584 6.93192 4.63601 6.84327 4.70729C6.75465 4.77857 6.66691 4.85094 6.58005 4.9244C6.49321 4.99784 6.40728 5.07235 6.32228 5.14792C6.23727 5.22348 6.15321 5.30007 6.0701 5.37772C5.98699 5.45536 5.90484 5.53403 5.82366 5.61372C5.74248 5.69338 5.6623 5.77403 5.58314 5.85566C5.50395 5.93732 5.42578 6.01994 5.34864 6.10353C5.27147 6.18661 5.19533 6.27064 5.12023 6.3556C5.04513 6.44056 4.97108 6.52644 4.8981 6.61323C4.82511 6.70002 4.7532 6.7877 4.68238 6.87627C4.61155 6.96482 4.54183 7.05424 4.47322 7.14452C4.4046 7.23481 4.33711 7.32592 4.27076 7.41787C4.20437 7.50982 4.13914 7.60256 4.07507 7.6961C4.01096 7.78966 3.94804 7.88399 3.88629 7.9791C3.82452 8.07418 3.76393 8.17003 3.70453 8.26663C3.64514 8.36323 3.58694 8.46055 3.52994 8.55858C3.47294 8.65661 3.41716 8.75533 3.36258 8.85473C3.30803 8.95414 3.25471 9.0542 3.2026 9.15491C3.1505 9.25563 3.09965 9.35697 3.05004 9.45895C3.00045 9.56094 2.95211 9.66352 2.90502 9.76668C2.85796 9.86984 2.81216 9.97357 2.76764 10.0779C2.72314 10.1822 2.67992 10.287 2.63799 10.3923C2.59605 10.4977 2.55542 10.6036 2.5161 10.7099C2.47678 10.8163 2.43877 10.9231 2.40206 11.0304C2.36538 11.1377 2.33002 11.2454 2.296 11.3536C2.26196 11.4618 2.22925 11.5704 2.19789 11.6793C2.16653 11.7883 2.13652 11.8977 2.10787 12.0074C2.07921 12.1171 2.0519 12.2271 2.02593 12.3375C1.99999 12.4479 1.97541 12.5586 1.9522 12.6696C1.92899 12.7806 1.90714 12.8919 1.88666 13.0034C1.86618 13.1149 1.84708 13.2267 1.82935 13.3387C1.81163 13.4507 1.79528 13.5629 1.78032 13.6753C1.76537 13.7877 1.7518 13.9003 1.73962 14.013C1.72743 14.1258 1.71663 14.2387 1.70722 14.3517C1.69784 14.4647 1.68983 14.5778 1.6832 14.691C1.6766 14.8042 1.67138 14.9175 1.66756 15.0308C1.66373 15.1441 1.66131 15.2575 1.66029 15.3709C1.65926 15.4843 1.65963 15.5976 1.66139 15.711C1.66317 15.8244 1.66634 15.9378 1.67091 16.0511C1.67578 16.1799 1.68246 16.3086 1.69097 16.4372C1.69948 16.5658 1.70979 16.6942 1.7219 16.8226C1.73402 16.9509 1.74796 17.079 1.76371 17.207C1.77944 17.3349 1.79696 17.4626 1.81627 17.59C1.83561 17.7174 1.85674 17.8446 1.87964 17.9714C1.90257 18.0983 1.92726 18.2247 1.95373 18.3509C1.98022 18.477 2.00847 18.6028 2.03848 18.7281C2.06851 18.8535 2.1003 18.9784 2.13385 19.1028C2.16737 19.2273 2.20265 19.3512 2.23969 19.4747C2.27673 19.5982 2.3155 19.7211 2.35598 19.8434C2.39649 19.9658 2.43871 20.0876 2.48264 20.2087C2.52657 20.3299 2.57219 20.4504 2.61949 20.5703C2.66682 20.6902 2.71583 20.8094 2.76653 20.9279C2.81721 21.0464 2.86955 21.1642 2.92356 21.2812C2.97756 21.3983 3.03319 21.5145 3.09045 21.63C3.14773 21.7455 3.20663 21.8601 3.26715 21.9739C3.51009 22.4308 3.78533 22.866 4.06705 23.2996C5.1836 20.2711 7.60522 17.7849 10.5177 16.4383C10.883 16.2694 11.2689 16.1125 11.6521 15.9895C12.919 16.7343 14.1855 17.1407 15.6646 17.1495C17.1652 17.1321 18.4263 16.7518 19.7153 15.9941C20.2832 16.158 20.8547 16.4228 21.3792 16.6952C21.4475 16.7304 21.5154 16.7662 21.583 16.8026C21.6506 16.839 21.7179 16.8761 21.7848 16.9137C21.8518 16.9514 21.9184 16.9897 21.9846 17.0286C22.0508 17.0674 22.1167 17.1069 22.1822 17.1471C22.2477 17.1872 22.3129 17.2279 22.3776 17.2691C22.4424 17.3105 22.5067 17.3524 22.5707 17.3948C22.6347 17.4373 22.6983 17.4804 22.7615 17.524C22.8247 17.5677 22.8875 17.6119 22.9499 17.6567C23.0122 17.7015 23.0742 17.7469 23.1358 17.7929C23.1973 17.8388 23.2584 17.8853 23.3191 17.9324C23.3798 17.9795 23.44 18.0271 23.4999 18.0753C23.5597 18.1235 23.619 18.1722 23.678 18.2214C23.7369 18.2707 23.7953 18.3205 23.8533 18.3709C23.9113 18.4212 23.9689 18.4721 24.0259 18.5235C24.083 18.5749 24.1396 18.6269 24.1957 18.6793C24.2518 18.7317 24.3074 18.7847 24.3626 18.8382C24.4177 18.8916 24.4724 18.9456 24.5265 19.0001C24.5806 19.0546 24.6343 19.1095 24.6874 19.165C24.7405 19.2205 24.7931 19.2764 24.8452 19.3329C24.8974 19.3893 24.9489 19.4462 25 19.5036C25.051 19.5609 25.1016 19.6188 25.1516 19.6771C25.2016 19.7354 25.251 19.7942 25.2999 19.8534C25.3488 19.9126 25.3972 19.9723 25.445 20.0324C25.4928 20.0925 25.5401 20.153 25.5868 20.214C25.6335 20.275 25.6796 20.3364 25.7252 20.3982C25.7708 20.46 25.8158 20.5223 25.8602 20.5849C25.9046 20.6476 25.9485 20.7106 25.9917 20.7741C26.035 20.8376 26.0777 20.9014 26.1198 20.9657C26.1619 21.0299 26.2034 21.0945 26.2443 21.1595C26.2852 21.2245 26.3255 21.2899 26.3652 21.3557C26.4049 21.4214 26.4439 21.4875 26.4824 21.554C26.5209 21.6205 26.5588 21.6873 26.5961 21.7544C26.8102 22.1401 27.0024 22.5364 27.1728 22.9433C27.6047 22.2317 27.9949 21.5142 28.3129 20.7436C28.3471 20.6601 28.3805 20.5762 28.4131 20.492C28.4457 20.4077 28.4774 20.3232 28.5083 20.2384C28.5392 20.1535 28.5693 20.0684 28.5985 19.9829C28.6278 19.8975 28.6562 19.8118 28.6838 19.7258C28.7113 19.6398 28.7381 19.5536 28.764 19.4671C28.7898 19.3806 28.8149 19.2938 28.8391 19.2068C28.8632 19.1198 28.8866 19.0326 28.909 18.9451C28.9315 18.8577 28.9531 18.77 28.9739 18.6821C28.9947 18.5943 29.0146 18.5062 29.0336 18.4179C29.0527 18.3296 29.0708 18.2412 29.0881 18.1526C29.1055 18.0639 29.1219 17.9751 29.1375 17.8862C29.153 17.7973 29.1677 17.7082 29.1816 17.6189C29.1954 17.5297 29.2084 17.4403 29.2205 17.3509C29.2325 17.2614 29.2437 17.1718 29.2541 17.0821C29.2644 16.9924 29.2738 16.9026 29.2824 16.8127C29.291 16.7228 29.2987 16.6328 29.3055 16.5428C29.3123 16.4527 29.3182 16.3626 29.3233 16.2725C29.3283 16.1823 29.3325 16.0921 29.3358 16.0019C29.3391 15.9117 29.3415 15.8214 29.343 15.7311C29.3445 15.6408 29.3451 15.5505 29.3449 15.4602C29.3446 15.3699 29.3435 15.2796 29.3415 15.1894C29.3395 15.0991 29.3366 15.0088 29.3328 14.9186C29.329 14.8284 29.3243 14.7382 29.3188 14.6481C29.3132 14.558 29.3068 14.4679 29.2995 14.3779C29.2922 14.2879 29.284 14.198 29.2749 14.1081C29.2659 14.0183 29.256 13.9285 29.2451 13.8389C29.2343 13.7493 29.2226 13.6597 29.21 13.5703C29.1974 13.4809 29.184 13.3916 29.1697 13.3024C29.1553 13.2133 29.1402 13.1243 29.1241 13.0354C29.108 12.9466 29.0911 12.8579 29.0733 12.7693C29.0555 12.6808 29.0368 12.5925 29.0173 12.5043C28.9978 12.4161 28.9774 12.3282 28.9562 12.2404C28.9293 12.1301 28.901 12.0202 28.8714 11.9106C28.8418 11.801 28.8109 11.6918 28.7786 11.583C28.7463 11.4741 28.7127 11.3657 28.6778 11.2577C28.6428 11.1497 28.6066 11.0421 28.569 10.935C28.5314 10.8279 28.4925 10.7212 28.4523 10.6151C28.4121 10.5089 28.3706 10.4033 28.3278 10.2981C28.285 10.193 28.2409 10.0884 28.1956 9.98433C28.1502 9.88026 28.1036 9.77678 28.0557 9.67388C28.0078 9.57096 27.9586 9.46864 27.9081 9.36693C27.8577 9.26522 27.8061 9.16415 27.7532 9.06372C27.7003 8.96326 27.6462 8.86349 27.5908 8.76439C27.5355 8.66527 27.4789 8.56685 27.4212 8.46913C27.3634 8.37141 27.3044 8.27441 27.2443 8.17814C27.1841 8.08187 27.1228 7.98635 27.0603 7.89157C26.9978 7.7968 26.9342 7.70281 26.8694 7.6096C26.8046 7.5164 26.7386 7.424 26.6716 7.33241C26.6045 7.24084 26.5363 7.15009 26.467 7.06017C26.3977 6.97026 26.3273 6.88122 26.2558 6.79302C26.1844 6.70483 26.1118 6.61754 26.0382 6.53115C25.9645 6.44474 25.8899 6.35926 25.8141 6.2747C25.7384 6.19012 25.6617 6.10649 25.5839 6.02381C25.5061 5.94112 25.4273 5.85941 25.3475 5.77865C25.2678 5.69789 25.187 5.61813 25.1052 5.53937C25.0235 5.46061 24.9408 5.38286 24.8572 5.30612C24.7735 5.22938 24.6889 5.15368 24.6034 5.07903C24.5179 5.00436 24.4315 4.93075 24.3441 4.85822C24.2568 4.78568 24.1686 4.71423 24.0796 4.64385C23.9905 4.57348 23.9005 4.50421 23.8098 4.43605C23.719 4.36788 23.6274 4.30085 23.535 4.23494C23.4425 4.16903 23.3493 4.10427 23.2553 4.04064C23.1613 3.97701 23.0665 3.91455 22.971 3.85325C22.8755 3.79196 22.7792 3.73183 22.6821 3.67289C22.6107 3.62927 22.5388 3.5863 22.4665 3.54398C22.3943 3.50167 22.3216 3.46002 22.2486 3.41904C22.1755 3.37805 22.1021 3.33773 22.0284 3.29808C21.9546 3.25845 21.8805 3.21949 21.806 3.18119C21.7316 3.14289 21.6567 3.10528 21.5816 3.06836C21.5064 3.03141 21.4309 2.99517 21.3551 2.95962C21.2793 2.92406 21.2032 2.88919 21.1267 2.85503C21.0503 2.82086 20.9735 2.7874 20.8964 2.75463C20.8193 2.72187 20.742 2.68981 20.6643 2.65844C20.5867 2.62711 20.5088 2.59647 20.4306 2.56653C20.3523 2.5366 20.2739 2.50737 20.1951 2.47886C20.1164 2.45038 20.0374 2.4226 19.9581 2.39554C19.8789 2.36846 19.7994 2.34211 19.7196 2.3165C19.6399 2.29088 19.56 2.26601 19.4798 2.24187C19.3996 2.21771 19.3192 2.19428 19.2386 2.17159C19.158 2.1489 19.0772 2.12695 18.9961 2.10573C18.9152 2.08454 18.834 2.06407 18.7526 2.04433C18.6712 2.02458 18.5896 2.00559 18.5079 1.98734C18.4262 1.96912 18.3443 1.95162 18.2622 1.93484C18.1802 1.91809 18.098 1.90209 18.0156 1.88684C17.9333 1.87159 17.8508 1.85709 17.7682 1.84336C17.6856 1.8296 17.6029 1.81661 17.52 1.80437C17.4372 1.79211 17.3542 1.78063 17.2712 1.76991C17.1881 1.75917 17.105 1.7492 17.0217 1.74001C16.9385 1.73079 16.8552 1.72233 16.7718 1.71464C16.6884 1.70694 16.605 1.70001 16.5215 1.69386C16.4379 1.68768 16.3544 1.68228 16.2708 1.67764C16.1872 1.67299 16.1035 1.6691 16.0198 1.66599C15.9361 1.66285 15.8524 1.66049 15.7687 1.6589C15.685 1.65731 15.6012 1.65647 15.5175 1.6564C15.4338 1.65633 15.35 1.65703 15.2663 1.6585C15.1826 1.65995 15.0988 1.66218 15.0152 1.66517Z" fill="black"/>
<path d="M15.3004 3.96147C15.3074 3.96083 15.3143 3.96001 15.3213 3.95955C15.3701 3.95651 15.4188 3.95408 15.4676 3.95228C15.5164 3.95045 15.5652 3.94924 15.614 3.94864C15.6628 3.94803 15.7116 3.94803 15.7604 3.94864C15.8092 3.94926 15.858 3.95049 15.9068 3.95232C15.9556 3.95414 16.0043 3.95658 16.053 3.95962C16.1017 3.96269 16.1504 3.96634 16.1991 3.9706C16.2477 3.97487 16.2962 3.97974 16.3448 3.98521C16.3933 3.99067 16.4417 3.99676 16.4901 4.00346C16.5384 4.01013 16.5867 4.01741 16.6348 4.0253C16.683 4.03319 16.7311 4.04167 16.779 4.05075C16.827 4.05985 16.8748 4.06954 16.9226 4.07983C16.9703 4.09009 17.0179 4.10096 17.0653 4.11244C17.1128 4.12391 17.1601 4.13597 17.2072 4.14861C17.2544 4.16125 17.3013 4.17448 17.3481 4.18831C17.395 4.20214 17.4416 4.21654 17.4881 4.23151C17.5345 4.2465 17.5808 4.26206 17.6268 4.27819C17.6729 4.29432 17.7188 4.31104 17.7644 4.32833C17.8101 4.34561 17.8555 4.36345 17.9007 4.38186C17.9459 4.40028 17.9909 4.41926 18.0356 4.43881C18.0804 4.45834 18.1249 4.47843 18.1691 4.49908C18.2133 4.51972 18.2573 4.54092 18.301 4.56266C18.3447 4.58442 18.3881 4.60672 18.4313 4.62955C18.4744 4.65236 18.5173 4.67571 18.5599 4.69961C18.6024 4.72352 18.6447 4.74794 18.6866 4.77289C18.7286 4.79786 18.7702 4.82334 18.8115 4.84933C18.8528 4.8753 18.8938 4.90179 18.9345 4.9288C18.9752 4.95582 19.0155 4.98334 19.0554 5.01138C19.0954 5.03939 19.135 5.0679 19.1743 5.09691C19.2136 5.12592 19.2525 5.15542 19.291 5.1854C19.3295 5.21538 19.3676 5.24583 19.4054 5.27674C19.4432 5.30768 19.4805 5.33907 19.5175 5.37093C19.5545 5.40279 19.5911 5.43512 19.6273 5.4679C19.6626 5.49984 19.6976 5.53221 19.7322 5.56502C19.7668 5.59781 19.801 5.63102 19.8348 5.66466C19.8686 5.69828 19.902 5.73232 19.9349 5.76677C19.9678 5.80122 20.0004 5.83607 20.0325 5.87133C20.0646 5.90657 20.0962 5.94219 20.1275 5.97821C20.1587 6.01423 20.1895 6.05063 20.2198 6.08741C20.2502 6.12418 20.28 6.16132 20.3094 6.19881C20.3389 6.23633 20.3679 6.27419 20.3964 6.31239C20.4249 6.35059 20.4529 6.38914 20.4804 6.42804C20.508 6.46693 20.5351 6.50617 20.5617 6.54575C20.5883 6.58531 20.6144 6.62519 20.64 6.66539C20.6656 6.70556 20.6908 6.74606 20.7154 6.78688C20.74 6.8277 20.7642 6.86881 20.7878 6.91022C20.8114 6.95161 20.8345 6.9933 20.8571 7.03528C20.8798 7.07724 20.9018 7.11947 20.9234 7.16197C20.945 7.2045 20.966 7.24728 20.9866 7.29031C21.0071 7.33331 21.0271 7.37657 21.0465 7.4201C21.066 7.4636 21.085 7.50734 21.1034 7.55132C21.1218 7.5953 21.1396 7.6395 21.157 7.68393C21.1743 7.72834 21.1911 7.77295 21.2073 7.81779C21.2235 7.8626 21.2392 7.90761 21.2543 7.95282C21.2694 7.99803 21.284 8.04341 21.298 8.08896C21.312 8.13453 21.3255 8.18027 21.3384 8.22617C21.3513 8.27205 21.3636 8.31809 21.3754 8.3643C21.3871 8.41049 21.3983 8.45682 21.409 8.50329C21.4196 8.54976 21.4297 8.59635 21.4392 8.64306C21.4487 8.68977 21.4576 8.7366 21.466 8.78355C21.4743 8.83047 21.4821 8.87749 21.4893 8.92461C21.4965 8.97174 21.5031 9.01895 21.5092 9.06623C21.5152 9.11351 21.5207 9.16086 21.5256 9.20829C21.5305 9.25571 21.5348 9.30318 21.5385 9.3507C21.5422 9.39822 21.5454 9.44578 21.5479 9.49339C21.5506 9.5417 21.5526 9.59001 21.554 9.63834C21.5555 9.68668 21.5563 9.73504 21.5566 9.78342C21.5568 9.83179 21.5565 9.88015 21.5555 9.9285C21.5546 9.97685 21.553 10.0252 21.5509 10.0735C21.5487 10.1218 21.546 10.1701 21.5426 10.2183C21.5393 10.2666 21.5354 10.3148 21.5309 10.363C21.5264 10.4111 21.5213 10.4592 21.5156 10.5072C21.5098 10.5553 21.5036 10.6032 21.4967 10.6511C21.4898 10.6989 21.4823 10.7467 21.4742 10.7944C21.4662 10.8421 21.4575 10.8897 21.4483 10.9372C21.439 10.9846 21.4292 11.032 21.4188 11.0792C21.4084 11.1265 21.3974 11.1736 21.3859 11.2205C21.3743 11.2675 21.3622 11.3143 21.3494 11.3609C21.3367 11.4076 21.3234 11.4541 21.3096 11.5005C21.2957 11.5468 21.2813 11.593 21.2663 11.6389C21.2512 11.6849 21.2357 11.7307 21.2195 11.7763C21.2034 11.8219 21.1868 11.8673 21.1695 11.9125C21.1522 11.9576 21.1344 12.0026 21.1161 12.0474C21.0977 12.0921 21.0788 12.1366 21.0593 12.1809C21.0399 12.2252 21.0199 12.2692 20.9994 12.313C20.9788 12.3568 20.9577 12.4003 20.9361 12.4436C20.9145 12.4868 20.8924 12.5298 20.8697 12.5725C20.847 12.6153 20.8238 12.6577 20.8001 12.6999C20.7764 12.742 20.7522 12.7839 20.7274 12.8254C20.7027 12.867 20.6774 12.9082 20.6516 12.9491C20.6259 12.9901 20.5996 13.0307 20.5728 13.0709C20.5461 13.1112 20.5188 13.1512 20.4911 13.1908C20.4633 13.2304 20.4351 13.2697 20.4063 13.3086C20.3776 13.3475 20.3484 13.3861 20.3187 13.4243C20.2891 13.4624 20.2589 13.5003 20.2283 13.5377C20.1977 13.5752 20.1667 13.6122 20.1352 13.6489C20.1036 13.6856 20.0717 13.7219 20.0393 13.7578C20.0076 13.7928 19.9756 13.8274 19.9432 13.8617C19.9107 13.8959 19.8778 13.9297 19.8446 13.9631C19.8113 13.9965 19.7776 14.0296 19.7436 14.0622C19.7095 14.0948 19.675 14.127 19.6402 14.1588C19.6053 14.1906 19.5701 14.2219 19.5345 14.2529C19.4989 14.2838 19.4629 14.3143 19.4266 14.3443C19.3902 14.3744 19.3535 14.404 19.3165 14.4332C19.2794 14.4624 19.242 14.4911 19.2043 14.5194C19.1665 14.5476 19.1284 14.5754 19.09 14.6028C19.0516 14.6301 19.0128 14.657 18.9737 14.6834C18.9347 14.7098 18.8953 14.7358 18.8555 14.7612C18.8158 14.7867 18.7758 14.8117 18.7355 14.8361C18.6952 14.8606 18.6546 14.8846 18.6137 14.9082C18.5728 14.9317 18.5317 14.9547 18.4902 14.9772C18.4488 14.9997 18.4071 15.0217 18.3651 15.0432C18.3231 15.0647 18.2809 15.0857 18.2384 15.1062C18.1959 15.1267 18.1532 15.1467 18.1103 15.1661C18.0673 15.1856 18.0241 15.2045 17.9807 15.2229C17.9373 15.2413 17.8936 15.2592 17.8498 15.2766C17.8059 15.2939 17.7618 15.3107 17.7176 15.327C17.6733 15.3433 17.6289 15.3591 17.5842 15.3743C17.5396 15.3895 17.4948 15.4042 17.4498 15.4183C17.4048 15.4324 17.3596 15.446 17.3143 15.459C17.2689 15.4721 17.2235 15.4846 17.1778 15.4965C17.1322 15.5084 17.0864 15.5198 17.0405 15.5307C16.9946 15.5415 16.9486 15.5518 16.9024 15.5615C16.8563 15.5712 16.81 15.5804 16.7636 15.589C16.7173 15.5975 16.6708 15.6056 16.6242 15.6131C16.5777 15.6205 16.531 15.6275 16.4843 15.6338C16.4375 15.6401 16.3907 15.6459 16.3439 15.6512C16.297 15.6564 16.2501 15.661 16.2031 15.6651C16.1561 15.6692 16.109 15.6727 16.062 15.6756C14.5646 15.7889 13.0418 15.2688 11.8965 14.3068C11.8598 14.2757 11.8234 14.2442 11.7874 14.2123C11.7514 14.1803 11.7158 14.1479 11.6806 14.1151C11.6454 14.0823 11.6107 14.0491 11.5763 14.0154C11.5419 13.9817 11.5079 13.9476 11.4744 13.9131C11.4409 13.8786 11.4078 13.8437 11.3751 13.8083C11.3424 13.773 11.3102 13.7373 11.2784 13.7012C11.2466 13.6651 11.2152 13.6286 11.1843 13.5917C11.1534 13.5548 11.123 13.5175 11.093 13.4799C11.063 13.4423 11.0334 13.4043 11.0044 13.3659C10.9753 13.3276 10.9468 13.2888 10.9186 13.2498C10.8906 13.2107 10.863 13.1713 10.8358 13.1316C10.8087 13.0918 10.782 13.0517 10.7559 13.0114C10.7297 12.971 10.7041 12.9303 10.6789 12.8892C10.6538 12.8482 10.6291 12.8069 10.605 12.7652C10.5809 12.7236 10.5573 12.6817 10.5341 12.6395C10.511 12.5973 10.4885 12.5548 10.4664 12.512C10.4443 12.4692 10.4228 12.4262 10.4018 12.3829C10.3808 12.3396 10.3603 12.296 10.3404 12.2522C10.3205 12.2084 10.3011 12.1644 10.2822 12.1201C10.2634 12.0759 10.2451 12.0314 10.2273 11.9866C10.2096 11.9419 10.1924 11.897 10.1757 11.8518C10.1591 11.8067 10.143 11.7613 10.1275 11.7158C10.1119 11.6702 10.097 11.6245 10.0825 11.5786C10.0681 11.5327 10.0543 11.4866 10.041 11.4403C10.0277 11.3941 10.015 11.3476 10.0029 11.3011C9.99074 11.2545 9.97917 11.2078 9.96817 11.161C9.95719 11.1141 9.94679 11.0671 9.93695 11.02C9.92711 10.9729 9.91786 10.9257 9.90919 10.8784C9.90049 10.831 9.89239 10.7836 9.88488 10.7361C9.87738 10.6885 9.87046 10.6409 9.86414 10.5932C9.8578 10.5455 9.85204 10.4977 9.84686 10.4499C9.8417 10.402 9.83713 10.3541 9.83314 10.3062C9.82914 10.258 9.82575 10.2098 9.82294 10.1616C9.82012 10.1133 9.8179 10.065 9.81628 10.0167C9.81466 9.96844 9.81364 9.92011 9.81321 9.87177C9.81279 9.82344 9.81296 9.77511 9.81375 9.72679C9.81451 9.67846 9.81586 9.63015 9.81781 9.58185C9.81978 9.53357 9.82234 9.48532 9.82547 9.43709C9.82863 9.38885 9.83239 9.34067 9.83674 9.29254C9.84106 9.2444 9.84599 9.19633 9.85153 9.14831C9.85704 9.10029 9.86316 9.05235 9.86988 9.00447C9.87658 8.9566 9.88387 8.90882 9.89176 8.86113C9.89965 8.81345 9.90812 8.76587 9.91717 8.7184C9.92622 8.67093 9.93587 8.62358 9.94611 8.57635C9.95633 8.52909 9.96714 8.48198 9.97854 8.43501C9.98992 8.38804 10.0019 8.34122 10.0144 8.29456C10.027 8.24787 10.0401 8.20135 10.0538 8.155C10.0675 8.10864 10.0817 8.06247 10.0966 8.01647C10.1114 7.97047 10.1268 7.92467 10.1428 7.87905C10.1587 7.83343 10.1753 7.78802 10.1923 7.7428C10.2094 7.69759 10.2271 7.65259 10.2453 7.60781C10.2635 7.56302 10.2822 7.51847 10.3015 7.47416C10.3208 7.42985 10.3406 7.38578 10.361 7.34195C10.3814 7.29813 10.4023 7.25457 10.4238 7.21126C10.4452 7.16795 10.4672 7.12491 10.4897 7.08214C10.5122 7.03938 10.5353 6.9969 10.5588 6.9547C10.5824 6.9125 10.6065 6.87059 10.6311 6.82897C10.6557 6.78737 10.6808 6.74607 10.7064 6.70509C10.732 6.6641 10.7582 6.62344 10.7848 6.5831C10.8114 6.54276 10.8385 6.50276 10.8661 6.4631C10.8937 6.42343 10.9218 6.38409 10.9504 6.34511C10.979 6.30614 11.008 6.26752 11.0376 6.22925C11.0671 6.19099 11.0971 6.1531 11.1276 6.11556C11.158 6.07804 11.1889 6.04091 11.2203 6.00415C12.2598 4.78026 13.7121 4.09187 15.3004 3.96147Z" fill="black"/>
</svg>
