<svg width="1453" height="336" viewBox="0 0 1453 336" fill="none" xmlns="http://www.w3.org/2000/svg">
<g opacity="0.6">
<path d="M-7.59326 148.761C89.7616 141.518 158.47 118.482 203.498 98.5391C249.032 78.3711 281.825 56.247 341.749 44.3524C407.841 31.1362 451.026 37.057 468.106 40.3875C491.787 45.0132 490.315 48.1587 529.055 58.8903C603.472 79.5077 617.61 70.3356 650.953 84.0012C706.238 106.654 689.752 141.029 747.58 179.158C789.456 206.78 858.789 228.759 921.507 213.52C980.568 199.168 987.213 163.127 1049.35 158.012C1074.88 155.911 1096.1 160.576 1138.55 169.907C1192.94 181.801 1229.46 196.472 1244.09 201.626C1287.42 216.917 1357.37 226.539 1471.53 196.339" stroke="#B6D9FF" stroke-width="0.979358" stroke-miterlimit="10"/>
<path d="M-8.24854 160.417C85.9251 154.166 156.329 133.311 205.445 112.641C245.344 95.6181 275.774 76.9568 317.71 63.6216C326.882 60.714 336.544 57.8989 346.95 55.4671C412.522 40.1627 455.544 42.687 473.501 44.2333C497.583 46.2951 497.583 48.6475 535.55 59.0752C562.308 66.4102 581.366 70.5997 596.128 73.3487C621.221 78.0141 633.782 78.3313 653.583 87.3051C660.972 90.626 667.905 94.6925 674.246 99.4244C703.576 121.297 702.327 149.025 750.983 178.418C793.335 204.005 862.207 223.353 923.855 208.221C928.739 207.019 933.552 205.599 938.274 203.965C985.934 187.458 996.637 158.422 1051.25 153.862C1057.01 153.374 1062.79 153.229 1068.57 153.426C1087.99 154.034 1108.05 158.342 1139.84 165.321C1192.49 176.951 1228.45 191.343 1244.58 197.04C1256.39 201.173 1268.58 204.418 1281 206.74C1323.99 214.882 1384.76 215.727 1470.26 194.951" stroke="#B6D9FF" stroke-width="0.979358" stroke-miterlimit="10"/>
<path d="M-8.90186 173.105C82.0757 167.818 154.248 149.316 207.393 127.668C249.596 110.486 281.438 90.8602 322.601 76.851C331.996 73.6395 341.733 70.3883 352.184 67.5996C417.236 50.1938 460.034 48.0924 478.943 49.0969C503.307 50.4185 504.928 50.1674 542.062 60.2778C568.062 67.375 587.045 72.1725 601.525 75.5426C625.919 81.1859 637.648 82.3225 656.171 91.64C663.228 95.2283 669.862 99.4391 675.972 104.209C704.305 125.936 705.703 151.999 754.417 178.748C797.245 202.286 865.657 219.005 926.234 203.978C931.363 202.657 936.105 201.335 940.55 199.749C989.71 182.938 1000.59 155.25 1053.2 150.849C1058.91 150.349 1064.65 150.186 1070.39 150.36C1090.13 150.875 1110.17 155.065 1141.18 161.977C1192.11 173.29 1227.47 187.445 1245.12 193.551C1256.84 197.646 1268.91 200.899 1281.21 203.278C1323.81 211.604 1384.3 213.362 1468.95 194.647" stroke="#B6D9FF" stroke-width="0.979358" stroke-miterlimit="10"/>
<path d="M-9.5415 186.652C78.2399 182.383 152.137 166.061 209.355 143.62C253.803 126.174 287.102 105.649 327.462 90.9529C337.095 87.4373 346.921 83.7632 357.386 80.6045C421.918 61.1238 464.419 57.04 484.353 54.8196C509.015 52.0839 512.241 52.5464 548.558 62.3397C573.83 69.1725 592.739 74.5911 607.01 78.5824C630.69 85.1906 641.617 87.173 658.861 96.8209C665.534 100.683 671.83 105.037 677.681 109.839C705.019 131.408 709.151 155.792 757.806 179.885C801.169 201.375 869.06 215.476 928.567 200.542C933.652 199.22 938.364 197.899 942.779 196.352C993.411 179.171 1004.52 152.884 1055.09 148.51C1060.76 147.998 1066.46 147.817 1072.15 147.968C1092.22 148.377 1112.29 152.475 1142.48 159.254C1191.66 170.237 1226.46 184.141 1245.61 190.762C1257.25 194.796 1269.22 198.052 1281.42 200.502C1323.64 209.014 1383.84 211.697 1467.62 195.031" stroke="#B6D9FF" stroke-width="0.979358" stroke-miterlimit="10"/>
<path d="M-10.1958 200.225C74.4044 196.947 149.996 182.832 211.302 159.585C258.01 141.862 292.75 120.425 332.338 105.068C342.193 101.248 352.094 97.1382 362.604 93.6227C426.615 72.1066 468.729 64.7848 489.779 60.582C514.649 55.6127 519.51 54.9651 555.069 64.4412C579.672 71.0493 598.417 77.0495 612.45 81.6223C635.418 89.182 645.526 92.0367 661.507 102.002C667.784 106.128 673.743 110.622 679.345 115.456C705.702 136.84 712.57 159.559 761.181 181.075C805.079 200.503 872.435 212.001 930.886 197.172C935.911 195.85 940.594 194.529 944.994 193.009C997.113 175.471 1008.41 150.717 1056.96 146.289C1062.59 145.784 1068.25 145.586 1073.91 145.695C1094.27 146.012 1114.28 150.003 1143.78 156.651C1191.23 167.33 1225.45 180.995 1246.1 188.092C1257.66 192.087 1269.53 195.351 1281.61 197.859C1323.46 206.569 1383.38 210.15 1466.32 195.56" stroke="#B6D9FF" stroke-width="0.979358" stroke-miterlimit="10"/>
<path d="M-10.8203 208.974C70.5986 206.688 147.9 194.793 213.279 170.739C262.231 152.726 298.429 130.337 337.243 114.372C347.307 110.235 357.312 105.742 367.851 101.83C431.313 78.2785 473.085 67.7848 495.19 61.507C520.283 54.3967 526.869 52.5332 561.565 61.7053C580.726 66.7888 599.533 72.87 617.891 79.9173C640.189 88.4153 649.45 92.1687 664.123 102.385C670.53 106.865 675.614 111.636 681.114 116.275C706.49 137.421 716.108 158.567 764.629 177.44C809.107 194.793 875.898 203.701 933.28 188.978C938.26 187.656 942.912 186.335 947.283 184.841C1000.9 166.986 1012.39 143.54 1058.92 139.245C1064.51 138.738 1070.12 138.526 1075.74 138.611C1096.43 138.862 1116.41 142.708 1145.1 149.184C1190.81 159.519 1224.47 172.973 1246.6 180.546C1258.09 184.498 1269.87 187.765 1281.85 190.326C1323.31 199.234 1382.93 203.74 1465.02 191.198" stroke="#B6D9FF" stroke-width="0.979358" stroke-miterlimit="10"/>
<path d="M-11.5039 215.212C66.7189 213.89 145.73 204.203 215.197 179.369C266.394 161.065 304.019 137.698 342.089 121.218C352.376 116.751 362.455 111.861 373.04 107.579C436.025 82.0316 477.471 68.3792 500.616 60.0001C525.888 50.8148 534.183 47.6694 568.076 56.5242C587.068 61.4866 605.548 67.88 623.317 75.6349C644.887 85.0449 653.36 89.7235 666.754 100.296C672.7 104.962 677.383 109.931 682.839 114.623C707.248 135.637 719.631 154.959 768.034 171.334C813.121 186.585 879.332 192.929 935.643 178.299C940.564 176.977 945.172 175.656 949.543 174.189C1004.66 156.056 1016.39 133.958 1060.84 129.822C1066.39 129.301 1071.96 129.072 1077.54 129.134C1098.53 129.293 1118.51 133.02 1146.41 139.417C1190.38 149.448 1223.46 162.651 1247.11 170.726C1258.52 174.628 1270.19 177.898 1282.06 180.519C1323.15 189.625 1382.49 195.057 1463.73 184.55" stroke="#B6D9FF" stroke-width="0.979358" stroke-miterlimit="10"/>
<path d="M-12.1426 221.543C62.8841 221.239 143.575 213.705 217.159 188.092C270.586 169.484 309.623 145.113 346.951 128.038C357.461 123.214 367.644 117.927 378.258 113.302C440.738 85.7853 481.886 69.0271 506.028 58.4541C531.641 47.2467 541.497 42.7796 574.573 51.3173C593.427 56.2277 611.602 63.0015 628.758 71.5118C649.57 81.8072 657.271 87.4638 669.401 98.3011C674.842 103.165 679.153 108.293 684.549 113.077C708.007 133.866 723.199 151.47 771.453 165.321C817.165 178.444 882.752 182.238 937.948 167.726C942.824 166.404 947.403 165.083 951.743 163.629C1008.37 145.126 1020.23 124.416 1062.72 120.306C1068.22 119.786 1073.74 119.539 1079.28 119.566C1100.59 119.566 1120.54 123.24 1147.66 129.531C1189.91 139.219 1222.39 152.21 1247.55 160.748C1258.89 164.617 1270.46 167.9 1282.22 170.581C1322.92 179.832 1381.98 186.189 1462.36 177.77" stroke="#B6D9FF" stroke-width="0.979358" stroke-miterlimit="10"/>
<path d="M-12.7974 227.9C59.0481 228.587 141.433 223.234 219.106 196.842C274.778 177.929 315.227 152.541 351.826 134.95C362.529 129.809 372.831 124.165 383.46 119.09C445.45 89.6048 486.33 69.7408 511.453 56.9739C537.379 43.7576 548.81 37.9425 581.084 46.163C599.794 51.0167 617.666 58.1318 634.198 67.309C654.371 78.5032 661.165 85.1377 672.031 96.2394C676.982 101.314 680.951 106.574 686.273 111.451C708.779 132.029 726.752 147.875 774.857 159.241C821.223 170.198 886.17 171.493 940.341 157.074C945.172 155.752 949.721 154.431 954.032 153.016C1012.17 134.236 1024.2 114.848 1064.68 110.817C1070.14 110.295 1075.63 110.031 1081.12 110.024C1102.75 109.905 1122.74 113.5 1149.04 119.659C1189.53 129.029 1221.45 141.796 1248.12 150.809C1259.37 154.652 1270.84 157.956 1282.49 160.708C1322.82 170.198 1381.6 177.427 1461.13 171.07" stroke="#B6D9FF" stroke-width="0.979358" stroke-miterlimit="10"/>
<path d="M-13.4507 234.23C55.2136 235.869 139.323 232.684 221.084 205.525C279.06 186.295 320.832 159.876 356.733 141.796C367.644 136.298 378.05 130.298 388.709 124.853C450.193 93.4375 490.82 70.4809 516.91 55.454C543.207 40.2949 556.17 33.0789 587.625 40.9822C606.206 45.819 623.778 53.309 639.655 63.1591C659.129 75.2123 665.075 82.8777 674.678 94.2305C679.138 99.517 682.721 104.896 688.057 109.879C709.642 130.232 730.424 144.241 778.351 153.201C825.371 161.964 889.665 160.788 942.78 146.474C947.551 145.153 952.071 143.831 956.367 142.509C1016.01 123.438 1028.21 105.372 1066.65 101.447C1072.08 100.897 1077.54 100.615 1083.01 100.601C1104.95 100.469 1124.87 103.865 1150.45 109.852C1189.21 118.905 1220.54 131.447 1248.73 140.937C1258.91 144.373 1270.19 147.77 1282.82 150.809C1322.76 160.484 1381.26 168.638 1459.92 164.329" stroke="#B6D9FF" stroke-width="0.979358" stroke-miterlimit="10"/>
<path d="M-14.1064 240.376C51.3022 243.019 137.121 242.015 223 214.102C283.146 194.555 326.361 167.078 361.577 148.523C372.682 142.668 383.207 136.324 393.895 130.483C454.933 97.138 495.338 71.102 522.289 53.8283C548.958 36.6472 563.437 28.1095 594.09 35.6956C612.562 40.5201 629.855 48.3734 645.079 58.8505C663.884 71.776 668.864 80.4855 677.293 92.0629C681.262 97.5609 684.488 103.072 689.706 108.147C710.369 128.249 733.946 140.501 781.679 147.003C829.413 153.505 893.008 149.91 945.052 135.703C949.78 134.381 954.269 133.06 958.535 131.738C1019.69 112.376 1032.08 95.6313 1068.54 91.7986C1073.91 91.2404 1079.32 90.9448 1084.73 90.9131C1107.03 90.662 1126.89 93.9661 1151.62 99.8737C1188.65 108.596 1219.4 120.927 1249.1 130.879C1259.24 134.289 1270.43 137.672 1282.9 140.778C1322.46 150.637 1380.67 159.704 1458.5 157.47" stroke="#B6D9FF" stroke-width="0.979358" stroke-miterlimit="10"/>
<path d="M-14.7437 246.442C47.5284 250.103 134.968 251.226 224.964 222.573C287.4 202.749 331.907 174.149 366.44 155.171C377.753 148.946 388.397 142.272 399.145 136.033C459.707 100.746 499.904 71.6703 527.702 52.0706C554.802 33.0127 570.813 22.9948 600.544 30.277C620.285 35.1141 638.213 45.1188 650.477 54.4099C668.628 68.1812 672.776 77.9612 679.897 89.7633C683.345 95.4728 686.229 101.116 691.373 106.297C711.129 126.121 737.456 136.549 785.026 140.659C833.384 144.875 896.369 138.901 947.344 124.8C952.011 123.478 956.471 122.156 960.723 120.835C1023.38 101.169 1035.93 85.7456 1070.34 82.0186C1075.68 81.4521 1081.04 81.1389 1086.41 81.0803C1108.99 80.697 1128.85 83.9218 1152.89 89.7105C1188.18 98.116 1218.3 110.222 1249.52 120.65C1259.61 124.02 1270.72 127.416 1283.02 130.562C1322.21 140.619 1380.14 150.598 1457.1 150.386" stroke="#B6D9FF" stroke-width="0.979358" stroke-miterlimit="10"/>
<path d="M-15.3984 252.429C43.6923 257.095 132.752 260.2 226.911 230.953C291.472 210.653 337.437 181.128 371.315 161.686C382.807 155.078 393.614 148.087 404.332 141.452C464.478 104.301 504.482 72.0802 533.128 50.2601C560.674 29.2727 578.051 17.8539 607.099 24.8056C626.142 29.4049 643.98 39.9383 655.962 49.9165C673.459 64.5337 676.61 75.371 682.571 87.411C685.545 93.3319 688.057 99.081 693.141 104.367C711.99 123.98 741.112 132.492 788.504 134.329C837.56 136.219 899.862 127.906 949.766 113.896C954.394 112.584 958.819 111.262 963.041 109.932C1027.23 90.0014 1039.94 75.8732 1072.33 72.252C1077.62 71.6702 1082.94 71.3394 1088.27 71.2608C1111.16 70.7718 1131.02 73.904 1154.29 79.5606C1187.82 87.6357 1217.39 99.5832 1250.14 110.434C1260.19 113.791 1271.19 117.161 1283.37 120.359C1322.16 130.615 1379.81 141.505 1455.92 143.382" stroke="#B6D9FF" stroke-width="0.979358" stroke-miterlimit="10"/>
<path d="M-16.0527 258.324C39.842 263.967 130.611 269.253 228.858 239.239C295.664 218.635 342.981 187.974 376.191 168.149C387.861 161.184 398.787 153.849 409.55 146.818C469.265 107.777 509.149 72.4635 538.538 48.3438C566.56 25.4136 585.365 12.541 613.535 19.1887C631.895 23.5369 649.659 34.6121 661.328 45.3041C678.201 60.7671 680.356 72.6881 685.113 84.9528C687.522 91.0984 689.766 96.9664 694.761 102.345C712.823 121.694 744.725 129.624 791.923 127.84C841.544 125.963 903.296 116.751 952.144 102.848C956.723 101.535 961.113 100.213 965.315 98.8828C1031.05 78.7676 1043.89 65.8421 1074.27 62.3266C1079.51 61.7401 1084.79 61.396 1090.08 61.2957C1113.29 60.7142 1133.19 63.7275 1155.61 69.2255C1187.35 77.0495 1216.4 88.8516 1250.65 100.099C1260.65 103.429 1271.56 106.799 1283.57 110.051C1322 120.505 1379.37 132.307 1454.62 136.245" stroke="#B6D9FF" stroke-width="0.979358" stroke-miterlimit="10"/>
<path d="M-16.7671 264.152C35.9463 270.76 128.41 278.253 230.745 247.46C299.796 226.552 348.377 194.766 380.992 174.493C392.884 167.144 403.93 159.505 414.692 152.025C474.006 111.055 513.667 72.7275 543.904 46.295C572.461 21.4485 592.723 7.20134 620.105 13.5187C637.766 17.6157 655.456 29.2196 666.828 40.6252C683.076 56.9077 684.191 69.9125 687.833 82.3886C689.706 88.7588 691.653 94.7326 696.574 100.231C713.669 119.315 748.217 124.02 795.326 121.271C845.602 118.376 906.699 105.517 954.477 91.7193C958.937 90.3977 963.397 89.076 967.544 87.7544C1034.78 67.3353 1047.82 55.7182 1076.17 52.3216C1081.37 51.7191 1086.61 51.3574 1091.85 51.2379C1115.37 50.5507 1135.2 53.4714 1156.9 58.8637C1186.98 66.3044 1215.38 77.8158 1251.14 89.6047C1261.11 92.9088 1271.95 96.2128 1283.84 99.583C1321.88 110.156 1378.98 122.936 1453.31 128.936" stroke="#B6D9FF" stroke-width="0.979358" stroke-miterlimit="10"/>
<path d="M-17.3462 269.914C32.1711 277.54 126.315 287.188 232.768 255.627C304.123 234.415 353.922 201.441 385.883 180.81C397.895 173.065 409.163 165.136 419.926 157.285C478.927 114.57 518.336 72.9655 549.256 44.2598C578.274 17.4176 599.874 1.796 626.558 7.82261C643.519 11.6685 661.165 23.8011 672.225 35.9071C687.863 53.0883 687.908 67.0975 690.435 79.8115C691.728 86.4197 693.408 92.4859 698.24 98.0896C714.473 116.91 751.756 119.606 798.686 114.676C849.571 109.39 910.089 94.2569 956.782 80.5517C961.242 79.23 965.597 77.9084 969.745 76.6925C1038.5 55.9694 1051.68 45.6211 1078.03 42.3302C1083.22 41.7363 1088.45 41.3834 1093.69 41.2729C1115.5 40.5428 1137.3 42.9984 1158.21 48.5419C1186.55 55.6654 1214.37 66.9521 1251.64 79.2168C1261.57 82.4812 1272.3 85.8249 1284 89.2083C1338.7 104.768 1394.94 115.659 1451.96 121.733" stroke="#B6D9FF" stroke-width="0.979358" stroke-miterlimit="10"/>
<path d="M-18 275.637C28.3361 284.254 124.175 296.082 234.715 263.742C308.256 242.226 359.378 208.141 390.804 187.088C530.288 93.5565 574.439 -10.9048 633.114 2.06037C649.377 5.65519 666.977 18.3164 677.71 31.1361C700.633 58.4938 686.184 79.2433 700.009 95.8958C733.902 136.734 886.364 91.1247 972.05 65.4984C1055.59 40.5064 1058.69 32.4577 1095.43 31.1361C1159.58 28.7968 1192.92 51.7006 1284.23 78.7146C1338.51 94.6993 1394.21 106.635 1450.72 114.399" stroke="#B6D9FF" stroke-width="0.979358" stroke-miterlimit="10"/>
<path d="M-18 279.417C29.5699 288.84 122.435 299.638 228.115 268.685C301.061 247.262 350.013 212.847 383.743 190.709C518.485 102.385 560.51 6.72586 620.285 15.2636C643.638 18.5941 667.349 25.2683 683.003 35.4976C713.76 55.6128 702.328 73.6001 720.167 89.6843C759.219 124.919 901.423 85.3626 983.005 61.8509C1062.48 38.8678 1065.69 32.3654 1104.53 33.687C1169.08 35.8809 1200.91 56.1547 1286.92 82.0849C1340.58 98.2543 1395.84 109.896 1451.96 116.857" stroke="#B6D9FF" stroke-width="0.979358" stroke-miterlimit="10"/>
<path d="M-18 283.355C61.3321 299.591 144.143 296.278 221.515 273.773C293.866 252.456 340.558 217.684 376.682 194.476C506.503 111.134 547.146 22.8497 607.47 28.6119C638.079 31.546 666.859 32.2861 688.295 40.0176C725.072 53.2338 717.907 67.9039 740.324 83.6312C783.152 113.645 916.482 79.7456 993.976 58.3485C1069.24 37.3743 1072.59 32.2861 1113.64 36.3831C1178.43 42.8326 1208.89 60.886 1289.61 85.6137C1342.63 101.956 1397.44 113.305 1453.13 119.474" stroke="#B6D9FF" stroke-width="0.979358" stroke-miterlimit="10"/>
<path d="M-18 290.36C59.0221 306.79 139.665 303.871 214.929 281.928C286.671 260.702 331.119 225.574 369.621 201.309C494.254 122.778 534.213 51.1983 594.641 45.0264C632.445 41.1672 665.877 42.7532 693.602 47.5903C735.493 54.8857 733.055 65.2869 760.497 80.6309C805.926 106.033 931.57 77.3269 1004.93 57.9122C1076.11 39.079 1079.42 35.1538 1122.74 42.132C1187.73 52.5993 1216.86 68.657 1292.31 92.1952C1344.71 108.731 1399.08 119.792 1454.35 125.157" stroke="#B6D9FF" stroke-width="0.979358" stroke-miterlimit="10"/>
<path d="M-18 301.025C56.7061 317.642 135.179 315.103 208.329 293.704C279.476 272.558 321.664 237.072 362.56 211.763C481.915 137.897 521.458 73.1507 581.827 65.0624C626.677 59.0622 666.279 49.8901 698.894 58.7846C743.773 71.0229 745.453 71.8687 780.655 81.2523C823.007 109.813 946.644 78.4901 1015.9 61.0975C1082.95 44.3128 1086.25 41.5374 1131.85 51.5157C1197.01 65.776 1224.81 80.1025 1295 102.398C1346.77 119.122 1400.72 129.892 1455.55 134.448" stroke="#B6D9FF" stroke-width="0.979358" stroke-miterlimit="10"/>
<path d="M-18 311.942C54.3867 328.755 130.694 326.635 201.758 305.836C272.31 284.796 312.225 248.913 355.528 222.573C469.488 153.241 508.584 94.7326 568.939 85.4548C620.968 77.4722 664.257 64.811 704.216 70.3487C755.74 77.4854 760.304 74.6836 800.842 82.2433C845.275 107.658 961.703 79.904 1026.8 64.6392C1089.71 49.9031 1093.01 48.1453 1140.89 61.2559C1206.3 79.1242 1232.69 91.9308 1297.64 112.958C1348.77 129.87 1402.31 140.351 1456.7 144.095" stroke="#B6D9FF" stroke-width="0.979358" stroke-miterlimit="10"/>
<path d="M-18 323.07C52.0507 340.046 126.171 338.323 195.128 318.114C265.086 297.166 302.696 260.888 348.437 233.53C456.956 168.625 495.607 116.037 556.184 105.993C615.245 96.1999 663.008 88.1644 709.478 82.0452C766.859 74.4855 775.095 77.6178 820.97 83.3669C867.559 105.716 976.762 81.5166 1037.83 68.3268C1096.61 55.6392 1099.91 54.8198 1150.07 71.1418C1215.59 92.4729 1240.67 103.958 1300.33 123.676C1350.83 140.771 1403.96 150.962 1457.9 153.902" stroke="#B6D9FF" stroke-width="0.979358" stroke-miterlimit="10"/>
<path d="M-18 334.343C37.3446 348.577 112.074 353.375 188.543 330.55C257.95 309.827 293.197 272.994 341.376 244.645C444.35 184.061 482.599 137.197 543.355 126.69C609.596 115.244 662.28 104.05 714.785 93.9001C777.667 81.728 791.343 73.2299 841.143 84.6487C892.741 96.4773 991.821 83.3271 1048.79 72.1726C1103.43 61.5203 1106.76 61.5996 1159.16 81.1729C1225.02 105.848 1248.59 116.17 1303.09 134.54C1336.97 145.959 1388.08 160.893 1459.18 163.854" stroke="#B6D9FF" stroke-width="0.979358" stroke-miterlimit="10"/>
<path d="M-18 345.815C38.638 360.828 110.335 364.622 181.942 343.172C250.755 322.554 283.668 285.245 334.315 255.944C431.67 199.603 469.369 158.329 530.541 147.571C603.977 134.646 661.685 120.2 720.077 105.94C788.623 89.1948 805.733 76.4543 861.301 86.1154C914.267 95.3668 1006.86 85.2167 1059.76 76.2032C1110.3 67.5862 1113.75 68.3792 1168.28 91.4019C1234.46 119.328 1256.49 128.619 1305.78 145.589C1339.17 157.087 1389.52 172.021 1460.38 174.004" stroke="#B6D9FF" stroke-width="0.979358" stroke-miterlimit="10"/>
<path d="M-18 357.419C39.9759 373.278 108.595 376.001 175.342 355.939C243.56 335.427 274.109 297.629 327.254 267.39C418.945 215.212 456.138 179.475 517.712 168.598C598.417 154.338 661.165 136.536 725.369 118.126C799.698 96.8209 820.138 80.1288 881.458 87.7281C935.866 94.4684 1021.91 87.3184 1070.71 80.3799C1117.06 73.7718 1120.74 75.2916 1177.37 101.777C1243.97 132.901 1264.37 141.254 1308.47 156.783C1341.39 168.374 1390.95 183.361 1461.59 184.286" stroke="#B6D9FF" stroke-width="0.979358" stroke-miterlimit="10"/>
<path d="M-18 369.195C41.2097 385.807 106.871 387.539 168.742 368.864C236.365 348.445 264.521 310.118 320.193 278.994C406.16 230.913 441.838 194.264 504.898 189.784C594.299 183.427 660.689 153.043 730.662 130.469C810.832 104.618 837.694 70.9963 901.616 89.4991C955.013 105.002 1036.89 89.4991 1081.68 84.7148C1123.87 80.1552 1127.77 82.3094 1186.49 112.297C1253.54 146.567 1272.22 154.1 1311.16 168.136C1343.59 179.832 1392.39 194.833 1462.79 194.74" stroke="#B6D9FF" stroke-width="0.979358" stroke-miterlimit="10"/>
<path d="M-18 381.354C42.503 398.773 105.132 399.433 162.156 382.252C229.17 361.926 254.903 323.017 313.131 291.06C393.406 247.01 428.593 216.824 492.069 211.432C588.695 203.198 660.273 170.026 735.969 143.276C822.041 112.879 850.984 77.0493 921.789 91.7325C977.951 103.389 1051.98 92.2347 1092.64 89.5122C1130.68 86.9614 1134.92 89.7369 1195.58 123.293C1263.18 160.668 1280.06 167.448 1313.87 179.951C1345.79 191.766 1393.83 206.754 1464.01 205.643" stroke="#B6D9FF" stroke-width="0.979358" stroke-miterlimit="10"/>
<path d="M-18 394.279C43.7815 412.505 103.378 412.148 155.556 396.262C221.975 376.028 245.24 336.485 306.07 303.748C380.487 263.69 415.332 240.006 479.255 233.702C583.135 223.459 659.886 187.643 741.261 156.717C833.309 121.734 864.645 84.4506 941.946 94.6007C1000.73 102.319 1067 95.5259 1103.61 94.9311C1137.47 94.376 1142.1 97.7594 1204.7 134.91C1272.85 175.365 1287.94 181.471 1316.56 192.401C1347.97 204.375 1395.35 219.309 1465.22 217.182" stroke="#B6D9FF" stroke-width="0.979358" stroke-miterlimit="10"/>
<path d="M-18 407.429C45.0748 426.461 101.638 425.06 148.956 410.575C214.781 390.42 235.533 350.163 299.009 316.74C367.614 280.606 402.028 263.465 466.426 256.275C577.501 243.878 659.53 205.551 746.553 170.449C844.666 130.893 878.649 92.6976 962.104 97.7594C1023.35 101.473 1082.03 99.081 1114.57 100.654C1144.24 102.068 1149.32 106.033 1213.79 146.831C1282.61 190.352 1295.67 195.903 1319.25 205.155C1350.13 217.327 1396.7 232.182 1466.42 229.023" stroke="#B6D9FF" stroke-width="0.979358" stroke-miterlimit="10"/>
<path d="M-18 421.743C46.3681 441.567 99.8545 439.056 142.355 426.038C207.541 405.843 225.751 364.886 291.948 330.881C354.711 298.633 388.708 288.06 453.611 279.998C571.823 265.315 659.203 224.622 751.786 185.33C855.845 141.201 893.291 108.094 982.203 102.068C1045.56 97.7858 1096.98 103.786 1125.48 107.526C1151 110.883 1156.55 115.456 1222.85 159.889C1292.33 206.489 1303.39 211.432 1321.88 219.032C1352.18 231.495 1398.08 246.178 1467.56 242.002" stroke="#B6D9FF" stroke-width="0.979358" stroke-miterlimit="10"/>
<path d="M-18 435.91C47.6465 456.541 98.1153 452.999 135.77 441.369C200.346 421.267 215.881 379.332 284.887 344.89C341.792 316.488 375.359 312.51 440.782 303.589C566.114 286.501 658.891 243.548 757.152 200.093C867.291 151.365 908.261 115.509 1002.43 106.257C1067.84 99.8608 1112.1 108.28 1136.49 114.266C1157.88 119.553 1163.93 124.707 1232 172.828C1302.23 222.468 1311.18 226.922 1324.65 232.803C1354.26 245.729 1399.58 260.042 1468.84 254.848" stroke="#B6D9FF" stroke-width="0.979358" stroke-miterlimit="10"/>
<path d="M-18 450.091C48.8952 471.515 96.4652 466.955 129.17 456.7C193.092 436.69 205.906 393.565 277.826 358.899C328.874 334.291 361.995 336.96 427.968 327.18C560.346 307.554 658.593 262.421 762.444 214.842C878.664 161.528 923.275 122.87 1022.59 110.434C1090.31 101.962 1127.2 112.707 1147.46 121.007C1164.75 128.091 1171.25 133.945 1241.12 185.766C1312.1 238.46 1318.86 242.464 1327.34 246.561C1355.98 260.425 1401.01 273.919 1470.05 267.707" stroke="#B6D9FF" stroke-width="0.979358" stroke-miterlimit="10"/>
</g>
</svg>
