<svg width="48" height="49" viewBox="0 0 48 49" fill="none" xmlns="http://www.w3.org/2000/svg">
<path d="M11.992 5.51935C11.9871 5.84582 11.8858 6.16357 11.7009 6.43265C11.5159 6.70173 11.2556 6.91014 10.9525 7.0317C10.6495 7.15326 10.3173 7.18253 9.99767 7.11585C9.67805 7.04916 9.38526 6.88949 9.15611 6.6569C8.92696 6.42431 8.77166 6.12918 8.70974 5.8086C8.64782 5.48801 8.68204 5.15628 8.8081 4.85508C8.93415 4.55389 9.14642 4.29667 9.41822 4.11575C9.69003 3.93484 10.0092 3.83829 10.3358 3.83826C10.7779 3.84285 11.2003 4.02222 11.5106 4.33721C11.8209 4.65219 11.994 5.07718 11.992 5.51935Z" fill="url(#paint0_linear_2530_1004)"/>
<path d="M7.02325 5.51935C7.01835 5.84582 6.91707 6.16357 6.73213 6.43265C6.54718 6.70173 6.28683 6.91014 5.9838 7.0317C5.68076 7.15326 5.34855 7.18253 5.02892 7.11585C4.7093 7.04916 4.41651 6.88949 4.18736 6.6569C3.95821 6.42431 3.80291 6.12918 3.74099 5.8086C3.67907 5.48801 3.71329 5.15628 3.83935 4.85508C3.9654 4.55389 4.17767 4.29667 4.44947 4.11575C4.72128 3.93484 5.04049 3.83829 5.367 3.83826C5.80915 3.84285 6.23152 4.02222 6.54185 4.33721C6.85218 4.65219 7.02524 5.07718 7.02325 5.51935Z" fill="url(#paint1_linear_2530_1004)"/>
<path d="M16.9608 5.51935C16.9559 5.84582 16.8546 6.16357 16.6696 6.43265C16.4847 6.70173 16.2243 6.91014 15.9213 7.0317C15.6183 7.15326 15.2861 7.18253 14.9664 7.11585C14.6468 7.04916 14.354 6.88949 14.1249 6.6569C13.8957 6.42431 13.7404 6.12918 13.6785 5.8086C13.6166 5.48801 13.6508 5.15628 13.7768 4.85508C13.9029 4.55389 14.1152 4.29667 14.387 4.11575C14.6588 3.93484 14.978 3.83829 15.3045 3.83826C15.7467 3.84285 16.169 4.02222 16.4793 4.33721C16.7897 4.65219 16.9627 5.07718 16.9608 5.51935Z" fill="url(#paint2_linear_2530_1004)"/>
<path d="M45.9453 0.898438H2.05469C1.61583 0.899748 1.19531 1.07467 0.88499 1.38499C0.574666 1.69531 0.399748 2.11583 0.398438 2.55469V46.4453C0.399748 46.8842 0.574666 47.3047 0.88499 47.615C1.19531 47.9253 1.61583 48.1003 2.05469 48.1016H45.9453C46.3842 48.1003 46.8047 47.9253 47.115 47.615C47.4253 47.3047 47.6003 46.8842 47.6016 46.4453V2.55469C47.6003 2.11583 47.4253 1.69531 47.115 1.38499C46.8047 1.07467 46.3842 0.899748 45.9453 0.898438ZM45.9453 46.4453H2.05469V10.1486H45.9453V46.4453ZM45.9453 8.49234H2.05469V2.55469H45.9453V8.49234Z" fill="url(#paint3_linear_2530_1004)"/>
<path d="M44.0488 6.20672C44.2019 6.36297 44.287 6.57347 44.2855 6.79225C44.2839 7.01104 44.1959 7.22031 44.0405 7.37437C43.9652 7.45164 43.875 7.51278 43.7754 7.55406C43.6757 7.59535 43.5687 7.61592 43.4608 7.61453C43.3511 7.6152 43.2424 7.59353 43.1413 7.55081C43.0402 7.5081 42.9489 7.44525 42.8729 7.36609L42.2186 6.70359L41.5644 7.36609C41.4884 7.44525 41.3971 7.5081 41.296 7.55081C41.1949 7.59353 41.0862 7.6152 40.9765 7.61453C40.8686 7.61592 40.7616 7.59535 40.6619 7.55406C40.5623 7.51278 40.472 7.45164 40.3968 7.37437C40.2414 7.22031 40.1534 7.01104 40.1518 6.79225C40.1503 6.57347 40.2353 6.36297 40.3885 6.20672L41.0593 5.51937L40.3885 4.84031C40.2344 4.68287 40.1489 4.47091 40.1504 4.25064C40.152 4.03037 40.2405 3.81964 40.3968 3.66438C40.553 3.51123 40.7635 3.42614 40.9823 3.42769C41.2011 3.42925 41.4104 3.51731 41.5644 3.67266L42.2186 4.34344L42.8729 3.67266C43.0269 3.51731 43.2362 3.42925 43.455 3.42769C43.6738 3.42614 43.8843 3.51123 44.0405 3.66438C44.1968 3.81964 44.2853 4.03037 44.2869 4.25064C44.2884 4.47091 44.2029 4.68287 44.0488 4.84031L43.378 5.51937L44.0488 6.20672Z" fill="url(#paint4_linear_2530_1004)"/>
<path d="M38.4922 5.51935C38.4922 5.73898 38.4049 5.94962 38.2496 6.10492C38.0943 6.26022 37.8837 6.34747 37.6641 6.34747H34.3516C34.1319 6.34747 33.9213 6.26022 33.766 6.10492C33.6107 5.94962 33.5234 5.73898 33.5234 5.51935C33.5234 5.29972 33.6107 5.08908 33.766 4.93378C33.9213 4.77847 34.1319 4.69122 34.3516 4.69122H37.6641C37.8837 4.69122 38.0943 4.77847 38.2496 4.93378C38.4049 5.08908 38.4922 5.29972 38.4922 5.51935Z" fill="url(#paint5_linear_2530_1004)"/>
<path d="M14.1867 33.5183L17.1928 31.7875H31.8257C32.2621 31.7852 32.6895 31.6636 33.0617 31.4359C33.4339 31.2082 33.7367 30.8831 33.9375 30.4956L38.6329 21.6264C38.8514 21.2083 38.9499 20.738 38.9178 20.2674C38.8856 19.7968 38.724 19.3443 38.4507 18.9598L37.8545 18.1152C37.6341 17.8058 37.3437 17.5529 37.0069 17.3773C36.6701 17.2018 36.2965 17.1084 35.9167 17.1048H35.9084L16.3895 17.1545L16.2653 15.8792C16.2092 15.2496 15.9216 14.6631 15.4581 14.2333C14.9946 13.8034 14.3881 13.5608 13.7561 13.5522H9.07715C8.85752 13.5522 8.64688 13.6394 8.49158 13.7947C8.33627 13.95 8.24902 14.1607 8.24902 14.3803C8.24902 14.5999 8.33627 14.8106 8.49158 14.9659C8.64688 15.1212 8.85752 15.2084 9.07715 15.2084H13.7561C13.9785 15.2182 14.1895 15.3099 14.3485 15.4658C14.5075 15.6217 14.6032 15.8309 14.6173 16.0531L16.0914 30.5122L13.3006 32.127C12.9557 32.3698 12.6747 32.6925 12.4814 33.0674C12.2882 33.4423 12.1885 33.8584 12.1909 34.2802V34.512C12.1847 35.1594 12.4223 35.7855 12.8565 36.2657C13.2907 36.746 13.8897 37.0452 14.5345 37.1041C14.1115 37.7393 13.8867 38.4858 13.8886 39.2489C13.8705 39.7393 13.9514 40.2283 14.1266 40.6866C14.3017 41.145 14.5675 41.5634 14.9081 41.9167C15.2486 42.27 15.6569 42.5511 16.1085 42.743C16.5601 42.935 17.0457 43.0339 17.5364 43.0339C18.0272 43.0339 18.5128 42.935 18.9644 42.743C19.416 42.5511 19.8243 42.27 20.1648 41.9167C20.5053 41.5634 20.7711 41.145 20.9463 40.6866C21.1215 40.2283 21.2024 39.7393 21.1843 39.2489C21.1838 38.4925 20.9622 37.7527 20.5467 37.1206H28.0578C27.6385 37.7509 27.4165 38.4919 27.4201 39.2489C27.402 39.7393 27.483 40.2283 27.6581 40.6866C27.8333 41.145 28.0991 41.5634 28.4396 41.9167C28.7801 42.27 29.1884 42.5511 29.64 42.743C30.0916 42.935 30.5773 43.0339 31.068 43.0339C31.5587 43.0339 32.0444 42.935 32.496 42.743C32.9476 42.5511 33.3559 42.27 33.6964 41.9167C34.0369 41.5634 34.3027 41.145 34.4779 40.6866C34.653 40.2283 34.734 39.7393 34.7159 39.2489C34.7154 38.4925 34.4938 37.7527 34.0782 37.1206H35.5771C35.7968 37.1206 36.0074 37.0334 36.1627 36.8781C36.318 36.7228 36.4053 36.5121 36.4053 36.2925C36.4053 36.0729 36.318 35.8622 36.1627 35.7069C36.0074 35.5516 35.7968 35.4644 35.5771 35.4644H14.7167C14.4755 35.4521 14.249 35.3453 14.0861 35.1669C13.9233 34.9886 13.8375 34.7533 13.8471 34.512V34.2802C13.8458 34.1362 13.8754 33.9937 13.9339 33.8622C13.9925 33.7308 14.0787 33.6135 14.1867 33.5183ZM32.48 29.7172C32.4182 29.8386 32.3249 29.9412 32.2097 30.0141C32.0946 30.087 31.9619 30.1274 31.8257 30.1312H17.7145L16.8615 21.7341L36.7034 21.7258L32.48 29.7172ZM35.9084 18.7611H35.9167C36.0328 18.7623 36.1469 18.7915 36.2493 18.8463C36.3516 18.9011 36.4393 18.9798 36.5046 19.0758L37.1092 19.9205C37.134 19.9619 37.1589 20.0116 37.1837 20.0612L16.6876 20.0778L16.5634 18.8108L35.9084 18.7611ZM31.0639 37.1206C31.4921 37.0905 31.9195 37.1901 32.2903 37.4063C32.6612 37.6225 32.9583 37.9454 33.1431 38.3329C33.3278 38.7204 33.3916 39.1546 33.3261 39.5788C33.2606 40.0031 33.0689 40.3978 32.7759 40.7116C32.4829 41.0253 32.1022 41.2436 31.6834 41.3379C31.2646 41.4322 30.8271 41.3983 30.4279 41.2404C30.0287 41.0826 29.6862 40.8082 29.4452 40.453C29.2041 40.0978 29.0756 39.6782 29.0764 39.2489C29.0594 38.7036 29.2588 38.1737 29.6312 37.7749C30.0036 37.3761 30.5186 37.1409 31.0639 37.1206ZM17.5323 37.1206C17.9605 37.0905 18.3879 37.1901 18.7588 37.4063C19.1296 37.6225 19.4268 37.9454 19.6115 38.3329C19.7963 38.7204 19.8601 39.1546 19.7946 39.5788C19.7291 40.0031 19.5373 40.3978 19.2443 40.7116C18.9513 41.0253 18.5706 41.2436 18.1519 41.3379C17.7331 41.4322 17.2956 41.3983 16.8963 41.2404C16.4971 41.0826 16.1547 40.8082 15.9136 40.453C15.6725 40.0978 15.544 39.6782 15.5448 39.2489C15.5278 38.7036 15.7273 38.1737 16.0997 37.7749C16.472 37.3761 16.9871 37.1409 17.5323 37.1206Z" fill="url(#paint6_linear_2530_1004)"/>
<defs>
<linearGradient id="paint0_linear_2530_1004" x1="6.88742" y1="3.13339" x2="11.7144" y2="7.32906" gradientUnits="userSpaceOnUse">
<stop stop-color="#00FFA9"/>
<stop offset="1" stop-color="#0D4DFF"/>
</linearGradient>
<linearGradient id="paint1_linear_2530_1004" x1="1.91867" y1="3.13339" x2="6.74568" y2="7.32906" gradientUnits="userSpaceOnUse">
<stop stop-color="#00FFA9"/>
<stop offset="1" stop-color="#0D4DFF"/>
</linearGradient>
<linearGradient id="paint2_linear_2530_1004" x1="11.8562" y1="3.13339" x2="16.6832" y2="7.32906" gradientUnits="userSpaceOnUse">
<stop stop-color="#00FFA9"/>
<stop offset="1" stop-color="#0D4DFF"/>
</linearGradient>
<linearGradient id="paint3_linear_2530_1004" x1="-25.1427" y1="-9.14589" x2="43.6427" y2="50.6459" gradientUnits="userSpaceOnUse">
<stop stop-color="#00FFA9"/>
<stop offset="1" stop-color="#0D4DFF"/>
</linearGradient>
<linearGradient id="paint4_linear_2530_1004" x1="37.9122" y1="2.53674" x2="44.0027" y2="7.76722" gradientUnits="userSpaceOnUse">
<stop stop-color="#00FFA9"/>
<stop offset="1" stop-color="#0D4DFF"/>
</linearGradient>
<linearGradient id="paint5_linear_2530_1004" x1="30.8349" y1="4.33879" x2="32.4645" y2="8.5884" gradientUnits="userSpaceOnUse">
<stop stop-color="#00FFA9"/>
<stop offset="1" stop-color="#0D4DFF"/>
</linearGradient>
<linearGradient id="paint6_linear_2530_1004" x1="-8.34879" y1="7.27878" x2="34.8172" y2="46.3191" gradientUnits="userSpaceOnUse">
<stop stop-color="#00FFA9"/>
<stop offset="1" stop-color="#0D4DFF"/>
</linearGradient>
</defs>
</svg>
