<svg width="46" height="32" viewBox="0 0 46 32" fill="none" xmlns="http://www.w3.org/2000/svg">
<path d="M8.36476 14.8194H10.6729C10.2914 15.0792 9.92786 15.3711 9.59502 15.704C8.19834 17.1006 7.43023 18.9633 7.43023 20.9489C7.43023 25.0339 10.7549 28.3586 14.8399 28.3586H17.8842V30.3902C17.8842 30.6795 18.0788 30.933 18.3591 31.0085C18.6382 31.0853 18.9339 30.9612 19.0799 30.7102L21.5045 26.51L23.9292 30.7218C24.0457 30.924 24.2595 31.0431 24.4848 31.0431C24.5398 31.0431 24.5949 31.0367 24.6499 31.0213C24.9303 30.9471 25.1249 30.6936 25.1249 30.403V28.3586H45.1213C45.4746 28.3586 45.7614 28.0718 45.7614 27.7185V25.6587C45.7614 25.5255 45.7115 25.409 45.6423 25.3079C45.6347 25.2964 45.6372 25.281 45.6295 25.2695C44.6758 24.0239 44.1714 22.5299 44.1714 20.9489C44.1714 19.3678 44.6758 17.8739 45.6295 16.6283C45.6385 16.6167 45.6347 16.6014 45.6423 16.5899C45.7115 16.4874 45.7614 16.3709 45.7614 16.2391V14.1793C45.7614 13.8259 45.4746 13.5392 45.1213 13.5392H39.2862V12.1195C39.2862 12.1067 39.2798 12.0951 39.2786 12.0823C39.2773 12.0555 39.2683 12.0337 39.2632 12.0081C39.2478 11.9223 39.2171 11.8468 39.1723 11.7764C39.1633 11.7623 39.1646 11.7444 39.1544 11.7303C38.2007 10.4847 37.6963 8.9907 37.6963 7.40968C37.6963 5.82866 38.2007 4.33469 39.1544 3.08907C39.1646 3.07499 39.1633 3.05707 39.1723 3.04299C39.2184 2.97258 39.2478 2.89705 39.2632 2.81127C39.2683 2.78567 39.2773 2.76263 39.2786 2.73702C39.2798 2.72422 39.2862 2.7127 39.2862 2.6999V0.64009C39.2862 0.28676 38.9995 0 38.6462 0H8.36476C6.3792 0 4.51654 0.769388 3.11986 2.16478C1.72319 3.56018 0.955078 5.42284 0.955078 7.40968C0.955078 11.4947 4.27971 14.8194 8.36476 14.8194ZM25.1223 21.589H42.9399C43.0308 22.8051 43.3713 23.965 43.9576 25.0186H25.1223V21.589ZM42.9412 20.3088H24.4822H18.5243H13.9566C13.6033 20.3088 13.3165 20.5955 13.3165 20.9489C13.3165 21.3022 13.6033 21.589 13.9566 21.589H17.8842V25.0186H15.0627C12.8185 25.0186 10.993 23.193 10.993 20.9489C10.993 19.8594 11.4154 18.8379 12.1797 18.0723C12.9593 17.3029 13.9835 16.8792 15.0614 16.8792H43.9563C43.3713 17.9328 43.0321 19.0913 42.9412 20.3088ZM23.8421 28.0039L22.0563 24.9123C21.9411 24.7152 21.7311 24.5935 21.5033 24.5935C21.2754 24.5935 21.0654 24.7139 20.9502 24.911L19.1631 28.0014V27.7185V25.6587V21.589H23.8409V25.6587V27.7185L23.8421 28.0039ZM25.1223 27.0784V26.2987H44.4812V27.0784H25.1223ZM44.4812 15.599H15.0639C13.6468 15.599 12.3039 16.1533 11.2797 17.1647C10.2697 18.1747 9.71407 19.5176 9.71407 20.9489C9.71407 23.8984 12.1144 26.2987 15.0639 26.2987H17.8855V27.0784H14.8412C11.4615 27.0784 8.71169 24.3285 8.71169 20.9489C8.71169 19.3051 9.34794 17.7651 10.5014 16.6091C11.6561 15.4543 13.1962 14.8194 14.8412 14.8194H38.6474H44.4812V15.599ZM36.4558 6.76959H7.48144C7.12811 6.76959 6.84135 7.05635 6.84135 7.40968C6.84135 7.76301 7.12811 8.04977 7.48144 8.04977H36.4558C36.5467 9.26466 36.8769 10.4271 37.462 11.4794H8.5888C6.34464 11.4794 4.5191 9.65384 4.5191 7.40968C4.5191 6.32025 4.94156 5.29867 5.70583 4.53312C6.48546 3.76373 7.5096 3.33999 8.58751 3.33999H37.4607C36.8769 4.39102 36.5467 5.5547 36.4558 6.76959ZM4.02495 3.06987C5.17967 1.91515 6.71973 1.28018 8.36476 1.28018H38.0061V2.05981H8.5888C7.17164 2.05981 5.82873 2.61413 4.80458 3.62547C3.79452 4.63553 3.23892 5.97844 3.23892 7.40968C3.23892 10.3592 5.63926 12.7596 8.5888 12.7596H38.0061V13.5392H14.8399H8.36476C4.98509 13.5392 2.23526 10.7894 2.23526 7.40968C2.23526 5.76465 2.87151 4.22459 4.02495 3.06987Z" fill="url(#paint0_linear_2530_988)"/>
<defs>
<linearGradient id="paint0_linear_2530_988" x1="-4.05193" y1="-11.3454" x2="24" y2="31" gradientUnits="userSpaceOnUse">
<stop stop-color="#00FFA9"/>
<stop offset="1" stop-color="#0D4DFF"/>
</linearGradient>
</defs>
</svg>
