<svg width="21" height="20" viewBox="0 0 21 20" fill="none" xmlns="http://www.w3.org/2000/svg">
<path d="M19.1293 5.94946V14.2828C19.1293 14.8353 18.9098 15.3652 18.5191 15.7559C18.1284 16.1466 17.5985 16.3661 17.0459 16.3661H4.54592C3.99338 16.3661 3.46348 16.1466 3.07278 15.7559C2.68208 15.3652 2.46259 14.8353 2.46259 14.2828V5.94946" stroke="#6E6E6E" stroke-width="1.4" stroke-linecap="round" stroke-linejoin="round"/>
<path d="M19.1293 5.94954C19.1293 5.39701 18.9098 4.86711 18.5191 4.47641C18.1284 4.0857 17.5985 3.86621 17.0459 3.86621H4.54592C3.99338 3.86621 3.46348 4.0857 3.07278 4.47641C2.68208 4.86711 2.46259 5.39701 2.46259 5.94954L9.69175 10.4634C10.0229 10.6704 10.4055 10.7801 10.7959 10.7801C11.1864 10.7801 11.569 10.6704 11.9001 10.4634L19.1293 5.94954Z" stroke="#6E6E6E" stroke-width="1.4" stroke-linecap="round" stroke-linejoin="round"/>
</svg>
