<svg width="36" height="37" viewBox="0 0 36 37" fill="none" xmlns="http://www.w3.org/2000/svg">
<path fill-rule="evenodd" clip-rule="evenodd" d="M27.6527 29.4959C26.0291 31.1182 24.301 32.8028 24.301 32.8028L21.3214 27.5719C24.4415 26.7903 27.1389 24.938 29.0199 22.4174L32.2783 28.1362C32.2783 28.1362 29.9554 28.823 27.6527 29.4959ZM18 25.4467C11.7957 25.4467 6.76758 20.2633 6.76758 13.8715C6.76758 7.47979 11.7957 2.2963 18 2.2963C24.2043 2.2963 29.2324 7.47979 29.2324 13.8715C29.2324 20.2633 24.2043 25.4467 18 25.4467ZM11.699 32.8028C11.699 32.8028 9.9709 31.1182 8.34732 29.4959C6.04461 28.823 3.72165 28.1362 3.72165 28.1362L6.98008 22.4174C8.86115 24.938 11.5585 26.7903 14.6786 27.5719L11.699 32.8028ZM30.3916 20.1604C31.2945 18.2977 31.8162 16.2118 31.8162 13.9975C31.8162 6.26686 25.63 0 18 0C10.37 0 4.18378 6.26686 4.18378 13.9975C4.18378 16.2118 4.70548 18.2977 5.60835 20.1604L0 30.0001C0 30.0001 3.55638 30.7343 7.16448 31.4974C9.57063 34.2516 11.9655 37 11.9655 37L17.1219 27.9512C17.4142 27.9697 17.7032 27.9963 18 27.9963C18.2968 27.9963 18.5858 27.9697 18.8781 27.9512L24.0345 37C24.0345 37 26.4294 34.2516 28.8355 31.4974C32.4436 30.7343 36 30.0001 36 30.0001L30.3916 20.1604ZM18 19.6562C14.8945 19.6562 12.3782 17.0686 12.3782 13.875C12.3782 10.6814 14.8945 8.09375 18 8.09375C21.1055 8.09375 23.6218 10.6814 23.6218 13.875C23.6218 17.0686 21.1055 19.6562 18 19.6562ZM18 5.78125C13.6532 5.78125 10.1294 9.40494 10.1294 13.875C10.1294 18.3451 13.6532 21.9688 18 21.9688C22.3468 21.9688 25.8706 18.3451 25.8706 13.875C25.8706 9.40494 22.3468 5.78125 18 5.78125Z" fill="#07A7D5"/>
</svg>
