<svg width="53" height="37" viewBox="0 0 53 37" fill="none" xmlns="http://www.w3.org/2000/svg">
<path d="M49.5166 36.9691H3.48387C2.73187 36.9691 2.00016 36.7252 1.39856 36.274C0.796964 35.8228 0.357929 35.1886 0.147351 34.4667C-0.0632263 33.7448 -0.0339859 32.9741 0.230683 32.2702C0.495352 31.5663 0.98117 30.9672 1.61523 30.5629L25.4546 15.3628C26.0317 15.003 26.7004 14.8175 27.3804 14.8287C28.0604 14.8399 28.7226 15.0473 29.2876 15.426L51.4809 30.6261C52.0932 31.0456 52.5552 31.65 52.7992 32.351C53.0431 33.052 53.0563 33.8126 52.8367 34.5216C52.6172 35.2306 52.1764 35.8507 51.579 36.2911C50.9815 36.7315 50.2588 36.9691 49.5166 36.9691ZM27.3227 17.066C27.089 17.0659 26.8601 17.1325 26.663 17.258L2.82358 32.4587C2.59969 32.6015 2.42815 32.8131 2.33472 33.0617C2.24129 33.3103 2.23101 33.5824 2.30542 33.8373C2.37984 34.0923 2.53492 34.3162 2.74741 34.4754C2.9599 34.6347 3.21831 34.7208 3.48387 34.7207H49.5166C49.7786 34.7206 50.0337 34.6366 50.2446 34.4811C50.4554 34.3256 50.611 34.1067 50.6885 33.8564C50.766 33.6061 50.7613 33.3376 50.6752 33.0902C50.5891 32.8427 50.4261 32.6293 50.21 32.4812L28.0166 17.2804C27.8124 17.1402 27.5704 17.0654 27.3227 17.066Z" fill="url(#paint0_linear_2530_927)"/>
<path d="M27.2022 17.1127C26.8828 17.1009 26.5812 16.9629 26.3635 16.7289C26.1458 16.4949 26.0299 16.1842 26.041 15.8648V10.2477C26.0297 10.0882 26.0512 9.92814 26.1044 9.7774C26.1576 9.62667 26.2413 9.48851 26.3502 9.37153C26.4592 9.25455 26.591 9.16124 26.7376 9.09745C26.8842 9.03365 27.0423 9.00073 27.2022 9.00073C27.362 9.00073 27.5201 9.03365 27.6667 9.09745C27.8133 9.16124 27.9451 9.25455 28.0541 9.37153C28.163 9.48851 28.2467 9.62667 28.2999 9.7774C28.3531 9.92814 28.3746 10.0882 28.3633 10.2477V15.8648C28.3744 16.1842 28.2585 16.4949 28.0408 16.7289C27.8231 16.9629 27.5215 17.1009 27.2022 17.1127Z" fill="url(#paint1_linear_2530_927)"/>
<path d="M24.7099 0.0321275C23.7528 0.0294516 22.8095 0.259992 21.9616 0.703801C21.1136 1.14761 20.3866 1.79132 19.8433 2.57926C19.3001 3.3672 18.9569 4.27564 18.8437 5.22598C18.7304 6.17632 18.8503 7.13994 19.1932 8.0335C19.2455 8.17136 19.3244 8.29757 19.4255 8.40491C19.5266 8.51226 19.6478 8.59865 19.7823 8.65914C19.9168 8.71963 20.0619 8.75305 20.2092 8.75747C20.3566 8.7619 20.5034 8.73724 20.6413 8.68493C20.7792 8.63261 20.9054 8.55367 21.0127 8.45259C21.12 8.3515 21.2064 8.23025 21.2669 8.09577C21.3274 7.9613 21.3608 7.81624 21.3653 7.66885C21.3697 7.52147 21.345 7.37465 21.2927 7.23679C21.0394 6.57099 20.9859 5.84571 21.139 5.14997C21.292 4.45423 21.6449 3.8183 22.1542 3.32026C22.6635 2.82222 23.3072 2.48374 24.0062 2.34636C24.7052 2.20897 25.4291 2.27867 26.0891 2.54689C26.749 2.81511 27.3163 3.27017 27.7213 3.85624C28.1262 4.44231 28.3513 5.13388 28.3688 5.84604C28.3862 6.5582 28.1954 7.25996 27.8197 7.8652C27.444 8.47044 26.8997 8.9528 26.2537 9.25308C25.33 9.57082 25.6106 11.847 27.1987 11.2895C28.4186 10.7232 29.4085 9.75744 30.0047 8.55191C30.6009 7.34639 30.7676 5.97344 30.4771 4.66029C30.1867 3.34714 29.4565 2.17253 28.4075 1.33089C27.3585 0.48926 26.0536 0.0310566 24.7087 0.0321275H24.7099Z" fill="url(#paint2_linear_2530_927)"/>
<path d="M29.687 16.1028C29.687 16.5747 29.5471 17.036 29.2849 17.4284C29.0228 17.8208 28.6501 18.1266 28.2141 18.3072C27.7781 18.4878 27.2984 18.535 26.8356 18.443C26.3727 18.3509 25.9476 18.1236 25.6139 17.79C25.2802 17.4563 25.053 17.0311 24.9609 16.5683C24.8688 16.1054 24.9161 15.6257 25.0967 15.1897C25.2773 14.7537 25.5831 14.3811 25.9754 14.1189C26.3678 13.8567 26.8291 13.7168 27.301 13.7168C27.9339 13.7168 28.5407 13.9682 28.9882 14.4156C29.4357 14.8631 29.687 15.47 29.687 16.1028Z" fill="url(#paint3_linear_2530_927)"/>
<path d="M21.8772 8.02818C21.8772 8.34439 21.7834 8.65349 21.6077 8.9164C21.4321 9.17931 21.1824 9.38423 20.8902 9.50523C20.5981 9.62624 20.2767 9.6579 19.9665 9.59621C19.6564 9.53453 19.3715 9.38226 19.1479 9.15867C18.9244 8.93509 18.7721 8.65022 18.7104 8.3401C18.6487 8.02997 18.6804 7.70851 18.8014 7.41638C18.9224 7.12424 19.1273 6.87457 19.3902 6.6989C19.6531 6.52322 19.9622 6.42944 20.2784 6.42944C20.7024 6.42944 21.1091 6.59789 21.4089 6.89771C21.7087 7.19753 21.8772 7.60417 21.8772 8.02818Z" fill="url(#paint4_linear_2530_927)"/>
<path d="M35.558 36.2693C35.3961 36.2694 35.2359 36.2362 35.0874 36.1718C34.9388 36.1074 34.8051 36.0131 34.6945 35.8949L31.7339 32.7257H22.7031L19.5806 35.9149C19.472 36.0258 19.3427 36.1141 19.2 36.175C19.0572 36.2358 18.9039 36.2679 18.7488 36.2695C18.5936 36.2711 18.4397 36.2421 18.2957 36.1842C18.1518 36.1263 18.0207 36.0406 17.9098 35.9321C17.799 35.8235 17.7106 35.6941 17.6498 35.5514C17.589 35.4087 17.5568 35.2554 17.5552 35.1002C17.5536 34.9451 17.5826 34.7911 17.6405 34.6472C17.6984 34.5032 17.7841 34.3721 17.8927 34.2613L21.3625 30.7177C21.4725 30.6054 21.6038 30.5163 21.7487 30.4554C21.8936 30.3946 22.0492 30.3633 22.2064 30.3633H32.2465C32.4084 30.3634 32.5685 30.3967 32.7169 30.4612C32.8653 30.5257 32.9989 30.6201 33.1094 30.7384L36.4209 34.2819C36.5779 34.4501 36.6824 34.6606 36.7215 34.8874C36.7607 35.1141 36.7327 35.3474 36.641 35.5585C36.5494 35.7696 36.398 35.9493 36.2056 36.0756C36.0132 36.2019 35.7881 36.2692 35.558 36.2693Z" fill="url(#paint5_linear_2530_927)"/>
<defs>
<linearGradient id="paint0_linear_2530_927" x1="-3.5" y1="9.71392" x2="12.7037" y2="45.3109" gradientUnits="userSpaceOnUse">
<stop stop-color="#00FFA9"/>
<stop offset="1" stop-color="#0D4DFF"/>
</linearGradient>
<linearGradient id="paint1_linear_2530_927" x1="25.8839" y1="7.12693" x2="29.7628" y2="8.1489" gradientUnits="userSpaceOnUse">
<stop stop-color="#00FFA9"/>
<stop offset="1" stop-color="#0D4DFF"/>
</linearGradient>
<linearGradient id="paint2_linear_2530_927" x1="18.02" y1="-2.58845" x2="29.0184" y2="7.92587" gradientUnits="userSpaceOnUse">
<stop stop-color="#00FFA9"/>
<stop offset="1" stop-color="#0D4DFF"/>
</linearGradient>
<linearGradient id="paint3_linear_2530_927" x1="24.5991" y1="12.6145" x2="29.2131" y2="16.8503" gradientUnits="userSpaceOnUse">
<stop stop-color="#00FFA9"/>
<stop offset="1" stop-color="#0D4DFF"/>
</linearGradient>
<linearGradient id="paint4_linear_2530_927" x1="18.468" y1="5.69085" x2="21.5596" y2="8.52902" gradientUnits="userSpaceOnUse">
<stop stop-color="#00FFA9"/>
<stop offset="1" stop-color="#0D4DFF"/>
</linearGradient>
<linearGradient id="paint5_linear_2530_927" x1="16.2849" y1="28.9991" x2="19.7408" y2="39.3034" gradientUnits="userSpaceOnUse">
<stop stop-color="#00FFA9"/>
<stop offset="1" stop-color="#0D4DFF"/>
</linearGradient>
</defs>
</svg>
