<svg width="77" height="77" viewBox="0 0 77 77" fill="none" xmlns="http://www.w3.org/2000/svg">
<path d="M3 60.3462L10.1 48.8769C14.1962 42.5962 21.0231 38.5 28.6692 38.5H46.6923C46.6923 44.5077 41.7769 49.4231 35.7692 49.4231H30.3077" stroke="#0B78EB" stroke-width="5.46154" stroke-miterlimit="10" stroke-linecap="round" stroke-linejoin="round"/>
<path d="M38.4991 49.4231H57.6145L60.8914 45.0538C63.8953 40.9577 68.8106 38.5 73.9991 38.5L66.626 51.6077C62.8029 58.7077 55.1568 63.0769 47.2376 63.0769C34.4029 63.0769 21.8414 66.9 11.1914 74" stroke="#0B78EB" stroke-width="5.46154" stroke-miterlimit="10" stroke-linecap="round" stroke-linejoin="round"/>
<path d="M60.6196 30.0346C60.8927 28.3962 61.1657 26.4846 61.1657 24.8462C61.1657 22.9346 60.8927 21.2962 60.6196 19.6577C57.8888 19.9308 55.158 18.8385 53.7927 16.1077C52.4273 13.65 52.7003 10.6462 54.3388 8.46154C51.8811 6.00385 48.6042 4.09231 45.0542 3C43.9619 5.45769 41.5042 7.36923 38.5003 7.36923C35.4965 7.36923 33.0388 5.45769 31.9465 3C28.3965 4.09231 25.3927 6.00385 22.6619 8.46154C24.3003 10.6462 24.5734 13.65 23.208 16.1077C21.8427 18.5654 19.1119 19.9308 16.3811 19.6577C15.835 21.2962 15.835 22.9346 15.835 24.8462C15.835 26.7577 16.108 28.3962 16.3811 30.0346" stroke="#0B78EB" stroke-width="5.46154" stroke-miterlimit="10" stroke-linecap="round" stroke-linejoin="round"/>
<path d="M44.5086 30.3077C45.874 28.9423 46.6932 27.0308 46.6932 24.8462C46.6932 20.2039 43.1432 16.6539 38.5009 16.6539C33.8586 16.6539 30.3086 20.2039 30.3086 24.8462C30.3086 27.0308 31.1278 28.9423 32.4932 30.3077" stroke="#0B78EB" stroke-width="5.46154" stroke-miterlimit="10" stroke-linecap="round" stroke-linejoin="round"/>
</svg>
