<svg width="1728" height="538" viewBox="0 0 1728 538" fill="none" xmlns="http://www.w3.org/2000/svg">
<g opacity="0.07">
<path d="M-3.13574 768.467C60.3297 726.798 116.558 668.456 162.044 597.079C229.082 490.574 225.436 425.324 289.825 364.482C352.406 305.394 438.3 289.112 507.987 311.433C603.075 341.916 607.376 424.875 729.266 556.273C800.948 633.479 935.367 778.424 1093.91 764.387C1174.01 757.286 1253.63 710.195 1327.65 666.451C1418.38 612.831 1431.41 585.286 1480.37 572.595C1538.52 557.497 1628.44 568.229 1757.74 703.177" stroke="#0B76EB" stroke-width="1.5" stroke-miterlimit="10"/>
<path d="M-4.91199 753.206C52.2764 716.599 103.832 666.525 147.178 605.486C151.323 599.569 155.468 593.489 159.645 587.246C227.368 484.086 224.688 421.775 288.267 362.442C315.981 336.479 347.36 317.988 380.581 308.047C404.376 300.954 428.78 297.99 453.166 299.232C471.402 300.174 489.499 303.801 507.115 310.046C526.744 316.652 545.404 327.462 562.341 342.038C593.507 368.971 615.323 405.33 648.889 450.951C674.173 485.286 701.681 516.689 731.105 544.807C746.688 559.905 764.889 578.105 785.926 596.753C842.212 646.782 914.236 701.137 1000.66 719.908C1029.98 726.46 1059.78 728.65 1089.48 726.437C1094.03 726.11 1098.55 725.621 1103.01 725.049C1147.14 719.459 1189.18 704.646 1232.13 684.977C1264.26 670.45 1294.65 652.332 1324.79 635.316C1337.41 628.052 1348.69 621.441 1358.88 615.239C1420.43 577.656 1436.42 557.497 1478.47 548.683C1510.41 541.991 1551.74 543.174 1604.19 567.005C1647.2 586.511 1698.12 621.645 1757.74 679.754" stroke="#0B76EB" stroke-width="1.5" stroke-miterlimit="10"/>
<path d="M-6.56384 737.862C50.0322 702.638 101.27 654.245 144.654 595.039C148.809 589.326 152.965 583.477 157.12 577.492C225.685 477.638 224.034 418.346 286.74 360.401C314.52 334.099 345.999 315.252 379.365 304.945C403.301 297.806 427.865 294.951 452.387 296.457C470.65 297.676 488.734 301.787 506.242 308.699C525.774 316.091 544.333 327.333 561.281 342.038C593.694 369.787 616.694 404.962 649.886 447.564C675.289 479.899 703.115 508.8 732.944 533.829C748.527 547.214 766.323 563.618 787.141 579.859C842.617 623.155 910.247 668.573 995.798 683.385C1025.35 688.717 1055.22 690.466 1085.03 688.609C1089.64 688.282 1094.19 687.874 1098.68 687.344C1143.56 682.202 1184.54 669.511 1228.36 652.005C1261.36 638.784 1291.47 620.992 1321.86 604.221C1334.48 597.283 1345.89 590.958 1356.33 585.042C1418.07 549.907 1434.62 531.381 1476.5 524.852C1508.42 519.873 1549.43 522.607 1602.16 546.724C1645.24 566.475 1696.82 600.956 1757.74 656.249" stroke="#0B76EB" stroke-width="1.5" stroke-miterlimit="10"/>
<path d="M-8.52759 722.764C47.6057 688.874 98.6345 642.06 142.129 584.552C146.274 579.002 150.45 573.371 154.595 567.617C224.064 471.109 223.285 414.755 285.15 358.361C314.446 331.673 343.306 312.453 378.056 301.803C402.152 294.605 426.899 291.858 451.577 293.641C469.874 295.148 487.946 299.757 505.338 307.352C524.783 315.524 543.265 327.197 560.252 342.038C593.849 370.603 618.003 404.513 650.852 444.055C676.396 474.407 704.565 500.743 734.782 522.526C750.521 534.197 767.787 548.805 788.357 562.639C843.302 599.61 906.258 635.805 990.936 646.741C1020.73 650.838 1050.7 652.133 1080.63 650.618C1085.28 650.332 1089.98 649.965 1094.34 649.475C1138.38 644.753 1181.96 634.49 1224.49 618.829C1258.37 606.955 1288.23 589.326 1318.99 573.004C1331.61 566.311 1343.11 560.313 1353.83 554.681C1415.73 522.036 1432.87 505.224 1474.57 500.857C1506.48 497.511 1547.28 501.918 1600.2 526.321C1643.37 546.071 1695.51 580.308 1757.74 632.989" stroke="#0B76EB" stroke-width="1.5" stroke-miterlimit="10"/>
<path d="M-12.1111 692.323C42.9245 661.045 93.4024 617.513 137.081 563.659C141.226 558.477 145.433 553.335 149.547 548.03C220.606 458.256 221.883 407.86 281.972 354.281C312.577 326.981 339.504 306.7 375.47 295.56C399.866 288.229 424.963 285.726 449.925 288.133C468.311 290.131 486.367 295.701 503.5 304.66C522.699 314.295 541.005 326.738 558.071 341.753C594.068 371.95 620.871 402.963 652.723 437.118C676.253 462.255 703.866 482.005 738.398 500.042C754.449 508.448 770.967 519.466 790.757 528.606C845.703 553.498 898.342 570.515 981.119 573.779C1009.89 574.922 1041.71 576.35 1071.66 575.003C1076.42 574.799 1081.01 574.514 1085.56 574.187C1129.68 571.338 1173.59 564.246 1216.92 552.968C1252.61 543.786 1281.81 526.403 1313.22 510.978C1325.85 504.775 1337.6 499.43 1348.85 494.37C1410.99 466.091 1429.41 452.216 1470.71 453.073C1502.62 453.726 1542.89 460.704 1596.21 485.719C1639.41 506.122 1692.83 539.053 1757.62 586.307" stroke="#0B76EB" stroke-width="1.5" stroke-miterlimit="10"/>
<path d="M-15.7263 661.922C38.2129 633.175 88.1417 592.925 132.032 542.807C136.208 537.992 140.447 533.299 144.498 528.484C217.458 445.32 220.637 401.045 278.917 350.2C310.862 322.37 335.795 300.987 373.007 289.276C397.73 281.836 423.199 279.591 448.46 282.624C468.999 284.868 485.86 292.948 501.879 302.007C520.78 313.206 538.93 326.46 556.139 341.63C594.504 373.5 624.361 401.616 654.811 430.262C679.743 453.808 708.728 467.396 742.076 477.639C758.718 482.74 776.046 483.923 793.219 494.206C850.658 488.412 890.55 504.612 971.364 500.491C1000.35 498.981 1033.04 499.879 1062.77 499.022C1067.64 499.022 1072.37 498.736 1076.83 498.532C1125.7 496.124 1161.41 494.9 1209.38 486.698C1246.78 480.251 1275.39 463.071 1307.49 448.585C1319.96 442.872 1332.05 438.138 1343.86 433.649C1406.19 410.063 1425.86 401.004 1466.93 405.37C1498.88 408.676 1538.62 419.489 1592.35 444.994C1635.64 465.397 1690.24 497.716 1757.68 539.502" stroke="#0B76EB" stroke-width="1.5" stroke-miterlimit="10"/>
<path d="M-17.5034 646.741C35.8596 619.216 85.4962 580.638 129.507 532.483C133.683 527.831 137.953 523.342 142.16 518.813C215.868 438.995 220.075 397.78 277.358 348.323C309.958 320.207 333.925 298.253 371.76 286.337C396.602 278.815 422.216 276.664 447.587 279.971C468.406 282.461 484.986 291.193 500.912 300.783C520.578 312.617 536.753 326.491 554.985 341.589C594.566 374.235 630.376 393.863 655.714 426.835C684.418 442.872 711.252 473.477 743.945 466.417C760.962 462.744 777.916 468.376 794.496 477.108C851.966 462.418 886.779 471.681 966.564 463.928C995.673 461.112 1028.9 461.765 1058.38 461.153C1063.33 461.153 1068.07 461.153 1072.56 460.786C1122.18 458.949 1156.86 460.092 1205.64 453.644C1244 448.625 1272.24 431.527 1304.65 417.49C1317.12 412.022 1329.34 407.574 1341.4 403.412C1403.73 381.988 1424.17 375.092 1465.1 381.498C1497.07 386.518 1536.56 398.923 1590.45 424.713C1633.8 445.361 1688.87 477.108 1757.74 516.16" stroke="#0B76EB" stroke-width="1.5" stroke-miterlimit="10"/>
<path d="M-21.118 616.422C31.0911 591.181 80.1188 555.845 124.334 511.59C128.541 507.509 132.811 503.428 137.05 499.348C212.658 426.263 218.611 391.169 274.18 344.282C308.151 315.718 330.279 292.58 369.174 280.134C394.312 272.48 420.269 270.562 445.905 274.462C467.316 277.441 483.304 287.48 499.074 298.13C517.992 311.025 533.824 325.919 552.804 341.548C594.785 375.908 634.303 390.965 657.584 420.06C688.314 432.629 716.8 437.118 747.561 444.095C765.201 439.688 781.469 437.281 796.865 442.953C854.367 410.308 879.019 405.656 956.747 390.924C986.106 385.334 1020.01 385.048 1049.43 385.497C1054.48 385.497 1059.31 385.497 1063.77 385.497C1115.01 386.354 1147.61 390.598 1198 387.741C1238.21 385.497 1265.73 368.522 1298.86 355.423C1311.32 350.485 1323.79 346.608 1336.26 343.181C1398.59 325.919 1420.4 323.349 1461.11 333.999C1493.11 342.405 1532.07 357.993 1586.39 384.314C1629.81 405.329 1686.13 436.057 1757.59 469.722" stroke="#0B76EB" stroke-width="1.5" stroke-miterlimit="10"/>
<path d="M-22.8943 601.242C28.7999 577.136 77.5839 543.44 121.965 501.184C126.142 497.103 130.443 493.308 134.681 489.472C211.287 419.815 218.113 387.741 272.684 342.283C307.341 313.392 328.316 289.724 367.959 276.992C393.312 269.248 419.515 267.465 445.344 271.728C467.16 274.952 482.899 285.602 498.326 296.783C517.026 310.209 532.609 325.593 551.901 341.671C595.035 376.846 636.454 389.659 658.676 416.796C690.403 427.609 719.325 429.038 749.525 433.118C767.383 426.589 783.402 421.937 798.237 426.1C855.738 384.681 875.311 372.765 952.01 354.606C981.493 347.629 1015.81 347.139 1045.13 347.833C1050.25 347.833 1055.08 347.833 1059.56 347.833C1111.55 349.342 1143.15 355.994 1194.36 354.81C1235.43 353.954 1262.64 337.019 1296.11 324.409C1308.58 319.676 1321.05 316.248 1333.98 312.943C1396.31 297.681 1419 297.355 1459.42 310.127C1491.43 320.247 1530.14 337.386 1584.65 363.992C1628.09 385.171 1685.16 415.408 1757.81 446.34" stroke="#0B76EB" stroke-width="1.5" stroke-miterlimit="10"/>
<path d="M-24.7021 586.103C26.4368 563.071 74.9329 531 119.441 490.778C123.648 486.698 127.949 483.351 132.188 479.72C209.822 413.531 217.52 384.477 271.126 340.283C306.468 311.188 326.445 286.949 366.712 273.932C392.158 266.139 418.474 264.466 444.378 268.994C466.194 272.504 482.026 283.766 497.36 295.519C515.561 309.474 531.019 325.348 550.778 341.467C595.128 377.499 638.386 388.027 659.579 413.246C692.335 422.346 721.568 420.958 751.301 421.693C769.346 413.082 785.147 406.145 799.39 408.798C856.922 358.442 871.383 339.427 947.086 317.84C976.693 309.434 1011.41 309.352 1040.58 309.678C1045.76 309.678 1050.62 309.678 1055.11 309.678C1107.9 311.841 1138.48 319.023 1190.49 321.349C1232.44 323.226 1259.34 305.026 1293.15 292.784C1305.74 288.34 1318.51 284.798 1331.39 282.175C1393.73 268.872 1417.16 270.831 1457.43 285.725C1489.47 297.559 1527.9 316.248 1582.59 343.14C1626.22 364.482 1683.76 394.271 1757.71 422.468" stroke="#0B76EB" stroke-width="1.5" stroke-miterlimit="10"/>
<path d="M-31.9017 573.82C17.0399 554.777 64.3672 529.235 109.343 497.593C113.644 494.492 118.007 491.84 122.245 489.146C204.119 437.036 215.151 419.775 264.892 380.764C303.04 350.771 318.934 324.124 361.663 310.046C387.726 301.893 414.776 300.699 441.199 306.537C464.261 311.189 479.159 324.736 493.838 338.733C510.543 354.688 525.284 372.684 546.571 389.782C595.688 429.079 646.302 430.589 663.475 448.013C700.251 450.217 732.383 442.3 758.656 425.366C779.225 412.103 792.346 392.353 804.283 388.884C861.878 302.905 855.894 254.222 927.576 220.149C957.682 205.785 994.053 205.459 1022.85 206.724C1028.24 206.968 1033.26 207.295 1037.72 207.54C1093.82 210.682 1120.09 230.31 1175.38 238.022C1220.97 244.388 1246.47 227.372 1281.68 217.292C1294.79 213.628 1308.08 211.228 1321.45 210.11C1383.5 204.275 1410.21 215.987 1449.82 239.165C1481.89 257.936 1519.29 282.787 1574.77 310.821C1633.81 341.473 1695.14 363.971 1757.74 377.948" stroke="#0B76EB" stroke-width="1.5" stroke-miterlimit="10"/>
<path d="M-33.7101 576.146C14.7049 558.014 61.7451 534.096 106.818 504.694C111.118 501.796 115.513 499.348 119.751 496.859C202.747 448.421 214.714 434.221 263.333 396.27C302.197 366.073 317.064 338.774 360.415 324.491C386.622 316.245 413.846 315.161 440.388 321.309C463.731 326.287 478.441 340.365 492.933 354.933C509.296 371.256 523.85 389.905 545.51 407.247C595.812 447.36 648.358 446.667 664.44 462.091C702.213 462.581 734.782 451.074 760.494 431.65C781.313 415.898 794.153 394.271 805.529 389.292C863.123 294.376 851.966 238.308 922.713 201.133C952.882 185.218 989.72 184.81 1018.42 186.361C1023.85 186.647 1028.9 187.014 1033.35 187.3C1090.17 191.054 1115.41 213.089 1171.51 222.516C1218.01 230.351 1243.19 213.293 1278.69 203.704C1291.94 200.256 1305.37 198.141 1318.86 197.379C1380.88 193.298 1408.34 207.58 1447.8 232.799C1479.87 253.202 1517.05 279.727 1572.71 308.006C1632.18 338.968 1694.27 360.49 1757.65 372.113" stroke="#0B76EB" stroke-width="1.5" stroke-miterlimit="10"/>
<path d="M-35.4852 578.472C12.3993 561.177 59.1434 538.866 104.294 511.753C108.626 509.06 113.021 506.897 117.259 504.612C201.408 459.725 213.874 448.503 261.776 411.777C301.326 381.417 315.195 353.464 359.139 338.896C385.499 330.529 412.914 329.57 439.578 336.081C463.202 341.426 477.726 355.953 492.062 371.133C508.081 388.068 522.418 407.125 544.452 424.713C595.97 465.519 650.417 462.744 665.408 476.21C699.812 475.675 733.401 462.42 762.303 437.975C783.34 419.693 795.962 396.23 806.745 389.7C864.371 285.888 848.009 222.393 917.852 182.117C948.083 164.611 985.389 164.285 1013.97 165.999C1019.48 166.325 1024.53 166.733 1029.02 167.1C1086.59 171.589 1110.89 195.665 1167.8 207.009C1215.15 216.272 1240.08 199.215 1275.92 190.115C1288.39 186.973 1301.54 186.483 1316.43 184.688C1378.21 177.22 1406.66 199.174 1445.96 226.474C1478.03 248.754 1514.96 276.666 1570.81 305.231C1630.77 336.5 1693.66 357.087 1757.81 366.441" stroke="#0B76EB" stroke-width="1.5" stroke-miterlimit="10"/>
<path d="M-37.2941 580.798C10.0832 564.319 56.5456 543.623 101.769 518.854C106.132 516.405 110.526 514.406 114.796 512.365C200.004 471.559 213.437 462.785 260.217 427.284C300.515 396.719 313.199 368.155 357.891 353.301C384.449 344.825 412.095 343.99 438.923 350.853C462.796 356.566 477.132 371.582 491.313 387.334C506.896 404.758 521.108 424.345 543.516 442.178C596.249 483.964 652.597 478.904 666.497 490.289C701.821 487.863 735.802 471.773 764.14 444.055C785.302 423.284 797.768 397.944 807.96 389.905C865.617 277.197 844.019 206.275 912.958 162.857C943.283 143.8 981.025 143.514 1009.57 145.432C1015.12 145.799 1020.23 146.289 1024.69 146.656C1083.06 151.839 1106.31 178.404 1164.06 191.299C1212.34 202.031 1236.8 184.851 1273.14 176.323C1286.71 173.851 1300.37 172.325 1314.06 171.752C1375.93 166.488 1405.01 190.564 1444.18 219.904C1476.22 243.939 1512.94 273.361 1568.85 302.211C1629.25 333.723 1692.91 353.28 1757.71 360.238" stroke="#0B76EB" stroke-width="1.5" stroke-miterlimit="10"/>
<path d="M-39.1013 583.124C7.79001 567.419 53.9856 548.347 99.2758 525.995C103.639 523.75 108.033 521.914 112.303 520.159C198.633 482.944 212.876 477.149 258.784 442.627C299.673 412.103 311.329 382.845 356.614 367.746C383.283 359.149 411.079 358.425 437.988 365.624C462.142 371.705 476.322 387.211 490.285 403.534C505.618 421.407 519.55 441.566 542.363 459.643C596.249 502.245 654.561 494.818 667.339 504.53C703.683 500.308 738.139 481.464 765.979 450.584C787.204 427.242 799.545 400.106 809.176 390.557C866.833 268.913 839.999 190.319 908.097 144.044C938.483 123.396 976.662 123.152 1005.09 125.273C1010.7 125.682 1015.84 126.212 1020.29 126.661C1079.51 132.537 1101.67 161.387 1160.26 175.996C1209.44 188.238 1233.56 170.936 1270.18 162.938C1283.88 160.601 1297.67 159.361 1311.48 159.225C1373.44 156.164 1403.14 182.362 1442.16 213.783C1474.23 239.532 1510.72 270.504 1566.82 299.477C1627.71 331.27 1692.16 349.836 1757.62 354.443" stroke="#0B76EB" stroke-width="1.5" stroke-miterlimit="10"/>
<path d="M-40.8468 585.45C12.5406 567.699 60.4428 549.622 96.7824 533.054C101.208 531.014 105.602 529.463 109.841 527.831C197.324 494.533 212.346 491.431 257.132 458.46C298.863 427.61 309.615 397.699 355.398 382.315C382.214 373.613 410.19 373.013 437.209 380.56C461.643 387.048 475.668 402.963 489.443 419.897C504.403 438.26 518.147 458.949 541.335 477.272C596.436 520.69 656.649 511.019 668.336 518.609C705.677 512.544 740.551 490.978 767.849 457.072C789.104 431.16 802.724 403.82 810.453 391.129C882.135 273.075 835.978 174.405 903.266 125.192C933.684 102.912 972.392 102.748 1000.69 105.074C1006.36 105.523 1011.51 106.135 1015.99 106.625C1075.93 113.195 1097.02 144.33 1156.49 160.612C1206.57 174.364 1230.35 156.98 1267.35 149.554C1281.14 146.876 1295.09 145.906 1309.02 146.656C1371.01 149.431 1401.39 174.16 1440.29 207.581C1472.33 235.125 1508.54 267.607 1564.95 296.988C1626.36 329.045 1691.62 346.632 1757.71 348.935" stroke="#0B76EB" stroke-width="1.5" stroke-miterlimit="10"/>
<path d="M-42.6849 587.776C11.2946 570.555 58.8851 554.233 94.2274 540.155C98.6842 538.359 103.079 537.012 107.317 535.584C196.016 506.203 211.754 505.755 255.543 473.844C298.022 442.831 307.715 412.185 354.09 396.556C381.073 387.74 409.252 387.265 436.399 395.169C461.083 402.106 474.92 418.428 488.509 435.975C503.157 454.828 516.558 476.047 540.244 494.614C596.53 538.89 658.457 526.933 669.303 532.605C712.125 524.444 745.784 495.226 769.658 463.234C790.882 434.669 804.314 405.166 811.638 391.414C880.983 261.364 831.896 158.204 898.342 106.013C928.791 82.1409 968.029 82.0593 996.203 84.5893C1001.94 85.1198 1007.14 85.7319 1011.6 86.2624C1072.34 93.5668 1092.41 127.069 1152.69 144.983C1203.64 160.204 1227.08 142.698 1264.42 135.842C1278.35 133.37 1292.43 132.701 1306.46 133.843C1368.48 138.209 1399.59 165.631 1438.36 201.133C1470.36 230.432 1506.36 264.424 1563.02 294.091C1606.93 317.065 1670.76 341.998 1757.75 343.059" stroke="#0B76EB" stroke-width="1.5" stroke-miterlimit="10"/>
<path d="M-44.4937 590.101C10.0469 573.289 57.3257 558.925 91.7019 547.214C96.1898 545.704 100.584 544.561 104.823 543.133C194.55 517.955 211.192 520.118 253.983 489.35C296.774 458.582 305.844 426.875 352.842 411.001C379.967 402.035 408.334 401.672 435.588 409.94C460.521 417.367 474.234 434.016 487.635 452.134C501.94 471.436 515.248 493.226 539.184 512.038C596.685 556.926 660.482 542.929 670.268 546.642C714.118 536.767 747.809 504.122 771.495 469.518C792.657 438.586 805.778 406.716 812.853 391.985C879.517 250.182 827.781 142.249 893.479 87.1597C923.928 61.6147 963.665 61.6556 991.777 64.3897C997.542 64.9609 1002.78 65.6546 1007.36 66.2259C1068.88 74.3872 1087.92 109.971 1149.01 129.639C1200.87 146.329 1223.99 128.701 1261.67 122.417C1275.75 120.138 1289.96 119.755 1304.09 121.274C1366.14 127.273 1397.9 157.388 1436.58 194.93C1468.55 225.984 1504.33 261.486 1561.24 291.438C1605.22 314.575 1669.64 339.059 1757.93 337.304" stroke="#C6CBFF" stroke-width="1.5" stroke-miterlimit="10"/>
<path d="M-46.2699 592.428C8.80047 576.106 55.7677 563.619 89.1777 554.233C93.6967 552.968 98.0911 551.989 102.33 551.009C193.147 529.749 210.632 534.483 252.425 504.816C296.401 473.64 303.943 441.566 351.564 425.407C378.843 416.285 407.413 416.046 434.778 424.713C459.96 432.67 473.548 449.646 486.763 468.294C500.725 488.127 513.815 510.407 538.155 529.504C596.81 575.412 662.975 564.925 671.234 560.721C713.869 539.135 749.804 513.1 773.334 475.803C794.402 442.382 807.399 408.309 814.099 392.19C877.834 238.961 823.636 125.886 888.617 67.8999C919.067 40.7227 959.333 40.9267 987.32 43.824C993.179 44.4361 998.415 45.1706 1002.9 45.7827C1065.24 54.5153 1083.19 92.5471 1145.11 113.93C1197.85 132.13 1220.63 114.338 1258.68 108.625C1272.9 106.546 1287.24 106.45 1301.47 108.339C1363.56 115.929 1396 148.779 1434.52 188.361C1466.5 221.006 1502.06 258.222 1559.19 288.46C1603.19 311.76 1668.27 335.714 1757.84 331.266" stroke="#0B76EB" stroke-width="1.5" stroke-miterlimit="10"/>
<path d="M-49.8845 597.079C6.21432 581.736 52.5582 573.33 84.1294 568.515C188.598 552.6 207.734 564.434 249.309 535.869C294.812 504.571 300.203 470.946 349.041 454.256C376.631 444.862 405.598 444.862 433.189 454.256C485.485 473.027 486.919 526.157 536.037 564.434C597.091 612.015 666.498 591.081 673.167 588.918C762.053 560.353 803.504 432.588 816.531 393.046C874.282 217.904 815.284 93.6479 878.863 29.8671C915.764 -7.14452 968.87 1.30245 994.177 5.38311C1058.04 15.5848 1073.93 58.1869 1137.54 82.9157C1209.22 110.827 1225.02 70.6737 1296.49 82.9157C1410.49 102.625 1428.79 215.129 1555.17 282.868C1599.27 306.495 1665.52 329.51 1757.74 319.594" stroke="#C6CBFF" stroke-width="1.5" stroke-miterlimit="10"/>
<path d="M-46.5183 586.878C7.46124 571.535 52.3715 562.027 83.9738 556.396C182.832 538.726 203.309 549.01 244.51 520.323C288.361 489.962 294.843 457.603 341.125 441.076C367.584 431.757 395.353 430.778 422.156 438.22C472.988 451.563 475.7 501.715 523.29 537.298C581.758 581.002 647.3 566.924 655.839 562.884C723.282 531.259 767.04 459.847 787.422 412.552C791.567 402.922 794.435 394.475 796.772 388.517C857.359 231.861 804.751 117.602 866.397 60.7991C904.108 26.1135 958.243 35.6623 985.669 39.3757C1010.02 42.6488 1033.76 51.4155 1055.82 65.2878C1077.98 78.2235 1098.71 92.2202 1131.87 100.504C1142.19 103.116 1151.41 104.095 1159.64 105.646C1209.35 115.072 1227.74 96.7498 1286.61 114.215C1309.59 121.148 1331.59 132.771 1351.81 148.656C1405.54 189.462 1442.19 265.485 1530.36 320.901C1535.5 324.084 1540.86 327.266 1546.44 330.368C1591.32 355.219 1659.57 380.437 1754.63 371.868" stroke="#AAD3FF" stroke-width="1.5" stroke-miterlimit="10"/>
<path d="M-44.8357 581.777C8.02188 566.475 52.2465 556.396 83.8177 550.152C179.871 531.748 201.033 541.093 242.048 512.406C285.057 482.536 292.1 450.788 337.26 434.343C363.15 425.104 390.307 423.709 416.671 430.262C466.536 441.076 470.121 489.554 516.932 523.75C574.122 565.536 637.576 554.845 647.206 549.948C700.759 521.845 746.286 472.576 777.449 409.002C781.687 399.984 784.523 391.904 786.798 386.314C848.694 239.124 799.452 129.558 860.007 76.1832C898.155 42.6401 952.789 52.801 981.274 56.2695C1005.82 59.4056 1029.87 67.3994 1052.58 79.9782C1075.15 91.5265 1096.21 103.32 1128.88 109.237C1139.29 111.114 1148.54 111.318 1156.77 112.868C1206.42 122.335 1223.81 108.788 1281.43 129.803C1304.1 138.364 1325.72 151.115 1345.64 167.672C1397.28 208.764 1435.83 286.949 1525.56 344.324C1530.73 347.588 1536.15 350.839 1541.83 354.076C1587.08 379.499 1656.36 405.819 1752.82 397.903" stroke="#0B76EB" stroke-width="1.5" stroke-miterlimit="10"/>
<path d="M-43.1526 576.717C8.58302 561.374 52.1531 550.764 83.7866 544.072C177.035 524.933 198.914 533.34 239.617 504.612C281.753 475.19 289.482 444.136 333.271 427.732C358.618 418.446 385.205 416.497 411.186 422.019C460.335 430.18 464.542 477.108 510.605 509.957C566.517 550.152 627.135 534.156 638.573 536.89C704.489 519.465 745.94 447.115 767.507 405.329C771.839 396.964 774.613 389.292 777.044 384.028C840.311 246.183 794.434 141.596 853.868 91.7302C892.514 59.3298 947.553 70.0619 977.13 73.3672C1001.9 76.351 1026.26 83.5671 1049.59 94.8315C1072.59 104.992 1093.91 114.541 1126.17 118.132C1136.64 119.316 1145.92 118.703 1154.21 120.254C1203.8 129.721 1220.19 121.111 1276.76 145.513C1300.73 155.878 1320.39 170.732 1339.96 186.891C1389.58 228.065 1429.85 308.862 1521.29 367.909C1526.48 371.256 1531.97 374.588 1537.74 377.907C1583.4 403.983 1653.68 431.405 1751.54 424.141" stroke="#AAD3FF" stroke-width="1.5" stroke-miterlimit="10"/>
<path d="M-41.5006 571.616C9.01952 556.314 52.0286 545.174 83.818 538.236C174.199 518.404 196.639 525.668 237.342 497.103C278.606 468.049 286.802 437.73 329.5 421.407C354.257 412.126 380.221 409.708 405.732 414.307C453.946 420.346 458.995 465.193 504.279 496.654C558.882 534.564 617.287 519.996 630.003 523.954C693.955 508.121 735.375 440.79 757.596 401.779C762.022 394.026 764.764 386.721 767.258 381.825C831.865 253.406 789.448 153.756 847.697 107.278C886.842 76.0197 942.317 87.3639 972.922 90.4244C1004.09 93.5257 1026.06 101.973 1046.57 109.644C1070 118.418 1091.82 131.149 1123.39 127.028C1132.73 125.711 1142.15 125.917 1151.44 127.64C1201 137.107 1216.33 133.231 1271.8 161.265C1295.02 172.976 1314.35 189.095 1334.14 206.152C1381.73 247.285 1423.71 330.571 1516.83 391.537C1522.09 394.964 1527.64 398.392 1533.47 401.82C1579.51 428.467 1650.78 456.99 1750.08 450.42" stroke="#2684EB" stroke-width="1.5" stroke-miterlimit="10"/>
<path d="M-39.819 566.475C9.70385 551.172 51.9338 539.502 83.5985 532.116C171.269 511.712 194.425 517.915 234.941 489.269C275.457 460.622 284.152 431.078 325.572 414.715C361.662 400.474 391.737 403.534 400.37 406.186C446.402 420.469 453.508 452.91 498.044 482.985C551.338 518.976 607.593 505.714 621.493 510.855C683.451 496.573 724.808 434.425 747.778 398.107C752.266 390.966 754.977 384.028 757.502 379.458C823.449 260.466 784.585 165.876 841.65 122.621C881.355 92.5059 937.174 104.462 968.87 107.319C1000.57 110.175 1022.79 117.847 1043.67 124.335C1067.51 131.721 1090.07 142.78 1120.74 135.72C1130 133.479 1139.47 133.19 1148.79 134.863C1198.28 144.33 1212.59 145.187 1266.94 176.812C1289.44 189.871 1308.33 207.295 1328.15 225.087C1373.75 265.893 1417.47 351.995 1512.25 414.878C1517.55 418.388 1523.16 421.897 1529.08 425.406C1575.52 452.665 1647.79 482.291 1748.49 476.415" stroke="#0B76EB" stroke-width="1.5" stroke-miterlimit="10"/>
<path d="M-38.1354 561.497C10.2655 546.072 51.8098 533.83 83.5056 526.158C168.371 505.265 192.213 510.284 232.542 481.638C272.122 453.481 281.472 424.509 321.676 408.186C356.769 393.945 386.003 395.699 394.761 398.229C439.889 411.369 447.743 440.75 491.562 469.437C543.547 503.551 597.527 491.513 612.736 498.001C672.731 485.311 713.932 428.63 737.681 394.638C741.186 389.108 744.473 383.347 747.529 377.377C814.754 267.811 779.537 178.322 835.23 138.25C875.528 109.318 931.689 121.928 964.445 124.498C995.953 127.028 1019.11 134.006 1040.4 139.27C1064.67 145.269 1087.99 154.369 1117.72 144.698C1126.92 141.506 1136.52 140.702 1145.96 142.331C1195.42 151.839 1208.66 157.348 1261.92 192.645C1283.74 207.05 1302.13 225.699 1322.11 244.388C1365.74 285.195 1411.18 373.745 1507.61 438.546C1512.95 442.137 1518.62 445.728 1524.62 449.319C1571.37 477.19 1644.71 507.917 1746.84 502.694" stroke="#0BB7EB" stroke-width="1.5" stroke-miterlimit="10"/>
<path d="M-36.4532 556.477C10.8256 541.134 51.6843 528.484 83.4425 520.159C165.471 498.695 189.999 502.571 230.297 473.925C269.036 446.218 278.947 417.979 317.904 401.738C352.187 387.497 380.424 387.946 389.43 390.353C433.686 402.228 442.413 428.671 485.36 456.011C536.035 488.208 587.927 477.435 604.258 485.025C662.258 473.925 703.241 422.305 727.894 391.169C731.431 386.096 734.75 380.77 737.836 375.214C806.401 275.115 774.83 190.809 829.152 153.838C870.042 126.049 926.515 139.229 960.33 141.596C992.119 143.881 1015.81 150.125 1037.47 154.165C1063.21 158.801 1089.33 158.622 1115.04 153.634C1126.01 151.798 1135.23 148.207 1143.37 149.553C1192.77 159.102 1204.95 169.181 1257.12 208.192C1278.13 223.903 1296.17 243.898 1316.34 263.404C1358.07 303.884 1405.13 395.25 1503.34 461.969C1508.7 465.601 1514.46 469.314 1520.57 473.027C1567.76 501.592 1642.12 533.34 1745.56 528.769" stroke="#0BB7EB" stroke-width="1.5" stroke-miterlimit="10"/>
<path d="M-34.6133 549.458C11.5436 534.155 51.7478 520.893 83.5059 512.201C162.605 490.288 187.819 493.022 227.742 464.254C265.671 436.995 276.112 409.45 313.854 393.25C347.015 379.009 374.503 378.192 383.759 380.437C427.205 390.924 436.586 414.592 478.878 440.545C528.214 470.824 577.955 461.316 595.47 470.089C651.569 460.581 692.085 414.347 717.766 385.538C721.336 380.929 724.697 376.051 727.832 370.929C797.488 280.297 769.875 201.214 822.764 167.304C864.308 140.657 921.03 154.409 955.936 156.572C987.944 158.571 1012.19 164.08 1034.23 166.896C1059.35 170.119 1082.75 167.385 1112.14 160.408C1123.27 157.755 1132.46 153.47 1140.56 155.021C1189.9 164.57 1201.06 179.219 1252.14 222.026C1272.4 239.042 1290 260.302 1310.33 280.705C1350.19 320.778 1398.87 414.959 1498.6 483.637C1504.02 487.391 1509.82 491.145 1516.02 494.981C1563.58 524.035 1638.85 556.966 1743.81 553.09" stroke="#0B76EB" stroke-width="1.5" stroke-miterlimit="10"/>
<path d="M-33.087 531.789C11.9479 516.486 51.4664 502.816 83.2557 493.553C159.706 471.232 185.605 472.619 225.342 444.055C262.429 417.245 273.431 390.353 309.957 374.234C342.121 359.993 368.737 357.912 378.273 359.993C420.908 369.011 430.975 389.986 472.519 414.551C520.515 443.116 568.106 434.628 586.836 444.667C640.878 436.505 677.997 389.333 707.823 369.46C711.781 363.91 715.209 359.422 717.952 356.239C788.792 275.115 765.137 201.174 816.53 170.324C858.76 144.901 915.732 159.224 951.697 161.142C983.923 162.856 1008.73 167.631 1031.14 169.304C1056.7 171.14 1080.54 165.713 1109.21 156.858C1120.49 153.389 1129.66 148.411 1137.73 150.002C1187.03 159.551 1197.13 178.567 1247.09 225.331C1266.63 243.572 1283.8 266.138 1304.28 287.48C1342.3 327.103 1392.57 424.182 1493.95 494.777C1499.42 498.559 1505.29 502.422 1511.56 506.366C1559.53 535.829 1635.88 569.861 1742.16 566.475" stroke="#0B76EB" stroke-width="1.5" stroke-miterlimit="10"/>
<path d="M-31.4965 515.874C12.51 500.572 51.3428 486.453 83.1634 476.7C156.84 454.012 183.549 454.012 222.943 425.284C259.189 398.964 270.752 372.725 306.032 356.647C337.198 342.446 362.941 339.263 372.789 341.018C414.645 348.486 425.366 366.808 466.287 389.986C513.036 416.51 558.383 409.451 578.329 420.673C630.376 414.307 667.121 371.419 697.976 354.892C701.209 350.669 704.633 346.704 708.229 343.018C780.16 271.32 760.557 202.928 810.423 174.813C853.369 150.614 910.528 165.509 947.553 167.141C980.028 168.61 1005.4 172.65 1028.15 173.017C1054.14 173.466 1078.45 165.264 1106.5 154.613C1117.91 150.288 1127.07 144.657 1135.14 146.452C1184.35 156.042 1193.45 179.587 1242.29 230.146C1260.99 249.611 1277.85 273.442 1298.39 295.723C1334.57 334.815 1386.4 434.873 1489.44 507.428C1494.92 511.508 1500.87 515.262 1507.23 519.261C1555.57 549.581 1632.83 584.552 1740.64 582.144" stroke="#0B76EB" stroke-width="1.5" stroke-miterlimit="10"/>
<path d="M-29.7515 499.96C13.1018 484.657 51.2802 470.089 83.0696 459.765C153.972 436.832 181.18 435.485 220.543 406.717C255.948 380.845 268.071 355.259 302.136 339.263C332.367 325.063 357.175 323.879 367.304 322.206C408.287 315.351 419.756 343.834 459.805 365.584C505.151 390.068 548.41 384.395 569.571 396.841C619.655 392.067 655.964 353.627 688.002 340.447C691.267 336.638 694.724 333.121 698.349 329.919C771.34 267.688 755.851 204.805 804.314 179.465C847.946 156.531 905.323 171.915 943.439 173.344C976.163 174.527 1002.06 177.791 1025.19 176.975C1051.62 176.037 1076.33 164.978 1103.79 152.491C1115.35 147.309 1124.45 141.066 1132.52 142.616C1181.7 152.247 1189.81 180.199 1237.46 234.676C1255.57 255.365 1271.9 280.502 1292.65 303.721C1326.94 342.242 1380.42 445.32 1485.1 519.996C1490.65 523.913 1496.65 527.994 1503.09 532.238C1551.8 563.169 1630.09 599.405 1739.29 597.528" stroke="#0B76EB" stroke-width="1.5" stroke-miterlimit="10"/>
<path d="M-28.0684 484.005C13.6629 468.539 51.1245 453.726 82.9762 442.872C151.105 419.693 178.968 416.919 218.143 388.109C252.706 362.727 265.391 337.958 298.209 321.635C327.474 307.434 351.44 305.312 361.787 303.15C401.742 294.988 414.115 320.615 453.447 340.977C497.453 363.788 538.592 359.136 560.938 372.807C609.027 369.583 645.087 335.673 677.936 325.797C681.232 322.393 684.723 319.324 688.376 316.616C762.364 263.812 751.176 206.438 797.831 183.872C842.305 162.285 899.775 178.159 938.92 179.302C971.893 180.24 998.353 182.729 1021.85 180.689C1048.72 178.363 1073.84 164.366 1100.7 150.37C1112.39 144.249 1121.49 137.393 1129.53 138.985C1178.65 148.615 1185.82 180.934 1232.38 239.369C1249.77 261.282 1265.66 287.684 1286.55 311.882C1319.21 349.792 1374.06 455.93 1480.4 532.238C1485.99 536.292 1492.04 540.372 1498.57 544.48C1547.69 575.983 1626.94 613.321 1737.58 612.097" stroke="#0B76EB" stroke-width="1.5" stroke-miterlimit="10"/>
<path d="M-26.3848 468.09C14.1311 452.828 51.0005 437.403 82.8833 425.978C148.332 402.636 176.755 398.311 215.744 369.542C249.497 344.609 262.711 320.288 294.314 304.251C322.581 290.051 345.706 286.99 356.303 284.338C395.198 274.667 408.506 297.682 447.09 316.616C489.756 337.55 528.745 334.122 552.306 349.016C598.432 347.384 633.961 317.922 667.994 311.393C671.331 308.409 674.855 305.801 678.529 303.598C753.327 260.058 746.595 208.641 791.599 188.565C836.603 168.488 894.447 184.484 934.682 185.504C967.874 186.198 994.895 187.952 1018.83 184.688C1046.1 180.975 1071.63 164.285 1097.93 148.37C1109.74 141.31 1118.84 133.925 1126.85 135.475C1175.91 145.146 1182.17 181.75 1227.39 244.225C1244.13 267.321 1259.59 294.988 1280.59 320.207C1311.51 357.382 1367.86 466.662 1475.82 545.092C1481.43 549.173 1487.57 553.253 1494.17 557.701C1543.6 589.979 1623.89 628.419 1735.93 627.685" stroke="#0B76EB" stroke-width="1.5" stroke-miterlimit="10"/>
<path d="M-24.7021 452.216C14.7852 436.954 50.9066 421.121 82.8206 409.165C145.402 385.661 174.542 379.825 213.344 351.016C246.255 326.532 260.093 302.905 290.386 287.072C317.719 272.871 340.003 268.872 350.817 265.73C388.684 254.753 402.865 274.911 440.762 292.458C482.057 311.556 518.896 309.271 543.61 325.389C587.741 325.389 622.866 300.375 657.958 297.192C661.361 294.628 664.927 292.457 668.617 290.703C744.538 256.344 742.044 210.967 785.365 193.339C831.46 174.609 889.117 191.217 930.443 191.788C963.853 192.278 991.435 193.257 1015.68 188.769C1043.39 183.668 1069.26 163.836 1095.03 146.493C1106.97 138.332 1116.04 130.537 1124.05 132.129C1173.07 141.759 1178.43 182.688 1222.41 249.203C1238.46 273.483 1253.57 302.252 1274.58 328.654C1303.81 365.094 1361.59 477.516 1471.2 557.905C1476.88 562.068 1483.06 566.366 1489.75 570.8C1539.61 603.446 1620.9 643.028 1734.37 643.15" stroke="#0B76EB" stroke-width="1.5" stroke-miterlimit="10"/>
<path d="M-23.0184 436.22C15.3469 420.959 50.7827 404.758 82.7279 392.19C142.567 368.604 172.361 361.177 210.945 332.286C243.015 308.332 257.351 285.317 286.491 269.566C305.568 259.772 325.255 252.153 345.333 246.796C382.171 234.554 397.224 251.856 434.405 267.975C474.329 285.236 509.204 284.297 535.04 301.477C577.177 302.987 611.927 282.502 648.08 282.624C651.536 280.493 655.135 278.786 658.832 277.523C735.438 252.386 737.557 213.171 779.133 197.95C826.1 180.771 883.819 196.645 926.174 197.95C959.833 198.971 987.945 198.358 1012.6 192.686C1040.65 186.198 1066.95 163.346 1092.2 144.453C1104.23 135.475 1113.33 126.988 1121.3 128.579C1170.27 138.25 1174.79 183.423 1217.48 254.019C1232.85 279.441 1247.5 309.556 1268.66 336.938C1296.18 372.603 1355.39 488.208 1466.66 570.556C1472.36 574.636 1478.59 579.166 1485.35 583.695C1535.63 617.034 1617.9 657.678 1732.78 658.453" stroke="#0B76EB" stroke-width="1.5" stroke-miterlimit="10"/>
<path d="M-21.3358 420.264C16.0634 405.003 50.6889 388.476 82.6341 375.377C139.73 351.791 170.148 342.732 208.576 313.8C239.742 290.336 254.67 267.933 282.564 252.264C301.155 242.206 320.305 234.021 339.847 227.78C375.719 214.354 391.583 228.759 428.047 243.368C466.6 258.874 499.23 258.915 526.407 277.441C566.58 280.583 600.925 264.546 638.106 268.015C641.626 266.332 645.257 265.076 648.952 264.261C726.431 248.142 733.1 215.293 772.899 202.398C820.77 186.891 878.49 202.969 921.935 203.949C955.844 204.683 984.485 203.336 1009.51 196.44C1038.06 188.564 1064.58 162.693 1089.39 142.249C1101.45 132.292 1110.61 123.274 1118.56 124.865C1167.49 134.577 1171.17 183.994 1212.53 258.67C1227.27 285.276 1241.51 316.575 1262.7 345.017C1288.63 379.866 1349.22 498.695 1462.17 583.042C1467.9 587.327 1474.23 591.816 1481.08 596.468C1531.76 630.378 1615.1 672.123 1731.32 673.592" stroke="#AAD3FF" stroke-width="1.5" stroke-miterlimit="10"/>
<path d="M-19.6844 404.309C16.4681 389.088 50.5949 372.195 82.5401 358.361C136.8 334.734 167.966 324.043 206.176 295.07C236.563 272.055 251.99 250.183 278.668 234.717C296.772 224.584 315.367 216.024 334.33 209.09C369.267 194.522 385.941 205.948 421.595 219.129C458.808 232.799 489.288 233.982 517.68 253.774C555.859 258.466 589.798 246.918 628.07 253.774C631.651 252.525 635.314 251.719 639.009 251.366C717.361 244.184 728.487 217.986 766.572 207.254C815.347 193.461 873.066 209.703 917.602 210.274C951.729 210.763 980.932 208.682 1006.33 200.562C1035.32 191.299 1062.12 162.408 1086.46 140.413C1098.58 129.436 1107.78 120.01 1115.72 121.519C1164.59 131.231 1167.52 184.933 1207.51 263.69C1221.6 291.438 1235.56 323.879 1256.66 353.464C1281.09 387.456 1342.93 509.346 1457.55 595.856C1463.32 600.222 1469.71 604.792 1476.66 609.526C1527.71 644.007 1611.98 686.895 1729.7 688.895" stroke="#0B76EB" stroke-width="1.5" stroke-miterlimit="10"/>
<path d="M-18.0013 388.354C17.0293 373.092 50.5639 355.953 82.4468 341.385C134.12 317.84 165.754 305.394 203.776 276.421C233.353 253.896 249.31 232.717 274.741 217.251C292.367 206.889 310.431 197.855 328.845 190.197C362.848 174.486 380.269 182.974 415.331 194.685C451.172 206.601 479.533 208.886 509.141 229.861C545.356 236.145 578.89 229.085 618.222 239.205C621.88 238.566 625.565 238.225 629.255 238.185C708.416 233.574 724.124 220.434 760.433 211.783C810.111 199.949 867.862 216.925 913.427 216.354C947.709 215.905 977.566 213.742 1003.34 204.397C1032.76 193.747 1059.78 161.795 1083.72 138.291C1095.9 126.294 1105.16 116.337 1113.08 117.887C1161.91 127.599 1164.09 185.504 1202.65 268.341C1216.11 297.273 1229.67 330.857 1250.83 361.666C1273.58 394.801 1336.88 520.118 1453 608.424C1458.84 612.885 1465.27 617.524 1472.3 622.339C1523.72 657.514 1609.02 701.463 1728.14 704.238" stroke="#0B76EB" stroke-width="1.5" stroke-miterlimit="10"/>
<path d="M-16.3181 372.439C17.5905 357.218 50.4707 339.794 82.3535 324.532C131.347 301.109 163.541 286.908 201.377 257.854C230.112 235.818 246.598 215.252 270.846 199.868C293.285 185.585 311.361 177.424 323.36 171.303C356.459 154.531 374.629 160.04 408.973 170.201C440.041 179.541 470.616 191.495 500.508 205.989C533.295 221.087 567.515 236.104 608.249 224.719C611.947 224.045 615.704 224.155 619.375 225.045C699.597 235.41 719.636 223.005 754.2 216.353C804.813 206.641 862.533 223.372 909.188 222.474C943.814 221.822 974.107 218.843 1000.26 208.315C1030.08 196.073 1057.35 161.224 1080.88 136.209C1093.1 123.192 1102.45 112.745 1110.36 114.337C1159.11 124.09 1160.6 186.238 1197.63 273.156C1210.47 303.272 1223.72 337.916 1244.78 369.909C1265.85 401.901 1330.71 530.524 1448.36 621.114C1454.22 625.562 1460.83 630.337 1467.84 635.274C1519.67 671.021 1605.94 716.071 1726.52 719.54" stroke="#0B76EB" stroke-width="1.5" stroke-miterlimit="10"/>
<path d="M-14.6355 356.484C18.1512 341.263 50.408 323.838 82.2908 307.516C128.572 284.215 161.359 268.219 198.976 239.124C227.026 217.578 243.918 197.623 266.918 182.321C288.392 167.998 305.845 159.061 317.875 152.41C350.1 134.577 368.956 137.148 402.615 145.758C435.682 154.205 457.623 164.978 491.875 182.076C522.729 197.501 555.578 200.48 598.307 210.233C602.234 211.13 606.005 211.049 609.526 211.865C690.745 230.962 715.148 225.658 747.966 220.924C799.483 213.538 857.234 229.779 904.918 228.596C939.793 227.698 970.647 223.944 997.169 212.273C1027.43 198.807 1054.89 160.775 1078.05 134.21C1090.29 120.172 1099.86 109.236 1107.62 110.828C1156.3 120.581 1157.14 187.014 1192.77 278.135C1205.02 309.434 1217.98 345.058 1238.92 378.356C1258.65 409.695 1324.63 541.378 1443.9 633.928C1449.82 638.457 1456.37 643.313 1463.57 648.373C1515.77 684.691 1603.07 730.844 1725.02 735.006" stroke="#0B76EB" stroke-width="1.5" stroke-miterlimit="10"/>
<path d="M-12.7975 340.569C18.8672 325.348 50.5319 307.597 82.3524 290.744C125.985 267.607 159.301 249.937 196.732 220.638C223.815 199.582 241.393 180.24 263.178 164.978C283.654 150.696 300.359 141.024 312.545 133.679C343.929 114.786 363.47 114.418 396.444 121.437C428.108 128.211 448.148 139.188 483.397 158.163C512.412 173.915 544.669 181.301 588.489 195.705C592.384 196.97 596.249 197.501 599.833 198.684C682.111 226.473 710.909 220.842 741.888 225.494C794.661 233.083 847.757 236.136 900.834 234.635C935.959 233.533 967.343 229.003 994.333 216.027C1025.03 201.173 1052.64 160.081 1075.36 132.006C1087.61 116.948 1097.18 105.563 1105.03 107.114C1153.68 116.908 1153.84 187.585 1188 282.583C1199.65 315.024 1212.4 351.627 1233.16 386.272C1251.39 416.673 1318.58 551.743 1439.51 646.21C1445.46 650.822 1451.97 655.759 1459.36 660.901C1511.97 697.872 1600.23 745.126 1723.62 749.9" stroke="#AAD3FF" stroke-width="1.5" stroke-miterlimit="10"/>
<path d="M-11.2698 329.102C19.2729 313.882 50.3455 296.008 82.2283 278.298C123.243 255.406 157.027 235.696 194.426 206.519C220.699 186.116 238.806 167.182 259.376 152.042C278.855 137.719 294.843 127.314 307.122 119.397C337.759 99.4835 357.892 96.1782 390.18 101.605C420.473 106.706 438.705 117.683 474.858 139.066C502.097 155.185 533.886 166.814 578.641 185.994C582.537 187.667 586.401 188.768 590.079 190.36C673.479 226.759 706.546 230.187 735.749 234.839C789.132 243.44 842.916 247.027 896.69 245.571C932.032 244.225 963.978 238.92 991.217 224.719C1022.38 208.396 1050.12 164.366 1072.62 134.944C1084.84 118.867 1094.44 106.951 1102.39 108.543C1150.97 118.377 1150.54 193.298 1183.14 292.417C1194.2 326.083 1206.82 363.584 1227.3 399.575C1244.1 429.079 1312.48 567.495 1435.05 663.921C1441.04 668.614 1447.74 673.633 1455.09 678.856C1508.07 716.439 1597.36 764.795 1722.15 770.263" stroke="#0B76EB" stroke-width="1.5" stroke-miterlimit="10"/>
<path d="M-9.68018 322.941C19.7405 307.72 50.2833 289.847 81.9168 271.198C120.313 248.55 154.721 227.045 191.684 197.746C217.146 177.71 235.752 159.469 255.106 144.452C273.619 130.089 288.89 119.03 301.294 110.297C331.183 89.3636 351.908 83.161 383.479 86.956C412.401 90.4245 428.95 101.116 465.882 124.988C491.376 141.31 522.791 157.307 568.325 181.301C572.252 183.341 576.148 185.014 579.856 187.014C664.503 232.105 701.591 244.714 729.173 249.244C782.872 258.017 841.183 263.649 892.078 261.486C927.669 259.976 960.144 253.855 987.788 238.43C1019.36 220.802 1047.22 173.67 1069.44 142.494C1081.66 125.355 1091.48 113.031 1099.3 114.623C1147.86 124.416 1146.8 203.663 1177.87 306.822C1188.34 341.671 1200.9 380.029 1221 417.449C1236.4 446.013 1305.93 587.776 1430.16 686.16C1436.21 690.894 1442.94 696.036 1450.39 701.381C1503.77 739.536 1594.03 788.993 1720.25 795.237" stroke="#0B76EB" stroke-width="1.5" stroke-miterlimit="10"/>
<path d="M-7.93518 317.065C20.3947 301.884 50.4388 284.011 81.9165 264.342C118.716 241.765 154.586 216.676 189.377 189.177C214.029 169.589 233.009 151.92 251.304 137.067C268.788 122.58 283.374 110.91 295.902 101.483C325.074 79.4884 346.36 70.4293 377.215 72.5513C404.796 74.4284 419.756 84.5892 457.342 111.154C481.216 128.007 512.288 148.084 558.476 176.853C562.403 179.301 566.33 181.546 570.101 183.913C655.963 237.696 696.791 261.649 723.033 263.894C777.854 268.464 835.947 280.216 887.932 277.645C923.773 275.972 956.778 268.954 984.796 252.345C1016.8 233.329 1044.76 182.974 1066.7 150.329C1078.86 132.17 1088.83 119.356 1096.65 120.907C1145.15 130.782 1143.4 214.313 1173.01 321.512C1183.46 361.669 1197.61 400.01 1215.14 435.689C1229.17 463.397 1299.82 608.465 1425.67 708.808C1431.75 713.623 1438.54 718.847 1446.08 724.274C1499.85 763.04 1591.13 813.6 1718.76 820.414" stroke="#0B76EB" stroke-width="1.5" stroke-miterlimit="10"/>
<path d="M-6.25232 311.433C60.513 274.161 125.097 230.516 186.977 180.852C286.521 100.912 313.729 57.7383 370.857 58.432C412.463 58.9625 422.281 82.1407 548.503 172.691C643.435 240.797 690.901 274.707 716.8 278.788C809.861 293.029 911.587 310.658 981.711 266.546C1032.26 234.757 1072.09 123.396 1093.91 127.803C1158.58 140.943 1133.05 293.07 1209.22 454.256C1221.91 481.107 1293.65 629.439 1421.15 731.741C1470.64 771.446 1570 837.471 1717.23 846" stroke="#C6CBFF" stroke-width="1.5" stroke-miterlimit="10"/>
</g>
</svg>
