<svg width="72" height="71" viewBox="0 0 72 71" fill="none" xmlns="http://www.w3.org/2000/svg">
<path fill-rule="evenodd" clip-rule="evenodd" d="M29.2025 0C45.3045 0 58.405 13.1005 58.405 29.2025C58.405 35.9397 56.0892 42.1337 52.242 47.0802L72 68L68.5 71L49 51C44.0535 54.8473 35.9397 58.405 29.2025 58.405C13.1005 58.405 0 45.3045 0 29.2025C0 13.1005 13.1005 0 29.2025 0ZM29.2025 22L22 41.066H9.5C13.4042 47.1019 20.2914 52.5 28 52.5C35.7086 52.5 45.0958 47.1019 49 41.066H37L29.2025 22ZM29.2025 5.5C17.1251 5.5 6.5 14.4226 6.5 26.5C6.5 28.7213 6 29.2025 7.5 35.5908L19.1495 35.5905L29.2025 11.021L39.2518 35.5905L50 35.5908C53.3456 35.5908 53.5 31.4238 53.5 29.2025C53.5 17.1251 41.2799 5.5 29.2025 5.5Z" fill="#8F6EED"/>
</svg>
