<svg width="81" height="71" viewBox="0 0 81 71" fill="none" xmlns="http://www.w3.org/2000/svg">
<path d="M53.4276 54L62.7804 70.2H56.5488L47.196 54H33.8364L24.4836 70.2H18.252L27.6048 54H10.8C10.0839 54 9.39716 53.7155 8.89081 53.2092C8.38446 52.7028 8.1 52.0161 8.1 51.3V5.4H2.7C1.98392 5.4 1.29716 5.11554 0.790812 4.60919C0.284463 4.10284 0 3.41608 0 2.7C0 1.98392 0.284463 1.29716 0.790812 0.790812C1.29716 0.284464 1.98392 0 2.7 0H78.3C79.0161 0 79.7028 0.284464 80.2092 0.790812C80.7155 1.29716 81 1.98392 81 2.7C81 3.41608 80.7155 4.10284 80.2092 4.60919C79.7028 5.11554 79.0161 5.4 78.3 5.4H72.9V51.3C72.9 52.0161 72.6155 52.7028 72.1092 53.2092C71.6028 53.7155 70.9161 54 70.2 54H53.4276ZM67.5 5.4H13.5V48.6H67.5V5.4ZM27 27C27.7161 27 28.4028 27.2845 28.9092 27.7908C29.4155 28.2972 29.7 28.9839 29.7 29.7V35.1C29.7 35.8161 29.4155 36.5028 28.9092 37.0092C28.4028 37.5155 27.7161 37.8 27 37.8C26.2839 37.8 25.5972 37.5155 25.0908 37.0092C24.5845 36.5028 24.3 35.8161 24.3 35.1V29.7C24.3 28.9839 24.5845 28.2972 25.0908 27.7908C25.5972 27.2845 26.2839 27 27 27ZM40.5 21.6C41.2161 21.6 41.9028 21.8845 42.4092 22.3908C42.9155 22.8972 43.2 23.5839 43.2 24.3V35.1C43.2 35.8161 42.9155 36.5028 42.4092 37.0092C41.9028 37.5155 41.2161 37.8 40.5 37.8C39.7839 37.8 39.0972 37.5155 38.5908 37.0092C38.0845 36.5028 37.8 35.8161 37.8 35.1V24.3C37.8 23.5839 38.0845 22.8972 38.5908 22.3908C39.0972 21.8845 39.7839 21.6 40.5 21.6ZM54 16.2C54.7161 16.2 55.4028 16.4845 55.9092 16.9908C56.4155 17.4972 56.7 18.1839 56.7 18.9V35.1C56.7 35.8161 56.4155 36.5028 55.9092 37.0092C55.4028 37.5155 54.7161 37.8 54 37.8C53.2839 37.8 52.5972 37.5155 52.0908 37.0092C51.5845 36.5028 51.3 35.8161 51.3 35.1V18.9C51.3 18.1839 51.5845 17.4972 52.0908 16.9908C52.5972 16.4845 53.2839 16.2 54 16.2Z" fill="#0B78EB"/>
</svg>
