<svg width="54" height="53" viewBox="0 0 54 53" fill="none" xmlns="http://www.w3.org/2000/svg">
<path d="M29.7591 44.517C28.7426 45.4406 27.613 46.4277 26.8868 46.6497C26.0291 46.3925 24.6297 45.0931 22.5827 43.1925C22.2351 42.8698 21.866 42.5271 21.4731 42.1648C13.8669 35.1499 5.70636 24.8852 5.61352 17.1134C5.58172 14.4546 6.4714 12.2866 8.33322 10.4852C10.7546 8.14274 13.9139 6.85265 17.2293 6.85265C20.4864 6.85265 23.5838 8.08377 25.9514 10.3192C26.4774 10.8159 27.2996 10.8159 27.8258 10.3192C30.1938 8.08377 33.2916 6.85265 36.5487 6.85265C39.864 6.85265 43.0234 8.14274 45.4448 10.4851C49.2778 14.1936 49.0648 19.7975 44.812 27.1411C44.4342 27.7935 44.6568 28.6288 45.3094 29.0066C45.9617 29.3846 46.797 29.162 47.1749 28.5094C53.3559 17.8359 50.6782 11.7492 47.3433 8.5228C44.4096 5.68516 40.5761 4.12231 36.5484 4.12231C33.0082 4.12231 29.6226 5.31971 26.8885 7.51695C24.1547 5.31957 20.7694 4.12231 17.2292 4.12231C13.2017 4.12231 9.36815 5.68516 6.43467 8.52294C4.03757 10.8422 2.84278 13.7434 2.88332 17.1459C3.01329 28.0185 15.7281 40.5805 19.6219 44.1719C20.0125 44.5322 20.3793 44.8726 20.7249 45.1933C23.5785 47.843 25.0109 49.1728 26.7106 49.3963C26.7696 49.404 26.8291 49.4079 26.8885 49.4079C26.9478 49.4079 27.0072 49.404 27.0662 49.3963C28.4326 49.2169 29.6633 48.2928 31.595 46.5379C32.153 46.0308 32.1945 45.1675 31.6874 44.6094C31.1805 44.0515 30.3172 44.0101 29.7591 44.517Z" fill="url(#paint0_linear_2530_1026)"/>
<path d="M46.2315 31.2355H41.847V26.8514C41.847 26.0975 41.2358 25.4862 40.4818 25.4862H34.9918C34.2378 25.4862 33.6266 26.0975 33.6266 26.8514V31.2355H29.2421C28.4881 31.2355 27.877 31.8468 27.877 32.6007V38.0912C27.877 38.8451 28.4881 39.4564 29.2421 39.4564H33.6266V43.8405C33.6266 44.5943 34.2378 45.2057 34.9918 45.2057H40.4818C41.2358 45.2057 41.847 44.5943 41.847 43.8405V39.4564H46.2315C46.9855 39.4564 47.5967 38.8451 47.5967 38.0912V32.6007C47.5967 31.8467 46.9855 31.2355 46.2315 31.2355ZM44.8663 36.7261H40.4818C39.7279 36.7261 39.1167 37.3374 39.1167 38.0912V42.4753H36.357V38.0912C36.357 37.3374 35.7458 36.7261 34.9918 36.7261H30.6073V33.9658H34.9918C35.7458 33.9658 36.357 33.3545 36.357 32.6007V28.2165H39.1167V32.6007C39.1167 33.3545 39.7279 33.9658 40.4818 33.9658H44.8663V36.7261Z" fill="url(#paint1_linear_2530_1026)"/>
<defs>
<linearGradient id="paint0_linear_2530_1026" x1="-24.7952" y1="-12.3138" x2="41.2952" y2="40.8138" gradientUnits="userSpaceOnUse">
<stop stop-color="#00FFA9"/>
<stop offset="1" stop-color="#0D4DFF"/>
</linearGradient>
<linearGradient id="paint1_linear_2530_1026" x1="16.5075" y1="18.3291" x2="44.8823" y2="39.8468" gradientUnits="userSpaceOnUse">
<stop stop-color="#00FFA9"/>
<stop offset="1" stop-color="#0D4DFF"/>
</linearGradient>
</defs>
</svg>
