<svg width="70" height="70" viewBox="0 0 70 70" fill="none" xmlns="http://www.w3.org/2000/svg">
<path fill-rule="evenodd" clip-rule="evenodd" d="M28.8236 63.8235V65.8824H30.8824V70H24.7059V63.8235H28.8236ZM44.0556 65.8824V70H37.469V65.8824H44.0556ZM57.2329 65.8824V70H50.6462V65.8824H57.2329ZM70 63.8235V70H63.8235V65.8824H65.8824V63.8235H70ZM57.6471 12.353V20.5882H53.5294V16.4706H16.4706V53.5294H20.5882V57.6471H12.353V12.353H57.6471ZM70 50.6503V57.2369H65.8824V50.6503H70ZM28.8235 50.6462V57.2329H24.7059V50.6462H28.8235ZM45.2941 0V8.23528H41.1765V4.11768H4.11764V41.1765H8.23528V45.2941H0V0H45.2941ZM70 37.473V44.0596H65.8824V37.473H70ZM28.8235 37.469V44.0556H24.7059V37.469H28.8235ZM70 24.7059V30.8824H65.8824V28.8236H63.8235V24.7059H70ZM30.8823 24.7059V28.8236H28.8235V30.8824H24.7059V24.7059H30.8823ZM44.0596 24.7059V28.8235H37.473V24.7059H44.0596ZM57.2369 24.7059V28.8235H50.6503V24.7059H57.2369Z" fill="#FF6767"/>
</svg>
