<svg width="74" height="74" viewBox="0 0 74 74" fill="none" xmlns="http://www.w3.org/2000/svg">
<rect x="0.5" y="0.5" width="73" height="73" rx="3.5" fill="#F6FAFF" stroke="#E7F2FF"/>
<path d="M52.4952 26.0162C52.237 25.653 51.9661 25.2995 51.6838 24.9558C48.1963 20.7117 42.909 18 37 18C31.091 18 25.8037 20.7117 22.3161 24.9558C22.0336 25.2995 21.7629 25.653 21.5046 26.0162C19.2986 29.1195 18 32.911 18 36.9999C18 41.1124 19.3138 44.9238 21.5431 48.0368C21.8026 48.3991 22.0741 48.7523 22.3578 49.0948C25.8456 53.31 31.1144 56 37 56C42.8855 56 48.1544 53.31 51.6421 49.0948C51.9257 48.7523 52.1973 48.3991 52.4568 48.0368C54.686 44.9238 55.9998 41.1124 55.9998 36.9999C55.9999 32.911 54.7014 29.1195 52.4952 26.0162ZM50.5948 25.7329C50.2923 25.9274 49.975 26.117 49.6413 26.3005C48.6506 26.8455 47.5618 27.3176 46.3973 27.7136C45.9429 26.2697 45.3793 24.9254 44.7138 23.7153C43.8749 22.1897 42.9135 20.9489 41.8662 20.0174C45.3256 21.0102 48.3536 23.0335 50.5948 25.7329ZM46.7863 31.5311C46.978 31.5311 47.1595 31.5741 47.3233 31.6494C47.7685 31.8538 48.079 32.3028 48.079 32.824C48.079 33.2277 47.8928 33.5885 47.602 33.8258C47.3793 34.0073 47.0954 34.1167 46.7863 34.1167C46.6062 34.1167 46.4348 34.0796 46.2789 34.0128C45.8176 33.8151 45.4933 33.3568 45.4933 32.8239C45.4933 32.4083 45.6913 32.0388 45.9969 31.8022C46.2156 31.6329 46.4889 31.5311 46.7863 31.5311ZM37.6675 19.3801C39.86 19.6747 41.9257 21.4161 43.5439 24.3586C44.167 25.4915 44.6953 26.7521 45.1227 28.108C42.8342 28.7488 40.3024 29.1111 37.6675 29.1635V19.3801ZM37.6675 30.4987C40.4248 30.4457 43.0812 30.0653 45.4898 29.3906C45.5767 29.7279 45.6575 30.0704 45.7325 30.4174C44.8067 30.8242 44.1584 31.7496 44.1584 32.824C44.1584 34.1335 45.1212 35.222 46.3762 35.4195C46.3912 35.736 46.4018 36.0546 46.4078 36.3744H39.5519C39.3233 35.4411 38.5948 34.7021 37.6675 34.4583V30.4987ZM45.4695 44.6875C43.0663 44.0162 40.4169 43.6379 37.6675 43.5851V39.5416C38.5669 39.3053 39.279 38.603 39.5297 37.7094H46.4061C46.3541 40.1633 46.0336 42.5273 45.4695 44.6875ZM45.7429 49.5324C45.7429 50.2454 45.1629 50.8253 44.4502 50.8253C44.4347 50.8253 44.4198 50.8235 44.4045 50.823C43.9117 50.8056 43.489 50.5119 43.2862 50.0917C43.2043 49.9222 43.1572 49.733 43.1572 49.5324C43.1572 48.895 43.6212 48.3654 44.2287 48.2599C44.3008 48.2473 44.3745 48.2396 44.45 48.2396C44.8666 48.2396 45.2366 48.4383 45.4733 48.7451C45.6417 48.9637 45.7429 49.2361 45.7429 49.5324ZM36.3325 19.3801V29.1635C33.6975 29.1111 31.1657 28.7487 28.8771 28.1082C28.9784 27.7869 29.0854 27.4709 29.1978 27.1609C29.2519 27.1642 29.3061 27.1664 29.3608 27.1664C30.8098 27.1664 31.9887 25.9875 31.9887 24.5385C31.9887 23.9041 31.7627 23.3216 31.3872 22.867C32.8343 20.8283 34.541 19.6208 36.3325 19.3801ZM28.5102 29.3906C30.9186 30.0655 33.5753 30.4457 36.3325 30.4987V34.4583C35.4051 34.7021 34.6768 35.4411 34.448 36.3744H27.5921C27.6379 33.9199 27.9522 31.5543 28.5102 29.3906ZM28.068 24.5385C28.068 23.8256 28.6479 23.2456 29.3609 23.2456C29.4239 23.2456 29.4852 23.2517 29.5459 23.2604C30.0331 23.3307 30.4326 23.6725 30.5858 24.128C30.6292 24.2572 30.6537 24.3949 30.6537 24.5385C30.6537 25.1125 30.2775 25.5999 29.7587 25.768C29.6332 25.8089 29.4997 25.8314 29.3609 25.8314C29.0016 25.8314 28.6765 25.684 28.442 25.4468C28.211 25.213 28.068 24.8923 28.068 24.5385ZM32.1338 20.0174C31.4883 20.5915 30.8754 21.2828 30.304 22.0864C30.011 21.9733 29.6931 21.9106 29.3608 21.9106C27.9119 21.9106 26.7329 23.0895 26.7329 24.5386C26.7329 25.4605 27.2107 26.2725 27.9309 26.7417C27.8161 27.0602 27.7063 27.3843 27.6027 27.7136C26.4382 27.3176 25.3494 26.8455 24.3585 26.3006C24.025 26.117 23.7075 25.9274 23.4051 25.7329C25.6461 23.0335 28.6743 21.0102 32.1338 20.0174ZM22.589 26.7944C22.9455 27.0274 23.3203 27.2531 23.7152 27.4703C24.7903 28.0616 25.9717 28.572 27.2341 28.9972C26.6381 31.2873 26.3036 33.7868 26.2569 36.3744H19.3466C19.4711 32.8148 20.6535 29.5194 22.589 26.7944ZM27.7381 40.1699C28.0868 40.4016 28.3175 40.7977 28.3175 41.2472C28.3175 41.5769 28.1924 41.8773 27.9883 42.1059C27.7514 42.3716 27.4078 42.5399 27.0249 42.5399H27.0248C26.9126 42.5399 26.8044 42.524 26.7004 42.497C26.1442 42.3525 25.7319 41.8477 25.7319 41.2472C25.7319 40.7636 25.999 40.3417 26.3931 40.1201C26.58 40.015 26.7952 39.9541 27.0248 39.9541C27.2883 39.9541 27.5334 40.034 27.7381 40.1699ZM19.3491 37.7094H26.2587C26.2655 38.0489 26.2774 38.387 26.2941 38.7233C25.1995 39.0406 24.3969 40.0514 24.3969 41.2472C24.3969 42.676 25.5438 43.8416 26.9654 43.8733C27.0539 44.2812 27.1502 44.6836 27.2545 45.0797C25.9843 45.5063 24.7962 46.0191 23.7154 46.6135C23.3355 46.8223 22.9743 47.0392 22.6301 47.2627C20.6856 44.5478 19.4902 41.262 19.3491 37.7094ZM23.4509 48.3211C23.7396 48.137 24.0418 47.9575 24.3586 47.7833C25.3563 47.2345 26.4534 46.7597 27.6269 46.362C28.0771 47.777 28.6322 49.0959 29.2861 50.2846C30.1253 51.8103 31.0866 53.0513 32.134 53.983C28.6979 52.9968 25.6874 50.9933 23.4509 48.3211ZM36.3325 54.6199C34.1398 54.3252 32.0741 52.5839 30.4559 49.6415C29.8446 48.5301 29.3248 47.2955 28.9018 45.9689C31.1839 45.3321 33.707 44.9725 36.3325 44.9201V54.6199ZM36.3325 43.5851C33.583 43.6379 30.9335 44.0161 28.5303 44.6875C28.4341 44.3188 28.3451 43.944 28.2632 43.5641C29.0894 43.1206 29.6525 42.2483 29.6525 41.2472C29.6525 40.0059 28.7875 38.9637 27.6289 38.69C27.6122 38.365 27.6009 38.0379 27.5937 37.7094H34.4701C34.7211 38.603 35.4331 39.3053 36.3325 39.5416V43.5851ZM36.3325 38.1051C36.1677 38.0051 36.0264 37.8701 35.9204 37.7094C35.7859 37.5056 35.7071 37.2621 35.7071 36.9999C35.7071 36.7731 35.7663 36.5599 35.8695 36.3744C35.9792 36.1767 36.1396 36.0117 36.3325 35.8948C36.5276 35.7765 36.7557 35.7071 37 35.7071C37.2444 35.7071 37.4723 35.7765 37.6675 35.8948C37.8604 36.0117 38.0209 36.1767 38.1306 36.3744C38.2338 36.5599 38.2929 36.7731 38.2929 36.9999C38.2929 37.2621 38.214 37.5056 38.0795 37.7094C37.9736 37.8701 37.8324 38.0051 37.6675 38.1051C37.4723 38.2234 37.2444 38.2929 37 38.2929C36.7557 38.2929 36.5276 38.2234 36.3325 38.1051ZM37.6675 54.6199V44.9201C40.2931 44.9725 42.8161 45.3321 45.0982 45.9689C44.9947 46.2929 44.8861 46.6122 44.7713 46.9251C44.6658 46.9119 44.5588 46.9045 44.4499 46.9045C43.001 46.9045 41.8222 48.0835 41.8222 49.5324C41.8222 50.2082 42.0787 50.8252 42.4995 51.2913C41.0768 53.2345 39.4123 54.3854 37.6675 54.6199ZM41.8659 53.983C42.4815 53.4353 43.0672 52.7803 43.616 52.0239C43.8782 52.1118 44.1586 52.1604 44.4502 52.1604C45.899 52.1604 47.0779 50.9814 47.078 49.5324C47.0779 48.6675 46.6577 47.8991 46.0107 47.4198C46.1383 47.074 46.2588 46.7208 46.3729 46.362C47.5465 46.7597 48.6436 47.2345 49.6413 47.7833C49.958 47.9575 50.2604 48.137 50.5491 48.3213C48.3125 50.9935 45.3021 52.9968 41.8659 53.983ZM51.3698 47.2627C51.0256 47.0392 50.6644 46.8223 50.2846 46.6135C49.2039 46.0191 48.0157 45.5063 46.7454 45.0797C47.3475 42.7934 47.6884 40.2961 47.7412 37.7094H54.6508C54.6601 37.4742 54.6648 37.2376 54.6648 36.9999C54.6648 37.0001 54.6648 37.0001 54.6648 37.0001C54.6648 37.2376 54.6601 37.474 54.6508 37.7094C54.5097 41.262 53.3143 44.5478 51.3698 47.2627ZM54.6533 36.3744H47.743C47.7364 36.0095 47.7241 35.6462 47.7061 35.2852C48.7027 34.9113 49.4141 33.9494 49.4141 32.824C49.4141 31.4649 48.377 30.3435 47.0528 30.2094C46.965 29.7995 46.8694 29.3952 46.7658 28.9971C48.0283 28.572 49.2096 28.0616 50.2846 27.4703C50.6796 27.2531 51.0544 27.0272 51.4109 26.7944C53.3463 29.5194 54.5288 32.8146 54.6533 36.3744Z" fill="#121212"/>
</svg>
