<svg width="44" height="44" viewBox="0 0 44 44" fill="none" xmlns="http://www.w3.org/2000/svg">
<path d="M34.6499 16.7617L40.0812 15.9092" stroke="#07A7D5" stroke-width="2"/>
<path d="M32.9517 11.7633L36.3479 9.7627" stroke="#07A7D5" stroke-width="2"/>
<path d="M29.4868 8.06434L31.7693 3.10059" stroke="#07A7D5" stroke-width="2"/>
<path d="M22.9967 7.34953L22.9692 3.41016" stroke="#07A7D5" stroke-width="2"/>
<path d="M16.6994 8.31183L14.8638 3.10059" stroke="#07A7D5" stroke-width="2"/>
<path d="M12.3683 11.708L8.91016 9.82422" stroke="#07A7D5" stroke-width="2"/>
<path d="M10.8486 16.4797L5.52051 15.5791" stroke="#07A7D5" stroke-width="2"/>
<path d="M18.0263 31.2608C18.0263 27.7133 15.8332 24.7364 14.6507 22.5364C13.9938 21.3148 13.6489 19.9498 13.647 18.5627C13.647 13.8946 17.9163 10.1064 22.5845 10.1064" stroke="#07A7D5" stroke-width="2"/>
<path d="M27.1426 31.2608C27.1426 27.7133 29.3357 24.7364 30.5182 22.5364C31.1752 21.3148 31.52 19.9498 31.522 18.5627C31.522 13.8946 27.2526 10.1064 22.5845 10.1064" stroke="#07A7D5" stroke-width="2"/>
<path d="M27.8025 31.0684H17.7031C16.8982 31.0684 16.2456 31.7209 16.2456 32.5259V32.5327C16.2456 33.3377 16.8982 33.9902 17.7031 33.9902H27.8025C28.6074 33.9902 29.26 33.3377 29.26 32.5327V32.5259C29.26 31.7209 28.6074 31.0684 27.8025 31.0684Z" stroke="#07A7D5" stroke-width="2"/>
<path d="M27.0048 33.9834H18.5005C17.6955 33.9834 17.043 34.6359 17.043 35.4409V35.4478C17.043 36.2527 17.6955 36.9053 18.5005 36.9053H27.0048C27.8098 36.9053 28.4623 36.2527 28.4623 35.4478V35.4409C28.4623 34.6359 27.8098 33.9834 27.0048 33.9834Z" stroke="#07A7D5" stroke-width="2"/>
<path d="M24.97 36.9053V37.4828C24.9941 37.7882 24.9547 38.0952 24.8544 38.3847C24.7541 38.6741 24.595 38.9396 24.3871 39.1646C24.1791 39.3896 23.9269 39.5691 23.6463 39.6918C23.3656 39.8146 23.0626 39.878 22.7563 39.878C22.4499 39.878 22.1469 39.8146 21.8663 39.6918C21.5856 39.5691 21.3334 39.3896 21.1255 39.1646C20.9176 38.9396 20.7584 38.6741 20.6581 38.3847C20.5578 38.0952 20.5184 37.7882 20.5425 37.4828V36.9053" stroke="#07A7D5" stroke-width="2"/>
<path d="M16.8921 18.0465C16.9264 17.3696 17.0938 16.7062 17.3847 16.0941C17.6757 15.4821 18.0844 14.9333 18.5875 14.4794C19.0907 14.0254 19.6784 13.675 20.3171 13.4483C20.9557 13.2217 21.6328 13.1231 22.3096 13.1583" stroke="#07A7D5" stroke-width="2"/>
</svg>
