<svg width="40" height="40" viewBox="0 0 40 40" fill="none" xmlns="http://www.w3.org/2000/svg">
<path fill-rule="evenodd" clip-rule="evenodd" d="M35.2952 22.4565C35.2952 29.1906 25.4999 34.5412 21.3187 36.8259C20.7799 37.12 20.3305 37.3647 20.0011 37.56C19.6716 37.3647 19.2222 37.12 18.6834 36.8259C14.5022 34.5412 4.70696 29.1906 4.70696 22.4565V9.11529L20.001 2.56L35.2951 9.11529V22.4565L35.2952 22.4565ZM20.0011 0L2.354 7.56235V22.4565C2.354 30.5859 13.0081 36.4071 17.5564 38.8918C18.1281 39.2047 18.5916 39.4565 18.9093 39.6471V39.6494C19.2458 39.8518 19.6222 39.953 20.0011 39.953C20.3862 39.953 20.7638 39.8472 21.0928 39.6471C21.4105 39.4565 21.874 39.2047 22.4458 38.8918C26.994 36.4071 37.6481 30.5859 37.6481 22.4565V7.56235L20.001 0H20.0011ZM12.5975 18.0951L10.934 19.7586L17.647 26.4739L30.2446 13.8762L28.5811 12.2127L17.647 23.1445L12.5975 18.0951Z" fill="#07A7D5"/>
</svg>
