<svg width="71" height="71" viewBox="0 0 71 71" fill="none" xmlns="http://www.w3.org/2000/svg">
<path d="M0 0V71H71V0H0ZM63.7995 4.21798L57.7606 10.2567L51.7218 4.21798H63.7995ZM66.782 7.20054V23.4961L46.6304 43.6477L38.4826 35.4999L66.782 7.20054ZM54.7782 13.2393L13.2393 54.778L5.09148 46.6302L46.6304 5.09162L54.7782 13.2393ZM41.5387 4.21798L24.3696 21.3871L16.2218 13.2393L25.2431 4.21798H41.5387ZM4.21798 4.21798H19.2782L4.21798 19.2782V4.21798ZM4.21798 25.2433L13.2393 16.222L21.3871 24.3698L4.21798 41.5386V25.2433ZM4.21798 51.7217L10.2567 57.7604L4.21798 63.7992V51.7217ZM7.20054 66.782L35.5 38.4826L43.6478 46.6304L23.4961 66.782H7.20054ZM29.4613 66.782L66.782 29.4614V45.7567L45.7567 66.782H29.4613ZM51.722 66.782L57.7606 60.7433L63.7993 66.782H51.722ZM66.782 63.7995L60.7433 57.7607L66.782 51.722V63.7995Z" fill="#FF51CE"/>
</svg>
