<svg width="32" height="40" viewBox="0 0 32 40" fill="none" xmlns="http://www.w3.org/2000/svg">
<path d="M16 1C7.725 1 1 7.97343 1 16.5541C1 21.7907 3.925 26.1717 7.325 29.2307C8.4 30.1899 10.275 31.7194 11.95 33.9747C12.9066 35.275 13.8164 36.6237 14.5446 37.8741C15.049 38.7401 16.951 38.7401 17.4554 37.8741C18.1836 36.6237 19.0934 35.275 20.05 33.9747C21.725 31.7194 23.6 30.1899 24.675 29.2307C28.075 26.1717 31 21.7907 31 16.5541C31 7.97343 24.275 1 16 1ZM16 7.63642C17.1294 7.63642 18.2477 7.86709 19.2911 8.31524C20.3345 8.7634 21.2825 9.42027 22.0811 10.2484C22.8797 11.0764 23.5132 12.0595 23.9454 13.1415C24.3776 14.2234 24.6 15.383 24.6 16.5541C24.6 17.7252 24.3776 18.8848 23.9454 19.9668C23.5132 21.0487 22.8797 22.0318 22.0811 22.8599C21.2825 23.688 20.3345 24.3448 19.2911 24.793C18.2477 25.2411 17.1294 25.4718 16 25.4718C13.7191 25.4718 11.5317 24.5323 9.91888 22.8599C8.30607 21.1875 7.4 18.9192 7.4 16.5541C7.4 14.189 8.30607 11.9207 9.91888 10.2484C11.5317 8.57596 13.7191 7.63642 16 7.63642Z" stroke="#121212" stroke-width="2"/>
</svg>
