<svg width="25" height="24" viewBox="0 0 25 24" fill="none" xmlns="http://www.w3.org/2000/svg">
<path d="M19.8895 17C20.6356 17.4561 21.0283 17.9734 21.0283 18.5C21.0283 19.0266 20.6356 19.5439 19.8895 20C19.1435 20.4561 18.0705 20.8348 16.7783 21.0981C15.4862 21.3614 14.0204 21.5 12.5283 21.5C11.0363 21.5 9.57048 21.3614 8.27832 21.0981C6.98616 20.8348 5.91314 20.4561 5.1671 20C4.42107 19.5439 4.02832 19.0266 4.02832 18.5C4.02832 17.9734 4.42107 17.4561 5.1671 17" stroke="#6E6E6E" stroke-width="1.5" stroke-linecap="round"/>
<path d="M20.0283 10C20.0283 15.018 14.54 18.4027 12.9532 19.2764C12.6852 19.424 12.3715 19.424 12.1034 19.2764C10.5166 18.4027 5.02832 15.018 5.02832 10C5.02832 5.5 8.66233 2.5 12.5283 2.5C16.5283 2.5 20.0283 5.5 20.0283 10Z" stroke="#6E6E6E" stroke-width="1.5"/>
<circle cx="12.5283" cy="10" r="3.25" stroke="#6E6E6E" stroke-width="1.5"/>
</svg>
