<svg width="72" height="79" viewBox="0 0 72 79" fill="none" xmlns="http://www.w3.org/2000/svg">
<g id="Group 1171279737">
<g id="Vector">
<mask id="path-1-inside-1_3445_1323" fill="white">
<path d="M27.6841 43.2718C28.5789 43.2238 29.5043 43.3094 30.4031 43.3228C32.3265 43.3375 34.2494 43.3759 36.1718 43.4378C35.9786 45.54 35.5519 47.1364 34.3086 48.878C33.6578 49.6357 32.9731 50.3007 32.1909 50.9215C30.6439 48.3974 29.1904 45.8194 27.6841 43.2718Z"/>
</mask>
<path d="M27.6841 43.2718C28.5789 43.2238 29.5043 43.3094 30.4031 43.3228C32.3265 43.3375 34.2494 43.3759 36.1718 43.4378C35.9786 45.54 35.5519 47.1364 34.3086 48.878C33.6578 49.6357 32.9731 50.3007 32.1909 50.9215C30.6439 48.3974 29.1904 45.8194 27.6841 43.2718Z" fill="#FF51CE" stroke="#FF51CE" stroke-width="0.671883" mask="url(#path-1-inside-1_3445_1323)"/>
</g>
<g id="Vector_2">
<mask id="path-2-inside-2_3445_1323" fill="white">
<path d="M27.159 30.1685C28.911 30.3515 30.541 30.6194 32.1406 31.4074C34.7259 32.681 36.752 35.0807 37.6639 37.796C37.8806 38.4416 38.558 40.9868 38.2565 41.5902C34.5967 41.4235 30.9227 41.4671 27.2699 41.2652C27.1048 39.0362 27.1774 36.7439 27.1585 34.5076C27.1466 33.0967 27.0098 31.5633 27.159 30.1685ZM28.2628 31.3154C28.3055 34.1628 28.5137 37.3342 28.3264 40.15C31.2355 40.1518 34.143 40.2221 37.0488 40.361C36.5787 37.4861 35.3471 34.9932 32.9218 33.2578C31.1757 32.0084 30.161 31.9642 28.2628 31.3154Z"/>
</mask>
<path d="M27.159 30.1685C28.911 30.3515 30.541 30.6194 32.1406 31.4074C34.7259 32.681 36.752 35.0807 37.6639 37.796C37.8806 38.4416 38.558 40.9868 38.2565 41.5902C34.5967 41.4235 30.9227 41.4671 27.2699 41.2652C27.1048 39.0362 27.1774 36.7439 27.1585 34.5076C27.1466 33.0967 27.0098 31.5633 27.159 30.1685ZM28.2628 31.3154C28.3055 34.1628 28.5137 37.3342 28.3264 40.15C31.2355 40.1518 34.143 40.2221 37.0488 40.361C36.5787 37.4861 35.3471 34.9932 32.9218 33.2578C31.1757 32.0084 30.161 31.9642 28.2628 31.3154Z" fill="#FF51CE" stroke="#FF51CE" stroke-width="0.671883" mask="url(#path-2-inside-2_3445_1323)"/>
</g>
<g id="Vector_3">
<mask id="path-3-inside-3_3445_1323" fill="white">
<path d="M23.5028 32.8016L24.3694 32.7637C24.4203 34.1946 24.5154 35.6244 24.5706 37.0558C24.6253 38.4731 24.4775 41.1756 24.9042 42.3984C25.1955 43.2335 25.7179 44.0136 26.1655 44.7736C27.1533 46.4502 28.8774 49.0796 29.5986 50.7783C27.188 52.1497 24.4946 52.2674 21.8577 51.5772C21.0506 51.2881 20.2691 50.9316 19.5457 50.4701C19.4137 50.3847 19.2838 50.2961 19.1561 50.2045C19.0283 50.1126 18.9029 50.0178 18.7798 49.9201C18.6567 49.8223 18.5361 49.7216 18.4179 49.6179C18.2997 49.5144 18.1842 49.4079 18.0712 49.2986C17.9581 49.1893 17.8479 49.0773 17.7403 48.9629C17.6328 48.8484 17.5281 48.7312 17.4262 48.6114C17.3244 48.4918 17.2256 48.3698 17.1297 48.2455C17.0338 48.121 16.941 47.9943 16.8513 47.8655C16.7615 47.7365 16.675 47.6055 16.5917 47.4724C16.5083 47.3392 16.4283 47.2041 16.3516 47.0673C16.2748 46.9302 16.2015 46.7915 16.1315 46.6511C16.0615 46.5104 15.995 46.3682 15.9319 46.2245C15.8689 46.0807 15.8093 45.9355 15.7534 45.7888C15.6974 45.6421 15.645 45.4942 15.5962 45.3451C15.5475 45.196 15.5024 45.0457 15.4609 44.8943C15.4195 44.743 15.3817 44.5907 15.3477 44.4376C14.7922 41.8437 15.3003 39.2562 16.7519 37.043C18.3601 34.5911 20.6936 33.3804 23.5028 32.8016Z"/>
</mask>
<path d="M23.5028 32.8016L24.3694 32.7637C24.4203 34.1946 24.5154 35.6244 24.5706 37.0558C24.6253 38.4731 24.4775 41.1756 24.9042 42.3984C25.1955 43.2335 25.7179 44.0136 26.1655 44.7736C27.1533 46.4502 28.8774 49.0796 29.5986 50.7783C27.188 52.1497 24.4946 52.2674 21.8577 51.5772C21.0506 51.2881 20.2691 50.9316 19.5457 50.4701C19.4137 50.3847 19.2838 50.2961 19.1561 50.2045C19.0283 50.1126 18.9029 50.0178 18.7798 49.9201C18.6567 49.8223 18.5361 49.7216 18.4179 49.6179C18.2997 49.5144 18.1842 49.4079 18.0712 49.2986C17.9581 49.1893 17.8479 49.0773 17.7403 48.9629C17.6328 48.8484 17.5281 48.7312 17.4262 48.6114C17.3244 48.4918 17.2256 48.3698 17.1297 48.2455C17.0338 48.121 16.941 47.9943 16.8513 47.8655C16.7615 47.7365 16.675 47.6055 16.5917 47.4724C16.5083 47.3392 16.4283 47.2041 16.3516 47.0673C16.2748 46.9302 16.2015 46.7915 16.1315 46.6511C16.0615 46.5104 15.995 46.3682 15.9319 46.2245C15.8689 46.0807 15.8093 45.9355 15.7534 45.7888C15.6974 45.6421 15.645 45.4942 15.5962 45.3451C15.5475 45.196 15.5024 45.0457 15.4609 44.8943C15.4195 44.743 15.3817 44.5907 15.3477 44.4376C14.7922 41.8437 15.3003 39.2562 16.7519 37.043C18.3601 34.5911 20.6936 33.3804 23.5028 32.8016Z" stroke="#FF51CE" stroke-width="2" mask="url(#path-3-inside-3_3445_1323)"/>
</g>
<g id="Vector_4">
<mask id="path-4-inside-4_3445_1323" fill="white">
<path d="M52.0515 45.6472C54.6701 45.2669 58.379 46.4159 60.5983 47.7718C60.8022 47.8964 61.0029 48.0259 61.2003 48.1606C61.3977 48.2949 61.5916 48.4341 61.7821 48.5781C61.9728 48.7219 62.1598 48.8703 62.343 49.0235C62.5263 49.1764 62.7057 49.3338 62.8811 49.4957C63.0568 49.6576 63.2283 49.8236 63.3956 49.9938C63.563 50.1639 63.7261 50.3381 63.8849 50.5163C64.0437 50.6945 64.1981 50.8764 64.3479 51.0619C64.4978 51.2477 64.6429 51.437 64.7833 51.6297C64.924 51.8227 65.0597 52.0189 65.1905 52.2183C65.3215 52.4178 65.4475 52.6202 65.5684 52.8257C65.6893 53.0314 65.8051 53.2399 65.9157 53.4512C66.0265 53.6623 66.1319 53.876 66.232 54.0925C66.3323 54.3089 66.427 54.5277 66.5163 54.7488C66.6058 54.9697 66.6897 55.1927 66.768 55.4179C66.8466 55.643 66.9195 55.87 66.9868 56.0987C67.0541 56.3274 67.1156 56.5576 67.1715 56.7893C68.1282 60.8357 67.3959 64.7345 65.2053 68.2644C65.9594 69.0887 71.1382 74.8419 71.5201 75.0103C71.5087 75.0354 71.4972 75.0606 71.4844 75.085C71.2415 75.5539 67.6456 78.8544 67.2028 79C66.8064 78.8796 63.2435 74.754 62.6503 74.1081C62.1307 73.553 61.4399 72.9433 61.0882 72.2762C59.9431 73.6265 56.0706 74.5957 54.3414 74.7594C54.1002 74.7835 53.8585 74.8016 53.6162 74.8137C53.3741 74.8258 53.132 74.8318 52.8897 74.8318C52.6472 74.8318 52.4049 74.8257 52.1628 74.8134C51.9206 74.8013 51.6788 74.7832 51.4377 74.759C51.1965 74.7349 50.956 74.7047 50.7162 74.6685C50.4766 74.6323 50.2381 74.5901 50.0005 74.5421C49.7629 74.494 49.5267 74.4401 49.2918 74.3804C49.0569 74.3205 48.8237 74.2547 48.5922 74.1832C48.3607 74.1116 48.1311 74.0344 47.9034 73.9514C47.6757 73.8685 47.4503 73.78 47.227 73.6858C47.0038 73.5917 46.7831 73.492 46.5648 73.3867C46.3465 73.2814 46.1311 73.1708 45.9184 73.055C45.7057 72.9389 45.4961 72.8176 45.2895 72.6911C45.0828 72.5648 44.8796 72.4333 44.6797 72.2967C44.4796 72.1601 44.2832 72.0186 44.0905 71.8724C43.8976 71.726 43.7085 71.5748 43.5232 71.419C43.3424 71.2698 43.1653 71.1162 42.9922 70.9582C42.8192 70.8003 42.6501 70.6383 42.4847 70.4722C42.3196 70.3061 42.1585 70.136 42.0015 69.9621C41.8447 69.7881 41.6923 69.6105 41.5442 69.4292C41.3961 69.2476 41.2526 69.0626 41.1135 68.8741C40.9744 68.6856 40.84 68.4939 40.7103 68.2989C40.5809 68.1039 40.4562 67.906 40.3362 67.705C40.2164 67.5037 40.1015 67.2998 39.9916 67.0932C39.8817 66.8864 39.777 66.6771 39.6776 66.4654C39.578 66.2536 39.4837 66.0396 39.3946 65.8231C39.3056 65.6067 39.2219 65.3882 39.1436 65.1678C39.0653 64.9473 38.9924 64.7251 38.9249 64.501C38.8576 64.2768 38.7958 64.0512 38.7395 63.8242C38.6831 63.5971 38.6324 63.3688 38.5874 63.1394C38.5423 62.9098 38.5028 62.6793 38.4689 62.4478C38.4353 62.2162 38.4072 61.984 38.3848 61.7512C38.0059 57.7052 39.1968 53.8667 41.805 50.7457C44.3876 47.6555 48.0905 46.0161 52.0515 45.6472ZM52.2123 49.2502C48.9358 49.6607 46.2293 50.9174 44.1558 53.5626C44.0463 53.7032 43.9403 53.8465 43.8378 53.9925C43.7355 54.1383 43.6368 54.2865 43.5417 54.4372C43.4466 54.5882 43.3551 54.7412 43.2674 54.8964C43.1799 55.0515 43.0963 55.2087 43.0164 55.3679C42.9365 55.5273 42.8607 55.6885 42.7889 55.8515C42.7169 56.0145 42.649 56.1792 42.5853 56.3456C42.5216 56.5119 42.4619 56.6797 42.4063 56.849C42.3509 57.0182 42.2996 57.1887 42.2525 57.3604C42.2054 57.5321 42.1626 57.7049 42.124 57.8786C42.0854 58.0525 42.0511 58.2273 42.021 58.4028C41.9912 58.5783 41.9656 58.7545 41.9443 58.9314C41.923 59.1082 41.906 59.2854 41.8935 59.4629C41.8809 59.6405 41.8727 59.8183 41.8689 59.9965C41.8651 60.1745 41.8657 60.3525 41.8706 60.5305C41.8755 60.7084 41.885 60.8862 41.8989 61.0637C41.9126 61.2412 41.9306 61.4183 41.953 61.595C42.334 64.5916 43.863 67.1636 46.2589 68.9985C48.3011 70.5631 51.1066 71.4914 53.6929 71.2342C56.9684 70.7858 59.7436 69.5643 61.7908 66.8705C63.5874 64.5061 64.2806 61.5165 63.8667 58.5963C63.8409 58.4192 63.8106 58.2429 63.7759 58.0674C63.7413 57.8919 63.7024 57.7174 63.6591 57.5439C63.616 57.3701 63.5686 57.1976 63.5168 57.0264C63.4649 56.8553 63.4088 56.6855 63.3485 56.5169C63.2884 56.3483 63.2241 56.1814 63.1557 56.0162C63.087 55.8508 63.0145 55.6872 62.938 55.5255C62.8612 55.3637 62.7807 55.2039 62.6964 55.0463C62.6118 54.8884 62.5234 54.7327 62.4312 54.5791C62.339 54.4257 62.243 54.2747 62.1432 54.126C62.0435 53.9773 61.9402 53.8311 61.8332 53.6873C61.7262 53.5438 61.6157 53.4029 61.5018 53.2647C61.388 53.1266 61.2708 52.9912 61.1501 52.8586C61.0294 52.7262 60.9056 52.5969 60.7786 52.4705C60.6514 52.3442 60.5213 52.2211 60.3883 52.1013C60.255 51.9812 60.119 51.8646 59.9801 51.7515C59.8413 51.6381 59.6996 51.5283 59.5551 51.4221C57.8282 50.1406 54.4258 48.8189 52.2608 49.2375C52.2443 49.2405 52.2285 49.2458 52.2123 49.2502Z"/>
</mask>
<path d="M52.0515 45.6472C54.6701 45.2669 58.379 46.4159 60.5983 47.7718C60.8022 47.8964 61.0029 48.0259 61.2003 48.1606C61.3977 48.2949 61.5916 48.4341 61.7821 48.5781C61.9728 48.7219 62.1598 48.8703 62.343 49.0235C62.5263 49.1764 62.7057 49.3338 62.8811 49.4957C63.0568 49.6576 63.2283 49.8236 63.3956 49.9938C63.563 50.1639 63.7261 50.3381 63.8849 50.5163C64.0437 50.6945 64.1981 50.8764 64.3479 51.0619C64.4978 51.2477 64.6429 51.437 64.7833 51.6297C64.924 51.8227 65.0597 52.0189 65.1905 52.2183C65.3215 52.4178 65.4475 52.6202 65.5684 52.8257C65.6893 53.0314 65.8051 53.2399 65.9157 53.4512C66.0265 53.6623 66.1319 53.876 66.232 54.0925C66.3323 54.3089 66.427 54.5277 66.5163 54.7488C66.6058 54.9697 66.6897 55.1927 66.768 55.4179C66.8466 55.643 66.9195 55.87 66.9868 56.0987C67.0541 56.3274 67.1156 56.5576 67.1715 56.7893C68.1282 60.8357 67.3959 64.7345 65.2053 68.2644C65.9594 69.0887 71.1382 74.8419 71.5201 75.0103C71.5087 75.0354 71.4972 75.0606 71.4844 75.085C71.2415 75.5539 67.6456 78.8544 67.2028 79C66.8064 78.8796 63.2435 74.754 62.6503 74.1081C62.1307 73.553 61.4399 72.9433 61.0882 72.2762C59.9431 73.6265 56.0706 74.5957 54.3414 74.7594C54.1002 74.7835 53.8585 74.8016 53.6162 74.8137C53.3741 74.8258 53.132 74.8318 52.8897 74.8318C52.6472 74.8318 52.4049 74.8257 52.1628 74.8134C51.9206 74.8013 51.6788 74.7832 51.4377 74.759C51.1965 74.7349 50.956 74.7047 50.7162 74.6685C50.4766 74.6323 50.2381 74.5901 50.0005 74.5421C49.7629 74.494 49.5267 74.4401 49.2918 74.3804C49.0569 74.3205 48.8237 74.2547 48.5922 74.1832C48.3607 74.1116 48.1311 74.0344 47.9034 73.9514C47.6757 73.8685 47.4503 73.78 47.227 73.6858C47.0038 73.5917 46.7831 73.492 46.5648 73.3867C46.3465 73.2814 46.1311 73.1708 45.9184 73.055C45.7057 72.9389 45.4961 72.8176 45.2895 72.6911C45.0828 72.5648 44.8796 72.4333 44.6797 72.2967C44.4796 72.1601 44.2832 72.0186 44.0905 71.8724C43.8976 71.726 43.7085 71.5748 43.5232 71.419C43.3424 71.2698 43.1653 71.1162 42.9922 70.9582C42.8192 70.8003 42.6501 70.6383 42.4847 70.4722C42.3196 70.3061 42.1585 70.136 42.0015 69.9621C41.8447 69.7881 41.6923 69.6105 41.5442 69.4292C41.3961 69.2476 41.2526 69.0626 41.1135 68.8741C40.9744 68.6856 40.84 68.4939 40.7103 68.2989C40.5809 68.1039 40.4562 67.906 40.3362 67.705C40.2164 67.5037 40.1015 67.2998 39.9916 67.0932C39.8817 66.8864 39.777 66.6771 39.6776 66.4654C39.578 66.2536 39.4837 66.0396 39.3946 65.8231C39.3056 65.6067 39.2219 65.3882 39.1436 65.1678C39.0653 64.9473 38.9924 64.7251 38.9249 64.501C38.8576 64.2768 38.7958 64.0512 38.7395 63.8242C38.6831 63.5971 38.6324 63.3688 38.5874 63.1394C38.5423 62.9098 38.5028 62.6793 38.4689 62.4478C38.4353 62.2162 38.4072 61.984 38.3848 61.7512C38.0059 57.7052 39.1968 53.8667 41.805 50.7457C44.3876 47.6555 48.0905 46.0161 52.0515 45.6472ZM52.2123 49.2502C48.9358 49.6607 46.2293 50.9174 44.1558 53.5626C44.0463 53.7032 43.9403 53.8465 43.8378 53.9925C43.7355 54.1383 43.6368 54.2865 43.5417 54.4372C43.4466 54.5882 43.3551 54.7412 43.2674 54.8964C43.1799 55.0515 43.0963 55.2087 43.0164 55.3679C42.9365 55.5273 42.8607 55.6885 42.7889 55.8515C42.7169 56.0145 42.649 56.1792 42.5853 56.3456C42.5216 56.5119 42.4619 56.6797 42.4063 56.849C42.3509 57.0182 42.2996 57.1887 42.2525 57.3604C42.2054 57.5321 42.1626 57.7049 42.124 57.8786C42.0854 58.0525 42.0511 58.2273 42.021 58.4028C41.9912 58.5783 41.9656 58.7545 41.9443 58.9314C41.923 59.1082 41.906 59.2854 41.8935 59.4629C41.8809 59.6405 41.8727 59.8183 41.8689 59.9965C41.8651 60.1745 41.8657 60.3525 41.8706 60.5305C41.8755 60.7084 41.885 60.8862 41.8989 61.0637C41.9126 61.2412 41.9306 61.4183 41.953 61.595C42.334 64.5916 43.863 67.1636 46.2589 68.9985C48.3011 70.5631 51.1066 71.4914 53.6929 71.2342C56.9684 70.7858 59.7436 69.5643 61.7908 66.8705C63.5874 64.5061 64.2806 61.5165 63.8667 58.5963C63.8409 58.4192 63.8106 58.2429 63.7759 58.0674C63.7413 57.8919 63.7024 57.7174 63.6591 57.5439C63.616 57.3701 63.5686 57.1976 63.5168 57.0264C63.4649 56.8553 63.4088 56.6855 63.3485 56.5169C63.2884 56.3483 63.2241 56.1814 63.1557 56.0162C63.087 55.8508 63.0145 55.6872 62.938 55.5255C62.8612 55.3637 62.7807 55.2039 62.6964 55.0463C62.6118 54.8884 62.5234 54.7327 62.4312 54.5791C62.339 54.4257 62.243 54.2747 62.1432 54.126C62.0435 53.9773 61.9402 53.8311 61.8332 53.6873C61.7262 53.5438 61.6157 53.4029 61.5018 53.2647C61.388 53.1266 61.2708 52.9912 61.1501 52.8586C61.0294 52.7262 60.9056 52.5969 60.7786 52.4705C60.6514 52.3442 60.5213 52.2211 60.3883 52.1013C60.255 51.9812 60.119 51.8646 59.9801 51.7515C59.8413 51.6381 59.6996 51.5283 59.5551 51.4221C57.8282 50.1406 54.4258 48.8189 52.2608 49.2375C52.2443 49.2405 52.2285 49.2458 52.2123 49.2502Z" fill="#FF51CE" stroke="#FF51CE" stroke-width="0.671883" mask="url(#path-4-inside-4_3445_1323)"/>
</g>
<g id="Vector_5">
<mask id="path-5-inside-5_3445_1323" fill="white">
<path d="M0 0H3.88333H51.2257L51.2701 0.0230956C51.6069 0.194428 51.9808 0.275543 52.3277 0.424718C53.4614 0.911733 54.2374 1.73923 54.6365 2.90711C55.1547 4.42292 54.9703 9.58361 54.9285 11.375C55.932 11.2761 56.9664 11.3162 57.9746 11.3113C59.8896 11.3019 62.2633 11.0239 63.8506 12.3258C64.6215 12.9579 65.2867 14.0342 65.3766 15.0362C65.4893 16.2955 65.4318 17.5885 65.4304 18.853L65.4207 25.267L65.4247 34.0966C65.4271 35.6313 65.4785 37.1808 65.423 38.7142C65.4116 39.0281 65.4109 39.7713 65.2083 40.0138C64.9011 40.3807 64.3681 40.481 63.9104 40.5175C63.3808 40.5598 62.6112 40.5299 62.194 40.1704C61.8066 39.8367 61.6842 39.292 61.6626 38.8034C61.601 37.4129 61.6932 35.9932 61.6831 34.5987L61.6727 21.4717C61.672 19.8285 61.8719 16.7155 61.5068 15.1953C60.5633 14.8121 56.2093 15.1085 54.8952 15.0337C54.9642 16.5584 54.9218 18.0992 54.9211 19.6261L54.9184 27.6662L54.9238 35.0961C54.9245 36.4547 54.974 37.8311 54.9003 39.1867C54.8871 39.4292 54.8804 39.7193 54.7017 39.9044C54.2747 40.3472 53.6074 40.5158 53.0078 40.5158C52.503 40.5162 51.8617 40.3264 51.5006 39.9618C51.3397 39.7995 51.2331 39.6288 51.1961 39.4007C50.9794 38.0719 51.1405 36.4752 51.1426 35.1219L51.1325 26.2759C48.1692 26.3855 45.1538 26.2614 42.1849 26.2663L23.5987 26.2969L10.4086 26.2822C8.22784 26.2804 5.96614 26.4063 3.79577 26.2632L3.7806 46.2254L3.77962 52.6714C3.78013 53.8852 3.72595 55.1291 3.81691 56.3382C3.84282 56.6823 3.84056 56.9214 4.08611 57.1756C5.54363 57.4932 9.72743 57.2873 11.3976 57.2843L26.7223 57.289C28.0461 57.287 30.9104 57.1179 32.0351 57.3416C32.4553 57.4252 32.7996 57.6646 33.0345 58.0235C33.328 58.4722 33.3826 59.2 33.2689 59.7111C33.1737 60.1397 32.9436 60.5281 32.5663 60.7672C32.2318 60.9795 31.752 61.0077 31.3631 61.0312C28.9178 61.1794 26.3741 61.0409 23.9185 61.0412C20.7227 61.0412 17.4849 61.1516 14.2934 61.0342C14.2985 62.4187 14.0981 67.4625 14.4478 68.3707C14.6483 68.5551 14.9717 68.5719 15.2333 68.5917C16.6992 68.7027 18.2261 68.6058 19.6985 68.6031L28.4306 68.5967C29.3373 68.5961 31.4985 68.3978 32.2534 68.743C32.8536 69.0173 33.0972 69.833 33.1229 70.4363C33.1445 70.9421 32.9512 71.5592 32.5921 71.9294C32.4075 72.1196 32.1562 72.2172 31.8966 72.249C30.4673 72.4241 28.122 72.2769 26.6013 72.2769L15.5953 72.2695C14.0909 72.2578 12.9541 72.0653 11.8578 70.9622C11.315 70.4162 10.9433 69.7102 10.7573 68.967C10.4003 67.5406 10.588 63.0153 10.6156 61.2844C10.6171 61.209 10.6203 61.1337 10.6252 61.0583C9.48686 61.0463 8.34844 61.0412 7.20999 61.0433C5.144 61.0466 2.88647 61.2388 1.30275 59.6467C0.733204 59.0742 0.165688 58.0584 0.165569 57.2357L0 56.7681V26.0897V23.7985V4.33334V0ZM4.86851 3.72442C4.57084 3.7378 4.21553 3.71251 3.96106 3.88389C3.48956 4.50143 3.95588 20.8232 3.77397 22.8941L50.2199 22.8798C50.4934 22.8852 50.871 22.9403 51.122 22.8242C51.2112 21.6462 51.1557 20.4371 51.154 19.2557L51.1449 12.8311L51.1442 7.35188C51.1432 6.19166 51.2112 4.96929 51.0463 3.81997C48.3032 3.61857 45.5162 3.71785 42.7664 3.72097L29.0243 3.73421L12.7948 3.71791C10.1701 3.71687 7.48481 3.58983 4.86851 3.72442ZM0 0V4.33334C0.0412225 4.13882 0.111417 3.94178 0.167638 3.75048C0.23436 3.28167 0.3698 2.83349 0.573958 2.40594C1.23427 1.03035 2.52775 0.481535 3.88333 0H0ZM0 26.0897V56.7681L0.165569 57.2357C0.0587253 55.4766 0.155914 53.6716 0.158473 51.9068L0.151247 41.1269C-0.112489 37.3763 0.0775331 33.5278 0.0414752 29.7626C0.0301342 28.5783 0.188821 27.2517 0 26.0897ZM0.167638 3.75048C0.111417 3.94178 0.0412225 4.13882 0 4.33334V23.7985C0.267495 22.8335 -0.060854 19.9342 0.149756 18.5686C0.28086 13.6384 0.118897 8.68476 0.167638 3.75048ZM0 23.7985V26.0897C0.188821 27.2517 0.0301342 28.5783 0.0414752 29.7626C0.0775331 33.5278 -0.112489 37.3763 0.151247 41.1269C0.305518 38.0276 0.16157 34.8522 0.157683 31.7453C0.152193 27.3568 0.237858 22.9554 0.149756 18.5686C-0.060854 19.9342 0.267495 22.8335 0 23.7985Z"/>
</mask>
<path d="M0 0H3.88333H51.2257L51.2701 0.0230956C51.6069 0.194428 51.9808 0.275543 52.3277 0.424718C53.4614 0.911733 54.2374 1.73923 54.6365 2.90711C55.1547 4.42292 54.9703 9.58361 54.9285 11.375C55.932 11.2761 56.9664 11.3162 57.9746 11.3113C59.8896 11.3019 62.2633 11.0239 63.8506 12.3258C64.6215 12.9579 65.2867 14.0342 65.3766 15.0362C65.4893 16.2955 65.4318 17.5885 65.4304 18.853L65.4207 25.267L65.4247 34.0966C65.4271 35.6313 65.4785 37.1808 65.423 38.7142C65.4116 39.0281 65.4109 39.7713 65.2083 40.0138C64.9011 40.3807 64.3681 40.481 63.9104 40.5175C63.3808 40.5598 62.6112 40.5299 62.194 40.1704C61.8066 39.8367 61.6842 39.292 61.6626 38.8034C61.601 37.4129 61.6932 35.9932 61.6831 34.5987L61.6727 21.4717C61.672 19.8285 61.8719 16.7155 61.5068 15.1953C60.5633 14.8121 56.2093 15.1085 54.8952 15.0337C54.9642 16.5584 54.9218 18.0992 54.9211 19.6261L54.9184 27.6662L54.9238 35.0961C54.9245 36.4547 54.974 37.8311 54.9003 39.1867C54.8871 39.4292 54.8804 39.7193 54.7017 39.9044C54.2747 40.3472 53.6074 40.5158 53.0078 40.5158C52.503 40.5162 51.8617 40.3264 51.5006 39.9618C51.3397 39.7995 51.2331 39.6288 51.1961 39.4007C50.9794 38.0719 51.1405 36.4752 51.1426 35.1219L51.1325 26.2759C48.1692 26.3855 45.1538 26.2614 42.1849 26.2663L23.5987 26.2969L10.4086 26.2822C8.22784 26.2804 5.96614 26.4063 3.79577 26.2632L3.7806 46.2254L3.77962 52.6714C3.78013 53.8852 3.72595 55.1291 3.81691 56.3382C3.84282 56.6823 3.84056 56.9214 4.08611 57.1756C5.54363 57.4932 9.72743 57.2873 11.3976 57.2843L26.7223 57.289C28.0461 57.287 30.9104 57.1179 32.0351 57.3416C32.4553 57.4252 32.7996 57.6646 33.0345 58.0235C33.328 58.4722 33.3826 59.2 33.2689 59.7111C33.1737 60.1397 32.9436 60.5281 32.5663 60.7672C32.2318 60.9795 31.752 61.0077 31.3631 61.0312C28.9178 61.1794 26.3741 61.0409 23.9185 61.0412C20.7227 61.0412 17.4849 61.1516 14.2934 61.0342C14.2985 62.4187 14.0981 67.4625 14.4478 68.3707C14.6483 68.5551 14.9717 68.5719 15.2333 68.5917C16.6992 68.7027 18.2261 68.6058 19.6985 68.6031L28.4306 68.5967C29.3373 68.5961 31.4985 68.3978 32.2534 68.743C32.8536 69.0173 33.0972 69.833 33.1229 70.4363C33.1445 70.9421 32.9512 71.5592 32.5921 71.9294C32.4075 72.1196 32.1562 72.2172 31.8966 72.249C30.4673 72.4241 28.122 72.2769 26.6013 72.2769L15.5953 72.2695C14.0909 72.2578 12.9541 72.0653 11.8578 70.9622C11.315 70.4162 10.9433 69.7102 10.7573 68.967C10.4003 67.5406 10.588 63.0153 10.6156 61.2844C10.6171 61.209 10.6203 61.1337 10.6252 61.0583C9.48686 61.0463 8.34844 61.0412 7.20999 61.0433C5.144 61.0466 2.88647 61.2388 1.30275 59.6467C0.733204 59.0742 0.165688 58.0584 0.165569 57.2357L0 56.7681V26.0897V23.7985V4.33334V0ZM4.86851 3.72442C4.57084 3.7378 4.21553 3.71251 3.96106 3.88389C3.48956 4.50143 3.95588 20.8232 3.77397 22.8941L50.2199 22.8798C50.4934 22.8852 50.871 22.9403 51.122 22.8242C51.2112 21.6462 51.1557 20.4371 51.154 19.2557L51.1449 12.8311L51.1442 7.35188C51.1432 6.19166 51.2112 4.96929 51.0463 3.81997C48.3032 3.61857 45.5162 3.71785 42.7664 3.72097L29.0243 3.73421L12.7948 3.71791C10.1701 3.71687 7.48481 3.58983 4.86851 3.72442ZM0 0V4.33334C0.0412225 4.13882 0.111417 3.94178 0.167638 3.75048C0.23436 3.28167 0.3698 2.83349 0.573958 2.40594C1.23427 1.03035 2.52775 0.481535 3.88333 0H0ZM0 26.0897V56.7681L0.165569 57.2357C0.0587253 55.4766 0.155914 53.6716 0.158473 51.9068L0.151247 41.1269C-0.112489 37.3763 0.0775331 33.5278 0.0414752 29.7626C0.0301342 28.5783 0.188821 27.2517 0 26.0897ZM0.167638 3.75048C0.111417 3.94178 0.0412225 4.13882 0 4.33334V23.7985C0.267495 22.8335 -0.060854 19.9342 0.149756 18.5686C0.28086 13.6384 0.118897 8.68476 0.167638 3.75048ZM0 23.7985V26.0897C0.188821 27.2517 0.0301342 28.5783 0.0414752 29.7626C0.0775331 33.5278 -0.112489 37.3763 0.151247 41.1269C0.305518 38.0276 0.16157 34.8522 0.157683 31.7453C0.152193 27.3568 0.237858 22.9554 0.149756 18.5686C-0.060854 19.9342 0.267495 22.8335 0 23.7985Z" fill="#FF51CE"/>
<path d="M0 0V-0.167971H-0.167971V0H0ZM0 56.7681H-0.167971V56.797L-0.158335 56.8242L0 56.7681ZM0.0414752 29.7626L-0.126488 29.7642L-0.126488 29.7642L0.0414752 29.7626ZM0 0.167971H3.88333V-0.167971H0V0.167971ZM0.323904 57.1796L0.158335 56.7121L-0.158335 56.8242L0.00723391 57.2917L0.323904 57.1796ZM0.167971 56.7681V26.0897H-0.167971V56.7681H0.167971ZM0.167971 26.0897V23.7985H-0.167971V26.0897H0.167971ZM0.167971 23.7985V4.33334H-0.167971V23.7985H0.167971ZM0.167971 4.33334V0H-0.167971V4.33334H0.167971ZM0.164322 4.36816C0.203818 4.18179 0.268772 4.00207 0.328794 3.79784L0.00648275 3.70312C-0.0459389 3.88149 -0.121373 4.09585 -0.164322 4.29852L0.164322 4.36816ZM0.318804 41.1151C0.0554877 37.3705 0.245633 33.5405 0.209438 29.761L-0.126488 29.7642C-0.0905666 33.5152 -0.280465 37.3822 -0.0163099 41.1387L0.318804 41.1151ZM0.209438 29.761C0.203797 29.1719 0.240359 28.5555 0.255217 27.9217C0.269926 27.2943 0.262775 26.6595 0.165796 26.0627L-0.165796 26.1166C-0.0739541 26.6818 -0.0660382 27.2914 -0.0806321 27.9138C-0.0950763 28.53 -0.132187 29.169 -0.126488 29.7642L0.209438 29.761ZM0.161866 23.8433C0.234828 23.5801 0.264422 23.1995 0.274556 22.7702C0.284785 22.3369 0.27529 21.8376 0.26414 21.3301C0.24164 20.306 0.213297 19.2586 0.315764 18.5942L-0.0162523 18.543C-0.124395 19.2442 -0.0938688 20.3293 -0.0717204 21.3375C-0.0605465 21.8461 -0.0512722 22.3379 -0.0612922 22.7623C-0.071407 23.1907 -0.10108 23.5343 -0.161866 23.7536L0.161866 23.8433ZM3.88333 0V-0.335942H3.82544L3.77088 -0.316562L3.88333 0ZM51.2257 0L51.3806 -0.29806L51.3078 -0.335942H51.2257V0ZM51.2701 0.0230956L51.1151 0.321168L51.1178 0.322528L51.2701 0.0230956ZM52.3277 0.424718L52.195 0.733339L52.1951 0.733383L52.3277 0.424718ZM54.6365 2.90711L54.3186 3.01574L54.3186 3.01579L54.6365 2.90711ZM54.9285 11.375L54.5927 11.3672L54.5839 11.7466L54.9615 11.7093L54.9285 11.375ZM57.9746 11.3113L57.9762 11.6472L57.9762 11.6472L57.9746 11.3113ZM63.8506 12.3258L63.6375 12.5855L63.6375 12.5856L63.8506 12.3258ZM65.3766 15.0362L65.7112 15.0062L65.7112 15.0062L65.3766 15.0362ZM65.4304 18.853L65.7664 18.8535L65.7664 18.8534L65.4304 18.853ZM65.4207 25.267L65.0847 25.2665L65.0847 25.2672L65.4207 25.267ZM65.4247 34.0966L65.0888 34.0968L65.0888 34.0971L65.4247 34.0966ZM65.423 38.7142L65.7587 38.7264L65.7587 38.7263L65.423 38.7142ZM65.2083 40.0138L65.4659 40.2295L65.4661 40.2292L65.2083 40.0138ZM63.9104 40.5175L63.9372 40.8524L63.9372 40.8524L63.9104 40.5175ZM62.194 40.1704L62.4132 39.9159L62.4132 39.9159L62.194 40.1704ZM61.6626 38.8034L61.9982 38.7886L61.9982 38.7885L61.6626 38.8034ZM61.6831 34.5987L61.3472 34.599L61.3472 34.6011L61.6831 34.5987ZM61.6727 21.4717L61.3368 21.4718L61.3368 21.472L61.6727 21.4717ZM61.5068 15.1953L61.8335 15.1169L61.7932 14.949L61.6332 14.8841L61.5068 15.1953ZM54.8952 15.0337L54.9143 14.6983L54.5428 14.6772L54.5596 15.0489L54.8952 15.0337ZM54.9211 19.6261L54.5852 19.626L54.5852 19.626L54.9211 19.6261ZM54.9184 27.6662L54.5825 27.6661L54.5825 27.6665L54.9184 27.6662ZM54.9238 35.0961L55.2598 35.0959L55.2598 35.0958L54.9238 35.0961ZM54.9003 39.1867L54.5648 39.1685L54.5648 39.1686L54.9003 39.1867ZM54.7017 39.9044L54.46 39.6711L54.4599 39.6712L54.7017 39.9044ZM53.0078 40.5158L53.0078 40.1799L53.0076 40.1799L53.0078 40.5158ZM51.5006 39.9618L51.7393 39.7254L51.7392 39.7253L51.5006 39.9618ZM51.1961 39.4007L51.5277 39.3469L51.5276 39.3466L51.1961 39.4007ZM51.1426 35.1219L51.4785 35.1224L51.4785 35.1215L51.1426 35.1219ZM51.1325 26.2759L51.4684 26.2755L51.468 25.9273L51.12 25.9401L51.1325 26.2759ZM42.1849 26.2663L42.1854 26.6023L42.1854 26.6023L42.1849 26.2663ZM23.5987 26.2969L23.5983 26.6329L23.5992 26.6329L23.5987 26.2969ZM10.4086 26.2822L10.4089 25.9463L10.4088 25.9463L10.4086 26.2822ZM3.79577 26.2632L3.81788 25.928L3.46011 25.9044L3.45983 26.263L3.79577 26.2632ZM3.7806 46.2254L3.44466 46.2251L3.44466 46.2253L3.7806 46.2254ZM3.77962 52.6714L3.44368 52.6714L3.44368 52.6716L3.77962 52.6714ZM3.81691 56.3382L3.48191 56.3634L3.48191 56.3634L3.81691 56.3382ZM4.08611 57.1756L3.84448 57.409L3.91516 57.4822L4.01458 57.5039L4.08611 57.1756ZM11.3976 57.2843L11.3977 56.9483L11.397 56.9483L11.3976 57.2843ZM26.7223 57.289L26.7221 57.6249L26.7228 57.6249L26.7223 57.289ZM32.0351 57.3416L31.9696 57.6711L31.9696 57.6711L32.0351 57.3416ZM33.0345 58.0235L33.3156 57.8396L33.3155 57.8395L33.0345 58.0235ZM33.2689 59.7111L32.941 59.6382L32.941 59.6382L33.2689 59.7111ZM32.5663 60.7672L32.3865 60.4835L32.3863 60.4836L32.5663 60.7672ZM31.3631 61.0312L31.3428 60.6959L31.3428 60.6959L31.3631 61.0312ZM23.9185 61.0412L23.9185 61.3772L23.9185 61.3772L23.9185 61.0412ZM14.2934 61.0342L14.3057 60.6985L13.9562 60.6856L13.9574 61.0354L14.2934 61.0342ZM14.4478 68.3707L14.1343 68.4914L14.1626 68.5647L14.2204 68.6179L14.4478 68.3707ZM15.2333 68.5917L15.2587 68.2567L15.2587 68.2567L15.2333 68.5917ZM19.6985 68.6031L19.6983 68.2672L19.6979 68.2672L19.6985 68.6031ZM28.4306 68.5967L28.4308 68.9327L28.4309 68.9327L28.4306 68.5967ZM32.2534 68.743L32.1138 69.0485L32.1138 69.0485L32.2534 68.743ZM33.1229 70.4363L32.7873 70.4506L32.7873 70.4506L33.1229 70.4363ZM32.5921 71.9294L32.8331 72.1634L32.8332 72.1633L32.5921 71.9294ZM31.8966 72.249L31.9374 72.5825L31.9375 72.5825L31.8966 72.249ZM26.6013 72.2769L26.6011 72.6128H26.6013V72.2769ZM15.5953 72.2695L15.5927 72.6054L15.5951 72.6054L15.5953 72.2695ZM11.8578 70.9622L12.0961 70.7254L12.0961 70.7253L11.8578 70.9622ZM10.7573 68.967L11.0832 68.8854L11.0832 68.8854L10.7573 68.967ZM10.6156 61.2844L10.2797 61.2777L10.2797 61.279L10.6156 61.2844ZM10.6252 61.0583L10.9605 61.0804L10.9838 60.7262L10.6288 60.7224L10.6252 61.0583ZM7.20999 61.0433L7.21053 61.3792L7.21058 61.3792L7.20999 61.0433ZM1.30275 59.6467L1.54092 59.4098L1.54091 59.4098L1.30275 59.6467ZM0.165569 57.2357L0.501511 57.2356L0.501509 57.2254L0.500893 57.2153L0.165569 57.2357ZM4.86851 3.72442L4.8836 4.06003L4.88577 4.05992L4.86851 3.72442ZM3.96106 3.88389L3.7734 3.60526L3.72758 3.63612L3.69405 3.68003L3.96106 3.88389ZM3.77397 22.8941L3.43932 22.8647L3.40721 23.2301L3.77407 23.23L3.77397 22.8941ZM50.2199 22.8798L50.2265 22.5439L50.2198 22.5439L50.2199 22.8798ZM51.122 22.8242L51.2631 23.1291L51.4421 23.0463L51.457 22.8496L51.122 22.8242ZM51.154 19.2557L50.8181 19.2562L50.8181 19.2562L51.154 19.2557ZM51.1449 12.8311L50.809 12.8312L50.809 12.8316L51.1449 12.8311ZM51.1442 7.35188L51.4802 7.35184L51.4802 7.35159L51.1442 7.35188ZM51.0463 3.81997L51.3789 3.77226L51.3405 3.50472L51.0709 3.48493L51.0463 3.81997ZM42.7664 3.72097L42.7667 4.05691L42.7667 4.05691L42.7664 3.72097ZM29.0243 3.73421L29.024 4.07015L29.0246 4.07015L29.0243 3.73421ZM12.7948 3.71791L12.7952 3.38197L12.795 3.38197L12.7948 3.71791ZM0.167638 3.75048L-0.164952 3.70314L-0.168069 3.72504L-0.168287 3.74716L0.167638 3.75048ZM0.573958 2.40594L0.2711 2.26057L0.270804 2.26119L0.573958 2.40594ZM0.158473 51.9068L0.494414 51.9073L0.494414 51.9065L0.158473 51.9068ZM0.151247 41.1269L-0.184279 41.1102L-0.1847 41.1187L-0.184694 41.1271L0.151247 41.1269ZM0.149756 18.5686L-0.186067 18.5597L-0.186276 18.5675L-0.186118 18.5754L0.149756 18.5686ZM0.157683 31.7453L0.493625 31.7449L0.493625 31.7449L0.157683 31.7453ZM3.88333 0.335942H51.2257V-0.335942H3.88333V0.335942ZM51.0707 0.29806L51.1151 0.321156L51.4251 -0.274964L51.3806 -0.29806L51.0707 0.29806ZM51.1178 0.322528C51.3098 0.420214 51.5078 0.48985 51.6878 0.550544C51.8743 0.613453 52.0374 0.665582 52.195 0.733339L52.4604 0.116097C52.2711 0.0346789 52.0738 -0.0283367 51.9025 -0.0861123C51.7246 -0.146102 51.5672 -0.20269 51.4224 -0.276337L51.1178 0.322528ZM52.1951 0.733383C53.2429 1.1835 53.9507 1.93914 54.3186 3.01574L54.9543 2.79848C54.5241 1.53932 53.6799 0.639967 52.4603 0.116053L52.1951 0.733383ZM54.3186 3.01579C54.433 3.35059 54.5168 3.91954 54.5716 4.64317C54.6257 5.35741 54.6498 6.19214 54.6565 7.04037C54.6699 8.73713 54.6136 10.4674 54.5927 11.3672L55.2644 11.3828C55.2852 10.4912 55.3419 8.74545 55.3284 7.03506C55.3216 6.17972 55.2973 5.3281 55.2416 4.59241C55.1865 3.8661 55.099 3.22154 54.9543 2.79844L54.3186 3.01579ZM54.9615 11.7093C55.9441 11.6125 56.9479 11.6522 57.9762 11.6472L57.9729 10.9754C56.9849 10.9802 55.9199 10.9397 54.8956 11.0407L54.9615 11.7093ZM57.9762 11.6472C58.963 11.6424 59.995 11.5712 61.0056 11.6614C62.0057 11.7507 62.9183 11.9957 63.6375 12.5855L64.0636 12.0661C63.1955 11.354 62.1277 11.087 61.0653 10.9922C60.0135 10.8983 58.9012 10.9708 57.9729 10.9754L57.9762 11.6472ZM63.6375 12.5856C64.3536 13.1727 64.9618 14.1715 65.042 15.0662L65.7112 15.0062C65.6117 13.8969 64.8893 12.7431 64.0636 12.066L63.6375 12.5856ZM65.042 15.0661C65.1529 16.3052 65.0959 17.5682 65.0945 18.8527L65.7664 18.8534C65.7677 17.6088 65.8257 16.2857 65.7112 15.0062L65.042 15.0661ZM65.0945 18.8525L65.0847 25.2665L65.7566 25.2675L65.7664 18.8535L65.0945 18.8525ZM65.0847 25.2672L65.0888 34.0968L65.7606 34.0965L65.7566 25.2669L65.0847 25.2672ZM65.0888 34.0971C65.0911 35.6467 65.1425 37.1766 65.0873 38.702L65.7587 38.7263C65.8146 37.185 65.763 35.616 65.7606 34.0961L65.0888 34.0971ZM65.0873 38.7019C65.0812 38.8702 65.0786 39.1153 65.0533 39.3555C65.0407 39.4745 65.0236 39.5812 65.0009 39.6667C64.9897 39.7091 64.9784 39.7418 64.9678 39.7659C64.9569 39.7907 64.9499 39.7992 64.9505 39.7984L65.4661 40.2292C65.5641 40.1119 65.6176 39.963 65.6505 39.8384C65.6854 39.7066 65.7071 39.5624 65.7214 39.426C65.75 39.1555 65.7534 38.8721 65.7587 38.7264L65.0873 38.7019ZM64.9508 39.7981C64.7412 40.0484 64.3421 40.146 63.8837 40.1827L63.9372 40.8524C64.3941 40.8159 65.061 40.713 65.4659 40.2295L64.9508 39.7981ZM63.8837 40.1826C63.6352 40.2025 63.3378 40.2046 63.0604 40.1625C62.7767 40.1195 62.5526 40.036 62.4132 39.9159L61.9747 40.4249C62.2525 40.6643 62.6219 40.7756 62.9597 40.8268C63.3038 40.879 63.656 40.8748 63.9372 40.8524L63.8837 40.1826ZM62.4132 39.9159C62.1348 39.676 62.0187 39.2526 61.9982 38.7886L61.327 38.8182C61.3496 39.3315 61.4785 39.9974 61.9747 40.4249L62.4132 39.9159ZM61.9982 38.7885C61.9366 37.3973 62.0295 36.0325 62.0191 34.5963L61.3472 34.6011C61.357 35.9539 61.2655 37.4285 61.327 38.8183L61.9982 38.7885ZM62.0191 34.5984L62.0087 21.4714L61.3368 21.472L61.3472 34.599L62.0191 34.5984ZM62.0087 21.4716C62.0085 21.0658 62.0207 20.5679 62.0337 20.0195C62.0466 19.4731 62.0602 18.8793 62.0624 18.2886C62.0666 17.1184 62.0267 15.9216 61.8335 15.1169L61.1802 15.2738C61.352 15.9892 61.3947 17.109 61.3905 18.2862C61.3884 18.8692 61.3749 19.4567 61.362 20.0036C61.3491 20.5486 61.3366 21.056 61.3368 21.4718L62.0087 21.4716ZM61.6332 14.8841C61.4754 14.82 61.2705 14.7783 61.0508 14.7485C60.8258 14.718 60.5627 14.6972 60.2768 14.6834C59.7049 14.6556 59.0228 14.6545 58.3358 14.6629C56.9438 14.68 55.5561 14.7349 54.9143 14.6983L54.8761 15.3691C55.5484 15.4074 56.9948 15.3514 58.3441 15.3348C59.0278 15.3263 59.6933 15.3277 60.2442 15.3544C60.5197 15.3678 60.7618 15.3874 60.9606 15.4143C61.1648 15.442 61.3023 15.4749 61.3804 15.5066L61.6332 14.8841ZM54.5596 15.0489C54.6281 16.5634 54.5859 18.0868 54.5852 19.626L55.2571 19.6263C55.2577 18.1116 55.3003 16.5534 55.2308 15.0186L54.5596 15.0489ZM54.5852 19.626L54.5825 27.6661L55.2544 27.6664L55.2571 19.6262L54.5852 19.626ZM54.5825 27.6665L54.5879 35.0963L55.2598 35.0958L55.2544 27.666L54.5825 27.6665ZM54.5879 35.0962C54.5886 36.4711 54.6379 37.825 54.5648 39.1685L55.2357 39.205C55.3101 37.8372 55.2604 36.4383 55.2598 35.0959L54.5879 35.0962ZM54.5648 39.1686C54.5577 39.3002 54.5535 39.404 54.5339 39.5001C54.5152 39.592 54.4883 39.6418 54.46 39.6711L54.9435 40.1377C55.0938 39.982 55.1597 39.7941 55.1923 39.6341C55.224 39.4782 55.2297 39.3158 55.2357 39.2049L54.5648 39.1686ZM54.4599 39.6712C54.1214 40.0222 53.5603 40.1799 53.0078 40.1799V40.8518C53.6546 40.8518 54.428 40.6721 54.9435 40.1377L54.4599 39.6712ZM53.0076 40.1799C52.5605 40.1802 52.0178 40.0066 51.7393 39.7254L51.2619 40.1982C51.7056 40.6461 52.4455 40.8522 53.008 40.8518L53.0076 40.1799ZM51.7392 39.7253C51.6132 39.5981 51.5506 39.488 51.5277 39.3469L50.8645 39.4545C50.9156 39.7695 51.0663 40.0008 51.262 40.1983L51.7392 39.7253ZM51.5276 39.3466C51.4243 38.7129 51.4098 38.006 51.4232 37.2766C51.4362 36.5653 51.4775 35.7969 51.4785 35.1224L50.8066 35.1214C50.8056 35.8002 50.7653 36.5068 50.7514 37.2643C50.7378 38.0039 50.7511 38.7597 50.8645 39.4548L51.5276 39.3466ZM51.4785 35.1215L51.4684 26.2755L50.7965 26.2762L50.8066 35.1223L51.4785 35.1215ZM51.12 25.9401C48.1626 26.0496 45.1748 25.9255 42.1843 25.9304L42.1854 26.6023C45.1329 26.5974 48.1758 26.7214 51.1449 26.6116L51.12 25.9401ZM42.1843 25.9304L23.5981 25.961L23.5992 26.6329L42.1854 26.6023L42.1843 25.9304ZM23.599 25.961L10.4089 25.9463L10.4082 26.6181L23.5983 26.6329L23.599 25.961ZM10.4088 25.9463C8.2009 25.9445 5.97484 26.0702 3.81788 25.928L3.77367 26.5984C5.95745 26.7424 8.25478 26.6164 10.4083 26.6181L10.4088 25.9463ZM3.45983 26.263L3.44466 46.2251L4.11654 46.2257L4.13172 26.2635L3.45983 26.263ZM3.44466 46.2253L3.44368 52.6714L4.11556 52.6715L4.11654 46.2254L3.44466 46.2253ZM3.44368 52.6716C3.44418 53.8651 3.38971 55.1377 3.48191 56.3634L4.1519 56.313C4.06219 55.1205 4.11608 53.9053 4.11556 52.6713L3.44368 52.6716ZM3.48191 56.3634C3.50578 56.6804 3.50029 57.0527 3.84448 57.409L4.32774 56.9422C4.18083 56.7901 4.17985 56.6841 4.1519 56.313L3.48191 56.3634ZM4.01458 57.5039C4.78759 57.6723 6.23903 57.6982 7.66495 57.6861C9.12981 57.6737 10.5509 57.6218 11.3982 57.6202L11.397 56.9483C10.5741 56.9498 9.06823 57.0023 7.65927 57.0143C6.21137 57.0265 4.84215 56.9966 4.15763 56.8474L4.01458 57.5039ZM11.3975 57.6202L26.7221 57.6249L26.7224 56.953L11.3977 56.9483L11.3975 57.6202ZM26.7228 57.6249C27.382 57.6239 28.4556 57.5808 29.4582 57.5666C30.4888 57.5519 31.4486 57.5675 31.9696 57.6711L32.1007 57.0122C31.4969 56.8921 30.4623 56.8803 29.4486 56.8948C28.4069 56.9096 27.3863 56.952 26.7217 56.953L26.7228 57.6249ZM31.9696 57.6711C32.2978 57.7364 32.5659 57.9211 32.7534 58.2074L33.3155 57.8395C33.0332 57.4082 32.6127 57.1139 32.1006 57.0121L31.9696 57.6711ZM32.7533 58.2074C32.8627 58.3746 32.9385 58.6139 32.9708 58.8838C33.0028 59.1514 32.9889 59.4228 32.941 59.6382L33.5969 59.784C33.6626 59.4883 33.6782 59.1403 33.6379 58.804C33.598 58.4701 33.4997 58.1211 33.3156 57.8396L32.7533 58.2074ZM32.941 59.6382C32.8608 59.999 32.6731 60.3018 32.3865 60.4835L32.7462 61.051C33.214 60.7544 33.4865 60.2805 33.5969 59.784L32.941 59.6382ZM32.3863 60.4836C32.2719 60.5562 32.1172 60.6061 31.9277 60.639C31.7389 60.6718 31.5405 60.6839 31.3428 60.6959L31.3833 61.3665C31.5746 61.355 31.8106 61.3413 32.0426 61.301C32.2737 61.2609 32.5262 61.1906 32.7463 61.0509L32.3863 60.4836ZM31.3428 60.6959C28.9097 60.8434 26.4005 60.705 23.9184 60.7053L23.9185 61.3772C26.3478 61.3769 28.9258 61.5155 31.3834 61.3665L31.3428 60.6959ZM23.9185 60.7053C20.7064 60.7053 17.4898 60.8156 14.3057 60.6985L14.281 61.3699C17.48 61.4876 20.7389 61.3772 23.9185 61.3772V60.7053ZM13.9574 61.0354C13.96 61.7392 13.9113 63.3042 13.9055 64.8798C13.9026 65.6555 13.9105 66.4213 13.9414 67.0523C13.9568 67.3677 13.9782 67.6536 14.0076 67.8925C14.0361 68.124 14.0749 68.337 14.1343 68.4914L14.7613 68.25C14.7334 68.1774 14.702 68.034 14.6744 67.8104C14.6478 67.5943 14.6275 67.3263 14.6124 67.0195C14.5824 66.4061 14.5745 65.6541 14.5773 64.8823C14.583 63.3628 14.6318 61.7136 14.6293 61.033L13.9574 61.0354ZM14.2204 68.6179C14.3828 68.7674 14.5798 68.8355 14.7472 68.8714C14.9132 68.907 15.0857 68.9174 15.208 68.9267L15.2587 68.2567C15.1193 68.2462 14.9993 68.2383 14.8881 68.2145C14.7783 68.1909 14.7133 68.1585 14.6753 68.1235L14.2204 68.6179ZM15.208 68.9267C16.6902 69.0389 18.2561 68.9417 19.6991 68.939L19.6979 68.2672C18.196 68.2699 16.7081 68.3665 15.2587 68.2567L15.208 68.9267ZM19.6988 68.939L28.4308 68.9327L28.4304 68.2608L19.6983 68.2672L19.6988 68.939ZM28.4309 68.9327C28.6656 68.9325 28.9788 68.9196 29.3173 68.9065C29.6594 68.8932 30.0335 68.8793 30.4019 68.8761C30.771 68.8729 31.1275 68.8805 31.4341 68.9089C31.7491 68.9381 31.9787 68.9867 32.1138 69.0485L32.3931 68.4374C32.1507 68.3266 31.8271 68.2706 31.4962 68.2399C31.157 68.2085 30.7749 68.201 30.396 68.2042C30.0164 68.2075 29.633 68.2218 29.2912 68.2351C28.9459 68.2485 28.649 68.2606 28.4304 68.2608L28.4309 68.9327ZM32.1138 69.0485C32.3127 69.1394 32.4765 69.332 32.5965 69.6025C32.7156 69.8709 32.7759 70.1829 32.7873 70.4506L33.4586 70.422C33.4443 70.0863 33.3699 69.6889 33.2107 69.33C33.0524 68.9732 32.7943 68.6208 32.3931 68.4374L32.1138 69.0485ZM32.7873 70.4506C32.8056 70.881 32.635 71.4027 32.3509 71.6955L32.8332 72.1633C33.2674 71.7156 33.4833 71.0032 33.4586 70.422L32.7873 70.4506ZM32.351 71.6955C32.2341 71.8159 32.0623 71.8902 31.8556 71.9156L31.9375 72.5825C32.25 72.5441 32.5809 72.4233 32.8331 72.1634L32.351 71.6955ZM31.8557 71.9156C31.1665 72 30.2438 72.0076 29.2885 71.9927C28.3468 71.978 27.363 71.9409 26.6013 71.9409V72.6128C27.3603 72.6128 28.3095 72.6494 29.278 72.6645C30.2328 72.6794 31.1973 72.6731 31.9374 72.5825L31.8557 71.9156ZM26.6015 71.9409L15.5955 71.9336L15.5951 72.6054L26.6011 72.6128L26.6015 71.9409ZM15.5979 71.9336C14.128 71.9221 13.1002 71.7356 12.0961 70.7254L11.6195 71.199C12.8081 72.3949 14.0537 72.5934 15.5927 72.6054L15.5979 71.9336ZM12.0961 70.7253C11.6006 70.227 11.2562 69.5768 11.0832 68.8854L10.4314 69.0485C10.6304 69.8436 11.0293 70.6054 11.6196 71.199L12.0961 70.7253ZM11.0832 68.8854C11.0026 68.5635 10.9483 68.0419 10.9162 67.3917C10.8845 66.7483 10.8753 66.0015 10.8782 65.2412C10.8839 63.716 10.9375 62.1661 10.9515 61.2897L10.2797 61.279C10.2661 62.1335 10.212 63.7118 10.2063 65.2386C10.2034 66.0043 10.2126 66.7644 10.2452 67.4248C10.2774 68.0784 10.3335 68.6573 10.4314 69.0486L11.0832 68.8854ZM10.9514 61.2911C10.9528 61.2209 10.9558 61.1506 10.9605 61.0804L10.29 61.0363C10.2847 61.1167 10.2813 61.1972 10.2797 61.2777L10.9514 61.2911ZM10.6288 60.7224C9.48904 60.7103 8.34923 60.7053 7.2094 60.7073L7.21058 61.3792C8.34765 61.3772 9.48468 61.3822 10.6217 61.3943L10.6288 60.7224ZM7.20944 60.7073C6.15497 60.709 5.11284 60.7567 4.12454 60.6109C3.14955 60.4671 2.26577 60.1385 1.54092 59.4098L1.06458 59.8836C1.92345 60.747 2.96029 61.1183 4.0265 61.2756C5.07939 61.4309 6.19902 61.3808 7.21053 61.3792L7.20944 60.7073ZM1.54091 59.4098C1.28373 59.1513 1.01987 58.7844 0.821407 58.3854C0.621462 57.9834 0.50156 57.5765 0.501511 57.2356L-0.170373 57.2357C-0.170303 57.7175 -0.00638768 58.2298 0.219841 58.6846C0.447549 59.1424 0.752217 59.5697 1.06459 59.8837L1.54091 59.4098ZM4.85342 3.38882C4.73587 3.3941 4.53232 3.39286 4.36309 3.41085C4.18168 3.43012 3.9663 3.47534 3.7734 3.60526L4.14873 4.16253C4.21029 4.12107 4.2998 4.09324 4.43408 4.07897C4.58053 4.06341 4.70347 4.06812 4.8836 4.06002L4.85342 3.38882ZM3.69405 3.68003C3.63596 3.75611 3.60895 3.84731 3.59475 3.90113C3.57727 3.96731 3.56303 4.04457 3.55086 4.12777C3.52639 4.29499 3.50644 4.51344 3.48986 4.77156C3.4566 5.28932 3.43533 5.99216 3.42259 6.81837C3.3971 8.47207 3.40554 10.6384 3.42299 12.8467C3.44046 15.0574 3.46694 17.3078 3.47771 19.1389C3.48853 20.9789 3.48305 22.3668 3.43932 22.8647L4.10862 22.9235C4.15585 22.3859 4.16029 20.957 4.14958 19.135C4.13881 17.3041 4.11228 15.0471 4.09485 12.8413C4.0774 10.6331 4.06903 8.47377 4.0944 6.82873C4.10709 6.00556 4.12817 5.31577 4.16036 4.81464C4.17651 4.56332 4.19507 4.36576 4.21566 4.22504C4.22602 4.15426 4.23594 4.10457 4.24437 4.07264C4.25607 4.02834 4.2567 4.05027 4.22807 4.08776L3.69405 3.68003ZM3.77407 23.23L50.22 23.2158L50.2198 22.5439L3.77387 22.5581L3.77407 23.23ZM50.2133 23.2157C50.2745 23.2169 50.3416 23.2209 50.4232 23.2252C50.5015 23.2293 50.5899 23.2335 50.6795 23.2335C50.8509 23.2335 51.0689 23.2189 51.2631 23.1291L50.981 22.5193C50.9242 22.5456 50.8279 22.5616 50.6793 22.5616C50.6089 22.5617 50.5359 22.5583 50.4587 22.5542C50.3847 22.5503 50.302 22.5454 50.2265 22.5439L50.2133 23.2157ZM51.457 22.8496C51.5475 21.6544 51.4916 20.4162 51.4899 19.2553L50.8181 19.2562C50.8198 20.4581 50.8749 21.6379 50.787 22.7988L51.457 22.8496ZM51.4899 19.2553L51.4809 12.8306L50.809 12.8316L50.8181 19.2562L51.4899 19.2553ZM51.4809 12.8311L51.4802 7.35184L50.8083 7.35192L50.809 12.8312L51.4809 12.8311ZM51.4802 7.35159C51.4792 6.21837 51.5482 4.95294 51.3789 3.77226L50.7138 3.86768C50.8742 4.98564 50.8073 6.16495 50.8083 7.35217L51.4802 7.35159ZM51.0709 3.48493C48.3111 3.28231 45.5002 3.38192 42.766 3.38502L42.7667 4.05691C45.5323 4.05377 48.2952 3.95483 51.0217 4.15501L51.0709 3.48493ZM42.766 3.38502L29.024 3.39827L29.0246 4.07015L42.7667 4.05691L42.766 3.38502ZM29.0247 3.39827L12.7952 3.38197L12.7945 4.05385L29.024 4.07015L29.0247 3.39827ZM12.795 3.38197C10.1927 3.38094 7.4781 3.25379 4.85125 3.38892L4.88577 4.05992C7.49152 3.92587 10.1475 4.05281 12.7947 4.05385L12.795 3.38197ZM0.500228 3.79781C0.56214 3.36281 0.687648 2.94748 0.877111 2.5507L0.270804 2.26119C0.0519524 2.71951 -0.0934191 3.20054 -0.164952 3.70314L0.500228 3.79781ZM0.876814 2.55132C1.47164 1.31215 2.63589 0.799628 3.99578 0.316562L3.77088 -0.316562C2.41961 0.163442 0.996904 0.748541 0.271101 2.26057L0.876814 2.55132ZM0.500893 57.2153C0.394838 55.4692 0.491819 53.6969 0.494414 51.9073L-0.177469 51.9063C-0.179991 53.6462 -0.277387 55.484 -0.169755 57.256L0.500893 57.2153ZM0.494414 51.9065L0.487189 41.1267L-0.184694 41.1271L-0.177469 51.907L0.494414 51.9065ZM0.485579 18.5776C0.616572 13.6515 0.455089 8.66106 0.503563 3.7538L-0.168287 3.74716C-0.217295 8.70845 -0.0548524 13.6253 -0.186067 18.5597L0.485579 18.5776ZM0.486773 41.1436C0.641571 38.0338 0.497485 34.8309 0.493625 31.7449L-0.178258 31.7457C-0.174345 34.8736 -0.0305344 38.0215 -0.184279 41.1102L0.486773 41.1436ZM0.493625 31.7449C0.488147 27.3665 0.573801 22.9521 0.48563 18.5619L-0.186118 18.5754C-0.0980852 22.9587 -0.183761 27.3472 -0.178258 31.7457L0.493625 31.7449Z" fill="#FF51CE" mask="url(#path-5-inside-5_3445_1323)"/>
</g>
<g id="Vector_6">
<mask id="path-7-inside-6_3445_1323" fill="white">
<path d="M0 23.7984C0.267495 22.8335 -0.060854 19.9342 0.149756 18.5686C0.237858 22.9554 0.152193 27.3568 0.157683 31.7453C0.16157 34.8522 0.305518 38.0276 0.151247 41.1269C-0.112489 37.3763 0.0775331 33.5278 0.0414752 29.7626C0.0301342 28.5783 0.188821 27.2517 0 26.0896V23.7984Z"/>
</mask>
<path d="M0 23.7984C0.267495 22.8335 -0.060854 19.9342 0.149756 18.5686C0.237858 22.9554 0.152193 27.3568 0.157683 31.7453C0.16157 34.8522 0.305518 38.0276 0.151247 41.1269C-0.112489 37.3763 0.0775331 33.5278 0.0414752 29.7626C0.0301342 28.5783 0.188821 27.2517 0 26.0896V23.7984Z" fill="#FF51CE" fill-opacity="0.533333" stroke="#FF51CE" stroke-width="0.671883" mask="url(#path-7-inside-6_3445_1323)"/>
</g>
<g id="Vector_7">
<mask id="path-8-inside-7_3445_1323" fill="white">
<path d="M0.167638 3.75049C0.118897 8.68477 0.28086 13.6384 0.149756 18.5686C-0.060854 19.9342 0.267495 22.8335 0 23.7985V4.33335C0.0412225 4.13883 0.111417 3.94179 0.167638 3.75049Z"/>
</mask>
<path d="M0.167638 3.75049C0.118897 8.68477 0.28086 13.6384 0.149756 18.5686C-0.060854 19.9342 0.267495 22.8335 0 23.7985V4.33335C0.0412225 4.13883 0.111417 3.94179 0.167638 3.75049Z" fill="#FF51CE" fill-opacity="0.333333" stroke="#FF51CE" stroke-width="0.671883" mask="url(#path-8-inside-7_3445_1323)"/>
</g>
<g id="Vector_8">
<mask id="path-9-inside-8_3445_1323" fill="white">
<path d="M0 26.0896C0.188821 27.2516 0.0301342 28.5783 0.0414752 29.7625C0.077533 33.5278 -0.112489 37.3763 0.151247 41.1269L0.158472 51.9067C0.155914 53.6715 0.0587253 55.4765 0.165569 57.2356L0 56.7681V26.0896Z"/>
</mask>
<path d="M0 26.0896C0.188821 27.2516 0.0301342 28.5783 0.0414752 29.7625C0.077533 33.5278 -0.112489 37.3763 0.151247 41.1269L0.158472 51.9067C0.155914 53.6715 0.0587253 55.4765 0.165569 57.2356L0 56.7681V26.0896Z" fill="#FF51CE" fill-opacity="0.34902" stroke="#FF51CE" stroke-width="0.671883" mask="url(#path-9-inside-8_3445_1323)"/>
</g>
<g id="Vector_9">
<mask id="path-10-inside-9_3445_1323" fill="white">
<path d="M40.0501 13.9309C41.2235 13.8994 42.4013 13.9178 43.575 13.9167L43.5605 21.1216L40.0511 21.129C39.9855 18.7357 40.0353 16.3258 40.0501 13.9309Z"/>
</mask>
<path d="M40.0501 13.9309C41.2235 13.8994 42.4013 13.9178 43.575 13.9167L43.5605 21.1216L40.0511 21.129C39.9855 18.7357 40.0353 16.3258 40.0501 13.9309Z" fill="#FF51CE" stroke="#FF51CE" stroke-width="0.671883" mask="url(#path-10-inside-9_3445_1323)"/>
</g>
<g id="Vector_10">
<mask id="path-11-inside-10_3445_1323" fill="white">
<path d="M25.0249 13.9149C26.2128 13.8984 27.4006 13.9021 28.5883 13.9261C28.7217 16.1916 28.6724 18.8389 28.5798 21.1084C27.4034 21.157 26.2271 21.1544 25.0509 21.1005C24.8436 19.0168 24.9692 16.0482 25.0249 13.9149Z"/>
</mask>
<path d="M25.0249 13.9149C26.2128 13.8984 27.4006 13.9021 28.5883 13.9261C28.7217 16.1916 28.6724 18.8389 28.5798 21.1084C27.4034 21.157 26.2271 21.1544 25.0509 21.1005C24.8436 19.0168 24.9692 16.0482 25.0249 13.9149Z" fill="#FF51CE" stroke="#FF51CE" stroke-width="0.671883" mask="url(#path-11-inside-10_3445_1323)"/>
</g>
<g id="Vector_11">
<mask id="path-12-inside-11_3445_1323" fill="white">
<path d="M10.5559 10.2734C11.536 10.2398 12.5358 10.2206 13.5149 10.2801C13.5761 11.3995 13.6646 20.4549 13.4695 21.0294C13.2327 21.2061 12.8413 21.1643 12.5552 21.1715C11.7299 21.2384 10.8655 21.198 10.0357 21.205C9.84132 19.2873 9.96448 17.2404 9.96081 15.3105C9.95782 13.7334 9.80286 11.9692 10.0265 10.4122C10.1859 10.2614 10.3408 10.2922 10.5559 10.2734Z"/>
</mask>
<path d="M10.5559 10.2734C11.536 10.2398 12.5358 10.2206 13.5149 10.2801C13.5761 11.3995 13.6646 20.4549 13.4695 21.0294C13.2327 21.2061 12.8413 21.1643 12.5552 21.1715C11.7299 21.2384 10.8655 21.198 10.0357 21.205C9.84132 19.2873 9.96448 17.2404 9.96081 15.3105C9.95782 13.7334 9.80286 11.9692 10.0265 10.4122C10.1859 10.2614 10.3408 10.2922 10.5559 10.2734Z" fill="#FF51CE" stroke="#FF51CE" stroke-width="0.671883" mask="url(#path-12-inside-11_3445_1323)"/>
</g>
<g id="Vector_12">
<mask id="path-13-inside-12_3445_1323" fill="white">
<path d="M17.5071 8.2128C18.6821 8.18812 19.8572 8.18724 21.0323 8.21015L21.0291 16.8043C21.0288 18.2212 21.1271 19.7228 20.993 21.1313C19.8307 21.1974 18.6722 21.2006 17.5085 21.1993C17.4768 16.8705 17.4763 12.5417 17.5071 8.2128Z"/>
</mask>
<path d="M17.5071 8.2128C18.6821 8.18812 19.8572 8.18724 21.0323 8.21015L21.0291 16.8043C21.0288 18.2212 21.1271 19.7228 20.993 21.1313C19.8307 21.1974 18.6722 21.2006 17.5085 21.1993C17.4768 16.8705 17.4763 12.5417 17.5071 8.2128Z" fill="#FF51CE" stroke="#FF51CE" stroke-width="0.671883" mask="url(#path-13-inside-12_3445_1323)"/>
</g>
<g id="Vector_13">
<mask id="path-14-inside-13_3445_1323" fill="white">
<path d="M33.6151 8.1728C34.4251 8.12973 35.2688 8.14613 36.075 8.23296C36.2271 12.5183 36.0858 16.8555 36.0764 21.1469L34.8064 21.1919L32.582 21.2089C32.3561 19.7158 32.4965 18.0345 32.4991 16.5223L32.5112 8.21073L33.6151 8.1728Z"/>
</mask>
<path d="M33.6151 8.1728C34.4251 8.12973 35.2688 8.14613 36.075 8.23296C36.2271 12.5183 36.0858 16.8555 36.0764 21.1469L34.8064 21.1919L32.582 21.2089C32.3561 19.7158 32.4965 18.0345 32.4991 16.5223L32.5112 8.21073L33.6151 8.1728Z" fill="#FF51CE" stroke="#FF51CE" stroke-width="0.671883" mask="url(#path-14-inside-13_3445_1323)"/>
</g>
</g>
</svg>
