<svg width="141" height="31" viewBox="0 0 141 31" fill="none" xmlns="http://www.w3.org/2000/svg">
<g clip-path="url(#clip0_2690_503)">
<path d="M49.6256 17.7808L48.7877 20.1547H48.7179C48.5782 19.6194 48.3222 18.8048 47.9033 17.8273L43.4113 6.53921H39.0125V24.5303H41.9218V13.4284C41.9218 12.7302 41.9218 11.9389 41.8985 10.9613C41.8752 10.4726 41.8287 10.1002 41.8054 9.8209H41.8752C42.0148 10.5191 42.1778 11.0312 42.2941 11.357L47.6938 24.4838H49.742L55.0951 11.2406C55.2114 10.9381 55.3278 10.3329 55.4442 9.8209H55.514C55.4442 11.1475 55.3976 12.3345 55.3744 13.056V24.4605H58.4699V6.49266H54.2339L49.6256 17.7808ZM61.4024 11.5665H64.4281V24.4605H61.4024V11.5665ZM62.9386 6.12027C62.4265 6.12027 62.0076 6.30646 61.6585 6.6323C61.3093 6.95815 61.1232 7.37709 61.1232 7.88912C61.1232 8.37789 61.3093 8.79683 61.6585 9.12267C62.0076 9.44851 62.4265 9.61143 62.9386 9.61143C63.4506 9.61143 63.8928 9.42523 64.2187 9.12267C64.5678 8.79683 64.754 8.37789 64.754 7.88912C64.754 7.40036 64.5678 6.98142 64.2187 6.6323C63.9161 6.30646 63.4739 6.12027 62.9386 6.12027ZM75.1576 11.4501C74.599 11.3337 74.0172 11.2639 73.4586 11.2639C72.0854 11.2639 70.8286 11.5665 69.7812 12.1716C68.7339 12.7768 67.896 13.6146 67.3607 14.662C66.8021 15.7326 66.5228 16.9661 66.5228 18.3859C66.5228 19.6194 66.8021 20.7133 67.3374 21.7141C67.8727 22.6917 68.6175 23.483 69.6183 24.0183C70.5726 24.5536 71.6897 24.8329 72.9466 24.8329C74.3896 24.8329 75.6231 24.5303 76.6006 23.9718L76.6239 23.9485V21.1555L76.5075 21.2486C76.0653 21.5745 75.5533 21.8538 75.0413 22.0167C74.5059 22.2029 74.0172 22.296 73.5982 22.296C72.388 22.296 71.4337 21.9469 70.7588 21.1788C70.0605 20.434 69.7114 19.41 69.7114 18.1299C69.7114 16.8032 70.0605 15.7559 70.782 14.9878C71.5035 14.2198 72.4578 13.8241 73.6215 13.8241C74.599 13.8241 75.5998 14.1499 76.5075 14.8016L76.6239 14.8947V11.9389L76.6006 11.9156C76.205 11.7527 75.7628 11.5665 75.1576 11.4501ZM85.1424 11.357C84.3976 11.357 83.6993 11.5898 83.0942 12.0785C82.5822 12.4975 82.2331 13.1026 81.9305 13.8241H81.9072V11.5665H78.8815V24.4605H81.9072V17.8738C81.9072 16.7567 82.14 15.8257 82.652 15.1507C83.164 14.4525 83.8157 14.1034 84.607 14.1034C84.8863 14.1034 85.1656 14.1732 85.5147 14.2198C85.8406 14.3129 86.0733 14.406 86.2363 14.5223L86.3526 14.6154V11.5898L86.2828 11.5665C86.0733 11.4268 85.6544 11.357 85.1424 11.357ZM93.3815 11.2872C91.2635 11.2872 89.5645 11.9156 88.3775 13.1491C87.1672 14.3827 86.5854 16.0817 86.5854 18.223C86.5854 20.2246 87.1905 21.8538 88.3542 23.0408C89.518 24.2045 91.1006 24.8096 93.0789 24.8096C95.1504 24.8096 96.8028 24.1812 97.9898 22.9244C99.2001 21.6676 99.782 19.9918 99.782 17.9204C99.782 15.8723 99.2234 14.243 98.0829 13.056C96.989 11.8691 95.3831 11.2872 93.3815 11.2872ZM95.802 21.2021C95.2435 21.9236 94.359 22.2727 93.2651 22.2727C92.1712 22.2727 91.2868 21.9236 90.6584 21.1555C90.03 20.434 89.7274 19.3867 89.7274 18.06C89.7274 16.6869 90.0533 15.6395 90.6584 14.8947C91.2868 14.1499 92.148 13.7776 93.2419 13.7776C94.3125 13.7776 95.1504 14.1267 95.7555 14.8482C96.3606 15.5697 96.6865 16.617 96.6865 17.9902C96.6399 19.3867 96.3839 20.4806 95.802 21.2021ZM106.532 16.9196C105.577 16.5239 104.972 16.2214 104.693 15.9653C104.46 15.7326 104.344 15.4068 104.344 14.9878C104.344 14.6387 104.483 14.2896 104.833 14.0568C105.182 13.8241 105.577 13.7077 106.159 13.7077C106.671 13.7077 107.207 13.8008 107.719 13.9405C108.231 14.0801 108.696 14.2896 109.068 14.5689L109.185 14.662V11.8225L109.115 11.7992C108.766 11.6596 108.3 11.5199 107.742 11.4036C107.183 11.3105 106.671 11.2639 106.252 11.2639C104.809 11.2639 103.622 11.613 102.691 12.3811C101.76 13.1026 101.318 14.0801 101.318 15.2206C101.318 15.8257 101.411 16.361 101.621 16.8032C101.83 17.2454 102.133 17.6644 102.552 18.0135C102.971 18.3393 103.576 18.7117 104.414 19.0608C105.112 19.3634 105.647 19.5962 105.973 19.7824C106.299 19.9685 106.508 20.178 106.671 20.3409C106.788 20.5271 106.857 20.7599 106.857 21.0624C106.857 21.9236 106.206 22.3425 104.879 22.3425C104.367 22.3425 103.832 22.2494 103.203 22.04C102.575 21.8305 101.993 21.5279 101.504 21.1788L101.388 21.0857V24.0416L101.458 24.0648C101.9 24.2743 102.435 24.414 103.087 24.5769C103.739 24.6933 104.32 24.7864 104.833 24.7864C106.392 24.7864 107.672 24.4372 108.58 23.6692C109.511 22.9244 109.999 21.9701 109.999 20.7366C109.999 19.8755 109.767 19.1074 109.255 18.5255C108.58 17.9669 107.742 17.3851 106.532 16.9196ZM117.983 11.2872C115.865 11.2872 114.166 11.9156 112.979 13.1491C111.792 14.3827 111.186 16.0817 111.186 18.223C111.186 20.2246 111.792 21.8538 112.955 23.0408C114.119 24.2045 115.702 24.8096 117.68 24.8096C119.751 24.8096 121.404 24.1812 122.591 22.9244C123.801 21.6676 124.383 19.9918 124.383 17.9204C124.383 15.8723 123.824 14.243 122.684 13.056C121.59 11.8691 119.984 11.2872 117.983 11.2872ZM120.38 21.2021C119.821 21.9236 118.937 22.2727 117.843 22.2727C116.726 22.2727 115.865 21.9236 115.236 21.1555C114.608 20.434 114.305 19.3867 114.305 18.06C114.305 16.6869 114.631 15.6395 115.236 14.8947C115.865 14.1499 116.726 13.7776 117.82 13.7776C118.867 13.7776 119.728 14.1267 120.333 14.8482C120.938 15.5697 121.264 16.617 121.264 17.9902C121.264 19.3867 120.962 20.4806 120.38 21.2021ZM140.559 14.0568V11.5665H137.51V7.74948L137.417 7.77275L134.531 8.6339L134.461 8.65718V11.5665H129.899V9.93727C129.899 9.19249 130.085 8.61063 130.411 8.23824C130.737 7.86585 131.226 7.67965 131.831 7.67965C132.25 7.67965 132.692 7.77275 133.181 7.98222L133.297 8.05204V5.42203L133.227 5.39876C132.808 5.25911 132.25 5.16602 131.528 5.16602C130.621 5.16602 129.829 5.37549 129.108 5.7246C128.386 6.12027 127.851 6.65558 127.455 7.37709C127.06 8.07532 126.85 8.86665 126.85 9.77435V11.5665H124.732V14.0336H126.85V24.4605H129.899V14.0568H134.461V20.6901C134.461 23.4132 135.741 24.7864 138.301 24.7864C138.72 24.7864 139.162 24.7165 139.581 24.6467C140.023 24.5536 140.349 24.4372 140.535 24.3441L140.559 24.3209V21.8305L140.442 21.9236C140.256 22.04 140.093 22.1331 139.814 22.2029C139.581 22.2727 139.372 22.296 139.209 22.296C138.604 22.296 138.185 22.1563 137.882 21.8072C137.603 21.4814 137.463 20.9461 137.463 20.1547V14.0568H140.559Z" fill="#737373"/>
<path d="M0.0045166 0.488037H14.2717V14.7553H0.0045166V0.488037Z" fill="#F25022"/>
<path d="M15.7614 0.488037H30.0286V14.7553H15.7614V0.488037Z" fill="#7FBA00"/>
<path d="M0.0045166 16.2446H14.2717V30.5119H0.0045166V16.2446Z" fill="#00A4EF"/>
<path d="M15.7614 16.2446H30.0286V30.5119H15.7614V16.2446Z" fill="#FFB900"/>
</g>
<defs>
<clipPath id="clip0_2690_503">
<rect width="140.562" height="30.024" fill="white" transform="translate(0.000244141 0.488037)"/>
</clipPath>
</defs>
</svg>
