<svg width="24" height="25" viewBox="0 0 24 25" fill="none" xmlns="http://www.w3.org/2000/svg">
<path d="M12.7466 7.66895L11.2537 11.0281" stroke="#F1F1F1" stroke-linecap="round" stroke-linejoin="round"/>
<path d="M13.7498 7.78027L16.2552 9.34866L13.7498 10.9157" stroke="#F1F1F1" stroke-linecap="round" stroke-linejoin="round"/>
<path d="M10.2503 7.78027L7.74487 9.34866L10.2503 10.9157" stroke="#F1F1F1" stroke-linecap="round" stroke-linejoin="round"/>
<path d="M19.4594 4H4.54059C3.68974 4 3 4.68974 3 5.54059V15.3638C3 16.2147 3.68974 16.9044 4.54059 16.9044H19.4594C20.3103 16.9044 21 16.2147 21 15.3638V5.54059C21 4.68974 20.3103 4 19.4594 4Z" stroke="#F1F1F1" stroke-linecap="round" stroke-linejoin="round"/>
<path d="M3 14.4209L20.865 14.4209" stroke="#F1F1F1" stroke-linecap="round" stroke-linejoin="round"/>
<path d="M7.8811 21.3359H16.1187" stroke="#F1F1F1" stroke-linecap="round" stroke-linejoin="round"/>
<path d="M10.6459 17.292L10.5705 17.9921L8.98755 21.3354" stroke="#F1F1F1" stroke-linecap="round" stroke-linejoin="round"/>
<path d="M13.354 17.292L13.4308 17.9921L15.0124 21.3354" stroke="#F1F1F1" stroke-linecap="round" stroke-linejoin="round"/>
<path d="M19.4594 4H4.54059C3.68974 4 3 4.68974 3 5.54059V15.3638C3 16.2147 3.68974 16.9044 4.54059 16.9044H19.4594C20.3103 16.9044 21 16.2147 21 15.3638V5.54059C21 4.68974 20.3103 4 19.4594 4Z" stroke="#F1F1F1" stroke-linecap="round" stroke-linejoin="round"/>
<path d="M7.8811 21.3359H16.1187" stroke="#F1F1F1" stroke-linecap="round" stroke-linejoin="round"/>
<path d="M10.6459 17.292L10.5705 17.9921L8.98755 21.3354" stroke="#F1F1F1" stroke-linecap="round" stroke-linejoin="round"/>
<path d="M13.354 17.292L13.4308 17.9921L15.0124 21.3354" stroke="#F1F1F1" stroke-linecap="round" stroke-linejoin="round"/>
</svg>
