<svg width="78" height="61" viewBox="0 0 78 61" fill="none" xmlns="http://www.w3.org/2000/svg">
<path fill-rule="evenodd" clip-rule="evenodd" d="M11.1929 31.6538C17.3154 30.094 23.7092 33.2429 25.4648 38.6826C27.2204 44.1223 23.6762 49.8031 17.5537 51.3629C15.5174 51.8817 13.465 51.869 11.54 51.4438L10.9033 51.2869L4.84343 61L0.818754 59.0179L6.87226 49.2851C5.21624 48.0219 3.93064 46.3445 3.28183 44.3341C1.52624 38.8944 5.07039 33.2136 11.1929 31.6538ZM45 53.3088V58.6397H33V53.3088H45ZM57 42.647V47.9779H33V42.647H57ZM21.0282 39.8129C19.9787 36.5609 16.1252 34.6631 12.4651 35.5956C8.80487 36.5281 6.66888 39.9518 7.71843 43.2038C8.76797 46.4558 12.6214 48.3536 16.2816 47.4211C19.9418 46.4886 22.0777 43.0649 21.0282 39.8129ZM69 31.9853V37.3162H33V31.9853H69ZM78 21.3235V26.6544H0V21.3235H78ZM78 10.6618V15.9926H0V10.6618H78ZM36.1875 0V5.33088H9V0H36.1875ZM69 0V5.33088H41.8125V0H69Z" fill="#FF51CE"/>
</svg>
