<svg width="391" height="244" viewBox="0 0 391 244" fill="none" xmlns="http://www.w3.org/2000/svg">
<path d="M186.908 125.015C184.37 126.9 181.307 129.927 180.193 134.252C179.388 137.464 180.162 139.348 179.883 143.488C179.697 146.36 178.955 150.407 176.572 155.226C171.156 154.114 162.058 153.033 151.319 155.504C144.913 156.987 139.776 159.303 136 161.404C136.588 161.775 137.393 162.207 138.414 162.485C144.201 164.06 150.298 159.211 150.483 159.551C150.669 159.859 143.675 163.134 144.046 165.976C144.294 167.891 147.729 168.91 151.288 169.991C154.29 170.887 157.137 171.752 160.943 171.32C166.174 170.733 169.794 168.107 171.404 166.748C172.951 167.52 175.241 168.54 178.119 169.435C183.411 171.042 190.715 173.266 195.573 170.239C198.73 168.262 199.689 163.628 201.484 154.423C203.651 143.21 204.672 137.588 201.763 132.985C197.956 126.838 190.127 125.417 186.908 125.015Z" fill="white" stroke="#18191C" stroke-width="0.992132" stroke-miterlimit="10"/>
<path d="M175.581 155.568C179.326 156.958 182.42 159.491 184.556 162.858C184.865 163.352 185.67 162.889 185.36 162.394C183.101 158.811 179.79 156.155 175.828 154.672C175.24 154.456 175.024 155.351 175.581 155.568Z" fill="#18191C"/>
<path d="M155.652 161.652C151.969 162.27 148.998 164.741 147.667 168.201C147.451 168.757 148.348 169.004 148.565 168.448C149.772 165.297 152.557 163.104 155.899 162.548C156.487 162.455 156.24 161.559 155.652 161.652Z" fill="#18191C"/>
<path d="M159.984 164.74C158.653 165.543 157.415 166.47 156.239 167.459C155.466 168.138 154.599 168.941 154.785 170.053C155.249 172.988 158.777 172.339 160.696 171.598C161.253 171.382 161.005 170.486 160.448 170.702C159.612 171.011 158.684 171.413 157.787 171.382C156.332 171.32 155.032 169.93 156.27 168.663C157.446 167.428 158.994 166.439 160.448 165.513C160.943 165.204 160.479 164.401 159.984 164.74Z" fill="#18191C"/>
<path d="M215.782 86.9897C214.203 87.5149 212.192 88.318 209.933 89.4301C209.283 89.739 207.643 90.573 205.879 91.7159C203.155 93.4458 201.175 95.2683 198.916 97.5542C196.037 100.489 193.128 103.423 189.662 108.119C186.753 112.073 182.235 118.281 178.986 127.394C177.686 131.008 176.943 134.128 176.51 136.352C178.212 135.364 179.759 134.869 180.966 134.591C187.929 133.016 194.614 136.537 200.958 139.843C203.341 141.078 205.229 142.283 206.529 143.117C207.209 139.781 207.89 136.414 208.571 133.078C209.159 130.267 209.716 127.425 210.304 124.614C211.202 123.842 212.409 122.699 213.739 121.216C216.246 118.374 221.228 112.721 221.909 104.875C222.745 95.8243 217.36 88.9049 215.782 86.9897Z" fill="#0B78EB"/>
<path d="M213.956 87.3593C210.645 87.8535 207.798 89.6142 205.229 91.653C202.258 93.9697 199.473 96.5336 196.874 99.2519C191.798 104.503 187.373 110.372 183.721 116.705C183.412 117.23 184.216 117.693 184.526 117.168C188.054 111.052 192.262 105.368 197.152 100.271C199.535 97.8001 202.042 95.4524 204.672 93.2593C207.488 90.9425 210.49 88.7802 214.204 88.2242C214.792 88.1624 214.544 87.2666 213.956 87.3593Z" fill="#18191C"/>
<path d="M212.656 121.092C210.366 123.409 208.014 125.664 205.631 127.857C205.198 128.259 205.848 128.908 206.281 128.506C208.664 126.313 211.016 124.058 213.306 121.741C213.708 121.309 213.059 120.66 212.656 121.092Z" fill="#18191C"/>
<path d="M209.437 125.324C208.354 131.255 207.302 137.217 206.219 143.148C206.435 143.055 206.683 142.963 206.9 142.87C201.979 139.441 196.501 136.877 190.683 135.271C186.134 134.035 180.347 132.831 176.448 136.26C176.014 136.661 176.664 137.31 177.097 136.908C181.059 133.387 187.465 135.24 191.952 136.599C197.12 138.175 201.979 140.584 206.404 143.642C206.652 143.797 207.023 143.642 207.085 143.364C208.168 137.433 209.221 131.472 210.304 125.541C210.428 124.985 209.53 124.737 209.437 125.324Z" fill="#18191C"/>
<path d="M183.937 116.275C180.719 122.545 176.696 129.001 176.417 136.261C176.386 136.848 177.314 136.848 177.345 136.261C177.624 129.187 181.585 122.885 184.742 116.738C184.989 116.213 184.185 115.75 183.937 116.275Z" fill="#18191C"/>
<path opacity="0.4" d="M211.449 104.597C205.91 115.594 202.908 124.861 201.144 131.348C198.575 140.862 197.678 148.369 191.024 154.608C189.941 155.628 186.753 158.562 181.74 160.385C171.218 164.184 163.419 159.057 156.796 164.493C156.054 165.111 153.856 166.656 154.104 168.416C154.352 170.084 156.642 170.949 156.982 171.104C159.706 172.154 162.522 171.073 166.05 169.652C170.042 168.046 169.609 167.49 171.404 167.181C175.179 166.532 176.912 168.911 181.926 170.486C184.061 171.135 190.374 173.112 194.923 170.486C198.266 168.54 199.287 164.895 200.896 158.748C202.01 154.578 203.155 148.492 202.97 140.831C204.208 141.789 205.445 142.747 206.683 143.704C208.293 130.669 209.871 117.633 211.449 104.597Z" fill="#042852"/>
<path opacity="0.38" d="M209.593 117.972C205.353 125.973 203.28 132.738 202.166 137.31C199.937 146.484 200.649 150.809 197.616 157.265C194.367 164.277 189.106 168.725 185.454 171.258C187.497 171.721 192.417 172.586 195.976 169.806C198.483 167.86 199.133 165.08 200.092 160.539C201.299 154.948 202.568 148.585 203.806 141.603C204.765 142.221 205.724 142.839 206.684 143.457C207.674 134.993 208.634 126.467 209.593 117.972Z" fill="#042852"/>
<path d="M215.132 86.3726C214.018 93.6317 212.935 100.953 211.883 108.305C207.798 136.816 204.27 164.833 201.299 192.387C201.361 193.314 201.609 194.797 202.537 196.28C203.465 197.793 204.703 198.565 205.291 198.967C210.924 202.983 213.74 205.021 216.587 206.381C230.235 212.96 245.337 212.188 245.337 212.188C248.524 212.033 254.869 211.632 261.677 208.914C262.048 208.759 264.648 207.554 269.847 205.114C274.551 202.921 275.387 202.488 276.532 201.438C279.255 198.936 280.307 195.847 281.019 193.654C282.535 188.989 282.381 185.036 282.319 184.078C282.319 184.078 282.009 176.386 281.793 131.472C281.762 122.329 282.659 108.891 287.487 92.3035C282.474 89.8632 277.77 87.6082 272.106 84.8898C268.207 83.0056 264.586 81.2757 259.387 80.6579C257.902 80.4726 256.571 80.4108 254.59 80.4417C246.544 80.5034 239.921 81.739 237.074 82.2333C231.534 83.1291 224.045 84.4883 215.132 86.3726Z" fill="#0B78EB"/>
<path d="M214.885 87.4536C224.478 85.4149 234.165 83.7777 243.882 82.573C244.316 82.5112 244.563 81.9552 244.13 81.7081C244.006 81.6463 243.882 81.5536 243.728 81.4918C243.202 81.1829 242.737 81.9861 243.263 82.295C243.387 82.3568 243.511 82.4494 243.666 82.5112C243.759 82.2332 243.821 81.9243 243.913 81.6463C234.103 82.851 224.324 84.4882 214.668 86.5578C214.049 86.6814 214.297 87.5772 214.885 87.4536Z" fill="#18191C"/>
<path d="M212.007 103.639C208.603 127.857 205.509 152.105 202.723 176.416C202.383 179.474 202.042 182.501 201.702 185.559C201.424 188.216 200.65 191.212 200.99 193.869C201.3 196.216 203.157 197.699 204.859 199.12C206.715 200.665 208.665 202.116 210.708 203.445C219.094 208.851 228.905 212.094 238.87 212.681C250.722 213.36 262.637 210.333 272.757 204.155C273.252 203.846 272.788 203.043 272.293 203.352C254.591 214.133 232.061 214.565 214.019 204.341C211.946 203.167 209.934 201.869 208.015 200.448C206.066 198.997 202.909 197.02 202.104 194.641C201.733 193.498 201.919 192.232 202.042 191.027C202.197 189.513 202.383 187.969 202.538 186.455C202.847 183.613 203.157 180.771 203.497 177.93C204.828 166.346 206.189 154.793 207.675 143.24C209.346 130.112 211.079 116.983 212.936 103.886C212.998 103.299 212.1 103.052 212.007 103.639Z" fill="#18191C"/>
<path d="M257.592 80.3794C263.039 81.4606 268.145 83.9627 273.22 86.0941C278.203 88.1946 283.742 89.8936 288.137 93.1061C288.632 93.4459 289.096 92.6428 288.601 92.303C284.3 89.1522 278.884 87.4841 274.025 85.4454C268.764 83.2522 263.472 80.6265 257.84 79.4836C257.252 79.36 257.004 80.2558 257.592 80.3794Z" fill="#18191C"/>
<path d="M281.855 132.77C281.36 145.774 280.864 158.779 281.329 171.753C281.545 178.054 282.536 184.603 281.36 190.874C280.369 196.032 277.46 201.191 272.292 203.106C271.735 203.322 271.983 204.218 272.54 204.002C280.772 200.944 282.907 191.584 282.783 183.738C282.721 178.425 282.257 173.112 282.133 167.768C282.009 162.331 282.071 156.926 282.164 151.489C282.288 145.249 282.536 139.009 282.752 132.77C282.814 132.152 281.886 132.152 281.855 132.77Z" fill="#18191C"/>
<path opacity="0.38" d="M277.398 125.447C275.758 131.069 273.19 137.217 269.228 143.333C251.496 170.547 219.032 175.984 210.738 177.127C221.879 178.3 233.144 179.567 244.532 180.926C257.097 182.409 269.507 183.984 281.731 185.591C280.957 171.783 280.957 160.415 281.143 152.291C281.483 135.487 282.69 121.895 280.493 121.463C279.967 121.339 279.039 121.926 277.398 125.447Z" fill="#042852"/>
<path opacity="0.42" d="M281.205 135.549C280.091 138.823 278.389 143.456 275.883 148.8C272.355 156.369 268.981 163.659 264.618 168.138C252.425 180.648 228.595 175.242 228.533 176.107C228.502 176.602 237.229 177.992 281.298 182.038C281.298 166.531 281.267 151.055 281.205 135.549Z" fill="#042852"/>
<path d="M288.105 135.703C286.434 136.939 284.639 138.607 282.999 140.8C276.902 148.986 277.738 158.593 278.171 161.713C272.755 160.601 263.657 159.52 252.918 161.991C246.512 163.474 241.375 165.79 237.599 167.891C238.187 168.261 238.992 168.694 240.013 168.972C245.8 170.547 251.897 165.698 252.083 166.037C252.268 166.346 245.274 169.621 245.646 172.463C245.893 174.378 249.328 175.397 252.887 176.478C255.889 177.374 258.736 178.239 262.543 177.807C267.773 177.22 271.394 174.594 273.003 173.235C274.55 174.007 276.84 175.026 279.719 175.922C285.01 177.529 292.314 179.753 297.173 176.725C300.329 174.748 301.289 170.115 303.084 160.91C305.374 149.11 306.519 143.21 303.362 139.472C299.184 134.499 290.798 135.333 288.105 135.703Z" fill="white" stroke="#18191C" stroke-width="0.992132" stroke-miterlimit="10"/>
<path d="M277.119 162.022C280.864 163.413 283.959 165.946 286.094 169.313C286.404 169.807 287.208 169.343 286.899 168.849C284.64 165.266 281.328 162.609 277.367 161.127C276.81 160.941 276.562 161.837 277.119 162.022Z" fill="#18191C"/>
<path d="M257.22 168.139C253.538 168.756 250.567 171.228 249.236 174.687C249.019 175.243 249.917 175.49 250.133 174.934C251.34 171.784 254.126 169.59 257.468 169.034C258.056 168.942 257.808 168.046 257.22 168.139Z" fill="#18191C"/>
<path d="M249.669 175.274C251.587 177.096 254.249 177.714 256.755 176.911C257.313 176.726 257.065 175.83 256.508 176.015C254.311 176.726 251.99 176.231 250.318 174.625C249.885 174.193 249.235 174.841 249.669 175.274Z" fill="#18191C"/>
<path d="M261.521 171.197C260.191 172 258.953 172.927 257.777 173.915C257.003 174.595 256.137 175.398 256.322 176.51C256.787 179.444 260.315 178.796 262.233 178.054C262.79 177.838 262.543 176.942 261.986 177.158C261.15 177.467 260.222 177.869 259.324 177.838C257.87 177.776 256.57 176.386 257.808 175.12C258.984 173.884 260.531 172.896 261.986 171.969C262.512 171.691 262.048 170.888 261.521 171.197Z" fill="#18191C"/>
<path d="M286.558 91.6233C287.827 92.6118 289.467 93.9709 291.2 95.7317C291.695 96.2259 292.964 97.5233 294.233 99.1296C296.213 101.601 297.482 103.948 298.875 106.821C300.67 110.497 302.465 114.173 304.26 119.672C305.776 124.305 308.097 131.595 308.376 141.295C308.499 145.125 308.252 148.338 308.004 150.593C306.735 149.141 305.467 148.183 304.414 147.565C298.504 143.951 291.324 145.249 284.546 146.484C282.009 146.947 279.904 147.503 278.45 147.905C278.821 144.507 279.162 141.109 279.533 137.711C279.842 134.869 280.121 131.997 280.43 129.124C279.842 128.105 279.038 126.653 278.295 124.83C276.841 121.34 273.932 114.482 275.603 106.79C277.583 97.9558 284.546 92.9516 286.558 91.6233Z" fill="#0B78EB"/>
<path d="M287.641 93.3214C290.736 94.9277 292.809 97.7078 294.604 100.581C296.461 103.546 298.132 106.604 299.618 109.755C302.651 116.18 304.879 122.976 306.333 129.926C306.457 130.513 307.355 130.266 307.231 129.679C305.745 122.451 303.393 115.439 300.175 108.766C298.596 105.492 296.863 102.31 294.883 99.2523C293.119 96.534 291.045 94.001 288.136 92.4874C287.579 92.2403 287.115 93.0434 287.641 93.3214Z" fill="#18191C"/>
<path d="M277.985 124.738C279.409 127.642 280.894 130.484 282.442 133.326C282.72 133.851 283.525 133.387 283.246 132.862C281.699 130.02 280.213 127.178 278.79 124.275C278.511 123.719 277.707 124.182 277.985 124.738Z" fill="#18191C"/>
<path d="M280.182 130.052C279.409 136.044 278.635 142.037 277.892 148.03C277.861 148.338 278.233 148.555 278.48 148.462C283.741 146.794 289.219 145.991 294.728 146.176C299.091 146.331 304.878 146.732 307.323 150.995C307.633 151.52 308.406 151.057 308.128 150.532C305.807 146.454 300.731 145.62 296.461 145.342C290.302 144.91 284.113 145.713 278.264 147.566C278.449 147.721 278.666 147.875 278.852 147.999C279.625 142.006 280.399 136.013 281.142 130.021C281.204 129.465 280.275 129.465 280.182 130.052Z" fill="#18191C"/>
<path d="M306.27 129.464C307.354 136.26 309.118 143.457 307.292 150.284C307.137 150.871 308.034 151.118 308.189 150.531C310.046 143.55 308.282 136.198 307.168 129.217C307.075 128.63 306.178 128.877 306.27 129.464Z" fill="#18191C"/>
<path opacity="0.32" d="M284.206 90.4807C287.022 95.732 289.838 102.003 292.221 109.2C296.894 123.41 298.132 136.167 298.225 145.712C295.068 145.898 291.912 146.083 288.755 146.268C289.776 153.589 290.829 160.941 291.85 168.262C289.869 167.119 286.836 165.667 282.937 164.802C281.668 164.524 276.995 163.598 272.013 164.432C261.552 166.192 255.239 174.749 253.816 176.788C255.239 177.375 257.065 177.931 259.262 178.054C266.009 178.456 270.929 174.564 272.384 173.328C276.995 175.645 281.018 176.757 283.865 177.313C288.848 178.332 294.666 179.506 297.884 176.417C298.132 176.17 298.689 175.583 299.896 172.587C301.784 167.83 302.774 163.381 304.074 155.319C304.352 153.527 304.755 151.118 305.157 148.245C305.931 149.017 306.735 149.821 307.509 150.593C307.88 149.203 308.345 147.133 308.592 144.6C309.242 138.021 307.973 132.831 306.766 128.599C301.908 111.486 298.999 101.169 289.281 93.6933C287.27 92.2106 285.413 91.1294 284.206 90.4807Z" fill="#042852"/>
<path opacity="0.29" d="M300.576 111.641C302.65 121.711 302.928 130.268 302.774 136.446C302.619 142.191 302.031 146.392 301.412 150.624C299.586 163.382 298.658 169.745 295.13 172.711C288.445 178.333 276.53 174.07 273.683 172.989C276.376 174.78 286.062 180.866 295.532 177.499C296.522 177.128 297.606 176.665 298.658 175.985C299.772 174.101 301.257 171.197 302.217 167.398C302.774 165.143 302.928 163.505 303.145 161.59C303.486 158.501 304.073 153.991 305.064 148.338C305.961 149.111 306.89 149.883 307.787 150.655C308.097 149.08 308.499 146.67 308.592 143.705C308.87 136.538 307.292 131.102 305.466 124.893C304.476 121.495 302.928 116.923 300.576 111.641Z" fill="#042852"/>
<path d="M215.504 30.554C215.813 33.8592 216.37 38.4927 217.608 43.9603C218.413 47.5126 218.908 49.7676 219.96 52.5786C221.539 56.8106 224.54 64.9037 232.37 70.186C234.258 71.4833 237.384 73.2132 241.778 74.2326C242.49 74.2943 243.202 74.387 243.913 74.4488C244.161 75.7462 244.47 77.6614 244.78 79.9781C245.523 85.9399 245.151 87.7624 246.699 89.3687C248.586 91.3148 251.588 91.1295 252.238 91.0677C257.406 90.7279 260.006 85.6001 260.13 85.3221C259.294 83.8085 258.459 81.9551 257.778 79.7928C256.292 75.0048 256.261 70.742 256.509 67.8383C258.892 64.4095 261.522 61.7839 264.184 59.7451C265.205 58.9729 266.072 57.9226 267.588 57.3975C269.754 56.6561 270.868 57.3975 272.478 56.9032C275.139 56.0692 276.284 52.6404 276.779 51.2194C278.667 45.5975 276.346 40.0372 274.861 36.732C273.53 33.7048 270.064 26.1985 261.615 20.3293C252.919 14.2749 235.527 7.54085 224.014 16.2827C222.034 17.7964 217.515 21.843 215.504 30.554Z" fill="white"/>
<path d="M216.803 43.2802C214.823 42.9404 209.809 41.7666 206.56 37.4728C201.608 30.955 204.27 21.8424 207.024 17.0236C211.357 9.4555 219.248 6.82983 229.151 3.52459C235.031 1.57852 240.633 -0.274887 248.246 0.0340145C252.455 0.219355 266.721 0.837155 275.263 11.4325C280.338 17.7032 280.895 24.4372 282.009 37.7199C282.535 43.8053 282.133 47.1105 281.081 50.2613C280.307 52.5472 277.8 59.8682 270.59 62.8027C266.814 64.3472 263.317 64.0383 261.398 63.7294C263.131 61.1655 264.864 58.6325 266.628 56.0687C267.619 56.1304 271.147 56.1922 273.839 53.7519C277.522 50.3849 278.172 43.6817 275.479 41.8901C273.499 40.5618 269.568 41.8592 266.164 44.9173C265.855 42.9713 265.36 40.8398 264.524 38.6466C260.625 28.1749 252.145 22.4293 247.998 20.0508C246.358 22.1513 241.159 28.2985 231.937 30.7388C224.633 32.654 218.567 31.2948 215.875 30.4917C216.184 34.7545 216.494 39.0173 216.803 43.2802Z" fill="black"/>
<path d="M215.256 31.3575C216.525 40.9026 217.856 50.8183 222.529 59.4058C226.366 66.4487 232.556 72.4723 240.509 74.4801C241.097 74.6346 241.345 73.7388 240.757 73.5843C232.896 71.5765 226.831 65.522 223.117 58.51C218.691 50.1696 217.423 40.5937 216.185 31.3575C216.092 30.7706 215.163 30.7706 215.256 31.3575Z" fill="#18191C"/>
<path d="M240.509 74.6027C246.111 74.6027 251.991 71.6063 256.385 68.3937C260.811 65.1503 264.432 60.9801 267.031 56.1613C267.31 55.6361 266.505 55.1728 266.226 55.6979C263.72 60.3932 260.223 64.4707 255.921 67.5906C251.619 70.7414 245.925 73.676 240.509 73.676C239.89 73.676 239.89 74.6027 240.509 74.6027Z" fill="#18191C"/>
<path d="M256.354 67.6532C255.735 73.893 256.942 80.1328 259.789 85.7239C260.068 86.249 260.873 85.7857 260.594 85.2605C257.809 79.793 256.695 73.7385 257.283 67.6532C257.345 67.0663 256.416 67.0663 256.354 67.6532Z" fill="#18191C"/>
<path d="M242.892 74.4481C243.913 77.9696 244.748 81.5528 245.367 85.167C245.77 87.5764 245.924 90.2948 248.617 91.1906C252.64 92.5497 258.582 90.1403 260.129 86.1555C260.346 85.5995 259.448 85.3523 259.232 85.9084C258.365 88.1633 256.199 89.399 253.971 90.0476C252.114 90.5728 249.298 91.1288 247.719 89.6152C246.791 88.7194 246.667 87.2984 246.482 86.0937C246.265 84.8272 246.048 83.5607 245.801 82.2942C245.244 79.5759 244.594 76.8575 243.82 74.201C243.634 73.645 242.737 73.8921 242.892 74.4481Z" fill="#18191C"/>
<path d="M244.223 78.28C249.732 77.5695 253.352 73.3685 256.014 68.8585C256.323 68.3334 255.519 67.8701 255.209 68.3952C252.764 72.5962 249.36 76.7046 244.223 77.3533C243.635 77.446 243.635 78.3727 244.223 78.28Z" fill="#18191C"/>
<path d="M244.006 75.1269C248.308 74.6326 252.176 72.6248 255.054 69.3813C255.457 68.9488 254.807 68.2693 254.404 68.7326C251.712 71.7907 248.06 73.7368 244.006 74.2001C243.449 74.2619 243.418 75.1886 244.006 75.1269Z" fill="#18191C"/>
<path d="M244.161 74.4481C247.627 73.9538 250.753 72.5329 253.414 70.2779C253.878 69.8763 253.197 69.2276 252.764 69.6292C250.227 71.7915 247.225 73.1198 243.913 73.5831C243.325 73.6449 243.573 74.5407 244.161 74.4481Z" fill="#18191C"/>
<path d="M243.976 75.2217C244.13 75.9631 244.099 77.4458 245.028 77.693C245.925 77.9401 247.287 76.8898 247.999 76.4574C250.443 74.9746 252.486 72.9668 254.095 70.6191C254.436 70.1249 253.631 69.6615 253.291 70.1558C252.146 71.8547 250.753 73.3683 249.113 74.6039C248.339 75.1909 247.534 75.6851 246.699 76.1485C246.358 76.3338 245.585 76.8589 245.244 76.6427C245.028 76.5191 244.935 75.1908 244.904 74.9746C244.749 74.3877 243.852 74.6348 243.976 75.2217Z" fill="#18191C"/>
<path d="M244.408 76.0871C247.07 75.006 249.576 73.6468 251.928 72.0096C252.424 71.6698 251.959 70.8667 251.464 71.2065C249.174 72.8128 246.76 74.141 244.161 75.1913C243.604 75.4075 243.851 76.3034 244.408 76.0871Z" fill="#18191C"/>
<path d="M244.872 77.0128C247.843 75.9625 250.443 74.3253 252.609 72.0395C253.012 71.607 252.362 70.9583 251.959 71.3908C249.886 73.5222 247.441 75.1285 244.625 76.117C244.068 76.3332 244.315 77.229 244.872 77.0128Z" fill="#18191C"/>
<path d="M245.368 76.5184C247.565 75.5608 249.577 74.2634 251.31 72.5954C251.743 72.1938 251.093 71.5451 250.66 71.9467C248.958 73.553 247.039 74.7886 244.904 75.7153C244.347 75.9624 244.811 76.7655 245.368 76.5184Z" fill="#18191C"/>
<path d="M220.084 54.8334C215.04 53.0418 213.368 46.4622 213.864 41.7051C214.39 36.4847 219.094 30.8009 224.85 33.2412C227.604 34.4151 228.625 37.4423 229.368 40.1297C230.142 42.9716 230.482 46.1224 229.74 49.0261C229.09 51.59 227.511 54.0303 225.036 55.1423C222.56 56.2544 219.62 55.6366 217.949 53.5051C217.577 53.0418 216.927 53.6905 217.299 54.1538C220.115 57.768 225.407 57.0575 228.254 53.8758C231.875 49.8292 231.504 43.6821 229.956 38.8323C229.244 36.5774 228.316 34.2297 226.242 32.9323C224.448 31.7894 222.157 31.5114 220.146 32.0365C215.442 33.303 212.997 38.2763 212.904 42.8172C212.811 47.7905 214.761 53.9376 219.898 55.7292C220.393 55.9146 220.641 55.0188 220.084 54.8334Z" fill="#18191C"/>
<path d="M230.792 45.597C233.824 43.7745 237.507 43.5892 240.664 45.1645C241.19 45.4426 241.654 44.6394 241.128 44.3614C237.662 42.6316 233.639 42.786 230.296 44.7939C229.832 45.1028 230.296 45.9059 230.792 45.597Z" fill="#18191C"/>
<path d="M245.584 52.1768C242.087 48.8097 240.633 43.5893 241.994 38.894C243.418 34.0134 248.308 29.8123 253.569 31.5422C259.387 33.4574 259.696 41.7668 258.18 46.6474C257.282 49.5202 255.487 52.393 252.516 53.4433C249.545 54.4935 246.977 52.9181 244.594 51.2501C244.099 50.9103 243.635 51.7134 244.13 52.0532C246.079 53.4433 248.184 54.8333 250.66 54.7406C253.012 54.648 255.147 53.3506 256.601 51.5899C259.882 47.6359 260.532 41.6124 259.17 36.7935C257.932 32.4071 254.28 29.5652 249.607 30.3375C245.151 31.0479 241.871 35.0636 240.88 39.2647C239.735 44.1145 241.283 49.3658 244.872 52.8255C245.368 53.2579 246.018 52.5783 245.584 52.1768Z" fill="#18191C"/>
<path d="M222.9 42.0143C222.591 43.9604 222.931 45.8447 223.983 47.5128C224.2 47.8525 224.695 47.7908 224.819 47.3892C225.561 45.2578 224.509 43.1573 223.457 41.3347C223.24 40.9332 222.591 41.1185 222.591 41.5819C222.622 43.219 222.962 44.8253 223.581 46.3389C223.798 46.8949 224.695 46.6478 224.478 46.0918C223.89 44.64 223.55 43.1573 223.519 41.5819C223.24 41.6745 222.931 41.7363 222.652 41.829C223.612 43.4662 224.602 45.2578 223.921 47.173C224.2 47.1421 224.478 47.1112 224.757 47.0494C223.828 45.5976 223.488 43.9604 223.767 42.2615C223.89 41.6745 222.993 41.4274 222.9 42.0143Z" fill="#18191C"/>
<path d="M250.289 41.1486C250.289 40.747 250.258 40.6544 250.072 40.3146C249.856 39.913 249.206 40.0983 249.206 40.5617C249.237 42.4769 249.391 44.5465 250.877 45.9057C251.186 46.1837 251.62 45.9674 251.682 45.5659C251.929 43.28 251.248 41.1486 249.825 39.357C249.515 38.9863 248.958 39.3879 249.051 39.8203C249.422 41.3339 249.887 42.8167 250.444 44.2376C250.66 44.7936 251.558 44.5465 251.341 43.9905C250.753 42.5386 250.289 41.0868 249.949 39.5732C249.701 39.7277 249.422 39.8821 249.175 40.0366C250.444 41.6428 250.97 43.558 250.753 45.5968C251.032 45.4732 251.279 45.3805 251.558 45.257C250.227 44.0523 250.165 42.2298 250.134 40.5617C249.856 40.6544 249.546 40.7161 249.268 40.8088C249.299 40.9324 249.33 41.0559 249.361 41.1795C249.361 41.7355 250.289 41.7355 250.289 41.1486Z" fill="#18191C"/>
<path d="M233.887 47.2344C233.268 49.0878 232.742 50.9721 232.401 52.8873C232.216 53.9067 231.566 55.8219 232.03 56.8412C232.958 58.9109 237.074 57.6444 238.498 56.9648C239.024 56.7177 238.56 55.9145 238.034 56.1617C236.889 56.7177 235.651 56.9957 234.382 56.903C233.639 56.8412 233.051 56.7177 232.896 55.8836C232.804 55.4203 233.113 54.2156 233.206 53.6904C233.577 51.559 234.134 49.4894 234.815 47.4506C234.97 46.9255 234.072 46.6784 233.887 47.2344Z" fill="#18191C"/>
<path d="M238.56 65.0579C240.881 64.7489 242.892 63.2662 243.913 61.1348C244.161 60.6097 243.356 60.1154 243.109 60.6714C242.18 62.6175 240.447 63.884 238.312 64.162C237.724 64.2547 238.003 65.1505 238.56 65.0579Z" fill="#18191C"/>
<path d="M220.95 39.357C221.538 38.6465 222.621 38.523 223.364 39.1408C223.828 39.5423 224.478 38.8628 224.014 38.4921C222.931 37.5654 221.26 37.6271 220.3 38.7083C219.898 39.1408 220.548 39.7895 220.95 39.357Z" fill="#18191C"/>
<path d="M247.503 37.6286C248.462 36.7946 249.917 36.7946 250.876 37.5978C251.34 37.9684 251.99 37.3197 251.526 36.9491C250.164 35.7752 248.184 35.8061 246.822 36.98C246.389 37.3815 247.069 38.0302 247.503 37.6286Z" fill="#18191C"/>
<path d="M259.696 41.891C263.038 40.7172 266.474 40.0067 270.033 39.8214C270.62 39.7905 270.62 38.8638 270.033 38.8947C266.412 39.08 262.884 39.7905 259.449 40.9952C258.892 41.2114 259.108 42.1072 259.696 41.891Z" fill="#18191C"/>
<path opacity="0.4" d="M264.307 3.40149C266.164 5.78003 273.313 15.5413 271.982 28.9476C271.239 36.423 268.145 41.9215 266.195 44.8251C267.309 43.9602 268.269 43.3733 268.98 42.9717C270.868 41.9215 272.075 41.2728 273.622 41.3654C274.087 41.3963 275.201 41.489 276.005 42.1377C278.357 44.1147 277.553 51.1267 273.375 54.4011C271.085 56.1927 268.392 56.378 267.031 56.3471C265.267 58.8492 263.472 61.3513 261.708 63.8843C262.884 64.0697 264.679 64.2241 266.752 63.9152C267.65 63.7917 271.239 63.143 274.644 60.4246C277.986 57.7372 279.348 54.4628 280.245 52.2388C282.721 46.0607 282.226 40.6241 281.359 30.8319C280.988 26.4764 280.771 24.2523 279.905 21.3178C278.976 18.1361 277.522 13.4408 273.375 9.23972C270.404 6.15071 267.062 4.42086 264.307 3.40149Z" fill="#6A6A6A"/>
<path opacity="0.48" d="M234.413 29.8126C237.507 27.0634 240.973 23.5419 244.316 19.1555C246.389 16.4372 248.122 13.8115 249.546 11.3712C249.02 14.1513 248.494 16.9314 247.998 19.7115C246.791 21.4414 244.78 23.9126 241.654 26.1676C238.9 28.1136 236.3 29.1948 234.413 29.8126Z" fill="#042852"/>
<path opacity="0.27" d="M256.416 26.2909C258.768 34.1061 258.953 40.6548 258.737 44.9794C258.582 48.192 257.715 65.0271 248.834 70.8345C247.967 71.3905 245.77 72.6879 245.863 72.8732C245.987 73.0894 250.102 71.2669 252.362 70.0313C255.921 68.1161 261.398 64.2549 266.473 56.0999C267.309 56.1925 271.394 56.4705 274.334 53.6595C277.893 50.2925 278.512 43.682 275.696 41.736C273.684 40.3459 269.847 41.5197 266.473 44.2998C266.133 42.8789 265.7 41.3962 265.112 39.8208C262.791 33.7045 259.294 29.2563 256.416 26.2909Z" fill="#042852"/>
<path opacity="0.36" d="M248.958 72.6263C249.762 75.0975 250.567 77.5687 251.372 80.0708C252.486 83.4687 253.569 86.8975 254.652 90.2954C255.271 90.1719 256.787 89.7394 258.118 88.3802C259.449 87.0211 259.882 85.5384 260.037 84.9205C258.83 82.542 257.406 78.9279 256.911 74.3561C256.664 71.9776 256.726 69.8771 256.911 68.1163C254.281 69.6299 251.619 71.1436 248.958 72.6263Z" fill="#042852"/>
<path opacity="0.43" d="M233.515 48.3156C231.968 51.6208 230.421 54.8951 228.873 58.2004C231.411 58.1386 233.918 58.1077 236.455 58.0459C234.97 57.5826 233.453 57.1192 231.968 56.6559C232.463 53.8758 232.989 51.0957 233.515 48.3156Z" fill="#042852"/>
<path d="M323.807 238.675C216.565 224.383 109.294 210.091 2.05176 195.828C33.6984 177.511 65.3742 159.194 97.0209 140.877C193.772 150.386 290.553 159.923 387.305 169.432C366.12 192.503 344.963 215.604 323.807 238.675Z" fill="white" stroke="#18191C" stroke-width="0.9368" stroke-miterlimit="10"/>
<path d="M1 198.308C108.505 212.541 216.01 226.775 323.486 241.009" stroke="#E4E5E8" stroke-width="4.99627" stroke-miterlimit="10"/>
<path d="M321.44 241.65C343.97 217.879 366.5 194.078 389 170.307" stroke="#E4E5E8" stroke-width="4.99627" stroke-miterlimit="10"/>
<path d="M255.378 171.236C244.42 179.782 233.696 188.591 223.147 197.633C222.709 198.012 223.352 198.624 223.761 198.245C234.31 189.203 245.063 180.395 255.992 171.849C256.43 171.528 255.816 170.886 255.378 171.236Z" fill="#18191C"/>
<path d="M223.556 198.1C227.004 198.829 230.51 198.829 234.046 198.858C238.02 198.917 241.761 199.325 245.559 200.433C252.689 202.504 259.673 203.875 267.125 203.7C267.68 203.7 267.68 202.825 267.125 202.825C263.297 202.913 259.469 202.679 255.67 202.067C252.105 201.483 248.715 200.433 245.238 199.471C241.907 198.538 238.575 198.1 235.098 198.042C231.299 197.954 227.501 198.071 223.76 197.283C223.234 197.137 223 197.983 223.556 198.1Z" fill="#18191C"/>
<path d="M256.021 171.878C267.593 172.811 279.076 174.649 290.356 177.39C290.911 177.536 291.145 176.69 290.59 176.545C279.252 173.774 267.68 171.936 256.021 171.003C255.466 170.944 255.466 171.819 256.021 171.878Z" fill="#18191C"/>
<path d="M267.797 203.174C275.95 195.124 283.781 186.724 291.203 177.974C291.554 177.536 290.94 176.924 290.59 177.361C283.167 186.082 275.336 194.483 267.183 202.562C266.774 202.97 267.388 203.583 267.797 203.174Z" fill="#18191C"/>
<path d="M233.754 194.629C243.806 193.404 253.975 194.658 263.414 198.333C263.94 198.537 264.174 197.692 263.648 197.487C254.151 193.812 243.865 192.529 233.754 193.754C233.199 193.812 233.199 194.687 233.754 194.629Z" fill="#18191C"/>
<path d="M248.979 191.422C255.174 191.888 261.281 192.851 267.33 194.28C267.885 194.426 268.119 193.58 267.563 193.434C261.456 191.976 255.261 191.013 248.979 190.546C248.394 190.517 248.423 191.392 248.979 191.422Z" fill="#18191C"/>
<path d="M244.332 184.975C253.654 185.18 262.888 186.521 271.888 189.001C272.443 189.146 272.677 188.301 272.122 188.155C263.063 185.675 253.742 184.305 244.332 184.1C243.777 184.1 243.777 184.975 244.332 184.975Z" fill="#18191C"/>
<path d="M255.904 182.292C260.93 182.992 265.898 183.867 270.866 184.917C271.421 185.033 271.655 184.187 271.099 184.071C266.132 183.021 261.164 182.146 256.138 181.446C255.583 181.358 255.349 182.204 255.904 182.292Z" fill="#18191C"/>
<path d="M249.505 201.863C247.722 204.605 245.94 207.347 244.128 210.059C243.953 210.322 244.186 210.759 244.508 210.73C258.914 209.097 273.524 210.03 287.609 213.472C288.164 213.618 288.398 212.772 287.843 212.626C273.671 209.155 259.002 208.222 244.508 209.826C244.625 210.059 244.771 210.264 244.888 210.497C246.67 207.755 248.453 205.014 250.264 202.301C250.586 201.834 249.826 201.397 249.505 201.863Z" fill="#18191C"/>
<path d="M284.833 185.296C290.472 185.18 296.083 185.063 301.723 184.946C301.576 184.771 301.43 184.567 301.313 184.392C297.427 193.638 293.511 202.855 289.625 212.101C289.42 212.626 290.268 212.859 290.472 212.334C294.359 203.088 298.274 193.871 302.161 184.625C302.278 184.363 301.986 184.071 301.752 184.071C296.112 184.188 290.502 184.305 284.862 184.421C284.278 184.45 284.278 185.325 284.833 185.296Z" fill="#18191C"/>
<path d="M263.472 207.025C264.962 206.733 266.453 206.675 267.972 206.791C268.527 206.821 268.527 205.946 267.972 205.916C266.365 205.8 264.816 205.887 263.238 206.179C262.683 206.266 262.917 207.112 263.472 207.025Z" fill="#18191C"/>
<path d="M271.772 207.114C276.359 207.289 280.947 207.726 285.506 208.426C286.061 208.514 286.295 207.668 285.739 207.58C281.122 206.851 276.447 206.414 271.772 206.239C271.216 206.21 271.216 207.085 271.772 207.114Z" fill="#18191C"/>
<path d="M272.034 201.63C273.115 201.63 274.196 201.63 275.307 201.63C275.862 201.63 275.862 200.755 275.307 200.755C274.226 200.755 273.144 200.755 272.034 200.755C271.479 200.755 271.479 201.63 272.034 201.63Z" fill="#18191C"/>
<path d="M278.843 201.543C282.437 201.63 286.002 201.98 289.567 202.564C290.123 202.651 290.356 201.805 289.801 201.718C286.178 201.134 282.525 200.784 278.843 200.668C278.288 200.668 278.288 201.543 278.843 201.543Z" fill="#18191C"/>
<path d="M278.288 196.554C282.379 196.613 286.441 196.846 290.502 197.313C291.058 197.371 291.058 196.496 290.502 196.438C286.441 195.971 282.379 195.708 278.288 195.679C277.733 195.65 277.733 196.525 278.288 196.554Z" fill="#18191C"/>
<path d="M250.849 206.239C252.807 206.297 254.735 206.064 256.664 205.597C257.219 205.451 256.985 204.605 256.43 204.751C254.589 205.218 252.748 205.422 250.849 205.364C250.294 205.364 250.294 206.239 250.849 206.239Z" fill="#18191C"/>
<path d="M263.116 216.163C262.356 217.096 261.479 218.992 262.385 220.129C262.941 220.829 263.992 220.684 264.781 220.713C266.213 220.771 267.645 220.859 269.077 220.917C274.892 221.179 280.678 221.471 286.493 221.734C287.048 221.763 287.048 220.888 286.493 220.859C282.197 220.654 277.931 220.45 273.636 220.246C271.532 220.159 269.457 220.042 267.353 219.954C266.33 219.896 265.249 219.954 264.226 219.809C263.466 219.692 262.911 219.663 262.941 218.729C262.97 218 263.291 217.329 263.729 216.775C264.08 216.338 263.467 215.696 263.116 216.163Z" fill="#18191C"/>
<path d="M263.905 217.27C268.814 217.445 273.723 217.591 278.632 217.766C281.028 217.854 283.454 217.912 285.85 218C288.012 218.087 290.292 218.233 291.84 219.895C292.22 220.304 292.834 219.691 292.454 219.283C291.285 218 289.707 217.504 288.012 217.27C285.499 216.95 282.899 217.008 280.356 216.92C274.863 216.745 269.369 216.541 263.905 216.366C263.349 216.395 263.349 217.27 263.905 217.27Z" fill="#18191C"/>
<path d="M286.2 221.76C288.45 221.79 290.583 221.09 292.395 219.748C292.833 219.427 292.395 218.669 291.957 218.99C290.262 220.244 288.333 220.915 286.2 220.885C285.616 220.885 285.616 221.76 286.2 221.76Z" fill="#18191C"/>
<path d="M286.902 217.27C285.674 218.087 285.119 219.603 285.528 221.003C285.674 221.528 286.522 221.324 286.376 220.77C286.083 219.749 286.434 218.612 287.34 217.999C287.808 217.708 287.369 216.949 286.902 217.27Z" fill="#18191C"/>
<path d="M179.384 189.824C143.88 183.757 108.376 177.69 72.8721 171.624C94.4374 162.932 116.003 154.269 137.568 145.577C171.289 153.073 205.011 160.569 238.703 168.065C218.949 175.328 199.166 182.561 179.384 189.824Z" fill="white" stroke="#18191C" stroke-width="0.9368" stroke-miterlimit="10"/>
<path d="M177.922 190.26C178.039 190.61 178.127 190.989 178.244 191.339C178.39 191.806 179.091 191.719 179.091 191.223C179.091 190.931 179.091 190.669 179.091 190.377C179.091 189.823 178.215 189.823 178.215 190.377C178.215 190.727 178.156 191.048 178.01 191.369C178.302 191.369 178.565 191.369 178.857 191.369C178.74 190.989 178.711 190.639 178.799 190.231C178.536 190.26 178.273 190.289 178.01 190.348C178.098 190.435 178.098 190.494 178.039 190.581C178.302 190.61 178.565 190.639 178.828 190.698C178.77 190.494 178.799 190.319 178.916 190.144C178.653 190.056 178.361 189.998 178.098 189.91C178.039 190.377 177.981 190.814 177.922 191.281C177.893 191.514 178.156 191.719 178.361 191.719C178.624 191.719 178.77 191.514 178.799 191.281C178.857 190.814 178.916 190.377 178.974 189.91C179.033 189.473 178.361 189.356 178.156 189.677C177.922 190.056 177.864 190.494 177.981 190.931C178.068 191.31 178.594 191.339 178.77 191.048C179.003 190.698 179.003 190.26 178.74 189.939C178.536 189.677 178.01 189.648 177.952 190.056C177.835 190.581 177.864 191.135 178.01 191.66C178.156 192.098 178.711 192.039 178.857 191.66C179.003 191.252 179.091 190.844 179.091 190.435C178.799 190.435 178.507 190.435 178.215 190.435C178.215 190.727 178.215 190.989 178.215 191.281C178.507 191.252 178.799 191.194 179.062 191.164C178.945 190.814 178.857 190.435 178.74 190.085C178.624 189.473 177.776 189.706 177.922 190.26Z" fill="#18191C"/>
<path d="M178.594 192.361C183.299 189.94 188.442 188.657 193.497 187.228C195.981 186.528 198.435 185.769 200.802 184.778C203.082 183.844 205.273 182.678 207.523 181.627C212.52 179.294 217.926 177.777 223.157 176.057C228.592 174.248 233.998 172.44 239.433 170.661C239.959 170.486 239.725 169.64 239.199 169.815C233.764 171.623 228.358 173.431 222.923 175.211C217.78 176.902 212.491 178.419 207.552 180.665C204.981 181.832 202.468 183.203 199.838 184.223C197.442 185.157 194.987 185.886 192.503 186.586C187.623 187.986 182.685 189.269 178.127 191.603C177.659 191.865 178.097 192.624 178.594 192.361Z" fill="#18191C"/>
<path d="M179.003 192.186C199.195 185.215 219.329 178.157 239.462 170.981C241.04 170.427 240.368 167.89 238.761 168.444C218.657 175.619 198.494 182.678 178.302 189.649C176.724 190.203 177.396 192.74 179.003 192.186Z" fill="#18191C"/>
<path d="M176.724 164.01C180.523 164.39 183.766 166.694 187.507 167.423C188.062 167.54 188.296 166.694 187.74 166.577C183.942 165.819 180.64 163.515 176.724 163.135C176.169 163.106 176.169 163.981 176.724 164.01Z" fill="#18191C"/>
<path d="M187.77 167.015C190.079 165.76 192.241 164.273 194.199 162.523C194.608 162.144 193.994 161.531 193.585 161.91C191.657 163.602 189.582 165.06 187.332 166.256C186.835 166.548 187.273 167.306 187.77 167.015Z" fill="#18191C"/>
<path d="M177.63 162.348C179.471 161.035 181.371 159.781 183.328 158.614C183.825 158.323 183.358 157.564 182.89 157.856C180.932 159.023 179.033 160.248 177.192 161.589C176.724 161.939 177.163 162.698 177.63 162.348Z" fill="#18191C"/>
<path d="M183.475 158.759C186.806 160.013 190.137 161.238 193.498 162.492C194.024 162.697 194.257 161.851 193.731 161.647C190.4 160.392 187.069 159.167 183.708 157.913C183.182 157.738 182.949 158.584 183.475 158.759Z" fill="#18191C"/>
<path d="M174.094 167.335C182.89 170.048 191.569 173.169 200.072 176.698C200.598 176.902 200.832 176.056 200.306 175.852C191.802 172.323 183.124 169.202 174.328 166.489C173.773 166.314 173.539 167.16 174.094 167.335Z" fill="#18191C"/>
<path d="M174.942 174.131C180.406 176.757 185.929 179.236 191.51 181.657C192.036 181.89 192.474 181.132 191.948 180.898C186.367 178.507 180.844 175.998 175.38 173.373C174.883 173.14 174.445 173.898 174.942 174.131Z" fill="#18191C"/>
<path d="M175.73 181.627C178.711 183.144 181.692 184.69 184.672 186.207C185.169 186.469 185.607 185.711 185.111 185.448C182.13 183.931 179.149 182.386 176.169 180.869C175.672 180.606 175.234 181.365 175.73 181.627Z" fill="#18191C"/>
<path d="M177.426 181.89C181.546 178.39 185.871 175.182 190.371 172.207C190.838 171.886 190.4 171.128 189.933 171.448C185.374 174.453 180.991 177.749 176.812 181.278C176.374 181.657 176.987 182.269 177.426 181.89Z" fill="#18191C"/>
<path d="M176.344 175.911C178.682 174.277 181.02 172.644 183.358 170.981C183.825 170.661 183.387 169.902 182.919 170.223C180.582 171.856 178.244 173.49 175.906 175.152C175.468 175.473 175.906 176.232 176.344 175.911Z" fill="#18191C"/>
<path d="M177.805 191.836C141.074 185.594 104.343 179.352 67.6118 173.11C64.1637 147.064 60.6864 121.046 57.2383 95C96.7747 100.308 136.282 105.617 175.818 110.955C176.49 137.905 177.162 164.856 177.805 191.836Z" fill="white" stroke="#18191C" stroke-width="0.9368" stroke-miterlimit="10"/>
<g opacity="0.4">
<path d="M125.732 138.824L125.872 141.969L118.338 146.536L110.291 139.538L110.15 136.374L118.213 143.374L125.732 138.824Z" fill="url(#paint0_linear_3475_3792)"/>
<path d="M113.447 153.054L110.873 152.654L110.357 141.043L113.016 143.35L113.447 153.054Z" fill="url(#paint1_linear_3475_3792)"/>
<path d="M123.447 144.974L123.754 151.875C123.76 151.997 123.661 152.08 123.534 152.061L120.047 151.518C119.92 151.498 119.812 151.383 119.807 151.262L119.714 149.166L117.055 146.857L117.343 153.336C117.351 153.516 117.51 153.686 117.698 153.716L123.797 154.664C125.264 154.893 126.403 153.934 126.34 152.524L125.938 143.467L123.447 144.974Z" fill="url(#paint2_linear_3475_3792)"/>
<path d="M122.61 139.344L119.363 141.299L116.791 140.899L116.79 140.882L116.681 138.422L122.61 139.344Z" fill="url(#paint3_linear_3475_3792)"/>
</g>
<path d="M175.818 110.926L178.39 191.282" stroke="#18191C" stroke-width="0.9368" stroke-miterlimit="10"/>
<path d="M175.994 110.867C176.783 137.293 177.572 163.718 178.361 190.144" stroke="#18191C" stroke-width="0.9368" stroke-miterlimit="10"/>
<path opacity="0.08" d="M125.412 105.5C127.311 106.492 143.617 115.359 144.756 131.109C145.399 139.801 141.133 146.393 138.444 150.418C123.951 172.177 95.2846 176.027 87.5117 176.843C98.8203 184.339 138.327 209.044 181.517 207.586C191.13 207.265 206.033 206.594 222.192 197.727C234.319 191.077 242.18 182.531 246.68 176.843C243.904 175.122 241.157 173.431 238.381 171.71C217.985 178.681 197.559 185.652 177.163 192.594C176.111 165.643 175.059 138.722 174.007 111.771C157.789 109.729 141.6 107.629 125.412 105.5Z" fill="#18191C"/>
<path d="M274.339 163.795C270.221 140.96 284.106 117.514 312.365 113.335C346.048 108.349 364.042 128.288 364.732 154.625C365.395 179.988 360.903 194.204 324.407 195.92C304.739 196.844 279.017 189.731 274.339 163.799V163.795Z" fill="white" stroke="black" stroke-width="0.932804" stroke-linecap="round" stroke-linejoin="round"/>
<path d="M275.136 154.546C273.854 141.095 270.561 127.76 265.529 115.653" stroke="black" stroke-width="0.932804" stroke-linecap="round" stroke-linejoin="round"/>
<path d="M278.075 146.682C278.042 146.682 278.01 146.692 277.977 146.692H277.963C277.52 146.734 273.612 147.82 273.612 147.82L273.733 150.498C272.539 153.04 271.905 156.617 272.133 160.544C272.348 164.205 273.271 167.479 274.6 169.835L274.74 172.932C274.74 172.932 279.535 173.627 279.656 173.617C283.373 173.398 286.036 167.195 285.603 159.756C285.169 152.317 281.802 146.463 278.08 146.682H278.075Z" fill="white" stroke="black" stroke-width="0.932804" stroke-linecap="round" stroke-linejoin="round"/>
<path d="M275.502 172.98C278.979 172.777 281.467 166.975 281.06 160.022C280.653 153.069 277.505 147.597 274.028 147.8C270.552 148.004 268.063 153.806 268.47 160.759C268.877 167.712 272.025 173.184 275.502 172.98Z" fill="white" stroke="black" stroke-width="0.932804" stroke-linecap="round" stroke-linejoin="round"/>
<path d="M275.192 167.687C276.809 167.592 277.926 164.187 277.685 160.08C277.445 155.973 275.939 152.721 274.321 152.816C272.704 152.91 271.588 156.316 271.828 160.423C272.068 164.529 273.575 167.782 275.192 167.687Z" fill="white" stroke="black" stroke-width="0.932804" stroke-linecap="round" stroke-linejoin="round"/>
<path d="M353.115 125.89C339.379 119.146 306.199 117.831 295.495 134.44C284.791 151.048 287.557 176.957 302.664 186.247C311.992 191.984 347.914 190.758 359.467 183.165C373.995 173.617 370.469 134.407 353.11 125.886L353.115 125.89Z" fill="white" stroke="black" stroke-width="0.932804" stroke-linecap="round" stroke-linejoin="round"/>
<path d="M354.364 129.071C341.72 123.138 311.161 122.047 301.26 136.757C291.362 151.472 293.853 174.377 307.752 182.563C316.334 187.618 349.429 186.452 360.091 179.713C373.496 171.238 370.334 136.566 354.359 129.071H354.364Z" fill="#D3E9FF" stroke="black" stroke-width="0.932804" stroke-linecap="round" stroke-linejoin="round"/>
<path d="M302.691 152.942C300.677 153.04 298.904 154.877 298.876 156.892C298.848 158.907 300.565 160.791 302.575 160.95C304.585 161.108 306.577 159.513 306.861 157.517C307.146 155.521 305.723 152.792 302.691 152.942Z" fill="white"/>
<path d="M327.299 140.862C309.422 138.903 309.567 150.237 305.635 150.031C301.437 149.812 304.324 137.639 313.237 133.134C317.971 130.741 324.379 130.102 329.864 131.287C336.487 132.718 336.091 141.827 327.299 140.867V140.862Z" fill="white"/>
<defs>
<linearGradient id="paint0_linear_3475_3792" x1="115.691" y1="135.843" x2="123.964" y2="151.269" gradientUnits="userSpaceOnUse">
<stop stop-color="#00FFA9"/>
<stop offset="1" stop-color="#0D4DFF"/>
</linearGradient>
<linearGradient id="paint1_linear_3475_3792" x1="106.816" y1="140.624" x2="115.162" y2="156.188" gradientUnits="userSpaceOnUse">
<stop stop-color="#00FFA9"/>
<stop offset="1" stop-color="#0D4DFF"/>
</linearGradient>
<linearGradient id="paint2_linear_3475_3792" x1="113.652" y1="136.958" x2="121.999" y2="152.522" gradientUnits="userSpaceOnUse">
<stop stop-color="#00FFA9"/>
<stop offset="1" stop-color="#0D4DFF"/>
</linearGradient>
<linearGradient id="paint3_linear_3475_3792" x1="116.53" y1="135.56" x2="124.482" y2="150.389" gradientUnits="userSpaceOnUse">
<stop stop-color="#00FFA9"/>
<stop offset="1" stop-color="#0D4DFF"/>
</linearGradient>
</defs>
</svg>
