<svg width="82" height="81" viewBox="0 0 82 81" fill="none" xmlns="http://www.w3.org/2000/svg">
<path d="M44.6457 0C32.6693 0 21.6006 5.86471 14.8135 15.3892C16.5335 15.8751 18.1115 16.7923 19.4118 18.0914L20.5298 19.2094C26.0537 11.5697 34.9863 6.87345 44.6457 6.87345C61.044 6.87345 74.3852 20.2148 74.3852 36.6134C74.3852 46.3209 69.7029 55.2241 62.0566 60.7361L62.92 61.5996C64.3101 62.9906 65.2643 64.708 65.7189 66.5632C75.3451 59.7994 81.2586 48.7152 81.2586 36.6134C81.2586 16.4247 64.8341 0 44.6457 0Z" fill="#0B78EB"/>
<path d="M49.7902 56.9356C48.8111 55.9565 47.4722 55.4661 46.0657 55.6074C43.5825 55.8584 41.2531 56.8143 39.3295 58.3722C39.0657 58.5878 38.7247 58.7082 38.3736 58.7082C38.03 58.7082 37.6941 58.5914 37.428 58.3795C31.9842 53.9976 27.0099 49.02 22.6384 43.5815C22.1919 43.0302 22.1933 42.2257 22.6448 41.6721C24.1985 39.7534 25.1532 37.4255 25.4032 34.9437C25.5421 33.5602 25.0579 32.2023 24.075 31.2185L15.1796 22.324C14.3078 21.4532 13.1498 20.9733 11.9192 20.9733C11.7708 20.9733 11.6184 20.9806 11.467 20.9953C8.55404 21.2809 5.80395 22.5833 3.72532 24.6624C-0.27147 28.6599 -1.15554 34.8918 1.57583 39.8176C8.53294 52.5091 25.2643 70.802 41.2268 79.454C43.082 80.466 45.1855 81 47.3129 81C50.6947 81 53.9877 79.6464 56.3482 77.286C58.427 75.2064 59.7299 72.4561 60.0155 69.542C60.1511 68.1642 59.6664 66.8116 58.6861 65.8303L49.7902 56.9356Z" fill="#0B78EB"/>
<path d="M46.0708 12.3544C44.7618 12.3544 43.7007 13.4155 43.7007 14.7245V34.1598C43.7007 35.4688 44.7618 36.5299 46.0708 36.5299H64.1933C65.5021 36.5299 66.5634 35.4688 66.5634 34.1598C66.5634 32.8507 65.5021 31.7896 64.1933 31.7896H48.441V14.7245C48.441 13.4155 47.3796 12.3544 46.0708 12.3544Z" fill="#0B78EB"/>
</svg>
