<svg width="73" height="73" viewBox="0 0 73 73" fill="none" xmlns="http://www.w3.org/2000/svg">
<path d="M20.5385 63.8036L20.3256 63.6752C19.4198 63.1259 18.2399 63.415 17.6901 64.3214C17.1412 65.2275 17.4302 66.4074 18.3364 66.9569L18.5622 67.0932C18.8715 67.279 19.212 67.3672 19.5484 67.3672C20.1998 67.3672 20.835 67.0354 21.1952 66.4363C21.7408 65.5284 21.4469 64.3495 20.5385 63.8036Z" fill="#8F6EED"/>
<path d="M13.1086 57.6828C12.3992 56.8953 11.1856 56.8329 10.3989 57.5418C9.61178 58.2509 9.54859 59.4646 10.258 60.2515L10.4376 60.4497C10.8162 60.8644 11.335 61.075 11.8553 61.075C12.3171 61.075 12.7804 60.9095 13.1483 60.5736C13.9311 59.8591 13.9864 58.6457 13.2721 57.8629L13.1086 57.6828Z" fill="#8F6EED"/>
<path d="M29.1999 67.3922L28.9676 67.3328C27.943 67.065 26.8947 67.682 26.6281 68.7074C26.3615 69.733 26.9768 70.7803 28.0026 71.0469L28.2664 71.1142C28.4229 71.1535 28.58 71.1725 28.7345 71.1725C29.5936 71.1725 30.3756 70.5913 30.5939 69.7199C30.852 68.692 30.2275 67.6498 29.1999 67.3922Z" fill="#8F6EED"/>
<path d="M7.90724 49.8767C7.45443 48.9184 6.31167 48.5078 5.3531 48.9613C4.39505 49.4139 3.98496 50.5574 4.43777 51.5155L4.55519 51.7613C4.88648 52.4462 5.57106 52.845 6.28404 52.845C6.56417 52.845 6.8489 52.7833 7.11802 52.6531C8.07199 52.1916 8.47133 51.0442 8.00982 50.0903L7.90724 49.8767Z" fill="#8F6EED"/>
<path d="M38.5338 68.3157C38.4561 68.3195 38.3785 68.3228 38.3008 68.3257C37.2417 68.3628 36.4136 69.2515 36.4509 70.3106C36.4875 71.3467 37.3386 72.1617 38.367 72.1617C38.3898 72.1617 38.4128 72.1612 38.4356 72.1604C38.5282 72.1571 38.6211 72.1533 38.7137 72.1489C39.7723 72.0993 40.5899 71.2009 40.5405 70.1423C40.4904 69.0837 39.5899 68.275 38.5338 68.3157Z" fill="#8F6EED"/>
<path d="M23.5617 6.4157C23.8158 6.4157 24.0744 6.36479 24.3228 6.25735L24.5454 6.16218C25.5208 5.748 25.9754 4.6211 25.561 3.64616C25.1466 2.67122 24.0199 2.21611 23.0447 2.63055L22.7989 2.73569C21.8262 3.15626 21.3791 4.28598 21.7999 5.25836C22.1133 5.98285 22.8199 6.4157 23.5617 6.4157Z" fill="#8F6EED"/>
<path d="M51.6396 7.16482L51.854 7.27559C52.1372 7.4232 52.4406 7.49355 52.7397 7.49355C53.4317 7.49355 54.1001 7.11775 54.4424 6.46156C54.9323 5.52193 54.5678 4.36305 53.6282 3.87315L53.3869 3.74856C52.444 3.26685 51.2876 3.63984 50.8049 4.58331C50.3227 5.52628 50.6964 6.68208 51.6396 7.16482Z" fill="#8F6EED"/>
<path d="M33.1628 3.86547C33.2342 3.86547 33.3066 3.86137 33.3792 3.85319L33.6218 3.82658C34.6755 3.71504 35.4394 2.77029 35.3276 1.71655C35.2158 0.663076 34.2738 -0.100299 33.2176 0.0107277L32.9515 0.0396357C31.8985 0.15757 31.1405 1.10693 31.2587 2.16015C31.3685 3.14072 32.1989 3.86547 33.1628 3.86547Z" fill="#8F6EED"/>
<path d="M65.1559 20.2309C65.5066 20.862 66.1607 21.2179 66.8351 21.2179C67.1503 21.2179 67.4698 21.1401 67.7653 20.9764C68.6916 20.4617 69.0252 19.2936 68.5107 18.3673L68.3772 18.1296C67.8543 17.2079 66.6831 16.8845 65.7614 17.4082C64.8399 17.9311 64.5168 19.1022 65.04 20.024L65.1559 20.2309Z" fill="#8F6EED"/>
<path d="M42.7551 4.16016L42.9951 4.20467C43.1148 4.22719 43.2343 4.23793 43.352 4.23793C44.2566 4.23793 45.0619 3.59505 45.2353 2.67358C45.4313 1.63238 44.7457 0.629295 43.7042 0.433335L43.441 0.384984C42.3965 0.194652 41.3995 0.887421 41.2105 1.9299C41.0209 2.97212 41.7127 3.97111 42.7551 4.16016Z" fill="#8F6EED"/>
<path d="M71.2043 36.3368C70.1455 36.269 69.2345 37.0707 69.1662 38.128L69.1498 38.3662C69.072 39.423 69.8658 40.3427 70.9226 40.4202C70.9707 40.4238 71.0181 40.4253 71.0654 40.4253C72.0611 40.4253 72.9027 39.6561 72.9769 38.6474L72.9956 38.3749C73.0636 37.3176 72.2619 36.4051 71.2043 36.3368Z" fill="#8F6EED"/>
<path d="M59.4478 12.7777C59.821 13.1435 60.3061 13.3259 60.7903 13.3259C61.2879 13.3259 61.7852 13.1335 62.161 12.7498C62.9024 11.9928 62.8899 10.7782 62.1329 10.0366C62.0671 9.97234 62.0011 9.90839 61.9351 9.84494C61.1705 9.1115 59.9558 9.13632 59.2221 9.90123C58.4887 10.6659 58.5135 11.8805 59.2784 12.614L59.4478 12.7777Z" fill="#8F6EED"/>
<path d="M68.428 28.7706L68.4799 29.0042C68.6764 29.9009 69.4704 30.5123 70.3523 30.5123C70.4881 30.5123 70.6265 30.4975 70.7649 30.4673C71.8 30.2404 72.4551 29.2173 72.2282 28.182L72.1689 27.9165C71.9332 26.8834 70.9038 26.2354 69.8716 26.4728C68.8383 26.7087 68.1921 27.7376 68.428 28.7706Z" fill="#8F6EED"/>
<path d="M6.90305 17.676C7.40702 17.676 7.9005 17.4713 8.25891 17.1157C8.61706 16.7578 8.82172 16.2638 8.82172 15.7573C8.82172 15.2531 8.61706 14.7596 8.25891 14.4014C7.90331 14.0433 7.40702 13.8386 6.90305 13.8386C6.39652 13.8386 5.90278 14.0433 5.54719 14.4014C5.18903 14.757 4.98438 15.2531 4.98438 15.7573C4.98438 16.2636 5.18903 16.7576 5.54719 17.1157C5.90534 17.4713 6.39933 17.676 6.90305 17.676Z" fill="#8F6EED"/>
<path d="M11.886 17.676C12.3902 17.676 12.8862 17.4713 13.2444 17.1157C13.6 16.7578 13.8046 16.2638 13.8046 15.7573C13.8046 15.2531 13.6 14.7596 13.2444 14.4014C12.8862 14.0433 12.3925 13.8386 11.886 13.8386C11.382 13.8386 10.8885 14.0433 10.5301 14.4014C10.1722 14.757 9.96729 15.2531 9.96729 15.7573C9.96729 16.2636 10.1722 16.7576 10.5301 17.1157C10.8882 17.4713 11.382 17.676 11.886 17.676Z" fill="#8F6EED"/>
<path d="M16.8723 17.676C17.3763 17.676 17.8726 17.4713 18.2281 17.1157C18.5863 16.7578 18.791 16.2638 18.791 15.7573C18.791 15.2531 18.5863 14.7596 18.2281 14.4014C17.8726 14.0433 17.3791 13.8386 16.8723 13.8386C16.3683 13.8386 15.872 14.0433 15.5164 14.4014C15.1583 14.757 14.9536 15.2505 14.9536 15.7573C14.9536 16.2636 15.1583 16.7576 15.5164 17.1157C15.8746 17.4713 16.3683 17.676 16.8723 17.676Z" fill="#8F6EED"/>
<path d="M69.6664 44.6052H68.2589V39.8556C68.2589 33.282 62.9222 27.9338 56.3624 27.9338C49.8031 27.9338 44.4669 33.2817 44.4669 39.8556V44.6052H43.0593C43.0581 44.6052 43.057 44.6055 43.0557 44.6055C43.0565 44.5827 43.0593 44.5602 43.0593 44.5372V10.7466C43.0593 9.68668 42.2005 8.82788 41.1407 8.82788H1.91867C0.858797 8.82788 0 9.68668 0 10.7466V44.5372C0 45.597 0.858797 46.4558 1.91867 46.4558H41.1407C41.1419 46.4558 41.143 46.4556 41.1442 46.4556C41.1435 46.4783 41.1407 46.5009 41.1407 46.5239V69.8636C41.1407 70.9235 41.9995 71.7823 43.0593 71.7823H69.6664C70.7261 71.7823 71.5851 70.9235 71.5851 69.8636V46.5239C71.5851 45.464 70.7263 44.6052 69.6664 44.6052ZM39.222 12.6652V18.9523H3.83734V12.6652H39.222ZM3.83734 42.6185V22.7897H39.222V42.6185H3.83734ZM48.3042 39.8554C48.3042 35.3976 51.9192 31.7708 56.3624 31.7708C60.8063 31.7708 64.4216 35.3976 64.4216 39.8554V44.605H48.3042V39.8554ZM67.7478 67.945H44.978V48.4426H67.7478V67.945Z" fill="#8F6EED"/>
<path d="M56.3622 54.1528C54.3878 54.1528 52.7817 55.7614 52.7817 57.739C52.7817 59.0091 53.4464 60.124 54.4436 60.761V63.1946C54.4436 64.2545 55.3024 65.1133 56.3622 65.1133C57.4221 65.1133 58.2809 64.2545 58.2809 63.1946V60.7618C59.2791 60.1248 59.9448 59.0091 59.9448 57.739C59.9448 55.7614 58.3377 54.1528 56.3622 54.1528Z" fill="#8F6EED"/>
<path d="M27.5151 30.1384H9.34787C8.288 30.1384 7.4292 30.9972 7.4292 32.0571C7.4292 33.117 8.288 33.9758 9.34787 33.9758H27.5151C28.575 33.9758 29.4338 33.117 29.4338 32.0571C29.4338 30.9972 28.5747 30.1384 27.5151 30.1384Z" fill="#8F6EED"/>
</svg>
