<svg width="48" height="40" viewBox="0 0 48 40" fill="none" xmlns="http://www.w3.org/2000/svg">
<path d="M44.7682 6.2457C45.2475 6.24625 45.7175 6.1128 46.1251 5.86041C46.5327 5.60803 46.8616 5.24676 47.0747 4.81737C47.2879 4.38798 47.3768 3.90757 47.3314 3.43034C47.286 2.95311 47.1081 2.49807 46.8179 2.11655C46.5276 1.73504 46.1365 1.44225 45.6887 1.27121C45.2408 1.10018 44.7541 1.05771 44.2834 1.14861C43.8127 1.2395 43.3768 1.46014 43.0249 1.78562C42.6729 2.1111 42.4189 2.52847 42.2916 2.99063H26.949V1.4082C26.9489 1.22693 26.8769 1.05312 26.7487 0.924944C26.6205 0.796768 26.4467 0.724713 26.2654 0.724609H21.7342C21.5529 0.724713 21.3791 0.796768 21.2509 0.924944C21.1227 1.05312 21.0507 1.22693 21.0506 1.4082V3.1082H5.73807C5.60109 2.50129 5.2487 1.96462 4.74623 1.59768C4.24377 1.23074 3.62531 1.05843 3.00549 1.11267C2.38567 1.16692 1.80655 1.44405 1.37546 1.89269C0.944374 2.34133 0.690569 2.93105 0.661092 3.55254C0.631616 4.17403 0.828468 4.78512 1.21516 5.27255C1.60185 5.75998 2.15215 6.09068 2.76405 6.20334C3.37595 6.316 4.00794 6.203 4.54288 5.88526C5.07782 5.56753 5.47942 5.06662 5.67323 4.47539H15.8717C9.19198 7.01445 4.30135 12.5859 3.17128 19.4016H1.34354C1.16227 19.4017 0.988459 19.4737 0.860283 19.6019C0.732107 19.7301 0.660052 19.9039 0.659949 20.0852V24.6164C0.659949 24.7977 0.73197 24.9716 0.860169 25.0998C0.988367 25.228 1.16224 25.3 1.34354 25.3H5.87479C6.05609 25.3 6.22997 25.228 6.35817 25.0998C6.48636 24.9716 6.55839 24.7977 6.55839 24.6164V20.0852C6.55828 19.9039 6.48623 19.7301 6.35805 19.6019C6.22988 19.4737 6.05606 19.4017 5.87479 19.4016H4.55448C5.94159 11.6797 12.5682 5.71602 21.0506 4.5625V5.93945C21.0506 6.12075 21.1226 6.29463 21.2508 6.42283C21.379 6.55103 21.5529 6.62305 21.7342 6.62305H22.7205L12.3662 22.1094C12.2995 22.2092 12.2603 22.3248 12.2525 22.4446C12.2447 22.5644 12.2686 22.6841 12.3217 22.7918L17.0553 32.3852C16.1671 33.1635 15.4562 34.1233 14.9706 35.1998C14.485 36.2763 14.236 37.4444 14.2404 38.6254C14.2491 38.8006 14.3249 38.9658 14.452 39.0868C14.579 39.2078 14.7478 39.2753 14.9232 39.2754H33.0764C33.2518 39.2754 33.4206 39.2079 33.5477 39.0869C33.6748 38.9659 33.7505 38.8007 33.7592 38.6254C33.7636 37.4444 33.5146 36.2763 33.029 35.1998C32.5434 34.1233 31.8325 33.1635 30.9443 32.3852L35.6795 22.7898C35.7326 22.6822 35.7564 22.5625 35.7486 22.4427C35.7408 22.3229 35.7016 22.2073 35.6349 22.1074L25.2791 6.62305H26.2654C26.4467 6.62305 26.6206 6.55103 26.7488 6.42283C26.877 6.29463 26.949 6.12075 26.949 5.93945V4.5625C35.4314 5.71602 42.058 11.6809 43.4451 19.4016H42.1248C41.9435 19.4017 41.7697 19.4737 41.6415 19.6019C41.5134 19.7301 41.4413 19.9039 41.4412 20.0852V24.6164C41.4412 24.7977 41.5132 24.9716 41.6414 25.0998C41.7696 25.228 41.9435 25.3 42.1248 25.3H46.656C46.8373 25.3 47.0112 25.228 47.1394 25.0998C47.2676 24.9716 47.3396 24.7977 47.3396 24.6164V20.0852C47.3395 19.9039 47.2675 19.7301 47.1393 19.6019C47.0111 19.4737 46.8373 19.4017 46.656 19.4016H44.8283C43.6806 12.4785 38.6533 6.83867 31.8123 4.35781H42.2924C42.4422 4.89971 42.7654 5.37764 43.2124 5.71855C43.6595 6.05947 44.2059 6.24462 44.7682 6.2457ZM5.1912 23.9328H2.02714V20.7688H5.1912V23.9328ZM45.9724 23.9328H42.8084V20.7688H45.9724V23.9328ZM44.7682 2.46953C45.0064 2.46953 45.2393 2.54019 45.4374 2.67256C45.6355 2.80493 45.79 2.99308 45.8811 3.21321C45.9723 3.43333 45.9962 3.67556 45.9497 3.90924C45.9032 4.14293 45.7885 4.35758 45.62 4.52606C45.4515 4.69454 45.2369 4.80928 45.0032 4.85576C44.7695 4.90224 44.5273 4.87839 44.3071 4.78721C44.087 4.69603 43.8989 4.54162 43.7665 4.34351C43.6341 4.1454 43.5635 3.91248 43.5635 3.67422C43.5638 3.35481 43.6908 3.04857 43.9166 2.82272C44.1425 2.59686 44.4487 2.46984 44.7682 2.46953ZM3.23143 4.87852C2.99315 4.87852 2.76022 4.80785 2.5621 4.67546C2.36399 4.54307 2.20958 4.3549 2.11841 4.13475C2.02724 3.9146 2.00341 3.67236 2.04992 3.43866C2.09644 3.20496 2.21121 2.99031 2.37973 2.82185C2.54825 2.65338 2.76294 2.53868 2.99665 2.49224C3.23036 2.4458 3.4726 2.46971 3.69272 2.56095C3.91284 2.65219 4.10096 2.80666 4.23328 3.00482C4.36561 3.20299 4.4362 3.43594 4.43612 3.67422C4.43581 3.99359 4.30878 4.29979 4.08291 4.52558C3.85704 4.75137 3.5508 4.87831 3.23143 4.87852ZM23.9998 20.1109C24.4428 20.1109 24.8758 20.2423 25.2441 20.4884C25.6125 20.7345 25.8996 21.0843 26.0691 21.4935C26.2386 21.9028 26.283 22.3531 26.1966 22.7876C26.1102 23.2221 25.8969 23.6212 25.5837 23.9345C25.2705 24.2477 24.8715 24.4611 24.437 24.5475C24.0025 24.634 23.5522 24.5897 23.1429 24.4202C22.7336 24.2508 22.3838 23.9637 22.1376 23.5955C21.8915 23.2272 21.76 22.7942 21.7599 22.3512C21.7605 21.7573 21.9966 21.1878 22.4165 20.7678C22.8365 20.3478 23.4059 20.1116 23.9998 20.1109ZM32.3654 37.9082H15.6377C15.7264 37.0053 15.9933 36.1288 16.4229 35.3297C16.8525 34.5305 17.4362 33.8245 18.1404 33.2523H29.8592C30.5662 33.8221 31.1522 34.5276 31.5826 35.3271C32.013 36.1267 32.2791 37.0043 32.3654 37.9082ZM29.6666 31.8852H18.333L13.7221 22.5391L23.3162 8.1918V18.8109C22.4353 18.981 21.6493 19.4732 21.1118 20.1916C20.5742 20.9099 20.3237 21.8028 20.4091 22.696C20.4945 23.5891 20.9097 24.4183 21.5737 25.0218C22.2376 25.6253 23.1026 25.9596 23.9998 25.9596C24.897 25.9596 25.762 25.6253 26.4259 25.0218C27.0898 24.4183 27.505 23.5891 27.5904 22.696C27.6758 21.8028 27.4253 20.9099 26.8878 20.1916C26.3503 19.4732 25.5643 18.981 24.6834 18.8109V8.1918L34.2775 22.5391L29.6666 31.8852ZM25.5818 5.25586H22.4178V2.0918H25.5818V5.25586Z" fill="#CDFFD2"/>
</svg>
