<svg width="53" height="50" viewBox="0 0 53 50" fill="none" xmlns="http://www.w3.org/2000/svg">
<circle cx="24.9997" cy="24.9999" r="15.625" stroke="#0B78EB" stroke-width="2.08333"/>
<path d="M30.2083 24.9999C30.2083 29.5105 29.521 33.5476 28.4441 36.4193C27.9042 37.859 27.2865 38.9517 26.6533 39.6658C26.0192 40.3811 25.4581 40.6249 25 40.6249C24.5419 40.6249 23.9808 40.3811 23.3467 39.6658C22.7135 38.9517 22.0958 37.859 21.5559 36.4193C20.479 33.5476 19.7917 29.5105 19.7917 24.9999C19.7917 20.4894 20.479 16.4523 21.5559 13.5806C22.0958 12.1409 22.7135 11.0481 23.3467 10.334C23.9808 9.61875 24.5419 9.37492 25 9.37492C25.4581 9.37492 26.0192 9.61875 26.6533 10.334C27.2865 11.0481 27.9042 12.1409 28.4441 13.5806C29.521 16.4523 30.2083 20.4894 30.2083 24.9999Z" stroke="#0B78EB" stroke-width="2.08333"/>
<path d="M9.375 25H40.625" stroke="#0B78EB" stroke-width="2.08333" stroke-linecap="round"/>
</svg>
