<svg width="72" height="72" viewBox="0 0 72 72" fill="none" xmlns="http://www.w3.org/2000/svg">
<path d="M14.1334 16.8259C14.2667 16.9164 14.355 16.9365 14.3873 17.1047C14.5115 17.7498 14.4045 18.5713 14.4166 19.2403L8.60015 19.2468C7.46803 19.2456 6.28406 19.3105 5.16113 19.1774C6.14778 18.9153 10.5354 19.113 11.9477 19.1173C12.4233 19.1187 13.0848 19.1934 13.5428 19.075C14.0616 18.9408 13.7307 17.3627 14.112 16.8537C14.1191 16.8443 14.1263 16.8352 14.1334 16.8259Z" fill="#8F6EED"/>
<path d="M13.1069 12.0668C13.5422 12.065 13.9847 12.0462 14.4192 12.0632C14.4044 12.8608 14.3866 13.6572 14.4108 14.4548C11.4808 14.4724 8.04314 14.6402 5.15527 14.4147C6.93416 13.783 11.4648 14.4824 13.7205 14.1294C13.781 14.0469 13.825 13.9617 13.8547 13.8639C13.993 13.4083 14.002 12.8162 13.7573 12.3918C13.606 12.1294 13.3825 12.1385 13.1069 12.0668Z" fill="#8F6EED"/>
<path d="M4.87149 12.0378C7.61047 12.1365 10.3639 11.997 13.1064 12.0667C13.382 12.1384 13.6055 12.1293 13.7568 12.3916C14.0015 12.816 13.9925 13.4082 13.8542 13.8638C13.8245 13.9615 13.7805 14.0467 13.72 14.1292C11.4643 14.4823 6.93366 13.7828 5.15477 14.4145C5.05574 14.4454 5.01236 14.4231 4.91314 14.3989C4.6834 13.8389 4.86014 12.6668 4.87149 12.0378Z" fill="#8F6EED"/>
<path d="M4.80903 16.904C5.80687 16.7994 6.84863 16.8459 7.85203 16.8464C9.94256 16.8476 12.0442 16.898 14.1332 16.8259C14.1261 16.8352 14.1188 16.8443 14.1118 16.8537C13.7305 17.3627 14.0613 18.9408 13.5426 19.075C13.0845 19.1934 12.4231 19.1187 11.9475 19.1173C10.5352 19.113 6.14756 18.9153 5.16091 19.1774C5.03908 19.19 5.01371 19.1587 4.9099 19.099C4.69997 18.5438 4.85 17.535 4.80903 16.904Z" fill="#8F6EED"/>
<path d="M57.5533 16.8673C60.7507 16.8299 63.948 16.8321 67.1454 16.8738C67.0442 17.6466 67.0741 18.461 67.0561 19.2408C63.8803 19.2414 60.667 19.1251 57.4966 19.2359C57.5468 18.4503 57.538 17.6546 57.5533 16.8673Z" fill="#8F6EED"/>
<path d="M31.2671 16.8864C34.4134 16.716 37.6285 16.8454 40.7833 16.8614C40.7239 17.6386 40.8522 18.4842 40.6836 19.2431C37.5034 19.2556 34.3233 19.2455 31.1432 19.2127C31.1996 18.5436 31.0013 17.4735 31.2671 16.8864Z" fill="#8F6EED"/>
<path d="M57.5538 12.019C58.633 12.1159 59.7662 12.0502 60.8511 12.0507L67.0908 12.0486C67.0857 12.8609 67.0724 13.673 67.0509 14.485C65.6974 14.3512 64.2369 14.4566 62.8734 14.4543C61.1435 14.4514 59.2028 14.2822 57.5044 14.5301C57.5289 13.6932 57.5454 12.8562 57.5538 12.019Z" fill="#8F6EED"/>
<path d="M31.2078 12.0447L40.7593 12.049L40.7363 14.4677C37.5697 14.4494 34.302 14.2866 31.147 14.4986C31.195 13.6851 31.1877 12.8597 31.2078 12.0447Z" fill="#8F6EED"/>
<path d="M27.2834 0.104142C28.7421 0.0350196 37.0893 -0.161379 37.8485 0.39304C37.9772 0.487072 38.1049 0.581514 38.2271 0.684114C39.601 1.83804 40.8472 3.25007 42.1195 4.52364C43.163 5.56846 44.3978 6.61279 45.2957 7.77783C45.4566 7.98631 45.5356 8.17799 45.5528 8.44104C45.5689 8.6842 45.5045 8.90279 45.3409 9.08593C44.9297 9.54687 44.1537 9.66334 43.5631 9.6897C42.5821 9.73347 36.8176 9.87568 36.2324 9.30092C35.7674 8.84408 35.9663 3.48476 35.9672 2.52934C34.8509 2.58636 33.7167 2.53942 32.5976 2.54808C31.3575 2.5577 30.0186 2.67186 28.7928 2.47975C28.5861 8.84074 28.8396 15.2362 28.7477 21.6037L43.1937 21.6295C43.0975 18.6303 43.1826 15.605 43.1872 12.6033L43.2002 12.2418C43.6317 11.8492 44.9646 12.0399 45.5448 12.0469C45.5463 15.3418 45.6732 18.6669 45.5666 21.9576C45.5513 22.4279 45.4938 23.4646 45.0991 23.7684C44.5607 24.1827 38.1397 24.1554 37.192 24.0192C37.1617 24.6488 37.0115 27.6751 37.2928 28.0383C37.8753 27.9063 38.1922 26.9771 38.7958 26.9457C39.3821 27.3538 39.8746 27.9522 40.3674 28.467C40.3493 28.4882 40.331 28.5092 40.3126 28.53C39.596 29.3193 36.9885 32.3164 35.9964 32.355C34.9808 32.3946 32.4311 29.3381 31.5662 28.5552C32.0184 27.9109 32.6215 27.3518 33.1795 26.7989C33.7474 27.2364 34.2507 27.8 34.8056 28.2638C34.8148 26.8685 34.8065 25.4734 34.7807 24.0783C33.071 24.0487 28.4444 24.2718 27.1048 23.8983C26.9204 23.8469 26.6758 23.8012 26.5842 23.611C26.4253 23.2808 26.3972 22.7785 26.3829 22.4156C26.3421 21.3833 26.4028 20.3396 26.4045 19.3058L26.4013 12.6414C26.3986 8.97893 26.2544 5.25663 26.3982 1.59983C26.41 1.3002 26.4339 0.967846 26.5462 0.688203C26.6892 0.332168 26.9493 0.242551 27.2834 0.104142ZM38.3697 4.32264C38.3635 5.29204 38.3927 6.28046 38.3114 7.24615C39.3082 7.26186 40.3283 7.32294 41.3209 7.2189C41.0542 6.73534 38.8364 4.4913 38.3697 4.32264Z" fill="#8F6EED"/>
<path d="M0.925755 0.10993C1.10055 0.0993125 1.27545 0.0908407 1.45045 0.084515C3.01399 0.0317641 10.0194 -0.123101 11.1292 0.193619C11.5372 0.310047 12.0058 0.786111 12.3135 1.07447C13.684 2.35885 14.9893 3.73682 16.3206 5.06389C17.1933 5.93384 18.3175 6.85719 19.0127 7.8633C19.1284 8.03066 19.1776 8.22116 19.1806 8.42343C19.1842 8.65995 19.1597 8.96837 18.9799 9.14258C18.0582 10.0354 15.1453 9.68703 13.9101 9.686C13.1917 9.68538 10.3618 9.80177 9.9307 9.32833C9.32846 8.66693 9.60273 3.70474 9.60392 2.52583C8.52131 2.57315 7.42486 2.53081 6.33999 2.53882C5.04918 2.54832 3.72586 2.62098 2.44053 2.49233C2.40056 8.85693 2.51062 15.2258 2.4155 21.5895C7.20397 21.7431 12.0151 21.5965 16.8072 21.6374C16.8719 18.5929 16.6022 14.9674 16.8658 12.0182C17.6262 12.0794 18.4053 12.0503 19.1683 12.054L19.1796 13.0419L19.1993 19.1739C19.2014 20.2548 19.2842 21.4117 19.1642 22.4849C19.1196 22.884 19.0366 23.5348 18.7356 23.8181C18.3349 24.1951 11.773 24.1079 10.8002 24.0793C10.8156 25.2911 10.7999 26.5048 10.7985 27.7168C10.8012 32.8591 10.85 38.006 10.7839 43.1477C12.026 43.096 13.3009 43.1776 14.548 43.1776C16.7329 43.1776 18.9299 43.1259 21.1127 43.2228L19.5537 41.6263C20.1306 41.1258 20.662 40.5376 21.2049 39.9972C22.2922 40.9266 23.3227 41.9716 24.3355 42.9822C24.7033 43.3493 25.1036 43.8437 25.0926 44.3898C25.0706 45.4831 22.0849 48.0009 21.2088 48.8053C20.836 48.4451 20.3969 48.0821 20.074 47.679C19.9313 47.5004 19.8189 47.2594 19.8571 47.026C19.9512 46.4511 20.7454 45.971 21.1825 45.6483C18.7676 45.4938 10.3127 45.9353 8.79221 45.3762C8.50993 45.0094 8.46325 44.358 8.42968 43.9069C8.27079 41.7708 8.4224 39.5102 8.42351 37.3633L8.4211 24.084C6.11508 24.0269 3.72337 24.2242 1.43474 24.0357C1.03819 24.003 0.550934 23.9668 0.283298 23.652L0.393701 23.5622L0.255004 23.5638C0.146571 23.0725 0.06604 22.5851 0.0432381 22.0818C-0.0196452 20.6938 0.0377657 19.2785 0.0415213 17.8873L0.0386202 10.5724L0.0353743 4.79682C0.0354624 3.46231 -0.115643 1.89105 0.206082 0.598239C0.38883 0.338593 0.6474 0.238215 0.925755 0.10993ZM12 4.31407C12.0469 5.2896 12.0422 6.2649 11.9861 7.23995C12.853 7.26294 14.18 7.45578 14.9997 7.17664C14.5292 6.55386 12.6461 4.57455 12 4.31407Z" fill="#8F6EED"/>
<path d="M53.62 0.103867C55.5449 0.0157408 57.4921 0.0677213 59.4197 0.0642723C60.7545 0.061881 62.2337 -0.0606628 63.552 0.14652C63.7885 0.183712 64.0077 0.2412 64.2012 0.388473C65.147 1.10779 71.0739 6.94588 71.704 7.86328C71.9305 8.19316 71.873 8.57581 71.7994 8.94493C71.6262 9.23093 71.3755 9.3746 71.064 9.48275C69.9833 9.85781 63.6302 9.83926 62.6434 9.36211C62.0367 8.63697 62.3353 3.77611 62.3042 2.55769C60.2421 2.52879 57.0314 2.75378 55.1655 2.46951C55.0827 4.77104 55.1352 7.08717 55.1349 9.39032L55.1356 21.6015C59.9217 21.688 64.7208 21.5032 69.5035 21.6532C69.4387 18.4504 69.5023 15.2352 69.492 12.0309C70.2899 12.055 71.0912 12.0434 71.8895 12.0466C71.7986 15.3795 72.0385 18.7392 71.9009 22.0681C71.8826 22.5104 71.8212 23.4729 71.4464 23.7583C70.867 24.2 64.5346 24.1496 63.5551 24.0016C63.5114 25.1299 63.5267 26.2623 63.5256 27.3914L63.521 38.688C63.5229 40.4611 63.69 42.3378 63.5179 44.0964C63.4777 44.5088 63.3937 45.0054 63.0883 45.3105C62.8814 45.5178 62.5345 45.5439 62.2575 45.5718C60.9415 45.7044 59.5354 45.6144 58.2087 45.6117L50.7864 45.6025C51.0582 45.837 51.3273 46.0748 51.5935 46.3157C51.8257 46.5299 52.0729 46.7916 52.074 47.13C52.076 47.6911 51.0892 48.4249 50.6875 48.8051C49.5854 47.8624 48.4449 46.7242 47.4596 45.6611C47.1163 45.2909 46.7959 44.8368 46.8285 44.3083C46.8944 43.2541 49.8329 40.7493 50.6933 39.9848C51.2349 40.5185 51.7822 41.0463 52.335 41.5683C51.8713 42.1581 51.3379 42.6804 50.8094 43.2112C54.2344 43.168 57.6594 43.1654 61.0844 43.2035C60.9974 36.8393 61.1312 30.4593 61.1001 24.0924C59.5998 24.0561 54.5474 24.2395 53.5246 23.9521C53.3605 23.9061 53.1494 23.8728 53.0654 23.7181C52.8363 23.2967 52.7991 22.6623 52.7746 22.1906C52.6075 18.9957 52.7562 15.7122 52.7589 12.5086L52.7715 4.55068C52.7704 3.63129 52.6983 2.70711 52.7194 1.78894C52.7267 1.46562 52.7684 1.12097 52.8731 0.814285C53.0152 0.39782 53.2344 0.291184 53.62 0.103867ZM64.7925 4.3296C64.6676 5.30204 64.7308 6.29164 64.7025 7.26978C65.6693 7.26729 66.6768 7.3209 67.6383 7.23667C67.5107 6.84176 65.2535 4.57766 64.8308 4.34727C64.8186 4.34052 64.8055 4.33547 64.7925 4.3296Z" fill="#8F6EED"/>
<path d="M34.1302 34.8041C35.355 34.7985 38.2827 34.4038 39.1799 35.2304C39.639 35.6533 39.5918 36.2198 39.6114 36.7946C39.9417 37.0315 40.3284 37.1936 40.6936 37.3702C41.1278 37.202 41.7187 36.9077 42.1828 36.9491C42.5204 36.9793 42.7381 37.2215 42.9458 37.4676C43.5463 38.1777 45.6905 41.6156 45.5824 42.5196C45.5238 43.009 44.791 43.4394 44.4289 43.7034L44.3365 45.0823C44.7983 45.3298 45.3352 45.5854 45.5709 46.0794C45.6295 46.4714 45.4762 46.8972 45.3226 47.2555C44.9447 48.1369 43.0592 51.6557 42.2667 51.8803C41.8529 51.9975 41.0722 51.5304 40.7036 51.3579C40.3399 51.5154 40.0141 51.7527 39.6846 51.9711C39.5807 52.5463 39.5696 53.2664 39.1101 53.691C38.6177 54.1463 37.8152 54.0463 37.1997 54.0225C37.1055 55.4132 37.1541 56.8365 37.1994 58.2292C37.696 57.7064 38.1973 57.2155 38.7414 56.7407L40.3851 58.4135C39.1737 59.6026 37.6512 61.5502 36.226 62.3845C38.8597 62.3441 41.4936 62.3279 44.1277 62.3358C45.6 62.3339 47.1207 62.2507 48.5846 62.3584C48.9958 62.3887 49.4476 62.4473 49.8205 62.6301C50.0297 62.7328 50.1336 62.88 50.2025 63.1022C50.4168 63.794 50.421 69.5741 50.3336 70.4843C50.298 70.8557 50.2301 71.1875 50.0489 71.5186C49.727 71.8026 49.2276 71.8881 48.8099 71.9352C47.6476 72.0666 46.3826 71.9578 45.2091 71.9563L37.839 71.9486L28.3918 71.9547C26.6902 71.9593 24.9103 72.0663 23.2172 71.9306C22.7565 71.8934 22.3079 71.8202 21.8822 71.634C21.685 71.383 21.6372 71.0408 21.6064 70.7307C21.4803 69.4607 21.6081 68.1202 21.6072 66.8418C21.6066 65.8239 21.4824 64.7539 21.6055 63.7464C21.6495 63.3862 21.734 62.9313 21.992 62.6608C22.2055 62.437 22.914 62.3822 23.22 62.358C24.6253 62.2465 26.0989 62.3377 27.5122 62.3373C30.244 62.324 32.9757 62.335 35.7072 62.3703C34.2816 61.5341 32.7411 59.644 31.5508 58.4522C32.0648 57.8494 32.6313 57.2768 33.1709 56.697C33.7291 57.1998 34.2627 57.7352 34.8051 58.2556L34.7878 54.0478C34.1946 54.0374 33.3023 54.1114 32.8161 53.7159C32.3253 53.3166 32.3174 52.4804 32.2452 51.9021C31.8846 51.6998 31.5298 51.5461 31.1433 51.4016C30.7117 51.5883 30.2737 51.7561 29.8349 51.9247C29.6217 51.837 29.3406 51.7354 29.1681 51.5806C28.5414 51.0184 26.3751 47.2766 26.3736 46.4967C26.3723 45.7774 26.8534 45.6057 27.2836 45.1689C27.6692 44.7772 27.5836 44.2943 27.576 43.7843C27.2478 43.5444 26.679 43.2167 26.4548 42.8891C26.3228 42.6963 26.3367 42.4878 26.3797 42.2655C26.5833 41.2109 28.5658 37.6101 29.4508 37.0031C30.1082 36.8353 30.6312 37.1503 31.2232 37.4063C32.7529 36.705 31.9672 36.0056 32.8063 35.1329C33.142 34.7838 33.6837 34.8194 34.1302 34.8041ZM34.8761 37.1924C34.7956 37.8274 34.6606 38.175 34.1387 38.5805C33.5063 39.0714 31.8308 40.1777 31.0358 40.0643C30.7758 40.0271 30.5393 39.8995 30.3108 39.7765C29.9346 40.4452 29.5191 41.112 29.1945 41.8068C29.6055 42.1134 29.9513 42.3226 30.0326 42.8645C30.152 43.6597 30.2262 45.8709 29.7366 46.5086C29.6014 46.6845 29.4117 46.8148 29.2302 46.9386C29.5118 47.5437 29.8014 48.314 30.2993 48.775C30.7041 48.7604 31.2384 48.68 31.6301 48.7601C32.2925 48.8957 33.847 49.9963 34.5496 50.3631L34.9115 51.4721C35.637 51.5013 36.3674 51.5503 37.0932 51.5496C37.1369 51.0261 37.1974 50.6513 37.6232 50.2945C38.2965 49.73 39.9808 48.6278 40.871 48.7202C41.1381 48.7478 41.398 48.8601 41.6448 48.9605L42.7484 46.944C42.3223 46.6757 42.0606 46.5251 41.9391 46.0039C41.7574 45.224 41.677 43.0581 42.1131 42.382C42.2606 42.1536 42.5135 41.9632 42.7205 41.7896C42.3691 41.1362 42.0096 40.4866 41.6693 39.8275C40.8703 40.1245 40.5606 40.1111 39.7777 39.7504C39.112 39.4439 37.4803 38.6786 37.2246 37.9677C37.1426 37.7404 37.1246 37.4779 37.1005 37.2392C36.367 37.2392 35.604 37.2817 34.8761 37.1924ZM24.0007 64.7471C23.9536 66.3309 23.9942 67.9152 23.9828 69.499C29.5396 69.5425 35.0964 69.5526 40.6534 69.5293C43.0765 69.5285 45.5253 69.4496 47.9434 69.5581C47.9308 67.9765 47.9017 66.3673 47.9802 64.7877C39.9934 64.5895 31.9865 64.9567 24.0007 64.7471Z" fill="#8F6EED"/>
<path d="M35.8732 39.5896C36.9767 39.636 37.9816 39.8996 38.8764 40.5733C38.9995 40.6668 39.1178 40.7662 39.2313 40.8715C39.3447 40.9765 39.4528 41.0869 39.5555 41.2026C39.6579 41.3183 39.7545 41.4389 39.8452 41.5644C39.9361 41.6895 40.0206 41.8189 40.0985 41.9526C40.1764 42.0862 40.2477 42.2232 40.3123 42.3638C40.3767 42.5043 40.4342 42.6477 40.4848 42.7941C40.5351 42.9403 40.5782 43.0886 40.6139 43.239C40.6497 43.3895 40.6781 43.5414 40.699 43.6947C40.7215 43.8531 40.7361 44.0121 40.7427 44.1718C40.7493 44.3318 40.7479 44.4914 40.7385 44.6508C40.7293 44.8105 40.7122 44.9693 40.6871 45.1272C40.6621 45.2853 40.6291 45.4417 40.5883 45.5963C40.5476 45.7508 40.4995 45.9031 40.4438 46.0531C40.3878 46.2028 40.3247 46.3494 40.2545 46.493C40.184 46.6366 40.1065 46.7763 40.0222 46.9123C39.9377 47.0482 39.8467 47.1795 39.7494 47.3062C38.7856 48.5601 37.5995 48.9936 36.0815 49.197C34.8856 49.0871 33.8751 48.8502 32.9264 48.0723C32.8059 47.9755 32.6905 47.8727 32.5802 47.7642C32.47 47.6558 32.3654 47.5422 32.2665 47.4231C32.1677 47.3043 32.075 47.1808 31.9884 47.0525C31.9019 46.9243 31.822 46.7921 31.7487 46.6559C31.6754 46.5197 31.6091 46.3802 31.5498 46.2374C31.4905 46.0946 31.4384 45.9491 31.3937 45.8009C31.3489 45.653 31.3116 45.5031 31.2819 45.3514C31.2521 45.1996 31.23 45.0467 31.2155 44.8927C31.0927 43.61 31.4965 42.2549 32.3249 41.2647C33.247 40.1625 34.4766 39.7134 35.8732 39.5896ZM35.5359 42.048C34.8173 42.2607 34.2586 42.5619 33.8853 43.2517C33.5793 43.8173 33.5289 44.5002 33.7181 45.1123C33.7414 45.1863 33.7683 45.259 33.7989 45.3303C33.8294 45.4016 33.8635 45.4711 33.9011 45.5388C33.9386 45.6067 33.9795 45.6725 34.0238 45.7361C34.068 45.7998 34.1153 45.8611 34.1657 45.9201C34.2161 45.9791 34.2694 46.0353 34.3254 46.0887C34.3815 46.1424 34.4402 46.1931 34.5013 46.2408C34.5625 46.2884 34.626 46.3328 34.6916 46.3742C34.7573 46.4153 34.8248 46.4532 34.8943 46.4876C35.425 46.7555 35.9168 46.7505 36.4908 46.7264C37.2435 46.4348 37.8068 46.0864 38.1414 45.3069C38.1718 45.2349 38.1986 45.1614 38.2218 45.0866C38.2451 45.0117 38.2646 44.936 38.2805 44.8593C38.2963 44.7827 38.3083 44.7054 38.3165 44.6275C38.3247 44.5498 38.3291 44.4718 38.3299 44.3933C38.3304 44.3151 38.3272 44.2371 38.3203 44.1592C38.3132 44.081 38.3023 44.0035 38.2878 43.9266C38.2732 43.8497 38.2549 43.7736 38.233 43.6985C38.211 43.6234 38.1853 43.5496 38.1559 43.477C38.1273 43.406 38.0953 43.3365 38.0597 43.2686C38.0242 43.2006 37.9853 43.1347 37.9429 43.0708C37.9007 43.0069 37.8554 42.9452 37.8068 42.8857C37.7585 42.8264 37.7073 42.7697 37.6531 42.7156C37.599 42.6614 37.5421 42.61 37.4826 42.5615C37.4233 42.513 37.3618 42.4676 37.2979 42.4255C37.2338 42.3833 37.1678 42.3443 37.1001 42.3086C37.0322 42.2731 36.9627 42.241 36.8917 42.2124C36.4444 42.0288 36.008 42.015 35.5359 42.048Z" fill="#8F6EED"/>
</svg>
