<svg width="71" height="85" viewBox="0 0 71 85" fill="none" xmlns="http://www.w3.org/2000/svg">
<path d="M70.9089 21.7563C70.8655 19.475 70.8241 17.3199 70.8241 15.235C70.8241 13.6016 69.5003 12.2774 67.8665 12.2774C55.2179 12.2774 45.5876 8.64232 37.5603 0.837441C36.4119 -0.279344 34.5845 -0.27895 33.4366 0.837441C25.4101 8.64232 15.7814 12.2774 3.13354 12.2774C1.50016 12.2774 0.175947 13.6016 0.175947 15.235C0.175947 17.3203 0.134935 19.4762 0.0911629 21.7579C-0.314224 42.9878 -0.86946 72.0633 34.5297 84.3333C34.8436 84.4422 35.1709 84.4966 35.4982 84.4966C35.8255 84.4966 36.1532 84.4422 36.4668 84.3333C71.8687 72.0629 71.3142 42.9866 70.9089 21.7563ZM35.4986 78.4004C5.13918 67.3718 5.59819 43.2122 6.00555 21.8706C6.03 20.5898 6.05366 19.3484 6.07023 18.1315C17.9164 17.6314 27.3893 14.0417 35.4986 6.9774C43.6087 14.0417 53.0833 17.6318 64.9302 18.1315C64.9468 19.348 64.9704 20.5886 64.9949 21.8687C65.4018 43.211 65.8605 67.3714 35.4986 78.4004Z" fill="#0B78EB"/>
<path d="M45.6836 31.9741L31.4087 46.2482L25.3173 40.1567C24.1622 39.0021 22.2895 39.0021 21.1348 40.1567C19.9798 41.3121 19.9798 43.1845 21.1348 44.3395L29.3175 52.5222C29.8948 53.0995 30.652 53.3882 31.4087 53.3882C32.1655 53.3882 32.9226 53.0995 33.4999 52.5222L49.8656 36.1569C51.0211 35.0018 51.0211 33.1291 49.866 31.9744C48.7114 30.8194 46.8386 30.819 45.6836 31.9741Z" fill="#0B78EB"/>
</svg>
