<svg width="51" height="50" viewBox="0 0 51 50" fill="none" xmlns="http://www.w3.org/2000/svg">
<path d="M20.2503 8.33366H23.5837M15.2503 13.3337V5.00033C15.2503 3.15938 16.7427 1.66699 18.5837 1.66699H31.917C33.758 1.66699 35.2503 3.15938 35.2503 5.00033V21.667C35.2503 23.5079 33.758 25.0003 31.917 25.0003H18.5837C16.7427 25.0003 15.2503 26.4927 15.2503 28.3337V45.0003C15.2503 46.8413 16.7427 48.3337 18.5837 48.3337H31.917C33.758 48.3337 35.2503 46.8413 35.2503 45.0003V36.667M26.917 15.0003H5.25033C3.40938 15.0003 1.91699 16.4927 1.91699 18.3337V35.0003C1.91699 36.8413 3.40938 38.3337 5.25033 38.3337H15.2503M23.5837 35.0003H45.2503C47.0913 35.0003 48.5837 33.508 48.5837 31.667V15.0003C48.5837 13.1594 47.0913 11.667 45.2503 11.667H35.2503M26.917 41.667H30.2503" stroke="#FFF495" stroke-width="4"/>
</svg>
