<svg width="49" height="49" viewBox="0 0 49 49" fill="none" xmlns="http://www.w3.org/2000/svg">
<path d="M46.5357 46.5359V19.181H34.378V0.944458H11.5823V13.1022H2.46405V46.5359H0.944336V48.0556H48.0554V46.5359H46.5357ZM23.74 46.5359H3.98376V14.6219H23.74V46.5359ZM26.7795 46.5359H25.2597V13.1022H13.102V2.46417H32.8583V19.181H26.7795V46.5359ZM40.4569 46.5359H32.8583V35.8979H40.4569V46.5359ZM45.016 46.5359H41.9766V35.8979H43.4963V34.3782H29.8189V35.8979H31.3386V46.5359H28.2992V20.7007H45.016V46.5359Z" fill="url(#paint0_linear_2530_950)"/>
<path d="M10.0626 16.1421H5.50342V20.7012H10.0626V16.1421ZM8.54284 19.1815H7.02313V17.6618H8.54284V19.1815Z" fill="url(#paint1_linear_2530_950)"/>
<path d="M16.1417 16.1421H11.5825V20.7012H16.1417V16.1421ZM14.6219 19.1815H13.1022V17.6618H14.6219V19.1815Z" fill="url(#paint2_linear_2530_950)"/>
<path d="M35.8977 22.2201H29.8188V26.7792H35.8977V22.2201ZM34.378 25.2595H31.3386V23.7398H34.378V25.2595Z" fill="url(#paint3_linear_2530_950)"/>
<path d="M43.4963 22.2201H37.4175V26.7792H43.4963V22.2201ZM41.9766 25.2595H38.9372V23.7398H41.9766V25.2595Z" fill="url(#paint4_linear_2530_950)"/>
<path d="M35.8977 28.2992H29.8188V32.8583H35.8977V28.2992ZM34.378 31.3386H31.3386V29.8189H34.378V31.3386Z" fill="url(#paint5_linear_2530_950)"/>
<path d="M43.4963 28.2992H37.4175V32.8583H43.4963V28.2992ZM41.9766 31.3386H38.9372V29.8189H41.9766V31.3386Z" fill="url(#paint6_linear_2530_950)"/>
<path d="M10.0626 22.2201H5.50342V26.7792H10.0626V22.2201ZM8.54284 25.2595H7.02313V23.7398H8.54284V25.2595Z" fill="url(#paint7_linear_2530_950)"/>
<path d="M16.1417 22.2201H11.5825V26.7792H16.1417V22.2201ZM14.6219 25.2595H13.1022V23.7398H14.6219V25.2595Z" fill="url(#paint8_linear_2530_950)"/>
<path d="M10.0626 28.2992H5.50342V32.8583H10.0626V28.2992ZM8.54284 31.3386H7.02313V29.8189H8.54284V31.3386Z" fill="url(#paint9_linear_2530_950)"/>
<path d="M16.1417 28.2992H11.5825V32.8583H16.1417V28.2992ZM14.6219 31.3386H13.1022V29.8189H14.6219V31.3386Z" fill="url(#paint10_linear_2530_950)"/>
<path d="M10.0626 34.3782H5.50342V38.9374H10.0626V34.3782ZM8.54284 37.4177H7.02313V35.8979H8.54284V37.4177Z" fill="url(#paint11_linear_2530_950)"/>
<path d="M16.1417 34.3782H11.5825V38.9374H16.1417V34.3782ZM14.6219 37.4177H13.1022V35.8979H14.6219V37.4177Z" fill="url(#paint12_linear_2530_950)"/>
<path d="M10.0626 40.4573H5.50342V45.0164H10.0626V40.4573ZM8.54284 43.4967H7.02313V41.977H8.54284V43.4967Z" fill="url(#paint13_linear_2530_950)"/>
<path d="M16.1417 40.4573H11.5825V45.0164H16.1417V40.4573ZM14.6219 43.4967H13.1022V41.977H14.6219V43.4967Z" fill="url(#paint14_linear_2530_950)"/>
<path d="M22.2203 16.1421H17.6611V20.7012H22.2203V16.1421ZM20.7006 19.1815H19.1808V17.6618H20.7006V19.1815Z" fill="url(#paint15_linear_2530_950)"/>
<path d="M22.2203 22.2201H17.6611V26.7792H22.2203V22.2201ZM20.7006 25.2595H19.1808V23.7398H20.7006V25.2595Z" fill="url(#paint16_linear_2530_950)"/>
<path d="M22.2203 28.2992H17.6611V32.8583H22.2203V28.2992ZM20.7006 31.3386H19.1808V29.8189H20.7006V31.3386Z" fill="url(#paint17_linear_2530_950)"/>
<path d="M22.2203 34.3782H17.6611V38.9374H22.2203V34.3782ZM20.7006 37.4177H19.1808V35.8979H20.7006V37.4177Z" fill="url(#paint18_linear_2530_950)"/>
<path d="M14.6216 11.5826H31.3384V3.98401H14.6216V11.5826ZM16.1413 5.50372H29.8187V10.0629H16.1413V5.50372Z" fill="url(#paint19_linear_2530_950)"/>
<path d="M22.2203 40.4573H17.6611V45.0164H22.2203V40.4573ZM20.7006 43.4967H19.1808V41.977H20.7006V43.4967Z" fill="url(#paint20_linear_2530_950)"/>
<defs>
<linearGradient id="paint0_linear_2530_950" x1="-18.9178" y1="-28.5672" x2="44.4178" y2="56.5672" gradientUnits="userSpaceOnUse">
<stop stop-color="#00FFA9"/>
<stop offset="1" stop-color="#0D4DFF"/>
</linearGradient>
<linearGradient id="paint1_linear_2530_950" x1="3.58128" y1="13.2861" x2="9.71053" y2="21.5249" gradientUnits="userSpaceOnUse">
<stop stop-color="#00FFA9"/>
<stop offset="1" stop-color="#0D4DFF"/>
</linearGradient>
<linearGradient id="paint2_linear_2530_950" x1="9.66038" y1="13.2861" x2="15.7896" y2="21.5249" gradientUnits="userSpaceOnUse">
<stop stop-color="#00FFA9"/>
<stop offset="1" stop-color="#0D4DFF"/>
</linearGradient>
<linearGradient id="paint3_linear_2530_950" x1="27.256" y1="19.3641" x2="32.7018" y2="29.1243" gradientUnits="userSpaceOnUse">
<stop stop-color="#00FFA9"/>
<stop offset="1" stop-color="#0D4DFF"/>
</linearGradient>
<linearGradient id="paint4_linear_2530_950" x1="34.8546" y1="19.3641" x2="40.3004" y2="29.1243" gradientUnits="userSpaceOnUse">
<stop stop-color="#00FFA9"/>
<stop offset="1" stop-color="#0D4DFF"/>
</linearGradient>
<linearGradient id="paint5_linear_2530_950" x1="27.256" y1="25.4432" x2="32.7018" y2="35.2034" gradientUnits="userSpaceOnUse">
<stop stop-color="#00FFA9"/>
<stop offset="1" stop-color="#0D4DFF"/>
</linearGradient>
<linearGradient id="paint6_linear_2530_950" x1="34.8546" y1="25.4432" x2="40.3004" y2="35.2034" gradientUnits="userSpaceOnUse">
<stop stop-color="#00FFA9"/>
<stop offset="1" stop-color="#0D4DFF"/>
</linearGradient>
<linearGradient id="paint7_linear_2530_950" x1="3.58128" y1="19.3641" x2="9.71053" y2="27.6029" gradientUnits="userSpaceOnUse">
<stop stop-color="#00FFA9"/>
<stop offset="1" stop-color="#0D4DFF"/>
</linearGradient>
<linearGradient id="paint8_linear_2530_950" x1="9.66038" y1="19.3641" x2="15.7896" y2="27.6029" gradientUnits="userSpaceOnUse">
<stop stop-color="#00FFA9"/>
<stop offset="1" stop-color="#0D4DFF"/>
</linearGradient>
<linearGradient id="paint9_linear_2530_950" x1="3.58128" y1="25.4432" x2="9.71053" y2="33.682" gradientUnits="userSpaceOnUse">
<stop stop-color="#00FFA9"/>
<stop offset="1" stop-color="#0D4DFF"/>
</linearGradient>
<linearGradient id="paint10_linear_2530_950" x1="9.66038" y1="25.4432" x2="15.7896" y2="33.682" gradientUnits="userSpaceOnUse">
<stop stop-color="#00FFA9"/>
<stop offset="1" stop-color="#0D4DFF"/>
</linearGradient>
<linearGradient id="paint11_linear_2530_950" x1="3.58128" y1="31.5223" x2="9.71053" y2="39.7611" gradientUnits="userSpaceOnUse">
<stop stop-color="#00FFA9"/>
<stop offset="1" stop-color="#0D4DFF"/>
</linearGradient>
<linearGradient id="paint12_linear_2530_950" x1="9.66038" y1="31.5223" x2="15.7896" y2="39.7611" gradientUnits="userSpaceOnUse">
<stop stop-color="#00FFA9"/>
<stop offset="1" stop-color="#0D4DFF"/>
</linearGradient>
<linearGradient id="paint13_linear_2530_950" x1="3.58128" y1="37.6013" x2="9.71053" y2="45.8401" gradientUnits="userSpaceOnUse">
<stop stop-color="#00FFA9"/>
<stop offset="1" stop-color="#0D4DFF"/>
</linearGradient>
<linearGradient id="paint14_linear_2530_950" x1="9.66038" y1="37.6013" x2="15.7896" y2="45.8401" gradientUnits="userSpaceOnUse">
<stop stop-color="#00FFA9"/>
<stop offset="1" stop-color="#0D4DFF"/>
</linearGradient>
<linearGradient id="paint15_linear_2530_950" x1="15.739" y1="13.2861" x2="21.8682" y2="21.5249" gradientUnits="userSpaceOnUse">
<stop stop-color="#00FFA9"/>
<stop offset="1" stop-color="#0D4DFF"/>
</linearGradient>
<linearGradient id="paint16_linear_2530_950" x1="15.739" y1="19.3641" x2="21.8682" y2="27.6029" gradientUnits="userSpaceOnUse">
<stop stop-color="#00FFA9"/>
<stop offset="1" stop-color="#0D4DFF"/>
</linearGradient>
<linearGradient id="paint17_linear_2530_950" x1="15.739" y1="25.4432" x2="21.8682" y2="33.682" gradientUnits="userSpaceOnUse">
<stop stop-color="#00FFA9"/>
<stop offset="1" stop-color="#0D4DFF"/>
</linearGradient>
<linearGradient id="paint18_linear_2530_950" x1="15.739" y1="31.5223" x2="21.8682" y2="39.7611" gradientUnits="userSpaceOnUse">
<stop stop-color="#00FFA9"/>
<stop offset="1" stop-color="#0D4DFF"/>
</linearGradient>
<linearGradient id="paint19_linear_2530_950" x1="7.57373" y1="-0.77593" x2="14.0468" y2="18.3662" gradientUnits="userSpaceOnUse">
<stop stop-color="#00FFA9"/>
<stop offset="1" stop-color="#0D4DFF"/>
</linearGradient>
<linearGradient id="paint20_linear_2530_950" x1="15.739" y1="37.6013" x2="21.8682" y2="45.8401" gradientUnits="userSpaceOnUse">
<stop stop-color="#00FFA9"/>
<stop offset="1" stop-color="#0D4DFF"/>
</linearGradient>
</defs>
</svg>
