<svg width="78" height="78" viewBox="0 0 78 78" fill="none" xmlns="http://www.w3.org/2000/svg">
<path d="M13.7222 23.4444C19.0916 23.4444 23.4444 19.0916 23.4444 13.7222C23.4444 8.35279 19.0916 4 13.7222 4C8.35279 4 4 8.35279 4 13.7222C4 19.0916 8.35279 23.4444 13.7222 23.4444ZM13.7222 23.4444V54.5556M13.7222 54.5556C8.35279 54.5556 4 58.9084 4 64.2778C4 69.6472 8.35279 74 13.7222 74C19.0916 74 23.4444 69.6472 23.4444 64.2778C23.4444 58.9084 19.0916 54.5556 13.7222 54.5556ZM64.2778 54.5556V26.1667C64.2778 21.8107 64.2778 19.6327 63.43 17.969C62.6845 16.5055 61.4945 15.3156 60.0311 14.57C58.3674 13.7222 56.1893 13.7222 51.8333 13.7222H39M64.2778 54.5556C69.6472 54.5556 74 58.9084 74 64.2778C74 69.6472 69.6472 74 64.2778 74C58.9084 74 54.5556 69.6472 54.5556 64.2778C54.5556 58.9084 58.9084 54.5556 64.2778 54.5556ZM39 13.7222L48.7222 23.4444M39 13.7222L48.7222 4" stroke="#0B78EB" stroke-width="6.40244" stroke-linecap="round" stroke-linejoin="round"/>
</svg>
