<svg width="77" height="77" viewBox="0 0 77 77" fill="none" xmlns="http://www.w3.org/2000/svg">
<path d="M47.5132 60.9048H11.6352V9.447H47.5034V13.2965H52.3244V8.39616C52.3276 3.78012 48.5375 0 43.9247 0H15.2203C10.6009 0 6.8208 3.78012 6.8208 8.39616V68.6005C6.8208 73.2232 10.6009 77 15.2203 77H43.9247C48.5375 77 52.3276 73.2232 52.3276 68.6005V60.8155H47.5132V60.9048ZM29.5675 72.7969C27.4395 72.7969 25.7214 71.0755 25.7214 68.9508C25.7214 66.8196 27.4397 65.1013 29.5675 65.1013C31.6988 65.1013 33.4204 66.8228 33.4204 68.9508C33.4204 71.0755 31.6989 72.7969 29.5675 72.7969Z" fill="#0B78EB"/>
<path d="M26.5077 14.6117H15.7456V21.1741H26.5077V14.6117Z" fill="#0B78EB"/>
<path d="M26.5077 31.4139H15.7456V37.9763H26.5077V31.4139Z" fill="#0B78EB"/>
<path d="M26.5077 48.9994H15.7456V55.5584H26.5077V48.9994Z" fill="#0B78EB"/>
<path d="M64.7051 34.2987C64.325 32.3095 63.5551 30.469 62.4648 28.8598L66.3242 24.9971L62.3822 21.0682L58.5293 24.9243C56.9267 23.8274 55.0764 23.0673 53.0938 22.684V17.2153H47.5162V22.684C45.5303 23.0673 43.6964 23.8306 42.0774 24.9243L38.2312 21.0682L34.2892 25.0003L38.1421 28.863C37.0549 30.4722 36.2884 32.3127 35.9084 34.2985H30.4463V39.8729H35.9082C36.2883 41.8522 37.0582 43.6927 38.1452 45.3085L34.2891 49.1646L38.2311 53.0901L42.0872 49.2372C43.6998 50.3341 45.5401 51.0974 47.526 51.4841V56.9428H53.1036V51.4809C55.0861 51.1008 56.9233 50.3309 58.5391 49.2406L62.392 53.0934L66.334 49.1646L62.4746 45.3085C63.5649 43.6993 64.3316 41.8556 64.7149 39.8697H70.1802V34.2987H64.7051ZM50.3116 43.1509C46.9578 43.1509 44.235 40.4414 44.235 37.0842C44.235 33.7304 46.9577 31.0043 50.3116 31.0043C53.6688 31.0043 56.3783 33.727 56.3783 37.0842C56.3783 40.4446 53.6621 43.1509 50.3116 43.1509Z" fill="#0B78EB"/>
</svg>
