<svg width="71" height="53" viewBox="0 0 71 53" fill="none" xmlns="http://www.w3.org/2000/svg">
<path d="M48.7502 24.6181C49.4629 24.5409 50.2484 24.6739 50.9213 24.8996C51.0986 24.9599 51.2725 25.029 51.4429 25.1071C51.613 25.1848 51.7789 25.271 51.9405 25.3655C52.1024 25.4602 52.259 25.5627 52.4103 25.6728C52.5616 25.7832 52.707 25.901 52.8463 26.026C52.9859 26.151 53.1188 26.2826 53.2448 26.4209C53.3712 26.5592 53.4902 26.7036 53.602 26.8541C53.7135 27.0043 53.8172 27.1599 53.9133 27.3207C54.0094 27.4816 54.0971 27.6468 54.1765 27.8164C54.2574 27.9839 54.3298 28.1551 54.3935 28.33C54.4572 28.5047 54.512 28.6822 54.5579 28.8627C54.6038 29.0429 54.6405 29.225 54.6678 29.409C54.6954 29.5929 54.7138 29.7779 54.7231 29.964C54.7322 30.1498 54.7318 30.3356 54.7219 30.5214C54.7124 30.7072 54.6935 30.892 54.6654 31.076C54.6373 31.2599 54.6 31.4419 54.5535 31.6218C54.5071 31.802 54.4517 31.9795 54.3875 32.1541C54.3214 32.3277 54.2471 32.4977 54.1645 32.6642C54.0817 32.8306 53.9911 32.9926 53.8926 33.1503C53.7941 33.3077 53.6881 33.46 53.5745 33.6074C53.4612 33.7544 53.3408 33.8956 53.2134 34.031C53.0862 34.1663 52.9527 34.2952 52.8129 34.4176C52.673 34.5399 52.5274 34.6551 52.3761 34.7632C52.2251 34.8712 52.069 34.9716 51.9079 35.0645C51.747 35.1572 51.5819 35.2418 51.4126 35.3186C49.7078 36.071 48.1076 35.815 46.4363 35.182C45.8307 35.8146 45.1917 36.4198 44.5674 37.0341C44.4268 39.6627 44.4886 42.3063 44.4961 44.9376L44.4826 48.0817C43.5048 48.0463 42.5186 48.069 41.5399 48.0658C41.3878 46.1137 41.5041 44.08 41.5033 42.1172C41.5025 40.0285 41.3433 37.8117 41.602 35.7426C42.4505 34.8249 43.3865 33.9649 44.2668 33.0754C43.9574 32.4113 43.7118 31.7596 43.6111 31.0302C43.4016 29.5145 43.7783 27.99 44.7203 26.7749C45.7347 25.4666 47.141 24.8081 48.7502 24.6181ZM48.538 27.6922C47.7987 27.9394 47.1648 28.3698 46.8153 29.0885C46.7795 29.1636 46.7475 29.2402 46.7193 29.3182C46.6912 29.3965 46.667 29.476 46.6469 29.5567C46.6264 29.6371 46.6101 29.7185 46.5979 29.8007C46.5857 29.883 46.5776 29.9656 46.5736 30.0484C46.5694 30.1315 46.5694 30.2145 46.5736 30.2976C46.5776 30.3807 46.5857 30.4632 46.5979 30.5453C46.6104 30.6275 46.6267 30.709 46.6469 30.7897C46.6673 30.8701 46.6916 30.9495 46.7197 31.0278C46.7489 31.1106 46.7822 31.1917 46.8197 31.2711C46.8571 31.3504 46.8984 31.4278 46.9435 31.5032C46.9889 31.5783 47.0377 31.651 47.09 31.7214C47.1426 31.7917 47.1984 31.8594 47.2576 31.9244C47.3168 31.9892 47.379 32.0508 47.4443 32.1091C47.5099 32.1678 47.5781 32.223 47.649 32.2748C47.7199 32.3265 47.7931 32.3746 47.8688 32.4189C47.9444 32.4632 48.0222 32.5037 48.1021 32.5403C48.6053 32.7701 49.0795 32.7752 49.625 32.7529C50.4137 32.4957 51.0272 32.1342 51.4138 31.3686C51.4523 31.2908 51.4868 31.2113 51.5173 31.1301C51.5476 31.0489 51.574 30.9664 51.5965 30.8825C51.6188 30.7986 51.637 30.7139 51.6511 30.6285C51.6652 30.5427 51.6748 30.4566 51.6802 30.3701C51.6857 30.2835 51.6871 30.1969 51.6841 30.1101C51.681 30.0233 51.6735 29.9369 51.6618 29.8509C51.6504 29.7649 51.6348 29.6797 51.6149 29.5953C51.5947 29.5109 51.5705 29.4277 51.5424 29.3457C51.5145 29.2676 51.4828 29.1913 51.4472 29.1167C51.4119 29.0419 51.3729 28.969 51.3302 28.8981C51.2875 28.8273 51.2413 28.7587 51.1916 28.6923C51.142 28.6262 51.0893 28.5627 51.0336 28.5016C50.9778 28.4406 50.919 28.3824 50.8572 28.3272C50.7956 28.272 50.7314 28.22 50.6645 28.1711C50.5979 28.1223 50.5289 28.0769 50.4575 28.035C50.3861 27.993 50.3128 27.9547 50.2377 27.9199C49.7078 27.6695 49.1141 27.6496 48.538 27.6922Z" fill="#FBE735"/>
<path d="M35.9728 12.4829C36.8332 12.31 38.1394 12.7209 38.8716 13.1319C40.1429 13.846 41.1287 15.1499 41.5141 16.5555C41.9023 17.9707 41.8015 19.5471 41.0662 20.8337C40.3547 22.0784 39.0882 23.0801 37.6959 23.4496L37.6967 48.0761L36.4286 48.0662L34.7302 48.0578C34.512 44.9431 34.6521 41.7226 34.6645 38.6L34.6705 23.4746C33.9411 23.2776 33.2925 22.9097 32.708 22.4363C31.5291 21.4804 30.75 20.1216 30.6019 18.6015C30.5857 18.4175 30.5785 18.2333 30.5804 18.0487C30.5825 17.864 30.5936 17.68 30.6138 17.4965C30.634 17.3129 30.6632 17.1309 30.7014 16.9502C30.7394 16.7696 30.7862 16.5912 30.8419 16.4152C30.8977 16.2392 30.962 16.0664 31.035 15.8967C31.1078 15.7271 31.1887 15.5614 31.2779 15.3998C31.3671 15.2381 31.4641 15.0813 31.5689 14.9292C31.6735 14.7771 31.7854 14.6306 31.9046 14.4895C32.9728 13.2214 34.346 12.6203 35.9728 12.4829ZM35.7725 15.5283C34.9611 15.7535 34.3376 16.0787 33.9184 16.8416C33.5887 17.4413 33.5358 18.19 33.7412 18.839C33.7669 18.9209 33.7967 19.0012 33.8304 19.0801C33.8644 19.1589 33.9022 19.2359 33.9438 19.3109C33.9853 19.386 34.0304 19.4587 34.0792 19.5292C34.1283 19.5997 34.1807 19.6676 34.2365 19.7328C34.2922 19.7981 34.351 19.8603 34.4129 19.9196C34.475 19.9789 34.5399 20.035 34.6075 20.0877C34.675 20.1405 34.745 20.1898 34.8178 20.2355C34.8905 20.2812 34.9652 20.3232 35.0419 20.3614C35.5985 20.6414 36.1268 20.6543 36.734 20.6015C37.4765 20.3619 38.108 19.9615 38.4755 19.2501C38.5137 19.1759 38.5482 19.1001 38.579 19.0224C38.6098 18.9449 38.6366 18.8659 38.6594 18.7857C38.6822 18.7054 38.7011 18.6242 38.716 18.5421C38.7306 18.46 38.7412 18.3773 38.7478 18.2941C38.7544 18.2109 38.7568 18.1276 38.755 18.0442C38.7534 17.9608 38.7475 17.8776 38.7375 17.7947C38.7274 17.7119 38.7133 17.6298 38.6953 17.5483C38.6772 17.4669 38.655 17.3865 38.6288 17.3073C38.6022 17.2252 38.5717 17.1447 38.5372 17.0657C38.5027 16.9867 38.4642 16.9096 38.4217 16.8345C38.3795 16.7593 38.3336 16.6865 38.284 16.6159C38.2343 16.5454 38.1814 16.4775 38.1251 16.4123C38.0688 16.347 38.0094 16.2848 37.9467 16.2255C37.8841 16.1662 37.8187 16.1102 37.7505 16.0575C37.6823 16.0047 37.6115 15.9556 37.5383 15.9099C37.465 15.8643 37.3897 15.8224 37.3125 15.7843C36.8069 15.5341 36.3275 15.5021 35.7725 15.5283Z" fill="#FBE735"/>
<path d="M36.1433 0.0377916C36.711 0.00564842 37.2793 -0.00599049 37.8481 0.00287476C38.4167 0.01174 38.9842 0.0410699 39.5506 0.0908639C40.1173 0.140684 40.6813 0.210836 41.2427 0.30132C41.8041 0.391804 42.3615 0.502393 42.9149 0.633089C43.4685 0.763812 44.0166 0.914282 44.5592 1.0845C45.1017 1.25474 45.6375 1.44431 46.1665 1.6532C46.6955 1.86209 47.2162 2.08976 47.7288 2.33621C48.2413 2.58269 48.7443 2.84729 49.2377 3.13002C49.5318 3.29759 49.8223 3.47135 50.1093 3.65131C50.3959 3.83129 50.6787 4.01732 50.9577 4.20938C51.2364 4.40147 51.5108 4.59941 51.781 4.80321C52.0515 5.00703 52.3175 5.21653 52.5789 5.43171C52.8401 5.64689 53.0968 5.86757 53.3489 6.09374C53.6008 6.31988 53.8478 6.55132 54.0899 6.78805C54.3319 7.02479 54.5688 7.26658 54.8005 7.51343C55.0322 7.76027 55.2585 8.01196 55.4794 8.2685C55.7002 8.52503 55.9156 8.78617 56.1255 9.05192C56.3352 9.31766 56.5392 9.58777 56.7375 9.86225C56.9358 10.1367 57.1279 10.4153 57.314 10.698C57.5003 10.9807 57.6805 11.2672 57.8547 11.5576C58.0288 11.848 58.1965 12.142 58.3579 12.4396C58.5196 12.7371 58.6746 13.038 58.8229 13.3422C58.9716 13.6464 59.1137 13.9536 59.2493 14.2639C59.3847 14.5742 59.5134 14.8872 59.6355 15.203C60.1229 16.4595 60.4561 17.7623 60.8065 19.0616C62.2215 19.556 63.5668 20.1536 64.7946 21.023C68.0546 23.3317 70.1604 26.8146 70.8185 30.7459C70.8554 30.9776 70.8867 31.21 70.9125 31.443C70.9382 31.6763 70.9582 31.91 70.9726 32.1441C70.9869 32.3783 70.9957 32.6126 70.9988 32.8473C71.0018 33.0819 70.9991 33.3164 70.9909 33.5508C70.9827 33.7854 70.9687 34.0196 70.9491 34.2535C70.9294 34.4871 70.9042 34.7202 70.8734 34.953C70.8426 35.1855 70.8062 35.4171 70.7639 35.6478C70.722 35.8787 70.6745 36.1084 70.6214 36.337C70.5681 36.5655 70.5094 36.7926 70.4454 37.0182C70.3812 37.2438 70.3117 37.4678 70.2368 37.6902C70.1617 37.9124 70.0814 38.1327 69.9959 38.3511C69.9105 38.5696 69.8197 38.7859 69.7236 39.0001C69.6275 39.2141 69.5263 39.4256 69.4198 39.6348C69.3137 39.8439 69.2024 40.0504 69.0862 40.2543C68.9699 40.4581 68.8489 40.6589 68.7231 40.8566C68.597 41.0546 68.4663 41.2495 68.3309 41.4411C65.755 45.0526 62.1781 46.8216 57.9044 47.5267C57.8163 47.8842 57.7046 48.234 57.5692 48.5762C57.0341 49.8964 55.8441 51.0749 54.531 51.6092C54.3606 51.6774 54.1874 51.7371 54.0114 51.7884C53.8352 51.8399 53.6568 51.8825 53.4763 51.9162C53.2961 51.9499 53.1145 51.9746 52.9317 51.9902C52.7488 52.0061 52.5656 52.0131 52.3822 52.0109C52.1988 52.0088 52.0158 51.9977 51.8332 51.9775C51.6508 51.9573 51.47 51.9282 51.2905 51.8903C51.1111 51.8523 50.9338 51.8056 50.7586 51.7501C50.5837 51.6947 50.412 51.6308 50.2434 51.5586C48.8304 50.9594 47.7276 49.8562 47.1694 48.4185C46.6478 47.0744 46.6566 45.5197 47.2486 44.1974C47.8932 42.757 49.2007 41.6075 50.6818 41.0776C51.9929 40.6082 53.503 40.7491 54.7516 41.3376C54.9212 41.4172 55.0865 41.5048 55.2476 41.6004C55.4088 41.6959 55.565 41.799 55.7163 41.9097C55.8673 42.0207 56.0126 42.1385 56.1522 42.2633C56.2921 42.3883 56.4255 42.5197 56.5523 42.6574C56.6792 42.7952 56.7992 42.9388 56.9123 43.0882C57.0251 43.2379 57.1306 43.3925 57.2288 43.552C57.3267 43.7118 57.4167 43.876 57.4987 44.0445C57.5807 44.2128 57.6544 44.3848 57.7197 44.5605C59.493 44.1345 61.1604 43.6922 62.714 42.6937C62.8729 42.5928 63.0293 42.488 63.183 42.3791C63.3367 42.2703 63.4875 42.1578 63.6357 42.0415C63.7838 41.9252 63.929 41.8053 64.0712 41.6816C64.2132 41.5582 64.3522 41.4313 64.4881 41.301C64.624 41.1704 64.7565 41.0366 64.8858 40.8996C65.0148 40.7627 65.1405 40.6225 65.2628 40.4792C65.3849 40.3359 65.5035 40.1896 65.6184 40.0405C65.7333 39.8913 65.8444 39.7395 65.9516 39.585C66.0591 39.4302 66.1626 39.2728 66.2622 39.1128C66.3617 38.953 66.4573 38.7908 66.5488 38.6263C66.6401 38.4617 66.7273 38.2949 66.8104 38.1258C66.8938 37.957 66.9727 37.7861 67.0473 37.613C67.1219 37.4402 67.1922 37.2657 67.2583 37.0894C67.3242 36.9129 67.3856 36.735 67.4427 36.5555C67.5 36.3761 67.5527 36.1954 67.6007 36.0133C67.6488 35.8312 67.6923 35.648 67.7313 35.4638C67.7711 35.2751 67.8062 35.0855 67.8364 34.8949C67.867 34.7043 67.8927 34.5131 67.9137 34.3212C67.9344 34.1293 67.9506 33.937 67.9622 33.7443C67.9736 33.5518 67.9803 33.3591 67.9821 33.1662C67.984 32.9732 67.9812 32.7802 67.9738 32.5873C67.9661 32.3946 67.9537 32.202 67.9368 32.0096C67.9198 31.8174 67.898 31.6258 67.8715 31.4347C67.8449 31.2436 67.8136 31.0532 67.7775 30.8637C67.7417 30.6739 67.7011 30.4852 67.6557 30.2976C67.6105 30.1102 67.5608 29.9239 67.5064 29.7386C67.452 29.5536 67.3929 29.3699 67.3292 29.1876C67.2658 29.0055 67.1978 28.825 67.1253 28.6461C67.0531 28.4672 66.9764 28.2902 66.8952 28.115C66.814 27.9398 66.7285 27.7669 66.6388 27.5962C66.5491 27.4253 66.4553 27.2567 66.3573 27.0906C66.2594 26.9241 66.1573 26.7604 66.0512 26.5993C64.1528 23.7179 61.383 22.1966 58.0605 21.5146C57.8742 19.3738 57.2507 17.1669 56.3616 15.2145C56.2223 14.9038 56.0754 14.5968 55.9209 14.2934C55.7662 13.99 55.6041 13.6907 55.4348 13.3953C55.2654 13.1 55.0888 12.809 54.9048 12.5223C54.7212 12.2357 54.5305 11.9538 54.3327 11.6767C54.135 11.3995 53.9305 11.1274 53.7192 10.8604C53.5079 10.5934 53.2901 10.3318 53.0658 10.0755C52.8416 9.81932 52.6112 9.5688 52.3747 9.32397C52.1379 9.07916 51.8953 8.84036 51.6469 8.60755C51.3984 8.37475 51.1443 8.14824 50.8844 7.92805C50.6248 7.70785 50.3599 7.49421 50.0897 7.28712C49.8193 7.08003 49.544 6.87977 49.264 6.68633C48.9837 6.49289 48.6989 6.3065 48.4096 6.12718C48.12 5.94786 47.8263 5.77581 47.5285 5.61103C47.2304 5.44626 46.9285 5.28895 46.6227 5.13912C46.317 4.98931 46.0078 4.84716 45.6951 4.71267C45.3821 4.57815 45.0661 4.45148 44.7471 4.33265C44.4222 4.21294 44.0944 4.10135 43.7637 3.99789C43.4332 3.89445 43.1004 3.79928 42.7652 3.71238C42.4299 3.62548 42.0927 3.54696 41.7535 3.4768C41.4143 3.40665 41.0736 3.34497 40.7315 3.29175C40.3893 3.2385 40.046 3.19381 39.7015 3.15765C39.357 3.12148 39.0119 3.09387 38.6663 3.07484C38.3205 3.05581 37.9743 3.04538 37.628 3.04355C37.2816 3.04172 36.9355 3.04847 36.5896 3.06381C36.2435 3.07918 35.898 3.10312 35.5533 3.13564C35.2085 3.16815 34.8646 3.2092 34.5217 3.25878C34.179 3.30839 33.8378 3.36647 33.4981 3.43301C33.1581 3.49955 32.82 3.57449 32.484 3.65784C32.1477 3.74118 31.8138 3.83282 31.4823 3.93275C31.1505 4.03269 30.8215 4.14078 30.4953 4.25704C30.1691 4.3733 29.8459 4.49758 29.5258 4.6299C29.206 4.76221 28.8895 4.9024 28.5763 5.05045C23.1952 7.54161 19.7056 12.0526 17.7073 17.5162C17.0294 17.5159 16.3728 17.5777 15.6999 17.6559C12.5397 17.9185 9.7313 19.0434 7.40151 21.2323C4.72342 23.7482 3.11677 27.0898 3.00811 30.7829C3.00055 31.0085 2.99857 31.2341 3.00218 31.4597C3.00577 31.6856 3.01491 31.9111 3.02961 32.1362C3.04435 32.3615 3.06462 32.5863 3.09045 32.8106C3.11625 33.0347 3.14757 33.258 3.18441 33.4807C3.22128 33.7034 3.2636 33.925 3.31138 34.1456C3.35918 34.3664 3.41239 34.5858 3.47099 34.8037C3.52963 35.0216 3.59359 35.238 3.6629 35.4527C3.7322 35.6677 3.80676 35.8807 3.88657 36.0917C3.96641 36.303 4.0514 36.512 4.14154 36.7188C4.23168 36.9258 4.32687 37.1305 4.42713 37.3327C4.52735 37.535 4.63251 37.7346 4.74261 37.9315C4.85271 38.1285 4.96761 38.3227 5.08732 38.5144C5.207 38.7055 5.33134 38.8937 5.46034 39.0789C5.58931 39.2642 5.72278 39.4462 5.86075 39.6248C5.99872 39.8034 6.14101 39.9786 6.28763 40.1503C6.43425 40.3218 6.58502 40.4897 6.73992 40.654C9.10403 43.138 12.452 44.5972 15.8609 44.8042C17.4318 44.8993 19.0548 44.7799 20.6293 44.7501C23.2656 44.6999 25.9167 44.6517 28.5528 44.719C28.5022 41.8197 28.5456 38.9125 28.5444 36.0125C27.6976 35.2329 26.9104 34.3697 26.1185 33.5341C24.6235 34.365 23.1936 34.961 21.4384 34.5971C19.9584 34.2905 18.6329 33.3342 17.8232 32.0653C17.0087 30.7889 16.7928 29.2903 17.1181 27.8239C17.1552 27.6501 17.2008 27.4785 17.255 27.3091C17.3092 27.1398 17.3717 26.9736 17.4425 26.8107C17.5133 26.6474 17.592 26.4883 17.6786 26.3333C17.7652 26.178 17.8594 26.0274 17.961 25.8814C18.0627 25.7357 18.1713 25.5953 18.287 25.4602C18.4026 25.3251 18.5246 25.1962 18.6531 25.0736C18.7816 24.9507 18.9159 24.8344 19.056 24.7248C19.1961 24.6155 19.3412 24.5133 19.4915 24.4182C19.6533 24.3166 19.8197 24.223 19.9907 24.1376C20.1616 24.0521 20.3364 23.9752 20.5149 23.907C20.6934 23.8388 20.8749 23.7795 21.0592 23.7291C21.2436 23.6786 21.43 23.6372 21.6184 23.6048C21.8068 23.5727 21.9963 23.5499 22.1869 23.5364C22.3776 23.5228 22.5684 23.5187 22.7595 23.524C22.9506 23.5291 23.1409 23.5435 23.3305 23.5674C23.5202 23.5913 23.7082 23.6245 23.8945 23.667C25.296 23.9898 26.5828 25.0374 27.3277 26.2501C28.2729 27.7889 28.2657 29.3659 27.8676 31.054C29.1392 32.229 30.3261 33.5265 31.5117 34.7886C31.6937 36.7239 31.5838 38.7457 31.5826 40.6898C31.581 43.0213 31.6563 45.3759 31.5512 47.7043C26.7767 47.6565 22.0028 47.6894 17.2295 47.803C12.6402 47.8782 8.50241 46.4218 5.18053 43.2049C1.92064 40.048 0.0658618 36.0551 0.00192058 31.4928C-0.00224662 31.2189 0.000367474 30.9449 0.00976358 30.671C0.0191597 30.3974 0.0353239 30.124 0.0582568 29.8509C0.0812162 29.578 0.110918 29.3057 0.147361 29.0339C0.183804 28.7623 0.226949 28.4919 0.276796 28.2225C0.326643 27.9531 0.38314 27.6851 0.446285 27.4186C0.50943 27.1521 0.579131 26.8872 0.655388 26.6239C0.731645 26.3609 0.814377 26.0999 0.903587 25.8408C0.992797 25.5817 1.08836 25.3251 1.19029 25.0708C1.29221 24.8165 1.40039 24.5649 1.51481 24.3159C1.62921 24.067 1.7497 23.8209 1.87628 23.5778C2.00286 23.3349 2.13539 23.0952 2.27386 22.8587C2.41234 22.6225 2.55659 22.3897 2.7066 22.1604C2.85662 21.9311 3.01223 21.7056 3.17342 21.484C3.33462 21.2625 3.50119 21.0452 3.67313 20.8319C3.8451 20.6186 4.02224 20.4097 4.20456 20.2052C4.38689 20.0007 4.57416 19.8008 4.76638 19.6056C7.53787 16.7764 11.5826 14.7391 15.5887 14.6977C16.3626 12.459 17.7889 10.254 19.3146 8.45702C23.6501 3.35091 29.5274 0.589454 36.1433 0.0377916ZM21.9946 26.5905C21.2251 26.8724 20.5709 27.288 20.217 28.058C20.1827 28.1334 20.1522 28.2103 20.1255 28.2886C20.0988 28.3671 20.0761 28.4466 20.0572 28.527C20.0384 28.6077 20.0236 28.6891 20.0128 28.7711C20.002 28.8534 19.9953 28.9359 19.9926 29.0187C19.99 29.1013 19.9915 29.184 19.997 29.2668C20.0026 29.3493 20.0122 29.4315 20.0258 29.5132C20.0395 29.5947 20.0572 29.6754 20.0788 29.7553C20.1005 29.8352 20.1261 29.9139 20.1555 29.9914C20.1854 30.0705 20.219 30.1479 20.2564 30.2235C20.2938 30.2992 20.3349 30.3728 20.3795 30.4445C20.4242 30.5162 20.4722 30.5854 20.5236 30.6523C20.5751 30.7192 20.6297 30.7834 20.6875 30.845C20.7452 30.9066 20.8059 30.9653 20.8693 31.021C20.9329 31.0765 20.9989 31.1289 21.0676 31.1783C21.1362 31.2274 21.2071 31.273 21.2802 31.3152C21.3534 31.3574 21.4284 31.3959 21.5053 31.4307C21.9913 31.6509 22.4857 31.6652 23.011 31.6512C23.785 31.41 24.4077 31.0735 24.8071 30.3374C25.13 29.7422 25.1746 29.0195 24.9783 28.3762C24.9528 28.2939 24.9233 28.2132 24.8899 28.1341C24.8564 28.055 24.819 27.9777 24.7776 27.9024C24.7362 27.8267 24.6912 27.7535 24.6426 27.6826C24.5941 27.6117 24.5419 27.5435 24.4862 27.4779C24.4307 27.4124 24.372 27.3497 24.3102 27.29C24.2483 27.2303 24.1836 27.1738 24.1159 27.1204C24.0482 27.0673 23.9781 27.0177 23.9057 26.9715C23.8332 26.9253 23.7585 26.883 23.6815 26.8445C23.1316 26.5626 22.5984 26.5439 21.9946 26.5905ZM51.9088 43.894C51.158 44.1154 50.5213 44.5187 50.1455 45.2282C50.1054 45.3039 50.0693 45.3814 50.0372 45.4607C50.0048 45.5401 49.9767 45.6209 49.9528 45.7032C49.9286 45.7852 49.9087 45.8683 49.8931 45.9524C49.8774 46.0368 49.8661 46.1216 49.8592 46.2068C49.8521 46.2923 49.8493 46.3778 49.8509 46.4632C49.8525 46.549 49.8583 46.6343 49.8684 46.7192C49.8785 46.8042 49.8929 46.8885 49.9118 46.9721C49.9304 47.0557 49.9532 47.1381 49.9803 47.2193C50.0068 47.2989 50.0371 47.3772 50.071 47.4542C50.1053 47.5309 50.1431 47.6058 50.1845 47.6788C50.2262 47.7518 50.2713 47.8226 50.3199 47.8914C50.3684 47.9599 50.4202 48.0258 50.4751 48.0892C50.5304 48.1527 50.5885 48.2133 50.6495 48.2712C50.7106 48.3288 50.7743 48.3833 50.8406 48.4348C50.907 48.4863 50.9757 48.5344 51.0469 48.579C51.1183 48.6236 51.1915 48.6646 51.2666 48.702C51.7719 48.9564 52.3074 48.997 52.8648 48.9512C53.6037 48.7529 54.1898 48.4225 54.5847 47.7421C54.9383 47.1333 55.0207 46.3769 54.832 45.7008C54.8107 45.6217 54.7855 45.5439 54.7563 45.4675C54.7274 45.3908 54.6946 45.3159 54.658 45.2429C54.6214 45.1697 54.5812 45.0984 54.5374 45.0291C54.4938 44.9599 54.4467 44.893 54.396 44.8285C54.3456 44.764 54.2921 44.7023 54.2356 44.6433C54.1788 44.5842 54.1193 44.528 54.0572 44.4749C53.9948 44.4218 53.9299 44.372 53.8625 44.3252C53.7954 44.2785 53.726 44.2354 53.6543 44.1958C53.1228 43.9028 52.5065 43.8108 51.9088 43.894Z" fill="#FBE735"/>
</svg>
