<svg width="65" height="103" viewBox="0 0 65 103" fill="none" xmlns="http://www.w3.org/2000/svg">
<path d="M17.9682 71.5466C17.9682 60.215 10.964 50.7352 7.20021 43.7108C5.09817 39.7933 3.99873 35.4162 4 30.9703C4 16.0763 17.6059 4 32.5 4" stroke="#0B78EB" stroke-width="6.03814"/>
<path d="M47.0318 71.5466C47.0318 60.215 54.036 50.7352 57.7998 43.7108C59.9018 39.7933 61.0013 35.4162 61 30.9703C61 16.0763 47.3941 4 32.5 4" stroke="#0B78EB" stroke-width="6.03814"/>
<path d="M49.1452 70.9227H16.9418C14.3741 70.9227 12.2925 73.0043 12.2925 75.572C12.2925 78.1398 14.3741 80.2214 16.9418 80.2214H49.1452C51.713 80.2214 53.7946 78.1398 53.7946 75.572C53.7946 73.0043 51.713 70.9227 49.1452 70.9227Z" stroke="#0B78EB" stroke-width="6.03814"/>
<path d="M46.5892 80.2214H19.478C16.9102 80.2214 14.8286 82.303 14.8286 84.8707C14.8286 87.4385 16.9102 89.5201 19.478 89.5201H46.5892C49.157 89.5201 51.2386 87.4385 51.2386 84.8707C51.2386 82.303 49.157 80.2214 46.5892 80.2214Z" stroke="#0B78EB" stroke-width="6.03814"/>
<path d="M40.1082 89.5201V91.392C40.214 92.3803 40.1107 93.3799 39.8049 94.3257C39.4991 95.2715 38.9977 96.1423 38.3333 96.8817C37.6689 97.621 36.8564 98.2122 35.9485 98.617C35.0406 99.0217 34.0577 99.2309 33.0637 99.2309C32.0697 99.2309 31.0869 99.0217 30.179 98.617C29.2711 98.2122 28.4586 97.621 27.7942 96.8817C27.1298 96.1423 26.6284 95.2715 26.3226 94.3257C26.0168 93.3799 25.9134 92.3803 26.0193 91.392V89.5201" stroke="#0B78EB" stroke-width="6.03814"/>
<path d="M14.124 29.6822C14.353 25.3228 16.302 21.2322 19.5432 18.3079C22.7844 15.3836 27.0533 13.8645 31.4132 14.0837" stroke="#0B78EB" stroke-width="6.03814"/>
</svg>
