<svg width="48" height="48" viewBox="0 0 48 48" fill="none" xmlns="http://www.w3.org/2000/svg">
<path d="M25.8507 11.3125L22.1973 19.8384" stroke="#AE91FF" stroke-width="3" stroke-linecap="round" stroke-linejoin="round"/>
<path d="M28.3057 11.5918L34.4368 15.5726L28.3057 19.55" stroke="#AE91FF" stroke-width="3" stroke-linecap="round" stroke-linejoin="round"/>
<path d="M19.7424 11.5918L13.6113 15.5726L19.7424 19.55" stroke="#AE91FF" stroke-width="3" stroke-linecap="round" stroke-linejoin="round"/>
<path d="M42.2782 1.99902H5.77001C3.68789 1.99902 2 3.74969 2 5.90924V30.8419C2 33.0014 3.68789 34.7521 5.77001 34.7521H42.2782C44.3603 34.7521 46.0482 33.0014 46.0482 30.8419V5.90924C46.0482 3.74969 44.3603 1.99902 42.2782 1.99902Z" stroke="#AE91FF" stroke-width="3" stroke-linecap="round" stroke-linejoin="round"/>
<path d="M3.12109 29.0283H40.0762" stroke="#AE91FF" stroke-width="3" stroke-linecap="round" stroke-linejoin="round"/>
<path d="M13.9443 46H34.1028" stroke="#AE91FF" stroke-width="3" stroke-linecap="round" stroke-linejoin="round"/>
<path d="M20.7106 35.7373L20.526 37.5144L16.6523 45.9999" stroke="#AE91FF" stroke-width="3" stroke-linecap="round" stroke-linejoin="round"/>
<path d="M27.3379 35.7373L27.5257 37.5144L31.3962 45.9999" stroke="#AE91FF" stroke-width="3" stroke-linecap="round" stroke-linejoin="round"/>
<path d="M42.2782 1.99902H5.77001C3.68789 1.99902 2 3.74969 2 5.90924V30.8419C2 33.0014 3.68789 34.7521 5.77001 34.7521H42.2782C44.3603 34.7521 46.0482 33.0014 46.0482 30.8419V5.90924C46.0482 3.74969 44.3603 1.99902 42.2782 1.99902Z" stroke="#AE91FF" stroke-width="3" stroke-linecap="round" stroke-linejoin="round"/>
<path d="M6.74805 29.0283H43.7032" stroke="#AE91FF" stroke-width="3" stroke-linecap="round" stroke-linejoin="round"/>
<path d="M13.9443 46H34.1028" stroke="#AE91FF" stroke-width="3" stroke-linecap="round" stroke-linejoin="round"/>
<path d="M20.7106 35.7373L20.526 37.5144L16.6523 45.9999" stroke="#AE91FF" stroke-width="3" stroke-linecap="round" stroke-linejoin="round"/>
<path d="M27.3379 35.7373L27.5257 37.5144L31.3962 45.9999" stroke="#AE91FF" stroke-width="3" stroke-linecap="round" stroke-linejoin="round"/>
</svg>
