<svg width="24" height="25" viewBox="0 0 24 25" fill="none" xmlns="http://www.w3.org/2000/svg">
<path d="M14.1361 3.86144L14.6337 3.81169L14.1361 3.86144ZM13.9838 3.04161L13.5394 3.2708V3.27081L13.9838 3.04161ZM14.4311 5.31793L14.8286 5.01467V5.01467L14.4311 5.31793ZM15.3595 5.70248L15.2928 5.20694L15.2928 5.20694L15.3595 5.70248ZM16.5979 4.88113L16.9145 5.26811V5.26811L16.5979 4.88113ZM17.2853 4.40918L17.4375 4.88547L17.2853 4.40918ZM17.9872 4.44419L18.186 3.98541V3.98541L17.9872 4.44419ZM18.6243 4.9822L18.2707 5.33575V5.33575L18.6243 4.9822ZM19.5178 5.87567L19.8713 5.52211V5.52211L19.5178 5.87567ZM20.0558 6.51275L20.5146 6.31396L20.5146 6.31396L20.0558 6.51275ZM20.0908 7.21464L20.5671 7.3668L20.5671 7.36679L20.0908 7.21464ZM19.6188 7.9021L19.2318 7.58548V7.58548L19.6188 7.9021ZM18.7975 9.14056L18.3019 9.0739V9.0739L18.7975 9.14056ZM19.182 10.0689L18.8787 10.4665L19.182 10.0689ZM20.6385 10.3639L20.6883 9.86633L20.6385 10.3639ZM21.4584 10.5162L21.6876 10.0719L21.6876 10.0719L21.4584 10.5162ZM21.9299 11.0373L22.3949 10.8534V10.8534L21.9299 11.0373ZM21.93 13.9626L21.465 13.7788L21.465 13.7788L21.93 13.9626ZM21.4583 14.4838L21.6875 14.9282H21.6875L21.4583 14.4838ZM20.6386 14.6361L20.5889 14.1386L20.5726 14.1402L20.5564 14.1429L20.6386 14.6361ZM20.6386 14.6361L20.6884 15.1337L20.7047 15.132L20.7208 15.1293L20.6386 14.6361ZM19.1825 14.9309L18.8794 14.5333L19.1825 14.9309ZM18.7979 15.8596L18.3023 15.9264V15.9264L18.7979 15.8596ZM19.619 17.0976L19.232 17.4142L19.619 17.0976ZM20.0908 17.7848L19.6145 17.937L19.6145 17.937L20.0908 17.7848ZM20.0558 18.4869L19.597 18.2881L19.597 18.2881L20.0558 18.4869ZM19.5179 19.1238L19.8715 19.4773L19.5179 19.1238ZM18.6243 20.0174L18.2708 19.6638V19.6638L18.6243 20.0174ZM17.9873 20.5554L18.1861 21.0141L18.1861 21.0141L17.9873 20.5554ZM17.2854 20.5904L17.1332 21.0667H17.1332L17.2854 20.5904ZM16.5979 20.1184L16.9146 19.7314L16.9103 19.728L16.5979 20.1184ZM16.5979 20.1184L16.2813 20.5054L16.2856 20.5088L16.5979 20.1184ZM15.3595 19.2971L15.4262 18.8015H15.4262L15.3595 19.2971ZM14.4311 19.6816L14.8286 19.9849L14.8286 19.9849L14.4311 19.6816ZM14.1362 21.1383L13.6386 21.0886L14.1362 21.1383ZM13.9837 21.9585L13.5394 21.7292L13.5394 21.7292L13.9837 21.9585ZM13.4628 22.4299L13.2789 21.965H13.2789L13.4628 22.4299ZM10.5373 22.4299L10.7211 21.965H10.7211L10.5373 22.4299ZM10.0162 21.9584L10.4606 21.7292L10.0162 21.9584ZM9.86385 21.1385L9.36634 21.1883L9.86385 21.1385ZM9.56892 19.682L9.17139 19.9853L9.17139 19.9853L9.56892 19.682ZM8.64057 19.2975L8.57392 18.8019H8.57392L8.64057 19.2975ZM7.40208 20.1189L7.08546 19.7319L7.07754 19.7384L7.06989 19.7452L7.40208 20.1189ZM7.40206 20.1189L7.71868 20.5058L7.7266 20.4994L7.73424 20.4926L7.40206 20.1189ZM6.71458 20.5908L6.86673 21.0671H6.86673L6.71458 20.5908ZM6.01272 20.5558L5.81394 21.0146H5.81394L6.01272 20.5558ZM5.37561 20.0178L5.72916 19.6642H5.72916L5.37561 20.0178ZM4.48217 19.1243L4.12861 19.4779H4.12861L4.48217 19.1243ZM3.94414 18.4873L4.40292 18.2885L3.94414 18.4873ZM3.90913 17.7854L4.38542 17.9375L3.90913 17.7854ZM4.3811 17.0979L4.76808 17.4145L4.3811 17.0979ZM5.20247 15.8594L5.69801 15.9261L5.20247 15.8594ZM4.81792 14.9311L5.12119 14.5335H5.12119L4.81792 14.9311ZM3.36143 14.6361L3.31168 15.1337H3.31168L3.36143 14.6361ZM2.54161 14.4838L2.77081 14.0394H2.77081L2.54161 14.4838ZM2.07005 13.9627L1.60507 14.1465H1.60507L2.07005 13.9627ZM2.07008 11.0372L1.60513 10.8533L1.60513 10.8533L2.07008 11.0372ZM2.54152 10.5163L2.31229 10.0719L2.31228 10.0719L2.54152 10.5163ZM3.36155 10.3638V9.86384H3.33661L3.3118 9.86633L3.36155 10.3638ZM3.36156 10.3638V10.8638H3.3865L3.41131 10.8614L3.36156 10.3638ZM4.81842 10.0688L4.5151 9.67132L4.51509 9.67132L4.81842 10.0688ZM5.20287 9.14066L5.69841 9.07408H5.69841L5.20287 9.14066ZM4.38128 7.90182L4.76826 7.5852L4.38128 7.90182ZM3.90914 7.21405L4.38545 7.06197H4.38544L3.90914 7.21405ZM3.94413 6.51243L3.48532 6.31371L3.48532 6.31371L3.94413 6.51243ZM4.48233 5.87509L4.83589 6.22864L4.83589 6.22864L4.48233 5.87509ZM5.37565 4.98177L5.0221 4.62822H5.0221L5.37565 4.98177ZM6.01277 4.44373L5.81398 3.98494H5.81398L6.01277 4.44373ZM6.71463 4.40872L6.86677 3.93243L6.71463 4.40872ZM7.4022 4.88076L7.71882 4.49378V4.49378L7.4022 4.88076ZM8.64044 5.70207L8.70718 5.20654L8.64044 5.70207ZM9.56907 5.31742L9.17149 5.01422L9.56907 5.31742ZM9.86387 3.86131L10.3614 3.91106V3.91106L9.86387 3.86131ZM10.0162 3.0417L9.57179 2.81255L9.57179 2.81256L10.0162 3.0417ZM10.5374 2.57001L10.7212 3.035L10.7212 3.035L10.5374 2.57001ZM13.4627 2.57005L13.6465 2.10507L13.6465 2.10507L13.4627 2.57005ZM14.6337 3.81169C14.6126 3.60146 14.5947 3.41945 14.5695 3.2696C14.5435 3.11482 14.5051 2.96166 14.4281 2.81242L13.5394 3.27081C13.5497 3.29088 13.5658 3.3308 13.5833 3.43519C13.6017 3.54449 13.6163 3.68775 13.6386 3.91119L14.6337 3.81169ZM14.8286 5.01467C14.8173 4.99983 14.7806 4.93872 14.7421 4.72451C14.7044 4.51507 14.6755 4.23051 14.6337 3.81169L13.6386 3.91119C13.6788 4.31323 13.7116 4.64432 13.7579 4.90161C13.8033 5.15413 13.8731 5.41083 14.0335 5.62119L14.8286 5.01467ZM15.2928 5.20694C15.1148 5.23089 14.9375 5.15749 14.8286 5.01467L14.0335 5.62118C14.3604 6.04967 14.892 6.26987 15.4261 6.19801L15.2928 5.20694ZM16.2813 4.49415C15.9555 4.76069 15.7339 4.94152 15.5592 5.06296C15.3804 5.18717 15.3113 5.20445 15.2928 5.20694L15.4261 6.19801C15.6883 6.16274 15.9192 6.03055 16.1298 5.88412C16.3445 5.73493 16.6018 5.52396 16.9145 5.26811L16.2813 4.49415ZM17.1332 3.9329C16.9732 3.984 16.8377 4.06512 16.7099 4.15619C16.5861 4.24436 16.4448 4.36037 16.2813 4.49415L16.9145 5.26811C17.0883 5.12591 17.1999 5.03493 17.2902 4.97062C17.3764 4.9092 17.416 4.89234 17.4375 4.88547L17.1332 3.9329ZM18.186 3.98541C17.853 3.8411 17.4789 3.82244 17.1332 3.9329L17.4375 4.88547C17.5527 4.84865 17.6774 4.85487 17.7884 4.90297L18.186 3.98541ZM18.9778 4.62865C18.8285 4.47925 18.6993 4.34975 18.5849 4.24971C18.4668 4.14638 18.3401 4.05217 18.186 3.98541L17.7884 4.90297C17.8092 4.91195 17.8469 4.93267 17.9265 5.00236C18.01 5.07534 18.112 5.17697 18.2707 5.33575L18.9778 4.62865ZM19.8713 5.52211L18.9778 4.62865L18.2707 5.33575L19.1642 6.22922L19.8713 5.52211ZM20.5146 6.31396C20.4478 6.15988 20.3536 6.03314 20.2503 5.91502C20.1502 5.80065 20.0207 5.67151 19.8713 5.52211L19.1642 6.22922C19.323 6.38801 19.4246 6.49001 19.4976 6.57343C19.5673 6.6531 19.588 6.69082 19.597 6.71155L20.5146 6.31396ZM20.5671 7.36679C20.6775 7.02106 20.6589 6.647 20.5146 6.31396L19.597 6.71154C19.6451 6.82255 19.6513 6.94724 19.6145 7.06249L20.5671 7.36679ZM20.0058 8.21872C20.1396 8.0552 20.2556 7.91382 20.3438 7.79006C20.4348 7.66224 20.516 7.52676 20.5671 7.3668L19.6145 7.06249C19.6076 7.08401 19.5908 7.12359 19.5293 7.2098C19.465 7.30008 19.374 7.41168 19.2318 7.58548L20.0058 8.21872ZM19.293 9.20721C19.2955 9.18872 19.3128 9.11958 19.437 8.94084C19.5584 8.7661 19.7393 8.5445 20.0058 8.21872L19.2318 7.58548C18.976 7.8982 18.765 8.15547 18.6158 8.37015C18.4694 8.58084 18.3372 8.81168 18.3019 9.0739L19.293 9.20721ZM19.4853 9.6714C19.3424 9.56244 19.2691 9.38524 19.293 9.20721L18.3019 9.0739C18.2301 9.608 18.4503 10.1396 18.8787 10.4665L19.4853 9.6714ZM20.6883 9.86633C20.2694 9.82445 19.9849 9.79562 19.7754 9.75793C19.5612 9.71938 19.5001 9.68271 19.4853 9.6714L18.8787 10.4665C19.0891 10.6269 19.3458 10.6967 19.5983 10.7421C19.8556 10.7884 20.1867 10.8212 20.5888 10.8614L20.6883 9.86633ZM21.6876 10.0719C21.5384 9.99489 21.3852 9.95645 21.2304 9.93046C21.0805 9.9053 20.8985 9.88736 20.6883 9.86633L20.5888 10.8614C20.8122 10.8837 20.9555 10.8983 21.0648 10.9167C21.1692 10.9342 21.2091 10.9503 21.2292 10.9606L21.6876 10.0719ZM22.3949 10.8534C22.2615 10.5159 22.0102 10.2382 21.6876 10.0719L21.2292 10.9606C21.3367 11.0161 21.4205 11.1086 21.465 11.2211L22.3949 10.8534ZM22.5 11.8682C22.5 11.657 22.5003 11.4741 22.4901 11.3224C22.4797 11.1658 22.4567 11.0096 22.3949 10.8534L21.465 11.2211C21.4733 11.2421 21.4853 11.2835 21.4924 11.3891C21.4997 11.4997 21.5 11.6437 21.5 11.8682H22.5ZM22.5 13.1319V11.8682H21.5V13.1319H22.5ZM22.395 14.1464C22.4567 13.9903 22.4797 13.8341 22.4901 13.6775C22.5003 13.526 22.5 13.3431 22.5 13.1319H21.5C21.5 13.3564 21.4997 13.5003 21.4924 13.6109C21.4853 13.7165 21.4733 13.7578 21.465 13.7788L22.395 14.1464ZM21.6875 14.9282C22.0101 14.7618 22.2615 14.484 22.395 14.1464L21.465 13.7788C21.4205 13.8914 21.3367 13.9839 21.2292 14.0394L21.6875 14.9282ZM20.6884 15.1337C20.8986 15.1126 21.0805 15.0947 21.2304 15.0695C21.3851 15.0436 21.5383 15.0051 21.6875 14.9282L21.2292 14.0394C21.2091 14.0498 21.1692 14.0658 21.0648 14.0833C20.9555 14.1017 20.8123 14.1163 20.5889 14.1386L20.6884 15.1337ZM20.7208 15.1293L20.7208 15.1293L20.5564 14.1429L20.5564 14.1429L20.7208 15.1293ZM19.4857 15.3285C19.5006 15.3172 19.5617 15.2805 19.7758 15.242C19.9852 15.2043 20.2697 15.1755 20.6884 15.1337L20.5889 14.1386C20.1869 14.1788 19.856 14.2115 19.5987 14.2578C19.3463 14.3032 19.0897 14.3729 18.8794 14.5333L19.4857 15.3285ZM19.2934 15.7929C19.2694 15.6148 19.3428 15.4375 19.4857 15.3285L18.8794 14.5333C18.4507 14.8602 18.2304 15.3921 18.3023 15.9264L19.2934 15.7929ZM20.006 16.781C19.7395 16.4553 19.5588 16.2338 19.4373 16.0591C19.3132 15.8805 19.2959 15.8113 19.2934 15.7929L18.3023 15.9264C18.3377 16.1885 18.4698 16.4192 18.6162 16.6298C18.7653 16.8444 18.9762 17.1016 19.232 17.4142L20.006 16.781ZM20.5671 17.6326C20.5159 17.4727 20.4348 17.3372 20.3438 17.2095C20.2557 17.0858 20.1397 16.9444 20.006 16.781L19.232 17.4142C19.3741 17.5879 19.4651 17.6995 19.5294 17.7897C19.5908 17.8759 19.6076 17.9155 19.6145 17.937L20.5671 17.6326ZM20.5145 18.6858C20.6589 18.3526 20.6776 17.9784 20.5671 17.6326L19.6145 17.937C19.6514 18.0523 19.6451 18.177 19.597 18.2881L20.5145 18.6858ZM19.8715 19.4773C20.0208 19.328 20.1503 19.1989 20.2503 19.0846C20.3536 18.9665 20.4478 18.8398 20.5145 18.6858L19.597 18.2881C19.588 18.3088 19.5673 18.3465 19.4976 18.4261C19.4247 18.5095 19.3231 18.6115 19.1644 18.7702L19.8715 19.4773ZM18.9779 20.3709L19.8715 19.4773L19.1644 18.7702L18.2708 19.6638L18.9779 20.3709ZM18.1861 21.0141C18.3401 20.9474 18.4669 20.8532 18.585 20.7498C18.6994 20.6498 18.8285 20.5203 18.9779 20.3709L18.2708 19.6638C18.112 19.8226 18.01 19.9242 17.9266 19.9972C17.8469 20.0669 17.8092 20.0876 17.7885 20.0966L18.1861 21.0141ZM17.1332 21.0667C17.4789 21.1771 17.853 21.1585 18.1861 21.0141L17.7885 20.0966C17.6775 20.1447 17.5528 20.1509 17.4375 20.1141L17.1332 21.0667ZM16.2813 20.5054C16.4448 20.6392 16.5862 20.7552 16.7099 20.8434C16.8378 20.9344 16.9732 21.0156 17.1332 21.0667L17.4375 20.1141C17.416 20.1072 17.3764 20.0904 17.2902 20.0289C17.1999 19.9646 17.0883 19.8736 16.9145 19.7314L16.2813 20.5054ZM16.2856 20.5088L16.2856 20.5089L16.9103 19.728L16.9103 19.728L16.2856 20.5088ZM15.2928 19.7926C15.3113 19.7951 15.3805 19.8124 15.5592 19.9366C15.7339 20.058 15.9555 20.2389 16.2813 20.5054L16.9145 19.7314C16.6018 19.4756 16.3446 19.2646 16.1299 19.1154C15.9192 18.969 15.6884 18.8368 15.4262 18.8015L15.2928 19.7926ZM14.8286 19.9849C14.9376 19.8421 15.1148 19.7687 15.2928 19.7926L15.4262 18.8015C14.892 18.7297 14.3604 18.9499 14.0336 19.3784L14.8286 19.9849ZM14.6337 21.1881C14.6756 20.7692 14.7044 20.4846 14.7421 20.2751C14.7807 20.0608 14.8173 19.9997 14.8286 19.9849L14.0336 19.3784C13.8731 19.5887 13.8033 19.8455 13.7579 20.098C13.7116 20.3553 13.6789 20.6865 13.6386 21.0886L14.6337 21.1881ZM14.4281 22.1877C14.5051 22.0385 14.5435 21.8852 14.5695 21.7304C14.5947 21.5805 14.6127 21.3984 14.6337 21.1881L13.6386 21.0886C13.6163 21.3121 13.6017 21.4554 13.5833 21.5648C13.5658 21.6692 13.5497 21.7092 13.5394 21.7292L14.4281 22.1877ZM13.6467 22.8949C13.9841 22.7614 14.2617 22.5102 14.4281 22.1877L13.5394 21.7292C13.4839 21.8367 13.3914 21.9205 13.2789 21.965L13.6467 22.8949ZM12.6316 23C12.843 23 13.0259 23.0003 13.1776 22.9901C13.3342 22.9797 13.4905 22.9566 13.6467 22.8949L13.2789 21.965C13.2579 21.9733 13.2166 21.9853 13.1109 21.9924C13.0003 21.9997 12.8563 22 12.6316 22V23ZM11.3682 23H12.6316V22H11.3682V23ZM10.3534 22.8949C10.5096 22.9567 10.6658 22.9797 10.8224 22.9901C10.9741 23.0003 11.157 23 11.3682 23V22C11.1437 22 10.9997 21.9997 10.8891 21.9924C10.7835 21.9853 10.7421 21.9733 10.7211 21.965L10.3534 22.8949ZM9.57187 22.1876C9.73824 22.5102 10.0159 22.7615 10.3534 22.8949L10.7211 21.965C10.6086 21.9205 10.5161 21.8367 10.4606 21.7292L9.57187 22.1876ZM9.36634 21.1883C9.38736 21.3985 9.4053 21.5805 9.43046 21.7304C9.45645 21.8852 9.49489 22.0384 9.57187 22.1876L10.4606 21.7292C10.4503 21.7091 10.4342 21.6692 10.4167 21.5648C10.3983 21.4555 10.3837 21.3122 10.3614 21.0888L9.36634 21.1883ZM9.17139 19.9853C9.18271 20.0001 9.21938 20.0612 9.25793 20.2754C9.29562 20.4849 9.32445 20.7695 9.36634 21.1883L10.3614 21.0888C10.3212 20.6867 10.2884 20.3556 10.2421 20.0983C10.1967 19.8458 10.1269 19.5891 9.96644 19.3787L9.17139 19.9853ZM8.70722 19.793C8.88525 19.7691 9.06244 19.8425 9.17139 19.9853L9.96644 19.3787C9.63958 18.9503 9.10801 18.7301 8.57392 18.8019L8.70722 19.793ZM7.71869 20.5058C8.04448 20.2393 8.26609 20.0584 8.44084 19.937C8.61958 19.8128 8.68872 19.7955 8.70722 19.793L8.57392 18.8019C8.3117 18.8372 8.08085 18.9694 7.87015 19.1158C7.65547 19.265 7.39819 19.476 7.08546 19.7319L7.71869 20.5058ZM7.73424 20.4926L7.73426 20.4926L7.06989 19.7452L7.06988 19.7452L7.73424 20.4926ZM6.86673 21.0671C7.0267 21.016 7.16218 20.9349 7.29001 20.8438C7.41377 20.7557 7.55516 20.6396 7.71868 20.5058L7.08544 19.7319C6.91164 19.8741 6.80003 19.9651 6.70976 20.0294C6.62354 20.0908 6.58395 20.1077 6.56244 20.1145L6.86673 21.0671ZM5.81394 21.0146C6.14696 21.1589 6.521 21.1776 6.86673 21.0671L6.56244 20.1145C6.44719 20.1514 6.32251 20.1451 6.21151 20.097L5.81394 21.0146ZM5.02205 20.3713C5.17146 20.5207 5.3006 20.6503 5.41497 20.7503C5.5331 20.8536 5.65985 20.9479 5.81394 21.0146L6.21151 20.097C6.19078 20.0881 6.15306 20.0673 6.07339 19.9977C5.98996 19.9247 5.88796 19.823 5.72916 19.6642L5.02205 20.3713ZM4.12861 19.4779L5.02205 20.3713L5.72916 19.6642L4.83572 18.7708L4.12861 19.4779ZM3.48535 18.686C3.55212 18.8401 3.64632 18.9669 3.74966 19.085C3.84971 19.1994 3.97922 19.3285 4.12861 19.4779L4.83572 18.7708C4.67693 18.612 4.57529 18.51 4.50232 18.4266C4.43262 18.3469 4.4119 18.3092 4.40292 18.2885L3.48535 18.686ZM3.43284 17.6332C3.3224 17.979 3.34106 18.353 3.48535 18.686L4.40292 18.2885C4.35482 18.1775 4.34861 18.0528 4.38542 17.9375L3.43284 17.6332ZM3.99413 16.7813C3.86033 16.9448 3.74432 17.0862 3.65614 17.2099C3.56507 17.3378 3.48395 17.4733 3.43284 17.6332L4.38542 17.9375C4.39229 17.916 4.40915 17.8764 4.47058 17.7902C4.53489 17.6999 4.62588 17.5883 4.76808 17.4145L3.99413 16.7813ZM4.70694 15.7928C4.70445 15.8113 4.68716 15.8804 4.56295 16.0592C4.4415 16.2339 4.26067 16.4555 3.99413 16.7813L4.76808 17.4145C5.02394 17.1018 5.23491 16.8445 5.38411 16.6298C5.53054 16.4192 5.66274 16.1883 5.69801 15.9261L4.70694 15.7928ZM4.51466 15.3286C4.65749 15.4375 4.73088 15.6147 4.70694 15.7928L5.69801 15.9261C5.76986 15.392 5.54966 14.8604 5.12119 14.5335L4.51466 15.3286ZM3.31168 15.1337C3.73051 15.1755 4.01507 15.2044 4.2245 15.2421C4.43871 15.2806 4.49983 15.3173 4.51466 15.3286L5.12119 14.5335C4.91083 14.3731 4.65413 14.3033 4.40161 14.2579C4.14432 14.2116 3.81322 14.1788 3.41118 14.1386L3.31168 15.1337ZM2.31242 14.9281C2.46166 15.0051 2.61482 15.0435 2.7696 15.0695C2.91945 15.0947 3.10145 15.1126 3.31168 15.1337L3.41118 14.1386C3.18774 14.1163 3.04449 14.1017 2.93519 14.0833C2.8308 14.0658 2.79088 14.0497 2.77081 14.0394L2.31242 14.9281ZM1.60507 14.1465C1.73852 14.4841 1.98984 14.7618 2.31242 14.9281L2.77081 14.0394C2.66328 13.9839 2.57951 13.8914 2.53502 13.7789L1.60507 14.1465ZM1.5 13.1318C1.5 13.3431 1.49974 13.5259 1.50987 13.6776C1.52033 13.8341 1.54333 13.9904 1.60507 14.1465L2.53502 13.7789C2.52672 13.7578 2.5147 13.7165 2.50764 13.6109C2.50026 13.5003 2.5 13.3563 2.5 13.1318H1.5ZM1.5 11.8683V13.1318H2.5V11.8683H1.5ZM1.60513 10.8533C1.54335 11.0095 1.52034 11.1658 1.50987 11.3224C1.49974 11.4741 1.5 11.657 1.5 11.8683H2.5C2.5 11.6437 2.50026 11.4997 2.50765 11.3891C2.51471 11.2834 2.52673 11.2421 2.53504 11.2211L1.60513 10.8533ZM2.31228 10.0719C1.98981 10.2383 1.73857 10.5159 1.60513 10.8533L2.53504 11.2211C2.57952 11.1086 2.66327 11.0161 2.77076 10.9606L2.31228 10.0719ZM3.3118 9.86633C3.10152 9.88735 2.91947 9.9053 2.76957 9.93047C2.61476 9.95647 2.46156 9.99492 2.31229 10.0719L2.77076 10.9606C2.79084 10.9503 2.83076 10.9342 2.93518 10.9167C3.04452 10.8983 3.1878 10.8837 3.4113 10.8614L3.3118 9.86633ZM3.36155 9.86384H3.36155V10.8638H3.36155V9.86384ZM3.36156 9.86384H3.36155V10.8638H3.36156V9.86384ZM4.51509 9.67132C4.50025 9.68265 4.43914 9.71933 4.22487 9.75789C4.01538 9.7956 3.73074 9.82443 3.31181 9.86633L3.41131 10.8614C3.81346 10.8211 4.14464 10.7884 4.402 10.7421C4.65458 10.6966 4.91135 10.6268 5.12174 10.4663L4.51509 9.67132ZM4.70732 9.20725C4.73124 9.38524 4.65786 9.56238 4.5151 9.67132L5.12174 10.4663C5.55004 10.1395 5.77016 9.60804 5.69841 9.07408L4.70732 9.20725ZM3.9943 8.21844C4.26093 8.54432 4.44182 8.76599 4.5633 8.9408C4.68756 9.11959 4.70484 9.18875 4.70732 9.20725L5.69841 9.07408C5.66317 8.81178 5.53094 8.58087 5.38448 8.37012C5.23524 8.15537 5.0242 7.89802 4.76826 7.5852L3.9943 8.21844ZM3.43283 7.36614C3.48393 7.52617 3.56508 7.66171 3.65618 7.78959C3.74439 7.9134 3.86045 8.05484 3.9943 8.21844L4.76826 7.5852C4.62599 7.41132 4.53497 7.29966 4.47063 7.20935C4.40918 7.1231 4.39232 7.08349 4.38545 7.06197L3.43283 7.36614ZM3.48532 6.31371C3.34112 6.64663 3.32247 7.02052 3.43283 7.36614L4.38544 7.06197C4.34866 6.94676 4.35488 6.82213 4.40294 6.71116L3.48532 6.31371ZM4.12878 5.52153C3.97933 5.67099 3.84977 5.80018 3.74969 5.91459C3.64632 6.03276 3.55209 6.15955 3.48532 6.31371L4.40294 6.71116C4.41192 6.69042 4.43264 6.65269 4.50236 6.57299C4.57536 6.48953 4.67704 6.38749 4.83589 6.22864L4.12878 5.52153ZM5.0221 4.62822L4.12878 5.52154L4.83589 6.22864L5.72921 5.33532L5.0221 4.62822ZM5.0221 4.62821L5.0221 4.62822L5.72921 5.33532L5.72921 5.33532L5.0221 4.62821ZM5.81398 3.98494C5.65989 4.05171 5.53315 4.14591 5.41502 4.24925C5.30065 4.3493 5.1715 4.47881 5.0221 4.62821L5.72921 5.33532C5.888 5.17653 5.99001 5.07489 6.07343 5.00191C6.15311 4.93221 6.19082 4.91149 6.21155 4.90251L5.81398 3.98494ZM6.86677 3.93243C6.52105 3.82199 6.147 3.84065 5.81398 3.98494L6.21155 4.90251C6.32256 4.85442 6.44724 4.8482 6.56248 4.88501L6.86677 3.93243ZM7.71882 4.49378C7.55526 4.35997 7.41386 4.24394 7.29008 4.15575C7.16225 4.06467 7.02675 3.98354 6.86677 3.93243L6.56248 4.88501C6.58399 4.89188 6.62359 4.90874 6.70982 4.97018C6.80011 5.03451 6.91175 5.12551 7.08558 5.26774L7.71882 4.49378ZM8.70718 5.20654C8.6887 5.20405 8.61957 5.18676 8.44085 5.06255C8.26613 4.94111 8.04455 4.76029 7.71882 4.49378L7.08558 5.26774C7.39826 5.52357 7.6555 5.73451 7.87013 5.88369C8.08078 6.0301 8.31156 6.16229 8.57371 6.19759L8.70718 5.20654ZM9.17149 5.01422C9.06252 5.1571 8.88526 5.23052 8.70718 5.20654L8.57371 6.19759C9.10797 6.26954 9.63975 6.04927 9.96665 5.62062L9.17149 5.01422ZM9.36635 3.81155C9.32448 4.23026 9.29566 4.51474 9.25799 4.72412C9.21945 4.93828 9.1828 4.99938 9.17149 5.01422L9.96665 5.62062C10.127 5.4103 10.1968 5.15367 10.2422 4.90121C10.2885 4.64399 10.3212 4.31299 10.3614 3.91106L9.36635 3.81155ZM9.57179 2.81256C9.49485 2.96176 9.45643 3.11489 9.43046 3.26962C9.4053 3.41943 9.38737 3.60139 9.36635 3.81155L10.3614 3.91106C10.3837 3.68768 10.3983 3.54447 10.4167 3.43519C10.4342 3.33083 10.4502 3.29092 10.4606 3.27085L9.57179 2.81256ZM10.3536 2.10501C10.016 2.23847 9.73818 2.48986 9.57179 2.81255L10.4606 3.27085C10.5161 3.16329 10.6086 3.07949 10.7212 3.035L10.3536 2.10501ZM11.3681 2C11.1569 2 10.974 1.99974 10.8225 2.00986C10.6659 2.02031 10.5097 2.04331 10.3536 2.10501L10.7212 3.035C10.7422 3.0267 10.7835 3.01469 10.8891 3.00764C10.9997 3.00026 11.1436 3 11.3681 3V2ZM12.6318 2H11.3681V3H12.6318V2ZM13.6465 2.10507C13.4904 2.04333 13.3341 2.02033 13.1776 2.00987C13.0259 1.99974 12.8431 2 12.6318 2V3C12.8563 3 13.0003 3.00026 13.1109 3.00764C13.2165 3.0147 13.2578 3.02672 13.2789 3.03502L13.6465 2.10507ZM14.4281 2.81242C14.2618 2.48984 13.9841 2.23852 13.6465 2.10507L13.2789 3.03502C13.3914 3.07951 13.4839 3.16328 13.5394 3.2708L14.4281 2.81242ZM15.5 12.5C15.5 14.433 13.933 16 12 16V17C14.4853 17 16.5 14.9853 16.5 12.5H15.5ZM12 9C13.933 9 15.5 10.567 15.5 12.5H16.5C16.5 10.0147 14.4853 8 12 8V9ZM8.5 12.5C8.5 10.567 10.067 9 12 9V8C9.51472 8 7.5 10.0147 7.5 12.5H8.5ZM12 16C10.067 16 8.5 14.433 8.5 12.5H7.5C7.5 14.9853 9.51472 17 12 17V16Z" fill="#F8F9FA"/>
</svg>
