<svg width="30" height="30" viewBox="0 0 30 30" fill="none" xmlns="http://www.w3.org/2000/svg">
<path d="M10.8486 18.5141L18.5101 10.8527" stroke="#121212" stroke-opacity="0.5" stroke-width="2.40777" stroke-linecap="round" stroke-linejoin="round"/>
<path d="M16.5942 20.4304L13.4019 23.6227C12.3859 24.6383 11.008 25.2089 9.57131 25.2087C8.13467 25.2086 6.7569 24.6379 5.74104 23.622C4.72518 22.6061 4.15442 21.2284 4.1543 19.7917C4.15418 18.3551 4.7247 16.9772 5.74039 15.9612L8.93267 12.7689" stroke="#121212" stroke-opacity="0.5" stroke-width="2.40777" stroke-linecap="round" stroke-linejoin="round"/>
<path d="M20.4261 16.599L23.6184 13.4067C24.634 12.3907 25.2046 11.0128 25.2044 9.57619C25.2043 8.13955 24.6336 6.76178 23.6177 5.74592C22.6018 4.73006 21.2241 4.1593 19.7874 4.15918C18.3508 4.15906 16.9729 4.72958 15.9569 5.74527L12.7646 8.93754" stroke="#121212" stroke-opacity="0.5" stroke-width="2.40777" stroke-linecap="round" stroke-linejoin="round"/>
</svg>
