<svg width="46" height="46" viewBox="0 0 46 46" fill="none" xmlns="http://www.w3.org/2000/svg">
<path d="M11.6717 5.09375C11.6671 5.40174 11.5715 5.7015 11.3971 5.95535C11.2226 6.2092 10.977 6.40582 10.6911 6.52049C10.4052 6.63517 10.0918 6.66279 9.79026 6.59988C9.48872 6.53697 9.21251 6.38634 8.99633 6.16691C8.78015 5.94749 8.63364 5.66906 8.57523 5.36662C8.51681 5.06419 8.5491 4.75123 8.66802 4.46708C8.78694 4.18293 8.98719 3.94028 9.24361 3.7696C9.50003 3.59893 9.80117 3.50785 10.1092 3.50781C10.5263 3.51214 10.9248 3.68137 11.2175 3.97852C11.5103 4.27567 11.6736 4.67661 11.6717 5.09375Z" fill="#FF9595"/>
<path d="M6.9842 5.09375C6.97958 5.40174 6.88403 5.7015 6.70955 5.95535C6.53508 6.2092 6.28947 6.40582 6.00358 6.52049C5.7177 6.63517 5.40429 6.66279 5.10276 6.59988C4.80122 6.53697 4.52501 6.38634 4.30883 6.16691C4.09265 5.94749 3.94614 5.66906 3.88773 5.36662C3.82931 5.06419 3.8616 4.75123 3.98052 4.46708C4.09944 4.18293 4.29969 3.94028 4.55611 3.7696C4.81253 3.59893 5.11367 3.50785 5.4217 3.50781C5.83882 3.51214 6.23728 3.68137 6.53005 3.97852C6.82281 4.27567 6.98608 4.67661 6.9842 5.09375Z" fill="#FF9595"/>
<path d="M16.3592 5.09375C16.3546 5.40174 16.259 5.7015 16.0846 5.95535C15.9101 6.2092 15.6645 6.40582 15.3786 6.52049C15.0927 6.63517 14.7793 6.66279 14.4778 6.59988C14.1762 6.53697 13.9 6.38634 13.6838 6.16691C13.4676 5.94749 13.3211 5.66906 13.2627 5.36662C13.2043 5.06419 13.2366 4.75123 13.3555 4.46708C13.4744 4.18293 13.6747 3.94028 13.9311 3.7696C14.1875 3.59893 14.4887 3.50785 14.7967 3.50781C15.2138 3.51214 15.6123 3.68137 15.905 3.97852C16.1978 4.27567 16.3611 4.67661 16.3592 5.09375Z" fill="#FF9595"/>
<path d="M43.7031 0.734375H2.29688C1.88285 0.735612 1.48614 0.900629 1.19339 1.19339C0.900629 1.48614 0.735612 1.88285 0.734375 2.29688V43.7031C0.735612 44.1171 0.900629 44.5139 1.19339 44.8066C1.48614 45.0994 1.88285 45.2644 2.29688 45.2656H43.7031C44.1171 45.2644 44.5139 45.0994 44.8066 44.8066C45.0994 44.5139 45.2644 44.1171 45.2656 43.7031V2.29688C45.2644 1.88285 45.0994 1.48614 44.8066 1.19339C44.5139 0.900629 44.1171 0.735612 43.7031 0.734375ZM43.7031 43.7031H2.29688V9.46094H43.7031V43.7031ZM43.7031 7.89844H2.29688V2.29688H43.7031V7.89844Z" fill="#FF9595"/>
<path d="M41.9141 5.74186C42.0586 5.88926 42.1388 6.08785 42.1374 6.29425C42.1359 6.50065 42.0528 6.69808 41.9063 6.84342C41.8352 6.91631 41.7501 6.97399 41.6561 7.01294C41.5621 7.05189 41.4611 7.0713 41.3594 7.06998C41.2559 7.07062 41.1533 7.05017 41.0579 7.00987C40.9626 6.96958 40.8764 6.91028 40.8047 6.83561L40.1875 6.21061L39.5703 6.83561C39.4986 6.91028 39.4125 6.96958 39.3171 7.00987C39.2217 7.05017 39.1192 7.07062 39.0156 7.06998C38.9139 7.0713 38.8129 7.05189 38.7189 7.01294C38.6249 6.97399 38.5398 6.91631 38.4688 6.84342C38.3222 6.69808 38.2391 6.50065 38.2377 6.29425C38.2362 6.08785 38.3165 5.88926 38.461 5.74186L39.0938 5.09342L38.461 4.4528C38.3156 4.30426 38.2349 4.1043 38.2363 3.8965C38.2378 3.6887 38.3214 3.48989 38.4688 3.34342C38.6162 3.19895 38.8148 3.11867 39.0212 3.12014C39.2276 3.1216 39.425 3.20468 39.5703 3.35123L40.1875 3.98405L40.8047 3.35123C40.95 3.20468 41.1475 3.1216 41.3539 3.12014C41.5603 3.11867 41.7589 3.19895 41.9063 3.34342C42.0537 3.48989 42.1372 3.6887 42.1387 3.8965C42.1401 4.1043 42.0594 4.30426 41.9141 4.4528L41.2813 5.09342L41.9141 5.74186Z" fill="#FF9595"/>
<path d="M36.6719 5.09375C36.6719 5.30095 36.5896 5.49966 36.4431 5.64618C36.2965 5.79269 36.0978 5.875 35.8906 5.875H32.7656C32.5584 5.875 32.3597 5.79269 32.2132 5.64618C32.0667 5.49966 31.9844 5.30095 31.9844 5.09375C31.9844 4.88655 32.0667 4.68784 32.2132 4.54132C32.3597 4.39481 32.5584 4.3125 32.7656 4.3125H35.8906C36.0978 4.3125 36.2965 4.39481 36.4431 4.54132C36.5896 4.68784 36.6719 4.88655 36.6719 5.09375Z" fill="#FF9595"/>
<path d="M13.7422 31.5078L16.5781 29.875H30.3828C30.7944 29.8728 31.1977 29.7581 31.5488 29.5433C31.8999 29.3285 32.1856 29.0218 32.375 28.6563L36.8047 20.2891C37.0108 19.8947 37.1038 19.451 37.0734 19.007C37.0431 18.5631 36.8906 18.1361 36.6328 17.7734L36.0703 16.9766C35.8624 16.6847 35.5884 16.4462 35.2707 16.2805C34.9529 16.1149 34.6005 16.0268 34.2422 16.0234H34.2344L15.8203 16.0703L15.7031 14.8672C15.6502 14.2732 15.3789 13.7199 14.9416 13.3144C14.5043 12.9089 13.9322 12.68 13.3359 12.6719H8.92188C8.71467 12.6719 8.51596 12.7542 8.36945 12.9007C8.22294 13.0472 8.14062 13.2459 8.14062 13.4531C8.14062 13.6603 8.22294 13.859 8.36945 14.0056C8.51596 14.1521 8.71467 14.2344 8.92188 14.2344H13.3359C13.5458 14.2436 13.7449 14.3301 13.8949 14.4772C14.0448 14.6243 14.1351 14.8216 14.1484 15.0312L15.5391 28.6719L12.9063 30.1953C12.5809 30.4244 12.3158 30.7287 12.1335 31.0824C11.9512 31.4361 11.8571 31.8287 11.8594 32.2266V32.4453C11.8535 33.0561 12.0777 33.6467 12.4873 34.0997C12.8969 34.5528 13.4621 34.8351 14.0703 34.8906C13.6713 35.4899 13.4592 36.1941 13.4609 36.9141C13.4439 37.3767 13.5202 37.838 13.6855 38.2704C13.8507 38.7029 14.1015 39.0975 14.4227 39.4309C14.744 39.7642 15.1291 40.0293 15.5552 40.2104C15.9812 40.3915 16.4394 40.4848 16.9023 40.4848C17.3653 40.4848 17.8235 40.3915 18.2495 40.2104C18.6755 40.0293 19.0607 39.7642 19.3819 39.4309C19.7032 39.0975 19.9539 38.7029 20.1192 38.2704C20.2845 37.838 20.3608 37.3767 20.3438 36.9141C20.3433 36.2005 20.1342 35.5026 19.7422 34.9062H26.8281C26.4326 35.5009 26.2231 36.1999 26.2266 36.9141C26.2095 37.3767 26.2859 37.838 26.4511 38.2704C26.6164 38.7029 26.8671 39.0975 27.1884 39.4309C27.5096 39.7642 27.8948 40.0293 28.3208 40.2104C28.7469 40.3915 29.205 40.4848 29.668 40.4848C30.1309 40.4848 30.5891 40.3915 31.0151 40.2104C31.4412 40.0293 31.8263 39.7642 32.1476 39.4309C32.4688 39.0975 32.7196 38.7029 32.8848 38.2704C33.0501 37.838 33.1265 37.3767 33.1094 36.9141C33.1089 36.2005 32.8998 35.5026 32.5078 34.9062H33.9219C34.1291 34.9062 34.3278 34.8239 34.4743 34.6774C34.6208 34.5309 34.7031 34.3322 34.7031 34.125C34.7031 33.9178 34.6208 33.7191 34.4743 33.5726C34.3278 33.4261 34.1291 33.3438 33.9219 33.3438H14.2422C14.0147 33.3322 13.8009 33.2314 13.6473 33.0632C13.4938 32.8949 13.4127 32.6729 13.4219 32.4453V32.2266C13.4206 32.0908 13.4485 31.9563 13.5038 31.8323C13.559 31.7083 13.6403 31.5976 13.7422 31.5078ZM31 27.9219C30.9418 28.0365 30.8537 28.1332 30.7451 28.202C30.6364 28.2707 30.5113 28.3089 30.3828 28.3125H17.0703L16.2656 20.3906L34.9844 20.3828L31 27.9219ZM34.2344 17.5859H34.2422C34.3517 17.5871 34.4594 17.6146 34.556 17.6663C34.6525 17.718 34.7352 17.7923 34.7969 17.8828L35.3672 18.6797C35.3906 18.7187 35.4141 18.7656 35.4375 18.8125L16.1016 18.8281L15.9844 17.6328L34.2344 17.5859ZM29.6641 34.9062C30.0681 34.8778 30.4712 34.9718 30.8211 35.1757C31.171 35.3797 31.4513 35.6844 31.6256 36.0499C31.7999 36.4155 31.8601 36.8251 31.7983 37.2253C31.7365 37.6256 31.5556 37.9979 31.2792 38.2939C31.0028 38.5899 30.6436 38.7958 30.2485 38.8848C29.8534 38.9738 29.4407 38.9418 29.0641 38.7929C28.6875 38.644 28.3644 38.3851 28.137 38.05C27.9096 37.7149 27.7883 37.3191 27.7891 36.9141C27.773 36.3996 27.9612 35.8997 28.3125 35.5235C28.6638 35.1473 29.1497 34.9254 29.6641 34.9062ZM16.8984 34.9062C17.3024 34.8778 17.7056 34.9718 18.0555 35.1757C18.4053 35.3797 18.6857 35.6844 18.86 36.0499C19.0343 36.4155 19.0944 36.8251 19.0326 37.2253C18.9709 37.6256 18.79 37.9979 18.5136 38.2939C18.2371 38.5899 17.878 38.7958 17.4829 38.8848C17.0878 38.9738 16.6751 38.9418 16.2985 38.7929C15.9218 38.644 15.5988 38.3851 15.3714 38.05C15.1439 37.7149 15.0227 37.3191 15.0234 36.9141C15.0074 36.3996 15.1956 35.8997 15.5469 35.5235C15.8982 35.1473 16.3841 34.9254 16.8984 34.9062Z" fill="#FF9595"/>
</svg>
