<svg width="83" height="50" viewBox="0 0 83 50" fill="none" xmlns="http://www.w3.org/2000/svg">
<path d="M13.1311 22.7179C12.1733 22.7179 11.3965 23.4947 11.3965 24.4525V30.8311C11.3965 31.7889 12.1733 32.5657 13.1311 32.5657C14.0889 32.5657 14.8657 31.7889 14.8657 30.8311V24.4525C14.8657 23.4944 14.0889 22.7179 13.1311 22.7179Z" fill="#FF6767"/>
<path d="M20.2028 18.4662C19.2451 18.4662 18.4683 19.243 18.4683 20.2008V30.8312C18.4683 31.789 19.2451 32.5658 20.2028 32.5658C21.1606 32.5658 21.9374 31.789 21.9374 30.8312V20.2008C21.9374 19.243 21.1606 18.4662 20.2028 18.4662Z" fill="#FF6767"/>
<path d="M27.2751 12.1631C26.3173 12.1631 25.5405 12.9399 25.5405 13.8977V30.831C25.5405 31.7888 26.3173 32.5656 27.2751 32.5656C28.2329 32.5656 29.0097 31.7888 29.0097 30.831V13.8977C29.0097 12.9396 28.2329 12.1631 27.2751 12.1631Z" fill="#FF6767"/>
<path d="M34.3459 7.83594C33.3881 7.83594 32.6113 8.61274 32.6113 9.57052V30.8313C32.6113 31.7891 33.3881 32.5659 34.3459 32.5659C35.3037 32.5659 36.0805 31.7891 36.0805 30.8313V9.57052C36.0805 8.61245 35.3037 7.83594 34.3459 7.83594Z" fill="#FF6767"/>
<path d="M81.4469 40.5326L69.0131 28.0988C70.3062 24.9324 70.1975 21.3253 68.6922 18.2316V4.61805C68.6922 2.07167 66.6205 3.02535e-08 64.0741 3.02535e-08H4.61804C2.07167 -0.000289067 0 2.07139 0 4.61776V37.7723C0 40.3187 2.07167 42.3904 4.61804 42.3904H23.429V46.5308H18.434C17.4762 46.5308 16.6994 47.3073 16.6994 48.2654C16.6994 49.2235 17.4762 50 18.434 50H50.2582C51.216 50 51.9928 49.2235 51.9928 48.2654C51.9928 47.3073 51.216 46.5308 50.2582 46.5308H45.2631V42.3904H64.0741C65.7145 42.3904 67.1539 41.5283 67.9732 40.2357L74.8583 47.1209C75.7667 48.0292 76.9595 48.4831 78.1526 48.4831C79.3457 48.4831 80.5385 48.0289 81.4469 47.1209C83.2627 45.3045 83.263 42.3487 81.4469 40.5326ZM78.9936 44.6679C78.5299 45.1316 77.7753 45.1316 77.3113 44.6679L65.5396 32.8961L67.2218 31.2139L78.9936 42.9856C79.4576 43.4493 79.4576 44.2039 78.9936 44.6679ZM64.0741 38.9212H4.61804C3.98463 38.9212 3.46917 38.4057 3.46917 37.7723V4.61776C3.46917 3.98434 3.98434 3.46888 4.61804 3.46888H64.0741C64.7076 3.46888 65.223 3.98434 65.223 4.61776V13.9721C60.4928 10.3133 53.6499 10.6498 49.3125 14.9868C44.6072 19.6927 44.6072 27.3495 49.3125 32.0551C51.5924 34.3347 54.623 35.5902 57.847 35.5902C59.4445 35.5902 60.9947 35.2809 62.4298 34.6923L65.2233 37.4855V37.7726C65.2227 38.4057 64.7076 38.9212 64.0741 38.9212ZM26.8982 46.5308V42.3904H41.7937V46.5308H26.8982ZM63.9279 29.6019C62.3034 31.2263 60.1436 32.1208 57.8467 32.1208C55.5495 32.1208 53.39 31.2263 51.7655 29.6019C48.4126 26.2489 48.4126 20.7931 51.7655 17.4398C53.4423 15.7633 55.6443 14.925 57.8467 14.925C60.0487 14.925 62.2511 15.7633 63.9276 17.4398C67.2808 20.7928 67.2808 26.2486 63.9279 29.6019Z" fill="#FF6767"/>
<path d="M57.6187 27.2974C55.536 27.1716 53.9439 25.3755 54.0697 23.2928C54.1272 22.3365 53.399 21.5146 52.4426 21.4567C51.486 21.3998 50.6644 22.1274 50.6066 23.0838C50.3658 27.0759 53.4178 30.5194 57.4096 30.7602C57.4452 30.7622 57.4805 30.7634 57.5157 30.7634C58.4258 30.7634 59.1899 30.0539 59.2454 29.1331C59.3032 28.1771 58.5747 27.3552 57.6187 27.2974Z" fill="#FF6767"/>
</svg>
