<svg width="81" height="81" viewBox="0 0 81 81" fill="none" xmlns="http://www.w3.org/2000/svg">
<path d="M22.7812 40.5H12.6562V50.625H22.7812V40.5Z" fill="#0B78EB"/>
<path d="M38.2505 40.5H28.1255V50.625H38.2505V40.5Z" fill="#0B78EB"/>
<path d="M22.7812 55.6875H12.6562V65.8125H22.7812V55.6875Z" fill="#0B78EB"/>
<path d="M38.2505 55.6875H28.1255V65.8125H38.2505V55.6875Z" fill="#0B78EB"/>
<path d="M23.625 0H16.875V6.75H0V26.8312V33.5812V81H38.2506V74.25H6.75V33.5812H38.2506V26.8312H6.75V13.5H16.875V20.25H23.625V13.5H38.2506V6.75H23.625V0Z" fill="#0B78EB"/>
<path d="M44.7222 6.77026V13.5422C61.1027 13.9945 74.25 27.3848 74.25 43.875C74.25 60.3636 61.1027 73.7539 44.7222 74.2078V80.9798C64.8338 80.5275 81 64.0946 81 43.875C81 23.6554 64.8338 7.22251 44.7222 6.77026Z" fill="#0B78EB"/>
<path d="M67.5 47.2501V40.5001H51.4705V20.3901H44.7222V40.5001V47.2501H51.4705H67.5Z" fill="#0B78EB"/>
</svg>
