<svg width="80" height="80" viewBox="0 0 80 80" fill="none" xmlns="http://www.w3.org/2000/svg">
<path d="M62.2222 0H35.5556C25.7778 0 17.7778 8 17.7778 17.7778C8 17.7778 0 25.7778 0 35.5556V62.2222C0 72 8 80 17.7778 80H44.4444C54.2222 80 62.2222 72 62.2222 62.2222C72 62.2222 80 54.2222 80 44.4444V17.7778C80 8 72 0 62.2222 0ZM55.5 58V62.2222C55.5 67.1111 50.8889 73.5 46 73.5H15.5C10.6111 73.5 7 67.1111 7 62.2222V35.5556C8 29 11.8889 24.5 16.7778 24.5H21.5H44.4444C49.3333 24.5 55.5 29.1111 55.5 34V46.5V58ZM73 46.5C73 51.3889 67.5 55.5 62.2222 54.5V35.5556C62.2222 25.7778 54.2222 17.7778 44.4444 17.7778H26.6667C26 12.5 29.6111 8 34.5 8H63C67.8889 8 73 12.8889 73 17.7778V31.5V46.5Z" fill="#0B78EB"/>
<path d="M23.7207 45.4012C22.5671 44.173 22.6276 42.2423 23.8558 41.0887V41.0887C25.084 39.9351 27.0147 39.9956 28.1683 41.2238L40.4903 54.3428C41.4201 55.3327 41.5842 56.8203 40.896 57.9911V57.9911C40.5996 58.4953 40.1634 58.9047 39.6411 59.1678V59.1678C38.4373 59.7741 36.978 59.516 36.0552 58.5335L23.7207 45.4012Z" fill="#0B78EB"/>
<rect width="6.06197" height="24.3492" rx="3.03098" transform="matrix(0.704002 0.710198 0.710198 -0.704002 21 56.1719)" fill="#0B78EB"/>
</svg>
