<svg width="72" height="89" viewBox="0 0 72 89" fill="none" xmlns="http://www.w3.org/2000/svg">
<path d="M35.6007 0C15.9716 0 0.000391771 15.9712 0.000391771 35.578C-0.128659 64.2585 31.6668 87.2162 33.0197 88.173C33.7728 88.7109 34.6752 89 35.6007 89C36.5262 89 37.4285 88.7109 38.1817 88.173C39.5345 87.2162 71.33 64.2585 71.201 35.6003C71.201 15.9712 55.2298 0 35.6007 0ZM35.6007 78.9214C28.4317 73.1007 8.80701 55.3629 8.90046 35.6003C8.90046 20.8751 20.8755 8.90007 35.6007 8.90007C50.3258 8.90007 62.3009 20.8751 62.3009 35.6225C62.3943 55.3673 42.7741 73.1052 35.6007 78.9214Z" fill="#0B78EB"/>
<path d="M31.1496 42.6581L20.9457 32.4541L14.6533 38.7465L31.1496 55.2428L56.546 29.8464L50.2536 23.5541L31.1496 42.6581Z" fill="#0B78EB"/>
</svg>
