<svg width="482" height="1708" viewBox="0 0 482 1708" fill="none" xmlns="http://www.w3.org/2000/svg">
<g opacity="0.8">
<path d="M153.605 1695.07C146.102 1583.51 122.239 1504.77 101.579 1453.16C80.687 1400.98 57.7684 1363.4 45.4465 1294.73C31.7556 1218.99 37.8892 1169.5 41.3393 1149.93C46.1311 1122.79 49.3895 1124.47 60.5066 1080.08C81.8644 994.796 72.3629 978.595 86.5193 940.383C109.986 877.026 145.596 895.92 185.094 829.65C213.708 781.66 236.476 702.203 220.69 630.328C205.822 562.65 168.487 555.028 163.188 483.822C161.012 454.569 165.845 430.241 175.51 381.603C187.832 319.271 203.029 277.414 208.369 260.65C224.209 210.989 234.176 130.832 202.892 -1.03612e-05" stroke="#B6D9FF" stroke-width="0.90655" stroke-miterlimit="10"/>
<path d="M165.68 1695.82C159.205 1587.9 137.6 1507.22 116.188 1450.93C98.5538 1405.21 79.2222 1370.34 65.408 1322.28C62.396 1311.77 59.4799 1300.69 56.9607 1288.77C41.1067 1213.62 43.7216 1164.32 45.3235 1143.74C47.4592 1116.14 49.8962 1116.14 60.6984 1072.63C68.2968 1041.97 72.6368 1020.13 75.4846 1003.21C80.3175 974.456 80.646 960.061 89.9422 937.369C93.3823 928.902 97.595 920.956 102.497 913.689C125.155 880.077 153.879 881.508 184.327 825.749C210.833 777.214 230.877 698.282 215.2 627.64C213.956 622.036 212.484 616.528 210.792 611.116C193.692 556.501 163.613 544.232 158.89 481.642C158.384 475.043 158.233 468.416 158.438 461.798C159.068 439.545 163.531 416.546 170.76 380.121C182.808 319.778 197.717 278.571 203.618 260.086C207.9 246.554 211.261 232.592 213.667 218.352C222.101 169.084 222.977 99.4363 201.455 1.46315" stroke="#B6D9FF" stroke-width="0.90655" stroke-miterlimit="10"/>
<path d="M178.824 1696.57C173.347 1592.31 154.18 1509.6 131.754 1448.7C113.956 1400.34 93.625 1363.85 79.1126 1316.67C75.7857 1305.91 72.4177 1294.75 69.5289 1282.77C51.498 1208.22 49.3211 1159.18 50.3617 1137.51C51.7308 1109.58 51.4706 1107.73 61.9442 1065.17C69.2962 1035.38 74.266 1013.62 77.7572 997.029C83.6032 969.072 84.7806 955.631 94.4327 934.404C98.1499 926.316 102.512 918.714 107.453 911.712C129.961 879.242 156.959 877.641 184.67 821.814C209.053 772.734 226.372 694.333 210.806 624.915C209.436 619.034 208.067 613.602 206.424 608.505C189.01 552.169 160.327 539.699 155.768 479.404C155.25 472.863 155.081 466.284 155.262 459.714C155.795 437.088 160.135 414.127 167.296 378.591C179.015 320.228 193.678 279.699 200.003 259.474C204.246 246.047 207.616 232.209 210.08 218.113C218.705 169.285 220.526 99.9719 201.14 2.96457" stroke="#B6D9FF" stroke-width="0.90655" stroke-miterlimit="10"/>
<path d="M192.857 1697.31C188.434 1596.71 171.526 1512.02 148.279 1446.45C130.207 1395.51 108.945 1357.35 93.7207 1311.1C90.0789 1300.06 86.2728 1288.8 83.0007 1276.81C62.8202 1202.86 58.5897 1154.15 56.2897 1131.3C53.4557 1103.04 53.9348 1099.35 64.0798 1057.73C71.158 1028.77 76.7713 1007.1 80.906 990.741C87.7514 963.603 89.8051 951.081 99.799 931.319C103.8 923.672 108.311 916.457 113.285 909.752C135.629 878.423 160.888 873.687 185.847 817.928C208.108 768.235 222.717 690.431 207.246 622.237C205.877 616.414 204.508 611.01 202.906 605.952C185.108 547.923 157.876 535.204 153.345 477.243C152.814 470.75 152.627 464.218 152.783 457.686C153.208 434.687 157.452 411.688 164.475 377.089C175.852 320.734 190.255 280.856 197.115 258.909C201.293 245.559 204.666 231.846 207.205 217.874C216.022 169.485 218.801 100.498 201.537 4.47557" stroke="#B6D9FF" stroke-width="0.90655" stroke-miterlimit="10"/>
<path d="M206.917 1698.06C203.522 1601.1 188.9 1514.48 164.818 1444.22C146.458 1390.69 124.252 1350.88 108.343 1305.51C104.386 1294.22 100.128 1282.87 96.4863 1270.83C74.1975 1197.47 66.6127 1149.21 62.259 1125.09C57.1112 1096.59 56.4404 1091.01 66.2568 1050.26C73.1022 1022.07 79.3179 1000.59 84.055 984.507C91.8862 958.186 94.8434 946.602 105.166 928.289C109.44 921.094 114.097 914.264 119.104 907.845C141.256 877.64 164.79 869.77 187.079 814.062C207.205 763.755 219.116 686.568 203.755 619.579C202.386 613.822 201.017 608.457 199.442 603.417C181.274 543.687 155.631 530.738 151.045 475.101C150.521 468.646 150.316 462.162 150.429 455.678C150.757 432.335 154.892 409.412 161.778 375.607C172.841 321.232 186.997 282.014 194.349 258.355C198.487 245.1 201.868 231.502 204.467 217.654C213.489 169.696 217.199 101.024 202.084 5.9769" stroke="#B6D9FF" stroke-width="0.90655" stroke-miterlimit="10"/>
<path d="M215.981 1698.77C213.612 1605.47 201.29 1516.88 176.373 1441.96C157.712 1385.86 134.52 1344.37 117.981 1299.89C113.696 1288.36 109.041 1276.89 104.988 1264.82C80.591 1192.09 69.7204 1144.22 63.2172 1118.89C55.8515 1090.13 53.9211 1082.58 63.4226 1042.82C68.6887 1020.86 74.9883 999.309 82.2887 978.272C91.092 952.718 94.9802 942.104 105.563 925.291C110.204 917.948 115.147 912.121 119.952 905.818C141.858 876.738 163.763 865.716 183.314 810.111C201.29 759.139 210.518 682.599 195.266 616.834C193.897 611.135 192.528 605.799 190.981 600.787C172.485 539.345 148.197 526.177 143.747 472.853C143.222 466.446 143.003 460.02 143.09 453.584C143.35 429.868 147.334 406.974 154.043 374.096C164.749 321.71 178.686 283.142 186.531 257.771C190.625 244.603 194.01 231.11 196.663 217.377C205.89 169.868 210.559 101.531 197.566 7.45921" stroke="#B6D9FF" stroke-width="0.90655" stroke-miterlimit="10"/>
<path d="M222.442 1699.56C221.073 1609.91 211.038 1519.37 185.313 1439.76C166.351 1381.09 142.145 1337.97 125.073 1294.34C120.445 1282.55 115.379 1271 110.944 1258.87C84.4791 1186.69 70.3363 1139.19 61.6563 1112.67C52.1411 1083.71 48.8827 1074.2 58.0556 1035.36C63.1962 1013.59 69.8192 992.416 77.8527 972.054C87.6006 947.334 92.4472 937.624 103.4 922.275C108.233 915.46 113.381 910.094 118.241 903.842C140.009 875.869 160.026 861.677 176.989 806.209C192.788 754.539 199.36 678.659 184.204 614.128C182.835 608.486 181.466 603.207 179.946 598.196C161.162 535.032 138.271 521.587 133.985 470.654C133.447 464.295 133.209 457.906 133.274 451.518C133.438 427.467 137.299 404.573 143.925 372.595C154.316 322.198 167.994 284.299 176.359 257.188C180.401 244.115 183.789 230.737 186.504 217.138C195.937 170.05 201.564 102.047 190.68 8.94155" stroke="#B6D9FF" stroke-width="0.90655" stroke-miterlimit="10"/>
<path d="M229.001 1700.29C228.686 1614.31 220.882 1521.84 194.349 1437.51C175.072 1376.28 149.826 1331.55 132.138 1288.77C127.141 1276.72 121.664 1265.05 116.872 1252.89C88.3679 1181.29 71.0078 1134.13 60.0551 1106.47C48.4452 1077.11 43.8176 1065.82 52.662 1027.91C57.7487 1006.31 64.7658 985.479 73.5817 965.818C84.2469 941.968 90.1066 933.143 101.333 919.242C106.371 913.007 111.684 908.067 116.64 901.882C138.175 875 156.412 857.589 170.76 802.29C184.355 749.905 188.284 674.738 173.252 611.488C171.883 605.904 170.513 600.654 169.007 595.681C149.84 530.786 128.386 517.197 124.129 468.502C123.589 462.2 123.334 455.869 123.362 449.529C123.362 425.095 127.168 402.24 133.685 371.16C143.72 322.742 157.178 285.523 166.023 256.681C170.031 243.695 173.432 230.431 176.209 216.956C185.792 170.308 192.378 102.621 183.657 10.5097" stroke="#B6D9FF" stroke-width="0.90655" stroke-miterlimit="10"/>
<path d="M235.586 1701.04C236.298 1618.7 230.753 1524.29 203.413 1435.28C183.821 1371.48 157.521 1325.12 139.298 1283.18C133.972 1270.91 128.126 1259.11 122.869 1246.93C92.3244 1175.89 71.747 1129.04 58.5215 1100.25C44.8306 1070.54 38.8066 1057.44 47.3224 1020.45C52.3503 999.01 59.721 978.529 69.2278 959.583C80.824 936.465 87.6969 928.68 99.1973 916.227C104.455 910.554 109.904 906.005 114.956 899.906C136.272 874.114 152.688 853.517 164.462 798.389C175.812 745.254 177.153 670.827 162.217 608.744C160.847 603.207 159.478 597.995 158.013 593.051C138.559 526.425 118.474 512.645 114.298 466.255C113.758 460.001 113.484 453.708 113.477 447.416C113.354 422.628 117.078 399.715 123.458 369.582C133.164 323.173 146.39 286.594 155.727 256.031C159.707 243.14 163.13 229.991 165.982 216.65C175.812 170.432 183.301 103.07 176.715 11.9251" stroke="#B6D9FF" stroke-width="0.90655" stroke-miterlimit="10"/>
<path d="M242.144 1701.79C243.842 1623.1 240.542 1526.71 212.407 1433.01C192.487 1366.57 165.119 1318.7 146.39 1277.56C140.694 1265.05 134.478 1253.13 128.838 1240.91C96.2945 1170.45 72.5134 1123.89 56.9468 1094C41.2433 1063.86 33.7681 1049 41.9553 1012.96C46.9658 991.664 54.7248 971.525 64.9286 953.33C77.4147 931.013 85.3555 924.199 97.116 913.194C102.592 908.083 108.165 903.977 113.326 897.862C134.41 873.125 148.922 849.309 158.205 794.385C167.282 740.5 166.063 666.82 151.236 605.951C149.867 600.481 148.498 595.308 147.129 590.383C127.373 522.036 108.657 508.045 104.591 463.988C104.022 457.772 103.73 451.509 103.715 445.254C103.578 420.104 107.097 397.277 113.299 367.956C122.677 323.546 135.67 287.637 145.5 255.333C149.059 243.666 152.578 230.737 155.727 216.268C165.749 170.499 174.196 103.462 169.733 13.3021" stroke="#B6D9FF" stroke-width="0.90655" stroke-miterlimit="10"/>
<path d="M248.51 1702.54C251.248 1627.58 250.208 1529.23 221.292 1430.81C201.044 1361.89 172.58 1312.36 153.358 1272.01C147.293 1259.28 140.721 1247.22 134.67 1234.97C100.128 1165.02 73.1567 1118.72 55.2626 1087.83C37.4644 1057.27 28.6201 1040.68 36.4787 1005.55C41.4764 984.379 49.6118 964.561 60.4652 947.114C73.8549 925.564 82.8772 919.857 94.8705 910.197C100.566 905.649 106.275 901.952 111.532 895.972C132.356 872.292 145.048 845.274 151.784 790.571C158.52 735.869 154.796 662.985 140.078 603.35C138.709 597.928 137.34 592.783 135.971 587.897C115.913 517.809 98.567 503.618 94.5967 461.827C94.0184 455.669 93.7122 449.481 93.6794 443.275C93.4192 417.723 96.842 394.962 102.962 366.618C111.998 324.177 124.771 288.947 135.081 254.912C138.613 243.293 142.118 230.469 145.335 216.172C155.549 170.834 164.941 104.122 162.627 14.947" stroke="#B6D9FF" stroke-width="0.90655" stroke-miterlimit="10"/>
<path d="M254.794 1703.27C258.587 1631.91 259.751 1531.7 230.069 1428.56C209.532 1357.01 179.905 1306.01 160.245 1266.43C153.797 1253.47 146.883 1241.27 140.42 1228.95C103.866 1159.55 73.7457 1113.49 53.442 1081.63C33.6997 1050.57 23.322 1032.22 30.8657 998.151C35.8766 975.528 46.2406 954.983 55.8653 940.928C70.1313 920.128 80.2626 915.374 92.4886 907.214C98.403 903.261 104.249 899.956 109.616 894.063C130.152 871.421 140.954 841.251 145.212 786.736C149.58 731.318 143.391 659.141 128.783 600.721C127.414 595.375 126.045 590.259 124.676 585.391C104.304 513.582 88.3265 499.2 84.4657 459.762C83.8788 453.651 83.5543 447.502 83.4936 441.353C83.0966 415.475 86.4372 392.715 92.4338 365.164C101.141 324.722 113.682 290.209 124.484 254.434C127.975 242.863 131.494 230.134 134.752 216.029C145.171 171.13 155.508 104.734 155.289 16.5441" stroke="#B6D9FF" stroke-width="0.90655" stroke-miterlimit="10"/>
<path d="M260.997 1704.02C265.83 1636.3 269.047 1534.24 238.749 1426.33C217.72 1352.35 187.134 1299.67 166.995 1260.85C160.149 1247.68 152.907 1235.29 146.034 1223.01C107.549 1154.08 74.1703 1108.24 51.5666 1075.41C29.8254 1043.84 17.9965 1023.93 25.1979 990.64C29.9623 968.817 40.874 948.374 51.2106 934.643C66.3528 914.592 77.5794 910.98 90.0518 904.149C96.1853 900.741 102.141 897.862 107.617 892.036C127.935 870.434 136.752 837.061 138.655 782.751C140.612 726.532 132.001 655.134 117.488 597.947C116.128 592.64 114.759 587.571 113.381 582.733C92.7352 509.174 78.0996 494.609 74.3483 457.486C73.7456 451.423 73.4029 445.331 73.3215 439.22C72.8149 412.989 76.0597 390.229 81.9194 363.567C90.2845 325.133 102.661 291.252 113.901 253.717C117.379 242.203 120.87 229.599 124.183 215.646C134.807 171.178 146.089 105.117 148.033 17.8925" stroke="#B6D9FF" stroke-width="0.90655" stroke-miterlimit="10"/>
<path d="M267.103 1704.77C272.949 1640.71 278.425 1536.69 247.333 1424.1C225.989 1347.54 194.226 1293.32 173.69 1255.26C166.475 1241.89 158.876 1229.36 151.593 1217.03C111.15 1148.6 74.5676 1102.89 49.5816 1069.21C25.8279 1037.1 12.4929 1015.55 19.3794 983.264C23.8838 962.224 35.3568 941.866 46.4327 928.492C62.4511 909.157 74.8003 906.687 87.5055 901.235C93.8718 898.476 99.951 895.904 105.523 890.179C125.566 869.48 133.781 832.921 131.933 778.832C129.988 721.97 120.446 651.194 106.043 595.222C104.683 589.972 103.314 584.942 101.936 580.122C81.0981 504.794 67.7084 490.076 64.0666 455.267C63.4591 449.252 63.1026 443.208 62.9987 437.145C62.3963 410.55 65.5179 387.742 71.2133 362.047C79.3183 325.678 91.5443 292.39 103.195 253.133C106.645 241.677 110.137 229.168 113.505 215.407C124.334 171.37 136.56 105.624 140.64 19.3844" stroke="#B6D9FF" stroke-width="0.90655" stroke-miterlimit="10"/>
<path d="M273.14 1705.59C279.986 1645.18 287.749 1539.21 255.849 1421.94C234.19 1342.81 201.263 1287.13 180.261 1249.76C172.649 1236.13 164.736 1223.47 156.987 1211.14C114.545 1143.16 74.841 1097.71 47.4592 1063.06C21.7203 1030.33 6.96145 1007.11 13.5057 975.735C17.7499 955.496 29.7705 935.224 41.5858 922.191C58.453 903.57 71.9249 902.293 84.8491 898.119C91.4481 895.972 97.6364 893.741 103.332 888.102C123.102 868.511 127.975 828.919 125.128 774.932C122.129 717.313 108.808 647.302 94.5149 592.544C93.1458 587.438 91.7767 582.321 90.4076 577.568C69.2551 500.519 57.2208 485.582 53.7023 453.087C53.0781 447.129 52.7034 441.123 52.5796 435.118C51.8677 408.169 54.8934 385.438 60.4793 360.564C68.1872 326.099 80.112 293.547 92.3243 252.579C95.7471 241.141 99.1698 228.729 102.661 215.101C113.614 171.503 126.853 106.064 133.069 20.8856" stroke="#B6D9FF" stroke-width="0.90655" stroke-miterlimit="10"/>
<path d="M279.109 1706.25C287.009 1649.5 297.003 1541.62 264.31 1419.62C242.336 1337.85 208.177 1280.78 186.805 1244.15C178.782 1230.39 170.568 1217.47 162.435 1205.14C118.186 1137.52 75.0873 1092.36 45.3506 1056.93C17.5443 1023.67 1.36165 998.919 7.60471 968.34C11.5888 948.902 24.157 928.68 36.6979 916.005C54.4961 898.083 69.0085 898.032 82.1792 895.137C89.0246 893.654 95.3088 891.729 101.114 886.192C120.61 867.589 123.403 824.863 118.296 771.08C112.819 712.771 97.1433 643.41 82.9459 589.905C81.5768 584.789 80.2077 579.797 78.9481 575.044C57.4807 496.254 46.7607 481.145 43.3517 450.954C42.7365 444.996 42.3709 439.01 42.2564 433.004C41.5 408.007 44.0438 383.037 49.7864 359.063C57.1658 326.596 68.8579 294.704 81.5631 251.995C84.9447 240.615 88.4085 228.317 91.9134 214.91C108.032 152.224 119.315 87.779 125.607 22.4349" stroke="#B6D9FF" stroke-width="0.90655" stroke-miterlimit="10"/>
<path d="M285.038 1707C293.964 1653.9 306.218 1544.07 272.716 1417.39C250.427 1333.11 215.118 1274.53 193.309 1238.51C96.4179 1078.66 -11.7952 1028.07 1.63563 960.827C5.35956 942.189 18.4755 922.019 31.7557 909.719C60.0959 883.45 81.5906 900.008 98.8412 884.165C141.146 845.323 93.8988 670.607 67.3521 572.404C41.4625 476.669 33.1247 473.121 31.7557 431.005C29.3324 357.495 53.0587 319.29 81.043 214.652C97.6017 152.444 109.966 88.6205 118.008 23.8501" stroke="#B6D9FF" stroke-width="0.90655" stroke-miterlimit="10"/>
<path d="M288.953 1707C298.715 1652.49 309.901 1546.06 277.836 1424.95C255.643 1341.36 219.992 1285.26 197.06 1246.6C105.564 1092.19 6.4686 1044.03 15.313 975.529C18.7631 948.765 25.677 921.593 36.2738 903.654C57.1113 868.407 75.7447 881.507 92.4065 861.064C128.907 816.31 87.9296 653.346 63.5735 559.848C39.7649 468.78 33.029 465.098 34.3981 420.582C36.6708 346.612 57.6727 310.138 84.5343 211.572C101.284 150.073 113.344 86.7462 120.555 22.4348" stroke="#B6D9FF" stroke-width="0.90655" stroke-miterlimit="10"/>
<path d="M293.033 1707C309.853 1616.09 306.421 1521.18 283.107 1432.52C261.024 1349.6 225.003 1296.09 200.962 1254.7C114.627 1105.92 23.1716 1059.35 29.1409 990.213C32.1802 955.137 32.9469 922.155 40.9561 897.589C54.647 855.442 69.844 863.653 86.1362 837.963C117.228 788.883 82.111 636.085 59.9454 547.282C38.2179 461.024 32.9469 457.189 37.1911 410.139C43.8723 335.901 62.5741 300.987 88.1898 208.484C105.12 147.72 116.876 84.9101 123.266 21.0865" stroke="#B6D9FF" stroke-width="0.90655" stroke-miterlimit="10"/>
<path d="M300.289 1707C317.31 1618.73 314.286 1526.32 291.554 1440.06C269.567 1357.85 233.176 1306.91 208.04 1262.79C126.688 1119.96 52.5384 1074.17 46.1447 1004.92C42.147 961.593 43.7899 923.28 48.8007 891.507C56.3581 843.5 67.1329 846.294 83.028 814.845C109.342 762.784 79.6053 618.795 59.4934 534.726C39.9838 453.154 35.9176 449.357 43.1464 399.715C53.9896 325.229 70.6241 291.864 95.0076 205.385C112.137 145.349 123.596 83.0263 129.153 19.6903" stroke="#B6D9FF" stroke-width="0.90655" stroke-miterlimit="10"/>
<path d="M311.338 1707C328.551 1621.39 325.922 1531.46 303.753 1447.63C281.848 1366.09 245.088 1317.75 218.87 1270.88C142.351 1134.1 75.2792 1088.78 66.9004 1019.6C60.6847 968.203 51.1832 922.819 60.3972 885.442C73.075 834.011 73.9512 832.086 83.6717 791.745C113.258 743.21 80.8103 601.524 62.7931 522.151C45.4056 445.321 42.5305 441.534 52.8672 389.272C67.6397 314.604 82.4806 282.75 105.577 202.306C122.901 142.986 134.059 81.1517 138.778 18.3131" stroke="#B6D9FF" stroke-width="0.90655" stroke-miterlimit="10"/>
<path d="M322.646 1707C340.063 1624.05 337.867 1536.6 316.321 1455.16C294.525 1374.31 257.354 1328.56 230.068 1278.94C158.246 1148.34 97.636 1103.54 88.025 1034.37C79.7557 974.745 66.6398 925.137 72.3763 879.344C79.7694 820.297 76.8669 815.067 84.6981 768.61C111.026 717.686 82.2748 584.263 66.4618 509.661C51.1964 437.566 49.3755 433.788 62.9569 378.916C81.467 303.951 94.7335 273.713 116.516 199.284C134.036 140.691 144.892 79.3349 148.772 17.0031" stroke="#B6D9FF" stroke-width="0.90655" stroke-miterlimit="10"/>
<path d="M334.174 1707C351.76 1626.72 349.975 1541.78 329.04 1462.76C307.34 1382.58 269.758 1339.48 241.418 1287.06C174.182 1162.7 119.706 1118.41 109.301 1048.99C99.1558 981.304 90.8317 926.567 84.4928 873.313C76.6616 807.554 79.9064 798.117 85.8619 745.544C109.013 692.153 83.9452 567.011 70.2817 497.019C57.1384 429.667 56.2895 425.88 73.1978 368.406C95.295 293.308 107.192 264.571 127.619 196.205C145.328 138.32 155.885 77.4413 158.93 15.6259" stroke="#B6D9FF" stroke-width="0.90655" stroke-miterlimit="10"/>
<path d="M345.853 1707C360.598 1643.58 365.568 1557.94 341.923 1470.3C320.456 1390.76 282.299 1350.37 252.932 1295.16C190.173 1177.15 141.625 1133.32 130.741 1063.69C118.884 987.777 107.288 927.402 96.7736 867.232C84.1643 795.169 75.361 779.496 87.19 722.429C99.4434 663.291 85.8209 549.75 74.2658 484.472C63.2309 421.844 63.313 418.028 83.5893 357.973C109.15 282.511 119.843 255.486 138.873 193.039C150.702 154.213 166.173 95.6399 169.24 14.1533" stroke="#B6D9FF" stroke-width="0.90655" stroke-miterlimit="10"/>
<path d="M357.736 1707C373.289 1642.09 377.219 1559.93 354.998 1477.87C333.64 1399.01 294.991 1361.29 264.638 1303.25C206.274 1191.68 163.517 1148.48 152.373 1078.37C138.983 994.217 124.019 928.084 109.246 861.167C91.8997 782.614 78.7017 763.005 88.7097 699.325C98.2934 638.628 87.7788 532.508 78.4415 471.897C69.5151 413.974 70.3365 410.024 94.1861 347.53C123.115 271.686 132.74 246.439 150.319 189.95C162.23 151.689 177.701 93.9855 179.754 12.7763" stroke="#B6D9FF" stroke-width="0.90655" stroke-miterlimit="10"/>
<path d="M369.757 1707C386.186 1640.56 389.006 1561.92 368.223 1485.43C346.975 1407.25 307.819 1372.24 276.494 1311.34C222.443 1206.26 185.422 1163.64 174.155 1093.08C159.382 1000.59 140.94 928.68 121.869 855.102C99.799 769.922 82.5076 746.497 90.3799 676.221C97.3623 613.87 89.9555 515.265 82.7677 459.341C75.9223 406.218 77.4967 402.01 104.933 337.106C137.175 260.784 145.828 237.412 161.915 186.871C173.922 149.154 189.447 92.3501 190.406 11.3991" stroke="#B6D9FF" stroke-width="0.90655" stroke-miterlimit="10"/>
<path d="M381.956 1707C399.165 1639.15 400.959 1563.9 381.613 1492.99C360.461 1415.5 320.757 1383.23 288.515 1319.43C238.708 1220.91 200.743 1180.03 196.101 1107.76C189.516 1005.31 158.041 929.225 134.657 849.037C107.877 757.162 73.0474 726.378 92.2147 653.126C108.274 591.932 92.2147 498.1 87.2586 446.765C82.5352 398.424 84.7668 393.958 115.832 326.663C151.332 249.815 159.136 228.422 173.676 183.782C185.792 146.63 201.331 90.6956 201.236 10.0219" stroke="#B6D9FF" stroke-width="0.90655" stroke-miterlimit="10"/>
<path d="M394.551 1707C412.596 1637.66 413.28 1565.89 395.482 1500.54C374.426 1423.74 334.12 1394.25 301.015 1327.52C255.383 1235.53 224.113 1195.21 218.527 1122.46C209.998 1011.73 175.633 929.702 147.923 842.955C116.434 744.317 79.3178 711.145 94.5284 630.003C106.604 565.643 95.0486 480.81 92.2283 434.209C89.5859 390.621 92.461 385.763 127.222 316.24C165.94 238.779 172.964 219.424 185.915 180.684C198.155 144.105 213.68 89.0509 212.53 8.61629" stroke="#B6D9FF" stroke-width="0.90655" stroke-miterlimit="10"/>
<path d="M407.941 1707C426.821 1636.2 426.452 1567.9 409.995 1508.11C389.034 1431.99 348.071 1405.33 314.159 1335.62C272.661 1250.33 248.127 1210.4 241.597 1137.15C230.986 1018.1 193.884 930.145 161.847 836.89C125.607 731.404 86.9851 695.49 97.4998 606.908C105.495 539.546 98.4581 463.596 97.842 421.643C97.267 382.837 100.772 377.529 139.257 305.797C181.165 227.686 187.49 210.396 198.813 177.604C211.217 141.6 226.687 87.3104 224.483 7.23915" stroke="#B6D9FF" stroke-width="0.90655" stroke-miterlimit="10"/>
<path d="M421.564 1707C441.279 1634.72 439.827 1569.89 424.822 1515.67C403.944 1440.23 362.241 1416.45 327.617 1343.71C290.186 1265.09 272.429 1225.65 264.981 1151.85C252.139 1024.56 212.435 930.554 176.072 830.825C135.095 718.384 95.5282 679.443 100.772 583.804C104.619 513.62 102.141 446.373 103.77 409.087C105.235 375.081 109.342 369.257 151.606 295.373C196.69 216.507 202.441 201.531 212.024 174.516C224.634 139.132 240.022 85.7612 236.75 5.86213" stroke="#B6D9FF" stroke-width="0.90655" stroke-miterlimit="10"/>
<path d="M436.391 1707C456.927 1633.23 454.326 1571.94 440.841 1523.23C419.921 1448.53 377.493 1427.66 342.266 1351.8C308.86 1279.88 297.907 1240.91 289.556 1166.54C274.345 1031.07 232.191 930.929 191.488 824.829C145.774 705.579 111.478 662.66 105.235 560.776C100.799 488.164 107.015 429.236 110.889 396.579C114.367 367.325 119.104 360.976 165.133 284.997C213.407 205.366 218.527 192.695 226.4 171.503C239.31 136.78 254.521 84.1738 250.195 4.552" stroke="#B6D9FF" stroke-width="0.90655" stroke-miterlimit="10"/>
<path d="M451.067 1707C472.439 1631.77 468.77 1573.93 456.722 1530.78C435.898 1456.78 392.457 1438.97 356.778 1359.89C327.356 1294.68 323.235 1256.21 313.994 1181.24C296.292 1037.61 251.796 931.287 206.78 818.679C156.302 692.459 119.158 645.504 109.575 537.585C102.948 462.63 111.669 411.908 117.871 383.955C123.348 359.445 128.687 352.512 178.536 274.497C229.959 194.024 234.573 183.763 240.665 168.328C254.055 134.399 268.882 82.4524 263.502 3.08883" stroke="#B6D9FF" stroke-width="0.90655" stroke-miterlimit="10"/>
<path d="M465.758 1707C487.951 1630.34 483.227 1575.82 472.603 1538.34C451.875 1465.09 407.202 1450.4 371.29 1367.99C345.798 1309.48 348.564 1271.53 338.432 1195.92C318.101 1044.22 271.347 931.627 222.059 812.614C166.83 679.424 126.784 628.3 113.901 514.481C105.125 436.887 116.256 394.599 124.854 371.38C132.192 351.575 138.257 344.125 191.939 264.054C246.525 182.711 250.673 174.956 254.918 165.249C269.279 132.419 283.258 80.8172 276.823 1.70224" stroke="#B6D9FF" stroke-width="0.90655" stroke-miterlimit="10"/>
</g>
</svg>
