<svg width="73" height="73" viewBox="0 0 73 73" fill="none" xmlns="http://www.w3.org/2000/svg">
<path d="M20.9601 27.8095L20.9578 27.8095C20.0406 27.8143 19.2904 27.0745 19.2877 26.1578C19.2877 26.1576 19.2877 26.1574 19.2877 26.1572L19.2877 23.0863C19.2877 22.4218 19.9949 21.648 20.9571 21.648H47.5656C47.8901 21.648 48.2528 21.8154 48.5435 22.1061C48.8343 22.3969 49.0008 22.7589 49.0008 23.0802V26.1401L49.0008 26.1413C49.0033 27.0998 48.2267 27.8095 47.5686 27.8095L20.9601 27.8095ZM49.235 49.9198L49.235 49.9222C49.2398 50.8363 48.4967 51.5837 47.5828 51.5893H21.0057C20.0112 51.3771 19.2907 50.5904 19.2907 49.6887L19.2907 46.6287L19.2907 46.6273C19.2886 45.9674 19.9944 45.1905 20.9601 45.1905H47.5686C48.4982 45.1905 49.235 45.933 49.235 46.8599L49.235 49.9198ZM36.5 72.5494C16.4993 72.5494 0.450617 56.2732 0.450617 36.5C0.450617 16.4975 16.4975 0.450617 36.5 0.450617C56.5025 0.450617 72.5494 16.4975 72.5494 36.5C72.5494 56.2732 56.5007 72.5494 36.5 72.5494ZM36.5 3.60494C28.0009 3.60494 19.6685 7.59833 13.4668 13.6862C7.26501 19.7741 3.15432 27.9956 3.15432 36.5C3.15432 45.0047 7.26388 53.3378 13.4638 59.5373C19.6638 65.7369 27.9968 69.8457 36.5 69.8457C45.0047 69.8457 53.3377 65.7369 59.5373 59.5373C65.7369 53.3377 69.8457 45.0047 69.8457 36.5C69.8457 27.9956 65.7358 19.7741 59.5344 13.6862C53.333 7.59832 45.0006 3.60494 36.5 3.60494ZM54.4002 39.5838H28.0229C27.1024 39.5838 26.3584 38.8439 26.3504 37.9307V34.8545C26.3504 33.927 27.0938 33.185 28.0229 33.185H54.6314C55.5592 33.185 56.3008 33.9288 56.3008 34.8545V37.8681C56.0856 38.8619 55.3005 39.5838 54.4002 39.5838Z" fill="#8F6EED" stroke="#8F6EED" stroke-width="0.901235"/>
</svg>
