<svg width="20" height="20" viewBox="0 0 20 20" fill="none" xmlns="http://www.w3.org/2000/svg">
<path d="M10 0C4.48614 0 6.45317e-05 4.48607 6.45317e-05 9.99997C6.45317e-05 11.7217 0.444846 13.4147 1.28832 14.9086L0.0161514 19.4478C-0.0255876 19.5969 0.0148471 19.7569 0.122673 19.8678C0.205716 19.9534 0.318759 19.9999 0.434846 19.9999C0.469628 19.9999 0.504845 19.9956 0.539193 19.9873L5.27657 18.8139C6.72309 19.5904 8.35221 19.9999 10 19.9999C15.5139 19.9999 20 15.5139 20 9.99997C20 4.48607 15.5139 0 10 0ZM15.0305 13.5287C14.8165 14.1208 13.7905 14.6613 13.2974 14.7339C12.8548 14.7986 12.2948 14.8265 11.68 14.6334C11.3074 14.516 10.8292 14.3604 10.2166 14.0991C7.64134 13.0008 5.95961 10.4404 5.83092 10.2713C5.70265 10.1021 4.78266 8.89693 4.78266 7.64954C4.78266 6.40215 5.4457 5.78868 5.68135 5.53476C5.917 5.28085 6.19483 5.21737 6.36613 5.21737C6.53743 5.21737 6.7083 5.21955 6.8583 5.2265C7.01613 5.23433 7.22787 5.16694 7.43613 5.66172C7.65004 6.16955 8.16352 7.41693 8.22699 7.54432C8.29134 7.67128 8.33395 7.81954 8.24873 7.98867C8.16352 8.1578 8.12091 8.26345 7.99221 8.41171C7.86352 8.55997 7.72265 8.74215 7.607 8.85606C7.4783 8.98258 7.34482 9.11954 7.49439 9.37345C7.64395 9.62736 8.15917 10.4574 8.92264 11.1295C9.90308 11.993 10.7305 12.2608 10.987 12.3878C11.2435 12.5147 11.3935 12.4934 11.5431 12.3243C11.6926 12.1547 12.1848 11.5839 12.3557 11.3304C12.5265 11.0769 12.6978 11.1187 12.9335 11.2034C13.1692 11.2878 14.4313 11.9008 14.6878 12.0278C14.9444 12.1547 15.1157 12.2182 15.18 12.3239C15.2444 12.4291 15.2444 12.9369 15.0305 13.5287Z" fill="black" fill-opacity="0.5"/>
</svg>
