<svg width="52" height="21" viewBox="0 0 52 21" fill="none" xmlns="http://www.w3.org/2000/svg">
<path d="M29.3399 0.348667C28.3919 0.846008 28.0381 1.68582 28.0381 4.00631C28.0381 4.00631 28.5187 3.54167 29.2304 3.28266C29.6656 3.11925 30.076 2.89639 30.45 2.62043C31.2518 2.03296 31.376 1.27593 31.376 0.000862259C31.376 0.000862259 30.0688 -0.0345189 29.3399 0.348002M22.2683 2.86742L19.5219 13.562L17.2367 4.81007C17.0145 3.87946 16.6133 2.72924 15.9784 1.95084C15.1699 0.959499 13.5263 0.897413 13.3522 0.897413C13.1766 0.897413 11.533 0.959499 10.7252 1.95084C10.0904 2.72924 9.68919 3.88014 9.46619 4.81007L7.18178 13.5633L4.43536 2.86742C4.43536 2.86742 4.19236 1.69583 3.36324 0.960831C2.01741 -0.230786 0 0.0235599 0 0.0235599L5.26048 20.0114C5.26048 20.0114 6.99614 20.1382 7.86404 19.6923C9.00421 19.1081 9.54696 18.6575 10.2379 15.9379C10.8534 13.5132 12.5738 6.39157 12.734 5.88419C12.8141 5.63385 12.9142 5.03504 13.3522 5.03504C13.7994 5.03504 13.8915 5.63385 13.969 5.88419C14.1272 6.39224 15.8495 13.5132 16.4657 15.9379C17.156 18.6575 17.6994 19.1081 18.8396 19.6923C19.7074 20.1376 21.4431 20.0114 21.4431 20.0114L26.703 0.0242277C26.703 0.0242277 24.6862 -0.230786 23.3404 0.960831C22.5106 1.69516 22.2683 2.86742 22.2683 2.86742ZM31.3739 3.33873C31.3739 3.33873 31.0669 3.84809 30.3679 4.26799C29.918 4.53836 29.4867 4.72061 29.0241 4.95893C28.2484 5.35814 28.0381 5.80342 28.0381 6.48233V19.9967C28.0381 19.9967 29.2758 20.1643 30.0855 19.7217C31.127 19.1516 31.3666 18.6015 31.376 16.1254V4.05971H31.3739V3.33873ZM45.1841 10.0191L52 0.107674C52 0.107674 49.1241 -0.370976 47.6995 0.896747C46.7882 1.70785 45.7682 3.1665 45.7682 3.1665L43.2608 6.70127C43.1393 6.88485 42.9791 7.08515 42.7254 7.08515C42.4717 7.08515 42.3115 6.88485 42.1906 6.70127L39.6819 3.1665C39.6819 3.1665 38.6632 1.70785 37.7513 0.896747C36.3274 -0.371644 33.4501 0.107674 33.4501 0.107674L40.2661 10.0191L33.4675 19.8992C33.4675 19.8992 36.4642 20.2698 37.8888 19.002C38.8001 18.1902 39.6819 16.8725 39.6819 16.8725L42.1906 13.3376C42.3108 13.154 42.471 12.9538 42.7254 12.9538C42.9791 12.9538 43.1393 13.154 43.2608 13.3376L45.7682 16.8718C45.7682 16.8718 46.7028 18.1902 47.614 19.002C49.0386 20.2704 51.982 19.8999 51.982 19.8999L45.1841 10.0191Z" fill="black"/>
</svg>
