<svg width="82" height="73" viewBox="0 0 82 73" fill="none" xmlns="http://www.w3.org/2000/svg">
<path d="M17.0262 39.4038C16.9873 39.3928 16.9521 39.3677 16.9215 39.3315C16.9215 39.3315 16.6879 39.1697 16.5987 39.0586L16.5498 39.1226L16.8493 39.5149L17.0262 39.4038Z" fill="#8F6EED"/>
<path d="M18.3813 41.5476C18.3813 39.4043 17.0783 37.5696 15.2257 36.7814C15.2148 36.7759 15.2006 36.7704 15.1882 36.7649C15.052 36.7064 14.9126 36.6534 14.769 36.6118C14.7439 36.6031 14.7192 36.598 14.6926 36.5894C14.5619 36.5477 14.4256 36.5144 14.2848 36.4837C14.2569 36.4783 14.2249 36.4728 14.1943 36.4641C13.8715 36.4028 13.5414 36.3667 13.2017 36.3667C12.8652 36.3667 12.5351 36.4028 12.2178 36.4641C12.1817 36.4728 12.1415 36.4783 12.1049 36.4865C11.9755 36.5148 11.8475 36.5482 11.7222 36.5871C11.6889 36.5958 11.6569 36.6035 11.6221 36.615C11.4914 36.6598 11.3606 36.7069 11.2326 36.7599C11.2088 36.7654 11.1864 36.7763 11.1645 36.7818C10.2428 37.1773 9.45958 37.8288 8.90408 38.6499C8.90408 38.6499 8.90408 38.6499 8.90134 38.6531C8.80944 38.7921 8.72486 38.9311 8.64394 39.076C8.64394 39.0792 8.64119 39.082 8.64119 39.082C8.5621 39.2265 8.49078 39.3769 8.4254 39.5328C8.16205 40.1509 8.01758 40.8303 8.01758 41.5481C8.01758 43.8725 9.54736 45.8412 11.6573 46.4977C12.1447 46.6481 12.6636 46.7318 13.1999 46.7318C16.0606 46.7313 18.3813 44.412 18.3813 41.5476ZM10.16 37.9619C10.3424 38.2348 9.90946 38.2792 9.90946 38.2792C9.86328 38.2929 9.8203 38.3125 9.77458 38.3345C9.89437 38.201 10.0224 38.0789 10.16 37.9619ZM10.6277 42.4995C10.465 42.7057 10.4846 42.9119 10.4846 42.9119C10.6935 43.6411 10.277 43.6411 10.277 43.6411C9.97804 43.686 10.0946 44.0531 10.0946 44.0531C10.0946 44.2588 9.97804 44.4207 9.97804 44.4207C10.0946 44.5793 9.99998 44.7604 9.99998 44.7604C9.97804 44.7992 9.96661 44.8381 9.96661 44.8774C9.0769 44.0307 8.52004 42.8337 8.52004 41.5088C8.52004 41.2358 8.54655 40.9684 8.58816 40.7069C8.61468 40.6593 8.63114 40.6346 8.63114 40.6346L8.8163 40.7517C8.97906 40.6849 9.06959 40.935 9.06959 40.935C9.2104 40.9099 9.25612 41.1636 9.25612 41.1636C9.60268 41.0242 9.67217 41.6592 9.67217 41.6592C9.85734 41.6592 10.0644 41.8873 10.0644 41.8873C10.4124 41.8873 10.481 42.121 10.481 42.121C10.7864 42.0679 10.6277 42.4995 10.6277 42.4995ZM10.753 37.7392C10.7242 37.9957 10.2798 37.9619 10.1742 37.9509C10.3593 37.795 10.5555 37.6533 10.7672 37.5275L10.753 37.7392ZM16.3459 43.1401C16.3459 43.1401 16.1831 43.2539 16.1831 43.5241C16.1831 43.5241 16.1831 43.7554 15.9298 43.7554C15.9298 43.7554 15.65 44.3452 14.8632 44.2314C14.8632 44.2314 14.8632 43.8025 14.6323 43.3015C14.6323 43.3015 14.4224 43.0258 14.7439 42.7057C14.7439 42.7057 15.0488 42.569 14.5838 42.046C14.5838 42.046 14.2816 41.7927 14.4444 41.5202C14.4444 41.5202 14.4906 41.2916 14.3763 41.2249C14.3763 41.2249 14.0507 41.2916 13.9822 41.063C13.9822 41.063 13.3809 41.2912 13.1011 41.1801C13.1011 41.1801 12.7532 41.4082 12.4748 40.8824C12.4748 40.8824 12.0126 40.6063 12.1753 40.3567C12.1753 40.3567 12.2238 40.1056 12.2238 39.8551C12.2238 39.8551 12.2654 39.4455 12.7304 39.2397C12.7304 39.2397 12.8693 38.825 13.0783 38.825C13.0783 38.825 13.5167 38.8026 13.7504 38.7135C13.7504 38.7135 14.0498 38.622 14.2322 38.6691C14.2322 38.6691 14.352 38.8474 14.2807 38.9645C14.2807 38.9645 14.604 38.8502 14.8138 39.1007C14.8138 39.1007 15.0227 39.0788 14.9766 38.9197C14.9766 38.9197 15.5097 39.2397 15.7895 39.0591C15.7895 39.0591 15.8576 38.6024 15.607 38.6248C15.607 38.6248 15.2102 38.6472 15.0255 38.3742C15.0255 38.3742 14.8165 38.2824 14.8627 38.4191C14.8627 38.4191 14.8851 38.5585 15.0479 38.6024C15.0479 38.6024 15.0017 38.7391 14.8403 38.6691C14.8403 38.6691 14.7022 38.6243 14.6538 38.324C14.6538 38.324 14.2835 38.2572 14.1902 38.0954C14.1902 38.0954 13.9593 38.1649 14.4892 38.4159C14.4892 38.4159 14.6995 38.5745 14.4211 38.6915C14.4211 38.6915 14.2345 38.5996 14.443 38.558C14.443 38.558 14.3973 38.4634 14.1897 38.3939C14.1897 38.3939 14.0489 38.2572 14.027 38.1653C14.027 38.1653 13.7499 38.3464 13.6333 38.2298C13.6333 38.2298 13.5844 38.4579 13.4482 38.4579C13.4482 38.4579 13.423 38.8031 12.9612 38.6696H12.8218C12.8218 38.6696 12.7075 38.3468 12.8693 38.2549C12.8693 38.2549 13.1688 38.3244 13.2383 38.2549C13.3092 38.1905 13.3549 38.0739 13.1688 38.0263C13.1688 38.0263 12.8931 37.9568 13.0074 37.8178C13.0074 37.8178 13.1437 37.6592 13.2831 37.8677C13.2831 37.8677 13.514 37.7063 13.8162 37.6843C13.8162 37.6843 14.352 37.453 14.2103 37.2939C14.2103 37.2939 13.8651 37.5001 13.7024 37.3885C13.7024 37.3885 13.247 37.2386 13.6173 36.8737C15.2248 37.0269 16.5932 38.0071 17.3032 39.3764C17.2351 39.4048 17.1377 39.4322 17.0527 39.4103C17.1236 39.4793 17.4203 39.814 17.1528 40.0558C17.1528 40.0558 17.0609 40.3064 16.7839 40.4458C16.7839 40.4458 16.3916 39.4852 15.9001 39.2818C15.9001 39.2818 16.4108 40.1701 16.83 40.5793C16.83 40.5793 16.9443 40.6488 17.129 40.5628C17.129 40.5628 17.1528 41.3145 16.713 41.8156C16.713 41.8156 16.5987 42.0885 16.6449 42.3834C16.6453 42.3884 16.7135 42.8895 16.3459 43.1401Z" fill="#8F6EED"/>
<path d="M43.3959 25.6848C43.357 25.6706 43.3223 25.6482 43.2912 25.6107C43.2912 25.6107 43.0575 25.4507 42.9684 25.3364L42.9199 25.4018L43.2189 25.7927L43.3959 25.6848Z" fill="#8F6EED"/>
<path d="M38.0263 32.7809C38.5132 32.9314 39.0326 33.015 39.5689 33.015C42.4304 33.015 44.7512 30.6934 44.7512 27.8286C44.7512 25.6853 43.4482 23.8487 41.5956 23.0596C41.5846 23.0541 41.5705 23.0513 41.5581 23.0454C41.4214 22.9855 41.2824 22.9343 41.1389 22.8909C41.1137 22.8826 41.0886 22.8772 41.0625 22.8689C40.9318 22.8287 40.7955 22.7949 40.6547 22.7633C40.6268 22.7578 40.5948 22.7523 40.5642 22.7441C40.2409 22.6842 39.9113 22.6467 39.5689 22.6467C39.2319 22.6467 38.9023 22.6815 38.5845 22.7441C38.5484 22.7523 38.5082 22.7578 38.4702 22.7665C38.3422 22.7953 38.2137 22.8264 38.0889 22.8666C38.0542 22.8753 38.0235 22.8836 37.9888 22.8945C37.858 22.9375 37.7273 22.9864 37.5988 23.0381C37.575 23.0463 37.5531 23.0545 37.5307 23.0632C36.609 23.4569 35.8258 24.1098 35.2703 24.93C35.2703 24.93 35.2703 24.93 35.2675 24.9341C35.1757 25.0703 35.0906 25.2098 35.0101 25.3556C35.0101 25.3584 35.0074 25.3611 35.0074 25.3611C34.9283 25.5056 34.857 25.6574 34.7916 25.8105C34.5283 26.4296 34.3838 27.1108 34.3838 27.8259C34.3861 30.1544 35.9159 32.1253 38.0263 32.7809ZM38.5479 26.6371C38.5479 26.6371 38.5964 26.3866 38.5964 26.1361C38.5964 26.1361 38.638 25.7255 39.103 25.5193C39.103 25.5193 39.242 25.106 39.4509 25.106C39.4509 25.106 39.8893 25.0836 40.123 24.9917C40.123 24.9917 40.4224 24.9012 40.6049 24.9469C40.6049 24.9469 40.7246 25.1266 40.6533 25.2431C40.6533 25.2431 40.9766 25.1288 41.1864 25.3798C41.1864 25.3798 41.3954 25.3574 41.3492 25.2002C41.3492 25.2002 41.8827 25.5188 42.1621 25.3364C42.1621 25.3364 42.2302 24.881 41.9796 24.9034C41.9796 24.9034 41.5828 24.9254 41.3981 24.6529C41.3981 24.6529 41.1892 24.561 41.2353 24.6991C41.2353 24.6991 41.2577 24.8358 41.4205 24.8815C41.4205 24.8815 41.3748 25.0178 41.2134 24.9496C41.2134 24.9496 41.0753 24.9039 41.0282 24.6044C41.0282 24.6044 40.657 24.5363 40.5633 24.3763C40.5633 24.3763 40.3319 24.4444 40.8623 24.6963C40.8623 24.6963 41.0726 24.855 40.7941 24.9693C40.7941 24.9693 40.6076 24.8774 40.8161 24.8358C40.8161 24.8358 40.7704 24.7411 40.5628 24.673C40.5628 24.673 40.422 24.5363 40.4 24.4444C40.4 24.4444 40.123 24.6268 40.0064 24.5098C40.0064 24.5098 39.9588 24.7384 39.8212 24.7384C39.8212 24.7384 39.7961 25.0808 39.3343 24.9473H39.1949C39.1949 24.9473 39.0806 24.6273 39.2424 24.534C39.2424 24.534 39.5432 24.6022 39.6114 24.534C39.6822 24.4687 39.728 24.3521 39.5432 24.3059C39.5432 24.3059 39.2662 24.2378 39.3805 24.097C39.3805 24.097 39.5167 23.9383 39.6562 24.1454C39.6562 24.1454 39.8871 23.9868 40.1893 23.9635C40.1893 23.9635 40.7251 23.7321 40.5834 23.5735C40.5834 23.5735 40.2382 23.7778 40.0754 23.6667C40.0754 23.6667 39.6201 23.5163 39.9904 23.1542C41.5979 23.3074 42.9663 24.2858 43.6763 25.6542C43.6082 25.6821 43.5108 25.7113 43.4258 25.6875C43.4966 25.7584 43.7933 26.0926 43.5259 26.3345C43.5259 26.3345 43.434 26.585 43.1569 26.7231C43.1569 26.7231 42.7647 25.7653 42.2745 25.5595C42.2745 25.5595 42.7839 26.4488 43.2031 26.8598C43.2031 26.8598 43.3169 26.9279 43.5021 26.8401C43.5021 26.8401 43.5259 27.5918 43.0861 28.0942C43.0861 28.0942 42.9718 28.3672 43.0179 28.6634C43.0179 28.6634 43.0861 29.1664 42.7162 29.4192C42.7162 29.4192 42.5534 29.5335 42.5534 29.8051C42.5534 29.8051 42.5534 30.0346 42.3001 30.0346C42.3001 30.0346 42.0203 30.6248 41.234 30.5105C41.234 30.5105 41.234 30.083 41.0031 29.5792C41.0031 29.5792 40.7928 29.3049 41.1142 28.9862C41.1142 28.9862 41.4191 28.8486 40.9542 28.3251C40.9542 28.3251 40.652 28.0732 40.8147 27.8002C40.8147 27.8002 40.8609 27.5694 40.7466 27.504C40.7466 27.504 40.4211 27.5698 40.3529 27.344C40.3529 27.344 39.7517 27.5721 39.4719 27.4578C39.4719 27.4578 39.124 27.6864 38.8456 27.1615C38.8474 27.1615 38.3824 26.8872 38.5479 26.6371ZM37.1366 23.8085L37.1229 24.0229C37.0936 24.2762 36.6497 24.2455 36.5436 24.2346C36.7287 24.0768 36.9249 23.9351 37.1366 23.8085ZM36.5299 24.2455C36.7118 24.5153 36.2793 24.5615 36.2793 24.5615C36.2336 24.577 36.1902 24.5935 36.1445 24.6159C36.2638 24.4847 36.3918 24.3626 36.5299 24.2455ZM34.958 26.9846C34.9845 26.9361 35.001 26.911 35.001 26.911L35.1862 27.028C35.3489 26.9599 35.4395 27.21 35.4395 27.21C35.5798 27.1881 35.626 27.4386 35.626 27.4386C35.9725 27.3005 36.042 27.9369 36.042 27.9369C36.2272 27.9369 36.4348 28.1651 36.4348 28.1651C36.7827 28.1651 36.8508 28.396 36.8508 28.396C37.153 28.3475 36.9939 28.7828 36.9939 28.7828C36.8312 28.989 36.8508 29.1933 36.8508 29.1933C37.0598 29.9244 36.6433 29.9244 36.6433 29.9244C36.3438 29.9687 36.4608 30.3336 36.4608 30.3336C36.4608 30.5425 36.3438 30.7025 36.3438 30.7025C36.4608 30.8612 36.3662 31.0436 36.3662 31.0436C36.3438 31.0815 36.3314 31.1218 36.3314 31.1606C35.4422 30.3144 34.8867 29.1174 34.8867 27.792C34.8872 27.515 34.9137 27.2466 34.958 26.9846Z" fill="#8F6EED"/>
<path d="M25.4906 59.8044C25.4504 59.7907 25.4165 59.7683 25.385 59.7322C25.385 59.7322 25.1509 59.5708 25.0636 59.4592L25.0146 59.5237L25.3169 59.9132L25.4906 59.8044Z" fill="#8F6EED"/>
<path d="M23.6893 57.1792C23.6769 57.1737 23.6628 57.1705 23.6518 57.1655C23.5156 57.1043 23.3747 57.0544 23.2326 57.0124C23.206 57.0037 23.1813 56.9986 23.1562 56.9872C23.0241 56.9484 22.8878 56.915 22.7484 56.8839C22.7191 56.8757 22.6885 56.8702 22.6565 56.8647C22.3346 56.8034 22.0036 56.7668 21.6612 56.7668C21.326 56.7668 20.9946 56.8002 20.6787 56.8647C20.6412 56.8702 20.6023 56.8757 20.5644 56.8866C20.4363 56.915 20.3083 56.9456 20.1831 56.9872C20.1483 56.9932 20.1163 57.0037 20.0829 57.0156C19.9522 57.0572 19.8196 57.1043 19.692 57.1577C19.6696 57.166 19.6472 57.1742 19.6239 57.1829C18.7036 57.5779 17.919 58.2294 17.3635 59.051C17.3635 59.051 17.3635 59.051 17.3608 59.0537C17.2689 59.19 17.1838 59.3317 17.1043 59.4771L17.1015 59.4826C17.0206 59.6298 16.9498 59.7779 16.8844 59.9334C16.6229 60.5515 16.4766 61.2309 16.4766 61.9487C16.4766 64.2736 18.0077 66.2418 20.1163 66.8988C20.605 67.0492 21.123 67.1324 21.6589 67.1324C24.5223 67.1324 26.8426 64.8108 26.8426 61.9487C26.8453 59.8045 25.5451 57.9702 23.6893 57.1792ZM18.6199 58.3625C18.8023 58.6354 18.3694 58.6798 18.3694 58.6798C18.3232 58.6935 18.2816 58.7104 18.2359 58.7355C18.3584 58.6025 18.4864 58.4795 18.6199 58.3625ZM19.0876 62.9061C18.9248 63.1091 18.9454 63.3157 18.9454 63.3157C19.1525 64.0454 18.7365 64.0454 18.7365 64.0454C18.4375 64.093 18.5541 64.4546 18.5541 64.4546C18.5541 64.6635 18.4375 64.8222 18.4375 64.8222C18.5541 64.984 18.4613 65.1674 18.4613 65.1674C18.4375 65.2039 18.4265 65.2428 18.4265 65.2844C17.5368 64.4381 16.9818 63.238 16.9818 61.913C16.9818 61.6401 17.0069 61.3704 17.0499 61.1143C17.075 61.0645 17.0929 61.0361 17.0929 61.0361L17.278 61.1532C17.4394 61.0864 17.5313 61.3365 17.5313 61.3365C17.6708 61.3146 17.7165 61.5651 17.7165 61.5651C18.0644 61.4284 18.1325 62.0662 18.1325 62.0662C18.3177 62.0662 18.5266 62.2916 18.5266 62.2916C18.8746 62.2916 18.9427 62.5229 18.9427 62.5229C19.2504 62.469 19.0876 62.9061 19.0876 62.9061ZM19.2129 58.1457C19.185 58.3963 18.7397 58.3657 18.6336 58.3542C18.8202 58.1988 19.0163 58.0571 19.2266 57.9281L19.2129 58.1457ZM25.7705 59.7798C25.701 59.8104 25.6049 59.8383 25.5185 59.8159C25.5912 59.8854 25.8875 60.2196 25.6191 60.4619C25.6191 60.4619 25.5286 60.7125 25.2515 60.8492C25.2515 60.8492 24.8579 59.8909 24.3678 59.6879C24.3678 59.6879 24.8785 60.5757 25.2977 60.9854C25.2977 60.9854 25.412 61.0549 25.5972 60.9657C25.5972 60.9657 25.6196 61.7201 25.1807 62.2217C25.1807 62.2217 25.0664 62.4941 25.1125 62.7895C25.1125 62.7895 25.1807 63.2906 24.809 63.5466C24.809 63.5466 24.6476 63.6604 24.6476 63.9307C24.6476 63.9307 24.6476 64.162 24.3929 64.162C24.3929 64.162 24.1145 64.7518 23.3267 64.6379C23.3267 64.6379 23.3267 64.2091 23.0972 63.7053C23.0972 63.7053 22.8855 63.4323 23.2074 63.1123C23.2074 63.1123 23.5137 62.9756 23.0488 62.4498C23.0488 62.4498 22.7466 62.1993 22.9079 61.9258C22.9079 61.9258 22.9541 61.695 22.8398 61.631C22.8398 61.631 22.5157 61.695 22.4471 61.4691C22.4471 61.4691 21.8459 61.6973 21.5661 61.5862C21.5661 61.5862 21.2181 61.8115 20.9383 61.2881C20.9383 61.2881 20.4761 61.0124 20.6393 60.7623C20.6393 60.7623 20.6878 60.5117 20.6878 60.2612C20.6878 60.2612 20.7308 59.8515 21.1957 59.6458C21.1957 59.6458 21.3347 59.2311 21.5423 59.2311C21.5423 59.2311 21.9821 59.2087 22.2162 59.1196C22.2162 59.1196 22.5157 59.0281 22.6981 59.072C22.6981 59.072 22.8179 59.2531 22.7466 59.3697C22.7466 59.3697 23.068 59.2526 23.2796 59.5064C23.2796 59.5064 23.4872 59.4812 23.441 59.3253C23.441 59.3253 23.9741 59.6454 24.2539 59.4643C24.2539 59.4643 24.3221 59.008 24.0715 59.0304C24.0715 59.0304 23.6747 59.0528 23.49 58.7794C23.49 58.7794 23.2824 58.688 23.3272 58.8242C23.3272 58.8242 23.351 58.9609 23.5137 59.008C23.5137 59.008 23.4676 59.1447 23.3048 59.0748C23.3048 59.0748 23.1685 59.03 23.1196 58.7291C23.1196 58.7291 22.7493 58.6624 22.6547 58.501C22.6547 58.501 22.4238 58.5705 22.9541 58.821C22.9541 58.821 23.1658 58.9801 22.886 59.0972C22.886 59.0972 22.7008 59.0025 22.9084 58.9605C22.9084 58.9605 22.8641 58.8686 22.6551 58.7986C22.6551 58.7986 22.5161 58.6624 22.4924 58.5705C22.4924 58.5705 22.2167 58.7515 22.0996 58.6345C22.0996 58.6345 22.0512 58.8631 21.9145 58.8631C21.9145 58.8631 21.8879 59.2083 21.4257 59.0716H21.2867C21.2867 59.0716 21.1724 58.7515 21.3352 58.6569C21.3352 58.6569 21.6347 58.7264 21.7028 58.6569C21.7736 58.5929 21.8198 58.4758 21.6347 58.4315C21.6347 58.4315 21.3576 58.362 21.4719 58.223C21.4719 58.223 21.61 58.0612 21.749 58.2728C21.749 58.2728 21.9798 58.111 22.282 58.0891C22.282 58.0891 22.8179 57.8582 22.6761 57.6991C22.6761 57.6991 22.331 57.9053 22.1682 57.7937C22.1682 57.7937 21.7115 57.6405 22.0832 57.2789C23.6925 57.433 25.0604 58.4073 25.7705 59.7798Z" fill="#8F6EED"/>
<path d="M19.066 55.871C19.3165 55.7677 19.4848 55.7069 19.6562 55.6511C19.9319 55.5675 20.0892 55.5286 20.252 55.4925C20.7796 55.3891 21.2071 55.353 21.6121 55.3475L17.8343 46.2502C16.6621 47.4051 15.0683 48.1211 13.3076 48.1485L17.0937 57.2577C17.6711 56.6894 18.3125 56.1938 19.066 55.871Z" fill="#8F6EED"/>
<path d="M7.99545 45.6204L0 58.549L4.17283 61.1298L12.284 48.0202C11.9333 47.9726 11.5739 47.9676 11.2347 47.8615C9.91202 47.4496 8.80286 46.6477 7.99545 45.6204Z" fill="#8F6EED"/>
<path d="M57.3549 16.2666L66.8925 21.7676L45.2443 59.2618L42.6094 33.6638C41.695 34.1425 40.6746 34.4406 39.5732 34.4406C38.9066 34.4406 38.2455 34.34 37.6091 34.1425C36.3746 33.7585 35.3405 33.0347 34.5468 32.1048L22.2432 55.3948C22.4686 55.4172 22.6999 55.4232 22.928 55.4671C23.227 55.5288 23.404 55.5731 23.5777 55.6289C23.8507 55.7126 24.0331 55.7793 24.2155 55.8575C25.1802 56.269 25.9529 56.921 26.6057 57.6666L37.9364 36.2223L40.5338 61.3919C40.7189 61.2918 40.8817 61.1468 41.0778 61.0604C41.3297 60.9571 41.4971 60.8967 41.6681 60.841C41.9451 60.7573 42.1024 60.718 42.2638 60.6791C43.3899 60.4619 44.1177 60.4958 44.9347 60.6512C45.2342 60.7125 45.4111 60.7568 45.5849 60.8126C45.8592 60.8967 46.0402 60.963 46.2236 61.0412C47.2596 61.481 48.0889 62.1879 48.7628 63.0177L71.1513 24.2232L80.2381 29.4654L82.0001 0L57.3549 16.2666Z" fill="#8F6EED"/>
<path d="M47.4942 64.9915C47.4548 64.9773 47.4215 64.9549 47.3908 64.916C47.3908 64.916 47.1568 64.7574 47.0681 64.6431L47.0205 64.7098L47.3181 65.0998L47.4942 64.9915Z" fill="#8F6EED"/>
<path d="M45.6961 62.3662C45.6852 62.3603 45.6678 62.3576 45.6568 62.3521C45.5206 62.2908 45.3811 62.241 45.238 62.1994C45.2129 62.1879 45.1882 62.1825 45.1612 62.1742C45.0305 62.1349 44.8942 62.0988 44.7534 62.0709C44.7255 62.065 44.6935 62.0599 44.6629 62.0485C44.3401 61.9872 44.01 61.9539 43.6676 61.9539C43.3311 61.9539 43.001 61.9872 42.6837 62.0485C42.6475 62.0595 42.6073 62.065 42.5694 62.0709C42.4413 62.0988 42.3133 62.1322 42.1881 62.171C42.1533 62.182 42.1227 62.1875 42.0879 62.1994C41.9572 62.2437 41.8264 62.2908 41.6984 62.3438C41.6746 62.3521 41.6522 62.3603 41.6303 62.369C40.7086 62.7613 39.9254 63.4128 39.3699 64.2371C39.3699 64.2371 39.3699 64.2371 39.3672 64.2371C39.2753 64.3765 39.1907 64.5151 39.1098 64.6605C39.1098 64.6632 39.107 64.6659 39.107 64.6659C39.0279 64.8104 38.9566 64.9636 38.8912 65.1167C38.6279 65.7349 38.4834 66.417 38.4834 67.1321C38.4834 69.4596 40.0132 71.4251 42.1231 72.0821C42.6105 72.2353 43.1294 72.3158 43.6657 72.3158C46.5264 72.3158 48.848 69.9969 48.848 67.1321C48.8499 64.9915 47.5473 63.1513 45.6961 62.3662ZM40.6263 63.5495C40.8087 63.8192 40.3757 63.864 40.3757 63.864C40.3296 63.8809 40.2866 63.8974 40.2409 63.9198C40.3602 63.7886 40.4928 63.6665 40.6263 63.5495ZM41.094 68.0871C40.9312 68.2929 40.9509 68.4968 40.9509 68.4968C41.1598 69.2265 40.7433 69.2265 40.7433 69.2265C40.4443 69.274 40.5609 69.638 40.5609 69.638C40.5609 69.8469 40.4443 70.0055 40.4443 70.0055C40.5609 70.1674 40.4663 70.348 40.4663 70.348C40.4443 70.3841 40.4315 70.4262 40.4315 70.465C39.5436 69.6183 38.9868 68.4218 38.9868 67.0937C38.9868 66.8207 39.0133 66.5537 39.0549 66.2949C39.0814 66.2474 39.0983 66.2195 39.0983 66.2195L39.2835 66.3365C39.4463 66.2698 39.5368 66.5203 39.5368 66.5203C39.6776 66.4979 39.7233 66.7485 39.7233 66.7485C40.0699 66.609 40.1394 67.2468 40.1394 67.2468C40.3245 67.2468 40.5316 67.4754 40.5316 67.4754C40.8796 67.4754 40.9477 67.7063 40.9477 67.7063C41.2526 67.6556 41.094 68.0871 41.094 68.0871ZM41.2193 63.3291C41.1905 63.5824 40.7461 63.5518 40.64 63.5408C40.8252 63.3849 41.0213 63.2404 41.233 63.1147L41.2193 63.3291ZM47.7727 64.9663C47.706 64.9942 47.6058 65.0216 47.5222 64.9992C47.5944 65.0715 47.8898 65.4057 47.6223 65.6453C47.6223 65.6453 47.5309 65.8958 47.2547 66.0352C47.2547 66.0352 46.8597 65.0774 46.3696 64.8717C46.3696 64.8717 46.8816 65.7623 47.2991 66.1715C47.2991 66.1715 47.4134 66.241 47.5999 66.1523C47.5999 66.1523 47.6218 66.9039 47.182 67.405C47.182 67.405 47.0682 67.6775 47.1153 67.9756C47.1153 67.9756 47.182 68.4794 46.8117 68.73C46.8117 68.73 46.6476 68.847 46.6476 69.114C46.6476 69.114 46.6476 69.3481 46.397 69.3481C46.397 69.3481 46.1158 69.9383 45.3295 69.8213C45.3295 69.8213 45.3295 69.3952 45.0981 68.8914C45.0981 68.8914 44.8878 68.6184 45.2092 68.2984C45.2092 68.2984 45.5142 68.1621 45.0492 67.6359C45.0492 67.6359 44.7474 67.3853 44.9098 67.1124C44.9098 67.1124 44.9559 66.8811 44.8421 66.8148C44.8421 66.8148 44.5161 66.8815 44.448 66.6557C44.448 66.6557 43.8468 66.8843 43.567 66.77C43.567 66.77 43.2186 66.9981 42.9406 66.4746C42.9406 66.4746 42.4784 66.1989 42.6411 65.9484C42.6411 65.9484 42.6896 65.6978 42.6896 65.4473C42.6896 65.4473 42.7312 65.0381 43.1962 64.8319C43.1962 64.8319 43.3356 64.4172 43.5446 64.4172C43.5446 64.4172 43.983 64.3948 44.2171 64.3034C44.2171 64.3034 44.5161 64.2142 44.6985 64.2586C44.6985 64.2586 44.8183 64.4369 44.7474 64.5535C44.7474 64.5535 45.0702 64.4424 45.2805 64.6929C45.2805 64.6929 45.489 64.6705 45.4428 64.5119C45.4428 64.5119 45.9759 64.8319 46.2571 64.6481C46.2571 64.6481 46.3239 64.1918 46.0738 64.2142C46.0738 64.2142 45.6783 64.2366 45.4918 63.9637C45.4918 63.9637 45.2833 63.8745 45.3295 64.0112C45.3295 64.0112 45.3514 64.1475 45.5142 64.1923C45.5142 64.1923 45.468 64.3317 45.3071 64.2618C45.3071 64.2618 45.169 64.2142 45.1205 63.9166C45.1205 63.9166 44.7502 63.8471 44.6569 63.6885C44.6569 63.6885 44.4256 63.7575 44.9559 64.008C44.9559 64.008 45.1662 64.1671 44.8878 64.2814C44.8878 64.2814 44.7017 64.1895 44.9102 64.1475C44.9102 64.1475 44.864 64.0528 44.6569 63.9856C44.6569 63.9856 44.5161 63.8466 44.4942 63.7575C44.4942 63.7575 44.2176 63.9385 44.1005 63.822C44.1005 63.822 44.0521 64.0501 43.9154 64.0501C43.9154 64.0501 43.8902 64.3925 43.4284 64.259H43.289C43.289 64.259 43.1747 63.9385 43.3365 63.8471C43.3365 63.8471 43.6355 63.9139 43.7055 63.8471C43.7764 63.7804 43.8225 63.6633 43.636 63.619C43.636 63.619 43.3603 63.5495 43.4746 63.4073C43.4746 63.4073 43.6109 63.2509 43.7503 63.4571C43.7503 63.4571 43.9816 63.298 44.2834 63.2733C44.2834 63.2733 44.8192 63.0452 44.677 62.8838C44.677 62.8838 44.3319 63.0895 44.1691 62.9784C44.1691 62.9784 43.7142 62.828 44.0841 62.4659C45.6961 62.6168 47.0654 63.5943 47.7727 64.9663Z" fill="#8F6EED"/>
</svg>
