<svg width="29" height="29" viewBox="0 0 29 29" fill="none" xmlns="http://www.w3.org/2000/svg">
<path d="M28.5177 0.0453342V5.5606L14.7095 15.6908L0.900391 5.5464V0L14.736 10.1444L28.5177 0.0453342Z" fill="url(#paint0_linear_2065_41357)"/>
<path d="M5.46286 28.5407H0.900391V8.18359L5.46286 11.5269V28.5407Z" fill="url(#paint1_linear_2065_41357)"/>
<path d="M23.9532 11.5283V23.6281C23.9532 23.8419 23.7709 24.0155 23.5457 24.0155H17.3645C17.1393 24.0155 16.957 23.8419 16.957 23.6281V19.9546L12.3945 16.6085V27.9665C12.3945 28.2829 12.6644 28.5398 12.9973 28.5398H23.8089C26.4096 28.5398 28.5176 26.535 28.5176 24.0622V8.18359L23.9532 11.5283Z" fill="url(#paint2_linear_2065_41357)"/>
<path d="M22.904 1.82031L16.9532 6.16283H12.3945V6.13444V1.82031H22.904Z" fill="url(#paint3_linear_2065_41357)"/>
<defs>
<linearGradient id="paint0_linear_2065_41357" x1="10.8322" y1="-2.45995" x2="26.5459" y2="21.0512" gradientUnits="userSpaceOnUse">
<stop stop-color="#00FFA9"/>
<stop offset="1" stop-color="#0D4DFF"/>
</linearGradient>
<linearGradient id="paint1_linear_2065_41357" x1="-5.38749" y1="8.41666" x2="10.4658" y2="32.1367" gradientUnits="userSpaceOnUse">
<stop stop-color="#00FFA9"/>
<stop offset="1" stop-color="#0D4DFF"/>
</linearGradient>
<linearGradient id="paint2_linear_2065_41357" x1="7.10622" y1="0.0666543" x2="22.9595" y2="23.7867" gradientUnits="userSpaceOnUse">
<stop stop-color="#00FFA9"/>
<stop offset="1" stop-color="#0D4DFF"/>
</linearGradient>
<linearGradient id="paint3_linear_2065_41357" x1="12.3523" y1="-3.18959" x2="27.4568" y2="19.4102" gradientUnits="userSpaceOnUse">
<stop stop-color="#00FFA9"/>
<stop offset="1" stop-color="#0D4DFF"/>
</linearGradient>
</defs>
</svg>
