<svg width="227" height="44" viewBox="0 0 227 44" fill="none" xmlns="http://www.w3.org/2000/svg">
<path d="M41.4489 35V9.45511H44.4413L55.9 28.7597H54.2944L65.6071 9.45511H68.5995L68.636 35H65.1327L65.0962 14.9655H65.9355L55.8635 31.8981H54.1849L44.0399 14.9655H44.9522V35H41.4489ZM84.0752 35.219C82.129 35.219 80.4017 34.7932 78.8933 33.9417C77.3849 33.0902 76.1928 31.9224 75.317 30.4384C74.4412 28.93 74.0033 27.2271 74.0033 25.3294C74.0033 23.4075 74.4412 21.7045 75.317 20.2205C76.1928 18.7364 77.3849 17.5808 78.8933 16.7536C80.4017 15.9022 82.129 15.4764 84.0752 15.4764C85.9972 15.4764 87.7124 15.9022 89.2207 16.7536C90.7534 17.5808 91.9455 18.7364 92.797 20.2205C93.6728 21.6802 94.1107 23.3832 94.1107 25.3294C94.1107 27.2514 93.6728 28.9544 92.797 30.4384C91.9455 31.9224 90.7534 33.0902 89.2207 33.9417C87.7124 34.7932 85.9972 35.219 84.0752 35.219ZM84.0752 32.1536C85.316 32.1536 86.4229 31.8738 87.3961 31.3142C88.3936 30.7547 89.1721 29.964 89.7316 28.9422C90.2912 27.8961 90.571 26.6918 90.571 25.3294C90.571 23.9427 90.2912 22.7506 89.7316 21.7531C89.1721 20.7314 88.3936 19.9407 87.3961 19.3811C86.4229 18.8216 85.316 18.5418 84.0752 18.5418C82.8345 18.5418 81.7276 18.8216 80.7544 19.3811C79.7813 19.9407 79.0028 20.7314 78.4189 21.7531C77.835 22.7506 77.5431 23.9427 77.5431 25.3294C77.5431 26.6918 77.835 27.8961 78.4189 28.9422C79.0028 29.964 79.7813 30.7547 80.7544 31.3142C81.7276 31.8738 82.8345 32.1536 84.0752 32.1536ZM107.24 35.219C105.293 35.219 103.566 34.7932 102.058 33.9417C100.549 33.0902 99.3571 31.9224 98.4813 30.4384C97.6055 28.93 97.1676 27.2271 97.1676 25.3294C97.1676 23.4075 97.6055 21.7045 98.4813 20.2205C99.3571 18.7364 100.549 17.5808 102.058 16.7536C103.566 15.9022 105.293 15.4764 107.24 15.4764C109.162 15.4764 110.877 15.9022 112.385 16.7536C113.918 17.5808 115.11 18.7364 115.961 20.2205C116.837 21.6802 117.275 23.3832 117.275 25.3294C117.275 27.2514 116.837 28.9544 115.961 30.4384C115.11 31.9224 113.918 33.0902 112.385 33.9417C110.877 34.7932 109.162 35.219 107.24 35.219ZM107.24 32.1536C108.48 32.1536 109.587 31.8738 110.56 31.3142C111.558 30.7547 112.336 29.964 112.896 28.9422C113.455 27.8961 113.735 26.6918 113.735 25.3294C113.735 23.9427 113.455 22.7506 112.896 21.7531C112.336 20.7314 111.558 19.9407 110.56 19.3811C109.587 18.8216 108.48 18.5418 107.24 18.5418C105.999 18.5418 104.892 18.8216 103.919 19.3811C102.946 19.9407 102.167 20.7314 101.583 21.7531C100.999 22.7506 100.707 23.9427 100.707 25.3294C100.707 26.6918 100.999 27.8961 101.583 28.9422C102.167 29.964 102.946 30.7547 103.919 31.3142C104.892 31.8738 105.999 32.1536 107.24 32.1536ZM132.447 15.4764C134.029 15.4764 135.416 15.7805 136.608 16.3887C137.824 16.9969 138.773 17.9214 139.454 19.1622C140.135 20.4029 140.476 21.9721 140.476 23.8697V35H136.973V24.2711C136.973 22.3979 136.51 20.9868 135.586 20.038C134.686 19.0892 133.408 18.6148 131.754 18.6148C130.513 18.6148 129.431 18.8581 128.506 19.3446C127.582 19.8312 126.864 20.5489 126.353 21.4977C125.867 22.4465 125.623 23.6264 125.623 25.0375V35H122.12V15.6589H125.477V20.8773L124.93 19.4906C125.563 18.2255 126.536 17.2402 127.849 16.5347C129.163 15.8292 130.696 15.4764 132.447 15.4764ZM147.47 35V9.45511H158.236C160.96 9.45511 163.357 9.99033 165.425 11.0608C167.517 12.1312 169.135 13.6274 170.278 15.5494C171.446 17.4713 172.03 19.6974 172.03 22.2276C172.03 24.7577 171.446 26.9838 170.278 28.9057C169.135 30.8277 167.517 32.3239 165.425 33.3943C163.357 34.4648 160.96 35 158.236 35H147.47ZM151.119 31.8251H158.017C160.133 31.8251 161.958 31.4237 163.49 30.6209C165.048 29.818 166.252 28.6989 167.103 27.2635C167.955 25.8038 168.381 24.1252 168.381 22.2276C168.381 20.3056 167.955 18.6269 167.103 17.1916C166.252 15.7562 165.048 14.6371 163.49 13.8342C161.958 13.0314 160.133 12.63 158.017 12.63H151.119V31.8251ZM177.109 35V15.6589H180.612V35H177.109ZM178.86 11.9366C178.179 11.9366 177.607 11.7177 177.145 11.2797C176.707 10.8418 176.488 10.3066 176.488 9.67406C176.488 9.0172 176.707 8.4698 177.145 8.03189C177.607 7.59398 178.179 7.37502 178.86 7.37502C179.541 7.37502 180.101 7.59398 180.539 8.03189C181.001 8.44548 181.232 8.96854 181.232 9.60108C181.232 10.2579 181.013 10.8175 180.575 11.2797C180.137 11.7177 179.566 11.9366 178.86 11.9366ZM192.373 35L183.907 15.6589H187.556L195.074 33.1754H193.322L200.986 15.6589H204.416L195.95 35H192.373ZM215.763 35.219C213.695 35.219 211.871 34.7932 210.289 33.9417C208.732 33.0902 207.516 31.9224 206.64 30.4384C205.788 28.9544 205.363 27.2514 205.363 25.3294C205.363 23.4075 205.776 21.7045 206.603 20.2205C207.455 18.7364 208.611 17.5808 210.07 16.7536C211.554 15.9022 213.221 15.4764 215.07 15.4764C216.943 15.4764 218.597 15.89 220.033 16.7172C221.468 17.5443 222.587 18.7121 223.39 20.2205C224.217 21.7045 224.631 23.444 224.631 25.4389C224.631 25.5849 224.619 25.7552 224.594 25.9498C224.594 26.1444 224.582 26.3269 224.558 26.4972H208.1V23.9792H222.733L221.31 24.855C221.334 23.6143 221.079 22.5073 220.544 21.5342C220.008 20.5611 219.266 19.8069 218.318 19.2716C217.393 18.7121 216.311 18.4323 215.07 18.4323C213.853 18.4323 212.771 18.7121 211.822 19.2716C210.873 19.8069 210.131 20.5732 209.596 21.5707C209.061 22.5438 208.793 23.6629 208.793 24.928V25.5119C208.793 26.8013 209.085 27.9569 209.669 28.9787C210.277 29.9762 211.116 30.7547 212.187 31.3142C213.257 31.8738 214.486 32.1536 215.873 32.1536C217.016 32.1536 218.05 31.9589 218.975 31.5697C219.923 31.1804 220.75 30.5965 221.456 29.818L223.39 32.0806C222.514 33.1024 221.42 33.8809 220.106 34.4161C218.816 34.9513 217.369 35.219 215.763 35.219Z" fill="#F1F1F1"/>
<path d="M27.6173 8.04533V13.5606L13.8091 23.6908L0 13.5464V8L13.8356 18.1444L27.6173 8.04533Z" fill="url(#paint0_linear_1099_63694)"/>
<path d="M4.56247 36.5417H0V16.1846L4.56247 19.5279V36.5417Z" fill="url(#paint1_linear_1099_63694)"/>
<path d="M23.0518 19.5298V31.6295C23.0518 31.8434 22.8695 32.0169 22.6444 32.0169H16.4631C16.238 32.0169 16.0556 31.8434 16.0556 31.6295V27.9561L11.4932 24.61V35.9679C11.4932 36.2844 11.763 36.5413 12.0959 36.5413H22.9075C25.5082 36.5413 27.6162 34.5365 27.6162 32.0637V16.1851L23.0518 19.5298Z" fill="url(#paint2_linear_1099_63694)"/>
<path d="M22.0031 9.82129L16.0523 14.1638H11.4937V14.1354V9.82129H22.0031Z" fill="url(#paint3_linear_1099_63694)"/>
<defs>
<linearGradient id="paint0_linear_1099_63694" x1="9.93184" y1="5.54005" x2="25.6455" y2="29.0512" gradientUnits="userSpaceOnUse">
<stop stop-color="#00FFA9"/>
<stop offset="1" stop-color="#0D4DFF"/>
</linearGradient>
<linearGradient id="paint1_linear_1099_63694" x1="-6.28788" y1="16.4176" x2="9.56539" y2="40.1377" gradientUnits="userSpaceOnUse">
<stop stop-color="#00FFA9"/>
<stop offset="1" stop-color="#0D4DFF"/>
</linearGradient>
<linearGradient id="paint2_linear_1099_63694" x1="6.20485" y1="8.06812" x2="22.0581" y2="31.7882" gradientUnits="userSpaceOnUse">
<stop stop-color="#00FFA9"/>
<stop offset="1" stop-color="#0D4DFF"/>
</linearGradient>
<linearGradient id="paint3_linear_1099_63694" x1="11.4514" y1="4.81138" x2="26.5559" y2="27.4111" gradientUnits="userSpaceOnUse">
<stop stop-color="#00FFA9"/>
<stop offset="1" stop-color="#0D4DFF"/>
</linearGradient>
</defs>
</svg>
